<svg id="Layer_1" data-name="Layer 1" xmlns="http://www.w3.org/2000/svg" viewBox="0 0 1133.86 1133.86"><defs><style>.cls-1{fill:#20201e;}.cls-2{fill:#c2c1c1;}</style></defs><path class="cls-1" d="M347.74,843.71s4-35,15.87-57.5c0,0-5.95-39,7.93-46.93s26.44-20.49,48.25-21.82,53.31-9.63,62.13-7.93c53.62,10.34,119-5.45,119-5.45s22.42-.5,29.69-3.8,74-10.58,93.86,11.23,22.47,60.15,31.07,78,19.16,36.36,0,43.63c0,0,31.72,152,31.72,155.33s-171.86,7.93-171.19-3.3,5.94-127.58,5.94-127.58-54.86,2.65-82.62,8.6-115,9.25-127.57,5.95S351.05,854.29,347.74,843.71Z"/><path class="cls-1" d="M445.83,853c-14.88.07-29.73.18-44.42-3.12-5.47-1.23-7.1-3.75-6.2-9.06,4-23.26,8.85-46.22,17-68.49,4.39-12,8.44-24.16,13-36.14.84-2.24,2.43-7.18,5.4-7.34,10.85-.57,19.8-2.29,30.46-3.62,7.75-1,40.59-1.75,40.8,4.24-6.24,21-14.4,63-17.8,84.56-1.72,10.91-.79,22-3,32.92-1,4.8-2.69,6.31-7.43,6.14C464.32,852.81,455.07,853,445.83,853Z"/><path class="cls-1" d="M730.76,876.55c1.08,0,3.39,0,5.69,0,15.76-.16,13.43-3.4,16.83,13.25,3.07,15.06,5.83,30.19,9.27,45.16,1.53,6.66.36,8.89-7,9.31-21,1.18-41.65,5.33-62.44,8.29-17.76,2.53-35.59,4.51-53.34,7.1-4.75.69-5.15-1.33-5-5q1.37-29.13,2.57-58.28c.16-3.88,2.51-5.06,5.76-6C671.35,882.18,700.42,879.4,730.76,876.55Z"/><path class="cls-1" d="M560.16,749.57c-1.35-6.43-2.84-20.33,3.57-20.82,17.15-1.33,34.75-5.62,51-8.12,4.72-2.59,5.85,3.42,6.68,6.59C627,748.48,632.33,769.8,638.09,791q5.94,21.86,12.85,43.44c1.43,4.44.51,4.88-3.76,5.29-25.25,2.46-50.71,2.54-75.82,6.45-4.38.68-4.52-1.69-5.11-4.62-2-9.87-1.6-19.91-2.18-29.87C562.87,791,562.69,770.14,560.16,749.57Z"/><path class="cls-1" d="M678.32,713.63c19.26,5.7,38,10.2,50.33,26.87,8.34,11.31,8.16,25.09,10,38.21C740,788.32,741,797.85,746,806.6c5.92,10.28,5.15,12.11-4.85,18.13-18.29,11-21.88,8.9-24-12.16-3.23-31.89-13.45-61.34-32.65-87.37C682.17,722,679.24,719.07,678.32,713.63Z"/><path class="cls-2" d="M629.65,856.88s60.18,1.14,84.6-6.24a203.15,203.15,0,0,0,41.33-17.5s2.82,8.57,1.91,9.38C757.49,842.52,728.87,859.12,629.65,856.88Z"/></svg>