<svg id="Layer_1" data-name="Layer 1" xmlns="http://www.w3.org/2000/svg" viewBox="0 0 1133.86 1133.86"><defs><style>.cls-1{fill:#ed6e6f;opacity:0.2;}</style></defs><ellipse class="cls-1" cx="426.36" cy="633.06" rx="46.79" ry="24.4"/><path class="cls-1" d="M390.57,635.47l17-18.63s4.48-1.88,2.83,2.24-18.16,18.28-18.16,18.28S390.57,637.48,390.57,635.47Z"/><path class="cls-1" d="M408,643.11l16.81-27.85s1.62-3.88,2.91-1.29-18,33.19-18,33.19-3.56,2.59-3.56,0A5.49,5.49,0,0,1,408,643.11Z"/><path class="cls-1" d="M425,646.44,441.8,618.6s1.62-3.89,2.91-1.3-18,33.19-18,33.19-3.56,2.59-3.56,0A5.49,5.49,0,0,1,425,646.44Z"/><path class="cls-1" d="M462.82,628.77l-17,18.64s-4.48,1.88-2.83-2.24,18.16-18.28,18.16-18.28S462.82,626.77,462.82,628.77Z"/><ellipse class="cls-1" cx="671.92" cy="630.69" rx="46.79" ry="24.4"/><path class="cls-1" d="M707.72,628.28l-17,18.63s-4.48,1.89-2.83-2.24,18.16-18.28,18.16-18.28S707.72,626.27,707.72,628.28Z"/><path class="cls-1" d="M690.29,620.64l-16.82,27.85s-1.61,3.88-2.91,1.29,18-33.19,18-33.19,3.56-2.59,3.56,0A5.47,5.47,0,0,1,690.29,620.64Z"/><path class="cls-1" d="M673.3,617.31l-16.81,27.84s-1.62,3.89-2.92,1.3,18-33.19,18-33.19,3.56-2.59,3.56,0A5.5,5.5,0,0,1,673.3,617.31Z"/><path class="cls-1" d="M635.47,635l17-18.63s4.48-1.89,2.83,2.24-18.16,18.27-18.16,18.27S635.47,637,635.47,635Z"/></svg>