<svg id="Layer_1" data-name="Layer 1" xmlns="http://www.w3.org/2000/svg" viewBox="0 0 1133.86 1133.86"><defs><style>.cls-1{fill:#f9f5f4;}.cls-2{fill:#181515;}.cls-3{fill:#f7ebe7;}.cls-4{fill:#a97070;}</style></defs><path class="cls-1" d="M636,665.81l6.81-23.07,15.11-30.14,5.94-4.78,9.08-5.5,5.86,1.55,10.16,7.78,1.25,10.64-7,21.41-8.73,19.6-1.27,1.47s-31.06,9.6-35.5,7.59S636,665.81,636,665.81Z"/><path class="cls-2" d="M633.23,673.07a69.18,69.18,0,0,1,.33-7.63,64.94,64.94,0,0,1,3.74-14c.78-2.09.42-3-1.25-3.8a36.16,36.16,0,0,1-13.8-10.85c-4.16-5.3-7-11.19-6.94-18.85.08-7.2,7.92-18.76,14.53-17.4,8.11.28,15.42,3.49,22.6,7.27.36.19.7.41,1.06.6,2.54,1.35,4.71,2,7.21-.94,3.14-3.71,7.4-5.56,11.57-7.16a7.92,7.92,0,0,1,6.84.66c4.2,2.28,7.63,5.76,11,9.5,2.7,3,2.94,6.72,2.33,10.68a47.33,47.33,0,0,1-2.49,9.72c-.69,1.81-.58,2.48,1.06,3.49,8.67,5.35,14.14,10.83,17.09,16.19l.33,1.21S660.48,672.33,633.23,673.07Zm55.7-34.7c-.37-2.93-2.66-3.77-4.11-5.53a102.82,102.82,0,0,0,3.42-12c.61-3.26.23-6.25-1.86-8.59A26.84,26.84,0,0,0,682,608c-2.73-1.94-5.55-4.26-9-2.74-4.93,2.19-9.6,5-13.28,9.73-.5.65-.84,1.71-1.86,1.27a3.93,3.93,0,0,0-3.36-1,7.06,7.06,0,0,0-1.24-1.26c-7.26-4.23-14.74-7.63-22.87-8.38a5.18,5.18,0,0,0-3.86.76c-5.73,4.45-9.48,11.28-5.22,20.38,3.59,7.66,9,12.88,15.89,15.77.71.29,1.56.23,2.08,1.09-.06,2.75.19,5.39,2,7.41.34,1.31-.23,2.41-.59,3.53a96.75,96.75,0,0,0-3.4,12.29c-1,5.51,2.87,5.49,9.58,4.62a74.26,74.26,0,0,0,10.42-2.27c8.69-2.51,17.09-4.88,14.73-4.47C672.93,666.08,695.67,642.64,688.93,638.37Z"/><path class="cls-3" d="M639.31,643.64c-.52-.86-1.37-.8-2.08-1.09-6.9-2.89-12.3-8.11-15.89-15.77-4.26-9.1-.51-15.93,5.22-20.38a5.18,5.18,0,0,1,3.86-.76c8.13.75,15.61,4.15,22.87,8.38a7.06,7.06,0,0,1,1.24,1.26c-.5.71-1,1.37-1.49,2.13-4.5,7.83-8.18,16.25-11.89,24.64C640.73,643,640.44,644,639.31,643.64Z"/><path class="cls-3" d="M676.26,663.72a21.09,21.09,0,0,1,.79-2.1c3.09-7.18,6.26-14.31,9.29-21.53a2.3,2.3,0,0,1,2.59-1.72c6.56,4.52,9.7,8,14,15.44l-26.68,9.91"/><path class="cls-4" d="M639.31,643.64c1.13.33,1.42-.64,1.84-1.59,3.71-8.39,7.39-16.81,11.89-24.64.44-.76,1-1.42,1.49-2.13a3.93,3.93,0,0,1,3.36,1c-.88,3.17-2.89,5.49-4.26,8.29-4.14,8.44-8.22,16.9-11.7,25.77-.11.3-.42.49-.63.73C639.5,649,639.25,646.39,639.31,643.64Z"/><path class="cls-4" d="M688.93,638.37a2.3,2.3,0,0,0-2.59,1.72c-3,7.22-6.2,14.35-9.29,21.53a21.09,21.09,0,0,0-.79,2.1c-1.87.6-3.32,1.16-4.22,1,1.74-5.43,4.71-11.83,6.83-17,2-4.93,4.38-9.68,6-14.89C686.27,634.6,688.56,635.44,688.93,638.37Z"/></svg>