<svg id="Layer_1" data-name="Layer 1" xmlns="http://www.w3.org/2000/svg" viewBox="0 0 1133.85827 1133.85827"><path d="M572.50855,657.56909c-10.8956-3.70207-22.2039-2.56861-33.39139-2.8499-4.99841-3.39512-9.30665.19624-13.5092,1.77234-10.82242,4.0587-21.53755,5.05533-32.44112.77265-8.22484-3.23054-10.41993-7.37357-9.23122-16.9565.66445-5.3565,5.81007-9.59555,12.88184-10.26843a44.96093,44.96093,0,0,1,9.69654-.04539c19.25486,2.38125,38.26453.12831,57.29608-2.52647,16.82741-2.34737,29.84883,5.6287,41.88561,16.05252,2.173,1.8818,1.9391,3.36216-.1006,5.04174-6.96426,5.73461-14.29425,10.21466-23.965,8.20515C578.6,656.13714,575.33068,654.91024,572.50855,657.56909Z" style="fill:#f1dbdb"/><path d="M572.50855,657.56909c2.82213-2.65885,6.09148-1.43195,9.12155-.80229,9.67074,2.00951,17.00073-2.47054,23.965-8.20515,2.0397-1.67958,2.27362-3.15994.1006-5.04174-12.03678-10.42382-25.0582-18.39989-41.88561-16.05252-19.03155,2.65478-38.04122,4.90772-57.29608,2.52647a44.96093,44.96093,0,0,0-9.69654.04539c-7.07177.67288-12.21739,4.91193-12.88184,10.26843-1.18871,9.58293,1.00638,13.726,9.23122,16.9565,10.90357,4.28268,21.6187,3.28605,32.44112-.77265,4.20255-1.5761,8.51079-5.16746,13.5092-1.77234-.1634,1.37784-.12742,3.14433-1.63506,3.576-13.79829,3.95062-27.09688,10.36721-42.289,5.3055-13.41034-4.46806-19.06188-11.42819-17.04167-25.01448.91549-6.15661,5.89313-9.58454,11.37144-11.96835a32.00994,32.00994,0,0,1,16.97006-2.14728c20.37891,2.56218,40.46365.31526,60.59522-2.74754a126.5055,126.5055,0,0,1,26.27124-1.43818,25.05048,25.05048,0,0,1,14.02686,5.38076c10.76093,8.30725,10.6383,20.147-.15611,28.57385Q588.05159,669.21134,572.50855,657.56909Z" style="fill:#2a292a"/></svg>