<svg id="Layer_1" data-name="Layer 1" xmlns="http://www.w3.org/2000/svg" viewBox="0 0 1133.85827 1133.85827"><path d="M524.06652,682.33081c-10.41736,2.29093-12.688-5.86262-14.39246-12.57359-8.95041-35.24143,2.116-66.03565,25.01615-92.081,10.17273-11.57,26.24133-14.97715,41.83929-8.68385,16.88771,6.81365,28.82342,18.98074,32.33475,37.18484,5.16464,26.77485-13.3824,67.11692-36.66414,81.36446-1.91839,1.174-4.903.60542-7.39243.84642-.85436-8.08525,5.5346-11.74225,10.16718-16.36986,22.07147-22.04742,19.52415-40.40407-7.5488-55.9532-9.34473-5.367-19.20854-7.39152-29.82325-7.44458-8.38043-.04189-12.95369,3.541-15.92819,11.52766C513.77267,641.36569,517.53284,661.83144,524.06652,682.33081Z" style="fill:#2a292a"/><path d="M524.06652,682.33081c-6.53368-20.49937-10.29385-40.96512-2.3919-62.18268,2.9745-7.98667,7.54776-11.56955,15.92819-11.52766,10.61471.05306,20.47852,2.07758,29.82325,7.44458,27.07295,15.54913,29.62027,33.90578,7.5488,55.9532-4.63258,4.62761-11.02154,8.28461-10.16718,16.36986C550.85262,688.8898,536.88543,689.47182,524.06652,682.33081Z" style="fill:#f1dbdb"/></svg>