<svg id="Layer_1" data-name="Layer 1" xmlns="http://www.w3.org/2000/svg" viewBox="0 0 1133.86 1133.86"><defs><style>.cls-1{fill:#2a292a;}.cls-2{fill:#f1dbdb;}</style></defs><path class="cls-1" d="M507.75,669c-.06,8.42-4.93,7.09-9.91,4.67-9.55-4.64-14.56-16-12.41-27.94,4-22.22,20.88-32,39.65-38.19,30.15-9.93,58.42-4.2,84.07,14.34,11.35,8.19,12.59,21.71,2.53,34.11-11.63,14.32-28.08,19.4-45.61,21.36-3.33.38-8.36,0-7.29-6.18,8.11-2.35,16.28-4.48,24.3-7.1,10.63-3.47,11.1-5.06,5.46-14.63-11.64-19.73-54.25-33.71-75.62-25.07-11.45,4.63-16.92,13.54-18.54,25C492.93,659.53,500.59,664.24,507.75,669Z"/><path class="cls-2" d="M507.75,669c-7.16-4.71-14.82-9.42-13.37-19.61,1.62-11.48,7.09-20.39,18.54-25,21.37-8.64,64,5.34,75.62,25.07,5.64,9.57,5.17,11.16-5.46,14.63-8,2.62-16.19,4.75-24.3,7.1Z"/></svg>