<svg id="Layer_1" data-name="Layer 1" xmlns="http://www.w3.org/2000/svg" viewBox="0 0 1133.86 1133.86"><defs><style>.cls-1{fill:#2a292a;}</style></defs><path class="cls-1" d="M581.26,661.73c-2.73-.4-7.74-.52-12.35-1.93-13.5-4.13-24.23-2.33-35.1,8.44-16.63,16.47-46.45,6.25-60.64-10.56-3.43-4.06-3.46-9.37.61-13.32s9.18-3.27,13.26.22c3.27,2.78,5.68,6.54,8.65,9.69,10.46,11.07,24.31,12.88,34.23,1.84,10.3-11.47,20.82-12.84,34.81-9.4,19.4,4.79,21.64,2.71,26.54-17.27,1.17-4.77,3.71-8,8.68-8.21,5.57-.22,9,2.61,10.21,8.33C614,647.06,601.33,662.44,581.26,661.73Z"/></svg>