<svg id="Layer_1" data-name="Layer 1" xmlns="http://www.w3.org/2000/svg" viewBox="0 0 1133.86 1133.86"><defs><style>.cls-1{fill:#2a292a;}.cls-2{fill:#f1dbdb;}</style></defs><path class="cls-1" d="M521.05,666.46c-10.06,8.61-17-.72-24.07-5-6.55-4-10.77-10.44-7.37-19.36,7.43-19.47,22.77-31.1,40.51-39.46,16.44-7.74,34.09-11.86,52.61-10.82,14.72.83,25.44,7.48,32.09,20.79,6.54,13.07,8.56,27.31,9.77,41.46,1.12,13.15-10,21.19-22.61,18-3.74-.94-3-3.28-2.42-5.79,15.57-5.29,17.34-9,5.51-20.75-20.78-20.65-49.48-37.33-82.15-17.65-9.23,5.55-17.7,13.36-19.67,23.42-1.53,7.75,10.66,7.25,15.2,12.39C519.28,664.66,520.18,665.54,521.05,666.46Z"/><path class="cls-2" d="M521.05,666.46c-.87-.92-1.77-1.8-2.6-2.74-4.54-5.14-16.73-4.64-15.2-12.39,2-10.06,10.44-17.87,19.67-23.42,32.67-19.68,61.37-3,82.15,17.65,11.83,11.77,10.06,15.46-5.51,20.75-4.19-4.25-9.58-2.67-14.4-2.47C563.79,664.75,542.22,661,521.05,666.46Z"/></svg>