<svg id="Layer_1" data-name="Layer 1" xmlns="http://www.w3.org/2000/svg" viewBox="0 0 1133.86 1133.86"><defs><style>.cls-1{fill:#f1dbdb;}.cls-2{fill:#2a292a;}.cls-3{fill:#fcf7f5;opacity:0.32;}</style></defs><path class="cls-1" d="M582.62,668.78c-9,1.12-18.27-1.61-27.1,1.9-2.62-.71-5.38-2.34-7.81-1.95-5.54.9-11.91-4.94-16.66,1.95-5.92-1.76-11.93-3.31-16.89-7.3-4.6-1.19-7.85-4.61-11.17-7.54-9.43-8.31-8.11-17.94,3.1-23.31,17.82-8.54,36.78-9.83,56-7.56,16.8,2,31.28,8.8,43.19,21.29,5.23,5.5,3.8,8.82-1.66,11.83C596.77,661.89,589.64,665.24,582.62,668.78Z"/><path class="cls-2" d="M531.05,670.68c4.75-6.89,11.12-1,16.66-1.95,2.43-.39,5.19,1.24,7.81,1.95a68.44,68.44,0,0,0-31.57,18c-4.91,4.83-11.6-.49-12.41-6.81-1.24-9.73-5.74-16.3-13.47-21.92-4.61-3.36-7.27-9-8-14.92-1.74-14.48.95-25,17.61-25.08,30.11-.08,59.56-7.75,89.62-8,15.94-.13,28.93,11,27.34,23-1.75,13.33-8.79,23.74-20.49,30.6A50.27,50.27,0,0,1,589,671.56c-2.85.59-5.56,1.18-6.36-2.78,7-3.54,14.15-6.89,21-10.69,5.46-3,6.89-6.33,1.66-11.83C593.41,633.77,578.93,627,562.13,625c-19.26-2.27-38.22-1-56,7.56-11.21,5.37-12.53,15-3.1,23.31,3.32,2.93,6.57,6.35,11.17,7.54.4,2.37.85,4.74,1.18,7.12.64,4.69-.34,11.8,4.73,12.52,5.47.79,8.32-5.8,10.87-10.57C531.2,672,531,671.28,531.05,670.68Z"/><path class="cls-3" d="M531.05,670.68c0,.6.15,1.3-.11,1.77-2.55,4.77-5.4,11.36-10.87,10.57-5.07-.72-4.09-7.83-4.73-12.52-.33-2.38-.78-4.75-1.18-7.12C519.12,667.37,525.13,668.92,531.05,670.68Z"/></svg>