<svg id="Layer_1" data-name="Layer 1" xmlns="http://www.w3.org/2000/svg" viewBox="0 0 1133.86 1133.86"><defs><style>.cls-1{fill:#2a292a;}.cls-2{fill:#f1dbdb;}</style></defs><path class="cls-1" d="M535.69,657.79c-6.21,8.54-40.48,7.92-45.5-.82-5.37-9.33-1.62-21,9.18-26.23,16.36-7.92,34.3-10.63,51.89-14.14,16.53-3.3,33.27-5.64,50-8.12,10.5-1.57,18.45,3.54,21.82,13.39,5.11,14.9-5.45,41.23-19.62,46-5.66,1.92-14.17,7.53-18.25-3.51,5.53-1.58,11.16-2.89,16.57-4.82,3.48-1.25,6.49-4,6.8-7.78.32-3.91-3.71-5-6.54-6.29-16.3-7.63-33.27-12.6-51.46-10.18-15.76,2.1-31.41,5-47.13,7.44-3.8.58-7.06.88-7,6.1,0,5.89,4,6.24,8,6.31C514.89,655.35,525.37,655.5,535.69,657.79Z"/><path class="cls-2" d="M535.69,657.79c-10.32-2.29-20.8-2.44-31.3-2.63-4-.07-8-.42-8-6.31,0-5.22,3.24-5.52,7-6.1,15.72-2.41,31.37-5.34,47.13-7.44,18.19-2.42,35.16,2.55,51.46,10.18,2.83,1.33,6.86,2.38,6.54,6.29-.31,3.73-3.32,6.53-6.8,7.78-5.41,1.93-11,3.24-16.57,4.82-1.67-3.35-4.59-4.41-8-4.12C563.19,661.39,549.65,656.06,535.69,657.79Z"/></svg>