<svg id="Layer_1" data-name="Layer 1" xmlns="http://www.w3.org/2000/svg" viewBox="0 0 1133.86 1133.86"><defs><style>.cls-1{fill:#f1dbdb;}.cls-2{fill:#2a292a;}</style></defs><path class="cls-1" d="M576.42,677.5c-18,4-35.68,4.33-52.28-5.62-1.8-1.09-4.34-.93-6.54-1.35-1.76-4.13-2.87-8.73-5.4-12.32-11.41-16.19-11.51-33.6-6.82-51.87,1.4-5.46,3.57-8.38,9.84-8.2,16.12.48,31.86,3.2,45.32,12.05a74.22,74.22,0,0,1,30.59,42.22C593.83,662.08,581.67,669.14,576.42,677.5Z"/><path class="cls-2" d="M576.42,677.5c5.25-8.36,17.41-15.42,14.71-25.09a74.22,74.22,0,0,0-30.59-42.22c-13.46-8.85-29.2-11.57-45.32-12.05-6.27-.18-8.44,2.74-9.84,8.2-4.69,18.27-4.59,35.68,6.82,51.87,2.53,3.59,3.64,8.19,5.4,12.32-4.15,3.6-7,.33-9.53-2.18-12.91-12.53-19-27.77-16.91-45.78.72-6.32,2.38-12.53,3.72-18.77,4.12-19.16,8-21.51,26.88-18.9,28.61,3.94,57,9.5,85.91,11.39,17.43,1.14,20,5.79,15.58,22.78-4.11,15.68-9,30.9-18.45,44.42-6.06,8.65-14,14.52-23.08,19.37-2,1-4.34,3-5.94.87C574.86,682.49,576.13,679.63,576.42,677.5Z"/></svg>