<svg id="Layer_1" data-name="Layer 1" xmlns="http://www.w3.org/2000/svg" viewBox="0 0 1133.86 1133.86"><defs><style>.cls-1{fill:#f3e9d6;}.cls-2{fill:#665d4c;}.cls-3{fill:#bdccbd;}.cls-4{fill:#8da989;}.cls-5{fill:#fafaf9;}.cls-6{fill:#958867;}.cls-7{fill:#343535;}.cls-8{fill:#d4e3d4;}.cls-9{fill:#626260;}</style></defs><line class="cls-1" x1="206.63" y1="594.08" x2="188.75" y2="602.46"/><path class="cls-1" d="M456.56,363.59c14.54-2.35,29.39-2.66,43.76-6.18,21.33-5.23,42.69-10.32,63.93-15.89,11.07-2.89,16.66-10.12,17.47-21.78.26-3.74,1.31-5.22,5.19-6.36,25.7-7.59,51.18-15.77,75.71-26.58,17.12-7.54,35.19-10.83,54-10.62,18,.2,36-.2,54-.34,25,23.82,37.39,61.1,70.25,75.84-16.72,1.48-22.27-8.31-38.39-13.64-3-1-5.36-.79-7.21,1.38-2.45,2.85-1.75,5.78.66,8.48C815.7,370,814.86,368.63,822,396.63c8.31,32.47,57.73,26.33,82.26,52.93,1.08,1.18,1.69,2.92.21,4.18-1.17,1-2.41,0-3.59-.65q-8.52-4.45-17.11-8.74c-4.83-2.42-10-5.15-15-1.18-4.75,3.78-2.74,9.18-1.72,13.93,6,28,3.78,55.71-4.28,83-2.89,9.8-7.72,18.88-15.08,28.56a143.19,143.19,0,0,0-9.92-44.53c-1.55-4-2.34-8.79-8-8.16s-5.37,5.47-6.22,9.64c-4.26,20.72.37,29-15.57,44.48-.44-.62-1.16-1.19-1.26-1.85-2.53-17.75-11.24-24.75-29.1-23.23-1.89.16-3.89.82-5.37-.55-6.62-6.12-14.75-6.78-23.22-6.48-4.36.16-6.3-1.88-6.14-6.2a221.07,221.07,0,0,1,1.61-23.4c1.54-10.65-.18-20.74-7.1-29.55,6-8.51,15.53-14.3,19.14-24.82a29.8,29.8,0,0,1,3.12,7.73,110.63,110.63,0,0,1,.89,51.33c-.88,4.06-.82,8.17,3.18,10.5s7.82.15,10.82-2.68a67.26,67.26,0,0,0,6.86-7.66c16.21-21,23.83-45,24.51-71,1.31-49.55-58.26-54.59-86.13-96.07-12-17.91-27.47,6.54-45.61-5.6-3.14-2.1-5.89-2.57-8.51.39s-2,5.77.7,8.32a27.83,27.83,0,0,0,3.64,3.06c18.78,12.45,33.33-10.61,44.76,8.37,26.23,43.58,84.16,49.59,76.85,100.07-2,13.65-6.86,26.32-15.66,37.43a27.87,27.87,0,0,1-.73-7.92c.29-20.25-4.68-39.39-13-57.79-1.64-3.62-3.36-7.84-8.38-7.06s-5.32,5-5.44,9.19a38.58,38.58,0,0,1-10.09,25.06c-3.14,3.54-6.5,6.9-9.76,10.34-5.06.36-56.26,41.24-61.31,41.7-3,.28-3.54-1.46-3.93-3.73-1.42-8.17-6.28-14.29-12.53-19.54,1.23-.51,2.7-1.73,3.63-1.42,3.57,1.2,5.44.4,5.46-3.4,0-4.06-3.14-3.4-5.74-3.55-7.2-.43-13.33,2.94-19.77,5.24l-15.28-2.19c-1.64-1.18-3.49-2.17-3.8-4.44.66-9.42,6.61-17.52,7.41-26.81.64-7.45,3.31-11.57,11.64-10,5.19,1,10.39,2,15.57,3.09,2.41.5,4.41,0,5-2.48s-1.5-3-3.33-3.53a76.43,76.43,0,0,0-17.16-3.28c-1.7-1.67-3.78-.72-6,1.13l-3.83-2.1a73,73,0,0,0-10.67-48c-3.89-6.35-9.05-11.66-16.29-14.54-3.71-1.49-7.73-2-9.65,2.34-1.71,3.82.72,6.48,4.3,8,8.87,3.8,12.94,11.44,16.11,19.57,4,10.36,5.36,21.21,5,32.27L599.89,436c-9.59,1.19-19.12,2.67-27.9,6.91-2.09,1-4.78,2.32-3.45,5.25,1.45,3.21,4,1.69,6.06.51,3.54-2,7.48-2.74,11.3-4,8.45-2.69,17.41-1.7,25.91-3.8-.22,2.59-.27,5.2-.71,7.75-2.29,13.34-8.85,25.12-14.43,37.27l-14-.77-1.51-.16a107,107,0,0,0-27.1,1.22c-.7-14.29-.79-28.63-3.64-42.73-5.61-27.82-18.14-51.4-43.58-67-14.77-12.56-33.11-14.3-48.88-4.45-2.38,1.49-4,2.27-7.15,1.14-15.17-5.55-36.22,1.78-45.72,15.48-2.59,1-5.12,2.33-6.23,4.8-44.15,98.15-35.47,93.53-45.7,169.61a0,0,0,0,1,0,0c-1.73-.58-3.66-.85-5.12-1.8-18.55-12.14-32.75-17.77-53.87-10.14-1.4.5-3.11.17-4.68.22h0a45.22,45.22,0,0,1-6.55-29.29c.49-4.46,1.23-9.62-4.75-10.94-5.79-1.28-7.53,3.71-9.53,7.64-7.28,14.31-13.37,29-14.45,45.19,0,0,0,0,0,0-11-6.22-16.09-16.62-15.83-27.94.84-36,22.49-137,58.05-155.07,3-1.53,4.54-3.75,3.39-7s-3.67-4.5-7-4a27.9,27.9,0,0,0-11,4.61c-13.63,9-23.69,21.09-31.27,35.14-7.14,49.67-3.09,110.57-2.34,130.06.23,5.8-1.42,6.31-6.18,3.61a43.34,43.34,0,0,1-15.8-15.24c-2.41-3.87-2.6-10.73-9.85-9.4-6.25,1.16-5.88,7-7.28,11.45a45.58,45.58,0,0,0-1.14,4.5q-3.79,18-7.55,36.11a.69.69,0,0,1-1.26.21c-20.18-34.27-2.39-137.33,15.7-170.23,3.28-6.47,6.5-13,11.38-18.51,2.57-2.92,3.08-6.32,0-9-3.27-2.81-6.42-1.11-9.12,1.47a42.2,42.2,0,0,0-8.56,12.58.65.65,0,0,1-.4.34c-15.41,4.87-31,6.74-47,3a.66.66,0,0,1-.14-1.23c10.34-4.95,18.56-12.16,25.81-20.49a239.31,239.31,0,0,0,24.06-32.24c16.51-27,8-15.56,33-36,8.25.55,14.16,5.61,20.59,9.84,9.57,6.28,17.27,14.81,27.39,20.48,14.89,8.35,32.1,10.23,47.5,16.87C376.46,364,415.8,364.54,455.4,363.72l.6.12Zm306.83,29c0,2.12.05,2.91,0,3.69-.45,6.52,1.11,11.42,9.21,11.59s9.59-1.48,10.26-11.07c.47-6.71,2.36-12.23,9.06-16.17,7.33-4.31,7-12.26-.32-16.2-5.13-2.76-8.24-5.91-9.32-11.68a7.68,7.68,0,0,0-7.51-6.1c-4-.08-9,.24-10.22,4.48-2,7.06-6.95,10-13.25,12.17-7,2.46-3.46,8.4-3.84,12.82a5.72,5.72,0,0,0,6.55,6.35C764.11,381.21,764.18,387.05,763.39,392.54Zm-502.54-42c-7.68-1.9-9.6,5.46-11.67,10.87-1.41,3.67-2.66,4.74-6.38,5.13-4.4.46-9.76,1.2-10,6.92s1,10.88,8.28,12.26c2.85.54,5.65,2,6,5.52.54,6.11,5.2,8.34,10.28,9.39s-19.46-5.84-17.43-9.23a15.55,15.55,0,0,1,8.82-7.22c5-1.7,6.65-5.39,6.66-10.39s-2.28-8.46-6.65-9.57c-4.2-1.07-4.74-3.15-4.82-6.63C243.75,352.08,268.89,350.61,260.85,350.55Z"/><path class="cls-2" d="M876.54,341c2.91,7,.05,10.49-6.64,14-19.38,10.14-28.91.55-50.88-1.4.63,7.59-4.75-14.76-1.69-8.47,11.1,22.79,18.49,55.16,26.34,56.82.65,3.13,50.86,23.05,56.9,28.76,11.69,11.06,18.67,18.45,36.51,27.13,3.13,1.52,6.27,2.84,8.14,5.92.39,2.26-.52,4.23-1.4,6.22-11.08,5.72-22.33,4.12-33.62.75L881,457.14l-1-.57.44,1.13,2.44,24.65A230.13,230.13,0,0,1,876.26,539c-5.88,19.64-17.18,36.35-29.8,52.35-2.43,3.08-4.77,6.83-9.75,4.58s-3.58-6.32-2.76-10.18c2.77-13,1.62-25.8-2.31-40.71-7.57,20.47-4.12,27.32-22,39-5.2-4.14-3.74-9-1.57-13.91,15.94-15.5,11.31-23.76,15.57-44.48.85-4.17.73-9,6.22-9.64s6.42,4.21,8,8.16a143.19,143.19,0,0,1,9.92,44.53c7.36-9.68,12.19-18.76,15.08-28.56,8.06-27.29,10.3-55,4.28-83-1-4.75-3-10.15,1.72-13.93,5-4,10.15-1.24,15,1.18q8.6,4.31,17.11,8.74c1.18.62,2.42,1.64,3.59.65,1.48-1.26.87-3-.21-4.18C879.77,423,830.35,429.1,822,396.63c-7.18-28-6.34-26.67-26.12-48.73-2.41-2.7-3.11-5.63-.66-8.48,1.85-2.17,4.17-2.39,7.21-1.38,16.12,5.33,21.67,15.12,38.39,13.64-32.86-14.74-45.29-52-70.25-75.84,7.44.24,14.89.41,22.34.74a21.46,21.46,0,0,1,14.7,6.91c-4.51.93-7.8-2.7-12-3L794,279.34l-.38.57,2,.6c0,2.68,1.75,4.45,3.69,5.76,7.36,4.93,12.67,12,19.48,17.44,19.57,15.57,28.42,42.46,56.42,36.91A3.75,3.75,0,0,1,876.54,341Z"/><path class="cls-2" d="M214.74,400.94c-18.32,33.5-36.28,138.72-14.77,171.51l.06.11c2.43,5.77,3.89,12.16,10.21,15.46a.69.69,0,0,1,.35.42c3.95,14.11-10,2.88-19.05,12.42a.69.69,0,0,0,.61,1.15c5.91-1,10-4.83,14.48-7.93,10-7-.39-10.48,3.26,1.08A129.18,129.18,0,0,0,225.47,627a.67.67,0,0,1,.09.55c-1.1,4.12-4.2,5.46-9,6a.71.71,0,0,1-.65-.3l-9.51-13.87-.06-.11c-2.11-5-4.64-9.93-6.17-15.11-1.4-4.7,12.2.45,8.79,2.81-9.09,6.31-19.09,10.65-30.37,11.22-10.12.5-13.11-3.64-10-13h0l3.78-3.54c10-6.73,16.3-15.89,18.46-27.7.46-2.54,9.57,20.21,7.73,17.77-3.74-5-7.13-10.21-10.67-15.34l-.05-.08-10.45-20.92a.76.76,0,0,1-.06-.42c2-11.16-1-21.3-6.58-30.93a.64.64,0,0,1-.09-.36c.62-14.74,19.79-100.19,25.54-113.15,3.52-7.93-2-7.24-6.3-6.33-13.6,2.85-26.58,1.27-39.46-3.39a52.26,52.26,0,0,1-19.38-12.09c-2-2-4-3.5-2.55-6.58,1.5-3.24,4.4-5.44,7.64-4.61,22,5.64,33.27-7.42,43.94-20.65,2-2.41,3.88-4.83,5.86-7.15,20.91-24.51,25-8.73.69,19.17-7.25,8.33-15.47,15.54-25.81,20.49a.66.66,0,0,0,.14,1.23c15.87,3.73,31.25,1.95,46.47-2.78a.66.66,0,0,1,.85.59c.41,4.88,7,6.9,6.46,12.2A.79.79,0,0,1,214.74,400.94Z"/><polygon class="cls-3" points="456.56 363.6 456 363.84 455.4 363.72 455.95 363.24 456.56 363.6"/><path class="cls-4" d="M810.08,762.88l-1.35-3.16C810.89,760.09,812.52,760.65,810.08,762.88Z"/><path class="cls-4" d="M887.3,637.93l1.7,1.59Z"/><path class="cls-5" d="M853.74,754.91l-.26.52.36-.43Z"/><path class="cls-6" d="M737.49,478.83l-8.86-8.8c3.26-3.44,6.62-6.8,9.76-10.34a38.58,38.58,0,0,0,10.09-25.06c.12-4.15.4-8.42,5.44-9.19s6.74,3.44,8.38,7.06c8.34,18.4,13.31,37.54,13,57.79a27.87,27.87,0,0,0,.73,7.92c8.8-11.11,13.68-23.78,15.66-37.43,7.31-50.48-50.62-56.49-76.85-100.07-11.43-19-26,4.08-44.76-8.37a27.83,27.83,0,0,1-3.64-3.06c-2.7-2.55-3.27-5.41-.7-8.32s5.37-2.49,8.51-.39c18.14,12.14,33.57-12.31,45.61,5.6,27.87,41.48,87.44,46.52,86.13,96.07-.68,26-8.3,50-24.51,71a67.26,67.26,0,0,1-6.86,7.66c-3,2.83-6.7,5.09-10.82,2.68s-4.06-6.44-3.18-10.5a110.63,110.63,0,0,0-.89-51.33,29.8,29.8,0,0,0-3.12-7.73C753,464.53,743.48,470.32,737.49,478.83Z"/><path class="cls-6" d="M209.69,587.72c-5.81-3.35-7.28-9.46-9.6-15a.62.62,0,0,1,0-.4q3.93-18.79,7.86-37.57a45.58,45.58,0,0,1,1.14-4.5c1.4-4.46,1-10.29,7.28-11.45,7.25-1.33,7.44,5.53,9.85,9.4A43.34,43.34,0,0,0,242,543.42c4.76,2.7,6.41,2.19,6.18-3.61-.75-19.49-6.93-112.86,2.34-130.06,7.58-14.05,17.64-26.13,31.27-35.14a27.9,27.9,0,0,1,11-4.61c3.32-.53,5.88.86,7,4s-.37,5.46-3.39,7C260.79,399,239.14,500.06,238.3,536c-.26,11.33,4.81,21.73,15.85,28l0,0c-.12,4.84,10.79,13.2,7.57,17.35h0c-6.49-3.49.33-7.28-4.09-12.79-2-2.44-3.18-6.1-5.71-7.33-11.18-5.47-22.86-10-31.85-20.62a.69.69,0,0,0-1.18.28c-.57,2.22-.82,3.25-1.11,4.27-4,13.78-3.92,28.2-7.06,42.11A.69.69,0,0,1,209.69,587.72Z"/><path class="cls-2" d="M366.18,569.68c-5.25-.49-10.45-1-13-6.58h0c-5.42-46.44,12.57-130.33,45.7-169.65a15.16,15.16,0,0,1,6.23-4.8c4.79,2.32,9.92,1.41,14.94,1.52,11.09,1,22,2.86,31.83,8.33v0q.84,3,1.69,6.05c-2.92,4.28-6.85,4.5-11.29,2.67-2.71-1.12-5.36-2.45-8.15-3.34-11.91-3.81-27.56-.69-32.83,5.8-10.87,13.38-30.93,101.91-35.16,117.79-3,11.26-1.47,22.88-1,34.36h0c-.87,1.76-1,3.42.69,4.83v0c.13,1,.25,2,.37,2.95C366.2,569.67,366.19,569.68,366.18,569.68Z"/><path class="cls-2" d="M254.17,564c1.07-16.21,7.17-30.9,14.45-45.23,2-3.93,3.74-8.92,9.53-7.64,6,1.32,5.24,6.48,4.75,10.94a45.22,45.22,0,0,0,6.55,29.29,0,0,0,0,1,0,0c-1.71,4.5-6.05,5.09-9.95,6.32,0,0,0,0,0,0l-7.94-15.48a0,0,0,0,0,0,0c-4.29,10.41,1.58,20.89,1.84,31.11l3.25,2.87c-.52,2.25-3.41,4.22-4.68,6-3.5,4.81-6.54,17.29-11.9,18.68-3.27.84-5.31,4.6-9.31,3.9h0C255.21,595.25,253.84,568.88,254.17,564Z"/><path class="cls-2" d="M554.07,486.21l-12.36,3.26c.06-2.08.12-4.17.19-6.25.93-1.21,1-2.33-.33-3.33-.27-5.47-.44-10.95-.84-16.42-1.83-24.78-8.36-47.76-26.63-66.33-9.85-10-14.81-10.35-25.4-1.21a24.77,24.77,0,0,0-2.81,2.8c-2.88,3.43-5.45,2.27-8-.43,2.71-7.56,9.18-11.17,16-14.46l13-7.37c25.44,15.61,38,39.19,43.58,67C553.28,457.58,553.37,471.92,554.07,486.21Z"/><path class="cls-5" d="M763.39,392.54c.79-5.49.72-11.33-9.38-10.12a5.72,5.72,0,0,1-6.55-6.35c.38-4.42-3.2-10.36,3.84-12.82,6.3-2.2,11.26-5.11,13.25-12.17,1.19-4.24,6.18-4.56,10.22-4.48a7.68,7.68,0,0,1,7.51,6.1c1.08,5.77,4.19,8.92,9.32,11.68,7.35,3.94,7.65,11.89.32,16.2-6.7,3.94-8.59,9.46-9.06,16.17-.67,9.59-2.24,11.24-10.26,11.07s-9.66-5.07-9.21-11.59C763.44,395.45,763.39,394.66,763.39,392.54Z"/><path class="cls-5" d="M260.85,350.55c8,.06-17.1,1.53-17,7.05.08,3.48.62,5.56,4.82,6.63,4.37,1.11,6.66,4.69,6.65,9.57s-1.64,8.69-6.66,10.39a15.55,15.55,0,0,0-8.82,7.22c-2,3.39,22.57,10.28,17.43,9.23s-9.74-3.28-10.28-9.39c-.31-3.54-3.11-5-6-5.52-7.25-1.38-8.53-6.66-8.28-12.26s5.61-6.46,10-6.92c3.72-.39,5-1.46,6.38-5.13C251.25,356,253.17,348.65,260.85,350.55Z"/><path class="cls-6" d="M506.85,376.47l-13,7.37c-5.28-7.6-25.67-8.33-30.58-1.14-.84,1.22-.56,2.36-.46,3.67.9,11.45.51,11.83-11,12.14v0c1.91-16.7-8.21-18-19.8-14.31-4.22,1.36-8,3.95-12,6-5-.11-10.15.8-14.94-1.52,9.5-13.7,30.55-21,45.72-15.48,3.11,1.13,4.77.35,7.15-1.14C473.74,362.17,492.08,363.91,506.85,376.47Z"/><path class="cls-6" d="M613.44,434.34c.35-11.06-1-21.91-5-32.27-3.17-8.13-7.24-15.77-16.11-19.57-3.58-1.53-6-4.19-4.3-8,1.92-4.33,5.94-3.83,9.65-2.34,7.24,2.88,12.4,8.19,16.29,14.54a73,73,0,0,1,10.67,48C620.8,437.74,617.18,434.33,613.44,434.34Z"/><path class="cls-6" d="M609,487.55c-4.31.91-8.3-.39-12.31-1.63,5.58-12.15,12.14-23.93,14.43-37.27.44-2.55.49-5.16.71-7.75,7.55-.15,15.16-1.38,22.6,1-8.33-1.53-11,2.59-11.64,10-.8,9.29-6.75,17.39-7.39,26.82C611.06,480.15,610.91,484.46,609,487.55Z"/><path class="cls-1" d="M634.41,441.85c-7.44-2.33-15-1.1-22.6-1-8.5,2.1-17.46,1.11-25.91,3.8-3.82,1.22-7.76,2-11.3,4-2.1,1.18-4.61,2.7-6.06-.51-1.33-2.93,1.36-4.24,3.45-5.25,8.78-4.24,18.31-5.72,27.9-6.91l13.55-1.65c3.74,0,7.36,3.4,11.19.34l6.31.47a2.88,2.88,0,0,0,3.53.5,76.43,76.43,0,0,1,17.16,3.28c1.83.56,3.86,1.18,3.33,3.53s-2.57,3-5,2.48C644.8,443.87,639.6,442.88,634.41,441.85Z"/><path class="cls-6" d="M214.65,398.62c-1.11-4.08-6.49-6.17-6.3-10.85a.64.64,0,0,1,.07-.27c2.23-4.65,4.81-9.08,8.62-12.71,2.7-2.58,5.85-4.28,9.12-1.47,3.1,2.67,2.59,6.07,0,9-4.36,4.95-7.39,10.65-10.32,16.42A.65.65,0,0,1,214.65,398.62Z"/><path class="cls-1" d="M650.86,488.46a73.37,73.37,0,0,0-16.51-3.1c6.47-2.29,12.62-5.7,19.86-5.27,2.6.15,5.76-.51,5.74,3.55,0,3.8-1.89,4.6-5.46,3.4C653.56,486.73,652.09,488,650.86,488.46Z"/><path class="cls-1" d="M609,487.55c1.93-3.09,2.08-7.4,6.4-8.84.47,3.6,4.88,4,6.07,7A24.86,24.86,0,0,1,609,487.55Z"/><path class="cls-6" d="M634.47,435.65a2.88,2.88,0,0,1-3.53-.5A2.94,2.94,0,0,1,634.47,435.65Z"/><path class="cls-6" d="M582.68,485.15c-.59.71-1.09.58-1.51-.16Z"/><path class="cls-7" d="M795.64,280.51l-2-.6.38-.57,1.67,1.12Z"/><path class="cls-4" d="M880.45,457.7l-.44-1.13,1,.57Z"/><path class="cls-1" d="M210.51,588.21a.28.28,0,0,1,0-.09c3.24-13.2,3.45-29.79,7.25-43,.29-1,.54-2,1.11-4.27a.69.69,0,0,1,1.18-.28c9,10.6,20.67,15.15,31.85,20.62,2.53,1.23,3.75,4.89,5.71,7.33,4.42,5.52-2.4,9.3,4.09,12.79,0,0,0,0,0,0-3.43,19.56-23,7.32-11.05,23.32,0,0,0,0,0,0-1.27,7,18.36,17.26,9.14,17.78-8.07.46-25.41,2.47-33.71,4.65a.69.69,0,0,1-.74-.28,129,129,0,0,1-15.44-31.58.57.57,0,0,1,0-.26Z"/><path class="cls-3" d="M168.73,605.16a3,3,0,0,1,2.94-2.95Z"/><path class="cls-1" d="M276.58,576.13c-7.3,4.57-9.38-23.53-5.09-33.93a0,0,0,0,1,0,0c2.91,5.68,5.43,10.58,7.94,15.49v0c-2.8,6.5-2.8,15.6-2.85,18.44C276.62,576.17,276.6,576.12,276.58,576.13Z"/><path class="cls-8" d="M210.08,656.81a.68.68,0,0,1-.07.77l-.14.16c-.11-.2-.33-.41-.31-.59s.27-.36.42-.53Z"/><path class="cls-1" d="M477.93,398.3c-4.47.59-3.73,5.83-7.33,7.56-6.13,2.93-11.72,3.83-17-1.3q-.85-3-1.69-6.05c11.47-.31,11.86-.69,11-12.14-.1-1.31-.38-2.45.46-3.67,4.91-7.19,25.3-6.46,30.58,1.14C487.11,387.13,480.64,390.74,477.93,398.3Z"/><path class="cls-1" d="M420,390.16c4-2,7.81-4.62,12-6,11.59-3.73,21.71-2.39,19.8,14.31C442,393,431.13,391.19,420,390.16Z"/><path class="cls-9" d="M365.16,561.88a5.42,5.42,0,0,1,.68,4.77s0,0,0,0c-1.67-1.39-1.54-3-.69-4.78C365.12,561.87,365.15,561.86,365.16,561.88Z"/><path class="cls-9" d="M541.9,483.22a3,3,0,0,1-.33-3.33C542.89,480.89,542.83,482,541.9,483.22Z"/><path class="cls-1" d="M253.83,313.25c4.47-8.86,60.52-172.06,219-155.32L501,167.65l35.64-20.38s167.48-2.88,246.94,129-209.28,3.11-209.28,3.11l22.33-37.88,66,45.34-37.46,25.51-3.73,41.77-62.78-7.49-106.77-6.31L320.1,363.84l-71.14-25L253.9,314A.66.66,0,0,1,253.83,313.25Z"/><path class="cls-2" d="M241.59,319.45c.2,0,7-5.31,7.11-5.47,3.78-4.78,35.7-71.79,39.41-75.4s46.6-47.36,61.09-56c17.08-10.16,72.28-27.34,94.67-22.89s51,4.21,57.15,7.94,29.6-16.35,34.87-16.35,81.8,4.17,111.31,16.63,113.29,82.47,124.85,95.39,31.82,44.21,28.38,41.11c-7.38-6.69,23.44,3.28,23.44,3.28S757,224.15,726.08,201.09c-29.55-22-85.77-49.32-101.89-53.82C601,140.79,541,136.51,529,141.35c-8.16,3.29-32.42,16-32.42,16s-40.77-9-49.55-9c-7.32,0-77.23,7.69-109.21,25.67-34.45,19.37-95.73,99.5-102.92,108.84-6.36,8.26,6.35,33.43,3.08,38.48a.66.66,0,0,0,.56,1Z"/><path class="cls-2" d="M193.27,590.05,181.42,611a.66.66,0,0,0,.72,1l24.47-5.85a.67.67,0,0,0,.5-.52L210.34,589a.66.66,0,0,0-.71-.79l-15.85,1.48A.63.63,0,0,0,193.27,590.05Z"/><path class="cls-1" d="M227.2,600.41l-6.94,27.09a.66.66,0,0,0,.45.8l33.22,15L271.71,646s-19.61-59.67-16.41-64.26c7.45-10.67-23.06,16.25-27.72,18.22A.65.65,0,0,0,227.2,600.41Z"/><path class="cls-2" d="M220.19,622.73s26.14,16.68,46.45,18.71c0,0,6.77,4.4,8.8,7.44s-43.66,2.06-59.27-15.26S220.19,622.73,220.19,622.73Z"/><path class="cls-2" d="M254.38,573.68s.78,24,3.68,29.46,13.38-24.23,13.38-24.23Z"/><polygon class="cls-1" points="355.72 321.69 354.69 364.6 407.93 370.29 506.67 362.02 555.27 346.51 524.77 278.79 355.72 321.69"/></svg>