<svg id="Layer_1" data-name="Layer 1" xmlns="http://www.w3.org/2000/svg" viewBox="0 0 1133.86 1133.86"><defs><style>.cls-1{fill:#1a1d1e;}.cls-2{fill:#4e514c;}.cls-3{fill:#38362b;}.cls-4{fill:#b6cbdb;}.cls-5{fill:#558bba;}.cls-6{fill:#2f2f2f;}.cls-7{fill:#c3b2b6;}</style></defs><path class="cls-1" d="M274.06,554.85c-1-.79-2-1.57-3-2.35,1.8-8-9.78-10.72-6.69-19.24l-6.28,2.42c-.41.09-.64-.07-.68-.5-2.43-7.68-2.79-15.95-7-23.16-1.5-2.58-4.36-5.76-2.22-8.66,5.54-7.48-.47-11.68-3.94-16.72L243.77,473a5.82,5.82,0,0,0,4.74-7.09c-1.55-6.27.54-12.49-.7-18.58-.83-4.1,1.49-8.7-2-12.34.05-1.14.09-2.27.14-3.4,2.34-.11,5.21-.38,4.9-3.34-1.54-14.93,6.66-29.05,3.48-44.06.21-.82.42-1.64.64-2.46,7.55-7,7.35-15.93,6.38-25.07a.53.53,0,0,1,.19-.88c5.93-1.68,3.38-6,3-9.61a.54.54,0,0,1,.37-.84c10.95-2.87,6.48-11.88,7.47-18.72h0c3.23-.48,6.22-1.33,6.83-5.21,1.79-11.34,10.76-18.54,16.48-27.53,2.61-4.09,3.93-11.13,11.43-11,1.21,0,.95-1.91.57-2.94-1.82-5,2.12-7.17,4.7-10,6.66-7.37,16.63-12.37,17.26-24.06l-.05,0c5.66-.2,8.59-3,8.4-8.79l0,0,1.77-1.77v0c6.35.59,7.94-3.5,8.5-8.61l.05.08a1.78,1.78,0,0,0,1.82-1.76l-.11,0c4,1.3,6.54-1.09,8.91-3.67,6.39-6.95,14.54-11.56,21.91-17.17,5-3.78,12.26-6.07,14.5-13.18a1.67,1.67,0,0,0-.34-1.46c11-4.64,22.12-9.17,33.1-13.93,30.51-13.21,61.79-22.52,95.61-20.42,24.64,1.53,48.81,5.92,72.86,11.07,10.79,2.31,23.36,2.3,31.18,10.5,9.2,9.66,18.32,8.07,29.27,5.84,15.7-3.2,30.45,2.82,45.24,7.09a2.23,2.23,0,0,0,.37,1.28c1.42,5.74,5,9,11,8.79,4.87-.2,8.22,1.85,10.89,5.57,1.52,2.12,3.08,4.68,5.87,4.61,9.08-.23,14.59,5.52,20.4,11.19,8.19,8,13.75,19,25.66,22.86a7,7,0,0,1,3.6,3.58c4.11,9.27,10.82,16.72,17.52,24,5.53,6,7.28,15.15,15.78,18.52l1.82,1.44c.79,1.7,2.76,3,1.86,5.25,2,7.7-7.14,18.47,6.31,23.06.16.05.28.53.24.79-.88,5.72,3.7,8.27,6.52,12.05s6.93,6.26,8.08,11.64c2.11,9.83,5.78,19.31,6,29.53,0,2-.39,4.43,1.87,5.27,4.83,1.79,5.07,5.66,5,9.77-.06,2.6.74,4.46,3.56,4.92l.87,3.41c-1.87,2.57-.89,5.52-1,8.3-.74,13.54,4.71,26.43,3.47,40.25-1.32,14.7-.45,29.6-.54,44.41l0-.05c-6.1,4.59-12.36,9.07-13.55,17.47-7.06,3.65-7.8,10.26-7.24,16.95.64,7.7-2.66,13-8.7,17-2.42,1.59-4.55,3.33-5.77,6-3.56-.74-5.75-3.6-8.53-5.54,1.55-7.56,6.66-13.6,7.84-21.65,1.57-10.59,2-20.81.32-31.36-1.5-9.13,5.32-15.16,14.68-12.88,3.29.8,3.42-.28,3.65-2.46.65-6,1.79-11.92,1.75-17.88-.26-34.28-7.51-67.26-18.92-99.48-4.25-12-9.89-23.43-14-35.57-3.55-10.54-11.84-19.38-16.94-29.52-12.57-25-33.51-42.38-54.71-58.91-15.59-12.16-33.87-20.41-53.32-26.1a75.88,75.88,0,0,0-32.12-2.4c-6,.81-9.45-.13-11.76-5.24-2.21-4.91-4.25-7.55-10.13-3.55-3.34,2.28-8,1.46-12.26-.63-4.76-2.35-10.18-3.32-15-5.52-13-5.92-27.37-4.75-40.92-8-24.33-5.8-49.2-8-73.79-2.83-24.36,5.12-48.07,12.39-69.8,25.59a520.41,520.41,0,0,0-52.71,37.13C348.75,253.94,335.11,270,321.28,286a193.09,193.09,0,0,0-39.23,70c-4.74,15.36-7.07,31.45-10.61,47.18-6.85,30.39-7.57,61.26-6.64,92.18.26,8.51.74,17.78,10.54,22.52a8.06,8.06,0,0,1,4.53,7.81c-.42,6.92,2.58,12.82,5.51,18.74L277.84,553Z"/><path class="cls-1" d="M329.61,245.88c-.63,11.69-10.6,16.69-17.26,24.06-2.58,2.87-6.52,5.07-4.7,10,.38,1,.64,3-.57,2.94-7.5-.17-8.82,6.87-11.43,11-5.72,9-14.69,16.19-16.48,27.53-.61,3.88-3.6,4.73-6.83,5.21,3.91-13.24,10.55-25.17,18.64-36.18,9.22-12.55,19-24.67,28.88-36.75C322.46,250.49,324.82,246.54,329.61,245.88Z"/><path class="cls-1" d="M395.35,191c-2.24,7.11-9.53,9.4-14.5,13.18-7.37,5.61-15.52,10.22-21.91,17.17-2.37,2.58-4.9,5-8.91,3.67,2.2-7.59,9.61-10.4,14.86-14.66C374.18,202.86,382.88,193.77,395.35,191Z"/><path class="cls-1" d="M264.87,345.34c.23-1.64.45-3.27.67-4.91,2.07-4.7,2.35-10.28,6.8-13.81C271.35,333.46,275.82,342.47,264.87,345.34Z"/><path class="cls-1" d="M348.27,226.75c-.56,5.11-2.15,9.2-8.5,8.61C341.79,231.69,343.86,228.07,348.27,226.75Z"/><path class="cls-1" d="M338,237.12c.19,5.79-2.74,8.59-8.4,8.79A16.35,16.35,0,0,1,338,237.12Z"/><path class="cls-2" d="M339.76,235.4,338,237.17Z"/><path class="cls-3" d="M350.14,225.07a1.78,1.78,0,0,1-1.82,1.76A1.78,1.78,0,0,1,350.14,225.07Z"/><path class="cls-1" d="M813.35,290.09c-8.5-3.37-10.25-12.54-15.78-18.52-6.7-7.25-13.41-14.7-17.52-24a7,7,0,0,0-3.6-3.58c-11.91-3.91-17.47-14.86-25.66-22.86-5.81-5.67-11.32-11.42-20.4-11.19-2.79.07-4.35-2.49-5.87-4.61-2.67-3.72-6-5.77-10.89-5.57-6,.24-9.57-3-11-8.79a8.45,8.45,0,0,0,1.31-.9l4.73.66c8,6.63,18,9.58,26.61,15.14,30.63,19.7,57,43.41,75.14,75.43C812,284.12,813.45,286.81,813.35,290.09Z"/><path class="cls-4" d="M707.88,189l.21-.73s.13.44.13.44Z"/><path class="cls-1" d="M260.65,543.58c-.84-2.63-1.68-5.27-2.51-7.9l6.27-2.42c-3.09,8.52,8.49,11.22,6.69,19.24C265.58,551.91,263.5,547.29,260.65,543.58Z"/><path class="cls-1" d="M274.06,554.85l3.78-1.84c-.21,1.84-1.45,2.57-3.11,2.84l-.47-.36Z"/><path class="cls-5" d="M704,190.1a8.45,8.45,0,0,1-1.31.9,2.23,2.23,0,0,1-.37-1.28l1.61-.63A1.36,1.36,0,0,1,704,190.1Z"/><path class="cls-6" d="M285.38,544.39c-2.93-5.92-5.93-11.82-5.51-18.74a8.06,8.06,0,0,0-4.53-7.81c-9.8-4.74-10.28-14-10.54-22.52-.93-30.92-.21-61.79,6.64-92.18,3.54-15.73,5.87-31.82,10.61-47.18a193.09,193.09,0,0,1,39.23-70c13.83-16,27.47-32,44.13-45.19a520.41,520.41,0,0,1,52.71-37.13c21.73-13.2,45.44-20.47,69.8-25.59,24.59-5.17,49.46-3,73.79,2.83,13.55,3.23,27.89,2.06,40.92,8,4.85,2.2,10.27,3.17,15,5.52,4.24,2.09,8.92,2.91,12.26.63,5.88-4,7.92-1.36,10.13,3.55,2.31,5.11,5.8,6,11.76,5.24a75.88,75.88,0,0,1,32.12,2.4c19.45,5.69,37.73,13.94,53.32,26.1,21.2,16.53,42.14,33.92,54.71,58.91,5.1,10.14,13.39,19,16.94,29.52,4.09,12.14,9.73,23.56,14,35.57,11.41,32.22,18.66,65.2,18.92,99.48,0,6-1.1,11.92-1.75,17.88-.23,2.18-.36,3.26-3.65,2.46-9.36-2.28-16.18,3.75-14.68,12.88,1.72,10.55,1.25,20.77-.32,31.36-1.18,8-6.29,14.09-7.84,21.65l-16.76-7.33c-.61-13.4-.48-26.82-1-40.23-1-26.72-8.68-50.86-22.06-73.53-3.78-6.41-14.59-9.7-19.37-5.87-7.77,6.21-1.92,11.77,1.78,16.92,11,15.22,14.29,33.2,18.29,50.81,3.68,16.2,2.25,32.81,1.71,49.28-9.89,1.22-19.7,2.64-26,11.8-4.05-.87-8.37,1.83-12.26-1-.07-6.35-2.82-11.4-7.09-16-11.65-12.58-16.2-28.42-19.86-44.61,7.15,1.14,12.13-1.72,13.28-8.81a41.26,41.26,0,0,0-.67-17.9c-1.7-6-4.75-9.52-11.4-9.38-7.77.16-5.84,6.25-6.84,10.61-.71-.46-2-.86-2-1.38-1.12-11.89-7.47-20.79-15.05-29.64-7.74-9-16.16-13.4-26.92-10.78-8.06-.11-16.13,1.46-24.18-.11-.74-9.54-.63-19-6.21-27.82-3-4.75-6.11-5.84-10.42-4.66s-7.67,3.67-7.39,9.11c.21,4-.21,7.92,2.33,11.53a3.59,3.59,0,0,1-1.59,5.17c-2.85,1.32-3.2-1.72-3.76-3.32a48.55,48.55,0,0,1-2.26-9.11c-.93-6.24-6.23-8-10.7-10-4.9-2.24-5.29,3.19-7.77,5.44-4.63,4.2-3.65,10.63-7.4,14.91-2.57.76-4.28-.15-5.22-2.63,0-19.79-2.64-23.19-21.66-27.67-10.41-2.45-20.17-.59-30.14,3.08-24.65,9.07-44.49,22.88-56,47.77-4.55,9.88-5.43,20.87-11.08,30.17-8.22-5.32-17.33-8.74-26.62-11.37-12.49-3.53-19.67,3-16.56,14.48l-5.12.12c-2.55-2.25-5.22-4.37-7.64-6.76-8.23-8.1-14.54-6.91-18.24,4-4.18,12.39-8.15,24.9-7.28,38.28q-.84,2.78-1.69,5.55l-4.74,0c-5.39-.06-10.91-1.07-15.59,3-.93.81-2.93,1.39-3.91.93-2-.93-.58-2.88-.56-4.48.11-10.53,4.61-19.8,7.73-29.55,6.91-21.58,15.81-41.72,32.61-57.72,3.28-3.12,6.12-8.64,4-12.92-2.31-4.62-7.54-4.62-12.94-3.34s-9.24,4.26-12.39,8.44c-9.75,12.95-18.62,26.32-24.87,41.52-9.23,22.48-14.86,45.5-14.1,69.86.52,16.58,8.17,16.88,20.92,13.59a21.18,21.18,0,0,0,10.14-6.16c3-3.14,6.31-5.86,11-6.06,1.68,7.6.43,15.14-1,22.55-1.22,6.35-5.07,10.53-12.13,10.61-2.95-7.24-9-10.28-16-12.71C322.8,531.77,303.7,533.65,285.38,544.39Z"/><path class="cls-1" d="M817,296.78c6.36,3.08,7.49,10,10.11,15.29,12,24.45,20.53,50.23,27.13,76.64a26.85,26.85,0,0,1,.3,5.1c-2.82-.46-3.62-2.32-3.56-4.92.1-4.11-.14-8-5-9.77-2.26-.84-1.83-3.31-1.87-5.27-.21-10.22-3.88-19.7-6-29.53-1.15-5.38-5.29-7.92-8.08-11.64s-7.4-6.33-6.52-12.05c0-.26-.08-.74-.24-.79C809.89,315.25,819.05,304.48,817,296.78Z"/><path class="cls-1" d="M858.72,490.23l-.69-.1-.7.05c.09-14.81-.78-29.71.54-44.41,1.24-13.82-4.21-26.71-3.47-40.25.15-2.78-.83-5.73,1-8.3,4.78,7.37,3.8,16,4.66,24C862.56,444.25,864.2,467.34,858.72,490.23Z"/><path class="cls-1" d="M823,549.23l-.89-1.69c1.22-2.68,3.35-4.42,5.77-6,6-4,9.34-9.28,8.7-17-.56-6.69.18-13.3,7.25-17-2.44,11.71-1.17,24.18-8.34,34.92C832.25,547.34,828.56,549.62,823,549.23Z"/><path class="cls-1" d="M257.45,535.18c-6.5-2.93-8-9.5-9.43-15.16-2.73-10.86-5.15-22-3.71-33.38,3.47,5,9.48,9.24,3.94,16.72-2.14,2.9.72,6.08,2.22,8.66C254.66,519.23,255,527.5,257.45,535.18Z"/><path class="cls-1" d="M246,431.6c1.85-16,3.7-31.93,8.38-47.4,3.18,15-5,29.13-3.48,44.06C251.16,431.22,248.29,431.49,246,431.6Z"/><path class="cls-1" d="M243.77,473c-1.38-12.78.18-25.4,2-38,3.49,3.64,1.17,8.24,2,12.34,1.24,6.09-.85,12.31.7,18.58A5.82,5.82,0,0,1,243.77,473Z"/><path class="cls-1" d="M857.35,490.13c-.37,10.52-3.39,14.42-13.56,17.47C845,499.2,851.25,494.72,857.35,490.13Z"/><path class="cls-1" d="M255,381.74a77,77,0,0,1,6.39-25.07C262.32,365.81,262.52,374.76,255,381.74Z"/><path class="cls-1" d="M261.54,355.79c0-3.51.22-6.94,3-9.6C264.92,349.82,267.47,354.11,261.54,355.79Z"/><path class="cls-4" d="M906.56,300.81a3.73,3.73,0,0,1,3.51,3.41C907.8,304.22,906.65,303.05,906.56,300.81Z"/><path class="cls-7" d="M825.63,551.62c-1.19.18-2.32.24-2.51-1.39C824.33,550,825.26,550.31,825.63,551.62Z"/><path class="cls-6" d="M403.66,562.79l-2.08,1.48a24.23,24.23,0,0,1-13.31.78l-3.72-3.4a5.09,5.09,0,0,0-2.58-4.2,7.17,7.17,0,0,0-.44-1.62c-7.44-13.67-7.44-13.67,5.7-23.68,4.17,1.2,6.6-2.6,10-3.49,8,.06,18.82-9,22.24-18.66,7.35-2.26,12.06-8.16,17.7-12.78,1.54-1.27,3.85-2.49,2.22-4.68s-4.37-1.66-6.09,0c-3.38,3.31-7.25,4.23-11.72,3.56-4.81-5.06-4.95-10.48-3.05-17.17,1.83-6.42,6.23-14.48-3.8-19-3.11-11.43,4.07-18,16.56-14.48,9.29,2.63,18.4,6,26.62,11.37-1.89,15.67-7.53,31-1.48,47.29,1.48,4,2.77,6.11,6,7.65,8.46,4,15.76,9.12,19.14,18.37.46,9-4.15,13-12.85,12.91-7.15-2.64-13.61-7-21.2-8.53-3.75-5-7.23-5.07-13.64-2.9-8.83,3-14.08,10.51-22.27,13.71-2.12.83-2.94,2.63-3,4.79C408.47,554.94,405.7,558.71,403.66,562.79Z"/><path class="cls-1" d="M481.65,530.15c-3.38-9.25-10.68-14.39-19.14-18.37-3.27-1.54-4.56-3.66-6-7.65-6.05-16.3-.41-31.62,1.48-47.29,5.65-9.3,6.53-20.29,11.08-30.17,11.46-24.89,31.3-38.7,56-47.77,10-3.67,19.73-5.53,30.14-3.08,19,4.48,21.69,7.88,21.66,27.67-42.38-17.53-77.61.86-93,41.93-6.46,17.22-7.89,35.06-8,53.16,0,5.67,1.47,10.24,6.12,14.3C490,519.92,489.52,525.71,481.65,530.15Z"/><path class="cls-1" d="M373,515c-.32,1.11-.64,2.22-.95,3.33-4.67.2-8,2.92-11,6.06a21.18,21.18,0,0,1-10.14,6.16c-12.75,3.29-20.4,3-20.92-13.59-.76-24.36,4.87-47.38,14.1-69.86,6.25-15.2,15.12-28.57,24.87-41.52,3.15-4.18,6.86-7.13,12.39-8.44s10.63-1.28,12.94,3.34c2.14,4.28-.7,9.8-4,12.92-16.8,16-25.7,36.14-32.61,57.72-3.12,9.75-7.62,19-7.73,29.55,0,1.6-1.45,3.55.56,4.48,1,.46,3-.12,3.91-.93,4.68-4.05,10.2-3,15.58-3C371.86,505.61,370.52,510.7,373,515Z"/><path class="cls-1" d="M738,542.9c-5.26.9-10.28,2.29-13.94,6.58C710.8,545,705.12,534.38,702.16,522c-1-4.22-2.12-8.14-4.71-11.6q-3.81-13.11-7.63-26.21c-.71-2.42-1-5.3-4.64-5-.07-6.74-.47-13.5-.1-20.21.35-6.15-1.85-10.29-7.43-12.73-1-5.91-5.11-9.44-10.09-11.73-9.18-4.21-11.28-10.31-6.21-19.5,10.76-2.62,19.18,1.73,26.92,10.78,7.58,8.85,13.93,17.75,15.05,29.64,0,.52,1.34.92,2.06,1.38,1.27,8.62-1.85,18.22,5.62,25.48,3.66,16.19,8.21,32,19.86,44.61C735.13,531.5,737.88,536.55,738,542.9Z"/><path class="cls-1" d="M796.8,534.67c-7.48,4-14.57,4.81-20.61-2.62.54-16.47,2-33.08-1.71-49.28-4-17.61-7.33-35.59-18.29-50.81-3.7-5.15-9.55-10.71-1.78-16.92,4.78-3.83,15.59-.54,19.37,5.87,13.38,22.67,21.1,46.81,22.06,73.53C796.32,507.85,796.19,521.27,796.8,534.67Z"/><path class="cls-1" d="M637.17,414.88c-4,8-7.08,8.79-14,3.58-1.35-1-3-1.68-4.19-2.86-4.07-4.16-5.95-2.22-6.39,2.37-.57,5.93-3.09,11.38-9,11.63-6.52.29-9.94-5.09-11.93-11.3-1.63-5.08-.53-12.85-9.65-12.18,3.75-4.28,2.77-10.71,7.4-14.91,2.48-2.25,2.87-7.68,7.77-5.44,4.47,2,9.77,3.77,10.7,10a48.55,48.55,0,0,0,2.26,9.11c.56,1.6.91,4.64,3.76,3.32a3.59,3.59,0,0,0,1.59-5.17c-2.54-3.61-2.12-7.54-2.33-11.53-.28-5.44,3.15-7.95,7.39-9.11s7.41-.09,10.42,4.66C636.54,395.88,636.43,405.34,637.17,414.88Z"/><path class="cls-6" d="M380.34,498.12l-3.85-2.49c-.87-13.38,3.1-25.89,7.28-38.28,3.7-11,10-12.14,18.24-4,2.42,2.39,5.09,4.51,7.64,6.76-1,13.61-8.84,25.56-9.42,39.27C393.35,503,387.11,496.25,380.34,498.12Z"/><path class="cls-1" d="M400.23,499.34c.58-13.71,8.44-25.66,9.42-39.27l5.12-.12c10,4.52,5.63,12.58,3.8,19-1.9,6.69-1.76,12.11,3.05,17.18A31.74,31.74,0,0,0,419.51,510c-3.42,9.63-14.25,18.72-22.24,18.66A80.47,80.47,0,0,1,400.23,499.34Z"/><path class="cls-6" d="M711,482.27c-7.47-7.26-4.35-16.86-5.62-25.48,1-4.36-.94-10.45,6.83-10.61,6.65-.14,9.7,3.37,11.4,9.38a41.26,41.26,0,0,1,.67,17.9C723.13,480.55,718.15,483.41,711,482.27Z"/><path class="cls-1" d="M373,515c-2.49-4.26-1.15-9.35-3-13.76l4.75,0C374.61,505.83,374.85,510.53,373,515Z"/><path class="cls-6" d="M400.23,499.34a80.47,80.47,0,0,0-3,29.32c-3.44.89-5.87,4.69-10,3.49-4.34-10.93-7.27-22.14-6.89-34C387.11,496.25,393.35,503,400.23,499.34Z"/><path class="cls-6" d="M388.27,565.05a24.23,24.23,0,0,0,13.31-.78C397.41,569.25,393,569.44,388.27,565.05Z"/><path class="cls-6" d="M382,557.45a5.09,5.09,0,0,1,2.58,4.2C382.36,561.07,381.45,559.7,382,557.45Z"/><path class="cls-6" d="M419.51,510a31.74,31.74,0,0,1,2.11-13.87c4.47.66,8.34-.26,11.72-3.57,1.72-1.68,4.47-2.18,6.09,0s-.68,3.41-2.22,4.68C431.57,501.84,426.86,507.74,419.51,510Z"/></svg>