<svg id="Layer_1" data-name="Layer 1" xmlns="http://www.w3.org/2000/svg" viewBox="0 0 1133.86 1133.86"><defs><style>.cls-1{fill:#713038;}.cls-2{fill:#e0c8a4;}.cls-3{fill:#fee8aa;}.cls-4{fill:#1a191a;}.cls-5{fill:#e4e7ea;}</style></defs><path class="cls-1" d="M698.77,370.49c2.52-1.45,3.33,1,4.75,2.09l-1.2,1.25-3.41-3.46Z"/><path class="cls-1" d="M698.91,370.37a12.86,12.86,0,0,1-.78-1.28c0-.09.16-.31.26-.47l.39,1.86Z"/><path class="cls-1" d="M742.16,506.47c1.69-.45,2.14.36,1.89,1.88C742.63,508.53,742.26,507.63,742.16,506.47Z"/><path class="cls-2" d="M720.42,243.13c-1.62-1.07-3.12-2.23-3.3-5.06l4.49,4.13A4.67,4.67,0,0,1,720.42,243.13Z"/><path class="cls-3" d="M854.08,562.94c-7.78,0-13.29-3.65-17.06-10.34-2.86-5.07-8.58-9.22-12.76-9.75-7-.89-23.83-20.14-31.66-13.32-2.36,2.06,10.3-55.86,7.59-55.58,0-1.71-.15-3.43-.06-5.14,1.64-31.59-2.59-62.95-3.49-94.44-.14-5.1-2.21-9.43-7.92-9.35s-7.8,4.8-7.54,9.67c.87,16.53,1.59,33.12,3.54,49.55a255.88,255.88,0,0,1,.67,49.79c-2,26.33-7.08,52.32-13.06,78.06-4.15,17.88-8.36,35.77-14.61,54-3.48-11.13-6.47-21.2-9.79-31.16a172.9,172.9,0,0,0-12.38-29.13c-2.3-4.16-4-9-9.79-10-6-1-8.74,3.52-12.35,8.33-.57-5.51-1-9.72-1.43-13.93,1.65-7.39,3.88-14.82-1.77-21.61-.61-2.21-1.38-4.39-1.81-6.64-4.07-21.18-7.9-42.41-12.22-63.55-1-4.84-2.57-11-9.66-9.5s-6,6.65-4.85,12.26c4.62,23.2,8.78,46.48,13.28,70.59-5.05-1.84-9.17-3.52-13.41-4.83-4.62-1.43-9.38-2.42-14-3.76-20-5.77-22.35-12-26.11-31.58-1-5.42-1.34-10.93-8.06-11.11-6.54-.17-6.6,5.51-6.45,10.37-1-.18-1.37-.14-1.51-.3a28.83,28.83,0,0,1-2-2.69c-19.93-31.25-28.87-65.8-30.65-102.46-.23-4.75.12-10-5.93-10.7s-10.32,2.88-11.83,8.92a39.34,39.34,0,0,0-1.27,9.33c-.13,29.89-.7,59.8.14,89.67.33,11.72.15,23.88,4.27,35.21,2.69,7.4-2.39,8.11-7,8.77-25.16,3.55-50.36,6.81-75.53,10.31-4.34.6-6.53-.5-8.1-5-3.95-11.35-6.32-23.06-9.08-34.69-2.63-11.08-5.94-12.64-16.48-8.25-.87-24.48-.73-48.87,1.91-73.08a430.59,430.59,0,0,1,16.25-78.14c1.48-4.87,1.42-9.6-4.34-11.24-5.57-1.58-8.4,1.94-9.86,7-5.93,20.56-11.2,41.26-14.38,62.44-2.81,18.73-4.16,37.86-11.32,55.57a214.86,214.86,0,0,1-46.64,70.71c-4.1,4.18-5.32,2.7-7.81-1.43-5.17-8.58-3.46-17.78-3.42-26.86,0-5.53-1.71-10.34-7.68-10.22-5.81.11-7.3,4.76-7.66,10.37-1.3,20.1-.1,40.05,1.66,60.07,2.17,24.63,6.07,49,9.49,73.46,1.27,9.05,4.46,17.91,4,28.38-2.31-1.66-3.68-2.59-5-3.6-19.2-15-34.86-33.08-47.71-53.72-2.52-4.05-5-9.6-10.85-8.22-6,1.42-6-1.5-6.87-5.71a532,532,0,0,1-10-65.08,199.33,199.33,0,0,0-.11-51.65c1.57-13,1.74-26.15,4.22-39.1,2.26-11.79,3.87-23.71,5.63-35.59.68-4.54-1.07-8.16-5.69-9.27-4.94-1.19-7.31,2.24-8.74,6.3a34.37,34.37,0,0,0-.84,5c-3.91,21-7.67,42-9.09,63.35-1.49,22.61-8.77,77.38-7.15,100-1.29,3.52-3.27,5.82-7.56,5.32-6-.7-9.71,1.93-11.24,8-1.31,5.23-6.21,8.89-6.8,14.53-6.2-16.15-7-33.19-8.25-50.17,2-8,3-16-.54-23.85-3.78-4.16-7.91-5.57-12.7-1.61-1.13.93-2.49,2.06-3.54.59-.65-.91-.41-2.68-.15-4,1.48-7.48,10.64-47.07,11.78-54.6,11.43-75.42,48.06-137.47,100.88-191,10.66-10.8,24.15-17.74,37.11-24.57,6.81-3.58,15.16-5.44,22.25-9.72C422.83,194.51,444.55,181.23,470,176c12.54-2.58,25-5.46,37.85-6.21,22.8-1.32,45.55-5.37,68.44-1.22,8.92,2.59,17.9,1.93,26.9.59,10.14,1.45,20.36,2.51,30.41,4.41,39.61,7.47,77.61,19.17,110.83,43.16,5,3.6,7.15,10.12,13.57,12.24,5.59,1.84,9.27,6.46,13.46,10.33,22.64,20.95,37.67,47,51.35,74.26,21.54,42.91,33.24,153.2,59,194,.8,1.27.93,3,1.34,4.37-3.12,1.86-5.22-.31-7.35-1.43-9.23-4.81-13.5-2.32-14.84,7.8C859,533.25,858.46,548.4,854.08,562.94ZM632.5,369.15c-1.72,0-3.44,0-5.16,0-4.49.11-8.13,1.76-8.33,6.73-.21,5.21,3.16,7.88,8.07,8.12,16,.77,30,6.37,41.68,17.47,3.52,3.34,7.9,5.61,12.09,1.26,4.41-4.59,2.08-8.95-1.67-12.73C666.32,377,650.38,370.9,632.5,369.15ZM371.11,422c3.25.94,5.44-1.44,7.46-3.95,7.6-9.48,15.59-18.31,27.85-22,3.6-1.1,5.11-4.64,4.27-8.42a6.83,6.83,0,0,0-7.44-5.78,21.4,21.4,0,0,0-9.13,2.07c-12.12,6.08-21.16,15.6-29.31,26.09-2.12,2.73-1.8,6-.68,9C365.17,421.64,367.8,422.28,371.11,422Zm431.34,46.73a2.66,2.66,0,0,0-.08-3.58A2.6,2.6,0,0,0,802.45,468.69Z"/><path class="cls-4" d="M712,530.25c.43,4.21.86,8.42,1.43,13.93,3.61-4.81,6.34-9.31,12.35-8.33,5.76.94,7.49,5.82,9.79,10A172.9,172.9,0,0,1,747.93,575c3.32,10,6.31,20,9.79,31.16,6.25-18.26,10.46-36.15,14.61-54,6-25.74,11.06-51.73,13.06-78.06a255.88,255.88,0,0,0-.67-49.79c-2-16.43-2.67-33-3.54-49.55-.26-4.87,1.76-9.58,7.54-9.67s7.78,4.25,7.92,9.35c.9,31.49,5.13,62.85,3.49,94.44-.1,1.75,0,3.51.06,5.26l-1.58,3.35c-4.41,3.39-4.28,8.64-3,12.88,1.67,5.34.9,10.42,1.1,15.62a778.36,778.36,0,0,1-27.45,113.35,66.47,66.47,0,0,1-3.21,8.87c-2.06,4.17-4.53,8.13-10.16,7.89-5.84-.25-7.59-4.79-8.79-9.15-2.9-10.46-5.26-21.06-7.91-31.59-1.11-4.44-2.42-8.84-3.64-13.25a37.48,37.48,0,0,0-.79-21.15c-1.43-4.36-4-8.36-9.43-8.83s-8.73,2.27-10.64,6.94-3.6,9.64-5.38,14.47c-1.09,3-1.92,6.53-6,6.12s-5.62-3.53-5.59-7.39c.06-7.81.09-15.62.29-23.42.09-3.36-.64-5.95-3.54-8.15-9-6.78-18.33-12.68-29.43-15.32-7.55-2.37-13-7.24-18.32-13.12-5.88-6.49-13.77-11.1-20.23-17.14-17.23-16.11-26.68-37.05-35.32-58.43-.8-2-1.5-4-3-8.1-1.47,20.15.51,37.93,1.52,55.75.65,11.63-1.54,23.36,1.26,35a2.23,2.23,0,0,1-3.2,2.64c-8.59-5-17,.22-25.21.88-22.79,1.84-45.41,5.78-68.06,9.16-4.24.64-7,.15-9.18-3.92-3.2-5.88-8.33-9.43-15.28-9.66-9.22-.32-13.84-4.85-16.9-13.88-5.31-15.68-5.23-31.89-7.07-49.24-7.36,12.63-14.26,24.06-22,35-6.7,9.49-18,14.16-24.05,24.14-.57.94-1,2-1.46,3-3.72,1.38-5.9,4.43-7.46,7.74-6.25,13.32-6,27.38-4.26,41.55a21.6,21.6,0,0,0,.34,14.43c-1.47,5.38-1.51,10.54,2.32,15.12l.1,2.08c-2.06,3-.17,5.86.63,8.63,3.42,11.91,7,23.75,10.59,35.61-.49,4.17,1.77,7.71,2.77,11.52.91,3.51.08,6.09-2.73,8.22-3.11,2.37-5.79,1-8.61-.73a228.52,228.52,0,0,1-53.68-44.73c-6.8-2.65-11.16,1.73-16,5.28-3.48,2.55-4.92,8.14-10.68,7.4-8.66-26.64-8.79-42.25-15.13-69.44.68-.08-6.47-17.06-17.32-19.18-1.62-22.6,6-79.42,7.47-102,1.42-21.36,5.18-42.36,9.09-63.35a34.37,34.37,0,0,1,.84-5c1.43-4.06,3.8-7.49,8.74-6.3,4.62,1.11,6.37,4.73,5.69,9.27-1.76,11.88-3.37,23.8-5.63,35.59-2.48,12.95-2.65,26.09-4.22,39.1q.06,25.83.11,51.65a532,532,0,0,0,10,65.08c.91,4.21.89,7.13,6.87,5.71,5.82-1.38,8.33,4.17,10.85,8.22,12.85,20.64,28.51,38.74,47.71,53.72,1.31,1,2.68,1.94,5,3.6.5-10.47-2.69-19.33-4-28.38-3.42-24.46-7.32-48.83-9.49-73.46-1.76-20-3-40-1.66-60.07.36-5.61,1.85-10.26,7.66-10.37,6-.12,7.71,4.69,7.68,10.22,0,9.08-1.75,18.28,3.42,26.86,2.49,4.13,3.71,5.61,7.81,1.43a214.86,214.86,0,0,0,46.64-70.71c7.16-17.71,8.51-36.84,11.32-55.57,3.18-21.18,8.45-41.88,14.38-62.44,1.46-5.07,4.29-8.59,9.86-7,5.76,1.64,5.82,6.37,4.34,11.24a430.59,430.59,0,0,0-16.25,78.14c-2.64,24.21-2.78,48.6-1.91,73.08,10.54-4.39,13.85-2.83,16.48,8.25,2.76,11.63,5.13,23.34,9.08,34.69,1.57,4.5,3.76,5.6,8.1,5,25.17-3.5,50.37-6.76,75.53-10.31,4.63-.66,9.71-1.37,7-8.77-4.12-11.33-3.94-23.49-4.27-35.21-.84-29.87-.27-59.78-.14-89.67a39.34,39.34,0,0,1,1.27-9.33c1.51-6,5.69-9.62,11.83-8.92s5.7,5.95,5.93,10.7c1.78,36.66,10.72,71.21,30.65,102.46a28.83,28.83,0,0,0,2,2.69c.14.16.53.12,1.51.3-.15-4.86-.09-10.54,6.45-10.37,6.72.18,7,5.69,8.06,11.11,3.76,19.59,6.13,25.81,26.11,31.58,4.66,1.34,9.42,2.33,14,3.76,4.24,1.31,8.36,3,13.41,4.83-4.5-24.11-8.66-47.39-13.28-70.59-1.12-5.61-2.15-10.8,4.85-12.26s8.68,4.66,9.66,9.5c4.32,21.14,8.15,42.37,12.22,63.55.43,2.25,1.2,4.43,1.81,6.63Z"/><path class="cls-4" d="M576.28,168.57c-22.89-4.15-45.64-.1-68.44,1.22-12.85.75-25.31,3.63-37.85,6.21-25.44,5.23-47.16,18.51-68.93,31.65-7.09,4.28-15.44,6.14-22.25,9.72-13,6.83-26.45,13.77-37.11,24.57-52.82,53.56-89.45,115.61-100.88,191-1.14,7.53-10.3,47.12-11.78,54.6-.26,1.3-.5,3.07.15,4,1.05,1.47,2.41.34,3.54-.59,4.79-4,8.92-2.55,12.7,1.6q.25,11.93.54,23.86c1.27,17.79,2.12,35.66,9.19,52.5-3,4.12-1.38,9.09-2.87,13.44-.86,2.51-.47,7-5.55,5-5.82-11.21-8.65-23.45-12.49-37-1.47,9-2.54,16.54-4,24-.93,4.83-2.26,10.3-8.29,10.54-5.6.21-8.09-3.86-9.53-9.24-3.57-13.24-3.75-26.72-2.81-40.1,2.22-31.42,13.59-94.8,20.1-125.65,12.38-58.59,41.1-108.7,78.71-154.6,17.43-21.28,37.19-40.49,61.94-50.79,35.34-14.7,66-39.71,105.32-45.75a560.72,560.72,0,0,1,101.81-6.41c46.53,1.34,91.32,10.37,134.08,28.64,53.08,22.69,91.53,61,117.72,112.1,16.18,31.59,26.25,128.68,40.92,161a340.29,340.29,0,0,0,45.14,73.93c2.52,3.12,5,6.32,7.22,9.63,2.49,3.62,3.06,7.68.1,11.13-2.78,3.25-6.32,4.15-10.84,2.5-13.4-4.89-24.08-14.17-36.93-22.49-3.16,27.51-7.87,53.89-16.9,79.49-9.17-14.52-3.07-30.27-3.95-45.39,4.38-14.53,4.92-29.68,6.9-44.59,1.34-10.12,5.61-12.61,14.84-7.8,2.13,1.12,4.23,3.29,7.35,1.43-.41-1.39-.54-3.1-1.34-4.37-25.79-40.84-37.49-151.13-59-194-13.68-27.25-28.71-53.31-51.35-74.26-4.19-3.87-7.87-8.49-13.46-10.33-6.42-2.12-8.59-8.64-13.57-12.24-33.22-24-71.22-35.69-110.83-43.16-10.05-1.9-20.27-3-30.41-4.41Z"/><path class="cls-4" d="M632.5,369.15c17.88,1.75,33.82,7.87,46.68,20.86,3.75,3.78,6.08,8.14,1.67,12.73-4.19,4.35-8.57,2.08-12.09-1.26-11.72-11.1-25.64-16.7-41.68-17.47-4.91-.24-8.28-2.91-8.07-8.12.2-5,3.84-6.62,8.33-6.73C629.06,369.11,630.78,369.15,632.5,369.15Z"/><path class="cls-4" d="M371.11,422c-3.31.32-5.94-.32-7-3.07-1.12-2.95-1.44-6.23.68-9,8.15-10.49,17.19-20,29.31-26.09a21.4,21.4,0,0,1,9.13-2.07,6.83,6.83,0,0,1,7.44,5.78c.84,3.78-.67,7.32-4.27,8.42-12.26,3.73-20.25,12.56-27.85,22C376.55,420.52,374.36,422.9,371.11,422Z"/><path class="cls-5" d="M301.59,499.72q-.06-25.83-.11-51.65A199.33,199.33,0,0,1,301.59,499.72Z"/><path class="cls-5" d="M712,530.25l-1.77-21.62C715.86,515.43,713.63,522.86,712,530.25Z"/><path class="cls-5" d="M246,516.42q-.27-11.92-.54-23.86C249,500.44,248,508.42,246,516.42Z"/><path class="cls-5" d="M802.45,468.69a2.6,2.6,0,0,1-.08-3.58A2.66,2.66,0,0,1,802.45,468.69Z"/></svg>