<svg id="Layer_1" data-name="Layer 1" xmlns="http://www.w3.org/2000/svg" viewBox="0 0 1133.86 1133.86"><defs><style>.cls-1{fill:#1e1a1b;}.cls-2{fill:#fff;}.cls-3{fill:#b78879;}.cls-4{fill:#1d191b;}</style></defs><path class="cls-1" d="M393.3,1062.44c-.91,4.86-8.22,2.09-13.37,1.85-9.7-.45-17.75,2.82-24.89,8.25a17.17,17.17,0,0,1-12.84,3.31c-11.12-1.62-22.38-.26-33.51,0A95.85,95.85,0,0,1,263,1065.5c-7.44-3.74-2-8-3.24-15.67-1.71-10.41-2.24-21-2.95-31.56-4.42-65.38-24-72.35-28.22-137.81-4.67-72.3-6.12-144.25,6.11-216.15,9.5-55.8,21-111.21,30.4-167,4-23.69,4.21-48,8.82-71.68,10.27-52.72,31.34-100.45,66.47-141.53,19-14.18,36.31-30.52,58.1-40.88,47.1-22.39,97.28-32.15,148.61-37.62,7.54-1.23,15.95,2.45,22.58-4,27.13.31,53.73,4.27,80.48,8.94,37,6.46,74.11,12,109.35,25.81,4.69,3.92,10.22,5.68,16.17,6.38,8.58,7.86,21.94,9.77,27.87,20.51,8.16,14.78,20.38,25,34,34.1,37.79,58.65,47.8,124.89,51.88,192.55,4.48,74.28,22.38,146.08,38.4,218.31,19.22,86.68,40,117,48.18,205.55,3.83,41.23,7.29,82.87-4,123.7-2.07,7.46-3.08,20.93-13.32,17.86-11.58-3.46-2.37-14.33-.64-21.65,7.84-33,6.25-66.44,4.31-99.83-3.18-55-14.75-52.55-25.32-106.51-10.21-52.17-20.75-104.25-35.34-155.73,1.27,25.8,3.09,51.58,3.7,77.39,2.1,88.48,3.8,120.47,8.87,208.87,1.7,29.58,3.18,59.17,4.73,88.76,1.29,24.44-1.32,27.84-24.64,31.43l-.19,0c-24.77,3.76-19.4-24.56-19.65-17.7.13-3.57.29-7.15.27-10.72-.14-24.32-19-40.52-42.63-36.07a41.67,41.67,0,0,1-21.15-1.35c-22.45-7.17-42.61,6-46.32,29.67-1.53,9.75-6,12-14,5.14-14.92-12.87-11.4-366-7.29-391.2,2.44-28.57,1.88-57.16.5-85.76l.33-11.19c.35-2.8.18-5.55-1.68-8.13-.37-7.14-1.27-14.3-1-21.41.37-8.92-2.72-14.53-11.9-16-1.79-2.09-4.22-2.61-6.8-2.87-13-1.29-26.07-2.2-39-4-22.59-3.18-26.66-7.43-30-29.85-.9-6-1.24-12.11-1.84-18.17l-2.32-.26q-7.5,22.49-15,45c-6.72,6-13.44-2.32-20.17,0-9-.32-17.87-4-26.85-.73l-30.46.55c-16.86-5.85-34.24-5.51-51.67-4.65l-4.13-.24c-19.11-3.2-18.51-21.2-26.36-36.55a78,78,0,0,1-20.22,32.82l-3.35,1.25c-21.34-1.11-42.29,2.63-63.36,4.85l-8.61-1.73c-6.24-8.39-7.59-18.78-11.42-31.21-7.79,14.64-9.72,29.13-19,39.82-2.48.37-5,1.15-7.44,1.05-11.34-.46-15,3.36-12.52,15.55,3.43,17.12,4.21,34.77,6.13,52.19.9,17.91,1.28,35.87,2.87,53.72,1.1,12.33,1.09,25,6.17,36.69C354.36,689.93,397.24,1041.24,393.3,1062.44ZM255.49,641.35C237.58,724,235.76,807.25,246.63,891,252.74,807.94,252.89,724.65,255.49,641.35ZM315,395c-.35,3.55-.07,7.44,3.72,8.46,5,1.34,6.63-3,7.27-6.71,1-6,6.1-11.56,2.34-18-1-1.74-3.35-3.14-5.45-1.67C316.71,381.4,317.53,389,315,395Zm508.52-9.81c-1.59-4.52,3.06-13.37-6.21-13.29-7.24.07-4.61,7.64-4.6,12.23,0,5.14-1.49,12.63,6.52,12.49C826.55,396.5,822.72,389.66,823.55,385.2ZM352,392.9c-1.61-3.19,1.33-9.19-5.32-9.54-5.75-.29-5.53,4.35-5.33,8,.22,4.21-1.77,10.54,5.47,10.5C351.92,401.87,351.26,396.7,352,392.9Zm443.34,2.93c4.92-.83,5.62-4.61,5.88-8.41.23-3.42.13-6.93-4.73-7.21-4.68-.27-5.45,3-5.87,6.46C790.12,390.78,791.24,394.09,795.33,395.83Z"/><path class="cls-2" d="M315,395c2.5-6.05,1.68-13.61,7.88-17.93,2.1-1.47,4.44-.07,5.45,1.67,3.76,6.45-1.32,12-2.34,18-.64,3.72-2.27,8.05-7.27,6.71C315,402.45,314.68,398.56,315,395Z"/><path class="cls-2" d="M823.55,385.2c-.83,4.46,3,11.3-4.29,11.43-8,.14-6.51-7.35-6.52-12.49,0-4.59-2.64-12.16,4.6-12.23C826.61,371.83,822,380.68,823.55,385.2Z"/><path class="cls-2" d="M352,392.9c-.73,3.8-.07,9-5.18,9-7.24,0-5.25-6.29-5.47-10.5-.2-3.69-.42-8.33,5.33-8C353.32,383.71,350.38,389.71,352,392.9Z"/><path class="cls-2" d="M795.33,395.83c-4.09-1.74-5.21-5.05-4.72-9.16.42-3.5,1.19-6.73,5.87-6.46,4.86.28,5,3.79,4.73,7.21C801,391.22,800.25,395,795.33,395.83Z"/><path class="cls-3" d="M743.63,562c-2.52-3.53-2.12-7.36-1.14-11.24C745,554.32,744.43,558.16,743.63,562Z"/><path class="cls-4" d="M335.21,660.59s18.78-3,20.91-7.26c0,0,39.68,20.48,81.5,25.6s70.4,12,70.4,12l2.47,65.94,73.79,0,2.25-69.33s38.41-5.12,54.62-14.51c0,0,52.06-15.79,66.14-22.19s40.53-19.2,40.53-19.2l14.94.43-12.13,415.07s-339.32,6.59-368.89,17.27S306.1,822.88,306.1,822.88Z"/></svg>