<svg id="Layer_1" data-name="Layer 1" xmlns="http://www.w3.org/2000/svg" viewBox="0 0 1133.86 1133.86"><defs><style>.cls-1{fill:#3e2315;}.cls-2{fill:#2d1911;}</style></defs><path class="cls-1" d="M339,572.86c-5.12-.42-8.86-3.54-12.72-6.45,7.45-3.56,6.25-9.4,3.93-15.39-7.61-19.62-4.26-28.66,14.95-37,16.29-7.1,29.68-16.94,39.17-32.47,6-9.82,14.23-18.09,27-19.74,4.48-.59,6.78-4.17,6.93-8.82.14-4.46-2.82-6.82-6.23-8.48-4.26-2.07-8.78-1.15-12.85.57-11.73,4.95-23.58,11.33-29.64,22.26-8.67,15.65-22.22,22.77-37.49,29.07-10.48,4.32-20.26,10.56-23.3,22.46-1.8,7.06-5.33,6.88-11.07,6-28.33-4.54-54.8,9.75-66.37,35.73-1.58,3.56-2.78,5.68-7.26,4.86-4.71-.86-5-3.71-4.68-7.39.83-10.76-1.69-21.13-5.87-30.73-5.49-12.62-7.57-26-10.55-39.16-3.09-13.67-3.07-27.91,9.63-37.15,18.16-13.2,25.42-31.4,29.19-52.55,2.76-15.44,4.56-81.48,20.88-87.33,4.65-1.67,7.45-5.15,5.94-10.3-1.38-4.75-5.17-6.66-10.06-7-5.11-.4-8.76,3.46-13.47,4.07-1-3.11-4.11-3.32-6.37-4.55-8-4.35-10.11-10.38-6-18.53,3,1.56,5.88,3.67,9.33,3.33,11.12-1.1,21.17,1,30.26,7.94,3.71,2.82,8.24,2.71,12.18-.39s3-7.1,2.37-11c-.61-3.72-5.2-6.63-2.26-11.09q3.75-5.36,7.51-10.69c9.78,9.9,15.93,8,21.58-4.22,12.5-27,24-43.4,56.91-43a246.46,246.46,0,0,0,87.58-15.05c25.2-9.16,37.75-5.93,55.29,14.5,3.76,4.38,8.41,6.27,13.42,2.81s7.82-7.91,3.7-14.41a44.57,44.57,0,0,0-8.7-9.74c.28-1.31.28-2.51-1.16-3.19l0,.18c1-4.52-3.28-11.74,3.52-13.15,10.68-2.23,9.52,9.71,14.21,15,2.9-5.16,5.18-10.05,8.27-14.37,1.66-2.31,4.71-4.39,7.92-2.16a6,6,0,0,1,2.12,8c-1.45,3.05-3.24,6-2.71,9.53-.48,3.25-4,3.24-5.69,5.38-4.51,5.75-4.33,17.19,1.19,21.27,7.77,5.73,11.52.28,16.3-5.45,16-19.14,37.74-30.58,63.46-15.65,21.42,12.44,44.51,19.6,68.77,23.81,17.52,3,32.39,11.45,45.29,23.7,12.43,11.81,22.18,25.58,30.68,40.31,3.46,6,7.45,10.58,15.23,9.16,1.87,1.15,1.82,3.08,2,4.93-1.62.37-3.26.7-4.87,1.11-6.36,1.64-11.9,4.22-10.6,12.25,1.35,8.36,7.41,8.19,14,7.43,8.33-1,17.07-.09,23.28,5.33,9.14,8,15.59,5.83,22-2.66,6.65,4.54,11.74,63.21,8.57,69.42-1.51,2.95-3.55,5.62-5.34,8.42-6.25-1.51-12.29-4-18.89-3.77-5.75.19-11.45,1-12,8.1-.54,6.46,4.33,8.48,9.77,9.48,27.61,5.1,38.87,25.36,37.09,51.93-1.14,16.89-.47,32.8,8.18,48.17,14.15,25.14-5.86,43.29-21.68,62.29-2.88,3.47-5.12,4.17-6.81-1.21-8.55-27.39-14.85-43.1-43.54-44.52-5.61-.28-6.5-2.71-6.43-7.64.2-13.38-3-25.57-14.26-34.31-14.21-11-25.86-23.39-33.17-40.77-8-19-30.91-26.55-45.91-18-3.77,2.14-7.93,4.76-6.65,10.24,1.23,5.27,5.84,7.54,10.16,6.39,17.88-4.74,24.23,6.86,30.2,19.88,4.79,10.43,10.26,19.93,20.47,26.93,15.88,10.87,24.91,19.88,15.89,43.64-.71,1.86-.69,4-1,6-10.28.54-16.3-3.77-15.55-14.67,1.19-17.33-11.89-24.6-21.39-35,4.72,10.83,6.11,21.65.51,32.15-4,7.49-10,10.93-18.37,5.59,9-12.21,4.1-32.29-9.68-42.71-7.75-5.85-17.72-6.57-25.38-12.46-3.53-2.72-7.8-3.67-12.33-1-4.78,2.86-2.71,7-2.76,10.84-.92,2.78.34,5.16,1.08,7.77,5.36,18.66,2.77,35.43-12.61,48.71-4.75,4.1-9.74,8.24-16.86,5.7,1.21-2.77,2.35-5.59,3.64-8.33,15.42-32.66,8-54.82-24-71a18.52,18.52,0,0,1-9.43-10c-1.9-4.7-3.51-9.61-6.06-13.95-6.41-10.94-16.84-14-28.71-13.2-7.35.47-11.57,4.84-13.13,11.91-2.6-.54-5.21-1.13-7.59.73-4.19-10.17-11.26-12.77-21.9-7.71-13.44,6.39-22.29,17.27-24.6,31.6-1.9,11.76-8.06,19.31-16.47,26.6-21.78,18.9-24.37,42.46-7.79,65.47-8.95,3.41-15.22.59-20.14-7.56-9.76-16.13-10.58-32.26-1.48-48.83,2.3-2.42,5-4.57,6.81-7.33,3.06-4.76,4.76-9.88-.54-14.51-4.83-4.22-9.55-2.69-13.59,1-2.88,2.6-6.23,3.92-9.61,5.39-18.21,7.91-28.39,25.48-26.3,45.42-11.65-2.87-12.67-5.06-12.66-29.37-10.64,13.63-23.69,21.66-36.43,30.22-5.52,3.7-10.08,10.25-8.79,17.37C349.69,555.44,348.18,565.09,339,572.86Z"/><path class="cls-2" d="M245.08,297.81c4.71-.61,8.36-4.47,13.47-4.07,4.89.38,8.68,2.29,10.06,7,1.51,5.15-1.29,8.63-5.94,10.3-16.32,5.85-18.12,71.89-20.88,87.33-3.77,21.15-11,39.35-29.19,52.55-12.7,9.24-12.72,23.48-9.63,37.15,3,13.15,5.06,26.54,10.55,39.16,4.18,9.6,6.7,20,5.87,30.73-.29,3.68,0,6.53,4.68,7.39,4.48.82,5.68-1.3,7.26-4.86,11.57-26,38-40.27,66.37-35.73,5.74.92,9.27,1.1,11.07-6,3-11.9,12.82-18.14,23.3-22.46,15.27-6.3,28.82-13.42,37.49-29.07,6.06-10.93,17.91-17.31,29.64-22.26,4.07-1.72,8.59-2.64,12.85-.57,3.41,1.66,6.37,4,6.23,8.48-.15,4.65-2.45,8.23-6.93,8.82-12.75,1.65-21,9.92-27,19.74-9.49,15.53-22.88,25.37-39.17,32.47-19.21,8.37-22.56,17.41-14.95,37,2.32,6,3.52,11.83-3.93,15.39-4.93-2.14-10.14-2-15.35-1.86-1.47-5.5-3.15-11-4.31-16.52-.4-1.94-.83-3.32-2.82-3.2-10,.59-20.15-2-29.91,1.81-12.08,4.67-22.83,10.6-23.38,25.76-8.65,5.72,1.79,20.73-6.86,26.45-4.91-2-29.22-10.44-34.3-10.92-7.23-2.13-13.77-5-14.36-13.94,4.58-23.26-5.25-43.85-12.1-65-1-3.08-6.48-3-5.58-7.58,4.68,1.71,6.9,1.3,5.63-4.78-2.15-10.27-4-20.76-2-31.25s5.55-20.83,14.54-27.18c17.09-12.07,23.61-29.7,27.91-48.79C227.16,372.72,231.21,307.41,245.08,297.81Z"/><path class="cls-2" d="M759.69,535.16c.33-2,.31-4.14,1-6,9-23.76,0-32.77-15.89-43.64-10.21-7-15.68-16.5-20.47-26.93-6-13-12.32-24.62-30.2-19.88-4.32,1.15-8.93-1.12-10.16-6.39-1.28-5.48,2.88-8.1,6.65-10.24,15-8.55,37.91-1,45.91,18,7.31,17.38,19,29.77,33.17,40.77,11.3,8.74,14.46,20.93,14.26,34.31-.07,4.93.82,7.36,6.43,7.64,28.69,1.42,35,17.13,43.54,44.52,1.69,5.38,3.93,4.68,6.81,1.21,15.82-19,35.83-37.15,21.68-62.29-8.65-15.37-9.32-31.28-8.18-48.17,1.78-26.57-9.48-46.83-37.09-51.93-5.44-1-10.31-3-9.77-9.48.59-7.09,6.29-7.91,12-8.1,6.6-.2,12.64,2.26,18.89,3.77,31,15.69,39.86,42.39,36.43,74.65-1.09,10.25,0,19.67,5.21,28.31,13.39,22.17,15.44,44.9,4.4,68.55l.15-.16c-1.71-.91-2,.71-2.74,1.53-6.42,10.14-28.6,17.19-38.84,22.64-3.64,1.94-9.31,1.6-10.28-1.13-3.63-10.11-1.21-13.22-8-19.14-4.74-17-19.55-26.32-41.51-24C773.18,544.63,766.32,541.24,759.69,535.16Z"/><path class="cls-2" d="M789.34,286.1c-7.78,1.42-11.77-3.16-15.23-9.16-8.5-14.73-18.25-28.5-30.68-40.31-12.9-12.25-27.77-20.66-45.29-23.7-24.26-4.21-47.35-11.37-68.77-23.81-25.72-14.93-47.46-3.49-63.46,15.65-4.78,5.73-8.53,11.18-16.3,5.45-5.52-4.08-5.7-15.52-1.19-21.27,1.68-2.14,5.21-2.13,5.68-5.37,5.42-6.72,14.84-7.82,20.35-14.43,10.84-2.6,20.65-9,32.26-8.79,19.33,2.08,35.37,12.71,52.58,20.27a125.31,125.31,0,0,0,31.07,9.22c49.07,7.7,79.59,38.86,102.06,80.32C795.8,276.4,792.31,281.17,789.34,286.1Z"/><path class="cls-2" d="M521.9,183.66a44.57,44.57,0,0,1,8.7,9.74c4.12,6.5,1.33,10.94-3.7,14.41s-9.66,1.57-13.42-2.81c-17.54-20.43-30.09-23.66-55.29-14.5a246.46,246.46,0,0,1-87.58,15.05c-32.93-.37-44.41,16-56.91,43-5.65,12.23-11.8,14.12-21.58,4.22-2.43-6.89-1.18-13.61,2.45-19.45,10.15-16.35,20.28-32.63,38.52-41.87A72.54,72.54,0,0,1,369,183.39c32,1.28,62.14-6.34,92.15-15.67,13.4-4.06,26.6-1.11,39.82,1.1,7,3.28,11.91,10.11,19.85,11.83l0-.18C519.48,182.13,521,182.76,521.9,183.66Z"/><path class="cls-2" d="M835.1,314.49c-6.4,8.49-12.85,10.63-22,2.66-6.21-5.42-15-6.3-23.28-5.33-6.58.76-12.64.93-14-7.43-1.3-8,4.24-10.61,10.6-12.25,1.61-.41,3.25-.74,4.87-1.11,8.77,1.83,17.73,2.57,26.24,5.85S832.49,305.38,835.1,314.49Z"/><path class="cls-2" d="M238.7,259.08a47,47,0,0,1,22.37-.79c5.25,2.07,10.53,4,15.72,6.24,2.93,1.25,5.63,2.36,7.82-1-2.94,4.47,1.65,7.38,2.26,11.1.65,3.93,1.44,8-2.37,11s-8.47,3.21-12.18.39c-9.09-6.91-19.14-9-30.26-7.94-3.45.34-6.37-1.77-9.33-3.33C230.22,267.8,234.61,263.5,238.7,259.08Z"/><path class="cls-1" d="M881.78,565.21c.74-.82,1-2.44,2.74-1.53C884.11,565.08,883.09,565.4,881.78,565.21Z"/><path class="cls-2" d="M541.09,436.29c-1,5-4.68,6.94-8.93,8.77-9.36,4-15.42,10.62-16.17,21.4-1,13.58-7.11,23.91-18,32.59-18.62,14.83-18.88,18-10.78,40.64,3.54,9.9-2.54,14.43-16.87,12.56-16.58-23-14-46.57,7.79-65.47,8.41-7.29,14.57-14.84,16.47-26.6,2.31-14.33,11.16-25.21,24.6-31.6C529.83,423.52,536.9,426.12,541.09,436.29Z"/><path class="cls-2" d="M626.35,540.15c-5,1-10.08,5.54-15,.11-4.41-4.85-2.64-9.93-.33-15.11,1.37-3.07,2.09-6.43,3.19-9.63,5.73-16.78,1.31-28.42-15.12-35.48-10.69-4.59-18-10.69-21.09-22.45-2.22-8.47-7.24-15.14-18.29-13.61-5.49.76-9.67-2.55-11-8.42,1.56-7.07,5.78-11.44,13.13-11.91,11.87-.76,22.3,2.26,28.71,13.2,2.55,4.34,4.16,9.25,6.06,13.95a18.52,18.52,0,0,0,9.43,10c32,16.16,39.4,38.32,24,71C628.7,534.56,627.56,537.38,626.35,540.15Z"/><path class="cls-2" d="M448.71,495.86C436.18,498.08,429,506.25,426.53,518c-3,14.23-9.09,16.88-21,7.81-2.1-19.94,8.08-37.51,26.29-45.42,3.38-1.47,6.73-2.79,9.61-5.39,4-3.65,8.76-5.18,13.59-1,5.3,4.63,3.6,9.75.54,14.51C453.74,491.29,451,493.44,448.71,495.86Z"/><path class="cls-2" d="M704.89,523.26c-12.62.6-14.08-.8-15.29-12.61-.88-8.56-4.31-15.59-13.59-18A38.25,38.25,0,0,1,654.74,478c0-3.82-2-8,2.76-10.84,4.53-2.71,8.8-1.76,12.33,1,7.66,5.89,17.63,6.61,25.38,12.46C709,491,713.88,511.05,704.89,523.26Z"/><path class="cls-1" d="M521.9,183.66c-.86-.9-2.42-1.53-1.16-3.19C522.18,181.15,522.18,182.35,521.9,183.66Z"/><path class="cls-1" d="M774.49,171.19c2,.16,3.44.83,3.4,3.14Z"/><path class="cls-1" d="M766.05,161.45a1.7,1.7,0,0,1,1.43,2.3Z"/><path class="cls-1" d="M179.41,389.83c3.55,1,3.5,3.69,3,6.55A6,6,0,0,1,179.41,389.83Z"/><path class="cls-1" d="M182.46,396.46c2.19,1,3.33,2.46,2.36,5A3.89,3.89,0,0,1,182.46,396.46Z"/><path class="cls-1" d="M173.41,381.65l1.62,2.41Z"/><path class="cls-1" d="M176.44,386.47l1.7,2.51C177.57,388.14,177,387.3,176.44,386.47Z"/></svg>