<svg id="Layer_1" data-name="Layer 1" xmlns="http://www.w3.org/2000/svg" viewBox="0 0 1133.86 1133.86"><defs><style>.cls-1{fill:#09090a;}.cls-2{fill:#e1e0e0;}.cls-3{fill:#dbbdb9;}</style></defs><path class="cls-1" d="M215.37,536.69q-.44-2.79-.86-5.56A49.69,49.69,0,0,0,212,507.32l-.84-9,.18-35.72.57-11.93L217,420.79l1.17-5.83L233,373.34v0q5.76-11.93,11.51-23.85a1.39,1.39,0,0,0,.86-2c3.65-3.65,6.6-7.67,7-13.06,23.87-36.63,53.11-68.92,84.55-98.84,58.29-55.48,129.32-82,209.14-86.1a96,96,0,0,1,35.17,4.82c4.05,1.34,9.49,4.17,8.29-4.42-1.07-7.6-.17-15.29,8.66-15.78,9.1-.51,9.37,8.54,10.31,14.77,5,1.87,5.39-2.17,7.37-4,2.76-2.54,4.8-7.39,9.57-5.39s8,6.52,6.7,11.88c-2.39,9.62,2.92,10.2,10.22,10.87,83.1,7.57,147.76,48.83,196.4,114.08C914,377.26,932,458.45,898.54,575.92c-5.08,17.82-13.4,34.9-20.87,50.07-8.13,1.19-14.28,13.81-9.18,20,8.44,10.29-4.46,6.27,4.87,15.7,27,27.28,46.82,58.57,56.5,95.94,5,19.28-5.72,32.16-24.9,35.92-8.34,1.63-18.19,4.15-25.85,11.65a45.28,45.28,0,0,1-33.6,13.23c-3.91-.16-5.71,0-8.2,3.52-7.3,10.4-12.67,6.07-17.08-3.1-6-12.44-12.27-24.74-18.42-37.1,2-8.09-2.25-12.94-9.49-19,1.4,13-1.44,23.82,2.84,34.17-3.08,5.09-2.43,14.13-12.37,12-9.39-2-8.14-9.67-8.53-16.41-.26-4.39-.46-8.8-.68-13.19q-.08-14.45-.13-28.87c3.35-20.67,2-39.81-16.61-53.83-2.06-1.55-23.89-42.88-25.18-45.46,5.43-8.88,32-12.3,34.62-22.1,18-.88,45.4,8.77,61-.32,29.08-2.23,30.8-25.41,35.91-47.46,0-20.48-2.68-54.91-22.39-59.65-1.32-.12-9.49,1.11-10.81,1-.21-5.3-.25-4.74-2.27-10.68-2.33-6.88-31.57-3.62-38.19-2.11-2.88.65-7.82,1.82-7.54-.88,1.41-13.65-16.61,10.17-17.62-2.06-5.85-6.89-14-11-20.44-17.56-11.94-12.19-29.7-6.83-53-5.6a4.84,4.84,0,0,1-3.71-2.18c-6-11.47-12.87-7.3-19.94-1.36-12.46-2.69-24.47-8.21-37.71-5.95-1.33-2.42-1.64-6-5.87-5.12l-3.62-.68v0c-.83-3.76-3.39-3.58-6.24-2.72-6.83-1.62-12.49.25-16.89,5.74-7.44,9.3-15.47,8-23.75,1.3-2.28-1.84-4.26-5.39-6.6-5.6a123.57,123.57,0,0,0-49.81,6.19c-15.95,5.63-14.35-1.6-16.16-9.81-1.37-6.19-1.23-12.71-1.76-19.09.34-.32,1-.77.95-.93a14.41,14.41,0,0,0-1.22-2.2q-.37-5.85-.74-11.7c1.69-1.94,1.32-3.73-.41-5.41l-.36-6.49c1.29-11.87,0-23.55-2.73-35.11-.18-2.12-.37-4.23-.55-6.35.15-.34.47-.71.42-1a12.44,12.44,0,0,0-.68-1.91c-.35-1.93-.69-3.85-1-5.78,1.79-2.47,1.14-4.36-1.4-5.78l-1.94-6c1.74-2,.65-4-1.05-4.27-2.29-.3-2.36,1.91-1.87,3.77-2,3.86-5.09,7.53-5.76,11.6-5,30.48-13.1,60.43-15.94,91.27-.54,6-.87,11.75-5.55,16.17-9.78-1.31-18.36-4.72-29.71-1.7C418.66,475.5,407,476,396.61,481c-2.47-.15-5.11.22-7.37-.52-11.78-3.88-21.13,7.47-32.77,4.84-18.65-4.2-37.36,11.86-36.56,31.07-3,5.78-6.88,7.21-12.06,2.51-4.76-4.05-11.11-7.55-14.58-.75-3.08,6,5.27,6.54,8.88,9.1,1.54,1.09,3.63,1.38,5.47,2l6.2,5.79c-10.52,9.48-39.61,8.73-52.54-1.34-8.19-4.65-8-13.16-9.12-20.77-5.16-34.86-6.46-69.79-1.77-104.87.86-6.44,3.66-13.48-1.87-21.1-8.58,19.6-12.47,39.23-15.8,59.2-4.54,27.18-.4,54.13.22,81.18.12,5.21,2,11.27-3.83,14.76C222.44,546.17,220,538.36,215.37,536.69ZM739.93,337.18c.19-10.29-8.06-17.31-10.25-26.85-.91-3.93-4.15-9.94-10.56-7.25-6.19,2.6-9.27,8.25-6.23,14.41a198.33,198.33,0,0,1,10.2,24.27c1.46,4.33,4.63,7.89,10,6.68C739,347.11,740.25,342.45,739.93,337.18ZM765.26,326c-4.6-7.45-4-20.22-16.85-21.06-5.15-.33-8.25,4.94-7.67,10.68,1.16,11.58,8.85,16.62,19.33,18.07C764.93,334.32,765.24,330.3,765.26,326ZM378.68,296.79c-.32-5.44-3.09-10.34-8.74-9.47-8.08,1.25-12.72,7.5-13.15,15.72-.29,5.67,3.44,10.21,8.91,9.88C374.9,312.37,376.67,304.34,378.68,296.79Zm25.07,3.71c.1-5.29-3.08-8.46-7.73-8.94-5.38-.55-9.72,2.24-9.61,8.2.09,4.46,2,8.78,7.48,9.16C399.74,309.33,402.82,306.08,403.75,300.5Z"/><path class="cls-1" d="M368.37,661.74c1.2,4.89-4.7,34.13-8.19,38.55a20.39,20.39,0,0,0-7.69,9.35c-13.36,16.13-18.91,35.47-22.82,55.49l0-.06c-4.13,9.67-7.59,19.49-6.75,30.26-1.33,4.17-1.64,9.16-4.19,12.35-5.19,6.48-12.62,8.69-15.62-1.18-2-6.68-5-7.55-10.72-8.82-13-2.88-23-9.33-19.65-25.94-9.93,3.16-21,13.3-24.06-5.62-12.81-1.78-17.21-10.27-19-22-.64-4.09-5.47-1.65-8.89-1.3-10,1-13.71-3.73-10.64-13.52,3.63-11.51,12.31-20.2,17.22-31l-.37-.22s1.36-.21,1.36-.21l.49-1.3c4.36-5.9,6.53-17.51,8.57-26.66-7.26,4.15-5.81,4.47-9.44,10.12-3.15,1.1-7.65,13.48-7.88,16.65-4.47,3.82-8.89,7.7-13.42,11.44-3.43,2.82-7.17,3.3-10.81.47-4.1-3.19-5.21-7.44-2.24-11.71a115.18,115.18,0,0,1,12-14.85c20.68-21.07,13.18-28.31,37-45.64,2.45-.64,17.11,19.11,34.36,24.3,7.59,2.28,30.69,5.59,36.92,3.41,7.14-2.5,22.06-13.78,29.51-12.57C368.76,655.67,368.37,661.74,368.37,661.74Z"/><path class="cls-2" d="M697.26,814.31,695,811.69Z"/><path class="cls-2" d="M694.3,811.43c-2.22.38-3.06-.45-2.36-2.66Z"/><path class="cls-2" d="M739.93,337.18c.32,5.27-.93,9.93-6.85,11.26-5.36,1.21-8.53-2.35-10-6.68a198.33,198.33,0,0,0-10.2-24.27c-3-6.16,0-11.81,6.23-14.41,6.41-2.69,9.65,3.32,10.56,7.25C731.87,319.87,740.12,326.89,739.93,337.18Z"/><path class="cls-2" d="M765.26,326c0,4.35-.33,8.37-5.19,7.69-10.48-1.45-18.17-6.49-19.33-18.07-.58-5.74,2.52-11,7.67-10.68C761.31,305.73,760.66,318.5,765.26,326Z"/><path class="cls-2" d="M378.68,296.79c-2,7.55-3.78,15.58-13,16.13-5.47.33-9.2-4.21-8.91-9.88.43-8.22,5.07-14.47,13.15-15.72C375.59,286.45,378.36,291.35,378.68,296.79Z"/><path class="cls-2" d="M403.74,300.51c-.92,5.57-4,8.82-9.85,8.41-5.51-.38-7.39-4.7-7.48-9.16-.11-6,4.23-8.75,9.61-8.2C400.67,292,403.85,295.21,403.74,300.51Z"/><path class="cls-1" d="M497.87,429.67c-2.94-1.59-3.39-3.37-.41-5.41C499.19,425.94,499.56,427.73,497.87,429.67Z"/><path class="cls-1" d="M489.18,355.83l-2.92-.5c-.49-1.86-.42-4.07,1.87-3.77C489.83,351.79,490.92,353.86,489.18,355.83Z"/><path class="cls-1" d="M492.52,367.6c-3.39-1.22-5.08-2.85-1.4-5.78C493.66,363.24,494.31,365.13,492.52,367.6Z"/><path class="cls-1" d="M498.88,444.5a13.2,13.2,0,0,1-1.08-2.16c-.07-.22.52-.64.81-1a14.41,14.41,0,0,1,1.22,2.2C499.89,443.73,499.22,444.18,498.88,444.5Z"/><path class="cls-1" d="M493.82,376.31c-2-.81-2.39-1.76-.26-2.94a12.94,12.94,0,0,1,.68,1.92C494.29,375.6,494,376,493.82,376.31Z"/><path class="cls-3" d="M377.54,528.06a12.64,12.64,0,0,1-1.23-1.91c-.09-.2.42-.66.66-1a13.92,13.92,0,0,1,.83,1.86C377.88,527.31,377.64,527.71,377.54,528.06Z"/></svg>