<svg id="Layer_1" data-name="Layer 1" xmlns="http://www.w3.org/2000/svg" viewBox="0 0 1133.86 1133.86"><defs><style>.cls-1{fill:#f6f0eb;}.cls-2{fill:#888186;}.cls-3{fill:#49403c;}.cls-4{fill:#7b7470;}</style></defs><path class="cls-1" d="M1025.26,700.68a4.84,4.84,0,0,1-.48-1.1c0-.16.31-.38.48-.57Z"/><path class="cls-2" d="M595.83,194.16c1.82.69,2.78-1.32,3.94.92-5.49,2-11.45-4.5-17.24-4.05-1.93.14-4.2,0-4.54,2.58-.29,2.12,1.77,2.4,3.18,3.24,5.85,3.52,12.57,5.08,19,5.64,28.46,2.47,55.59,9.78,82.49,19.13,38.08,13.23,69.48,35.45,95,66.37-.67,11.83,5.16,20.13,13.86,19.7l4.22,5.83c-2.61,12.74-.56,16.33,8.52,14.94v.07c-.05,7-.12,14-.14,20.94,0,2.79-.16,5.61,2.95,7.23,6.54,3.42,10.52,9.3,13.42,15.69,1.72,3.78,3.68,5.31,7.59,4.47a36.79,36.79,0,0,1,5.36,11.95c-7.41,9.91-1.88,73.29,10.78,72.78,7.46,15.42,10.94,4,18.4,19.47-2.28,4.14-1.27,8.91-2.57,13.23-4.48.91-8.86,2.08-9.55,7.61-.72,5.73-.94,11.54-1.84,17.24-1.58,10-1.85,20.27-5.21,30-.79-.23-1.95-.19-2.33-.72-11.24-15.63-28.66-17.8-45.6-21.06-8.09-1.56-14.92,2.06-21.82,5.34-2.74-4.53-1.48-57.46-8.68-57.16s-9.82,6.48-12.16,12.22c-3.05,7.45-6.46,14.77-8.16,22.72-.45,2.1-.65,4.81-3.18,5.4s-3.85-1.91-5.17-3.53c-9.82-12.05-19.69-24.06-29.18-36.37-3.08-4-5.85-7.83-11.43-6.22s-6.28,6.45-6.48,11.37c-8.73-1.71-15.25,3.37-22.15,7.26-11.9-14.25-25-27.69-31.39-45.73-1.54-4.33-4.61-7.41-9.55-5.73-5.12,1.73-7,6.59-4.75,10.83,6.5,12.13,4.11,25.94,8.26,38.41-3-.06-6.23.45-9.1-.28-9.07-2.33-17.41-2.1-24.87,4.46-3.48,3-8.24,3.18-12.49,4.13-6.2,1.37-13.1-1.49-18.39,5s.08,12.78-.65,19.08c-3.06.27-5.15-1.59-7.49-3.16-17.79-11.86-32.3-27.23-46.44-43-3.22-3.6-6.89-6.26-11.61-3.3-4.56,2.86-5.53,7.17-3.69,12.41,2.21,6.28,3.75,12.79,5.83,19.12,4.2,12.78,6.84,26,12.8,38.38-3.76,1-4.81-1.38-6.21-2.9-22.58-24.47-38.73-52.94-50.71-83.74-12.82-33-16.49-40.29-18.18-75.81a62.83,62.83,0,0,0-15.59-38.86c-9-10.37-19.95-9.34-25.91,2.91-3.46,7.11-6.2,14.58-9.42,22.28-3.1-3.89-5.6-7.61-8.68-10.75-7.81-8-15.54-6.27-18.81,4.38-3.45,11.2-5.92,22.87-4.6,34.53,1.66,14.77,1,29.31.23,44.09-1.82,37.22-6.79,74.16-9,111.32l-.2.2c-2.78-3.48-4.38-9-10.28-7.76s-6.35,7-7.8,11.67a16.67,16.67,0,0,0-.25,2.47c-1.76,12.55-3.21,25.15-5.46,37.61-.92,5.09.21,8.57,4,11.56-1.74,3.94-3.42,5.71-6.66.87-3.53-5.26-2.86-10.48-1.22-16,3-10,1.74-19.05-5.36-27.22-3.63-4.17-7.86-8.64-9.32-13.69-2.27-7.86-7.38-8.93-13.87-9-9.68,0-20.39,6.44-23.34,15.77-3,9.58-8.68,18.27-8.95,28.92a17.79,17.79,0,0,1-6.93,13.75c-1.91-.88-3.26-2.09-2.58-4.47,4.2-7.26,7.1-14.94,4.85-23.38a267,267,0,0,1-9.05-66.7c-.11-13.3-2.18-14.88-14.76-10.66-1-9.37,1.63-18.19,3.24-27.11,7-38.88,19-76.06,39.52-110.06,7.32-12.13,15.88-23.51,23.48-35.48,5.15-8.09,3-15.07-4.78-17.68l.18-4.17c12.31-10.49,26.7-19.07,32.83-35.27,1.66-4.37,5-5.54,9.16-5.6-1.6,2.57-3.55,5-4.69,7.76-1.07,2.59-4.81,5.2-2.19,8.06,2.11,2.32,5.28-.09,7.77-1,17.33-6.26,31.52-18.48,49.18-24.72,14.14-5,26.61-14.66,40-21.93C445.8,211,470,206.09,494.85,202.77c3.58-.48,6.93-.76,9.55-3.64-6.5-5.38-5.21,2-7.53-3.58,1.13-.37,2.59-1.49,3.71-1.86,1.89,2.71,1.63-.9,5,.62,10.51,4.73,10.48,4.84,4.32,14.77-.88,1.41-2.34,2.5-3,4-2,4.39-1.89,8.49,1.93,12.16,15.68,15.11,34.93,23.56,55.45,29.37,5.22,1.47,10.89,1.73,15.07-4s2.66-10.51-.55-15.3c-4-6-3.89-9.9,3.75-12.57,4.28-1.51,7.66-4.8,6.57-10.27s-2.42-10.6-9.71-11.7c-5.2-.78-11.08-.09-15.68-4,8.55-10.09,8.79-2.36,20.74-2.69C587.8,194.06,592.51,194.43,595.83,194.16ZM326,341.09c5.14.15,9.07-2.27,12.39-5.9,5.62-6.14,10.51-13.2,16.95-18.28,11.26-8.88,16.69-21,21.78-33.59,1.76-4.34,3.95-9.3,0-13.3s-9.31-4.85-14.79-3.25c-4.49,1.31-8.86,3.9-13.36,4.11-16.87.75-28.9,10-39.76,21.46-8.66,9.14-8.65,17,.18,25.85,3,3,3,6.2,3.32,9.84C313.32,336.15,318.59,341.15,326,341.09ZM623.79,401c-.84,0-1.68,0-2.51,0-5.81-.45-10.74,1.62-10.6,7.76.12,5.58,5.11,6.78,10.37,7.28,14.81,1.4,28,6.75,39,17.26,3.55,3.41,7.73,5.91,12.36,1.13,4.34-4.48,1.67-8.33-1.31-11.74C658.58,408.39,641.79,403.31,623.79,401Z"/><path class="cls-3" d="M843.42,549.12c3.36-9.71,3.63-20,5.21-30,.9-5.7,1.12-11.51,1.84-17.24.69-5.53,5.07-6.7,9.56-7.6,7,2.32,11.88,8,18.32,11.21l1.09,1.82c.18-.16.53-.42.5-.48-.3-.63-.67-1.23-1-1.83-5.38-8-9.23-17.11-16.33-24-7.46-15.42-10.94-4-18.4-19.46-2.69-9.7-5.31-64.39-10.78-72.78a36.79,36.79,0,0,0-5.36-11.95c-6.49-16.82-13.59-33.34-23.82-48.33v-.07c-1.87-5.53-3.6-11.14-8.52-14.94-1.41-1.94-2.81-3.89-4.22-5.82-2.09-8.34-7.93-14.06-13.86-19.71-25.52-30.92-56.92-53.14-95-66.37-26.9-9.35-54-16.66-82.49-19.13-6.41-.56-13.13-2.12-19-5.64-1.41-.84-3.47-1.12-3.18-3.24.34-2.57,2.61-2.44,4.54-2.58,5.79-.45,11.54-1.08,17-3.12,24.41.72,47.88,6.58,71.22,13.11,14.37,6,29.25,10.71,43.43,17.25,16,7.39,30.21,17.43,43.8,28.44,30,24.33,52.23,54.6,68.28,89.61,14.86,32.4,27.81,110.66,43.17,142.82,11.45,24,22.11,19.22,39.13,39.67a28.14,28.14,0,0,1,3.95,5.34c1.79,3.63,2.47,7.57-.44,11-3.07,3.55-6.79,4.08-11.32,2.24-11.22-4.58-20.91-11.6-30.7-18.5-2.19-1.54-5.42-5.11-6.19,1-3.32,26.51-7.83,52.76-15.71,78.35a7.86,7.86,0,0,0,.06,2.46l-1.44,2.06c-1.88-1.08-3.79-2.13-3.88-4.69,1.28-8.38,2.81-16.73,3.74-25.16.35-3.22,1.93-7.3-2.47-9.52-.13-.87-.27-1.75-.4-2.62,2-1.94,1.74-3.75-.3-5.47Z"/><path class="cls-2" d="M595.83,194.16c-3.32.27-8-.1-11.35,0-12,.33-12.19-7.4-20.74,2.69,4.6,3.86,10.48,3.17,15.68,4,7.29,1.1,8.59,6.09,9.71,11.7s-2.29,8.76-6.57,10.27c-7.64,2.67-7.77,6.58-3.75,12.57,3.21,4.79,4.63,9.75.55,15.3s-9.85,5.42-15.07,4c-20.52-5.81-39.77-14.26-55.45-29.37-3.82-3.67-3.91-7.77-1.93-12.16.67-1.48,2.13-2.57,3-4,6.16-9.93,6.19-10-4.32-14.77-3.39-1.52-4.52,3.94-6.41,1.24,6.51-7.24,15.24,1.69,23.87,0,4.72,2.78,9.37,1.81,11.12-2.32,2.08-4.88,18.69-.83,22.72-3.71,16.29-1.46-1.24,3.33,15.06,3,3.77-.07,6.38-4.84,7.19-1.15s17-1,13,2.08C589.78,195.26,596.1,191.19,595.83,194.16Z"/><path class="cls-3" d="M495.58,188.17c2.32,5.58,2.32,5.58,8.82,11-2.62,2.88-6,3.16-9.55,3.64-24.85,3.32-49.05,8.25-71.6,20.47-13.42,7.27-25.89,16.94-40,21.93-17.66,6.24-31.85,18.46-49.18,24.72-2.49.9-5.66,3.31-7.77,1-2.62-2.86,1.12-5.47,2.19-8.06,1.14-2.76,3.09-5.19,4.69-7.76,1.41-1.9,4.41-2.39,4.67-5.3l8.26-4.35c4.64-.24,8.11-2.56,10.86-6.15,1.75-1.37,3.29-3.46,5.27-4,25.2-6.95,45.45-24.18,69.63-33.23C452.42,194.33,473.44,188.67,495.58,188.17Z"/><path class="cls-2" d="M356.94,239.26c-2.75,3.59-6.22,5.91-10.86,6.15C347.58,239.61,352.42,239.72,356.94,239.26Z"/><path class="cls-3" d="M369.82,457.77c-1.47,15.15-3,30.31-4.38,45.47-1.06,11.58-1.94,23.18-2.9,34.77l-1.05,8.51c-1.86.16-2.84,1.35-3.74,2.88-5.4,9.24-10.88,18.43-16.34,27.64-3.77-1.78-3.07,1.55-3.72,3.29-2.9,7.66-5.33,15.55-11,21.83-3.84-3-5-6.47-4-11.56,2.25-12.46,3.7-25.06,5.46-37.61a16.67,16.67,0,0,1,.25-2.47c1.45-4.67,1.83-10.41,7.8-11.67s7.5,4.28,10.29,7.76l.79.65-.6-.85c2.23-37.16,7.2-74.1,9-111.32.73-14.78,1.43-29.32-.23-44.09-1.32-11.66,1.15-23.33,4.6-34.53,3.27-10.65,11-12.36,18.81-4.38,3.08,3.14,5.58,6.86,8.68,10.75,3.22-7.7,6-15.17,9.42-22.28,6-12.25,16.89-13.28,25.91-2.91a62.83,62.83,0,0,1,15.59,38.86c1.69,35.52,5.36,42.85,18.18,75.81,12,30.8,28.13,59.27,50.71,83.74,1.4,1.52,2.45,3.87,6.21,2.9-6-12.34-8.6-25.6-12.8-38.38-2.08-6.33-3.62-12.84-5.83-19.12-1.84-5.24-.87-9.55,3.69-12.41,4.72-3,8.39-.3,11.61,3.3,14.14,15.79,28.65,31.16,46.44,43,2.34,1.57,4.43,3.43,7.48,3.16,6.93,1,7.86,8.47,12.79,11.74,2.85,1.88,2.66,5.51,1.79,8.44-1.28,4.28-4.84.17-7.05,1.49-20.12-7.7-36.48-21-53.78-36.88,4.66,17,10.65,31.24,16.39,45.52,1.35,3.36,3,6.61,4.1,10,1,3.25,1.32,6.71-1.82,9.21-2.92,2.33-6,2.16-9.4.67C512,562.08,500,551.2,489.61,538.71c-34.64-41.65-50.68-63.26-60.86-116.06-2-10.58-3.68-21.24-5.62-32.59-6.78,4.95-13.68,8.27-18.8-2.72-1.36,2.07-2.21,3.13-2.81,4.32-5.59,11.26-8.5,12.17-19,5.88-1.3-.78-3.66-2.88-4-1.06-1,5.5-8,8.21-6.48,14.65C363,426.29,362.71,441.86,369.82,457.77Z"/><path class="cls-3" d="M248.48,591.17c-7.83-11.44-10.88-24.79-15-38.21-2.53,6.56-3.18,13-4.11,19.43-.82,5.73-1.65,11.76-9,12s-8.63-5.71-10-11.34c-4.66-19.35-2.52-38.87-.57-58.17,3.51-34.54,9.16-68.78,19.35-102.07C242,371,263.15,333.68,291,300.1c7.76,2.61,9.93,9.59,4.78,17.68-7.6,12-16.16,23.35-23.48,35.48-20.54,34-32.5,71.18-39.52,110.06-1.61,8.92-4.26,17.74-3.24,27.11,12.58-4.22,14.65-2.64,14.76,10.66a267,267,0,0,0,9.05,66.7C255.58,576.23,252.68,583.91,248.48,591.17ZM228.57,495a2.11,2.11,0,0,0,.17-.63c0-.07-.27-.14-.42-.21a2.43,2.43,0,0,0-.16.63C228.16,494.85,228.43,494.92,228.57,495Z"/><path class="cls-2" d="M326,341.09c-7.41.06-12.68-4.94-13.31-13.06-.28-3.64-.35-6.87-3.32-9.84-8.83-8.83-8.84-16.71-.18-25.85,10.86-11.46,22.89-20.71,39.76-21.46,4.5-.21,8.87-2.8,13.36-4.11,5.48-1.6,10.83-.74,14.79,3.25s1.78,9,0,13.3C372,295.88,366.6,308,355.34,316.91,348.9,322,344,329.05,338.39,335.19,335.07,338.82,331.14,341.24,326,341.09Z"/><path class="cls-3" d="M775.35,557.2c-6.82,6.92-8.64-39.84-13.47-50.17-3.54,6.66-4.68,13.79-6.84,20.56-3.66,11.47-9.66,13.42-18.92,5.84a91.65,91.65,0,0,1-9.54-9.26c-2.75-3-5.34-6.12-10.34-8.92,1.81,11,8.41,18.68,11.57,27.64-7.09,1.8-7.55-5.15-10.62-8.37A70.93,70.93,0,0,1,699.86,502c-2-8.2-4.7-15.15-10.63-20.94.2-4.92.95-9.76,6.48-11.37s8.35,2.23,11.43,6.22c9.49,12.31,19.36,24.32,29.18,36.37,1.32,1.62,2.59,4.14,5.17,3.53s2.73-3.3,3.18-5.4c1.7-7.95,5.11-15.27,8.16-22.72,2.34-5.74,4.91-11.93,12.16-12.22s5.94,52.63,8.67,57.16l-1.5,17.15c-1.09,2.47-.47,3.93,2.4,4.07Z"/><path class="cls-2" d="M689.23,481.1c5.93,5.79,8.64,12.74,10.63,20.94a70.93,70.93,0,0,0,17.33,32.48c3.07,3.22,3.53,10.17,10.62,8.37,4.27,3.5,3.91,8.14,3.21,12.87-3.4,1.25-5.48-.09-7.79-2.83-14-16.59-27.1-33.63-30.63-56-.3-1.89-1.29-3.67-1.91-5.52-1.78-5.28-5.81-6.79-10.62-5.38-5,1.47-6.66,5.47-5.75,10.54a46.09,46.09,0,0,1,1.19,7.38c0,3.14,1.75,7.13-2.31,8.95-3.6,1.61-8.11,2.55-11.11-.37-9.63-9.37-22.07-13.93-33.66-19.63-12-5.93-22.08-8.58-33.4,1.11a13.81,13.81,0,0,1-10.67,3.51,41.25,41.25,0,0,0-10,.23c-4.11.72-6.93,3.78-8.43,7.42-1.08,2.62-.26,6.54,2.09,7.5,7.39,3,9.68,10.5,14.79,15.28,7,6.5,4.76,11.31-.67,16.63-4.12,0-8.19-.07-10.47-4.41,2.21-1.32,5.77,2.79,7.05-1.49.87-2.93,1.06-6.56-1.79-8.44-4.93-3.27-5.86-10.79-12.79-11.74.74-6.3-4.72-12.47.66-19.08s12.19-3.63,18.39-5c4.25-.95,9-1.09,12.49-4.13,7.46-6.56,15.8-6.79,24.87-4.46,2.87.73,6.06.22,9.1.28,2.21,1.58,3.54,4.17,6.36,5.12,8.85,3,17.68,6,24.14,13.37a4.7,4.7,0,0,0,6,1.21c2.11-1.12,1.75-3.29,1.69-5.14-.15-4.12-.5-8.23-.77-12.34C674,484.47,680.5,479.39,689.23,481.1Z"/><path class="cls-3" d="M667.08,488.36c.27,4.11.62,8.22.77,12.34.06,1.85.42,4-1.69,5.14a4.7,4.7,0,0,1-6-1.21c-6.46-7.39-15.29-10.4-24.14-13.37-2.82-.95-4.15-3.54-6.36-5.12-4.15-12.47-1.76-26.28-8.26-38.41-2.27-4.24-.37-9.1,4.75-10.83,4.94-1.68,8,1.4,9.55,5.73C642.12,460.67,655.18,474.11,667.08,488.36Z"/><path class="cls-3" d="M623.79,401c18,2.33,34.79,7.41,47.26,21.68,3,3.41,5.65,7.26,1.31,11.74-4.63,4.78-8.81,2.28-12.36-1.13-10.94-10.51-24.14-15.86-39-17.26-5.26-.5-10.25-1.7-10.37-7.28-.14-6.14,4.79-8.21,10.6-7.76C622.11,401,623,401,623.79,401Z"/><path class="cls-2" d="M772.16,549.82l1.5-17.15c6.91-3.28,13.74-6.9,21.83-5.34,16.94,3.26,34.36,5.43,45.6,21.06.38.53,1.54.49,2.33.72,0,2,.05,4.09.08,6.14q-3,2.91.3,5.46c.13.87.27,1.75.4,2.62-1.33,8.95-2.76,17.89-3.92,26.87-.37,2.86-1.2,6.23,2.65,7.81.09,2.56,2,3.61,3.88,4.69-.18,3.82-2.46,2.89-4.64,2-3-1.23-4.91-3.11-5.16-6.77-.52-7.88,1-15.52,2.45-23.12,3.46-18.43-6.14-32.31-24.81-34.82-6.64-.89-12.34-4.91-19.2-5-13.45-.23-17.4,2.66-20.14,15.34Z"/><path class="cls-2" d="M804.23,328.53c10.23,15,17.33,31.51,23.82,48.33-3.91.84-5.87-.69-7.59-4.47-2.9-6.39-6.88-12.27-13.42-15.69-3.11-1.62-3-4.44-2.95-7.23C804.11,342.49,804.18,335.51,804.23,328.53Z"/><path class="cls-2" d="M833.41,388.81c4.81,14.71,8.09,63.08,10.78,72.78C831.53,462.1,826,398.72,833.41,388.81Z"/><path class="cls-2" d="M878.34,505.52c-6.43-3.2-11.34-8.9-18.31-11.22,1.29-4.33.28-9.1,2.56-13.24,7.1,6.85,10.95,15.93,16.33,24Z"/><path class="cls-2" d="M777.64,288c5.93,5.65,11.77,11.37,13.86,19.71C782.8,308.12,777,299.82,777.64,288Z"/><path class="cls-2" d="M795.72,313.52c4.92,3.8,6.65,9.41,8.52,14.94C795.16,329.85,793.11,326.26,795.72,313.52Z"/><path class="cls-4" d="M844.2,563.33c4.4,2.22,2.82,6.3,2.47,9.52-.93,8.43-2.46,16.78-3.74,25.16-3.85-1.58-3-5-2.65-7.81"/><path class="cls-4" d="M843.8,560.71q-3.34-2.55-.3-5.46C845.54,557,845.79,558.77,843.8,560.71Z"/><path class="cls-4" d="M878.92,505c.35.6.72,1.2,1,1.83,0,.06-.32.32-.5.48l-1.09-1.82Z"/><path class="cls-2" d="M772.16,549.82l3.15.49-.75,3.58C771.69,553.75,771.07,552.29,772.16,549.82Z"/><path class="cls-3" d="M361.49,546.52c3.77,2.28,2.39,5.21.63,7.74-6.68,9.58-13.84,18.87-14.92,31.8-3.82-2.93-5.6-5.5-5.79-9,5.46-9.21,10.94-18.4,16.34-27.64C358.65,547.87,359.63,546.68,361.49,546.52Z"/><path class="cls-2" d="M346.65,546.41l.6.85-.79-.65Z"/><path class="cls-2" d="M228.57,495c-.14-.07-.41-.14-.41-.21a2.43,2.43,0,0,1,.16-.63c.15.07.42.14.42.21A2.11,2.11,0,0,1,228.57,495Z"/><path class="cls-4" d="M598.28,591.7c.17,1.16.35,2.31.52,3.47C597.23,594.22,597,593.08,598.28,591.7Z"/><path class="cls-3" d="M607,188.36s-95.49-6.25-131.41,1.62,20.86,11.36,20.86,11.36,122.13,2.78,130,.93S607,188.36,607,188.36Z"/></svg>