<svg id="Layer_1" data-name="Layer 1" xmlns="http://www.w3.org/2000/svg" viewBox="0 0 1133.85827 1133.85827"><path d="M204.89818,502.094c11.93725-7.018,10.77681-16.88335,10.86736-29.08324.26666-35.92895,14.68536-79.74508,30.05212-114.15689,3.61231-8.08914,2.193-11.21039-5.15783-14.83256-13.83643-6.81795-24.91549-17.20036-36.57749-26.79367-5.28653-4.34883-10.10988-9.1551-7.71937-16.37572,2.58105-7.796,9.00938-10.86759,17.4084-12.52335,24.76035-4.88117,49.6214-9.39278,73.85848-16.55591,6.0023-1.774,9.02433-4.55225,12.46161-9.33612,33.92943-47.22129,80.39535-73.66131,141.50843-73.82887,12.65865-.0347,20.375-8.5277,30.80706-12.24634,53.67964-19.135,107.6761-24.287,157.60475,6.24644,29.32789,17.93523,60.93994,32.27173,88.96635,51.97448C763.30818,265.74649,838.17731,332.4796,844.5214,384.9528c.82444,6.81931,4.13966,10.43091,9.88275,13.64682a105.44373,105.44373,0,0,0,36.44232,11.94611c6.94956,1.03355,13.76044,2.0376,15.80626,9.536,2.20993,8.1-2.22511,13.54187-8.29822,19.13933-11.5135,10.61191-25.96863,16.93368-38.84825,25.48465-9.78223,6.49459-6.45979,10.39952.56532,14.86416,6.43008,4.08651,13.38875,7.4197,19.8718,11.4373,11.1119,6.88609,11.65236,14.1527,1.45629,22.24733-4.3201,3.42974-22.70813,26.63056-68.34453,23.81176-15.68906-.96905-11.14257-5.17894-13.26631,1.13516-3.93218,11.69118-12.95109,17.54395-22.45086,24.64627-10.37545,7.75716-24.08208,6.06347-33.63613,14.05428q-3.42438.45389-6.843.91523c-6.95621-.587-12.8989-3.4301-18.33018-7.41135l-.18176-.16266c-.504-17.22416,2.89247-33.95795,7.74239-50.398,2.902-9.83662-.71121-12.793-10.55418-10.99911-16.46194-2.71814-79.45367-34.51543-94.43435-41.17923-8.62075-18.53071-29.87424-24.41293-41.79616-40.42625-5.63952,11.15293,2.63069,20.75342-2.435,30.38048-5.32583,10.12154-3.61639,20.7778.97479,30.99926-1.10321,4.69862-2.95863,9.36765-3.16545,14.10147-.57035,13.053-6.45419,15.66679-19.98228,13.62072-27.29916-4.12887-52.48958-11.63553-73.46212-29.37274q-1.263-1.18167-2.5259-2.36342-1.271-1.39345-2.54185-2.78689c-1.05328-5.60705-7.1728-8.5972-7.16483-15.64534.00456-4.07278-4.97929-13.08246-14.0804-9.51935-7.00347,2.74191-14.74615,5.88611-11.96169,15.92045,1.05584,3.80481,2.47977,8.072-.95135,12.12851-12.918-12.30824-25.1719-23.54718-31.98972-39.545C405.6218,459.44489,375.01366,474.78631,368.09,486.076c-7.91172,6.78871-14.77377,14.93592-24.77924,19.105-6.29691,2.62374-9.885,6.967-11.18195,12.89918-4.45726,20.38837-9.45737,12.48788-103.581,37.02852-17.66077,4.60465-35.2264.29138-52.82709-.50725-15.10408-18.94531-14.5855-19.30769,9.12745-31.39126C193.66364,518.718,205.4663,515.258,204.89818,502.094Zm303.8483-27.90885q1.65751,1.35123,3.31513,2.70247c12.427,10.36544,27.1678,16.551,43.991,23.079-2.93964-19.64534,12.18845-38.33147-4.26068-55.436-2.259-10.48232,8.04944-10.55746,13.49183-14.66222a2.71347,2.71347,0,0,0,.5507-2.18446c2.50588-1.69518,2.86988-4.19969,2.87226-6.84085.15993-8.32475.49849-16.65122.4088-24.97355-.04907-4.54943-.42466-9.94785,4.37069-11.59465,5.75817-1.97741,7.73,3.855,9.49093,7.55915,2.69486,5.66938,2.99289,12.7383,6.71607,17.52932,16.89086,21.73587,36.72982,40.42213,64.40893,49.74387,8.64333,2.91088,66.934,35.32912,73.43116,32.919,7.412-2.7494,5.83-15.28823,7.07921-23.76158.71092-4.8228,2.72779-6.896,7.85686-6.88908,4.641.0063,8.61078,1.157,9.47869,5.72342.90777,4.77573.78391,9.74384.92135,14.63264.55706,19.8279-7.17328,38.44231-9.41187,57.85008-.42219,3.65984-2.2347,8.65573,1.66549,10.98029,3.83546,2.286,7.87413-1.112,11.262-3.121,17.24576-10.227,29.92283-25.02737,43.12982-39.27992l12.3517.08022q-.47838,4.23706-.94413,8.474-.4089,1.02554-.81789,2.051l2.228-.42874q2.55833-.40634,5.11654-.81263c2.17253,1.4228,4.47681,3.66318,5.69638-.82622,6.04957-8.2269,16.752-5.97635,24.89343-9.74091,8.08646-3.73908,9.7378-6.10687,1.75034-11.34524-6.737-4.41829-13.92683-8.62347-16.34985-16.88036-1.56763-5.63372-3.57482-11.30129,1.40562-16.43089,8.61068-5.54458,19.92751-8.07352,23.63255-19.08485,3.813-3.19638,7.65431-6.36311,11.42722-9.60142,1.94578-1.67,3.47991-3.18663,1.08622-5.9671-6.695-7.777-27.62292-10.96532-36.059-5.11865-1.41415-11.05661-2.90205-22.032-7.43723-32.36388-11.04585-44.6975-79.72684-109.86335-116.14515-140.83273-9.34989-7.951-17.00363-18.14351-29.20014-22.9879-6.57872-2.61306-10.1094-2.20464-7.24142,5.723l-10.34-.3306a200.53776,200.53776,0,0,0-52.80536-37.57175c-38.15575-18.53259-77.47023-14.65937-117.15536-6.61-8.11284,1.64554-7.75283,5.43756-2.2403,9.68907,6.365,4.90894,13.10173,9.38414,19.67713,14.04764l.1325-.12384c-13.427-.3297-27.363,1.43019-40.18543-1.38087-38.474-8.43456-73.4569-1.11007-106.47142,17.64355-15.59318,8.85763-31.10273,18.08072-42.39584,32.11135,5.53987,4.45906,12.78917-.7092,16.32517,5.77067-4.52464,5.24464-10.28462,8.18419-16.639,10.48549-29.38846,10.64325-58.929,20.79037-89.979,26.30548-3.49941.62154-8.11636.34808-8.9576,4.37815-.79031,3.78631,3.15819,5.96494,6.0648,7.87171,15.61695,10.24475,30.83018,23.26874,50.93623,7.83329.77129-.59214,2.69049.16124,3.60244.24451,1.12533,5.86411-7.5331,8.76346-2.89474,17.31175,17.963-15.57809,35.60089-30.85642,63.83383-36.08191-14.39723,11.50976-26.984,19.273-36.07765,30.57713q-1.66549,1.73019-3.33089,3.46044a4.1893,4.1893,0,0,0-2.18971.83827c-4.22224,4.79973-10.84709,7.51188-13.33883,13.81531q-2.72091,3.24951-5.44191,6.499c-15.375,18.06524-20.7922,39.32019-22.03721,61.91166-6.71758,16.10431-24.85452,40.35144-27.68055,57.06675,1.18009,4.51605-3.09445,10.45229,2.138,13.5332,5.2779,3.10771,5.49127-5.85691,10.37536-5.6734,1.94616,9.40569-12.616,12.00727-9.54181,21.6594l-.12937.18224c-15.552,9.741-17.74919,18.90376-6.22117,25.94288,17.22488,5.68191,32.78683-.24334,49.37529-4.31823,14.5193-3.56665,16.783-11.76582,13.44181-21.24629-5.8398-16.57037-1.31639-31.64415,2.84606-47.163q9.1888-1.81667,18.37772-3.6333l.04575.09069q-.09867,1.47694-.19723,2.95392a2.46725,2.46725,0,0,0-.47506,2.0998q-1.10382,1.91306-2.20765,3.82615c-.38109,4.92371-.92951,9.8038-4.05443,14.01308-2.037,6.72708-4.59431,13.3633-5.92361,20.214-.8514,4.38779-1.55919,10.09109,6.45134,9.94657,6.78906.85211,8.75771-3.29175,9.74028-8.45763,6.81734-2.99241,9.41282-11.066,16.88726-13.17489,2.99526,3.15615-1.29352,7.79466,3.55783,10.65759,1.61974-3.65071,3.14608-7.09085,4.67243-10.531,9.23238-11.101,15.30416-24.23788,26.28555-34.32649,13.675-12.56328,42.0943-34.09145,38.87969-53.71732-.81191-4.9569,1.5888-10.536,3.12226-15.66533,8.59777-28.76137,23.47025-53.36093,53.33993-66.45809,9.21928-4.04245,20.76819-9.64605,27.26234,4.83057l.13-.12245c-18.42955.93828-28.56591,13.957-40.18011,24.82309-16.8193,25.03124-28.35207,51.26342-20.72111,84.48874,9.98687-24.83259,18.80713-47.54228,32.94771-67.83694.41279-3.61844,3.12786-5.26015,6.25078-6.55171-.20359,4.55249,2.39825,6.31349,6.87021,6.21385-11.93132,29.92187-10.50065,59.46455,2.79613,88.67048,5.329,7.80936,10.11785,16.19989,21.24571,17.7699a4.97829,4.97829,0,0,0,2.43526.54993q1.77625,1.33349,3.55251,2.667ZM257.06074,382.34575c6.55366-7.09533,8.52279-16.36226,12.87924-24.49872,1.0791-2.01538,3.59124-4.42461.79559-6.30466-3.3064-2.22352-5.89305.26161-7.18723,2.93431-4.28489,8.84945-5.52734,18.39148-6.37693,27.98351l-.86051.84606Q256.68578,382.826,257.06074,382.34575ZM452.2972,427.35337c-5.25958,6.92242-6.13338,13.09594-7.09971,19.24036,2.42557-.21056,5.74194.46371,7.12154-.786C458.07891,440.59,456.28282,434.78023,452.2972,427.35337Z" style="fill:#2c2015"/><path d="M282.95562,618.137q2.58522,1.67862,5.17036,3.35748C285.77946,621.23848,283.67831,620.64286,282.95562,618.137Z" style="fill:#eee2df"/><path d="M493.36782,323.41521c-6.49415-14.47662-18.04306-8.873-27.26234-4.83057-29.86968,13.09716-44.74216,37.69672-53.33993,66.45809-1.53346,5.12935-3.93417,10.70843-3.12226,15.66533,3.21461,19.62587-25.20467,41.154-38.87969,53.71732-10.98139,10.08861-17.05317,23.22554-26.28726,34.31294-2.96451-9.3043,3.87988-17.45266,4.20592-26.41046-13.56046.04763-16.47874,18.34919-31.23,14.78664-.34331,1.83523-1.49986,4.98-.90872,5.3104,9.73107,5.43808,1.52587,13.02492,2.817,19.37522-.98257,5.16588-2.95122,9.30974-9.73942,8.45835q-.26353-15.0799-.52859-30.16129c3.12492-4.20928,3.67334-9.08937,4.05263-14.01254q1.103-1.91283,2.20945-3.82667a2.46571,2.46571,0,0,1,.47553-2.09973c2.31339-.85029,2.48661-1.82853.19676-2.954l-.04622-.09006c4.43514-12.54286,34.91248-28.35223,38.71757-41.24978,1.22508-4.15224,4.33358-8.94416-1.06012-11.69028-4.71827-2.40225-9.16357.98546-11.9429,4.46218-10.96535,13.7169-40.55039,34.639-44.0918,52.11057-4.16245,15.51881-8.68586,30.59259-2.84606,47.163,3.34123,9.48047,1.07749,17.67964-13.44181,21.24629-16.58846,4.07489-32.15041,10.00014-49.37481,4.3216,2.4662-8.56186,8.41116-16.37659,6.22069-25.94625l.12814-.18143c16.81788-7.22519,22.81457-21.94263,29.83617-38.13626-6.72565.79953-13.30437-3.0399-16.67436,3.2204-3.96,7.35642-10.31889,4.88927-16.13211,5.39585,2.826-16.71531,20.963-40.96244,27.68226-57.06731,5.07478-1.66749,1.25754-8.8108,7.4454-10.44792,4.01333,3.8042,1.23618,15.01124,14.28343,11.48252-8.41117-8.27609-8.38374-18.65888-4.86473-26.394,5.54214-12.1822,2.73728-24.52224,5.1714-36.5517q2.72106-3.24948,5.44552-6.496c9.99133.20822,14.16706-4.63164,13.33522-13.81828a4.17476,4.17476,0,0,1,2.19455-.83671,3.49823,3.49823,0,0,0,3.32605-3.462c9.09361-11.30411,21.68042-19.06739,36.07765-30.57715-28.23294,5.22549-45.8708,20.50382-63.83383,36.08191-4.63836-8.54829,4.02007-11.44764,2.89474-17.31175-.91195-.08327-2.83115-.83665-3.60244-.24451-20.106,15.43545-35.31928,2.41146-50.93623-7.83329-2.90661-1.90677-6.85511-4.0854-6.0648-7.87171.84124-4.03007,5.45819-3.75661,8.9576-4.37815,31.05006-5.51511,60.59056-15.66223,89.979-26.30548,6.35443-2.3013,12.11441-5.24085,16.639-10.48549-3.536-6.47987-10.7853-1.31161-16.32517-5.77067,11.29311-14.03063,26.80266-23.25372,42.39584-32.11135,33.01452-18.75362,67.99742-26.07811,106.47142-17.64355,12.82248,2.81106,26.75843,1.05117,40.18562,1.38124q1.57579,1.50144,3.15112,3.00212l.68235.85995-.8104-.73677q-1.5785-1.50073-3.15576-3.00181c-6.5754-4.66352-13.31216-9.13872-19.67713-14.04766-5.51253-4.25151-5.87254-8.04353,2.2403-9.68907,39.68513-8.04939,78.99961-11.92261,117.15536,6.61a200.50969,200.50969,0,0,1,52.80508,37.57288q12.94749,18.175,25.89545,36.34776c-1.03687-13.977-3.65806-26.98766-15.55521-36.01829-2.868-7.92767.6627-8.33609,7.24142-5.723,12.19651,4.84439,19.85025,15.03694,29.20014,22.9879,36.41831,30.96938,105.0993,96.13523,116.145,140.83253,1.21645,10.58924-2.54735,18.96616-11.78163,25.30207-4.71059,3.23212-3.72583,7.54517-1.04569,11.71985,1.40343,2.1862,3.09654,4.21765,6.06152,3.25986,4.61757-1.49168,3.04538-5.56907,3.58612-8.75264.44487-2.61954-.61971-6.3191,4.42735-5.92374,7.117,12.15946-3.26435,22.22009-4.38882,33.37052-9.25867-1.14-13.31823,2.26592-12.50726,11.509,1.49644,17.05421-2.22218,33.07539-12.33092,47.5105-13.20746,14.253-25.88453,29.05346-43.13029,39.28042-3.38784,2.00906-7.42651,5.407-11.262,3.121-3.90019-2.32456-2.08768-7.32045-1.66549-10.98029,2.23859-19.40777,9.96893-38.02218,9.41187-57.85008-.13744-4.8888-.01358-9.85691-.92135-14.63264-.86791-4.56641-4.83768-5.71712-9.47869-5.72342-5.12907-.007-7.14594,2.06628-7.85686,6.88908-1.24919,8.47335.33277,21.01218-7.07921,23.76158-6.49719,2.41009-64.78783-30.00815-73.43116-32.919-27.67911-9.32174-47.51807-28.008-64.40893-49.74387-3.72318-4.791-4.02121-11.85994-6.71607-17.52932-1.76088-3.70416-3.73276-9.53656-9.49093-7.55915-4.79535,1.6468-4.41976,7.04522-4.37069,11.59465.08969,8.32233-.24887,16.6488-.41279,24.97382-3.29444,1.40027-3.56429,3.93846-2.86827,6.84058a2.701,2.701,0,0,1-.55222,2.182c-4.53527-.03426-9.08061-.27053-13.59956-.04077-4.59915.23384-7.41635,2.79254-8.06112,7.14879-.87721,5.927,2.9423,7.47186,8.17037,7.5567,16.44913,17.10456,1.321,35.79069,4.26068,55.436-16.82319-6.528-31.564-12.71356-43.99042-23.07932q-1.65738-1.35137-3.3157-2.70215l-.05011-.09883q-1.77555-1.33387-3.55394-2.66623a4.9763,4.9763,0,0,1-2.43422-.54948c-5.19437-7.95376-8.77583-17.64459-21.24675-17.77035-13.29678-29.20593-14.72745-58.74861-2.80277-88.66746,6.77871-6.01241,9.00952-13.66913,10.64881-25.6185-7.88173,7.99586-14.2167,12.35013-17.51238,19.40163-3.12292,1.29156-5.838,2.93327-6.25116,6.551-15.3464,1.89678-12.66749-8.11651-12.22622-16.65113,11.6142-10.86606,21.75056-23.88481,40.18087-24.82305l.62417.77326ZM415.44047,267.0481l3.34608-2.49482c12.29446-12.15046,28.33118-18.835,43.49287-26.79763q3.10489-1.089,6.20978-2.17808l5.26508-1.20269c2.63421-1.17939,7.06564-1.89608,7.56063-3.62626,1.4021-4.90054-3.90522-4.29824-6.84173-5.27528-5.07165-1.68741-10.34565-4.83356-15.22965.47645l-.08856.04587-2.85146,1.34277c-29.43629,6.32367-51.2178,22.71685-67.58293,46.235-9.91929,12.67074-22.64,24.13118-20.18938,42.44386,7.28489-15.61977,21.37336-25.902,31.79894-38.9035a10.72517,10.72517,0,0,1,2.47559-1.17179c3.6051-1.36689,7.747-1.97366,9.46445-6.014l.03807.02835q1.55117-1.44022,3.10242-2.88045ZM275.48638,457.24452c-3.716.30556-7.25063,1.23178-7.977,5.21741-.422,2.315,1.89053,3.45831,3.95951,2.9826,4.71154-1.08325,3.65749-5.0371,3.97451-8.23944,3.07642-.45553,25.07236-8.08368,24.40586-11.9594-.1549-.90056-2.21477-2.4124-2.78379-2.19513C293.49243,444.415,275.85152,454.63158,275.48638,457.24452ZM655.65515,311.51271l-.39258-.753c-4.89339-6.07328-12.98222-8.132-16.90728-2.53133-4.15875,5.93435,4.42878,9.24875,9.34922,12.37336,10.19141,8.39224,63.82765,44.8255,68.34432,56.60755,5.73027,14.94722,12.47443,29.57915,15.06573,45.45822,2.95027,9.84067,1.039,20.74605,9.28468,29.96085V431.50375c-.03958-9.231.2259-18.474-.177-27.69079-1.14782-26.25872-57.42623-74.63745-81.95024-89.81622Q656.96356,312.75474,655.65515,311.51271Zm-76.50228,21.906c8.76246-20.72513,9.91787-40.70691-2.13646-59.67946-4.04247-6.36272-8.82956-12.20724-17.82608-12.40363-4.39992-.096-8.03786.95951-10.48451,4.86067-3.21528,5.12687.866,7.14983,4.27283,9.18852,7.07485,4.23382,10.08217,10.95306,12.53907,17.94515C570.19831,306.65,574.62234,320.05118,579.15287,333.41869Zm-89.00223-42.47315c-21.92274-4.495-33.56153,8.961-48.50064,12.62507-8.19837,2.01079-15.52635,7.378-23.07426,11.51512-2.34348,1.28447-3.44707,3.77845-1.33452,6.16289,1.71561,1.93654,3.666.74954,5.39958-.31854,7.32391-4.512,16.13524-6.42442,23.413-10.12071C459.16684,304.14955,474.14325,300.89125,490.15064,290.94554Zm89.72644,51.43916a14.04278,14.04278,0,0,0-1.232,2.20071c-.06843.18623.80954.95981.94574.89385a16.19429,16.19429,0,0,0,2.10315-1.38667C581.09979,343.51574,580.50552,342.93891,579.87708,342.3847Z" style="fill:#3f2e1a"/><path d="M824.35327,449.14086c1.12466-11.15022,11.506-21.21085,4.389-33.37031-5.04706-.39536-3.98248,3.3042-4.42735,5.92374-.54074,3.18357,1.03145,7.261-3.58612,8.75264-2.965.95779-4.65809-1.07366-6.06152-3.25986-2.68014-4.17468-3.6649-8.48773,1.04569-11.71985,9.23428-6.33591,12.99808-14.71283,11.78163-25.30207,4.53528,10.332,6.02318,21.30747,7.43733,32.36408,8.436-5.84667,29.364-2.65831,36.059,5.11865,2.39369,2.78047.85956,4.29712-1.08622,5.9671-3.77291,3.23831-7.61425,6.405-11.42712,9.6016-12.8148-5.49364-22.11485,7.07216-34.0754,5.96834Z" style="fill:#5e4834"/><path d="M453.31774,348.11585c-.44127,8.53462-3.12018,18.54791,12.22622,16.65113-14.1402,20.29533-22.96046,43.005-32.94733,67.83761C424.96567,399.37927,436.49844,373.14709,453.31774,348.11585Z" style="fill:#5e4834"/><path d="M833.43929,478.73214c2.423,8.25689,9.61281,12.46207,16.34985,16.88036,7.98746,5.23837,6.33612,7.60616-1.75034,11.34524-8.14142,3.76456-18.84386,1.514-24.8884,9.7423q-2.84562.41384-5.70141.82483-2.55831.40628-5.11654.81263a2.03815,2.03815,0,0,0-1.42279-1.62215q.47838-4.237.95723-8.47438c4.29665-5.26606,3.047-11.88072,4.57884-17.80556C818.75608,481.49949,823.594,477.18507,833.43929,478.73214Z" style="fill:#5e4834"/><path d="M297.60342,460.74686c3.54141-17.47157,33.12645-38.39367,44.0918-52.11057,2.77933-3.47672,7.22463-6.86443,11.9429-4.46218,5.3937,2.74612,2.2852,7.538,1.06012,11.69028-3.80509,12.89755-34.28243,28.70692-38.71757,41.24978Q306.79256,458.92985,297.60342,460.74686Z" style="fill:#5e4834"/><path d="M833.43929,478.73214c-9.84525-1.54707-14.68321,2.76735-16.99356,11.70327-1.53185,5.92484-.28219,12.5395-4.57884,17.80556q-6.17647-.03965-12.3518-.08014c10.10893-14.43538,13.82755-30.45656,12.33111-47.51077-.811-9.24307,3.24859-12.649,12.50726-11.509l.04841.04362c1.26561,5.95924,6.57008,9.02506,10.443,13.11656C829.86447,467.43085,831.87166,473.09842,833.43929,478.73214Z" style="fill:#5e4834"/><path d="M285.037,358.85161c-2.43412,12.02946.37074,24.3695-5.1714,36.5517-3.519,7.73512-3.54644,18.11791,4.86473,26.394-13.04725,3.52872-10.2701-7.67832-14.28343-11.48252-6.18786,1.63712-2.37062,8.78043-7.4454,10.44792C264.24483,398.1718,269.66207,376.91685,285.037,358.85161Z" style="fill:#5e4834"/><path d="M319.36053,501.80012c-1.29114-6.3503,6.91406-13.93714-2.817-19.37522-.59114-.33041.56541-3.47517.90872-5.3104,14.75128,3.56255,17.66956-14.739,31.23-14.78664-.326,8.9578-7.17043,17.10616-4.20592,26.41046-1.52464,3.45365-3.051,6.89379-4.67072,10.5445-4.85135-2.86293-.56257-7.50144-3.55783-10.65759C328.77335,490.7341,326.17787,498.80771,319.36053,501.80012Z" style="fill:#5e4834"/><path d="M235.31927,477.83c5.81322-.50658,12.17212,1.96057,16.13211-5.39585,3.37-6.2603,9.94871-2.42087,16.67436-3.2204-7.0216,16.19363-13.01829,30.91107-29.83617,38.13626-3.073-9.65294,11.4892-12.25452,9.543-21.66021-4.88409-.18351-5.09746,8.78111-10.37536,5.6734C232.22482,488.28231,236.49936,482.34607,235.31927,477.83Z" style="fill:#5e4834"/><path d="M834.84491,462.30125c-3.873-4.0915-9.17743-7.15732-10.443-13.11656,11.96084,1.10405,21.26089-11.46175,34.07569-5.96811C854.77242,454.22773,843.45559,456.75667,834.84491,462.30125Z" style="fill:#5e4834"/><path d="M674.908,232.06775c11.89715,9.03063,14.51834,22.04129,15.55521,36.01829q-12.94792-18.17331-25.89545-36.34776Q669.73822,231.90189,674.908,232.06775Z" style="fill:#5e4834"/><path d="M238.16143,507.53146c2.19047,9.56966-3.75449,17.38439-6.22069,25.94625C220.41224,526.43522,222.60945,517.27242,238.16143,507.53146Z" style="fill:#5e4834"/><path d="M471.79512,358.21594c3.29568-7.0515,9.63065-11.40577,17.51238-19.40163-1.63929,11.94937-3.8701,19.60609-10.64881,25.6185C474.19337,364.52943,471.59153,362.76843,471.79512,358.21594Z" style="fill:#5e4834"/><path d="M257.17226,382.46033c.84874-9.59217,2.09119-19.1342,6.37608-27.98365,1.29418-2.6727,3.88083-5.15783,7.18723-2.93431,2.79565,1.88.28351,4.28928-.79559,6.30466-4.35645,8.13646-6.32558,17.40339-12.87924,24.49872Z" style="fill:#5e4834"/><path d="M452.2972,427.35337c3.98562,7.42686,5.78171,13.23663.02183,18.45436-1.3796,1.24971-4.696.57544-7.12154.786C446.16382,440.44931,447.03762,434.27579,452.2972,427.35337Z" style="fill:#5e4834"/><path d="M551.79192,444.5306c-5.22807-.08484-9.04758-1.62972-8.17037-7.5567.64477-4.35625,3.462-6.915,8.06112-7.14879,4.519-.22976,9.06429.00651,13.59956.04077C559.84136,433.97314,549.53292,434.04828,551.79192,444.5306Z" style="fill:#5e4834"/><path d="M481.46146,453.10027c12.47092.12576,16.05238,9.81659,21.24675,17.77035C491.57931,469.30016,486.79042,460.90963,481.46146,453.10027Z" style="fill:#5e4834"/><path d="M309.09252,480.09718q.26468,15.081.52859,30.16129c-8.01139.1438-7.3036-5.5595-6.4522-9.94729C304.49821,493.46048,307.05553,486.82426,309.09252,480.09718Z" style="fill:#5e4834"/><path d="M303.81777,338.5373c.83184,9.18664-3.34389,14.0265-13.33522,13.81826C292.97068,346.04918,299.59553,343.337,303.81777,338.5373Z" style="fill:#5e4834"/><path d="M481.23461,486.96976q-1.07094,2.27769-2.14187,4.55549-.1962-3.45377-.38821-6.91324Q479.97365,485.78524,481.23461,486.96976Z" style="fill:#eee2df"/><path d="M565.83445,427.68392c-.696-2.90212-.42617-5.44031,2.86827-6.84058C568.70433,423.48423,568.34033,425.98874,565.83445,427.68392Z" style="fill:#5e4834"/><path d="M817.449,517.52487q2.85318-.41174,5.70141-.82483C821.9258,521.18805,819.62152,518.94767,817.449,517.52487Z" style="fill:#5e4834"/><path d="M315.3546,462.258q-1.10553,1.9136-2.20945,3.82666Q314.25167,464.17075,315.3546,462.258Z" style="fill:#eee2df"/><path d="M505.14243,471.4201q1.77768,1.33274,3.55394,2.66623Q506.918,472.754,505.14243,471.4201Z" style="fill:#eee2df"/><path d="M257.06074,382.34575q-.375.48024-.74984.9605.43026-.423.86089-.846Z" style="fill:#eee2df"/><path d="M316.02689,457.20423c2.28985,1.12548,2.11663,2.10372-.19676,2.954Q315.92794,458.68115,316.02689,457.20423Z" style="fill:#5e4834"/><path d="M508.74648,474.18516q1.65809,1.35089,3.3157,2.70215Q510.40381,475.53655,508.74648,474.18516Z" style="fill:#eee2df"/><path d="M812.33245,518.33746q-1.11393.21441-2.228.42878c.2726-.68365.54529-1.36729.81153-2.05093A2.04093,2.04093,0,0,1,812.33245,518.33746Z" style="fill:#5e4834"/><path d="M309.33837,334.23861a3.49819,3.49819,0,0,1-3.32605,3.462Q307.6704,335.968,309.33837,334.23861Z" style="fill:#5e4834"/><path d="M306.55152,590.00715q-.628-.32962-1.25611-.65934.64125.317,1.28269.63381Z" style="fill:#faf7f8"/><path d="M731.11456,422.66751c-2.5913-15.87909-9.33546-30.511-15.06573-45.45824-4.51667-11.78205-58.15291-48.21531-68.34033-56.6071q3.781-4.92078,7.55417-9.84246l.3901.75219c-.10649,1.756.72753,2.62236,2.61921,2.48482,24.524,15.17879,80.80242,63.55752,81.95024,89.81624.40292,9.21676.13744,18.45976.17712,27.69034Q735.75694,427.085,731.11456,422.66751Z" style="fill:#2c2015"/><path d="M579.15287,333.41869c-4.53053-13.36751-8.95456-26.76869-13.63515-40.08875-2.4569-6.99209-5.46422-13.71133-12.53907-17.94515-3.40682-2.03869-7.48811-4.06165-4.27283-9.18852,2.44665-3.90116,6.08459-4.95672,10.48451-4.86067,8.99652.19639,13.78361,6.04091,17.82608,12.40363C589.07074,292.71178,587.91533,312.69356,579.15287,333.41869Z" style="fill:#2c2015"/><path d="M473.75428,234.37487q-2.63249.60135-5.26309,1.19774c-3.22353-2.2257-6.2261-3.87661-6.21177,2.183-15.16169,7.96263-31.19841,14.6472-43.49221,26.79649q-1.67276,1.24683-3.34674,2.496l-.02819.0291q-1.55045,1.44088-3.104,2.87919l-.03588-.026c-4.45071.16686-8.46224.957-9.46664,6.01158a11.00267,11.00267,0,0,0-2.476,1.16494q-5.805-1.77358-11.60918-3.53351c16.36513-23.51814,38.14664-39.91132,67.57875-46.2253.94907-.44435,1.9024-.8984,2.85564-1.35246l.08837-.04537C464.22871,228.52854,472.94038,225.33011,473.75428,234.37487Z" style="fill:#2c2015"/><path d="M490.15064,290.94554c-16.00739,9.94571-30.9838,13.204-44.09682,19.86383-7.27778,3.69629-16.08911,5.60866-23.413,10.12071-1.73355,1.06808-3.684,2.25508-5.39958.31854-2.11255-2.38444-1.009-4.87842,1.33452-6.16289,7.54791-4.13713,14.87589-9.50433,23.07426-11.51512C456.58911,299.90649,468.2279,286.45054,490.15064,290.94554Z" style="fill:#5e4834"/><path d="M388.72058,273.57342q5.80431,1.76334,11.60918,3.53351c-10.4252,13.0084-24.51367,23.29058-31.79856,38.91035C366.08056,297.7046,378.80129,286.24416,388.72058,273.57342Z" style="fill:#5e4834"/><path d="M655.26267,310.75971q-3.77518,4.92149-7.55417,9.84246c-4.92443-3.12506-13.512-6.43946-9.35321-12.37381C642.28035,302.62767,650.36918,304.68641,655.26267,310.75971Z" style="fill:#5e4834"/><path d="M731.11456,422.66751q4.64239,4.41769,9.28478,8.83579-.00015,10.563-.0001,21.125C732.15361,443.41354,734.06483,432.50816,731.11456,422.66751Z" style="fill:#5e4834"/><path d="M473.75428,234.37487c-.8139-9.04476-9.52557-5.84633-14.51094-8.42458,4.88419-5.31051,10.15819-2.16436,15.22984-.47695,2.93651.977,8.24383.37474,6.84173,5.27528C480.81992,232.4788,476.38849,233.19549,473.75428,234.37487Z" style="fill:#5e4834"/><path d="M275.44291,457.20473c-.31655,3.2027.7375,7.15655-3.974,8.2398-2.069.47571-4.38151-.66762-3.95951-2.9826.72639-3.98563,4.261-4.91185,7.977-5.21741Z" style="fill:#5e4834"/><path d="M275.48638,457.24452c.36514-2.61294,18.00605-12.82956,21.57907-14.194.569-.21727,2.62889,1.29457,2.78379,2.19513.6665,3.87572-21.32944,11.50387-24.406,11.95922Z" style="fill:#5e4834"/><path d="M402.80573,275.942c1.0044-5.05453,5.01593-5.84472,9.46664-6.01158C410.55268,273.96833,406.41083,274.5751,402.80573,275.942Z" style="fill:#5e4834"/><path d="M579.89426,342.3734c.61126.56551,1.20553,1.14234,1.7998,1.71913a16.1964,16.1964,0,0,1-2.10325,1.38673c-.1362.066-1.01417-.70762-.94574-.89385A13.42379,13.42379,0,0,1,579.89426,342.3734Z" style="fill:#5e4834"/><path d="M462.27942,237.75563c-.01433-6.05963,2.98824-4.40872,6.21177-2.183Q465.38331,236.6691,462.27942,237.75563Z" style="fill:#5e4834"/><path d="M459.155,225.99566c-.95324.45406-1.90657.90811-2.85564,1.35246C457.254,226.89084,458.20449,226.44325,459.155,225.99566Z" style="fill:#eee2df"/><polygon points="493.368 323.415 494.123 324.066 493.499 323.293 493.368 323.415" style="fill:#bd8799"/><path d="M658.272,313.99674c-1.89168.13752-2.7257-.72884-2.61921-2.48482Q656.96475,312.75514,658.272,313.99674Z" style="fill:#5e4834"/><polygon points="515.201 214.294 516.01 215.031 515.328 214.171 515.201 214.294" style="fill:#bd8799"/><path d="M512.04415,211.29213q1.57751,1.501,3.15576,3.00183l.12767-.12335q-1.57481-1.50062-3.15074-3.002Z" style="fill:#bd8799"/><path d="M412.30825,269.95639q1.55286-1.43895,3.104-2.8792Q413.8587,268.51551,412.30825,269.95639Z" style="fill:#5e4834"/><path d="M415.44047,267.0481q1.67376-1.24857,3.34674-2.496Q417.11318,265.80127,415.44047,267.0481Z" style="fill:#eee2df"/></svg>