<svg id="Layer_1" data-name="Layer 1" xmlns="http://www.w3.org/2000/svg" viewBox="0 0 1133.86 1133.86"><defs><style>.cls-1{fill:#1a1d1e;}.cls-2{fill:#2f2f2f;}.cls-3{fill:#0d0f10;}.cls-4{fill:#889a78;}.cls-5{fill:#73553a;}.cls-6{fill:#d5dfc9;}</style></defs><path class="cls-1" d="M257.87,546.7c-1.62,7.38-6.3,11.72-13.46,13.64C224.69,526.17,222,488.47,223,450.46c1.94-74,29.4-138,79.32-192.32,24.6-26.74,53.53-48.29,85.36-65.95,3.21-1.79,11.06-1.74,5.29-10.35-14.52-21.68-1.8-49.75,24.31-53.47,9.48-1.35,11.89-3.5,11.91-13.71.08-52.63,30.85-69.78,75.37-95.85,68.1-39.89,153-7.23,188,63.73,11.1,22.5,6.74,27.45,1.58,51.93-1.51,7.15-.81,9.1,7.1,10.1,35.8,4.57,52.2,38.06,33.56,68.87-4,6.62-.35,8.63,3,11,35.5,24.48,60.17,57.8,81,95,32.33,57.92,28.25,108.62,29.88,173.76.67,26.92,16.5,10.61,8.1,36-1.6,4.85-5.2,7.73-9.25,10.29-3.16-1.46-5.71-3.45-6.24-7.2,3.63-19.65,9.28-39.17,10.46-59,3.06-51.3-9.23-47.9-24.44-97.15-5.5-17.83-15.09-34.11-23.58-50.82-7.06-13.9-13.58-28.19-22.68-40.7-10.45-14.37-23.73-26.48-37.16-38.22-2.29-2-4.94-4.89-7.76-3.19-3.48,2.11-1,5.23.62,7.76s3.52,5.6,0,7.76a8.86,8.86,0,0,1-9.8-.56c-2.83-2-3.75-4.95-1.28-7.77,3.56-4.06,4.88-8.53,1.34-12.76-4-4.73-9.14-3.17-14.26-1.29-13.3,4.87-26.27,4.47-38.07-4.09-3.68-2.67-6.95-3.32-10.53-.68-15.27,11.27-30.17,6.07-44.33-1.8-7.17-4-13.51-3.34-19.37.43-17.59,11.35-33.72,7.67-49.33-3.67-6.82-4.95-12.71-7.77-20.42-.57-5.78,5.39-15.79,8.59-21.67,4.71-13.49-8.92-25.08-1.9-37.63.32-19.68,3.47-30.3-3.6-34.82-22.41-.79-3.29-2-6-5.16-6.69-11.68-2.66-25.39-6.26-33.54,3.73-7,8.53-16.8,12.05-24.61,16.68-30.15,17.89-54.69,41-75.06,68.81-30.32,41.32-51.69,86-56,138.53-2.71,32.94-1.52,64.93,5.49,97C249.37,534.31,252.16,541.2,257.87,546.7Zm290-348.89c-2.35,14.95,6.68,18.66,17.79,20.75,15.71,2.95,30.76,2.47,44.88-6.23,2.59-1.59,6.7-4.78,9.14-1.65,11.29,14.51,25.48,10.85,39.53,6.77,5.71-1.66,10.44-2.44,15.81,1,14.53,9.43,28.38,4.35,41.06-3.87,12.23-7.93,18.66-24.53,15.54-35.92-2.71-9.86-19.3-21-32.69-21.89-8.78-.59-17.4.7-25,4.84s-10.65,2.6-14.75-5.36c-12.13-23.55-39.25-30.5-55.61-14.08-6.3,6.33-7.64,5.27-12.66-.36-15.61-17.5-34-18.21-50.34-1.82-6.11,6.14-9.32,4.05-12.94-1.55-2.09-3.25-3.68-6.82-5.87-10C505.53,105,477,104,461,127.41c-8,11.71-16.08,15-30,12-17.37-3.74-33.55,13.68-29.5,29.56,3.47,13.6,30.31,27.45,43.38,21.38,10.25-4.76,10.1-.15,9,7.52-1.85,13.38,4.44,19.52,17.59,17.24a27.08,27.08,0,0,0,17.32-10.36c2.58-3.3,6.64-6.54,8.66-.72,2.8,8.1,5.84,14.54,15.75,13.24,7.83-1,14.88-3.9,20.68-9.64C537.52,204.09,540.58,199.71,547.85,197.81ZM569.63,16.07C542.25,11.78,520,26.5,498.56,38.22c-23.67,12.93-37.4,36.61-45.77,62.7-2.78,8.67-4.67,13.64,8.29,14.22,8.18.36,16.29.49,24-1,18.56-3.63,28.08-16.53,41.49-4.75,7.33,6.44,15,10.55,27.23,6.88,13-3.92,28.53-3.67,38.11,10.68,3.07,4.6,5.31,6.46,10.92,2C623,113,647.48,118.3,660.64,140.56c3.18,5.39,8.82,6.95,14.43,7,4.16,0,7-2.79,7.22-7.51.5-14.13,3.9-28,2.71-42.32-1.36-16.31,1.31-14-8.92-25.82-14.21-16.42-27.12-34-50.77-42.6A233.85,233.85,0,0,0,569.63,16.07ZM444.88,128.92c1.26-9.15,7.22-13.57,4.94-20.42-.13-.38-2.78-.62-3.38,0C441.46,113.36,440.28,119.1,444.88,128.92Z"/><path class="cls-2" d="M257.87,546.7c-5.71-5.5-8.5-12.39-10.18-20-7-32.06-8.2-64-5.49-97,4.31-52.52,25.68-97.21,56-138.53,20.37-27.78,44.91-50.92,75.06-68.81,7.81-4.63,17.64-8.15,24.61-16.68,8.15-10,21.86-6.39,33.54-3.73,3.13.71,4.37,3.4,5.16,6.69,4.52,18.81,15.14,25.88,34.82,22.41,12.55-2.22,24.14-9.24,37.63-.32,5.88,3.88,15.89.68,21.67-4.71,7.71-7.2,13.6-4.38,20.42.57,15.61,11.34,31.74,15,49.33,3.67,5.86-3.77,12.2-4.41,19.37-.43,14.16,7.87,29.06,13.07,44.33,1.8,3.58-2.64,6.85-2,10.53.68,11.8,8.56,24.77,9,38.07,4.09,5.12-1.88,10.28-3.44,14.26,1.29,3.54,4.23,2.22,8.7-1.34,12.76-2.47,2.82-1.55,5.79,1.28,7.77a8.86,8.86,0,0,0,9.8.56c3.56-2.16,1.77-5.15,0-7.76s-4.1-5.65-.62-7.76c2.82-1.7,5.47,1.18,7.76,3.19,13.43,11.74,26.71,23.85,37.16,38.22,9.1,12.51,15.62,26.8,22.68,40.7,8.49,16.71,18.08,33,23.58,50.82,15.21,49.25,27.5,45.85,24.44,97.15-1.18,19.79-6.83,39.31-10.46,59-10.65-8.4-4.29-6.41-16.36-13.39-11-6.35-21.7-9.95-34.18-8.42-.84-18.31-18.53,5.66-22.85-12.83-4.19-17.93-5.77-36.52-17.16-52-1.79-2.44-3.39-6.19-6.6-5-4.27,1.54-2.65,6.18-1.42,8.8,3.2,6.81,5.09,13.74,4.27,21.19-.4,3.63,4.07,7.95-.37,10.62-4.19,2.52-8.27-.73-11.95-2.85-28.83-16.64-54.31-37.12-75-63.49-7.49-9.53-17-17.49-25.54-26.17L631,391.17c1.8,9.94,10,17,13.65,26.13,1.86,4.59,4.25,8.61-3.57,7.86-9.07-.86-12.29,4.23-13.6,11.87-8.63,3.06-2,8.31-.81,11.4,6.84,18.12.11,31.16-19,31.7a417.12,417.12,0,0,0-45.85,4.3c-23.39,3.27-47,2.63-70.51,3.46-13.33-8.32-29.35-8.11-43.54-13.7-5.55-6.55-3.86-14.52-3.94-22-.08-7.07-2.67-10.09-9.76-8.73,1.35-17.77-13.07-6.89-20.43-10.38,5.53-10.11,7.25-20.72,9.55-31.14,1-4.63,1.67-10.08-4.3-12-5.76-1.82-5.56,4.21-7.3,7.09-6.18,10.25-11.49,21.06-18,31.07-14.64,22.44-33.67,41-53.48,58.85-2.82,2.54-8.53,5.44-4.86,10.33s9.11,3.44,14.05.86c17-8.9,32-20.71,43.34-35.86,7.69-10.27,16-13.14,27.5-10.44-14.25,21.32-32.7,39-50.49,57.18-2.73,2.79-36.34,76.88-29.57,79.54,4.21,1.65,8.41,3.6,12,.41s1-6.9-1-10.34c-19.07-31.42-21.12-66.23-19.86-101.62.33-9.27,1.34-18.53,2-27.79.35-4.76-.95-9.18-6.18-9.65-5.53-.5-5.4,5.33-5.8,8.41-2.2,16.92-7.22,33.42-6.3,50.85.8,15.11,0,30.3-.14,45.46-9.44-1-17-7.88-26.95-8C276.37,536.28,267,540.93,257.87,546.7Zm225.5-159.41c-2.31,13,1.12,25.68,2.85,38.3,2.08,15.13,6.82,29.8,12.65,44,2.85,7,8.26,9.34,14.38,6.52,6.38-2.93,3.4-8.42,1.16-13.17-1.81-3.86-4.13-7.77-4.69-11.86-3.94-28.68-14.49-56.51-11.09-86.15.42-3.63.87-8.26-4.61-9.07s-7.64,3.06-9.26,7.21C481.68,371,483.92,379.26,483.37,387.29Zm64.48-4.41c3,28,12.61,53.94,25.37,78.77,2.41,4.69,7.65,7.06,13,7.43,3.64.26,8,4.42,10.76.41,3-4.45-2.79-6.26-4.92-9s-4.29-5.12-5.55-8.5c-9.36-25.19-23.43-48.53-29.51-75.05-.7-3-2.08-7.5-6.36-6.81-3.93.63-2.4,4.83-2.73,7.61A44.21,44.21,0,0,0,547.85,382.88Z"/><path class="cls-3" d="M775.17,520.81c-5.06-5-2.21,1.48-.93-4,2.33-9.86.31-32.81.33-42.66,0-21-22.7,21.74-43.05,15.64A118,118,0,0,1,673.3,451c-10.16-12.4-22.43-16.17-37.56-12.71l-8.3-1.21c1.31-7.64,4.53-12.73,13.6-11.87,7.82.75,5.43-3.27,3.57-7.86-3.68-9.11-11.85-16.19-13.65-26.13l3.16-2.49c8.57,8.68,18,16.64,25.54,26.17,20.73,26.37,46.21,46.85,75,63.49,3.68,2.12,7.76,5.37,11.95,2.85,4.44-2.67,0-7,.37-10.62.82-7.45-1.07-14.38-4.27-21.19-1.23-2.62-2.85-7.26,1.42-8.8,3.21-1.16,4.81,2.59,6.6,5,11.39,15.51,13,34.1,17.16,52,4.32,18.49,22-5.48,22.85,12.83Z"/><path class="cls-4" d="M260,195.3l-.64.72c-.15-.28-.45-.58-.42-.85s.38-.48.59-.73Z"/><path class="cls-3" d="M314.69,544.35c.11-15.16.94-30.35.14-45.46-.92-17.43,4.1-33.93,6.3-50.85.4-3.08.27-8.91,5.8-8.41,5.23.47,6.53,4.89,6.18,9.65-.66,9.26-1.67,18.52-2,27.79-1.26,35.39.79,70.2,19.86,101.62,2.09,3.44,4.61,7.15,1,10.34s-7.77,1.24-12-.41C333.27,586,318.35,554.6,314.69,544.35Z"/><path class="cls-5" d="M547.85,197.81c-7.27,1.9-10.33,6.28-13.9,9.81-5.8,5.74-12.85,8.62-20.68,9.64-9.91,1.3-12.95-5.14-15.75-13.24-2-5.82-6.08-2.58-8.66.72a27.08,27.08,0,0,1-17.32,10.36c-13.15,2.28-19.44-3.86-17.59-17.24,1.06-7.67,1.21-12.28-9-7.52-13.07,6.07-39.91-7.78-43.38-21.38-4-15.88,12.13-33.3,29.5-29.56,13.88,3,22-.28,30-12,16-23.45,44.54-22.42,60.7,1.08,2.19,3.17,3.78,6.74,5.87,10,3.62,5.6,6.83,7.69,12.94,1.55,16.32-16.39,34.73-15.68,50.34,1.82,5,5.63,6.36,6.69,12.66.36,16.36-16.42,43.48-9.47,55.61,14.08,4.1,8,7.11,9.5,14.75,5.36s16.27-5.43,25-4.84c13.39.9,30,12,32.69,21.89,3.12,11.39-3.31,28-15.54,35.92-12.68,8.22-26.53,13.3-41.06,3.87-5.37-3.48-10.1-2.7-15.81-1-14.05,4.08-28.24,7.74-39.53-6.77-2.44-3.13-6.55.06-9.14,1.65-14.12,8.7-29.17,9.18-44.88,6.23C554.53,216.47,545.5,212.76,547.85,197.81Z"/><path class="cls-2" d="M569.63,16.07a233.85,233.85,0,0,1,55.68,13.26c23.65,8.61,36.56,26.18,50.77,42.6,10.23,11.81,7.56,9.51,8.92,25.82,1.19,14.28-2.21,28.19-2.71,42.32-.17,4.72-3.06,7.56-7.22,7.51-5.61-.07-11.25-1.63-14.43-7C647.48,118.3,623,113,602.83,128.94c-5.61,4.45-7.85,2.59-10.92-2-9.58-14.35-25.09-14.6-38.11-10.68-12.18,3.67-19.9-.44-27.23-6.88-13.41-11.78-22.93,1.12-41.49,4.75-7.71,1.51-15.82,1.38-24,1-13-.58-11.07-5.55-8.29-14.22,8.37-26.09,22.1-49.77,45.77-62.7C520,26.5,542.25,11.78,569.63,16.07ZM547,82.19a35.79,35.79,0,0,1,13.93-10.66c21-9.65,42.85-11.42,65.39-7,3.53.69,8.49,2.9,9.79-2.26.89-3.48-3.15-5.67-6.52-6.83-22.75-7.84-45.74-8.76-68,.6-20.36,8.54-36.62,22.19-44.32,43.88-1.23,3.45-3.12,8.53,1.44,10.19s4.14-4.1,6-6.59c4.54-6,8.28-14,18-11.68,24.09,5.61,43.59-8.52,53.42,18.58.71,2,2.09,3.84,6.62,1.94C599.18,77.11,576.28,89.4,547,82.19Z"/><path class="cls-2" d="M444.88,128.92c-4.6-9.82-3.42-15.56,1.56-20.45.6-.59,3.25-.35,3.38,0C452.1,115.35,446.14,119.77,444.88,128.92Z"/><path class="cls-3" d="M420.1,451.9c-11.53-2.7-19.81.17-27.5,10.44-11.35,15.15-26.35,27-43.34,35.86-4.94,2.58-10.44,3.95-14.05-.86s2-7.79,4.86-10.33c19.81-17.84,38.84-36.41,53.48-58.85,6.53-10,11.84-20.82,18-31.07,1.74-2.88,1.54-8.91,7.3-7.09,6,1.89,5.32,7.34,4.3,12-2.3,10.42-4,21-9.55,31.14,7.36,3.49,21.78-7.39,20.43,10.38C428.68,445.1,423.68,447.32,420.1,451.9Z"/><path class="cls-3" d="M483.37,387.29c.55-8-1.69-16.31,1.39-24.18,1.62-4.15,3.88-8,9.26-7.21s5,5.44,4.61,9.07c-3.4,29.64,7.15,57.47,11.09,86.15.56,4.09,2.88,8,4.69,11.86,2.24,4.75,5.22,10.24-1.16,13.17-6.12,2.82-11.53.44-14.38-6.52-5.83-14.24-10.57-28.91-12.65-44C484.49,413,481.06,400.31,483.37,387.29Z"/><path class="cls-3" d="M547.85,382.88a44.21,44.21,0,0,1,0-5.15c.33-2.78-1.2-7,2.73-7.61,4.28-.69,5.66,3.77,6.36,6.81,6.08,26.52,20.15,49.86,29.51,75.05,1.26,3.38,3.46,5.79,5.55,8.5s8,4.56,4.92,9c-2.73,4-7.12-.15-10.76-.41-5.33-.37-10.57-2.74-13-7.43C560.46,436.82,550.81,410.9,547.85,382.88Z"/><path class="cls-6" d="M685.65,481.37l-2.9-2.18Z"/><path class="cls-3" d="M547,82.19c29.33,7.21,52.23-5.08,55.77,30.12-4.53,1.9-5.91,0-6.62-1.94-9.83-27.1-29.33-13-53.42-18.58-9.76-2.27-13.5,5.67-18,11.68-1.88,2.49-1.55,8.22-6,6.59s-2.67-6.74-1.44-10.19c7.7-21.69,24-35.34,44.32-43.88,22.3-9.36,45.29-8.44,68-.6,3.37,1.16,7.41,3.35,6.52,6.83-1.3,5.16-6.26,3-9.79,2.26-22.54-4.37-44.38-2.6-65.39,7A35.79,35.79,0,0,0,547,82.19Z"/></svg>