<svg id="Layer_1" data-name="Layer 1" xmlns="http://www.w3.org/2000/svg" viewBox="0 0 1133.86 1133.86"><defs><style>.cls-1{fill:#482d1f;}.cls-2{fill:#2d1911;}.cls-3{fill:#4f504d;}.cls-4{fill:#646461;}.cls-5{fill:#634439;}.cls-6{fill:#f9f9f9;}</style></defs><polygon class="cls-1" points="245.36 531.47 243.66 607.56 282.05 658.17 306.72 661.86 309.22 641.53 288.16 582.76 265.06 515.16 245.36 531.47"/><path class="cls-1" d="M369.17,473.59s-7.52,42.92-34,56.63-57.29,21.55-57.29,21.55L265,505.66l73.16-59.12Z"/><path class="cls-1" d="M750.11,510.07S766,539.3,809.47,541.25,851,531.06,851,531.06l-2.53-53.74L763.72,469Z"/><path class="cls-2" d="M280.94,528.1c14.36,56.36,47.68,125.68,51.83,149.09,1.12,6.36-27.77-23.73-29.88-22.81-1.91-1.88-43.78-110.1-44-112.33-2-25.95-1.44-51.94-1.48-77.93,2.27-2.75,0-4.35-2-6.88-.31,2.44-.54,4.21-.76,6-8.21,9.59-20,15.41-27.43,25.84-26.55,37.15-40.74,78-41.24,124.2-.54,49.66,10.2,95,42.22,134.11-1.46.38-4.22.06-3.59,2.21,1.78,6.11-1.21,10.47-4.42,14.91-14.11-2.77-17.25-17.83-27.62-24.77-.53.47-1.16.8-1.4,1.3a8.9,8.9,0,0,0-.82,2.84C188,769.7,187,795.11,200.49,819.11a208.92,208.92,0,0,0,20.82,29.76c-.86,5.46,1.77,7.06,6.73,6.1l3.17,2.07c-1,11.41-3.93,14.09-15.75,14.17-3.57-1.64-6.91-3.53-8.53-7.42-2-4.68,1.27-14.19-9.73-10.44C174,826,162.93,794.68,166.52,758.63c1.15-11.56,2.49-23.11,3.37-34.69.25-3.39.64-7.36,2.92-8.92,8-5.46,5.11-12.14,2.83-18.58-18.2-51.47-16.28-103.35-.83-154.64a195.84,195.84,0,0,1,39.95-71.63c5.07-5.85,11.48-9.94,17.84-14.13,2.93.22,6,.74,6.52-3.53l3.55-1.65c1.09,6.48,3.23,9.27,9.36,3.58,3.05-2.83,5.66-5.32,5.15-9.77.2-.75.41-1.49.61-2.23,1.68-.18,3-.82,3.09-2.74.15-2.35-1.19-3.32-3.33-3.52q.21-2.9.43-5.79l7-.07c.34,1.95.8,3.92,3.4,3.5.61-.1,1.63-1.4,1.49-1.77-.9-2.3-3.11-1.46-4.86-1.75a18.23,18.23,0,0,0,0-13.95c1.27-.2,2.74-.19,3-1.88,0-.33-.76-1.14-1.1-1.1-1.68.22-1.7,1.68-1.89,3l-6.19,0,.74-10,9.29,1.24c-1.94-4.75-3.31-8.55-8.23-9.37.28-1.95.55-3.9.83-5.85,7.32-4.48,7.76-5.61,3.7-9.51C269.26,355.84,280,331,291.2,306.34c3.82-8.43,7.42-17,11.12-25.44,5.49-3.5,11.82-5.56,16.28-10.84,23.53-27.89,51.42-51,80.19-73.22,20.9-16.12,47.46-19.78,70.08-32.11,11.61-1.37,23-4.6,34.85-4.08l4-.15a.85.85,0,0,1,1.27-.38l3.36-.59,4-.27c.24,4.16-4.47,2.73-6.16,5.36,5.19-.27,9.83.9,14.82.8,13.9-.27,27.74-3.49,41.81-.9,3.76.7,10.59,3.68,11.48-4.76l3.87,0c.45,9,8.46,4.13,12.07,5.29,11.61,3.75,23.67,2.21,33.9-5.92,14.36.51,26.87,7.17,39.92,12-.06,3.14,2.29,4.1,4.4,5.83,11.87,9.71,27.4,7.73,40.8,13.23,21.91,9,38.42,23.67,54.37,40.05,13.8,14.18,21.8,34,41.43,42.53,32.78,54.35,57.94,111.09,55.07,176.56q-.26,11.46-.5,22.91c-.08.63-.18,1.26-.31,1.88-1.88.51-3.73,1.15-3.23,3.66s2.66,2.25,4.39,2.74c-.17,26.43,6.22,53.6-8.9,78.35a6.23,6.23,0,0,0-.49,3.91c2.8,17.08-3,31.18-14.81,43.25-.37-2.62-1.13-5.34.59-7.72,14.75-20.39,5.33-40.32-1.18-60.27-1.09-3.33-4.24-6.18-2-10.14,3.9-.64,2.85-3.65,3.1-6.19,2.32-24.22-1.41-48.43-.23-72.61,1.48-30.31-4.19-59.51-13.93-87.83-6.54-19-16.28-36.88-25.19-55-21.79-44.37-55.95-75.66-99.41-97.78-24.85-12.64-52.83-16.83-77.84-29-2.11-3.72-4.85-3.21-7.83-1.19-7.38-.43-14.87,1.15-22.14-1.26-10.41-4.93-20.14-.12-30,2.09L540.47,178c-.38-2,.6-5.63-1.63-5.74-3.65-.18-1.84,3.69-2.52,5.77l-6,.53c-4.34-5-8.84-7.72-15.13-2.49-1.45,1.21-4.45.56-6.75.77-.24-1.23-.24-2.68-1.88-2.9-.32,0-1.12.75-1.07,1.07.22,1.64,1.68,1.63,2.9,1.88,0,1.42.05,2.84.08,4.27L495,182.61c.51-1.91,1-3.82,1.54-5.73l.43-.79-.44.78c-4.74-.34-8.64.35-8.08,6.56l-7.67.16c-1.52-4.67-7.58.49-9.5-4.57-.82-2.17,7.31-2.24.7-4-3.39-.89-5.52,1.22-5.36,5,.06,1.63,0,3.26,0,4.89-6.06,2.56-12,5.53-18.2,7.62-38.39,12.84-72,32.67-99.33,63.28-24.85,27.89-39.79,61-51.92,95.39-7.66,21.73-15.56,43.57-16.45,67.3C279.33,455.09,280.66,491.58,280.94,528.1Zm-16.48-79c-.24.55-.78,1.22-.63,1.61s1,.51,1.55.75c.24-.54.79-1.21.63-1.6S265,449.3,264.46,449.06Zm195.37-266.7c-.55-.23-1.22-.77-1.61-.62s-.51,1-.75,1.56c.55.23,1.22.77,1.61.61S459.59,182.91,459.83,182.36ZM269.73,391.65a8,8,0,0,0-.41,2.4c.22,1,.81,1,1.29.11a1.3,1.3,0,0,0,.11-1A10,10,0,0,0,269.73,391.65Zm261-218.21a2.4,2.4,0,0,0-.77.25c-.07.06.11.44.17.67a2.39,2.39,0,0,0,.78-.26C531,174,530.8,173.67,530.73,173.44ZM276.44,429.37l-.47-.29-.06.45Z"/><path class="cls-1" d="M863.39,474.12c.13-.62.23-1.25.31-1.88,12.3,5.12,20.21,15.66,29.8,24.13,0,2.59,1.62,3.73,3.91,4.24,2.91,5,4.63,10.46,7.56,15.52,9,15.45,17.51,31.15,21,49.07,7.45,37.79,9.78,75.69,1,113.44-5.67,24.26-14.58,47.54-30.44,67.28-4.38,5.46-9.57,10.06-10.19,17.55-3.36,2.66-4.38,7-.93,8.75,4.56,2.29,10.52,3.4,14.43-2.48,13.24-3.65,17.11-17.22,26.6-26,8,37.67,2.13,71.5-20.79,101.82-3.93,3.83-7.41,8.31-11.88,11.35-8,5.48-10.82,12.24-7.72,21.43-.54,1-1.76,1.87-.23,3l-.15-.56c-.32,2.14-1.65,2.91-3.69,2.7-.15-1.41-.29-2.81-.44-4.22-5.17-13.11-10.9-26-15.36-39.38-5.63-16.86-1.61-34.86-4.89-52.1-.56-2.95.1-6.2-3.37-7.49-3.82-1.42-6.54,1.18-8.38,3.77-5.51,7.73-7.56,16.49-8.32,26-2.39,29.9,10.53,55.21,23,80.76-4.16,2.54-8.15,5.7-13.52,3.41.57-7.83-4.79-11-10.76-13.65l-14.37-15.27c-.93-4.32-3.61-7.4-7-10l-10.44-28.09-1.83-4c-3.58-11.35-5.48-23.07-7.88-34.7a161.48,161.48,0,0,1,1.73-73.07c4.8-18.83,12.53-36.93,19.68-55.12a195,195,0,0,0,11.71-44.53c3.84-2.49,7.08-5.51,8.87-9.84C852.14,594,858,579.86,855.16,562.78a6.23,6.23,0,0,1,.49-3.91c15.12-24.75,8.73-51.92,8.9-78.35C864.17,478.39,863.78,476.25,863.39,474.12ZM900.76,694a31.18,31.18,0,0,0-1.66-13.68c-.84-2.23.65-5.91-3.35-6.12-3.62-.18-4,3.18-4.48,5.57-2.48,12.25-4.72,24.55-7,36.84-.83,4.43-.17,8.12,5.22,8.68,4.9.52,7-2.2,7.94-6.81C899,710.36,900.7,702.29,900.76,694Z"/><path class="cls-1" d="M257.45,464.12c0,26-.5,52,1.48,77.93.18,2.23-.56,4.66,1.35,6.53.24,3.58.85,7-.62,10.68-12.56,31.37-1.77,57.09,20,79.86,5.62,5.89,14.58,6,21,10.78q5.89,11.51,11.78,23c.79,14.55,10,26.9,11.83,40.81,8.05,60.09.8,116.47-43.89,162.51-11.09,3-10.08,10.32-6.74,18.52-12-1.47-24.23-2.12-35.19-8.1-3.9-2.13-9-3.15-9.32-9,3.76-6.56,11.59-12.69,2.14-20.61L228,855a13,13,0,0,0-6.73-6.1,208.92,208.92,0,0,1-20.82-29.76c-13.54-24-12.51-49.41-10.07-75.25a8.9,8.9,0,0,1,.82-2.84c.24-.5.87-.83,1.4-1.3,10.37,6.94,13.51,22,27.62,24.77,4.38,4.44,10.28,4.76,14.38,1.55,4.66-3.65-.17-8.48-1.58-12.64-.84-2.48-2-5-4.79-6-32-39.06-42.76-84.45-42.22-134.11.5-46.17,14.69-87,41.24-124.2,7.45-10.43,19.22-16.25,27.43-25.84Zm13.92,315v0c-1-4.24-3.69-5.91-7.84-4.82-3.93,1-4.37,4.24-4.3,7.65.06,3.22.09,6.43.14,9.65-2,4.71-2.07,9.65-1.86,14.66.66,15.14-1.38,29.66-8.85,43.23a173.88,173.88,0,0,0-9.35,20.84c-2.26,5.82.15,11.09,5.47,13.23s11.61,3.61,14.94-4.3c2.94-7,6.58-13.67,9.83-20.53,11.21-23.72,15.39-48,5.66-73.34C275.11,782.61,274.5,780.12,271.37,779.17ZM227.81,637.42c-1.69,4.43-6.29,7.5-4.81,13.17,2.78,10.67,7.51,20.45,13.06,29.87,1.71,2.89,4.07,5.74,8,3.12,3.28-2.19,5.63-5.45,3.18-9.23C239.7,662.68,237,648.53,227.81,637.42Zm23.57,17c.12,3.64,6.7,18.54,9.52,21.61,2.18,2.38,4.61,3.94,7.81,1.94s4.69-4.49,2.64-8.29a124.54,124.54,0,0,0-12.24-19.14c-1.46-1.82-3-2.54-5.11-1.91C251.06,649.54,251.62,652.21,251.38,654.43Z"/><path class="cls-2" d="M905.67,845.59c22.92-30.32,28.78-64.15,20.79-101.82-9.49,8.75-13.36,22.32-26.6,26-5.51.09-5.6-11.5-13.5-6.27.62-7.49,5.81-12.09,10.19-17.55,15.86-19.74,24.77-43,30.44-67.28,8.8-37.75,6.47-75.65-1-113.44-3.53-17.92-12.08-33.62-21-49.07-2.93-5.06-4.65-10.55-7.56-15.52.39-3.09-1-5.13-3.71-6.46,0-1.33-.07-2.66-.11-4l.47-.71-.42.76c-4.29-9,4-7.87,8.09-10.15.1,1.86.2,4.28,2.36,4.34s1.7-2.82,2.64-4.26c5.19,4,9.51,8.61,11.27,15.14-1.26,2.88-3.68,5.85-1.66,9s4.6-.59,7-.08l4.23,8L928.7,514q2.59,5.6,5.17,11.19c-4.9,13.35-3.71,16,7.25,16,9.06,21.69,11,44.88,12.67,67.82,1.35,18.38,2.79,37.38-2.74,55.3-4.3,14-4.14,28.84-10,42.31-1.58,3.64-1.15,6.11,1.08,9.76,7.87,12.9,6.81,27.92,8.43,42.26,4.17,36.91-4.2,70.26-28.29,99.11-1.89-4-3.12-8.31-9.57-6.81A6,6,0,0,1,905.67,845.59ZM924.53,518l-2,2.12c.66.57,1.33,1.56,2,1.57s1.34-1,2-1.55Zm-25.89-25.3c.28-.55.74-1.05.73-1.53s-.51-1-.79-1.43c-.26.48-.73,1-.73,1.46S898.33,492.13,898.64,492.67Zm20.14,24,.29-.82c-.24-.08-.63-.29-.69-.22a1.31,1.31,0,0,0-.28.79C918.11,516.5,918.54,516.58,918.78,516.66Z"/><path class="cls-2" d="M861.26,538.42c-4.87,53-35.89,107.74-41.49,122-7.15,18.19-14.88,36.29-19.68,55.12a161.48,161.48,0,0,0-1.73,73.07c2.4,11.63,4.3,23.35,7.88,34.7-2,1.28-5.06,1.4-5.48,4.68,2.68,1.87,4.84-1.08,7.31-.65l10.44,28.09c-1.54.2-3.45-.09-3.89,2-1.72,8.21.31,9.66,10.93,8l14.37,15.28c-.07,1.55-.13,3.1-.19,4.64-1.45.26-3.15.21-3,2.4a.88.88,0,0,0,.62.62c2.19.14,2.15-1.55,2.4-3,8.06,3.21-1.23,7.27.5,10.87.57,1.18.41,2.61-1.49,2.74-3.79.27-2.1-4.34-4.22-6.1l-3,7.12c-2.68-.47-4.23-2.49-5.92-4.31,2.83-8.34-2.06-8.89-8.22-8.16a6.45,6.45,0,0,1-4.34-5.86c5-9.52,3.06-12.18-8.52-11.75-5.6-3.46-6.63-9.79-8.92-15.09C776.8,811.3,768.37,766.34,776.51,719a110.5,110.5,0,0,1,7.22-23.69c8.52-20.47,53.64-169.15,61.35-189.87C850.41,494.43,852.76,525.23,861.26,538.42ZM799.66,815.1c-.34-1.17-.36-3-2.14-2.39-.78.27-1.38,2-1.46,3.07s.2,2.89,2.07,2.45C799.59,817.89,799.69,816.43,799.66,815.1ZM827,877.86c-.21-.55-.3-1.39-.68-1.56s-1.06.34-1.6.55c.21.55.29,1.38.68,1.56S826.43,878.07,827,877.86Z"/><path class="cls-2" d="M280.32,876.24c44.69-46,51.94-102.42,43.89-162.51-1.86-13.91-11-26.26-11.82-40.82,3.49-4.89,7.28-8.14,12.57-2.1a8.86,8.86,0,0,0,7.81,3C348.74,704,353,736.39,349.5,770c-2.78,26.53-10.18,51.91-20.56,76.49-3.91,9.26-8.51,17.88-15.78,24.92-3.37.16-7.43-1.12-9.26,2.95-1.17,2.61,2.48,3.29,3.17,5.33l-1.74,1.85C296,884.61,287.56,883.21,280.32,876.24Z"/><path class="cls-2" d="M864.2,890.88c-12.43-25.55-25.35-50.86-23-80.76.76-9.55,2.81-18.31,8.32-26,1.84-2.59,4.56-5.19,8.38-3.77,3.47,1.29,2.81,4.54,3.37,7.49,3.28,17.24-.74,35.24,4.89,52.1,4.46,13.35,10.19,26.27,15.36,39.38-5.27,1.2-8.74,4.28-10,9.63C869.7,891.88,867,891.44,864.2,890.88Z"/><path class="cls-2" d="M893.59,490.16c0,1.33.07,2.66.11,4-.07.74-.13,1.48-.2,2.22-9.59-8.47-17.5-19-29.8-24.13q.24-11.44.5-22.91c12.48,5.81,25,11.55,35.41,20.84,3,2.73,7,5.14,7.19,10.05l-5.07-.16c-4.08,2.28-12.38,1.19-8.09,10.15Z"/><path class="cls-2" d="M905.67,845.59a6,6,0,0,0,7.06,5.41c6.45-1.5,7.68,2.76,9.57,6.81C917,867.23,908,873,900.83,880.69c-5.42,5.81-10.16-2.59-15.14.12l.15.55q1.85-1.36.23-3c-3.1-9.19-.32-16,7.72-21.43C898.26,853.9,901.74,849.42,905.67,845.59Z"/><path class="cls-2" d="M578.37,159.76c-.89,8.44-7.72,5.46-11.48,4.76-14.07-2.59-27.91.63-41.81.9-5,.1-9.63-1.07-14.82-.8,1.69-2.63,6.4-1.2,6.16-5.36C537.1,154.6,557.75,155.52,578.37,159.76Z"/><path class="cls-2" d="M280.32,876.24c7.24,7,15.65,8.37,25,5.25-2.9,4.82-7.81,7.58-11.67,11.42-6.22,6.2-12.71,8.59-20.08,1.85C270.24,886.56,269.23,879.2,280.32,876.24Z"/><path class="cls-2" d="M332.77,673.78a8.86,8.86,0,0,1-7.81-3c-5.29-6-9.08-2.79-12.57,2.1l-11.79-23,18.1,1.67C322.62,659.47,331.33,664.32,332.77,673.78Z"/><path class="cls-2" d="M628.21,159.1c-10.23,8.13-22.29,9.67-33.9,5.92-3.61-1.16-11.62,3.67-12.07-5.29C597.49,154.14,612.83,155,628.21,159.1Z"/><path class="cls-2" d="M839.73,885.29c.06-1.54.12-3.09.19-4.64,6,2.66,11.33,5.81,10.76,13.64-7.28,11.37-10.6,12.35-19.15,5.65l3-7.12c2.12,1.76.43,6.37,4.22,6.1,1.9-.13,2.06-1.56,1.49-2.74-1.73-3.6,7.56-7.66-.5-10.87Z"/><path class="cls-2" d="M231.21,857c9.45,7.92,1.62,14.05-2.14,20.61-5.38-.37-10.71-.83-13.61-6.44C227.28,871.13,230.25,868.45,231.21,857Z"/><path class="cls-2" d="M257.18,444.67c.51,4.45-2.1,6.94-5.15,9.77-6.13,5.69-8.27,2.9-9.36-3.58C246.57,446.62,252.16,446.32,257.18,444.67Z"/><path class="cls-2" d="M265,430.33l-7,.06a24.85,24.85,0,0,1,.81-14l6.19,0,0,0a18.23,18.23,0,0,1,0,13.95Z"/><path class="cls-2" d="M941.12,541.25c-11,0-12.15-2.67-7.25-16A45.15,45.15,0,0,1,941.12,541.25Z"/><path class="cls-2" d="M804.53,869.86c11.58-.43,13.51,2.23,8.52,11.75A28,28,0,0,1,804.53,869.86Z"/><path class="cls-2" d="M197.2,853.35c11-3.75,7.78,5.76,9.73,10.44C203.32,860.65,199.22,858,197.2,853.35Z"/><path class="cls-2" d="M260.59,398.27c4.92.82,6.29,4.62,8.23,9.37l-9.29-1.24C259.16,403.6,258.59,400.77,260.59,398.27Z"/><path class="cls-2" d="M871.51,888.91c1.31-5.35,4.78-8.43,10-9.63.15,1.41.29,2.81.44,4.22C878.65,885.58,877.09,891.15,871.51,888.91Z"/><path class="cls-2" d="M923.32,504.17c-2.38-.51-5.05,3.06-7,.08s.4-6.09,1.66-9C920.74,497.67,922.12,500.86,923.32,504.17Z"/><path class="cls-2" d="M307.07,879.64c-.69-2-4.34-2.72-3.17-5.33,1.83-4.07,5.89-2.79,9.26-2.95A21.18,21.18,0,0,1,307.07,879.64Z"/><path class="cls-2" d="M817.39,887.47c6.16-.73,11.05-.18,8.22,8.16C822,893.75,819.68,890.64,817.39,887.47Z"/><path class="cls-2" d="M265.12,382.91c4.06,3.9,3.62,5-3.7,9.51C260.9,388.57,262.93,385.71,265.12,382.91Z"/><path class="cls-2" d="M257.55,436.18c2.14.2,3.48,1.17,3.33,3.52-.11,1.92-1.41,2.56-3.09,2.74A8.1,8.1,0,0,1,257.55,436.18Z"/><path class="cls-2" d="M901.73,480.06l5.07.16-.07-.08c-.94,1.44-.41,4.31-2.64,4.26S901.83,481.92,901.73,480.06Z"/><path class="cls-2" d="M239.12,452.51c-.5,4.27-3.59,3.75-6.52,3.53C234,453.35,236.6,453.05,239.12,452.51Z"/><path class="cls-3" d="M928.7,514l-1.15-1.91Z"/><path class="cls-3" d="M512.39,159.53l-3.36.59Z"/><path class="cls-3" d="M507.76,160.5l-4,.15C505,159.84,506.36,159.28,507.76,160.5Z"/><path class="cls-1" d="M594.3,177c7.27,2.41,14.76.83,22.14,1.26,2,4.2,5,2.3,7.83,1.19,25,12.15,53,16.34,77.84,29,43.46,22.12,77.62,53.41,99.41,97.78,8.91,18.14,18.65,36,25.19,55,9.74,28.32,15.41,57.52,13.93,87.83-1.18,24.18,2.55,48.39.23,72.61-.25,2.54.8,5.55-3.1,6.19,0-4.78-3.94-6.8-7-9-21.09-15.24-43.24-20.36-67.06-6.08l-13.6-2.75-2.27-1.41-.2-.4c-.51-4.21-4.52-4.5-7.17-6.13-11.3-7-20.35-15.88-25.25-28.43-7.59-19.46-15.16-38.93-19.09-59.58-.67-3.53-.51-8.47-4-9.54-3.12-.95-1.07-7.73-6.32-4.74-3.54,2-6.32,3.92-6.07,9A98.47,98.47,0,0,0,685.28,436c2.85,8.34-.15,9.68-7.7,9-27.91-2.51-47.59-19.78-54.8-49.51-1.6-6.58-5.16-12.14-7.1-18.45a5.22,5.22,0,0,0-6.18-3.64c-2.43.49-3.4,2.88-3.47,5.42a94,94,0,0,0,1.28,19.78c4,21.13,17.41,35.94,32,50.17-12,7-24.66,11.17-38.64,8.27-20.28-4.21-40.34-2.54-59.72,3.61-17.83,5.66-34.54,4.3-50.82-3.93-5.72-2.88-10.18-2.66-15.7.4-14.62,8.11-30.26,3.93-45.57,2.6-1.82-.15-1.81-2.45-1.46-4.15,4,2.53,8.21,2.77,11.8-.43,3.37-3,1.07-6.63.32-10.15a65.65,65.65,0,0,1,3.6-39.66c3.15-7.59,5.89-15.35,8.73-23.06a6.56,6.56,0,0,0-2.33-8c-3.41-2.45-5.35.68-7.41,2.7a52.66,52.66,0,0,0-14.92,26.42c-2.83,12.66-6.9,24.54-16.33,33.94l-3.09-3.22,0-3.52-.19-4.24c-1.09-5.5-.45-12.25-8.93-12.47-4,.58-3.68,3.67-3.81,6.5-2.63,3.68-1.94,7.89-1.93,12a2.72,2.72,0,0,0-.17,4l-1.7,7.95-1,3.68c-.45,1.43-.89,2.86-1.33,4.3-1.68.86-1.93,2.36-1.83,4-4.13,5.94-5.48,13.06-8.27,19.56l-3.44,8.39-4.21,5.11c-9.13,9.1-17.83,18.66-28.26,26.37-2.64,1.35-5.15,2.9-8.36,2.71-18.55-1.12-36.15,3-53.29,9.69-.28-36.52-1.61-73-.24-109.55.89-23.73,8.79-45.57,16.45-67.3,12.13-34.42,27.07-67.5,51.92-95.39,27.29-30.61,60.94-50.44,99.33-63.28,6.22-2.09,12.14-5.06,18.2-7.62l14.13-1.37,7.67-.17c2.51,2.38,4.54.85,6.55-.81l13.56-1.45,21.85-2.59,6-.53,4.15,0,23.78,1.12C574.52,182.09,584.67,183.27,594.3,177Zm-42.25,55.11c-4.36-2.4-8.67-4.88-13.08-7.17-11-5.71-22.48-7.91-34.63-4.42-2.16.62-4.77,1.42-5.07,4.17-.37,3.38,2.58,4.41,4.92,5.43a24.64,24.64,0,0,0,6.71,1.78c11.39,1.4,22,4.33,30.55,12.78,2.09,2.06,6.28,4.9,8.74,1.51,3.45-4.75,9-5.29,13-8.54,8.83-.81,17.55-2,26.33,1.36,6.43,2.43,10.7-1.85,13.14-7.2,2.12-4.65-1.1-7.25-5.12-9C583.67,216.71,562.66,221,552.05,232.15Zm-53.72,135.9c-4.56,1.3-7.49,4.46-9.73,8.43l-2.49,3.25c-2.09.92-2.69,2.78-3,4.8-12.18,17.12-15.69,36.57-15.44,57.06.07,5.29,3.07,6.78,7.68,6.79s7.32-1.62,7.21-7c-.37-18.65,5.35-35.61,14.79-51.49,3.68-6.19,8.38-11.93,9.2-19.48,2.38-2.14,2.42-5.64.34-6.6-2.87-1.32-5.16,1.48-6.53,4.25Zm32.77,31.42c-.18,4-.47,7.93-.5,11.89a49.86,49.86,0,0,0,10.8,32.16c3.08,3.91,6.84,4,10.48,1.53,3.17-2.18,4.73-5.19,2.53-9.41-8.41-16.21-9.39-33.49-6.95-51.23a104.28,104.28,0,0,0,.89-10.88c.14-4.47-1.67-7.88-6.43-8.6-4.5-.68-6.4,2.35-7.78,6.07C530.72,380.24,531.22,389.89,531.1,399.47Zm41.09,36.06c-.28,9.34,3.25,12.65,9.73,10.71C586,445,587,441.88,587.79,438c3.41-17.65,4.53-35.83,13.66-52.14,2.24-4,4.82-11.89-.89-14.31-5.28-2.23-9.8,3.6-12.77,8.59C577.34,397.67,575.81,417.66,572.19,435.53ZM387.64,272.46c-1.44-3.19-.57-6.44-3.29-7.93s-5.41.24-7.26,1.78c-12.71,10.56-23.73,22.6-31.68,37.28-1.88,3.48-3.77,7,.25,9.47s6.93-1.41,8.78-4.26c6.67-10.3,15.38-18.6,24.51-26.62C382.29,279.25,384.93,275.53,387.64,272.46Zm6.7,25.84c.43-4.14-.75-7.77-5.52-7.26-6.59.69-7.44,6.93-8.76,11.76-1,3.64,1.78,6.64,5.55,6.58C392.56,309.27,393.82,303.94,394.34,298.3Z"/><path class="cls-2" d="M374.34,506.1c-1,4-4.89,5.68-7.25,8.6-1.83,2.27-4,4.35-1.11,7.29-6.37-.65-12.74-1.37-19.12-1.93-2.8-.24-3.88-1.89-4.26-4.36,10.42-7.71,19.12-17.27,28.25-26.37C371.82,495,364.57,502.3,374.34,506.1Z"/><path class="cls-2" d="M756.47,525.34c-7.16.17-13-3.25-18.58-7.07.24-5.17-1.69-7.26-6.82-4.81l-.59-.41c3.95-4.07,6.73-11.78,14.32-4.49.45.42,1.87-.18,2.84-.3l.2.39,2.27,1.42,13.6,2.75C764,518.55,760.14,521.9,756.47,525.34Z"/><path class="cls-2" d="M228.27,747.37c2.81,1,3.95,3.55,4.79,6,1.41,4.16,6.24,9,1.58,12.64-4.1,3.21-10,2.89-14.38-1.55,3.21-4.44,6.2-8.8,4.42-14.91C224.05,747.43,226.81,747.75,228.27,747.37Z"/><path class="cls-2" d="M594.3,177c-9.63,6.23-19.78,5.05-30,2.09C574.16,176.92,583.89,172.11,594.3,177Z"/><path class="cls-2" d="M530.36,178.57l-21.85,2.59c0-1.42-.05-2.84-.08-4.26l.05-.05c2.3-.21,5.3.44,6.75-.77C521.52,170.85,526,173.57,530.36,178.57Z"/><path class="cls-2" d="M480.73,183.59,466.6,185c0-1.63,0-3.26,0-4.89-.16-3.8,2-5.91,5.36-5,6.61,1.73-1.52,1.8-.7,4C473.15,184.08,479.21,178.92,480.73,183.59Z"/><path class="cls-2" d="M495,182.61c-2,1.66-4,3.19-6.55.81-.56-6.2,3.34-6.89,8.08-6.55h0C496,178.79,495.46,180.7,495,182.61Z"/><path class="cls-2" d="M221.31,848.87A13,13,0,0,1,228,855C223.08,855.93,220.45,854.33,221.31,848.87Z"/><path class="cls-2" d="M624.27,179.49c-2.84,1.11-5.8,3-7.83-1.19C619.42,176.28,622.16,175.77,624.27,179.49Z"/><path class="cls-2" d="M540.47,178l-4.15,0c.68-2.08-1.13-5.95,2.52-5.77C541.07,172.38,540.09,176,540.47,178Z"/><path class="cls-2" d="M863.39,474.12c.39,2.13.78,4.27,1.16,6.4-1.73-.49-3.92-.38-4.39-2.74S861.51,474.63,863.39,474.12Z"/><path class="cls-2" d="M257.45,464.12l-2.73-.9c.22-1.77.45-3.54.76-6C257.49,459.77,259.72,461.37,257.45,464.12Z"/><path class="cls-2" d="M265,430.3c1.75.29,4-.55,4.86,1.75.14.37-.88,1.67-1.49,1.77-2.6.42-3.06-1.55-3.4-3.5Z"/><path class="cls-2" d="M264.46,449.06c.55.24,1.4.37,1.55.76s-.39,1.06-.63,1.6c-.54-.24-1.39-.36-1.55-.75S264.22,449.61,264.46,449.06Z"/><path class="cls-2" d="M265,416.33c.19-1.28.21-2.74,1.89-3,.34,0,1.15.77,1.1,1.1-.22,1.69-1.69,1.68-3,1.88Z"/><path class="cls-2" d="M508.43,176.9c-1.22-.25-2.68-.24-2.9-1.88,0-.32.75-1.12,1.07-1.07,1.64.22,1.64,1.67,1.88,2.9Z"/><path class="cls-2" d="M459.83,182.36c-.24.55-.36,1.4-.75,1.55s-1.06-.38-1.61-.61c.24-.55.36-1.4.75-1.56S459.28,182.13,459.83,182.36Z"/><path class="cls-2" d="M269.73,391.65a10,10,0,0,1,1,1.55,1.3,1.3,0,0,1-.11,1c-.48.91-1.07.89-1.29-.11A8,8,0,0,1,269.73,391.65Z"/><path class="cls-3" d="M530.73,173.44c.07.23.25.6.18.66a2.39,2.39,0,0,1-.78.26c-.06-.23-.24-.61-.17-.67A2.4,2.4,0,0,1,530.73,173.44Z"/><path class="cls-3" d="M496.48,176.87l.44-.78-.43.79Z"/><polygon class="cls-4" points="276.44 429.37 275.91 429.53 275.96 429.08 276.44 429.37"/><path class="cls-5" d="M900.76,694c-.06,8.29-1.78,16.36-3.36,24.48-.9,4.61-3,7.33-7.94,6.81-5.39-.56-6.05-4.25-5.22-8.68,2.31-12.29,4.55-24.59,7-36.84.48-2.39.86-5.75,4.48-5.57,4,.21,2.51,3.89,3.35,6.12A31.18,31.18,0,0,1,900.76,694Z"/><path class="cls-2" d="M886.36,763.47c7.9-5.23,8,6.36,13.5,6.27-3.91,5.88-9.87,4.77-14.43,2.48C882,770.49,883,766.13,886.36,763.47Z"/><path class="cls-2" d="M825.55,865.37c-10.62,1.68-12.65.23-10.93-8,.44-2.07,2.35-1.78,3.89-2C821.94,858,824.62,861.05,825.55,865.37Z"/><path class="cls-2" d="M808.07,827.32c-2.47-.43-4.63,2.52-7.31.65.42-3.28,3.45-3.4,5.48-4.68Z"/><path class="cls-2" d="M893.5,496.37c.07-.74.13-1.48.2-2.22,2.68,1.33,4.1,3.37,3.71,6.46C895.12,500.1,893.52,499,893.5,496.37Z"/><path class="cls-6" d="M886.07,878.37q1.62,1.62-.23,3C884.31,880.24,885.53,879.33,886.07,878.37Z"/><path class="cls-2" d="M275.2,785.42c9.73,25.34,5.55,49.62-5.66,73.34-3.25,6.86-6.89,13.55-9.83,20.53-3.33,7.91-9.64,6.43-14.94,4.3s-7.73-7.41-5.47-13.23a173.88,173.88,0,0,1,9.35-20.84c7.47-13.57,9.51-28.09,8.85-43.23-.21-5-.14-9.95,1.86-14.66l11.38-1.86c-2.28-3.36-6.87-2.11-8.07-5.57,2.77-2.3,5.19-4.6,8.69-5.05v0C270.85,782.36,270.67,785.33,275.2,785.42Z"/><path class="cls-5" d="M227.81,637.42c9.14,11.11,11.89,25.26,19.43,36.93,2.45,3.78.1,7-3.18,9.23-3.93,2.62-6.29-.23-8-3.12-5.55-9.42-10.28-19.2-13.06-29.87C221.52,644.92,226.12,641.85,227.81,637.42Z"/><path class="cls-5" d="M251.37,654.43c.25-2.22-.31-4.89,2.63-5.79,2.07-.63,3.65.09,5.11,1.91a124.54,124.54,0,0,1,12.24,19.14c2,3.8.51,6.32-2.64,8.29s-5.63.44-7.81-1.94C258.08,673,251.5,658.07,251.37,654.43Z"/><path class="cls-2" d="M271.36,779.15c-3.5.45-5.92,2.75-8.69,5.05,1.2,3.46,5.79,2.21,8.07,5.57l-11.38,1.86c-.05-3.22-.08-6.43-.14-9.65-.07-3.41.37-6.62,4.3-7.65C267.67,773.24,270.36,774.91,271.36,779.15Z"/><path class="cls-2" d="M275.2,785.42c-4.53-.09-4.35-3.06-3.83-6.25C274.5,780.12,275.11,782.61,275.2,785.42Z"/><path class="cls-2" d="M924.53,518l2,2.14c-.67.55-1.35,1.55-2,1.55s-1.35-1-2-1.57Z"/><path class="cls-2" d="M898.64,492.67c-.31-.54-.79-1-.79-1.5s.47-1,.73-1.46c.28.47.77.94.79,1.43S898.92,492.12,898.64,492.67Z"/><path class="cls-2" d="M918.78,516.66c-.24-.08-.67-.16-.68-.25a1.31,1.31,0,0,1,.28-.79c.06-.07.45.14.69.22Z"/><path class="cls-4" d="M893.64,490.21l.42-.76-.47.71Z"/><path class="cls-2" d="M799.66,815.1c0,1.33-.07,2.79-1.53,3.13-1.87.44-2.17-1.27-2.07-2.45s.68-2.8,1.46-3.07C799.3,812.1,799.32,813.93,799.66,815.1Z"/><path class="cls-3" d="M839.74,885.31c-.25,1.45-.21,3.14-2.4,3a.88.88,0,0,1-.62-.62c-.14-2.19,1.56-2.14,3-2.4Z"/><path class="cls-3" d="M827,877.86c-.55.21-1.23.72-1.6.55s-.47-1-.68-1.56c.54-.21,1.22-.72,1.6-.55S826.77,877.31,827,877.86Z"/><path class="cls-2" d="M747.64,508.26c-1,.12-2.39.72-2.84.3-7.59-7.29-10.37.42-14.32,4.49-3.39-.66-5.61-3.17-8.17-5.17l-17.19-20a12.94,12.94,0,0,1-1.31-2.67c-4-16.79-11.4-27.88-32-25.6-11.34,1.26-21.89-6.48-32.54-10.89-14.55-14.23-28-29-32-50.17A94,94,0,0,1,606,378.78c.07-2.54,1-4.93,3.47-5.42a5.22,5.22,0,0,1,6.18,3.64c1.94,6.31,5.5,11.87,7.1,18.45,7.21,29.73,26.89,47,54.8,49.51,7.55.68,10.55-.66,7.7-9a98.47,98.47,0,0,1-5.56-27.14c-.25-5.06,2.53-7,6.07-9,5.25-3,3.2,3.79,6.32,4.74,3.51,1.07,3.35,6,4,9.54,3.93,20.65,11.5,40.12,19.09,59.58,4.9,12.55,13.95,21.46,25.25,28.43C743.12,503.76,747.13,504.05,747.64,508.26Z"/><path class="cls-2" d="M427.36,455.53a2,2,0,0,0-1.08-1.06c-1.07-3.19-.6-7.49-5.59-7.93-.14-2.83.47-6.28-4.49-4.06-2.25,1-4.83,1.27-7.26,1.86-1.8-.81-2.19-2.37-2.2-4.13,2,0,3.66-.63,4.08-2.91,9.43-9.4,13.5-21.28,16.33-33.94a52.66,52.66,0,0,1,14.92-26.42c2.06-2,4-5.15,7.41-2.7a6.56,6.56,0,0,1,2.33,8c-2.84,7.71-5.58,15.47-8.73,23.06a65.65,65.65,0,0,0-3.6,39.66c.75,3.52,3,7.14-.32,10.15C435.57,458.3,431.39,458.06,427.36,455.53Z"/><path class="cls-2" d="M531.1,399.47c.12-9.58-.38-19.23,3-28.47,1.38-3.72,3.28-6.75,7.78-6.07,4.76.72,6.57,4.13,6.43,8.6a104.28,104.28,0,0,1-.89,10.88c-2.44,17.74-1.46,35,6.95,51.23,2.2,4.22.64,7.23-2.53,9.41-3.64,2.48-7.4,2.38-10.48-1.53a49.86,49.86,0,0,1-10.8-32.16C530.63,407.4,530.92,403.43,531.1,399.47Z"/><path class="cls-2" d="M506.53,370.45c-.82,7.55-5.52,13.29-9.2,19.48-9.44,15.88-15.16,32.84-14.79,51.49.11,5.34-2.49,7-7.21,7s-7.61-1.5-7.68-6.79c-.25-20.49,3.26-39.94,15.44-57.06,2.8-.47,3.6-2.2,3-4.8l2.49-3.25c8.72,3.51,8.71-3.05,9.73-8.43l2,.05C501.7,370.76,504.18,370.44,506.53,370.45Z"/><path class="cls-2" d="M572.19,435.53c3.62-17.87,5.15-37.86,15.6-55.39,3-5,7.49-10.82,12.77-8.59,5.71,2.42,3.13,10.3.89,14.31-9.13,16.31-10.25,34.49-13.66,52.14-.75,3.88-1.76,7-5.87,8.24C575.44,448.18,571.91,444.87,572.19,435.53Z"/><path class="cls-2" d="M406.74,440.21c0,1.76.4,3.32,2.19,4.13-.7,5.18-5.51,10.28-.33,15.58-5.41.67-5.15,8.47-10.94,8.67-3.39-.42-6.88-.69-8.32,3.32-1.17,3.25-.1,5.83,3.48,6.91l-2.12,5.37c-10.19,2.35-16.92,11.53-13.66,18.64l-2.7,3.27c-9.77-3.8-2.52-11.14-3.49-16.77l4.21-5.11c3.22-.88,6.58-1.48,9.21-4.13l-5.77-4.26c2.79-6.5,4.14-13.62,8.27-19.56,1.75-.21,4.17.58,4.84-1.61s-1.62-2.05-3-2.42c.44-1.44.88-2.87,1.33-4.3,2-.19,5.23,1.53,5.58-1.68.27-2.45-2.77-1.75-4.54-2,.57-2.65,1.13-5.3,1.7-7.95,2-1.24,2.13-2.56.17-4,0-4.11-.7-8.32,1.93-12,6.38.83,4.2-3.36,3.81-6.5,8.48.22,7.84,7,8.92,12.47-1.11.29-3.09.42-3.18.89-.42,2.4,1.7,2.74,3.38,3.35,0,1.17,0,2.35,0,3.52C402.53,435.33,403.77,437.63,406.74,440.21Z"/><path class="cls-5" d="M563.24,237.69c-4,3.25-9.6,3.79-13,8.54-2.46,3.39-6.65.55-8.74-1.51-8.55-8.45-19.16-11.38-30.55-12.78a24.64,24.64,0,0,1-6.71-1.78c-2.34-1-5.29-2-4.92-5.43.3-2.75,2.91-3.55,5.07-4.17C516.49,217.07,528,219.27,539,225c4.41,2.29,8.72,4.77,13.08,7.16-2.07,1.83-6.41-.86-7.11,3.49a2.8,2.8,0,0,0,1.35,2.28c2.49,1,5.94,1.64,7.13-.86C557.59,228.3,560.12,235.84,563.24,237.69Z"/><path class="cls-5" d="M387.64,272.46c-2.71,3.07-5.35,6.79-8.69,9.72-9.13,8-17.84,16.32-24.51,26.62-1.85,2.85-4.65,6.77-8.78,4.26s-2.13-6-.25-9.47c7.95-14.68,19-26.72,31.68-37.28,1.85-1.54,4.48-3.31,7.26-1.78S386.2,269.27,387.64,272.46Z"/><path class="cls-2" d="M563.24,237.69c-3.12-1.85-5.65-9.39-9.82-.64-1.19,2.5-4.64,1.84-7.13.86a2.8,2.8,0,0,1-1.35-2.28c.7-4.35,5-1.66,7.11-3.49,10.61-11.16,31.62-15.43,45.54-9.31,4,1.77,7.24,4.37,5.12,9-2.44,5.35-6.71,9.63-13.14,7.2C580.79,235.73,572.07,236.88,563.24,237.69Z"/><path class="cls-5" d="M394.34,298.3c-.52,5.64-1.78,11-8.73,11.08-3.77.06-6.54-2.94-5.55-6.58,1.32-4.83,2.17-11.07,8.76-11.76C393.59,290.53,394.77,294.16,394.34,298.3Z"/><path class="cls-2" d="M498.33,368.05c-1,5.38-1,11.94-9.73,8.43C490.84,372.51,493.77,369.35,498.33,368.05Z"/><path class="cls-2" d="M506.53,370.45c-2.35,0-4.83.31-6.19-2.35,1.37-2.77,3.66-5.57,6.53-4.25C509,364.81,508.91,368.31,506.53,370.45Z"/><path class="cls-2" d="M378.5,475.83l5.77,4.26c-2.63,2.65-6,3.25-9.21,4.13Z"/><path class="cls-2" d="M406.74,440.21c-3-2.58-4.21-4.88,1-6.13l3.08,3.22C410.4,439.58,408.78,440.2,406.74,440.21Z"/><path class="cls-2" d="M398.58,413.85c.39,3.14,2.57,7.33-3.81,6.5C394.9,417.52,394.61,414.43,398.58,413.85Z"/><path class="cls-2" d="M388.6,452.24c1.39.37,3.68.22,3,2.42s-3.09,1.4-4.84,1.61C386.67,454.6,386.92,453.1,388.6,452.24Z"/><path class="cls-2" d="M391,444.26c1.77.25,4.81-.45,4.54,2-.35,3.21-3.55,1.49-5.58,1.68C390.27,446.71,390.62,445.48,391,444.26Z"/><path class="cls-2" d="M407.7,430.56c-1.68-.61-3.8-.95-3.38-3.35.09-.47,2.07-.6,3.18-.89C407.57,427.73,407.63,429.15,407.7,430.56Z"/><path class="cls-2" d="M486.11,379.73c.58,2.6-.22,4.33-3,4.8C483.42,382.51,484,380.65,486.11,379.73Z"/><path class="cls-2" d="M392.84,432.35c2,1.4,1.81,2.72-.17,4A2.72,2.72,0,0,1,392.84,432.35Z"/><path class="cls-3" d="M750.11,510.07l-2.27-1.42C748.59,509.13,749.35,509.6,750.11,510.07Z"/><path class="cls-2" d="M408.6,459.92c-5.18-5.3-.37-10.4.33-15.58,2.44-.59,5-.85,7.27-1.86,5-2.22,4.35,1.23,4.49,4.06L416.38,454C413,455,412.39,459.51,408.6,459.92Z"/><path class="cls-2" d="M377,502.83c-3.26-7.11,3.47-16.29,13.66-18.64C389.32,492.73,382,496.89,377,502.83Z"/><path class="cls-2" d="M392.82,478.82c-3.58-1.08-4.65-3.66-3.48-6.91,1.44-4,4.93-3.74,8.32-3.32C396.35,472.14,396.27,476.28,392.82,478.82Z"/><path class="cls-2" d="M416.38,454l4.31-7.46c5,.44,4.52,4.74,5.59,7.93Z"/><path class="cls-2" d="M731.07,513.46c5.13-2.45,7.06-.36,6.82,4.81Z"/><path class="cls-4" d="M639.46,506.52l2.58-.43A1.66,1.66,0,0,1,639.46,506.52Z"/></svg>