<svg id="Layer_1" data-name="Layer 1" xmlns="http://www.w3.org/2000/svg" viewBox="0 0 1133.86 1133.86"><defs><style>.cls-1{fill:#cab19d;}.cls-2{fill:#ccb299;}.cls-3{fill:#4d4a46;}.cls-4{fill:#5b5754;}.cls-5{fill:#656461;}.cls-6{fill:#f9f9f3;}</style></defs><path class="cls-1" d="M330.73,672s22.53-7.51,24-11.52c0,0,64.08,25,101.13,27s57.57,11,57.57,11l-5.16,90.4,80.84,1.48,3.43-96.88s14.51,3,44.55-9L698.7,664c6-2,42.06-15,42.06-15l51.92,88.76L774.59,869.11l-10.8,89.63s-402.22,4-445.08-18.71-62.45-222.32-62.45-222.32Z"/><path class="cls-2" d="M546.74,161.74l7.84,4.29c1.91,12.13,4.53,13.26,22.29,9.61,13.77,2.48,27.51,5.26,41.63,4.69l3.81.54,2.86.92,7.77.6,5.15.84L653.37,185a8,8,0,0,0,7.91,2,13.66,13.66,0,0,0,8.83,2.19,14.79,14.79,0,0,0,11.25,4.37c30.7,14.43,59.71,31.47,85,54.35,59,44.59-26.91-49.31,78.13,186.7,18.63,41.87,33.7,84.88,43.48,129.92,9.86,45.45,15,91.09,13.88,137.44-.52,21.08,1.81,42.28-4.14,63.23-8.76,30.86-19.48,60.43-43.22,83.4-2.48,1.75-5,3.48-5.17,6.93-48.27,44.17-47.29,71.9-110.86,80.07-9.71-2.08-15.82-8.38-21.54-16.26-11-15.17-23.43-28.75-42.57-34.56-6.67-2-14.27-4.33-19-10.51,24.13-13.87,51.6-6.64,76.06-15.17-.62,2.34-1.23,4.68-1.85,7-.65,4.84-4.37,11.73,2.11,13.42,5.2,1.35,13,1.93,16.84-5.32,7.41-2.12,8.32-10.9,14.57-14.2,4.12-3.52,8.24-7,9.41-12.74,12.64-14.54,23.4-30,23.82-50.29l.29-.34c5.43,1,5.16-2.65,5.1-6.16l.92-2.85c7.84-10.83,4.79-25.28,12-36.33,1.7,1.83,3.91,3.4,5,5.54,7.75,14.93-19.79,21.49-3.86,20.13,17.19-1.46,9.93-18.83,14.33-36.14a69.29,69.29,0,0,1,13.85-27c16.09-19.5,19.49-43,21-66.67,1-14.94.88-29.65-5.85-44.72-6.51-14.55-17.41-25.76-24-40.07-9.16-19.84-.18-16.29-21.65-14-15.88,1.7,16.29,12.41,11.82,26.75-7.32-2.33-14.64-4.64-22.07-7,.78,13.19-.26,26.22,4,38.69.59,28.82,1.63,57.65-2.52,86.32L803,695.61c-5.57,3-1.91,6.89-1.65,10.45-.28.93-.55,1.86-.82,2.79l-15.18,58.24L783.44,772q-7.47,20-15,40.07c-4.86,2.77-4.2,10.61-10.8,11.8,9-55,7.14-110.2,2.69-165.5C757.1,617.63,746.21,578.24,740,538c.32-2.71,1.22-5.54-1.6-7.58-.21-2.07-.72-4-2.7-5l-1.08-3c.76-1.93.53-3.61-1.27-4.88l-.46-2.65c-3.51-8.8-7.3-17.49-10.42-26.42-2.06-5.9-6.21-4.27-10.28-4-6.46.48-2.95,4.12-2.46,7.07.58,3.56-.87,5-4.91,5.17-21,.95-41.55.19-60.7-9.82-10.54-12.49-24.72-22.11-30.47-38.41-2.24-13.75-6-27-12.34-39.47-1.67-3.28-3.75-7.12-8.66-5.45-3.78,1.29-4.21,4.49-4.48,8.13-1.19,16,2.58,30.85,9.13,45.22l2.11,4.69,3.06,5.48c3.24,12.69,16.29,17.78,22.09,28.49-20.7,5.54-41.46,6.58-62.33.88,6.28-25.24,6.87-51.92,19.75-75.51,3.59-6.56,3.67-17.15-1.18-19.68-6.9-3.6-12.75,5.13-16,11.05-14.16,26-19.37,54.42-19.52,83.85-9.86-1.44-18.22,9-28.57,3.63,1.37-4.57,7.7-7.52,4.55-13.57-13.63-26.19-11.57-53.88-8-81.78.71-5.66-1.76-10-7.74-11.33-6.2-1.4-9.41,1.62-10.56,7.52-.56,2.88-1.56,5.7-2,8.6-4.28,30.17-3.57,59.72,11.07,87.51l-13.27-2.91c2.62-5.47,2.82-10.24-3.22-13.85-9.32-5.56-17-13.19-24.66-20.73-7.14-13.79-9.51-28.69-10-44-.13-4.27-1.6-7.85-5.44-9.09-5-1.61-4.43,3.59-6,6.14-7.73,12.4-7.2,25.52-3.61,38.94-2.6,3.11-5,6.31-5.24,10.58-3.71-1.73-5.13,2.12-7.71,3.15-2.83-.14-4,1.54-4.41,4-4.42,6.16-10.79,10.6-16.36,15.22-14.13,11.74-27.75,25.32-47.67,27.32a2.39,2.39,0,0,0,.15-1.62,5.76,5.76,0,0,0,.88-2.23c5.69-4.39,3.92-10.29,2.56-15.64-.6-2.39-4.14-2.9-6.56-2.11-6,1.94-4.77,8.16-6.71,12.49-.62,1.39-.15,3.27-.18,4.92-1.35,2.3-4,4.2-2.27,7.42l-.76,5.34-2.93,2.86c-1.56.07-2.39.69-.74,3.13l-1.41,2.91-.87.06.88-.23a1.74,1.74,0,0,0,1.21,1.16c-7,7.32-5,17.36-7.94,25.92l-.26,5.15c-2.34,1.1-2.73,2.88-1.77,5.12-11.21,26.49-13.21,54.86-13.59,82.8-.59,43.77-7.4,87.86,3.66,131.34l1,2.35.39,9.84c-.64,2.14-.6,4.71-3.44,5.46-23-32.82-5.91-72.8-14.34-111.22-5.8-26.39-6.92-53.43-12-79.91-.26-3.56.77-7.39-2.22-10.37l.06,0c1-12-3.88-23-5.41-34.57-.68-5.21-4.92-6.42-8.25-5.33-6.43,2.08-.76,3.2.86,4.75,1.3,1.25,0,1.77-1,2.41-7.91,4.85-5.81,12.81-6.12,20-1.18,2.65-.13,4.91,1.26,7.11-5.37,3.27-5.12-2.22-6.6-4.46-9.06-13.73,23.52-28.23,7.24-25.71-15.13,2.35-25.11,11.61-30.16,26-6,17.09-9.54,34.87-17.58,51.49-5,10.31-8,22.53-6.74,34.63,4.9,47.65,24.18,85.79,70.24,106.55,22.45,10.11,2.59,6.33,6.95-17.13,4.13-3.61,6.12-.8,7.31,2.74,10.41,31,5,56.67,25.15,81.19,5.68,6.91,11.66,13.09,19.38,17.86,5.83,3.61,9.42.24,13.75-2.24,5.43-3.12,2.83-7,1.34-10.9-.89-2.33-1.59-4.73-2.38-7.1,18.28,8.54,38.82,8.69,60.26,14.51-5.36,3.76-8.36,6-11.49,8C389,878.31,376.92,896.09,366.35,914c-5.11,8.66-9.62,16.15-18.11,21.2-8.88-.33-17.91.22-26.63-1.14-51.32-8-26.51-34.93-66-70.37-1.67-2.56-3.24-5.23-6.82-5.36a74.43,74.43,0,0,0-5.36-7.06c-32.32-33.75-47.35-74.93-49.35-120.69a703.18,703.18,0,0,1,2.05-97.88c4.15-43.37,4-159.3,39.72-184.88,6.95-5,27.63-158.77,68.78-201.2,39.46-40.7,89.11-64.14,147.08-66.56,13.58-1.49,27.14-3.14,40.74-4.39,6.5-.6,8.73-3.77,7.59-9.88l7.28,0,3.7.92c.53,11,8.46,7.93,14.71,7.58,3-.16,4.73-4,9-2.09,9.71,4.29,11.52-1.28,10.21-9.55A5.08,5.08,0,0,1,546.74,161.74ZM546,249.26c-4.52,5.59-7.55,2.78-10.26-1.83-4.62-3.43-8.94-7.42-13.92-10.21-19.9-11.18-40.63-9.16-61.64-3.52-6.78,1.82-12.94,4.2-10.57,12.36,2.18,7.5,7.81,9.83,15.93,7.1,19.72-6.65,39.1-6.22,57.45,4.88,13.59,12.9,17.82,13.19,26,1.8,17.52-.75,34.43-6.77,52.28-5.47,5.24.38,8.87-4.86,8.94-10.5,0-4.49-2.56-9.14-7.14-8.93C583.15,235.86,562.54,234.77,546,249.26Z"/><path class="cls-3" d="M759,953.43c-4.51-8.62-14.33-11.16-20.49-17.9,63.57-8.17,62.59-35.9,110.86-80.07,2.46,5.06,5.79,7.92,12.09,4.55l-6.92-11.48c23.74-23,34.46-52.54,43.22-83.4,6-21,3.62-42.15,4.14-63.23,1.15-46.35-4-92-13.88-137.44-9.78-45-24.85-88.05-43.48-129.92-90-202.22-42.72-130-78.13-186.7-25.34-22.88-54.35-39.92-85-54.35,1.25-2.82,6.88-4.07,4-8.15-3.09-4.45-8.74-2.17-13.09-2.69-6.32-.76,3.54,5.87-2.2,6.47a13.66,13.66,0,0,1-8.83-2.19c-.41-2.29-.08-5.07-3.12-5.82s-4.24,1.28-4.79,3.87l-15.28-1.75c.24-1.69,2.33-4-.55-4.81s-4.12,1.4-4.6,4l-7.77-.59-2.95-1-4.39-.49,2.46-4.86,7.48-2.8c3.15-2.28,5.61-6,10.37-4.88.3,2.25-.75,5.06,2.2,6.2.48.19,2.15-1.11,2.27-1.88.52-3.33-2-3.91-4.48-4.32,1.66-3.35,7.81-1.83,7.7-7.1,12.54-.88,24,3.58,35.54,7.32L678,172.56c.92.66,1.83,1.85,2.77,1.88,3.44.1,3.09-2.81,3.54-5,42.52,14.09,80.86,35.67,111,69C820.76,266.53,894.51,471,908,522.62c18.39,70.54,27.28,142.52,22.4,215.24-3.93,58.56-27.92,108.6-74.21,147.14-18.4,15.31-18.32,36.67-40.42,45.64-25.41,10.32-10,22.17-37.55,26-10.64,2.76-10.76,9.5-.22,20.73-5.46,4-8.22-.76-11.57-3.46l-2.61-15.19C763.88,955.45,762.24,953.71,759,953.43ZM655.93,175.53l1.13.51-1-.63c-.33-2.34.86-5.73-2-6.54-2.59-.74-2.78,3.15-2.94,4.29C650.51,177.28,654.26,174.67,655.93,175.53Zm6.43-5-1.82,1.19c.62.35,1.25,1,1.87,1s1.22-.67,1.83-1.05Zm188.4,220.84-1.82-.17c.28.24.54.63.84.65S850.43,391.51,850.76,391.33Zm10.39,461.11c.29-.16.73-.26.83-.51s-.06-.69-.11-1l-1.31.7Z"/><path class="cls-3" d="M348.24,935.2c-2.86,8.81-7.95,13.52-18.18,13.62-11,.1-19.43,8.57-29.51,12.07-35.38-10.46,2.57-33.3-29.59-51.78-4.77-2.75-9.41-5.51-13.15-9.61,1-1.31,3-3.27,2.7-3.82-6.24-10.6-9.54-23.18-20.23-30.84-1.78-1.27-6-1.27-3.69-4.87,4.63-7.15.09-6-4.18-4.92-3.24.84-5.21-.06-5.16-3.31.07-5.21-2.17-10.19-6.71-10.57-5.89-.49-9.3,4.74-11.3,10.17C179,813.19,171.66,778.53,171,731c-.56-39.76-1.1-79.72,5.75-119.1,22.55-129.66,52.16-371.13,187.71-437.3a56.37,56.37,0,0,1,7.17-2.4c7.5,1.07,14.93,2.49,22.43,3.56,12.72,1.8,17.29-3.37,17.29-15l10.09-.27c7.8,14.21,18,20.7,32.83,8.78,2.41,5.71-6.21,6.12-2.53,10.79-58,2.42-107.62,25.86-147.08,66.56-41.15,42.43-44.71,145.67-68.78,201.2C215,496,201.12,580.74,196.15,632.7a703.18,703.18,0,0,0-2.05,97.88c2,45.76,17,86.94,49.35,120.69a74.43,74.43,0,0,1,5.36,7.06c-2.48,1.27-4.23,2.94-2,5.7,3,3.72,5.91.79,8.82-.34,39.47,35.44,14.66,62.39,66,70.37C330.33,935.42,339.36,934.87,348.24,935.2ZM258.3,878.41c.3-.69,1-1.53.78-2a2.08,2.08,0,0,0-1.91-.82,2,2,0,0,0-.82,1.9C256.55,878,257.61,878.11,258.3,878.41Z"/><path class="cls-3" d="M451.73,180.06c-3.68-4.67,4.94-5.08,2.53-10.79-14.82,11.92-25,5.43-32.83-8.78,20.46-4.34,41.2-3,61.88-3,7,0,11.31,5.26,16.75,8.34,1.14,6.11-1.09,9.28-7.59,9.88C478.87,176.92,465.31,178.57,451.73,180.06Z"/><path class="cls-4" d="M209.24,851.34c2-5.43,5.41-10.66,11.3-10.17,4.54.38,6.78,5.36,6.71,10.57-.05,3.25,1.92,4.15,5.16,3.31,4.27-1.12,8.81-2.23,4.18,4.92-2.34,3.6,1.91,3.6,3.69,4.87,10.69,7.66,14,20.24,20.23,30.84.33.55-1.74,2.51-2.7,3.82A222.3,222.3,0,0,1,209.24,851.34Z"/><path class="cls-3" d="M546.74,161.74a5.08,5.08,0,0,0-1.74.87c-3.86-6.14-14,1.76-16.54-7.45,8.56-.3,8.87-8.95,9.61-13.16,1.47-8.23,6.67-12.8,11.32-18.29,4.85-5.72,10.33-9.69,16.84-2.54,6.15,6.74,3.26,13.26-2.55,18.18C556.26,145.62,549.93,152.41,546.74,161.74Zm-2-13.3c-1.25,1.59-2.18,2.42-2.59,3.46-.19.48.63,1.36,1,2.06.91-.6,2.24-1,2.61-1.86S545.28,150.17,544.75,148.44Z"/><path class="cls-3" d="M627.77,172.69l-7.48,2.8c-1.64-3.3-2.23-6.08-6.75-8.6-8.71-4.87-16.89-.66-25.15-2.21-15.17-2.85-15.49-2.11-11.52,11-17.76,3.65-20.38,2.52-22.29-9.61,12.91-11.91,28.84-8.5,44-8.55,6.22,0,12.44.62,18.66,1,1,4.29,3.82,6.44,8.11,6.81l2.54,2.52Z"/><path class="cls-3" d="M528.46,155.16c2.49,9.21,12.68,1.31,16.54,7.45,1.31,8.27-.5,13.84-10.21,9.55-4.31-1.91-6,1.93-9,2.09-6.25.35-14.18,3.39-14.71-7.56,2.18-8,1.45-18.68,14.89-16.71A5.71,5.71,0,0,1,528.46,155.16Z"/><path class="cls-5" d="M525.93,150c-13.44-2-12.71,8.67-14.89,16.71-1.24-.33-2.49-.64-3.7-.94,4-15.11-5.87-26.62-10.43-41.8C511,128.9,520,137.52,525.93,150Z"/><path class="cls-5" d="M411.34,160.76c0,11.64-4.57,16.81-17.29,15-7.5-1.07-14.93-2.49-22.43-3.56C383.87,165,397.34,161.94,411.34,160.76Z"/><path class="cls-4" d="M627.77,172.69c.05-1.64.1-3.28.16-4.92l2.46-7.17a38.78,38.78,0,0,1,15.44.11c.11,5.27-6,3.75-7.7,7.1h0C633.38,166.68,630.92,170.41,627.77,172.69Z"/><path class="cls-4" d="M684.31,169.42c-.45,2.21-.1,5.12-3.54,5-.94,0-1.85-1.22-2.77-1.88l3.37-4.53Z"/><path class="cls-4" d="M625.39,165.25c-4.29-.37-7.1-2.52-8.11-6.81l8.15,2.16C625.42,162.15,625.4,163.7,625.39,165.25Z"/><path class="cls-3" d="M625.39,165.25c0-1.55,0-3.1,0-4.65h5l-2.46,7.17Z"/><path class="cls-2" d="M293.9,762.32c-4.36,23.46,15.5,27.24-6.95,17.13-46.06-20.76-65.34-58.9-70.24-106.55-1.24-12.1,1.74-24.32,6.74-34.63,8-16.62,11.57-34.4,17.58-51.49,5.05-14.35,15-23.61,30.16-26,16.28-2.52-16.3,12-7.24,25.71,1.48,2.24,1.23,7.73,6.6,4.46l.72,8.28L268.68,602c0,.57,0,1.13,0,1.7l2.11,7.73c5,8.82.32,17.58.21,26.37-9.71,5.29-12,15.67-16.68,24.4-11.34,21.23-5.6,41.88,14.9,54.12,5.79,3.45,11.51,7,17.27,10.5C293.78,737.63,301.28,748.42,293.9,762.32Z"/><path class="cls-2" d="M825.36,575.06c4.47-14.35-27.7-25.06-11.82-26.76,21.47-2.29,12.49-5.84,21.65,14,6.6,14.31,17.5,25.52,24,40.07,6.73,15.07,6.84,29.78,5.85,44.72-1.56,23.69-5,47.17-21,66.67a69.29,69.29,0,0,0-13.85,27c-4.4,17.31,2.86,34.68-14.33,36.14-15.93,1.36,11.61-5.2,3.86-20.13-1.11-2.14-3.32-3.71-5-5.54.11-3.12.21-6.24.32-9.36-2.83-10.15,5.85-18.19,5.11-28,2-1.14,2.3-3,2.33-5.06l2.47-5.56c.33-2.18.82-4.24,3.31-5,4.93-7.27,10.14-14.38,14.74-21.87-5.14,8.36-26.52-79.52-3.16-49.63-3.57-4.56-6.19-9.86-9.24-14.82l-5.4,0C827.75,599.67,825.11,587.36,825.36,575.06Z"/><path class="cls-3" d="M721.78,542.91c-.64-3.28-1.29-6.56-1.93-9.83,7.87-11.93,7.37-13.52-4.86-15.33-20.66,3.17-40.67-.47-60.52-5.8,3.37-3.87,11.39-1.75,12.38-11.4-8.35,9.11-16.16-14.95-23.75,2.25-5.7-5.92-9.91-11.55,1-15.87,19.15,10,39.74,10.77,60.7,9.82,4-.18,5.49-1.61,4.91-5.17-.49-2.95-4-6.59,2.46-7.07,4.07-.31,8.22-1.94,10.28,4,3.12,8.93,6.91,17.62,10.42,26.42-1.75.38-4,.23-3.45,3a34.52,34.52,0,0,0,3.91-.38c1.8,1.27,2,3,1.27,4.88l-4.17,1.43c1.18,2.25,3.35,1.12,5.08,1.47,2.13,1,2.66,3,2.87,5.12-1.06,2.86-4.2,6.16,1.6,7.58,6.24,40.22,17.13,79.61,20.4,120.39,4.45,55.3,6.31,110.46-2.69,165.5-5.85,3-10.23,8.31-3.87,12.8,5,3.53,4.74,7,5.1,11.28s-1.27,9.43,4.26,12c-6.26,3.3-7.17,12.08-14.58,14.2C747,871,746,867.38,740.75,869c-3.91,1.2-8.1.63-11.11-3,.62-2.33,1.23-4.67,1.85-7,15-18.91,16.07-39.15,5.74-60.47q1-5.31,2.08-10.61c3-.41,6-1.72,5.9-4.76-.09-4-4-2.63-6.49-3.11l.9-22.71c1.4-1.1,1.21-2.2,0-3.3-.13-1.72-.25-3.45-.37-5.17q-.63-34.26-1.25-68.51c-.31-2.59,1.65-5.77-1.92-7.53l.1,0c-1.29-21.77-2.37-43.58-7.83-64.85-2.14-8.12,7.66-12.31,5.88-21.64-2-10.31-5-21.48-3.91-31.33.73-6.78-3.66-8-4.59-12,.18-.36.35-.72.52-1.08-.17.36-.35.72-.52,1.07l-3.16-.08Z"/><path class="cls-3" d="M271.27,599.27l-.72-8.28c-1.42-2.23-2.47-4.53-1.21-7.23l4.32.19c2.56,7,10.95,7.84,15.58,12.66l-.06,0c1.08,3.39-6.74,8.68,2.22,10.37,5,26.48,6.16,53.52,12,79.91,8.43,38.42-8.63,78.4,14.34,111.22.64,3.75-1.55,8.12,2.88,11.81,2-4.16,3.92-7.91,5.62-11.75,2.47-5.55-2.14-4.8-5.06-5.51l-.39-9.85c7.88.2,14.39,2.33,16.85,11,.9,3.18,3.7,4.2,6.9,3.92a4,4,0,0,1,.33,4.76l-2.14-.26c.05.51.09,1,.14,1.53l1.89-1,.2.08L356.47,842c.7.67,1.4,1.34,2.11,2l-.13-.14c.79,2.37,1.49,4.77,2.38,7.1,1.49,3.89,4.09,7.78-1.34,10.9-4.33,2.48-7.92,5.85-13.75,2.24-7.72-4.77-13.7-11-19.38-17.86-20.16-24.52-14.74-50.18-25.15-81.19-1.19-3.54-3.18-6.35-7.31-2.74,7.38-13.9-.12-24.69-7.39-35.54,1-3.89-.37-7.44-1.36-11.12A478.72,478.72,0,0,1,271,637.76c.11-8.55,4.51-17.09.16-25.67,1.63-.25,3.87-.44,3.77-2.39-.19-3.61-4-3.69-6.25-5.37,0-.79,0-1.58,0-2.37,2.1-.78,4.95,2.52,6.21-.54C275.54,599.86,272.82,599.55,271.27,599.27Zm51.57,216.55c-1.84.31-4.07.12-3.94,3a1.15,1.15,0,0,0,.8.81c2.84.28,2.78-1.93,3.16-3.77l.57-1.1Z"/><path class="cls-3" d="M815,741.87c-.11,3.12-.21,6.24-.32,9.36-7.25,11.17-4,25.82-12.22,36.68-6.93.88-8.91-6.92-6.61-8,15.22-7.09-4-9.15-2.49-11.07,0,6.75-3.92,15-11.11,23.12l9.78.92h0c.29,2.62,1,4.76,4.39,4-.44,20.32-11.2,35.75-23.85,50.28-3.18-1.64-4.28-3.58-4.35-7.77-.17-9.12,6.19-18.22.27-27.31l15-40.07c1.81-.09,4.12.59,4.7-2,.45-2-1.5-2.35-2.84-3l15.18-58.24c.89-.52,1.79-1,2.7-1.54l-1.88-1.25c-.25-3.4-3.6-7.1,1-10,2.11.47,4.68,3.51,6.21.48,1.21-2.41-1.9-2.68-3.76-3.06,4.2-28.79,3.16-57.74,2.57-86.68,1.74.3,3.27-6.4,5.33.06,2,6.22,5.89,9.42,12.52,5.14l5.4,0c4.42,28.91,2.26,57.65-2.34,86.32-2.49.74-3,2.8-3.31,5-2.4-.13-3.6-6.82-6.61-1.78-2,3.27-.31,6.6,4.14,7.34,0,2-.36,3.92-2.33,5.06-5.77.25-11.34.21-10.64-8.54-7,8.91-2.4,18.9-5.56,27.9C802.53,737.14,804.81,747.25,815,741.87Z"/><path class="cls-3" d="M331.75,556c1.88.88,4.57,1.27,5.48,2.74,2.34,3.82,11.56-.79,9.41,7-1.79,6.46-3.4,14.67-13.62,13.4-.92-.12-2,1.21-4.46,2.76,6.29,1.74,7.87,4.08,6.86,10.62-2,12.86,2.74,25.55,5.92,38.09,0,18.33-3.35,36.63-.47,55L339.43,696c-2,.5-3.45-.38-4.59,3.43-1.86,6.22,5,12.46-.12,17.13s-5.07,9.9-3.61,15c1.6,5.54.11,8-4.25,11.39-7.37,5.73-7.23,10.48-.05,14.9,3.76,2.31,1.09,3.17-.15,3.9-4.19,2.46-4.4,6.05-2.83,9.82,2,4.7-.08,7.15-4,8.94-11.06-43.48-4.25-87.57-3.66-131.34.38-27.94,2.38-56.31,13.58-82.8,2.43-1.07,4.26-2.35,1.78-5.12Z"/><path class="cls-3" d="M516.72,499.83c-4.34-.55-9.06.43-12.7-3.05C489.38,469,488.67,439.44,493,409.27c.42-2.9,1.42-5.72,2-8.6,1.15-5.9,4.36-8.92,10.56-7.52,6,1.36,8.45,5.67,7.74,11.33-3.53,27.9-5.59,55.59,8,81.78C524.42,492.31,518.09,495.26,516.72,499.83Z"/><path class="cls-4" d="M416.81,502.33c-2.52,6.8-8.82,2.75-13.16,4.16-9.14,3-14.58,10.24-21.62,15.6-3.38,2.58-11.33-.39-10,8l-13.48,3.18c-.36-2.9-.21-6.55-4.74-3.12l-.49.36-13.59-.4a1.75,1.75,0,0,1-1.2-1.15v.16c.24-1.37.48-2.74.73-4.11a3.39,3.39,0,0,0,1.42-1.93l3-3h11.6l-10.95-5.24c-1.7-3.22.92-5.12,2.27-7.42l10.89.34a5.63,5.63,0,0,1-.89,2.23,44,44,0,0,0-4.31,1.66c-.13.06.12,1.8.53,2,1.91.81,2.84-.58,3.64-2,19.92-2,33.54-15.58,47.67-27.32,5.57-4.62,11.94-9.06,16.36-15.22,2.51-.22,4.07-1.47,4.41-4,2.58-1,4-4.88,7.71-3.15q1.52,6.8,3,13.59c-2.52,8-9.55,12.53-14.45,18.69C419.2,496.66,415.34,498,416.81,502.33Z"/><path class="cls-3" d="M549.53,498.1l-4.24-1.9c.15-29.43,5.36-57.8,19.52-83.85,3.21-5.92,9.06-14.65,16-11.05,4.85,2.53,4.77,13.12,1.18,19.68-12.88,23.59-13.47,50.27-19.75,75.51l-6.92,2.42A4.67,4.67,0,0,0,549.53,498.1Z"/><path class="cls-3" d="M522.94,258.05c-18.34-11.11-37.72-11.54-57.44-4.89-8.12,2.73-13.75.4-15.93-7.1-2.37-8.16,3.79-10.54,10.57-12.36,21-5.64,41.74-7.66,61.64,3.52,5,2.79,9.3,6.78,13.92,10.21C530.63,250,526.06,253.15,522.94,258.05Z"/><path class="cls-4" d="M644.09,486.93c-10.9,4.32-6.69,9.95-1,15.87,7.59-17.2,15.4,6.86,23.75-2.25-1,9.65-9,7.53-12.38,11.4a92.41,92.41,0,0,1-29.94-16.34c-5.8-10.71-18.85-15.8-22.08-28.49,1.21-.95,3-1.72,2.14-3.69-1-2.29-3.31-1.66-5.21-1.79-.71-1.57-1.41-3.13-2.11-4.7,5.19-3.33,12.85-1.84,16.35-8.42C619.37,464.82,633.55,474.44,644.09,486.93Z"/><path class="cls-4" d="M319.79,780.42c4-1.79,6-4.24,4-8.94-1.57-3.77-1.36-7.36,2.83-9.82,1.24-.73,3.91-1.59.15-3.9-7.18-4.42-7.32-9.17.05-14.9,4.36-3.39,5.85-5.85,4.25-11.39-1.46-5.05-1.42-10.31,3.61-15s-1.74-10.91.12-17.13c1.14-3.81,2.62-2.93,4.59-3.43l1.47,53.59c-2.11,16.3,6.14,31.83,3.6,48.16-3.2.28-6-.74-6.9-3.92-2.46-8.69-9-10.82-16.85-11Z"/><path class="cls-3" d="M435.63,475.48q-1.53-6.8-3-13.59c.25-4.27,2.64-7.47,5.24-10.58,6.6,10.53,17.33,13.95,25,8,7.7,7.54,15.34,15.17,24.66,20.73,6,3.61,5.84,8.38,3.22,13.85-3.88,6.13-9.06,5.47-14.27,2.33-9.41-5.69-19.61-11.11-25.29-20.66C445.06,465.23,440.83,468,435.63,475.48Z"/><path class="cls-3" d="M546,249.26c16.58-14.49,37.19-13.4,57.12-14.32,4.58-.21,7.19,4.44,7.14,8.93-.07,5.64-3.7,10.88-8.94,10.5-17.85-1.3-34.76,4.72-52.28,5.47C548.56,256.15,550.19,251.86,546,249.26Z"/><path class="cls-3" d="M462.87,459.29c-7.71,6-18.44,2.55-25-8-3.59-13.42-4.12-26.54,3.61-38.94,1.59-2.55,1-7.75,6-6.14,3.84,1.24,5.31,4.82,5.44,9.09C453.36,430.6,455.73,445.5,462.87,459.29Z"/><path class="cls-3" d="M613.62,448.52c-3.5,6.58-11.16,5.09-16.35,8.42-6.55-14.36-10.32-29.25-9.13-45.21.27-3.64.7-6.84,4.48-8.13,4.91-1.67,7,2.17,8.66,5.45C607.63,421.48,611.38,434.77,613.62,448.52Z"/><path class="cls-4" d="M825.14,612c-6.63,4.28-10.53,1.08-12.52-5.14-2.06-6.46-3.59.24-5.33-.06-4.26-12.47-3.22-25.5-4-38.69,7.43,2.34,14.75,4.65,22.07,7C825.11,587.36,827.75,599.67,825.14,612Z"/><path class="cls-3" d="M576.87,175.64c-4-13.07-3.65-13.81,11.52-11,8.26,1.55,16.44-2.66,25.15,2.21,4.52,2.52,5.11,5.3,6.75,8.6l-2.46,4.86C603.94,180.81,590.42,178.08,576.87,175.64Z"/><path class="cls-4" d="M768.48,812.11c5.92,9.09-.44,18.19-.27,27.31.07,4.19,1.17,6.13,4.35,7.77-1.16,5.71-5.28,9.23-9.4,12.75-5.52-2.52-3.89-7.58-4.25-12s-.11-7.75-5.1-11.28c-6.36-4.49-2-9.79,3.87-12.8C764.28,822.72,763.62,814.88,768.48,812.11Z"/><path class="cls-4" d="M289.24,596.61c-5.15-5.37-15-5.78-16.21-15.3l-3.74,2.57c.31-7.2-1.79-15.16,6.12-20,1-.64,2.33-1.16,1-2.41-1.62-1.55-7.29-2.67-.86-4.75,3.33-1.09,7.57.12,8.25,5.33C285.36,573.6,290.28,584.64,289.24,596.61Z"/><path class="cls-3" d="M546,249.26c4.23,2.6,2.6,6.89,3,10.58-8.23,11.39-12.46,11.1-26.06-1.79,3.12-4.9,7.69-8.06,12.76-10.62C538.41,252,541.44,254.85,546,249.26Z"/><path class="cls-4" d="M792,792.88l-9.78-.92c7.19-8.07,11.09-16.37,11.11-23.12-1.55,1.92,17.71,4,2.49,11.07-2.3,1.08-.32,8.88,6.61,8l-.66,2.5c-3.83.29-4.77,3-5.1,6.16l-.29.34c-3.35.74-4.08-1.4-4.37-4,.18-.35.37-.7.55-1.06Z"/><path class="cls-5" d="M357.47,507.78l-10.89-.34c0-1.65-.44-3.53.18-4.92,1.94-4.33.71-10.55,6.71-12.49,2.42-.79,6-.28,6.56,2.11C361.39,497.49,363.16,503.39,357.47,507.78Z"/><path class="cls-5" d="M729.64,866c3,3.59,7.2,4.16,11.11,3,5.26-1.62,6.23,2,7.84,5.14-3.84,7.25-11.64,6.67-16.84,5.32C725.27,877.77,729,870.88,729.64,866Z"/><path class="cls-4" d="M670.11,189.12c5.74-.6-4.12-7.23,2.2-6.47,4.35.52,10-1.76,13.09,2.69,2.84,4.08-2.79,5.33-4,8.15A14.79,14.79,0,0,1,670.11,189.12Z"/><path class="cls-5" d="M321.14,792.62c2.92.71,7.53,0,5.06,5.51-1.7,3.84-3.62,7.59-5.62,11.75-4.43-3.69-2.24-8.06-2.88-11.81C320.54,797.32,320.5,794.75,321.14,792.62Z"/><path class="cls-5" d="M854.54,848.53,861.46,860c-6.3,3.37-9.63.51-12.09-4.55C849.57,852,852.06,850.28,854.54,848.53Z"/><path class="cls-4" d="M255.63,863.69c-2.91,1.13-5.83,4.06-8.82.34-2.23-2.76-.48-4.43,2-5.7C252.39,858.46,254,861.13,255.63,863.69Z"/><path class="cls-4" d="M653.37,185c.55-2.59,1.67-4.64,4.79-3.87s2.71,3.53,3.12,5.82A8,8,0,0,1,653.37,185Z"/><path class="cls-5" d="M344.31,514.86l10.95,5.24h-11.6C343.88,518.35,344.09,516.61,344.31,514.86Z"/><path class="cls-4" d="M291.4,606.94c-9-1.69-1.14-7-2.22-10.37C292.17,599.55,291.14,603.38,291.4,606.94Z"/><path class="cls-4" d="M804.72,693.44c1.86.38,5,.65,3.76,3.06-1.53,3-4.1,0-6.21-.48Z"/><path class="cls-4" d="M632.94,182.39c.48-2.57,1.72-4.82,4.6-4s.79,3.12.55,4.81Z"/><path class="cls-4" d="M740,538c-5.8-1.42-2.66-4.72-1.6-7.58C741.19,532.48,740.29,535.31,740,538Z"/><path class="cls-3" d="M599.38,461.64c1.9.13,4.19-.5,5.21,1.79.89,2-.93,2.74-2.14,3.69Z"/><path class="cls-5" d="M331.49,561.16c2.48,2.77.65,4.05-1.78,5.12C328.76,564,329.15,562.26,331.49,561.16Z"/><path class="cls-3" d="M796.68,796.57c.33-3.19,1.27-5.87,5.1-6.16C801.84,793.92,802.11,797.61,796.68,796.57Z"/><path class="cls-4" d="M785.31,767.09c1.34.64,3.29,1,2.84,3-.58,2.55-2.89,1.87-4.7,2C784.06,770.39,784.69,768.74,785.31,767.09Z"/><path class="cls-5" d="M356.44,511.63c-.8,1.43-1.73,2.82-3.64,2-.41-.17-.66-1.91-.53-2a44,44,0,0,1,4.31-1.66A2.33,2.33,0,0,1,356.44,511.63Z"/><path class="cls-4" d="M735.5,525.32c-1.73-.35-3.9.78-5.08-1.47l4.17-1.43C734.89,523.39,735.19,524.36,735.5,525.32Z"/><path class="cls-5" d="M424.88,465c-.34,2.58-1.9,3.83-4.41,4C420.88,466.58,422.05,464.9,424.88,465Z"/><path class="cls-4" d="M733.32,517.54a34.52,34.52,0,0,1-3.91.38c-.57-2.8,1.7-2.65,3.45-3C733,515.77,733.17,516.66,733.32,517.54Z"/><path class="cls-4" d="M801.31,706.06l1.88,1.25c-.91.51-1.81,1-2.7,1.54C800.76,707.92,801,707,801.31,706.06Z"/><path class="cls-5" d="M340.62,523.06A3.39,3.39,0,0,1,339.2,525C338.57,523.54,339.35,523.12,340.62,523.06Z"/><path class="cls-5" d="M338.47,529.1v-.16l-.88.22Z"/><path class="cls-4" d="M622.22,180.84l2.95,1Z"/><path class="cls-4" d="M759,953.43c3.24.28,4.88,2,4.79,5.31C760.59,958.42,758.94,956.69,759,953.43Z"/><path class="cls-2" d="M358.58,844c-.71-.66-1.41-1.33-2.11-2C357.17,842.68,357.87,843.35,358.58,844Z"/><path class="cls-4" d="M638.13,167.81c2.51.41,5,1,4.48,4.32-.12.77-1.79,2.07-2.27,1.88-3-1.14-1.9-3.95-2.2-6.2Z"/><path class="cls-4" d="M655.93,175.53c-1.67-.86-5.42,1.75-4.83-2.37.16-1.14.35-5,2.94-4.29,2.87.81,1.68,4.2,2,6.54Z"/><path class="cls-4" d="M662.36,170.49l1.88,1.11c-.61.38-1.21,1-1.83,1.05s-1.25-.62-1.87-1Z"/><path class="cls-4" d="M850.76,391.33c-.33.18-.67.51-1,.48s-.56-.41-.84-.65Z"/><path class="cls-5" d="M861.15,852.44l-.59-.86,1.31-.7c0,.36.23.77.11,1S861.44,852.28,861.15,852.44Z"/><path class="cls-4" d="M656.05,175.41l1,.63-1.13-.51Z"/><path class="cls-4" d="M258.3,878.41c-.69-.3-1.75-.44-1.95-.94a2,2,0,0,1,.82-1.9,2.08,2.08,0,0,1,1.91.82C259.28,876.88,258.6,877.72,258.3,878.41Z"/><path class="cls-4" d="M544.75,148.44c.53,1.73,1.32,2.94,1,3.66s-1.7,1.26-2.61,1.86c-.36-.7-1.18-1.58-1-2.06C542.57,150.86,543.5,150,544.75,148.44Z"/><path class="cls-4" d="M715,517.75c12.23,1.81,12.73,3.4,4.86,15.33Z"/><path class="cls-5" d="M738.72,780.08c2.48.48,6.4-.88,6.49,3.11.08,3-2.94,4.35-5.9,4.76C739.11,785.33,738.92,782.71,738.72,780.08Z"/><path class="cls-4" d="M722.56,542.92c.11,2.27,1.38,5.11-1.61,6.23-1.84.7-2.34-1.49-2.93-2.89q1.89-1.66,3.76-3.35Z"/><path class="cls-2" d="M549.53,498.1a4.67,4.67,0,0,1,5.75.81C552.78,502.72,550.86,502.5,549.53,498.1Z"/><path class="cls-5" d="M344.72,802.73l-1.89,1c-.05-.51-.09-1-.14-1.53l2.14.26S344.72,802.73,344.72,802.73Z"/><path class="cls-2" d="M739.61,754.07c1.22,1.1,1.41,2.2,0,3.3C739.61,756.27,739.61,755.17,739.61,754.07Z"/><path class="cls-4" d="M357.05,533.93l-3.77-3.45.48-.35c1.14,1.21,2.3,2.42,3.45,3.63Z"/><path class="cls-2" d="M271,637.76a478.72,478.72,0,0,0,14.13,77.9c1,3.68,2.35,7.23,1.36,11.12-5.76-3.5-11.48-7-17.27-10.5-20.5-12.24-26.24-32.89-14.9-54.12C259,653.43,261.31,643.05,271,637.76Z"/><path class="cls-4" d="M268.7,604.33c2.21,1.68,6.06,1.76,6.25,5.37.1,1.95-2.14,2.14-3.77,2.39Q269.94,608.2,268.7,604.33Z"/><path class="cls-4" d="M271.27,599.27c1.55.28,4.27.59,3.62,2.15-1.26,3.06-4.11-.24-6.21.54Z"/><path class="cls-2" d="M828.2,698.31c4.6-28.67,6.76-57.41,2.34-86.32,3.05,5,5.67,10.26,9.24,14.82-23.36-29.89-2,58,3.16,49.63C838.34,683.93,833.13,691,828.2,698.31Z"/><path class="cls-4" d="M815,741.87c-10.17,5.38-12.45-4.73-11.09-8.6,3.16-9-1.4-19,5.56-27.9-.7,8.75,4.87,8.79,10.64,8.54C820.83,723.68,812.15,731.72,815,741.87Z"/><path class="cls-4" d="M822.42,708.85c-4.45-.74-6.1-4.07-4.14-7.34,3-5,4.21,1.65,6.61,1.78Z"/><path class="cls-6" d="M738,680.39c-2.4-2.06-2.49-4.71-1.92-7.53C739.64,674.62,737.68,677.8,738,680.39Z"/><path class="cls-5" d="M725.72,543c.17-.35.35-.71.52-1.07-.17.36-.34.72-.52,1.08Z"/><path class="cls-5" d="M322.86,815.84c-.38,1.84-.32,4-3.16,3.77a1.15,1.15,0,0,1-.8-.81c-.13-2.86,2.1-2.67,3.94-3Z"/><path class="cls-5" d="M322.84,815.82l.59-1.08-.57,1.1Z"/><path class="cls-5" d="M357.21,533.76c-1.15-1.21-2.31-2.42-3.45-3.63,4.53-3.43,4.38.22,4.74,3.12l-.49.65Z"/><path class="cls-3" d="M792,792.88l.56-1c-.18.36-.37.71-.55,1.06Z"/><path class="cls-6" d="M371.28,667.78c1.14,1.52,2.29,3,3.43,4.57C371.78,672.16,372.08,669.56,371.28,667.78Z"/><path class="cls-3" d="M337.6,640.12s17-119.12,23.81-118.86a1.32,1.32,0,0,0,1.17-.37c1.85-2.51-9.34-18.57-15.82-18.37-7.57.23-15.55,23-23.17,87.86q-3.64,24.87-7.27,49.74Z"/><path class="cls-3" d="M730.42,612S715,517.75,715,512c0-6.82,23.19,5.2,20.51,13.37s14.11,98.33,14.11,98.33Z"/></svg>