<svg id="Layer_1" data-name="Layer 1" xmlns="http://www.w3.org/2000/svg" viewBox="0 0 1133.86 1133.86"><defs><style>.cls-1{fill:#282722;}.cls-2{fill:#9e676e;}.cls-3{fill:#f4f1ec;}.cls-4{fill:#1f7833;}</style></defs><path class="cls-1" d="M268.11,578c-9.05-16.55-35.3-84.11-35.72-102.84-.17-7.91-2.26-12.72-10.33-15.94-16.3-6.5-30.14-16.48-37.84-33.2-1-2.15-1.85-4.88-5.41-4.85-23.55.2-31.15-16.1-35.6-35.13-6.77-28.95,8.78-59.64,34.73-63.59,12.47-1.9,21.58-6.58,31-13.63,16.62-12.47,35.36-12.59,54.15-6.33,6.63,2.21,9.6,1.8,13.56-4.44,7.07-11.12,15.82-21.17,23.67-31.82,29.25-39.69,72-60.22,115.1-79.41,41.89-18.65,86.15-25.15,131.93-18,7.39,1.16,29.52-10.72,33.15-17,2.58-4.43-1.75-5.3-3.28-7.21a112.39,112.39,0,0,1-19.53-35.8c-2.64-8.18-3.28-16.73,1.49-24.35C566,73.67,581,74.33,590.61,86a95.31,95.31,0,0,1,10.61,16.72c2.79,5.4,4.58,11.32,7,17.62,4.85-1.92,9.65-4,14.56-5.74,9.2-3.33,18.21-3,26.83,1.93,13.88,7.88,15.49,18.25,4.8,30.16A47.86,47.86,0,0,1,609,162.2c-11.59-2.28-17.63.36-24.36,7.46-4.92,3.06-6.22,5.6,1.24,5.64,13,.07,26-.21,39-.35,18.27.81,35.34,6.37,52.57,12.06a363.29,363.29,0,0,1,88.86,44,181.18,181.18,0,0,1,60.4,67.69c3.35,6.43,6.75,9.75,14.93,9.2,19.31-1.3,36.76,4.38,50.3,18.83,4.11,4.39,7.5,6,13.55,4.18,18.55-5.68,35.65-2.11,47.87,13.14,14.31,17.87,17.36,39.2,7.85,59.86-8.58,18.63-24.48,28.83-46.2,25.66-4.93-.72-6.43.51-8.73,4.84C897.07,451.67,886,467.23,864.73,471c-4.65.82-2.77,4.9-3.29,7.5-4.6,23.27-21,55.75-31.5,77.35-2.49-.4-4.48-11.79-5.27-14.91-1-3.82-6.3-24.38-19-26.71-16.43-3-34.34-3.42-51.34,2.08-3.85-2.62-13.34,6.56-16.41,2.06-2-3-5.6-2.94-9.47-1.38-11.85,4.78-14.74,2.19-14.49-11.18s.14-26.76-4.08-39.91a98.55,98.55,0,0,1-10.57,26.91c-3.39,5.76-9.94,9.44-13.28,2.6-4.9-10.06-8.65-2.3-13-1.17l-2.33,1.3-5.71.58c-3.92-11.3-14.55-13.51-23.76-17.95-11.27-5.43-22.41.93-33.55-.5-2.06-2.21,1.22-6.81-3.12-7.74-3.21-.69-2.85,2.37-3.37,4.36-1.42,5.43-3.63,10.8-10.49,9.12s-5.69-7.72-5.62-13.1c.2-13.68.58-27.39,0-41-1.75-39.59-14.31-75-41-105-5-5.64-7.62-6.41-12.53.43C520.06,340.56,508.7,356.3,500,374.08c-14.68,30.07-17.24,61.78-15.31,94.3.54,9.26-1.07,14-12.13,13.3-8.91-.56-17.81,7.81-27.24-.24-1.76-1.5-3.06,3.6-5.14,5.09-7-1.48-12.67.92-18.49,4.74-4.95,3.26-9,8.88-16.16,7.87-18.5-19.22-16.84-44.65-20-71.16-2.47,4.44-3.61,6.21-4.49,8.11-10.22,22.1-13.88,45.41-12.9,69.59.32,7.92.85,14.19-11.33,14.29-7.85.07-16,5.56-24.49,7.18-3.62.69-5.06,3.17-3.71,6.9,1.57,4.36.34,7.81-3.7,10.09-4.26,2.41-7.73.31-10.77-2.43-8.19-7.38-16.12-11.74-26.7-10.18C274.45,528.44,274.33,544.44,268.11,578ZM732.05,287.55c5.42,5.56,6.47,15.29,16.21,12.11,3.3-1.08,5.26-4,4.21-7.26-2.43-7.63-5.78-15.73-13.64-18.38-7.52-2.53-7.25,6.33-10.18,11.1-1.1-1.52-1.86-2.41-2.46-3.4-3.26-5.38-3.33-16.24-13.37-11.54s-1.61,11.9.16,18a12.93,12.93,0,0,0,.94,2.45c2.25,4.2,3.78,9.47,9.92,9.15C730.32,299.42,730,293.52,732.05,287.55ZM375.88,272.33c-.76-5.08-3.33-8-8.79-7.21-7.35,1.09-18.48,17.48-16.58,24.48,1.51,5.54,6.1,9.69,10.38,5.28C367,288.54,371,280,375.88,272.33ZM602.5,145.92c15.56,1.49,27-.44,37.18-7.72,1.66-1.19,3.84-3.47,3.66-5-.34-3-3.48-3.5-6.23-3.63C623.88,129,613.85,135.16,602.5,145.92ZM397.57,278.42c.32-5.32-.66-10.42-6.11-10.15-9.24.45-9.66,8.5-10.66,15.4-.79,5.48,1.34,10.84,6.91,10.39C397,293.3,395.49,284.08,397.57,278.42ZM590.3,133A44.79,44.79,0,0,0,581,99.81c-1.64-2.14-3-6.37-6.75-4.73s-1.92,5.35-1.09,8C576.6,114.31,581.85,124.54,590.3,133Z"/><path class="cls-2" d="M624.85,175c-13,.14-26,.42-39,.35-7.46,0-6.16-2.58-1.24-5.64,6.17,6.34,13.9,1.65,20.83,2.82C611.84,173.57,618.58,172.41,624.85,175Z"/><path class="cls-3" d="M732.05,287.55c-2,6-1.73,11.87-8.21,12.21-6.14.32-7.67-4.95-9.92-9.15a12.93,12.93,0,0,1-.94-2.45c-1.77-6.08-10.23-13.26-.16-18s10.11,6.16,13.37,11.54c.6,1,1.36,1.88,2.46,3.4,2.93-4.77,2.66-13.63,10.18-11.1,7.86,2.65,11.21,10.75,13.64,18.38,1,3.29-.91,6.18-4.21,7.26C738.52,302.84,737.47,293.11,732.05,287.55Z"/><path class="cls-3" d="M375.88,272.33c-4.93,7.69-8.84,16.21-15,22.55-4.28,4.41-8.87.26-10.38-5.28-1.9-7,9.23-23.39,16.58-24.48C372.55,264.31,375.12,267.25,375.88,272.33Z"/><path class="cls-4" d="M602.5,145.92c11.35-10.76,21.38-16.95,34.61-16.36,2.75.13,5.89.64,6.23,3.63.18,1.54-2,3.82-3.66,5C629.51,145.48,618.06,147.41,602.5,145.92Z"/><path class="cls-3" d="M397.57,278.42c-2.08,5.66-.55,14.88-9.86,15.64-5.57.45-7.7-4.91-6.91-10.39,1-6.9,1.42-14.95,10.66-15.4C396.91,268,397.89,273.1,397.57,278.42Z"/><path class="cls-4" d="M590.3,133c-8.45-8.49-13.7-18.72-17.14-29.9-.83-2.7-2.6-6.44,1.09-8s5.11,2.59,6.75,4.73A44.79,44.79,0,0,1,590.3,133Z"/><path class="cls-2" d="M673,494.2c-.23,1.42-.87,2.11-2.33,1.3Z"/></svg>