<svg id="Layer_1" data-name="Layer 1" xmlns="http://www.w3.org/2000/svg" viewBox="0 0 1133.85827 1133.85827"><rect x="520.19457" y="657.94731" width="66.504" height="219.12972" fill="#cf9b7b"/><line x1="516.71842" y1="876.19594" x2="516.71842" y2="677.73259" fill="none" stroke="#c59177" stroke-miterlimit="10" stroke-width="17"/><line x1="589.498" y1="881.88656" x2="589.498" y2="683.42321" fill="none" stroke="#c59177" stroke-miterlimit="10" stroke-width="17"/><polygon points="304.884 525.325 310.666 484.616 320.705 438.526 332.114 415.71 357.668 381.485 378.659 357.755 408.777 339.502 429.769 324.443 460.799 302.083 498.392 291.131 518.297 291.131 557.542 288.849 581.728 288.849 607.282 293.869 619.147 301.626 637.4 308.928 660.673 324.443 678.927 335.395 694.898 346.803 707.676 356.843 720.909 371.402 734.143 384.679 748.289 400.651 759.241 418.904 772.931 444.459 784.34 467.744 784.34 491.005 795.748 514.1 814.914 508.345 834.993 517.928 842.75 536.182 849.595 561.736 849.595 585.009 847.77 599.612 835.905 609.773 822.215 621.06 799.399 626.079 773.388 622.885 761.979 621.972 736.702 637.944 712.239 641.138 685.772 658.935 651.547 667.149 617.322 676.732 597.243 680.839 562.562 680.839 523.317 679.014 486.81 680.839 453.954 676.276 432.507 671.713 399.651 663.955 373.64 652.547 348.998 640.682 335.764 655.285 308.384 655.285 285.111 648.896 257.731 628.361 247.236 593.112 258.188 556.26 276.441 539.937 293.782 532.987 304.884 525.325" fill="#cf9b7b"/><path d="M349.29714,633.17061c-6.13862,1.418-10.96741,5.10906-15.85272,8.87507-15.85768,12.22432-49.08737,6.85294-60.06649-12.771-9.79225-17.50252-12.229-37.0533-5.75058-56.77962,6.20258-18.886,26.59605-32.27845,48.33088-23.66947,10.108,4.00366,14.65481.74135,17.48957-11.431-1.40533-.51472-3.46873-.6061-4.11464-1.60948-6.6663-10.35827-16.83983-9.76618-27.462-10.43281-10.69355-.671-32.41464,11.27854-34.56543,13.39723-8.22251,8.0996-16.84118,15.664-19.90565,27.76783-3.914,15.45826-3.91037,30.92339-1.35938,46.35108,2.4368,14.73719,8.0786,28.79677,19.49239,38.6067,20.73488,17.82137,53.01575,26.82988,81.96774,6.1348,3.82209-2.73206,6.53816-2.72632,10.62892-.1929,24.14168,14.951,108.07912,26.94164,122.77112,29.16229,18.771,2.83718,40.5454,10.7951,42.06051,1.70808.61366-3.68046,4.27772-8.26676-4.84292-12.10733-8.236-3.46806-29.00406-6.40077-34.32113-6.21356C483.79734,669.96649,409.54042,666.41471,349.29714,633.17061Z" fill="#c59177"/><path d="M763.131,609.21515c6.37883.59662,11.73027,3.61976,17.14848,6.70981,17.58741,10.03017,50.42692.32215,58.9645-20.58419,7.61466-18.64627,7.54081-38.35359-1.55308-57.05935-8.7066-17.90889-31.02288-28.49922-51.84228-17.09669-9.68228,5.30284-14.69361,2.66759-19.13154-9.02835,1.35156-.6957,3.42211-1.05841,3.944-2.1385,5.38558-11.15,15.72944-11.90449,26.363-13.96622,10.705-2.07544,34.17419,6.909,36.61926,8.72626,9.34759,6.947,19.02563,13.31116,23.68651,24.90887,5.95282,14.81184,7.9529,30.14709,7.37732,45.78114-.54982,14.9343-4.42192,29.61935-14.66972,40.85169-18.61666,20.40541-50.02738,33.59478-81.9271,16.892-4.21123-2.205-6.95154-1.84116-10.7517,1.21034-22.4267,18.00851-105.58292,40.96666-120.12238,45.106-9.5805,2.72752-20.35871,9.3254-51.68524,11.93594-2.948.24567-5.57171-14.66412,2.45664-18.42477C588.00754,673.03908,706.64059,650.12316,763.131,609.21515Z" fill="#c59177"/><path d="M743.92134,408.10708c6.74129,12.77576,18.5493,37.79976,26.96582,42.12674,1.00152.51488,2.88812,1.6787,4.40294.98124,4.60018-2.11787.66252-18.40626.66278-18.40626C733.976,336.36705,635.68133,275.60519,530.60183,280.83015,428.95791,285.88427,339.54716,351.757,304.8841,447.31354c0,0,.78661,20.65767,11.058,13.44449,7.71622-5.41893,6.77822-5.31682,12.74219-23.15183,7.40233-22.13635,88.63949-133.60277,200.67305-141.63078C636.99338,288.26252,730.02769,381.77654,743.92134,408.10708Z" fill="#c59177"/><path d="M306.59859,442.72813s-23.30754,77.09527-14.2259,91.067c7.37724,11.34961,18.86187,3.49294,18.86187,3.49294l-2.44506-6.63658s14.67034-86.27559,25.22122-103.77675c9.38359-15.56494-1.81853-18.8254-1.81853-18.8254l-12.92388,23.40269Z" fill="#c59177"/><path d="M753.93291,427.266l5.40231-2.17214,8.53963-3.706,7.14074,9.301s22.28252,50.1413,26.40651,73.2144c4.10062,22.94235-6.22248,0-6.22248,0l-6.493.81163-6.493-2.976S766.29655,446.97821,753.93291,427.266Z" fill="#c59177"/></svg>