<svg id="Layer_1" data-name="Layer 1" xmlns="http://www.w3.org/2000/svg" viewBox="0 0 1133.85827 1133.85827"><rect x="520.26941" y="657.94731" width="66.504" height="191.47133" fill="#93623b"/><line x1="516.79326" y1="848.64877" x2="516.79326" y2="675.23531" fill="none" stroke="#885733" stroke-miterlimit="10" stroke-width="17"/><line x1="589.57284" y1="853.62112" x2="589.57284" y2="680.20766" fill="none" stroke="#885733" stroke-miterlimit="10" stroke-width="17"/><polygon points="304.959 525.325 310.741 484.616 320.78 438.526 332.188 415.71 357.743 381.485 378.734 357.755 408.852 339.502 429.844 324.443 460.874 302.083 498.467 291.131 518.372 291.131 557.617 288.849 581.803 288.849 607.357 293.869 619.222 301.626 637.475 308.928 660.748 324.443 679.002 335.395 694.973 346.803 707.751 356.843 720.984 371.402 734.218 384.679 748.364 400.651 759.316 418.904 773.006 444.459 784.414 467.744 784.414 491.005 795.823 514.1 814.989 508.345 835.067 517.928 842.825 536.182 849.67 561.736 849.67 585.009 847.845 599.612 835.98 609.773 822.29 621.06 799.473 626.079 773.462 622.885 762.054 621.972 736.777 637.944 712.314 641.138 685.847 658.935 651.622 667.149 617.397 676.732 597.318 680.839 562.637 680.839 523.392 679.014 486.885 680.839 454.029 676.276 432.582 671.713 399.726 663.955 373.715 652.547 349.073 640.682 335.839 655.285 308.459 655.285 285.186 648.896 257.806 628.361 247.31 593.112 258.262 556.26 276.516 539.937 293.856 532.987 304.959 525.325" fill="#93623b"/><path d="M349.372,633.17061c-6.13862,1.418-10.96741,5.10906-15.85272,8.87507-15.85768,12.22432-49.08737,6.85294-60.06649-12.771-9.79225-17.50252-12.229-37.0533-5.75058-56.77962,6.20258-18.886,26.59605-32.27845,48.33088-23.66947,10.108,4.00366,14.65482.74135,17.48957-11.431-1.40533-.51472-3.46873-.6061-4.11464-1.60948-6.6663-10.35827-16.83983-9.76618-27.462-10.43281-10.69355-.671-32.41464,11.27854-34.56542,13.39723-8.22252,8.0996-16.84119,15.664-19.90566,27.76783-3.914,15.45826-3.91036,30.92339-1.35938,46.35108,2.4368,14.73719,8.07861,28.79677,19.49239,38.6067,20.73488,17.82137,53.01575,26.82988,81.96775,6.1348,3.82208-2.73206,6.53815-2.72632,10.62891-.1929,24.14168,14.951,108.07912,26.94164,122.77112,29.16229,18.771,2.83718,40.5454,10.7951,42.06052,1.70808.61365-3.68046,4.27772-8.26676-4.84293-12.10733-8.236-3.46806-29.00406-6.40077-34.32113-6.21356C483.87218,669.96649,409.61526,666.41471,349.372,633.17061Z" fill="#885733"/><path d="M763.20579,609.21515c6.37884.59662,11.73027,3.61976,17.14848,6.70981,17.58741,10.03017,50.42692.32215,58.96451-20.58419,7.61465-18.64627,7.54081-38.35359-1.55309-57.05935-8.7066-17.90889-31.02288-28.49922-51.84228-17.09669-9.68228,5.30284-14.69361,2.66759-19.13154-9.02835,1.35157-.6957,3.42211-1.05841,3.944-2.1385,5.38558-11.15,15.72944-11.90449,26.363-13.96622,10.705-2.07544,34.17419,6.909,36.61927,8.72626,9.34758,6.947,19.02562,13.31116,23.68651,24.90887,5.95281,14.81184,7.9529,30.14709,7.37731,45.78114-.54982,14.9343-4.42192,29.61935-14.66971,40.85169-18.61667,20.40541-50.02738,33.59478-81.92711,16.892-4.21122-2.205-6.95154-1.84116-10.7517,1.21034-22.4267,18.00851-105.58292,40.96666-120.12238,45.106-9.58049,2.72752-20.35871,9.3254-51.68523,11.93594-2.948.24567-5.57171-14.66412,2.45663-18.42477C588.08238,673.03908,706.71543,650.12316,763.20579,609.21515Z" fill="#885733"/><path d="M743.99618,408.10708c6.74129,12.77576,18.5493,37.79976,26.96582,42.12674,1.00153.51488,2.88812,1.6787,4.40294.98124,4.60018-2.11787.66252-18.40626.66279-18.40626-41.97684-96.44175-140.27156-157.20361-245.35106-151.97865C429.03275,285.88427,339.622,351.757,304.95894,447.31354c0,0,.78661,20.65767,11.058,13.44449,7.71623-5.41893,6.77822-5.31682,12.7422-23.15183,7.40232-22.13635,88.63948-133.60277,200.67305-141.63078C637.06823,288.26252,730.10254,381.77654,743.99618,408.10708Z" fill="#885733"/><path d="M306.67343,442.72813s-23.30754,77.09527-14.2259,91.067c7.37724,11.34961,18.86187,3.49294,18.86187,3.49294l-2.44506-6.63658s14.67034-86.27559,25.22122-103.77675c9.38359-15.56494-1.81853-18.8254-1.81853-18.8254l-12.92387,23.40269Z" fill="#885733"/><path d="M754.00775,427.266l5.40231-2.17214,8.53963-3.706,7.14074,9.301s22.28252,50.1413,26.40651,73.2144c4.10062,22.94235-6.22247,0-6.22247,0l-6.493.81163-6.493-2.976S766.37139,446.97821,754.00775,427.266Z" fill="#885733"/></svg>