<svg id="Layer_1" data-name="Layer 1" xmlns="http://www.w3.org/2000/svg" viewBox="0 0 1133.85827 1133.85827"><rect x="520.04489" y="657.94731" width="66.504" height="190.57061" fill="#dda585"/><line x1="516.56874" y1="847.75167" x2="516.56874" y2="675.15398" fill="none" stroke="#c99583" stroke-miterlimit="10" stroke-width="23"/><line x1="589.34831" y1="852.70063" x2="589.34831" y2="680.10294" fill="none" stroke="#c99583" stroke-miterlimit="10" stroke-width="23"/><polygon points="304.734 525.325 310.516 484.616 320.556 438.526 331.964 415.71 357.518 381.485 378.51 357.755 408.628 339.502 429.619 324.443 460.65 302.083 498.242 291.131 518.148 291.131 557.392 288.849 581.578 288.849 607.133 293.869 618.997 301.626 637.251 308.928 660.524 324.443 678.777 335.395 694.749 346.803 707.526 356.843 720.76 371.402 733.993 384.679 748.14 400.651 759.092 418.904 772.782 444.459 784.19 467.744 784.19 491.005 795.598 514.1 814.764 508.345 834.843 517.928 842.601 536.182 849.446 561.736 849.446 585.009 847.62 599.612 835.756 609.773 822.066 621.06 799.249 626.079 773.238 622.885 761.83 621.972 736.552 637.944 712.089 641.138 685.622 658.935 651.397 667.149 617.172 676.732 597.093 680.839 562.412 680.839 523.167 679.014 486.661 680.839 453.805 676.276 432.357 671.713 399.501 663.955 373.49 652.547 348.848 640.682 335.614 655.285 308.235 655.285 284.962 648.896 257.582 628.361 247.086 593.112 258.038 556.26 276.291 539.937 293.632 532.987 304.734 525.325" fill="#dda585"/><path d="M349.14746,633.17061c-6.13863,1.418-10.96741,5.10906-15.85273,8.87507-15.85768,12.22432-49.08736,6.85294-60.06648-12.771-9.79225-17.50252-12.22906-37.0533-5.75059-56.77962,6.20259-18.886,26.596-32.27845,48.33088-23.66947,10.108,4.00366,14.65482.74135,17.48957-11.431-1.40533-.51472-3.46873-.6061-4.11464-1.60948-6.66629-10.35827-16.83983-9.76618-27.462-10.43281-10.69355-.671-32.41464,11.27854-34.56542,13.39723-8.22252,8.0996-16.84118,15.664-19.90565,27.76783-3.914,15.45826-3.91037,30.92339-1.35939,46.35108,2.43681,14.73719,8.07861,28.79677,19.49239,38.6067,20.73489,17.82137,53.01575,26.82988,81.96775,6.1348,3.82208-2.73206,6.53815-2.72632,10.62891-.1929,24.14168,14.951,108.07912,26.94164,122.77112,29.16229,18.771,2.83718,40.54541,10.7951,42.06052,1.70808.61366-3.68046,4.27772-8.26676-4.84293-12.10733-8.236-3.46806-29.00406-6.40077-34.32113-6.21356C483.64765,669.96649,409.39074,666.41471,349.14746,633.17061Z" fill="#c99583"/><path d="M762.98127,609.21515c6.37883.59662,11.73027,3.61976,17.14847,6.70981,17.58742,10.03017,50.42692.32215,58.96451-20.58419,7.61466-18.64627,7.54081-38.35359-1.55309-57.05935-8.70659-17.90889-31.02288-28.49922-51.84228-17.09669-9.68227,5.30284-14.69361,2.66759-19.13154-9.02835,1.35157-.6957,3.42211-1.05841,3.944-2.1385,5.38558-11.15,15.72943-11.90449,26.363-13.96622,10.705-2.07544,34.17419,6.909,36.61927,8.72626,9.34759,6.947,19.02562,13.31116,23.68651,24.90887,5.95281,14.81184,7.9529,30.14709,7.37731,45.78114-.54982,14.9343-4.42192,29.61935-14.66971,40.85169-18.61667,20.40541-50.02738,33.59478-81.9271,16.892-4.21123-2.205-6.95154-1.84116-10.75171,1.21034-22.4267,18.00851-105.58291,40.96666-120.12238,45.106-9.58049,2.72752-20.3587,9.3254-51.68523,11.93594-2.948.24567-5.57171-14.66412,2.45664-18.42477C587.85786,673.03908,706.49091,650.12316,762.98127,609.21515Z" fill="#c99583"/><path d="M743.77165,408.10708c6.7413,12.77576,18.5493,37.79976,26.96583,42.12674,1.00152.51488,2.88812,1.6787,4.40294.98124,4.60018-2.11787.66251-18.40626.66278-18.40626-41.97684-96.44175-140.27156-157.20361-245.351-151.97865C428.80822,285.88427,339.39748,351.757,304.73441,447.31354c0,0,.78662,20.65767,11.058,13.44449,7.71623-5.41893,6.77823-5.31682,12.7422-23.15183,7.40233-22.13635,88.63949-133.60277,200.673-141.63078C636.8437,288.26252,729.878,381.77654,743.77165,408.10708Z" fill="#c99583"/><path d="M306.4489,442.72813s-23.30754,77.09527-14.2259,91.067c7.37725,11.34961,18.86187,3.49294,18.86187,3.49294l-2.44506-6.63658s14.67035-86.27559,25.22122-103.77675c9.38359-15.56494-1.81853-18.8254-1.81853-18.8254l-12.92387,23.40269Z" fill="#c99583"/><path d="M753.78322,427.266l5.40231-2.17214,8.53964-3.706,7.14073,9.301s22.28252,50.1413,26.40651,73.2144c4.10062,22.94235-6.22247,0-6.22247,0l-6.493.81163-6.493-2.976S766.14686,446.97821,753.78322,427.266Z" fill="#c99583"/></svg>