<svg id="Layer_1" data-name="Layer 1" xmlns="http://www.w3.org/2000/svg" viewBox="0 0 1133.85827 1133.85827"><polygon points="585.163 893.87 518.659 884.438 518.659 663.84 585.163 663.84 585.163 893.87" fill="#603b17"/><line x1="515.18261" y1="857.44263" x2="515.18261" y2="681.39122" fill="none" stroke="#502e14" stroke-miterlimit="10" stroke-width="17"/><line x1="587.96218" y1="862.49062" x2="587.96218" y2="686.43921" fill="none" stroke="#502e14" stroke-miterlimit="10" stroke-width="17"/><polygon points="303.348 531.218 309.13 490.509 319.169 444.419 330.578 421.603 356.132 387.378 377.124 363.648 407.242 345.395 428.233 330.336 459.264 307.976 496.856 297.024 516.762 297.024 556.006 294.742 580.192 294.742 605.747 299.762 617.611 307.519 635.865 314.821 659.138 330.336 677.391 341.288 693.363 352.696 706.14 362.736 719.374 377.295 732.607 390.572 746.754 406.544 757.706 424.797 771.396 450.352 782.804 473.637 782.804 496.898 794.212 519.993 813.378 514.238 833.457 523.821 841.214 542.074 848.059 567.629 848.059 590.902 846.234 605.505 834.369 615.666 820.679 626.952 797.863 631.972 771.852 628.778 760.444 627.865 735.166 643.837 710.703 647.031 684.236 664.828 650.011 673.042 615.786 682.625 595.707 686.732 561.026 686.732 521.781 684.907 485.275 686.732 452.419 682.169 430.971 677.605 398.115 669.848 372.104 658.439 347.462 646.575 334.228 661.177 306.848 661.177 283.575 654.789 256.195 634.254 245.7 599.005 256.652 562.153 274.905 545.83 292.246 538.88 303.348 531.218" fill="#603b17"/><path d="M347.76133,639.06354c-6.13862,1.418-10.96741,5.10906-15.85272,8.87507-15.85768,12.22432-49.08737,6.85294-60.06649-12.771-9.79225-17.50252-12.22905-37.0533-5.75058-56.77962,6.20258-18.886,26.596-32.27845,48.33087-23.66947,10.108,4.00367,14.65482.74135,17.48957-11.431-1.40532-.51472-3.46872-.6061-4.11463-1.60948-6.6663-10.35827-16.83983-9.76618-27.462-10.43281-10.69355-.671-32.41465,11.27854-34.56543,13.39723-8.22251,8.09961-16.84118,15.664-19.90565,27.76783-3.914,15.45826-3.91037,30.92339-1.35938,46.35109,2.4368,14.73718,8.0786,28.79676,19.49238,38.60669,20.73489,17.82137,53.01576,26.82988,81.96775,6.1348,3.82209-2.73206,6.53815-2.72631,10.62892-.1929,24.14168,14.951,108.07912,26.94164,122.77111,29.16229,18.771,2.83718,40.54541,10.7951,42.06052,1.70808.61366-3.68046,4.27772-8.26676-4.84293-12.10733-8.236-3.46806-29.004-6.40077-34.32113-6.21356C482.26152,675.85942,408.00461,672.30764,347.76133,639.06354Z" fill="#502e14"/><path d="M761.59514,615.10808c6.37883.59662,11.73027,3.61976,17.14847,6.70981,17.58742,10.03017,50.42693.32216,58.96451-20.58419,7.61466-18.64627,7.54081-38.35359-1.55308-57.05935-8.7066-17.90889-31.02288-28.49922-51.84229-17.09669-9.68227,5.30284-14.6936,2.66759-19.13154-9.02835,1.35157-.6957,3.42212-1.05841,3.944-2.1385,5.38558-11.15,15.72943-11.90449,26.363-13.96622,10.705-2.07544,34.17418,6.909,36.61926,8.72626,9.34759,6.947,19.02563,13.31116,23.68651,24.90887,5.95282,14.81184,7.9529,30.14709,7.37731,45.78114-.54981,14.9343-4.42192,29.61935-14.66971,40.85169-18.61667,20.40541-50.02738,33.59478-81.9271,16.892-4.21123-2.205-6.95154-1.84116-10.75171,1.21034-22.42669,18.00851-105.58291,40.96666-120.12238,45.106-9.58049,2.72753-20.3587,9.3254-51.68523,11.936-2.948.24566-5.57171-14.66413,2.45664-18.42478C586.47173,678.932,705.10478,656.0161,761.59514,615.10808Z" fill="#502e14"/><path d="M742.38552,414c6.7413,12.77576,18.5493,37.79976,26.96583,42.12674,1.00152.51488,2.88812,1.6787,4.40294.98124,4.60018-2.11787.66252-18.40626.66278-18.40626C732.44023,342.26,634.14551,281.49812,529.066,286.72308,427.4221,291.7772,338.01135,357.64993,303.34829,453.20647c0,0,.78661,20.65767,11.058,13.44449,7.71623-5.41893,6.77823-5.31682,12.7422-23.15183,7.40233-22.13635,88.63949-133.60277,200.67305-141.63078C635.45757,294.15545,728.49188,387.66947,742.38552,414Z" fill="#502e14"/><path d="M305.06278,448.62106s-23.30755,77.09527-14.2259,91.067c7.37724,11.34961,18.86186,3.49294,18.86186,3.49294l-2.445-6.63658s14.67034-86.27559,25.22122-103.77675c9.38359-15.56494-1.81853-18.8254-1.81853-18.8254L317.7325,437.345Z" fill="#502e14"/><path d="M752.3971,433.159l5.4023-2.17214,8.53964-3.706,7.14073,9.301s22.28252,50.1413,26.40652,73.2144c4.10062,22.94235-6.22248,0-6.22248,0l-6.493.81163-6.493-2.976S764.76074,452.87114,752.3971,433.159Z" fill="#502e14"/></svg>