<svg id="Layer_1" data-name="Layer 1" xmlns="http://www.w3.org/2000/svg" viewBox="0 0 1133.85827 1133.85827"><rect x="519.81179" y="660.59763" width="66.37566" height="115.24034" fill="#ecdbcf"/><line x1="516.34234" y1="775.3746" x2="516.34234" y2="671.00271" fill="none" stroke="#e9c8b6" stroke-miterlimit="10" stroke-width="17"/><line x1="588.98147" y1="778.3673" x2="588.98147" y2="673.9954" fill="none" stroke="#e9c8b6" stroke-miterlimit="10" stroke-width="17"/><polygon points="304.917 528.231 310.687 487.601 320.707 441.6 332.094 418.827 357.599 384.668 378.55 360.985 408.61 342.767 429.561 327.737 460.531 305.42 498.051 294.489 517.918 294.489 557.087 292.212 581.226 292.212 606.732 297.222 618.573 304.964 636.791 312.252 660.019 327.737 678.238 338.668 694.178 350.054 706.931 360.074 720.139 374.606 733.347 387.857 747.466 403.797 758.397 422.016 772.061 447.521 783.447 470.761 783.447 493.977 794.833 517.028 813.962 511.284 834.002 520.849 841.745 539.067 848.577 564.572 848.577 587.8 846.755 602.375 834.913 612.516 821.25 623.781 798.477 628.791 772.516 625.603 761.13 624.692 735.901 640.633 711.486 643.821 685.069 661.584 650.91 669.782 616.752 679.346 596.712 683.445 562.097 683.445 522.928 681.623 486.492 683.445 453.7 678.891 432.293 674.336 399.501 666.594 373.54 655.207 348.945 643.365 335.737 657.94 308.41 657.94 285.182 651.564 257.855 631.068 247.38 595.887 258.31 559.107 276.528 542.815 293.836 535.879 304.917 528.231" fill="#ecdbcf"/><path d="M349.24415,635.86874c-6.12678,1.41531-10.94625,5.0992-15.82213,8.85794-15.82708,12.20073-48.99264,6.83972-59.95058-12.74638-9.77335-17.46874-12.20545-36.98179-5.73948-56.67005,6.19061-18.84955,26.54472-32.21615,48.23761-23.62378,10.08849,3.99593,14.62653.73991,17.45582-11.409-1.40262-.51373-3.462-.60494-4.1067-1.60638-6.65343-10.33828-16.80733-9.74734-27.409-10.41268-10.67292-.66967-32.35209,11.25678-34.49873,13.37138-8.20664,8.084-16.80868,15.63376-19.86723,27.71424-3.90642,15.42843-3.90283,30.86372-1.35677,46.26164,2.4321,14.70875,8.063,28.7412,19.45478,38.5322,20.69487,17.787,52.91344,26.7781,81.80957,6.12295,3.81471-2.72678,6.52553-2.721,10.6084-.19252,24.09509,14.92218,107.87055,26.88965,122.5342,29.106,18.73478,2.83171,40.46716,10.77427,41.97935,1.70478.61247-3.67336,4.26946-8.2508-4.83358-12.084-8.22013-3.46137-28.94809-6.38842-34.2549-6.20157C483.48479,672.59361,409.37117,669.04869,349.24415,635.86874Z" fill="#e9c8b6"/><path d="M762.27935,611.95951c6.36653.59546,11.70764,3.61277,17.11539,6.69686,17.55348,10.01081,50.32961.32153,58.85072-20.54447,7.6-18.61029,7.52626-38.27957-1.55009-56.94923-8.68979-17.87434-30.963-28.44423-51.74224-17.0637-9.66359,5.2926-14.66525,2.66244-19.09462-9.01093,1.349-.69436,3.41551-1.05637,3.93635-2.13438C775.17,501.82515,785.494,501.07215,796.107,499.0144c10.68435-2.07144,34.10824,6.89571,36.5486,8.70941,9.32955,6.93365,18.98891,13.28548,23.6408,24.8608,5.94133,14.78326,7.93755,30.08892,7.36307,45.6928-.54875,14.90548-4.41338,29.56219-14.6414,40.77286-18.58074,20.366-49.93084,33.52994-81.769,16.85936-4.2031-2.20076-6.93813-1.83761-10.731,1.208-22.38342,17.97376-105.37916,40.8876-119.89057,45.019-9.562,2.72226-20.31942,9.30741-51.58549,11.91291-2.94228.24519-5.561-14.63583,2.45189-18.38922C587.49389,675.66027,705.898,652.78858,762.27935,611.95951Z" fill="#e9c8b6"/><path d="M743.10681,411.23953c6.72829,12.75111,18.51351,37.72682,26.91379,42.04544.99959.51389,2.88255,1.67546,4.39444.97935,4.5913-2.11378.66124-18.37074.66151-18.37074C733.18071,339.63794,635.07568,278.99333,530.199,284.20822c-101.44777,5.04436-190.686,70.79-225.28215,166.16211,0,0,.7851,20.61781,11.03665,13.41854,7.70134-5.40847,6.76515-5.30655,12.71761-23.10715,7.388-22.09363,88.46843-133.34494,200.2858-141.35747C636.3852,291.62623,729.24,384.9598,743.10681,411.23953Z" fill="#e9c8b6"/><path d="M306.628,445.79377s-23.26256,76.94649-14.19845,90.89128c7.363,11.3277,18.82547,3.4862,18.82547,3.4862l-2.44034-6.62378s14.642-86.10909,25.17255-103.57648c9.36549-15.5349-1.815-18.78907-1.815-18.78907l-12.89893,23.35752Z" fill="#e9c8b6"/><path d="M753.09906,430.36151l5.39188-2.168,8.52316-3.69883,7.127,9.28305s22.23952,50.04454,26.35555,73.07312c4.09271,22.89807-6.21047,0-6.21047,0l-6.48048.81006-6.48049-2.97022S765.43884,450.03564,753.09906,430.36151Z" fill="#e9c8b6"/><rect x="519.81179" y="660.59763" width="66.37566" height="186.1347" fill="#ecdbcf"/><line x1="516.34234" y1="845.9839" x2="516.34234" y2="677.40378" fill="none" stroke="#e9c8b6" stroke-miterlimit="10" stroke-width="17"/><line x1="588.98147" y1="850.81767" x2="588.98147" y2="682.23754" fill="none" stroke="#e9c8b6" stroke-miterlimit="10" stroke-width="17"/><polygon points="304.917 528.231 310.687 487.601 320.707 441.6 332.094 418.827 357.599 384.668 378.55 360.985 408.61 342.767 429.561 327.737 460.531 305.42 498.051 294.489 517.918 294.489 557.087 292.212 581.226 292.212 606.732 297.222 618.573 304.964 636.791 312.252 660.019 327.737 678.238 338.668 694.178 350.054 706.931 360.074 720.139 374.606 733.347 387.857 747.466 403.797 758.397 422.016 772.061 447.521 783.447 470.761 783.447 493.977 794.833 517.028 813.962 511.284 834.002 520.849 841.745 539.067 848.577 564.572 848.577 587.8 846.755 602.375 834.913 612.516 821.25 623.781 798.477 628.791 772.516 625.603 761.13 624.692 735.901 640.633 711.486 643.821 685.069 661.584 650.91 669.782 616.752 679.346 596.712 683.445 562.097 683.445 522.928 681.623 486.492 683.445 453.7 678.891 432.293 674.336 399.501 666.594 373.54 655.207 348.945 643.365 335.737 657.94 308.41 657.94 285.182 651.564 257.855 631.068 247.38 595.887 258.31 559.107 276.528 542.815 293.836 535.879 304.917 528.231" fill="#ecdbcf"/><path d="M349.24415,635.86874c-6.12678,1.41531-10.94625,5.0992-15.82213,8.85794-15.82708,12.20073-48.99264,6.83972-59.95058-12.74638-9.77335-17.46874-12.20545-36.98179-5.73948-56.67005,6.19061-18.84955,26.54472-32.21615,48.23761-23.62378,10.08849,3.99593,14.62653.73991,17.45582-11.409-1.40262-.51373-3.462-.60494-4.1067-1.60638-6.65343-10.33828-16.80733-9.74734-27.409-10.41268-10.67292-.66967-32.35209,11.25678-34.49873,13.37138-8.20664,8.084-16.80868,15.63376-19.86723,27.71424-3.90642,15.42843-3.90283,30.86372-1.35677,46.26164,2.4321,14.70875,8.063,28.7412,19.45478,38.5322,20.69487,17.787,52.91344,26.7781,81.80957,6.12295,3.81471-2.72678,6.52553-2.721,10.6084-.19252,24.09509,14.92218,107.87055,26.88965,122.5342,29.106,18.73478,2.83171,40.46716,10.77427,41.97935,1.70478.61247-3.67336,4.26946-8.2508-4.83358-12.084-8.22013-3.46137-28.94809-6.38842-34.2549-6.20157C483.48479,672.59361,409.37117,669.04869,349.24415,635.86874Z" fill="#e9c8b6"/><path d="M762.27935,611.95951c6.36653.59546,11.70764,3.61277,17.11539,6.69686,17.55348,10.01081,50.32961.32153,58.85072-20.54447,7.6-18.61029,7.52626-38.27957-1.55009-56.94923-8.68979-17.87434-30.963-28.44423-51.74224-17.0637-9.66359,5.2926-14.66525,2.66244-19.09462-9.01093,1.349-.69436,3.41551-1.05637,3.93635-2.13438C775.17,501.82515,785.494,501.07215,796.107,499.0144c10.68435-2.07144,34.10824,6.89571,36.5486,8.70941,9.32955,6.93365,18.98891,13.28548,23.6408,24.8608,5.94133,14.78326,7.93755,30.08892,7.36307,45.6928-.54875,14.90548-4.41338,29.56219-14.6414,40.77286-18.58074,20.366-49.93084,33.52994-81.769,16.85936-4.2031-2.20076-6.93813-1.83761-10.731,1.208-22.38342,17.97376-105.37916,40.8876-119.89057,45.019-9.562,2.72226-20.31942,9.30741-51.58549,11.91291-2.94228.24519-5.561-14.63583,2.45189-18.38922C587.49389,675.66027,705.898,652.78858,762.27935,611.95951Z" fill="#e9c8b6"/><path d="M743.10681,411.23953c6.72829,12.75111,18.51351,37.72682,26.91379,42.04544.99959.51389,2.88255,1.67546,4.39444.97935,4.5913-2.11378.66124-18.37074.66151-18.37074C733.18071,339.63794,635.07568,278.99333,530.199,284.20822c-101.44777,5.04436-190.686,70.79-225.28215,166.16211,0,0,.7851,20.61781,11.03665,13.41854,7.70134-5.40847,6.76515-5.30655,12.71761-23.10715,7.388-22.09363,88.46843-133.34494,200.2858-141.35747C636.3852,291.62623,729.24,384.9598,743.10681,411.23953Z" fill="#e9c8b6"/><path d="M306.628,445.79377s-23.26256,76.94649-14.19845,90.89128c7.363,11.3277,18.82547,3.4862,18.82547,3.4862l-2.44034-6.62378s14.642-86.10909,25.17255-103.57648c9.36549-15.5349-1.815-18.78907-1.815-18.78907l-12.89893,23.35752Z" fill="#e9c8b6"/><path d="M753.09906,430.36151l5.39188-2.168,8.52316-3.69883,7.127,9.28305s22.23952,50.04454,26.35555,73.07312c4.09271,22.89807-6.21047,0-6.21047,0l-6.48048.81006-6.48049-2.97022S765.43884,450.03564,753.09906,430.36151Z" fill="#e9c8b6"/></svg>