<svg id="Layer_1" data-name="Layer 1" xmlns="http://www.w3.org/2000/svg" viewBox="0 0 1133.85827 1133.85827"><rect x="519.74552" y="657.94731" width="66.504" height="208.07458" fill="#e6c1a3"/><line x1="516.26937" y1="865.18525" x2="516.26937" y2="676.73442" fill="none" stroke="#d9b291" stroke-miterlimit="10" stroke-width="17"/><line x1="589.04894" y1="870.58878" x2="589.04894" y2="682.13794" fill="none" stroke="#d9b291" stroke-miterlimit="10" stroke-width="17"/><polygon points="304.435 525.325 310.217 484.616 320.256 438.526 331.664 415.71 357.219 381.485 378.21 357.755 408.328 339.502 429.32 324.443 460.35 302.083 497.943 291.131 517.848 291.131 557.093 288.849 581.279 288.849 606.833 293.869 618.698 301.626 636.951 308.928 660.224 324.443 678.478 335.395 694.449 346.803 707.227 356.843 720.46 371.402 733.694 384.679 747.84 400.651 758.792 418.904 772.482 444.459 783.891 467.744 783.891 491.005 795.299 514.1 814.465 508.345 834.544 517.928 842.301 536.182 849.146 561.736 849.146 585.009 847.321 599.612 835.456 609.773 821.766 621.06 798.95 626.079 772.939 622.885 761.53 621.972 736.253 637.944 711.79 641.138 685.323 658.935 651.098 667.149 616.873 676.732 596.794 680.839 562.113 680.839 522.868 679.014 486.361 680.839 453.505 676.276 432.058 671.713 399.202 663.955 373.191 652.547 348.549 640.682 335.315 655.285 307.935 655.285 284.662 648.896 257.282 628.361 246.787 593.112 257.738 556.26 275.992 539.937 293.332 532.987 304.435 525.325" fill="#e6c1a3"/><path d="M348.84809,633.17061c-6.13863,1.418-10.96741,5.10906-15.85273,8.87507-15.85768,12.22432-49.08736,6.85294-60.06648-12.771-9.79225-17.50252-12.22906-37.0533-5.75059-56.77962,6.20259-18.886,26.596-32.27845,48.33088-23.66947,10.108,4.00366,14.65482.74135,17.48957-11.431-1.40533-.51472-3.46873-.6061-4.11464-1.60948-6.66629-10.35827-16.83983-9.76618-27.462-10.43281-10.69355-.671-32.41464,11.27854-34.56542,13.39723-8.22252,8.0996-16.84118,15.664-19.90565,27.76783-3.914,15.45826-3.91037,30.92339-1.35939,46.35108,2.4368,14.73719,8.07861,28.79677,19.49239,38.6067,20.73489,17.82137,53.01575,26.82988,81.96775,6.1348,3.82208-2.73206,6.53815-2.72632,10.62891-.1929,24.14168,14.951,108.07912,26.94164,122.77112,29.16229,18.771,2.83718,40.54541,10.7951,42.06052,1.70808.61366-3.68046,4.27772-8.26676-4.84293-12.10733-8.236-3.46806-29.00406-6.40077-34.32113-6.21356C483.34828,669.96649,409.09137,666.41471,348.84809,633.17061Z" fill="#d9b291"/><path d="M762.68189,609.21515c6.37884.59662,11.73028,3.61976,17.14848,6.70981,17.58742,10.03017,50.42692.32215,58.96451-20.58419,7.61466-18.64627,7.54081-38.35359-1.55309-57.05935-8.70659-17.90889-31.02288-28.49922-51.84228-17.09669-9.68227,5.30284-14.69361,2.66759-19.13154-9.02835,1.35157-.6957,3.42211-1.05841,3.944-2.1385,5.38558-11.15,15.72943-11.90449,26.36295-13.96622,10.705-2.07544,34.17419,6.909,36.61927,8.72626,9.34759,6.947,19.02562,13.31116,23.68651,24.90887,5.95281,14.81184,7.9529,30.14709,7.37731,45.78114-.54982,14.9343-4.42192,29.61935-14.66971,40.85169-18.61667,20.40541-50.02738,33.59478-81.9271,16.892-4.21123-2.205-6.95154-1.84116-10.75171,1.21034-22.4267,18.00851-105.58291,40.96666-120.12238,45.106-9.58049,2.72752-20.3587,9.3254-51.68523,11.93594-2.948.24567-5.57171-14.66412,2.45664-18.42477C587.55849,673.03908,706.19154,650.12316,762.68189,609.21515Z" fill="#d9b291"/><path d="M743.47228,408.10708c6.7413,12.77576,18.5493,37.79976,26.96583,42.12674,1.00152.51488,2.88812,1.6787,4.40294.98124,4.60018-2.11787.66251-18.40626.66278-18.40626-41.97684-96.44175-140.27156-157.20361-245.351-151.97865C428.50885,285.88427,339.09811,351.757,304.435,447.31354c0,0,.78662,20.65767,11.058,13.44449,7.71623-5.41893,6.77823-5.31682,12.7422-23.15183,7.40233-22.13635,88.63949-133.60277,200.67305-141.63078C636.54433,288.26252,729.57864,381.77654,743.47228,408.10708Z" fill="#d9b291"/><path d="M306.14953,442.72813s-23.30754,77.09527-14.2259,91.067c7.37725,11.34961,18.86187,3.49294,18.86187,3.49294l-2.44506-6.63658s14.67035-86.27559,25.22122-103.77675c9.38359-15.56494-1.81853-18.8254-1.81853-18.8254l-12.92387,23.40269Z" fill="#d9b291"/><path d="M753.48385,427.266l5.40231-2.17214,8.53964-3.706,7.14073,9.301s22.28252,50.1413,26.40651,73.2144c4.10062,22.94235-6.22247,0-6.22247,0l-6.493.81163-6.493-2.976S765.84749,446.97821,753.48385,427.266Z" fill="#d9b291"/></svg>