<svg id="Layer_1" data-name="Layer 1" xmlns="http://www.w3.org/2000/svg" viewBox="0 0 1133.85827 1133.85827"><path d="M404.04512,575.31059c-.21158,1.99927,2.44208,2.48351,2.32343,4.647-4.08249.41042-6.17132-3.26644-9.35536-4.58983q-.61881-.17153-1.23543-.346l.5867,1.00006c-1.78518,3.6426-3.25818.19864-4.18882-.505a114.02128,114.02128,0,0,1-18.07957-17.79876c-1.88232-2.231-3.32236-2.74734-6.16446-1.31757-6.24135,3.13991-13.16757,4.09957-20.06066,4.28716-2.72731.07414-6.387.62776-7.7653-3.277l-.06476.07088c6.7176,1.03517,11.33975-2.96057,15.80772-6.91367a58.23779,58.23779,0,0,0,11.44555-14.46478c1.22391-2.09435.288-3.86137-2.15424-4.177-7.03436-.90918-12.1331-5.90517-20.01109-8.63244,6.18441-1.541,10.69286.25147,15.21207.18876,13.18244-.183,23.12826-6.05667,32.89186-14.98658a74.90952,74.90952,0,0,1,33.81348-18.19823c14.28-3.2322,28.25979-.96419,41.50984,3.84271,4.52084,1.64015,8.91129,5.98972,13.365,9.04921,8.55268,5.87526,13.57512,14.66946,19.37,22.74476a8.13467,8.13467,0,0,1-.48821,8.91936c-5.12083-5.42421-10.1452-10.949-16.43121-15.9978.43448,1.82954.4471,3.2939,1.09262,4.381,5.9921,10.09164,5.32686,20.96528,4.316,32.03325-.37275,4.08106-.68908,6.52816-6.26567,3.52568,4.92171,4.09879,3.30135,7.69333.94867,11.36312a21.39157,21.39157,0,0,0-1.444,3.38262c-2.86645,1.40513-3.93624,4.4703-6.05419,6.58544-12.86951,12.85239-37.502,11.76818-49.02731,1.573-6.69823-5.92505-8.63354-11.30283-4.78228-19.965a4.65325,4.65325,0,0,0-3.19808,3.57858c-.36316,1.17314-.75256,2.3381-1.11108,3.44677-2.21349.32712-1.37953-2.40055-2.9314-2.59526C407.939,550.442,408.61,534.4454,414.65853,517.834c-10.90392,7.4238-17.884,17.45261-23.55186,28.56745a6.9572,6.9572,0,0,0-.21516,5.56093C393.50351,560.79566,398.75474,568.04475,404.04512,575.31059Zm29.1597-23.93193c2.28181-1.85589,5.709-1.48215,8.22553-4.23184-3.69929-.33327-6.20652,1.15914-8.681,2.75891-2.448.52786-4.27269,1.61122-4.02863,4.53824-3.7671,1.34994-6.39862,2.97266-4.19128,7.88614a18.15732,18.15732,0,0,1,1.90937,6.8611c.00877,3.51072,1.60646,4.02856,4.48774,4.23237,2.032.14358,4.79517.28737,4.136,3.76251-1.44684-.13071-3.83-1.38845-4.02948.52981-.25551,2.457,2.45131,3.87269,4.54992,4.31155,2.43406.509,1.173-1.82927,1.43712-2.969,1.43694-.20125,2.9235.48065,2.65752,1.77318-.90906,4.4176,2.33965,4.26845,4.92175,4.9871,3.63788,1.01229,7.33418.89845,11.05477.733,2.442-.10854,3.47158-1.04139,3.16078-3.62782-.46093-3.83593,1.36309-6.79107,4.1411-9.247-.36412,2.20817-.89173,4.40465-1.0498,6.62754-.18568,2.61128,1.61637,4.44238,3.82521,3.62514,4.78888-1.77167,9.49472-4.07512,12.00667-9.02567.85577-1.68661,2.17046-3.38073.76239-5.44088-1.40989-2.06269-3.46949-1.087-5.33011-1.32711-3.55062-.4579-5.46978,3.92348-9.11462,2.834,3.87284-3.48573,7.93-6.44708,13.619-5.53215,1.376.22139,3.54417,1.62782,4.02139-.51628a4.18242,4.18242,0,0,0-3.2316-5.046c-2.78468-.53407-4.35138-1.87655-5.00378-4.512,2.1763.67883,4.251-.12168,4.54448-2.11683.39453-2.682-2.64787-3.02674-4.296-4.27762-.57816-.2106-1.27425-.6562-1.5801.24768-.29514.8723.6007.92415,1.09085,1.23009,1.81,1.56106,1.49766,3.25754.3184,5.00933-3.06345.025-3.93258,2.47149-5.10053,4.60925-.26612.48705.10969,1.65306-.976,1.29822-.5449-.17811-1.33393-1.03949-1.26181-1.46378,1.00615-5.91864-2.5228-1.95317-4.20011-1.97442-.25106-5.419-.33225-5.83705-1.30219-6.70268q-.43835-.49587-.87672-.99163l-.45545.572q.70824.16262,1.41648.32529c-4.1831,3.129-8.80636,6.2914-13.84519,2.98809-3.91162-2.56439-6.17764-1.92977-8.83,1.24539-.95183,1.13946-2.44384,1.82594-4.59252,3.36693,3.79791-.25533,3.21949,4.62415,6.041,3.71942,2.6362-.84529-.29772-4.657,2.22378-6.7814.60619,6.11663,4.80673,2.2501,7.30089,3.16333l-.05943-.0684c-3.50615,1.573-8.12308,1.60141-8.92024,6.903-.11241.74754-1.95543.447-2.7375-.36988-3.23891-3.38335-6.55024-6.718-8.7455-10.94237C430.72367,554.2552,431.64838,552.32772,433.20482,551.37866ZM472.486,537.252c.26689.705-.3262,1.87654.95546,2,.34855.03361,1.0764-.48254,1.07226-.73728-.0241-1.4809-.97641-1.54263-2.10768-1.168.76151-2.31319-.36581-2.49006-2.42272-3.03713-4.61612-1.22767-9.41987-2.066-13.56274-4.8379-1.82645-1.222-4.79433-.17-4.734,1.294.06407,1.55342-3.38551,2.38563-.56912,4.34672,4.93536,3.43637,9.445,7.661,16.02867,7.234,1.66935-.10828,5.33927,1.20282,2.72315-3.24846C468.82877,537.32757,470.411,536.23636,472.486,537.252Zm-43.83441-6.553c1.03267,1.24984-1.204,2.984.7503,4.262a7.33372,7.33372,0,0,0,4.31764-4.26565c.72561-1.92336-.52185-2.08349-1.9847-1.8243-1.60864-1.99365.67741-2.824,1.29234-4.097,1.64719-3.40989,2.41144-6.70895-.70783-9.68037-3.17089-3.02072-6.334-1.28364-9.10689.55538a16.83276,16.83276,0,0,0-7.27912,11.83572c-.93926,5.99462,1.894,8.0817,7.56941,5.78761C425.27531,532.55584,426.93727,531.56454,428.65155,530.699Zm11.12912,11.664a20.63025,20.63025,0,0,0-1.2182-2.41276c-.363-.51046-.62367-1.539-1.51265-1.0682-2.63666,1.39643-1.891,5.76787-5.4953,6.37248.14887.47228.15228,1.16483.47273,1.37727,1.15906.76827,1.87721-.26357,2.71118-.8466C436.40526,544.61982,438.10257,543.49821,439.78067,542.363Zm1.00555,4.21733c7.02171,1.58676,13.20349-3.20719,18.95576,1.31829.704.55381,1.90808-.94265,2.06316-1.94827.17474-1.13332-.93666-1.28547-1.84054-1.35229A47.17445,47.17445,0,0,0,440.78622,546.58032Zm46.15926-1.02536c.16052-3.37478,1.56078-6.94016-.90848-10.2842C482.31154,539.0587,485.12714,542.26838,486.94548,545.555Zm-10.84112-3.50366c-.712.17439-2.35222-2.23557-2.30539,1.17739.05035,3.669,2.83493,2.59219,4.43731,3.47266.91233.50137,1.972-.48764,1.54065-1.288C479.01257,543.99494,479.923,540.47762,476.10436,542.0513Zm-29.70853-3.05171c-.33135-1.01994-.75244-1.68261-2.16986-1.50365-2.34151.2956-2.67817,1.87452-2.75517,3.69732-.04654,1.10167.63861,1.491,1.6802,1.4146C445.35446,542.44629,445.88089,540.77819,446.39583,538.99959ZM467.4,523.08765c2.77754,2.5946,5.09885,2.38688,7.08262,3.07708l.48385-3.07708Zm4.40431,25.48927c-2.23518-1.66425-4.23647-2.49137-7.01288-1.20884C467.0292,549.06292,469.03146,549.88468,471.80435,548.57692Zm-6.56212,3.7508c-.76967.09023-1.40449.41663-1.37637,1.27527.022.67242.07735,1.5287,1.06627,1.518.8645-.00928,1.08376-.73564,1.27729-1.427C466.4497,552.83557,466.16952,552.357,465.24223,552.32772Zm16.83641-6.721c-.18014-.264-.35556-.521-.531-.77815-.17187.25991-.48239.5221-.47818.77913.00457.28018.30089.55558.47.83307Zm17.55448-16.34558.34172.2246.04754-.34987Z" style="fill:#2a292a"/><path d="M606.97966,535.97992c-3.25351-2.68725-1.2812-7.179-.53474-8.79466,3.0704-6.64579,7.46681-13.38462,12.51068-18.03947,6.34183-5.85267,13.71783-11.60586,22.3104-14.7853,2.28449-.8453,4.44176-2.03583,6.65734-3.06783a95.43209,95.43209,0,0,1,30.89958-2.15l-.08582-.09552c1.95162,1.65263,4.29892,1.13358,6.54014,1.19664l-.15-.11053c.19172,1.38488,1.5358,1.1204,2.33336,1.63789,9.98994,5.23763,20.36078,9.85047,28.488,18.06383a44.70118,44.70118,0,0,0,20.30667,12.0745c7.81263,2.05838,16.03671,1.55276,23.73713,1.45324-1.72012,2.55669-6.7761,5.5385-14.17269,7.077-4.50845.93775-7.05553,1.30554-3.5688,6.83893,6.43439,10.21136,13.48313,19.1398,27.43807,20.96594-3.523,1.86857-6.44261,2.8-9.308,2.26258-7.2791-1.36537-15.27089.79586-21.80137-4.61761-1.63333-1.354-3.11474.60847-4.36932,1.94343-4.85849,5.1696-9.56,10.51756-15.30421,14.759-1.8009,1.3298-3.28372,3.32685-5.89083,3.19164l.0568.05087c-.067-.54538-.28279-.9881-.91225-.79822-.14235.04289-.14907.53727-.21818.82378l.08862-.09049c-4.36734.90552-7.13371,4.83711-11.93633,6.30258,1.20691-4.35842,5.76306-5.97755,6.60578-9.92216,3.35505-4.5978,5.25655-10.02083,8.65143-14.66224,3.3589-4.59211,3.58939-9.77354.01028-14.78-2.05645-2.87661-3.52941-6.17835-5.6378-9.01011-4.1272-5.54294-8.35691-11.05907-15.22985-14.85146.92442,5.60322,3.16476,10.085,3.55079,15.03434a71.14673,71.14673,0,0,1-5.33913,33.72535c-1.28548,3.04746-2.64549,1.93624-4.20814.416-.72914-6.80513-3.79739-12.1718-9.68209-15.80641l.04538.043c-4.56888-4.66894-10.61245-4.83855-14.95218-.311a11.85135,11.85135,0,0,1-5.28878,3.29625c-2.10751.62312-9.50237-3.58564-9.35946-5.72.176-2.62789,1.49488-5.00169,4.73632-5.34653-5.62351,1.268-11.24706,2.53589-17.62771,3.97456,3.04058,2.16986,5.20653-1.80384,7.22363.89937-.30765.178-1.28043-.05414-.4907.79979l.41565-.87459c.6432.0404,1.73666-.1787,1.61415.71544-.50022,3.65057-4.10442,4.55942-6.41638,6.42453-2.07985,1.67777-2.301-1.62547-3.51933-2.48038-.34387-.24127-1.20936.2637-1.83559.42637a4.095,4.095,0,0,0-.61788-.85059c.61086-1.76775,3.49284-1.73473,3.39639-4.1864-5.83211,1.61475-9.77472,10.24595-7.96083,17.84936.51448,2.15646.49327,6.20575,2.26126,6.07446,3.97247-.295,7.43264,2.15215,10.938,1.5799,2.47093-.40336,1.54733-.32869,1.51277,1.43984-.14089,7.211.79743,8.12041,8.34561,9.75314.85727.18543,1.65947.67275,2.51889.79351,3.3188.466,5.57477-.13992,6.57521-4.1524,1.35815-5.447,4.4013-9.96917,10.26111-11.73313-2.01211,2.80587-4.88067,4.96095-6.05975,8.4174-.55142,1.61657-.85267,3.01692.28181,4.45689a4.17467,4.17467,0,0,0,4.69185,1.65326c2.78569-.97548,5.83785-1.89989,7.74144-4.26185,1.77578-2.20347,4.79169-4.34614,3.21664-7.79611-1.51744-3.32378-4.57955-4.14318-8.03979-3.62442,3.001-3.59427,6.87284-2.97933,9.54283-.50169,2.03886,1.892,3.72671,1.08493,5.61311,1.32541l-.31969,4.96664c-6.3474,5.05615-11.74461,11.41425-20.115,13.59327-16.99858,4.42512-37.62546-3.3927-45.32993-23.13705-.72954-1.86955.74095-2.99966.73038-4.54209,1.4616-.763.827-2.53537,1.71431-3.57558q1.13461-1.01617,2.26615-2.03393c.0938-.27.19078-.5372.28775-.8043l-.228.8793a2.31184,2.31184,0,0,0-2.2498,2.03112c-.89972.78069-2.4304.73224-2.83382,2.16509q-1.16448.20007-2.3253.39715a61.23965,61.23965,0,0,1,.87769-32.33023c.79691-2.67274,3.97671-4.46278,3.01383-8.23628C617.05809,524.92333,611.50909,529.93868,606.97966,535.97992Zm62.23373-17.961.063-.06218c.32889.56715.70715.3436,1.08867.06826q1.04437-.04462,2.08819-.08873c-.05028.53269.14947.88858.71606.73375.14878-.04067.18875-.481.27871-.7378.64858-.56878,3.75761,1.597,1.92519-1.64692a3.61769,3.61769,0,0,0-3.90966-1.89518c-1.59343.48993-.69338,2.43788-1.039,3.70517Q669.81976,518.057,669.21339,518.01888ZM655.74031,536.414q.75645-.18349,1.51293-.36681c1.37361-.331,3.31867,1.21459,4.06291-1.15816.84132-2.68229-1.869-2.42114-2.95747-3.52856a3.48813,3.48813,0,0,0-4.42877-.44979c-3.91521,2.47116-4.11026-.2172-4.22531-4.23105-1.16887,5.63363-1.17092,5.70843-5.28744,5.59485-1.54765-.04263-2.28661.94776-2.94374,1.901-1.388,2.01347-2.57087,4.16954-3.8263,6.274-.7787,1.30541-1.10765,2.96855-.20546,4.005,1.13425,1.30312,2.47113-.16857,3.73292-.5697,3.75859-1.195,5.29488-5.60029,9.31225-6.37274-.42094,1.54112-.99715,3.68391,1.1288,3.80533C654.53871,541.48455,655.76726,539.25028,655.74031,536.414Zm-10.216-17.88657c.18579-4.68875-3.524-7.55437-7.42481-5.74543-3.322,1.54053-6.7579,3.13658-8.9431,6.41929-2.36309,3.55008-5.73275,7.60047-2.2822,11.39522,3.309,3.63893,7.46974.24761,11.07342-1.37119.15139-.06806.25658-.2412.38077-.36785,1.05936-1.08049,1.97576-1.76533,2.06682.60187.04284,1.11317.67136,1.50319,1.77347,1.245,1.76642-.414,2.5706-1.73617,3.19549-3.25284.39627-.96181.31526-1.8564-.87746-1.94552-3.45545-.25847-1.35645-1.73623-.743-2.98123C644.4412,521.109,645.033,519.64088,645.52429,518.52744Zm28.20734,17.99413c-1.63147-1.206-2.16752-3.18706-4.61606-3.28827a5.64544,5.64544,0,0,0-5.436,3.766c-.36563.85386,1.95817,4.80455,3.491,4.43009C669.498,540.86078,671.36773,538.41159,673.73163,536.52157Zm-32.68583,43.043a9.80909,9.80909,0,0,0-5.68-4.68718c-1.16388-.41069-2.10318.65607-1.66935,1.89211.94964,2.70575,3.24724,4.0432,5.82555,4.7833C640.4613,581.82247,641.11937,581.035,641.0458,579.56453Zm45.52038-58.04141c-1.08188.1736-2.60653,1.11854-2.22057,1.65757,1.15719,1.61632.05315,4.6747,2.54134,5.04157,2.00731.296.79916-2.104,1.48056-3.15776C689.63247,523.10838,687.83593,522.38561,686.56618,521.52312Zm5.05588,33.95616a16.729,16.729,0,0,0,2.69231-9.97376C690.67363,548.21141,689.85976,550.90612,691.62206,555.47928Zm-6.96948-9.02254c-1.03418,1.9284.95518,3.91055-.83737,5.6167-.9452.89963.35228,1.44331.96165,1.89852,1.18449.88492,1.27168-.394,1.82355-.94233C689.88243,549.76843,686.41792,548.44687,684.65258,546.45674Zm-9.19134-.13645c-.958-6.136-4.26109-6.27709-9.55275-5.58715A28.84521,28.84521,0,0,0,675.46124,546.32029Zm15.34535-20.27358-.71008-.0478c.11181.0833.21984.22584.33649.2333C690.55307,526.23992,690.68159,526.116,690.80659,526.04671Z" style="fill:#2a292a"/><path d="M688.49731,568.02187c1.56265,1.52026,2.92266,2.63148,4.20814-.416a71.14673,71.14673,0,0,0,5.33913-33.72535c-.386-4.94931-2.62637-9.43112-3.55079-15.03434,6.87294,3.79239,11.10265,9.30852,15.22985,14.85146,2.10839,2.83176,3.58135,6.1335,5.6378,9.01011,3.57911,5.00646,3.34862,10.18789-.01028,14.78-3.39488,4.64141-5.29638,10.06444-8.65143,14.66224-.88393-3.84836-3.37179-4.03961-6.41174-2.74917-2.40858,1.02249-6.44421.32208-4.60125,5.53627.78164,2.21132-3.025.80541-4.47341,2.56086-1.45762,1.76664-.66933-.872-.87616-1.43421-.68679-1.86661-1.95866-.92873-3.07794-.7979q.15975-2.4839.31963-4.96716A2.395,2.395,0,0,0,688.49731,568.02187Z" style="fill:#d6d5d5"/><path d="M404.04512,575.31059c-5.29038-7.26584-10.54161-14.51493-13.15361-23.34817a6.9572,6.9572,0,0,1,.21516-5.56093c5.66786-11.11484,12.64794-21.14365,23.55186-28.56745-6.04849,16.61136-6.71949,32.608,1.25638,48.331-1.85466,3.77611-4.36679,6.08668-9.078,5.24557C404.115,570.92483,404.02893,573.30811,404.04512,575.31059Z" style="fill:#d6d5d5"/><path d="M483.01925,573.54153a21.39157,21.39157,0,0,1,1.444-3.38262c2.35268-3.66979,3.973-7.26433-.94867-11.36312,5.57659,3.00248,5.89292.55538,6.26567-3.52568,1.01088-11.068,1.67612-21.94161-4.316-32.03325-.64552-1.08709-.65814-2.55145-1.09262-4.381,6.286,5.04876,11.31038,10.57359,16.43121,15.9978-.63662,4.85777,2.31749,9.27746,1.64837,14.1795-.43632,3.19647.93661,6.97448-3.359,8.6724a1.59788,1.59788,0,0,0-.60442,1.291c.1521,3.36817-1.267,4.95787-4.62025,5.49233-3.34257.53256-3.49807,4.42676-6.03321,6.065C486.25388,571.57534,485.69563,574.17864,483.01925,573.54153Z" style="fill:#d6d5d5"/><path d="M606.97966,535.97992c4.52943-6.04124,10.07843-11.05659,16.08774-16.308.96288,3.7735-2.21692,5.56354-3.01383,8.23628a61.23965,61.23965,0,0,0-.87769,32.33023,5.25558,5.25558,0,0,0-3.97564.98221c-.40122.24611-1.29507-.14522-1.85839-.444a1.54581,1.54581,0,0,1,.15292-1.32137c4.0714-3.07329-.24073-4.33456-1.21327-7.018-.95336,1.815-1.36614,3.22341-2.26788,4.15829-1.0966,1.13678-3.12424,1.38982-3.22013-.56578C606.46626,549.357,603.0669,542.60832,606.97966,535.97992Z" style="fill:#d6d5d5"/><path d="M660.57429,480.9913c-15.41494.23771-28.76913,6.09927-40.76053,15.67993,13.314-17.35333,41.28764-22.97022,66.43753-13.98839q3.75189,1.61808,7.50387,3.23616l-.04275-.07166q.56053,1.039,1.121,2.07806-.60591.13525-1.21181.27057a44.8764,44.8764,0,0,0-13.42055-4.86651A87.42972,87.42972,0,0,0,660.57429,480.9913Z" style="fill:#2a292a"/><path d="M416.38226,485.25606c21.15886-10.09994,42.05244-9.60723,62.52445,1.85779,6.2039,3.47439,8.80362,6.55255,10.709,11.45557-5.32549-4.03193-9.6531-8.23857-15.22642-10.69211-12.7-5.59083-25.72074-8.92586-39.63857-6.02551-5.86312,1.22175-11.62338,2.93908-17.43041,4.4311Q416.85128,485.76947,416.38226,485.25606Z" style="fill:#2a292a"/><path d="M409.98969,488.45564q2.25606-.91692,4.51217-1.83378l.93644,1.01876q-2.44509.74391-4.89019,1.4878Q410.27753,488.7848,409.98969,488.45564Z" style="fill:#2a292a"/><path d="M406.83869,581.36484c.16184-.86158.57582-1.20433,1.0647-.81326a6.85832,6.85832,0,0,1,1.11205,1.54335c-.38271.24271-1.025.75938-1.10532.683A8.74592,8.74592,0,0,1,406.83869,581.36484Z" style="fill:#2a292a"/><path d="M687.46061,491.77115c-.79756-.51749-2.14164-.253-2.33336-1.63789Q686.294,490.95157,687.46061,491.77115Z" style="fill:#d6d5d5"/><path d="M410.54811,489.12842c-.334.70609-1.09618,1.17425-1.52907.5937-.52975-.71041.60616-.84334.97223-1.26533Q410.27675,488.78421,410.54811,489.12842Z" style="fill:#2a292a"/><path d="M417.3203,486.2829c-.2667.95557-1.07129,1.16147-1.88275,1.35723q-.46707-.50864-.93568-1.01827.941-.68234,1.88123-1.36521Q416.85086,485.76916,417.3203,486.2829Z" style="fill:#2a292a"/><path d="M711.96111,576.86819l-.33007.68562c-.74545-.69824.19352-.46266.36119-.65483Z" style="fill:#2a292a"/><path d="M713.01529,575.78365c.20953.90767-.2717,1.14273-1.05356,1.08519l.0305.03014q.01918-.56444.038-1.12939l-.08859.09049q.56519-.01284,1.1305-.02556Z" style="fill:#2a292a"/><path d="M340.10565,557.41068q-.23022.05474-.46044.10952c.12978-.01013.25956-.0202.39251-.03446C340.04089,557.48156,340.10565,557.41068,340.10565,557.41068Z" style="fill:#2a292a"/><path d="M473.45852,555.36139c.65458,2.63756,2.22128,3.98,5.006,4.51411a4.18242,4.18242,0,0,1,3.2316,5.046c-.47722,2.1441-2.64535.73767-4.02139.51628-5.689-.91493-9.74616,2.04642-13.61875,5.532l-.07555-.0591q-.55976,1.42417-1.11956,2.84842l.09507-.08218c-2.778,2.45592-4.602,5.41106-4.14105,9.247.3108,2.58643-.71876,3.51928-3.16078,3.62782-3.72059.16542-7.41689.27926-11.05477-.733-2.5821-.71865-5.83081-.5695-4.92175-4.9871.266-1.29253-1.22058-1.97443-2.65752-1.77318l.14536.09259c-.08589-1.37969.30116-3.24852-2.19731-2.1326l.09464.16719c.659-3.47468-2.10423-3.61847-4.13621-3.762-2.88128-.20381-4.479-.72165-4.48774-4.23237a18.15732,18.15732,0,0,0-1.90937-6.8611c-2.20734-4.91348.42418-6.5362,4.19128-7.88614l-.103-.09134c2.19485,4.22432,5.50618,7.55895,8.74509,10.9423.78207.81691,2.62509,1.11742,2.7375.36988.79716-5.30161,5.41409-5.33,8.91706-6.90576l.07438-.19825-.01177.26939c-2.49416-.91323-6.6947,2.9533-7.30089-3.16333-2.5215,2.12436.41242,5.93611-2.22378,6.7814-2.82149.90473-2.24307-3.97475-6.041-3.71942,2.14868-1.541,3.64069-2.22747,4.59252-3.36693,2.65235-3.17516,4.91837-3.80978,8.83-1.24539,5.03883,3.30331,9.66209.14091,13.84519-2.98809l-.0841.09435c.96973.86563,1.05092,1.28364,1.30185,6.703,1.67744.02093,5.20639-3.94454,4.20024,1.9741-.07212.42429.71691,1.28567,1.26181,1.46378,1.08573.35484.70992-.81117.976-1.29822,1.168-2.13776,2.03708-4.5842,5.10053-4.60925Zm-18.8269,14.84048c-1.73711-1.238-3.2199-3.46835-5.61048-1.60677-.63638.49555-1.43707,1.70766-.64361,2.23544C450.37249,572.15766,452.50826,571.46523,454.63162,570.20187Z" style="fill:#7db7d8"/><path d="M428.64988,530.699c-1.71261.8655-3.37457,1.8568-5.14718,2.57336-5.67541,2.29409-8.50867.207-7.56941-5.78761a16.83276,16.83276,0,0,1,7.27912-11.83572c2.77285-1.839,5.936-3.5761,9.10689-.55538,3.11927,2.97142,2.355,6.27048.70783,9.68037-.61493,1.273-2.901,2.10337-1.29234,4.097l.22015-.18838c-1.5928-1.36406-1.96454-.135-2.33228,1.10259l.16933-.13718a1.2866,1.2866,0,0,0-1.24411,1.23316Z" style="fill:#b5deef"/><path d="M463.98039,570.91071l.07555.0591c3.64459,1.08964,5.56375-3.29174,9.11437-2.83384,1.86062.24009,3.92022-.73558,5.33011,1.32711,1.40807,2.06015.09338,3.75427-.76239,5.44088-2.51195,4.95055-7.21779,7.254-12.00667,9.02567-2.20884.81724-4.01089-1.01386-3.82521-3.62514.15807-2.22289.68568-4.41937,1.04976-6.62754l-.09506.08218C463.70474,572.99537,466.04026,572.82021,463.98039,570.91071Z" style="fill:#b5deef"/><path d="M472.484,537.25447c-2.07295-1.01811-3.6552.0731-2.61469,1.84346,2.61612,4.45128-1.0538,3.14018-2.72315,3.24846-6.5837.427-11.09331-3.79763-16.02867-7.234-2.81639-1.96109.63319-2.7933.56912-4.34672-.06037-1.464,2.90751-2.51595,4.734-1.294,4.14287,2.77193,8.94662,3.61023,13.56274,4.8379,2.05691.54707,3.18423.72394,2.42272,3.03713Z" style="fill:#7db7d8"/><path d="M439.78067,542.363c-1.6781,1.13522-3.37541,2.25683-5.04224,3.42219-.834.583-1.55212,1.61487-2.71118.8466-.32045-.21244-.32386-.905-.47273-1.37727,3.60427-.60461,2.85864-4.976,5.4953-6.37248.889-.47077,1.1497.55774,1.51265,1.0682A20.63025,20.63025,0,0,1,439.78067,542.363Z" style="fill:#7db7d8"/><path d="M440.78622,546.58032A47.17445,47.17445,0,0,1,459.9646,544.598c.90388.06682,2.01528.219,1.84054,1.35229-.15508,1.00562-1.35914,2.50208-2.06316,1.94827C453.98971,543.37313,447.80793,548.16708,440.78622,546.58032Z" style="fill:#7db7d8"/><path d="M486.94548,545.555c-1.81834-3.28658-4.63394-6.49626-.90848-10.2842C488.50626,538.6148,487.106,542.18018,486.94548,545.555Z" style="fill:#b5deef"/><path d="M437.02,579.05845c-.26407,1.13973.99694,3.478-1.43712,2.969-2.09861-.43886-4.80543-1.85458-4.54992-4.31155.19948-1.91826,2.58264-.66052,4.02961-.53007l-.09478-.16765a2.92506,2.92506,0,0,0,2.19757,2.13286Z" style="fill:#b5deef"/><path d="M476.10436,542.0513c3.81861-1.57368,2.90821,1.94364,3.67257,3.3621.43131.80031-.62832,1.78932-1.54065,1.288-1.60238-.88047-4.387.19635-4.43731-3.47266C473.75214,539.81573,475.3924,542.22569,476.10436,542.0513Z" style="fill:#7db7d8"/><path d="M431.73479,528.87108c1.46285-.25919,2.71031-.09906,1.9847,1.8243a7.33372,7.33372,0,0,1-4.31764,4.26565c-1.95428-1.278.28237-3.01215-.75113-4.262l-.10288.18236c1.28679.47215,1.46229-.18125,1.24415-1.23329l-.16932.13731c1.3141.77193,1.72026-.38394,2.33227-1.10272Z" style="fill:#d6d5d5"/><path d="M446.39583,538.99959c-.51494,1.7786-1.04137,3.4467-3.24483,3.60827-1.04159.07637-1.72674-.31293-1.6802-1.4146.077-1.8228.41366-3.40172,2.75517-3.69732C445.64339,537.317,446.06448,537.97965,446.39583,538.99959Z" style="fill:#b5deef"/><path d="M473.53837,555.45619c1.17926-1.75179,1.49156-3.44827-.3184-5.00933l.48646-1.48816c1.65088,1.26127,4.69328,1.606,4.29875,4.288-.29348,1.99515-2.36818,2.79566-4.54557,2.11572Z" style="fill:#7db7d8"/><path d="M467.4,523.08765h7.56647l-.48385,3.07708C472.49889,525.47453,470.17758,525.68225,467.4,523.08765Z" style="fill:#7db7d8"/><path d="M432.74931,549.90573c2.47452-1.59977,4.98175-3.09218,8.681-2.75891-2.51657,2.74969-5.94372,2.37595-8.22263,4.22452C433.05685,550.87794,432.90307,550.39187,432.74931,549.90573Z" style="fill:#7db7d8"/><path d="M471.80435,548.57692c-2.77289,1.30776-4.77515.486-7.01288-1.20884C467.56788,546.08555,469.56917,546.91267,471.80435,548.57692Z" style="fill:#7db7d8"/><path d="M428.72068,554.444c-.24406-2.927,1.58064-4.01038,4.02863-4.53824.15376.48614.30754.97221.45841,1.46561-1.55934.95638-2.484,2.88386-4.59024,2.98129Z" style="fill:#7db7d8"/><path d="M465.24236,552.33014c.92716.02681,1.20734.50543.96706,1.36387-.19353.69138-.41279,1.41774-1.27729,1.427-.98892.01066-1.04423-.84562-1.06627-1.518C463.83774,552.74435,464.47256,552.418,465.24236,552.33014Z" style="fill:#7db7d8"/><path d="M472.406,537.34673c1.13127-.37466,2.08358-.31293,2.10768,1.168.00414.25474-.72371.77089-1.07226.73728-1.28166-.12345-.68857-1.295-.95646-1.99875Z" style="fill:#7db7d8"/><path d="M482.07864,545.60674l-.53914.83405c-.16915-.27749-.46547-.55289-.47-.83307-.00421-.257.30631-.51922.4782-.77913Z" style="fill:#7db7d8"/><path d="M460.782,551.12843q-.70824-.16261-1.41648-.32529l.45545-.572q.43838.4958.87682.99163Z" style="fill:#7db7d8"/><path d="M396.36446,576.02184l-.5867-1.00006q.61718.1737,1.23543.346Q396.69428,575.69776,396.36446,576.02184Z" style="fill:#888"/><path d="M473.22,550.44686c-.49015-.30594-1.386-.35779-1.09085-1.23009.30585-.90388,1.00194-.45828,1.57869-.25291C473.54428,549.45477,473.38213,549.95078,473.22,550.44686Z" style="fill:#7db7d8"/><polygon points="499.633 529.261 500.022 529.136 499.975 529.486 499.633 529.261" style="fill:#888"/><path d="M688.49731,568.02187a2.395,2.395,0,0,1-.91845,2.27683c-1.8864-.24035-3.57425.56669-5.61311-1.32528-2.67-2.47764-6.54186-3.09258-9.54283.50169l.08088-.08813c-.94275.06662-1.93289.05139-2.20278,1.2803l.2896-.0374c-5.85971,1.764-8.90286,6.28617-10.261,11.73319-1.00044,4.01248-3.25641,4.6184-6.57521,4.1524-.85942-.12076-1.66162-.60808-2.51889-.79351-7.54818-1.63273-8.4865-2.5421-8.34561-9.75314.03456-1.76853.95816-1.8432-1.51277-1.43984-3.50533.57225-6.9655-1.87492-10.938-1.5799-1.768.13129-1.74678-3.918-2.26126-6.07446-1.81389-7.60341,2.12872-16.23461,7.96083-17.84936.09645,2.45167-2.78553,2.41865-3.39639,4.1864q-.377.51118-.75394,1.02249.68594-.086,1.37182-.1719c.62623-.16267,1.49172-.66764,1.83559-.42637,1.21836.85491,1.43948,4.15815,3.51933,2.48038,2.312-1.86511,5.91616-2.774,6.41638-6.42453.12251-.89414-.971-.675-1.61415-.71544l.075.07454c-2.01706-2.70295-4.183,1.27075-7.22359-.89911,6.38065-1.43867,12.0042-2.70661,17.62771-3.97456-3.24144.34484-4.56036,2.71864-4.73632,5.34653-.14291,2.13436,7.25195,6.34312,9.35946,5.72a11.85135,11.85135,0,0,0,5.28878-3.29625c4.33973-4.52758,10.3833-4.358,14.95221.311-4.74676.18157-3.36026,4.302-4.29571,6.8881-.08917.24664.90765.88761,1.4003,1.34543,1.47081-2.03949,3.30026-3.92028,2.90752-6.76982a14.66144,14.66144,0,0,1-.05752-1.50673C684.69992,555.85007,687.76817,561.21674,688.49731,568.02187Zm-20.26929-1.783c-2.51494,2.06034-6.57694.19975-8.63414,3.42022-2.63028-2.1256-5.161-2.26755-7.91893.21793,6.59586,2.919,12.774,1.42839,16.44331-3.71675a1.70362,1.70362,0,0,0,.32925-.26095c.03113-.039-.04675-.16536-.07485-.25186Zm-20.26187-18.60646c-.03462-.13012-.03149-.3313-.11234-.37446a.5895.5895,0,0,0-.48551-.0478c-.42159.257-.36289.5089.14676.60763C647.64851,547.84375,647.81492,547.69886,647.96615,547.63243Z" style="fill:#7db7d8"/><path d="M645.52429,518.52744c-.49131,1.11344-1.08309,2.58153-1.78061,3.99731-.61344,1.245-2.71244,2.72276.743,2.98123,1.19272.08912,1.27373.98371.87746,1.94552-.62489,1.51667-1.42907,2.83882-3.19549,3.25284-1.10211.2582-1.73063-.13182-1.77347-1.245-.09106-2.3672-1.00746-1.68236-2.06682-.60187-.12419.12665-.22938.29979-.38077.36785-3.60368,1.6188-7.76441,5.01012-11.07342,1.37119-3.45055-3.79475-.08089-7.84514,2.2822-11.39522,2.1852-3.28271,5.62107-4.87876,8.9431-6.41929C642.0003,510.97307,645.71008,513.83869,645.52429,518.52744Z" style="fill:#b5deef"/><path d="M672.42292,569.47511c3.46024-.51876,6.52235.30064,8.03979,3.62442,1.57505,3.45-1.44086,5.59264-3.21664,7.79611-1.90359,2.362-4.95575,3.28637-7.74144,4.26185a4.17467,4.17467,0,0,1-4.69185-1.65326c-1.13448-1.44-.83323-2.84032-.28181-4.45689,1.17908-3.45645,4.04764-5.61153,6.05975-8.4174l-.28948.03727c1.37551.68059,1.72942-.40277,2.20256-1.28023Z" style="fill:#b5deef"/><path d="M650.48569,537.50777c-4.01623.77677-5.55252,5.182-9.31111,6.37706-1.26179.40113-2.59867,1.87282-3.73292.5697-.90219-1.03648-.57324-2.69962.20546-4.005,1.25543-2.10447,2.4383-4.26054,3.8263-6.274.65713-.95324,1.39609-1.94363,2.94374-1.901,4.11652.11358,4.11857.03878,5.28744-5.59485.115,4.01385.3101,6.70221,4.22531,4.23105a3.48813,3.48813,0,0,1,4.42877.44979c1.08844,1.10742,3.79879.84627,2.95747,3.52856-.74424,2.37275-2.6893.82718-4.06291,1.15816q-.75669.18233-1.51293.36681l.21495-.16686.2317.14267c-1.76414-3.0487-2.57537-3.04655-5.0384.0134l.12056-.09742c-.755.01262-1.30434.23218-1.15686,1.15346Z" style="fill:#7db7d8"/><path d="M673.73163,536.52157c-2.3639,1.89-4.23366,4.33921-6.56108,4.90779-1.53281.37446-3.85661-3.57623-3.491-4.43009a5.64544,5.64544,0,0,1,5.436-3.766C671.56411,533.33451,672.10016,535.31555,673.73163,536.52157Z" style="fill:#7db7d8"/><path d="M641.0458,579.56453c.07357,1.47044-.5845,2.25794-1.52383,1.98823-2.57831-.7401-4.87591-2.07755-5.82555-4.7833-.43383-1.236.50547-2.3028,1.66935-1.89211A9.80909,9.80909,0,0,1,641.0458,579.56453Z" style="fill:#b5deef"/><path d="M686.5701,521.52848c1.26583.85713,3.06237,1.5799,1.79741,3.536-.6814,1.05374.52675,3.45376-1.48056,3.15776-2.48819-.36687-1.38415-3.42525-2.54134-5.04157C683.95965,522.64166,685.4843,521.69672,686.5701,521.52848Z" style="fill:#7db7d8"/><path d="M655.74031,536.41408c.02695,2.8362-1.2016,5.07047-4.12468,4.90334-2.12595-.12142-1.54974-2.26421-1.12936-3.80749l-.37385-.05061c.93039.16379,1.59317.05832,1.1567-1.15352l-.1205.09736,5.03834-.01334-.2317-.14267Z" style="fill:#b5deef"/><path d="M691.62206,555.47928c-1.7623-4.57316-.94843-7.26787,2.69231-9.97376A16.729,16.729,0,0,1,691.62206,555.47928Z" style="fill:#b5deef"/><path d="M684.65258,546.45674c1.76534,1.99013,5.22985,3.31169,1.94783,6.57289-.55187.54832-.63906,1.82725-1.82355.94233-.60937-.45521-1.90685-.99889-.96165-1.89852C685.60776,550.36729,683.6184,548.38514,684.65258,546.45674Z" style="fill:#7db7d8"/><path d="M675.46124,546.32029a28.84521,28.84521,0,0,1-9.55275-5.58715C671.20015,540.0432,674.50328,540.1843,675.46124,546.32029Z" style="fill:#7db7d8"/><path d="M670.42973,518.10015c.34048-1.27219-.55957-3.22014,1.03386-3.71007a3.61769,3.61769,0,0,1,3.90966,1.89518c1.83242,3.244-1.27661,1.07814-1.92519,1.64692l.07521.0869c-.10024-.42154-.14585-1.18229-.30971-1.20878-.95558-.1545-.79671.62665-.83505,1.21165l.07537-.08624q-1.04438.04462-2.09149.08631Z" style="fill:#7db7d8"/><path d="M621.50118,559.8413c.40342-1.43285,1.9341-1.3844,2.83382-2.16509l-.07609-.07147c-.88736,1.03949-.25271,2.81182-1.71431,3.57486Q622.02287,560.51042,621.50118,559.8413Z" style="fill:#7db7d8"/><path d="M624.335,557.67621a2.31184,2.31184,0,0,1,2.2498-2.03112l-.05661-.072q-1.13468,1.01511-2.26928,2.03092Z" style="fill:#7db7d8"/><path d="M690.80649,526.04815c-.1249.06787-.25342.19177-.37349.18406-.11665-.00746-.22468-.15-.33649-.2333C690.33319,526.01487,690.56991,526.03076,690.80649,526.04815Z" style="fill:#888"/><path d="M626.5848,555.64509l.228-.8793c-.097.2671-.19395.53427-.28775.8043Z" style="fill:#888"/><path d="M713.07209,575.83452q-.56528.01275-1.1305.02556c.06918-.28651.0759-.78089.21825-.82378C712.7893,574.84642,713.00507,575.28914,713.07209,575.83452Z" style="fill:#888"/><path d="M643.51737,548.97629l-.41565.87459c-.78973-.85393.183-.62181.4907-.79979Z" style="fill:#888"/><path d="M673.44806,517.93218c-.09.25683-.12993.69713-.27871.7378-.56659.15483-.76634-.20106-.71576-.734l-.07508.086q.57248-.00147,1.14476-.00281Z" style="fill:#888"/><path d="M669.215,518.01868c.40318.0255.8064.05107,1.21216.079l-.06473-.07571c-.37881.27828-.75707.50183-1.086-.06532Z" style="fill:#7db7d8"/><path d="M669.27643,517.9567l-.06226.062Z" style="fill:#888"/><path d="M454.63162,570.20187c-2.12336,1.26336-4.25913,1.95579-6.25409.62867-.79346-.52778.00723-1.73989.64361-2.23544C451.41172,566.73352,452.89451,568.96387,454.63162,570.20187Z" style="fill:#2a292a"/><path d="M437.16539,579.151a2.92506,2.92506,0,0,1-2.19757-2.13286C437.46655,575.90252,437.0795,577.77135,437.16539,579.151Z" style="fill:#2a292a"/><path d="M463.9804,570.91071c2.05986,1.9095-.27566,2.08466-1.11953,2.84842Q463.4206,572.335,463.9804,570.91071Z" style="fill:#2a292a"/><polygon points="449.08 558.83 449.092 558.561 449.017 558.759 449.08 558.83" style="fill:#2a292a"/><path d="M431.95494,528.6827c-.612.71878-1.01817,1.87465-2.33227,1.10272C429.9904,528.54775,430.36214,527.31864,431.95494,528.6827Z" style="fill:#b5deef"/><path d="M429.792,529.64811c.21814,1.052.04264,1.70544-1.24415,1.23329A1.28669,1.28669,0,0,1,429.792,529.64811Z" style="fill:#2a292a"/><path d="M668.11842,566.16069c-3.66945,5.14474-9.84761,6.63539-16.44347,3.71635,2.758-2.48548,5.28865-2.34353,7.91893-.21793,2.0572-3.22047,6.1192-1.35988,8.63414-3.42022Z" style="fill:#2a292a"/><path d="M678.81522,552.21546a14.66144,14.66144,0,0,0,.05752,1.50673c.39274,2.84954-1.43671,4.73033-2.90752,6.76982-.49265-.45782-1.48947-1.09879-1.4003-1.34543.93545-2.5861-.45105-6.70653,4.29571-6.8881Z" style="fill:#2a292a"/><path d="M647.96615,547.6325c-.15123.06636-.31764.21125-.45109.1853-.50965-.09873-.56835-.3506-.14676-.60763a.5895.5895,0,0,1,.48551.0478C647.93466,547.30113,647.93153,547.50231,647.96615,547.6325Z" style="fill:#2a292a"/><path d="M672.5038,569.387c-.47314.87746-.827,1.96082-2.20256,1.28023C670.57091,569.43837,671.56105,569.4536,672.5038,569.387Z" style="fill:#2a292a"/><path d="M668.22806,566.23889l.1446-.59141c.0281.0865.106.21283.07485.25186a1.71453,1.71453,0,0,1-.32915.26115Z" style="fill:#2a292a"/><path d="M633.36022,554.06225q-.68592.08592-1.37182.1719.377-.51128.75394-1.02249A4.095,4.095,0,0,1,633.36022,554.06225Z" style="fill:#2a292a"/><path d="M656.187,536.38982l-5.03834.01334C653.61159,533.34327,654.42282,533.34112,656.187,536.38982Z" style="fill:#b5deef"/><path d="M651.26912,536.3058c.43647,1.21184-.22631,1.31731-1.1567,1.15352C649.96478,536.538,650.51417,536.31842,651.26912,536.3058Z" style="fill:#2a292a"/><path d="M673.52327,518.01914q-.57234.00138-1.14473.00281c.03831-.585-.12056-1.36615.835-1.21165C673.37742,516.83679,673.423,517.59754,673.52327,518.01914Z" style="fill:#7db7d8"/></svg>