<svg id="Layer_1" data-name="Layer 1" xmlns="http://www.w3.org/2000/svg" viewBox="0 0 1133.85827 1133.85827"><path d="M385.31617,560.5092c-1.08246.00053-2.388-.3978-3.21206.06482-6.548,3.67638-8.935-.9381-11.48695-5.52219-3.4178-6.13924-6.80386-12.30373-10.46707-18.2956-2.21627-3.62515-7.33217-3.3979-10.27269-7.12558,3.358-.77987,6.4531-1.49865,10.76093-2.499-8.57294-4.189-17.3002-4.9134-24.41729-10.46317,4.19287-.5892,8.54177-.65916,12.54845-1.86787,10.66112-3.21642,21.77445-3.17731,32.61952-5.05391,20.01325-3.46319,40.3555-3.82667,60.58062-3.60136a175.3227,175.3227,0,0,1,45.28733,6.80819c8.4036,2.36526,17.63658,4.48063,24.48046,11.03432.38723.37082,1.08421.59713,1.22008,1.024,1.697,5.33126,1.67774,5.336,8.34341,7.66388.13243.04623.2065.26029.61668.81005-6.5298,2.04108-12.50926-.81405-18.59877-1.249-5.46922-1.60371-10.99184-3.04867-16.388-4.86977-3.32473-1.1221-3.46722.57788-2.66806,2.73022,2.39218,6.4425,1.20306,12.76488-.24473,19.10678-1.79341,7.85575-6.75284,14.17147-10.33308,21.15813l.13479-.08261c-1.159-.41758-1.52658.4954-2.01612,1.20332-7.51,7.04849-16.74652,10.38543-26.67115,11.63165-4.17039.52358-8.71.316-12.37549-2.73514-5.714-4.75645-14.02872-5.92825-18.00419-13.13091-.3912-.70865-1.86439-1.16727-1.432-2.04188,2.40394-4.8635-1.96167-2.69957-3.47736-3.47205-5.34525-9.496-6.98815-19.94928-7.65065-30.5994-.1566-2.51729-.55624-3.75079-3.35-3.08177-4.71192,1.1285-9.43944,2.202-14.1878,3.16272-2.161.43717-2.58452,1.16934-1.68467,3.32115,2.21061,5.28595,4.05437,10.7244,6.14655,16.06192C391.91214,557.73035,391.95308,557.71422,385.31617,560.5092Zm36.80835-10.35192q-.51168.65166-1.02337,1.30325c-.41783.45789-1.177.96681-.48336,1.5776.79807.703.943-.3561,1.31556-.74663l.98437-1.20658c.45706-.24024.98821-.56795.54211-1.08893C423.29761,549.80658,422.58564,550.08979,422.12452,550.15728Zm-4.23493,4.63079c-2.04453.62058-2.91131,2.24055-3.74781,3.99516,1.70646,1.08547,2.79392-1.04422,4.20282-.32571,1.63018,2.22789,3.02249,4.52107,1.65611,7.40805-1.07381,2.26886.51,3.66278,1.98726,4.41834,4.35589,2.22769,8.85529,4.19156,13.37865,6.06442,2.01309.83337,4.04952,1.52823,4.723-2.03116.45878-2.425,3.46192-2.75686,3.933-.67107.99462,4.40394,3.45089,3.5416,6.4385,3.22041,4.23234-.45515,2.50711-3.52554,2.89946-5.73171a12.39483,12.39483,0,0,1,1.021-3.601c1.486-2.81449.82049-4.16011-3.66036-3.67631a34.34379,34.34379,0,0,1,21.92241-5.99334c.05691-1.42723-2.1765-2.62282-1.03426-3.84179,3.27435-3.49444.02623-4.49383-2.019-5.957-4.09467-2.92948-9.02629-3.75272-13.73289-4.60714-6.52364-1.18427-13.17969-.58747-20.49409-.08908,1.68613,1.92217,2.79805,1.37447,3.82426,1.24876,8.48067-1.0387,16.54946.6419,24.4553,3.58024,1.8582.69066,3.7063,1.57147,2.71923,3.77058-.90511,2.01656-1.58413,4.70075-4.33124,5.119-1.47035.22384-2.66332-.657-1.51274-2.30458,1.608-2.30257,2.269-4.30614-1.03745-5.48488-2.75441-.98193-5.52071-3.81055-8.24945.52278-1.91062,3.03408-4.99523,5.01234-8.81309,3.91175-1.9667-.567-2.8532.75582-3.68548,1.56727a17.72226,17.72226,0,0,1-8.49371,4.31634c-.67534-1.8237-1.3945-1.305-2.12764-.04-3.32257.07761-6.34261-2.65787-9.82869-1.06135-.36126-1.2301.66522-1.928,1.08169-2.8568.31707-.53223,1.12206-1.09026.17925-1.6606C418.74491,553.51447,418.31293,554.24378,417.88959,554.78807Zm19.38082-19.05442c-.25634,1.50891-1.33688,3.66952,1.0421,3.91342a3.50062,3.50062,0,0,0,3.71918-3.23754c-.021-2.92842-2.51359-1.62457-4.0907-1.80218.08582-1.36774.70956-2.97019,2.077-2.46586,3.46894,1.27933,5.396-1.16635,8.068-2.25841-2.626-2.72422-5.08522-2.36246-7.43082-.435a34.70706,34.70706,0,0,0-7.09568,7.25742c-2.95546,1.0768-6.00422,2.83121-8.26428-1.14243,1.16557-1.17507,3.18114-2.82422,2.102-4.05758-1.56925-1.79339-2.88279.67034-4.1967,1.59318l-.908-1.18639c.84089-3.01349,2.94719-6.5964-2.52777-7.24962-6.06961-.72411-12.75267,5.08668-13.12865,11.1677-.26343,4.26071,2.54072,5.93011,6.56088,4.22753,3.0393-1.28719,4.58438-4.4759,7.49763-5.64471,1.68562.744-3.21926,4.96251,2.08518,3.5025,1.55937,5.991,1.55937,5.991,12.5141,2.47159-.57382-1.27514-3.94527-1.25129-1.81127-3.76252C434.76069,536.3948,435.79114,535.11174,437.27041,535.73365ZM456.019,570.4885c.42175,2.55734.80335,5.058,5.28646,3.623a20.78719,20.78719,0,0,0,10.21617-7.31637c2.26678-2.83088,1.06862-4.53826-1.33863-6.122-3.81639-2.511-6.752.38054-9.80722,1.818C457.36481,563.90756,456.13613,566.67555,456.019,570.4885Zm16.08145-25.68926c-.37459-2.00337-1.50027-.99639-2.3809-.87121.0481.057.09448.11546.14458.17055.33958.37382.61914.90826,1.03991,1.06741C471.2234,545.28678,471.72293,544.92942,472.10041,544.79924Zm-36.49432-.693c-3.01778-.00314-4.583.78866-7,2.23681C431.89475,547.14745,433.55476,546.49016,435.60609,544.10625Zm32.64885-3.71975c-.1045-.11133-.20476-.30493-.31471-.31066-.11026-.00579-.23028.17582-.346.27535l.47891.3427Z" style="fill:#2a292a"/><path d="M693.58216,560.64324c-4.5993,1.74115-5.0414,7.02178-8.3452,9.84966a57.31829,57.31829,0,0,1-12.64264,8.12716c-8.29124,3.96271-16.874,3.17365-25.48581,1.45814-3.1934-.63623-2.06768-3.29117-2.27593-5.29781,5.26082,2.97119,10.82941-.71878,16.17946.75416,2.07081.57,3.16105-.31552,2.65961-2.55567-.36247-1.61937.56224-2.76659,1.23745-4.0344.65573-1.23116,2.17071-2.66859,1.36242-3.80362-1.01431-1.42417-2.782-.90146-4.20744.19014-.88871.6806-1.73274.17694-2.32806-.5882-.15941-.20487-.00744-.96755.03421-.97015,3.40547-.22131,6.10139-3.47837,9.72115-2.47992,4.10252,1.1317,7.49865-1.214,11.03521-2.32349,1.24486-.39053-1.05826-1.67506-1.74774-2.54747.60716-.0004,1.68331.01066,1.45235-.61972-.34758-.94875-1.3069-.58134-1.99457-.003-3.31086-.52518-3.71987,4.72413-7.556,3.83473a16.28053,16.28053,0,0,1,1.46864-3.122c2.227-2.85806.50932-5.14917-1.43742-6.70166-1.65771-1.322-3.60125-3.37271-5.95325.64717-2.97963,5.09274-9.39515,4.59242-12.931-.21333-2.04577-2.78058-3.93742-4.67816-7.25356-1.39672-1.61964,1.60278-2.57038-.6307-2.19345-1.42483,1.85206-3.90162-1.39274-1.92636-1.956-1.56587-2.891,1.85021-2.9922,4.53306-1.53287,7.36154.62,1.20152,2.32191,2.19112.69739,3.68217-1.30245,1.19546-2.2015.85749-3.48293-.60359-1.42875-1.62889-3.2434.19687-3.83024,1.28187-1.1692,2.16147-4.2136,4.16824-1.79667,7.17687.97408,1.21251,1.44693,3.863,4.00351,2.32495,1.4105-.84842,1.48344-.44842,1.92038.9852,1.74121,5.71253,3.778,6.07129,8.26774,1.26341l.24146,5.53512c-1.17522,2.436-2.11829,3.62674-5.49872,2.08252-6.69651-3.05892-11.952-7.05642-14.30962-14.25147-.2487-.97661.9175-2.32556-.76656-2.92456q-.61089-.10013-1.22176-.20039c-4.92075-10.70042-6.82165-21.80823-3.88015-33.59524-7.79848,2.25347-14.996,4.3332-22.19351,6.413-6.11022.90106-12.215,1.63969-18.3129-.3996,6.23515-1.97886,13.08008-1.8602,18.191-7.05109-2.99173-1.44735-5.60025,1.57227-8.6152.22738,14.106-9.07491,29.55311-13.89232,45.88017-16.4266,9.33628-1.44922,18.641-3.02968,28.11364-3.22228a177.71365,177.71365,0,0,1,31.42044,1.36461c24.83042.36781,49.00085,5.66776,73.45682,9.86824a239.055,239.055,0,0,1-29.10138,10.8264c4.67264,1.31571,9.4512,1.09986,14.544.70412-1.16823,3.18205-4.45106,3.58551-6.47413,5.359-6.93148,6.07668-9.51945,14.7496-14.12391,22.178-2.52031,4.066-4.8258,7.06015-10.03415,4.85731-2.604-.73424-5.19878-1.50145-7.81385-2.19125-2.32918-.61439-3.32893-1.40838-2.03167-4.16431,2.5871-5.49621,4.35365-11.39208,7.09-16.80262,2.63472-5.20947,1.18051-7.12544-4.24215-7.69112a62.659,62.659,0,0,1-10.55328-2.27433c-2.91756-.8307-3.20669.32885-3.35314,2.89C700.481,540.957,699.17672,551.34974,693.58216,560.64324Zm-20.21854-29.61553-.07138.06429c-5.44839-2.97885-11.2867-1.40918-17.26654-1.98766,1.22787,4.192,5.22271,3.3045,7.33052,5.26117,2.39874,2.22663,4.65193,4.02035,5.51674-1.27826C669.26858,530.66362,671.70488,531.38407,673.36362,531.02771Zm-36.04634.11665c.4648,2.0684-2.6399,2.98764-1.78547,5.18662a3.12581,3.12581,0,0,0,3.59583-.55436c1.69115-1.519,4.60815-3.14646,3.3439-5.43352-1.61671-2.92468-3.39107,1.09739-5.322.97261-.98788-2.08765,1.809-4.96277-1.19343-6.55023-3.07754-1.62709-5.9573-.23257-8.70129,1.15476a10.44527,10.44527,0,0,0-2.49831,2.05494c-3.97625,3.987-5.13568,8.61123-2.21835,10.85751,4.47247,3.44373,6.96157-.95356,9.98133-3.19411C634.30829,534.31135,634.013,530.78967,637.31728,531.14436Zm41.803,30.24058c-4.50412.40732-7.39768,1.79471-9.48874,4.34006-1.94494,2.36753-3.94121,5.68734-2.17077,8.28618,1.98763,2.91762,5.313.66842,7.84064-.4936a41.53237,41.53237,0,0,0,5.95224-3.69623,5.59743,5.59743,0,0,0,1.9111-6.30253C682.76811,562.20065,680.15451,561.15016,679.12025,561.38494ZM663.173,543.72524c6.72257.99506,12.73829,4.53792,19.49114,5.42372C676.69285,545.446,670.54589,542.37615,663.173,543.72524Zm-6.298-7.93209c.02849-1.00366-.41713-1.65935-1.84348-1.60059-2.498.1028-3.20018,1.86454-3.61418,3.81815-.17693.83477.011,1.93076,1.29613,1.62183C654.6532,539.16639,656.38049,538.31723,656.87508,535.79315Zm-3.80159-5.07383c-1.74344.11472-2.34608,2.12569-3.99364,1.68019-1.94414-.52544-2.27922.9331-2.1994,2.116.05908.87541.9433,2.35981,1.53293,2.39645,1.24623.07768.75464-1.56941,1.30681-2.37726C650.63779,533.19231,652.62442,532.96386,653.07349,530.71932Zm-4.62709,9.16825c-2.83229-1.1744-4.47294-2.17-6.313.42258C643.94716,541.01534,645.59626,540.95405,648.4464,539.88757Zm4.78188,3.3907c3.0418.03125,5.22674.747,7.30992-.80478C658.37935,542.339,656.17646,541.22347,653.22828,543.27827Zm-1.50677.34c-2.54664-1.26881-4.33264-.82371-7.60244.70512C647.47807,544.29438,649.30289,545.163,651.72151,543.61831Zm16.26729-3.59343c.65922-.08681,1.47576-.00447,1.50817-.95336.00545-.16015-.728-.49479-1.10939-.47954-.43594.01739-1.09782.22985-1.23815.54617C666.88068,539.74393,667.45239,539.9494,667.9888,540.02488Z" style="fill:#2a292a"/><path d="M473.685,570.36205c3.58024-6.98666,8.53967-13.30238,10.33308-21.15813,1.44779-6.3419,2.63691-12.66428.24473-19.10678-.79916-2.15234-.65667-3.85232,2.66806-2.73022,5.39612,1.8211,10.91874,3.26606,16.388,4.86977a44.65478,44.65478,0,0,1,.9672,21.21222c-.83579,4.818-8.04477,9.8478-12.616,11.32673-2.15841.69826-6.02553,1.7692-6.59782,2.68185C481.92951,572.46883,477.85344,571.04706,473.685,570.36205Z" style="fill:#d6d5d5"/><path d="M597.042,532.38792c7.19752-2.07979,14.395-4.15952,22.19351-6.413-2.9415,11.787-1.0406,22.89482,3.88015,33.5953-1.69321.32392-2.15732-2.00171-4.26692-1.5718-6.35884,1.29586-11.81094-3.88483-18.24156-2.985-1.00483.14058-2.12692-.06-2.11319-1.70351C598.55239,546.30149,596.11262,539.46273,597.042,532.38792Z" style="fill:#d6d5d5"/><path d="M385.31617,560.5092c6.63691-2.795,6.596-2.77885,3.80068-9.91015-2.09218-5.33752-3.93594-10.776-6.14655-16.06192-.89985-2.15181-.47632-2.884,1.68467-3.32115,4.74836-.96068,9.47588-2.03422,14.1878-3.16272,2.79378-.669,3.19342.56448,3.35,3.08177.6625,10.65012,2.3054,21.10337,7.65065,30.5994-3.85832.77308-7.742,1.93636-11.13162-1.39938a2.06145,2.06145,0,0,0-1.94243.08874c-.71443.50672-.32179,1.38992.24454,1.80917,5.06918,3.75359-.06186,4.38683-1.81569,6.0509.11963-4.99488-4.18228-.57174-5.41562-2.68664,1.31922-1.1395,4.77026-.37415,3.90046-3.76812-.92-3.58976-3.42219-1.23549-5.261-1.19579a13.267,13.267,0,0,0-2.62916.58427l.01944-.52837Z" style="fill:#d6d5d5"/><path d="M693.58216,560.64324c5.59456-9.2935,6.89884-19.68626,7.50014-30.2034.14645-2.56113.43558-3.72068,3.35314-2.89a62.659,62.659,0,0,0,10.55328,2.27433c5.42266.56568,6.87687,2.48165,4.24215,7.69112-2.73634,5.41054-4.50289,11.30641-7.09,16.80262-1.29726,2.75593-.29751,3.54992,2.03167,4.16431,2.61507.6898,5.20982,1.457,7.81385,2.19125l.21323-.167c-2.84565.74529-5.53685.11971-8.2823-.7014-2.50848-.75035-4.84249-.70732-4.49511,3.03728-1.0188-.49833-2.86537.47721-2.77145-1.96047.18341-4.761-2.68541-4.35252-6.15661-3.51689,1.3093,2.65854,3.51857.41812,5.05613,1.72917a6.95419,6.95419,0,0,1-7.30636,1.52043l.08258.08574-.32956-3.21049C695.898,557.7953,695.89722,560.88188,693.58216,560.64324Z" style="fill:#d6d5d5"/><path d="M510.34349,510.94032c-6.776.88413-11.67722-3.66119-17.4148-5.49728-8.25549-2.64181-15.90959-6.354-24.81226-7.91743a143.79565,143.79565,0,0,0-33.1689-2.00991c-11.2887.633-22.63912,1.24656-33.7244,3.21742C438.93253,489.77313,475.84062,488.50232,510.34349,510.94032Z" style="fill:#2a292a"/><path d="M637.38806,496.38805c-10.61841.4363-20.24115,4.24232-29.63607,8.8071-4.50529,2.189-8.998,4.40075-14.13089,4.88808,8.31179-4.09016,16.18561-8.88185,24.87715-12.3367,5.84464-2.32323,12.124-1.98239,17.68833-4.6801,2.53042-.653,5.37036.76142,7.71125-1.15861l-.17407.038q5.5047-.01179,11.0078-.02639a211.00076,211.00076,0,0,1,41.6151,4.675c-5.20848,1.79758-10.59337.03644-15.80588,1.0746l-.08088-.04577c-1.95848-4.10775-5.55055-1.951-8.50814-2.22749C660.41256,495.09885,648.87,494.6828,637.38806,496.38805Z" style="fill:#2a292a"/><path d="M385.79294,561.21765a13.26227,13.26227,0,0,1,2.62916-.58434c1.83879-.0397,4.341-2.394,5.261,1.19579.8698,3.394-2.58124,2.62862-3.90046,3.76812,1.23334,2.1149,5.53525-2.30824,5.41561,2.68658-.81006.33071-1.97028.43337-2.36186,1.03676-1.009,1.55461.60441,1.07214,1.24881,1.25715,1.95722.56162.47475,1.35828-.02578,1.54688-2.52336.951-5.09545,1.78213-7.68462,2.53775-.41553.12118-1.98777.17275-1.238-.79213,2.802-3.60622.36014-1.90371-1.5638-2.02849-3.27516-.21239-2.63308-1.62257-.33557-2.92868a11.70426,11.70426,0,0,0,1.56361-1.28273c-1.19232-1.27807-2.17173-.52518-3.0627-.02692-1.7687.98906-2.79753-.03358-3.50976-1.35781-1.10066-2.04642.80972-2.47179,2.00047-3.00776C382.02346,562.4301,383.93259,561.87827,385.79294,561.21765Zm.70983,6.18534q.56227-.36656,1.12456-.733-.41161-.20926-.82323-.41859-.54209.38924-1.08413.77854Q386.11137,567.21639,386.50277,567.403Z" style="fill:#2a292a"/><path d="M722.2129,568.28819c-.24784,2.91849-1.96792,5.89767-4.38584,5.863-3.17341-.0455-6.47034-1.76573-9.41333-3.33294-1.505-.80132.10146-1.02817.86474-1.21158.53674-.12884,1.36664.06649.94473-1.19579-.93-2.78211-.81491-2.82075,2.18178-3.41875l.06795.06063c.50493,2.1161,2.11479.91425,3.26534,1.09173l-.07251-.04231a8.77052,8.77052,0,0,0,6.60841,2.22416Zm-9.55862.70852c-.47916.43424-.79855.72365-1.1179,1.013a3.88171,3.88171,0,0,0,1.36355.61845c.4519.01059.91275-.35916,1.36967-.562C713.76005,569.72882,713.2505,569.39145,712.65428,568.99671Zm4.21193,2.75753.82328-.65988a5.29535,5.29535,0,0,0-1.254-.62551c-.19256-.042-.47916.34856-.723.54263C716.10483,571.26411,716.49719,571.51667,716.86621,571.75424Z" style="fill:#2a292a"/><path d="M709.42222,562.84235c-.34738-3.7446,1.98663-3.78763,4.49511-3.03728,2.74545.82111,5.43665,1.44669,8.2823.7014.057.5321-.04707,1.43682.19455,1.54168,5.23146,2.26973,3.25018,4.26465-.18128,6.24l.06127.03817c-1.41039-3.1051-4.06233-2.50677-6.60841-2.22416l.07248.04237c-.56105-1.94741-2.00864-1.233-3.26531-1.09179l-.06795-.06063C712.22542,563.14061,710.28563,563.74121,709.42222,562.84235Z" style="fill:#2a292a"/><path d="M680.54078,497.66911a5.30276,5.30276,0,0,0-1.49889-.04983c-.48109.12-.44592.57641-.01174.54943a4.9988,4.9988,0,0,0,1.42971-.54537Z" style="fill:#d6d5d5"/><path d="M624.33744,559.77063c1.68406.59893.51786,1.94788.76656,2.92449C624.05844,561.92817,624.47058,560.77768,624.33744,559.77063Z" style="fill:#d6d5d5"/><path d="M471.80366,571.48276c.48954-.70792.85713-1.6209,2.01612-1.20332C473.66059,571.54305,472.75605,571.55318,471.80366,571.48276Z" style="fill:#d6d5d5"/><path d="M698.24393,560.61459l-.14565.3459q.11381-.13022.228-.26029Z" style="fill:#d6d5d5"/><path d="M418.28276,558.51528c3.48592-1.59672,6.506,1.13876,9.82853,1.06115l-.05442-.0495c1.6997,6.50739,7.62277,5.54644,12.22147,6.8443.92914.26215,2.56148,1.63535,2.99677-.54623.34912-1.74982-1.375-1.83376-2.475-2.25274-3.50159-1.334-7.70534-.83291-10.48764-4.04586l-.07413.09027a17.72441,17.72441,0,0,0,8.49427-4.31661c.83228-.81145,1.71878-2.13422,3.68548-1.56727,3.81786,1.10059,6.90247-.87767,8.81309-3.91175,2.72874-4.33333,5.495-1.50471,8.24945-.52278,3.30645,1.17874,2.6454,3.18231,1.03745,5.48488-1.15058,1.64762.04239,2.52842,1.51274,2.30458,2.74711-.41825,3.42613-3.10244,4.33124-5.119.98707-2.19911-.861-3.07992-2.71923-3.77058-7.90584-2.93834-15.97463-4.61894-24.4553-3.58024-1.02621.12571-2.13813.67341-3.82426-1.24876,7.3144-.49839,13.97045-1.09519,20.49409.08908,4.7066.85442,9.63822,1.67766,13.73289,4.60714,2.04526,1.46314,5.29338,2.46253,2.019,5.957-1.14224,1.219,1.09117,2.41456,1.03426,3.84179a34.34379,34.34379,0,0,0-21.92241,5.99334c4.48085-.4838,5.14633.86182,3.66036,3.67631a12.39483,12.39483,0,0,0-1.021,3.601c-.39235,2.20617,1.33288,5.27656-2.89946,5.73171-2.98761.32119-5.44388,1.18353-6.4385-3.22041-.471-2.08579-3.47419-1.75388-3.933.67107-.67346,3.55939-2.70989,2.86453-4.723,2.03116-4.52336-1.87286-9.02276-3.83673-13.37865-6.06442-1.47726-.75556-3.06107-2.14948-1.98726-4.41834,1.36638-2.887-.02593-5.18016-1.6562-7.40825Z" style="fill:#694998"/><path d="M423.20051,533.0987c1.31391-.92284,2.62745-3.38657,4.1967-1.59318,1.0791,1.23336-.93647,2.88251-2.102,4.05758q-1.25767,1.17621-2.51546,2.35261c-5.30444,1.46-.39956-2.75847-2.08518-3.5025-2.91325,1.16881-4.45833,4.35752-7.49763,5.64471-4.02016,1.70258-6.82431.03318-6.56088-4.22753.376-6.081,7.059-11.89181,13.12865-11.1677,5.475.65322,3.36866,4.23613,2.52777,7.24962-.45433.46428-1.20177.94476-.62606,1.64821C422.34082,534.38457,422.71844,533.38551,423.20051,533.0987Z" style="fill:#a18bc1"/><path d="M456.019,570.4885c.11717-3.813,1.34585-6.58094,4.35678-7.99745,3.05518-1.43742,5.99083-4.32893,9.80722-1.818,2.40725,1.58379,3.60541,3.29117,1.33863,6.122a20.78719,20.78719,0,0,1-10.21617,7.31637C456.82231,575.54654,456.44071,573.04584,456.019,570.4885Z" style="fill:#a18bc1"/><path d="M422.77976,537.91571q1.25776-1.1763,2.51546-2.35261c2.26,3.97364,5.30877,2.21923,8.26423,1.14243l-.07828-.08055c-2.13258,2.511,1.23887,2.48718,1.81269,3.76232C424.33913,543.90671,424.33913,543.90671,422.77976,537.91571Z" style="fill:#694998"/><path d="M433.55945,536.70553a34.70706,34.70706,0,0,1,7.09568-7.25742c2.3456-1.92749,4.80482-2.28925,7.43082.435-2.672,1.09206-4.59907,3.53774-8.068,2.25841-1.36739-.50433-1.99113,1.09812-2.077,2.46586l.09175-.13764c-.76189.08248-1.30829.34876-1.08246,1.27387l.31863-.01279c-1.47777-.619-2.50822.664-3.787.89412Z" style="fill:#694998"/><path d="M437.941,534.60735c1.57711.17761,4.06969-1.12624,4.0907,1.80218a3.50062,3.50062,0,0,1-3.71918,3.23754c-2.379-.2439-1.29844-2.40451-1.04285-3.91488l-.31921.01119c1.04749.16109.9535-.65129,1.08229-1.27367Z" style="fill:#a18bc1"/><path d="M419.37358,555.65875c-.42576.92831-1.45224,1.62623-1.09089,2.8564l.06182-.05783c-1.40881-.71831-2.49627,1.41138-4.20273.32591.8365-1.75461,1.70328-3.37458,3.7478-3.99516Q418.63157,555.22348,419.37358,555.65875Z" style="fill:#694998"/><path d="M472.10041,544.79924c-.37748.13018-.877.48754-1.19641.36675-.42077-.15915-.70033-.69359-1.03991-1.06741-.0501-.05509-.09648-.11359-.1446-.17055C470.60014,543.80285,471.72582,542.79587,472.10041,544.79924Z" style="fill:#694998"/><path d="M435.60609,544.10625c-2.05133,2.38391-3.71134,3.0412-7,2.23681C431.02312,544.89491,432.58831,544.10311,435.60609,544.10625Z" style="fill:#694998"/><path d="M428.11129,559.57643c.73314-1.265,1.4523-1.78373,2.12736.04011l.07385-.09008q-1.12782.00041-2.25563.00047Z" style="fill:#694998"/><path d="M417.88958,554.78807c.42335-.54429.85533-1.2736,1.654-.79039.94281.57034.13782,1.12837-.17461,1.66087C418.87891,555.36855,418.38424,555.07834,417.88958,554.78807Z" style="fill:#694998"/><path d="M421.93368,552.29183c-.37291.3902-.51782,1.44929-1.31589.7463-.69361-.61079.06553-1.11971.48371-1.57713Q421.51794,551.87682,421.93368,552.29183Z" style="fill:#888"/><path d="M422.91774,551.08492q-.49219.60329-.98423,1.20671-.41565-.41491-.832-.83063.51115-.65237,1.023-1.30372Z" style="fill:#a18bc1"/><path d="M422.12452,550.15728c.46112-.06749,1.17309-.3507,1.33531-.16129.4461.521-.08505.84869-.5421,1.08893Q422.52113,550.62113,422.12452,550.15728Z" style="fill:#694998"/><path d="M468.25494,540.3865l-.18185.30739-.4789-.3427c.11576-.09953.23578-.28114.346-.27535C468.05018,540.08157,468.15044,540.27517,468.25494,540.3865Z" style="fill:#694998"/><path d="M678.779,556.4219c.68931.87228,2.99243,2.15681,1.74757,2.54734-3.53656,1.10945-6.93269,3.45519-11.03521,2.32349-3.61976-.99845-6.31568,2.25861-9.72115,2.47992-.04165.0026-.19362.76528-.03421.97015.59532.76514,1.43935,1.2688,2.32806.5882,1.42546-1.0916,3.19313-1.61431,4.20744-.19014.80829,1.135-.70669,2.57246-1.36242,3.80362-.67521,1.26781-1.59992,2.415-1.23745,4.0344.50144,2.24015-.5888,3.12568-2.65961,2.55567-5.35005-1.47294-10.91864,2.217-16.17946-.75416l.08012.08421c-.07583-1.73049-.1513-3.46052-.24182-5.53565-4.4897,4.80788-6.52653,4.44912-8.26774-1.26341-.43694-1.43362-.50988-1.83362-1.92038-.9852-2.55658,1.5381-3.02943-1.11244-4.00351-2.32495-2.41693-3.00863.62747-5.0154,1.79667-7.17687.58684-1.085,2.40149-2.91076,3.83024-1.28187,1.28143,1.46108,2.18048,1.799,3.48293.60359,1.62452-1.49105-.07743-2.48065-.69739-3.68217-1.45933-2.82848-1.35816-5.51133,1.53287-7.36154.56324-.36049,3.808-2.33575,1.956,1.56587-.37693.79413.57381,3.02761,2.19345,1.42483,3.31614-3.28144,5.20779-1.38386,7.25356,1.39672,3.53589,4.80575,9.95141,5.30607,12.931.21333,2.352-4.01988,4.29554-1.96914,5.95325-.64717,1.94674,1.55249,3.66441,3.8436,1.43742,6.70166a16.28053,16.28053,0,0,0-1.46864,3.122c3.83613.8894,4.24514-4.35991,7.556-3.83473Q678.49948,556.11774,678.779,556.4219ZM657.32937,565.163c-3.14705-3.84593-8.53317-1.89492-11.27486-5.60714-.17407-.23564-1.50973-.01285-1.8973.39021-1.0431,1.08486-.09645,2.06366.69213,2.66372C648.506,565.39216,652.58648,566.09121,657.32937,565.163Z" style="fill:#694998"/><path d="M637.31622,531.14563c-3.30318-.356-3.00793,3.16572-4.79675,4.493-3.01976,2.24055-5.50886,6.63784-9.98133,3.19411-2.91733-2.24628-1.7579-6.87055,2.21835-10.85751a10.44527,10.44527,0,0,1,2.49831-2.05494c2.744-1.38733,5.62375-2.78185,8.70129-1.15476,3.0024,1.58746.20555,4.46258,1.19343,6.55023Z" style="fill:#a18bc1"/><path d="M679.12025,561.38494c1.03426-.23478,3.64786.81571,4.04447,2.13388a5.59743,5.59743,0,0,1-1.9111,6.30253,41.53237,41.53237,0,0,1-5.95224,3.69623c-2.5276,1.162-5.853,3.41122-7.84064.4936-1.77044-2.59884.22583-5.91865,2.17077-8.28618C671.72257,563.17965,674.61613,561.79226,679.12025,561.38494Z" style="fill:#a18bc1"/><path d="M673.36963,531.02158c-1.66475.36249-4.101-.358-4.49667,2.06567-.86481,5.29861-3.118,3.50489-5.51674,1.27826-2.10781-1.95667-6.10265-1.06914-7.33052-5.26117,5.97984.57848,11.81815-.99119,17.26654,1.98766Z" style="fill:#694998"/><path d="M663.173,543.72524c7.37285-1.34909,13.51981,1.72076,19.49114,5.42372C675.91133,548.26316,669.89561,544.7203,663.173,543.72524Z" style="fill:#694998"/><path d="M637.14952,531.31571c1.93095.12478,3.70531-3.89729,5.322-.97261,1.26425,2.28706-1.65275,3.91449-3.3439,5.43352a3.12581,3.12581,0,0,1-3.59583.55436c-.85443-2.199,2.25027-3.11822,1.78494-5.18595Z" style="fill:#a18bc1"/><path d="M656.87508,535.79315c-.49459,2.52408-2.22188,3.37324-4.16153,3.83939-1.28509.30893-1.47306-.78706-1.29613-1.62183.414-1.95361,1.1162-3.71535,3.61418-3.81815C656.458,534.1338,656.90357,534.78949,656.87508,535.79315Z" style="fill:#a18bc1"/><path d="M653.07349,530.71932c-.44907,2.24454-2.4357,2.473-3.3533,3.81541-.55217.80785-.06058,2.45494-1.30681,2.37726-.58963-.03664-1.47385-1.521-1.53293-2.39645-.07982-1.18293.25526-2.64147,2.1994-2.116C650.72741,532.845,651.33005,530.834,653.07349,530.71932Z" style="fill:#694998"/><path d="M648.4464,539.88757c-2.85014,1.06648-4.49924,1.12777-6.313.42258C643.97346,537.71757,645.61411,538.71317,648.4464,539.88757Z" style="fill:#694998"/><path d="M653.22828,543.27827c2.94818-2.0548,5.15107-.93923,7.30992-.80478C658.455,544.02523,656.27008,543.30952,653.22828,543.27827Z" style="fill:#694998"/><path d="M651.72151,543.61831c-2.41862,1.54469-4.24344.67607-7.60244.70512C647.38887,542.7946,649.17487,542.3495,651.72151,543.61831Z" style="fill:#694998"/><path d="M667.98621,540.02088c-.53382-.07148-1.10553-.277-.83678-.88273.14033-.31632.80221-.52878,1.23815-.54617.38135-.01525,1.11484.31939,1.10939.47954C669.46456,540.02041,668.648,539.93807,667.98621,540.02088Z" style="fill:#694998"/><path d="M678.23663,555.79906c.68767-.57835,1.647-.94576,1.99457.003.231.63038-.84519.61932-1.45235.61972Q678.49955,556.11777,678.23663,555.79906Z" style="fill:#694998"/><path d="M673.29227,531.092l.07434-.06736Z" style="fill:#888"/><path d="M386.8041,566.25137q.41163.20927.82323.41859-.56229.36654-1.12436.73277Q386.65374,566.82682,386.8041,566.25137Z" style="fill:#d6d5d5"/><path d="M386.8041,566.25137q-.15046.57552-.30113,1.15136-.39169-.18618-.783-.37282Q386.262,566.64057,386.8041,566.25137Z" style="fill:#888"/><path d="M715.66576,566.10214c2.54608-.28261,5.198-.88094,6.60841,2.22416A8.77052,8.77052,0,0,1,715.66576,566.10214Z" style="fill:#888"/><path d="M712.65428,568.99671c.59622.39474,1.10577.73211,1.61532,1.06941-.45692.20286-.91777.57261-1.36967.562a3.88275,3.88275,0,0,1-1.36355-.61838C711.85573,569.72036,712.17512,569.431,712.65428,568.99671Z" style="fill:#888"/><path d="M712.47293,565.05272c1.25667-.14117,2.70426-.85562,3.26531,1.09179C714.58772,565.967,712.97786,567.16882,712.47293,565.05272Z" style="fill:#888"/><path d="M716.86621,571.75424c-.369-.23757-.76138-.49013-1.15374-.74276.24389-.19407.53049-.58467.723-.54263a5.29535,5.29535,0,0,1,1.254.62551Z" style="fill:#888"/><path d="M428.05687,559.52693q1.1278-.0001,2.25563-.00047c2.7823,3.21289,6.986,2.71183,10.48764,4.0458,1.1.419,2.82409.50292,2.475,2.25274-.43529,2.18158-2.06763.80838-2.99677.54623C435.67964,565.07337,429.75657,566.03432,428.05687,559.52693Z" style="fill:#2a292a"/><path d="M423.20051,533.0987c-.48207.28681-.85969,1.28587-1.53408.46182-.57571-.70345.17173-1.18393.62606-1.64821Z" style="fill:#2a292a"/><path d="M438.03274,534.46971c-.12879.62238-.0348,1.43476-1.08229,1.27367C436.72445,534.81847,437.27085,534.55219,438.03274,534.46971Z" style="fill:#2a292a"/><path d="M657.32937,565.163c-4.74289.92823-8.8234.22918-12.48-2.55321-.78858-.60006-1.73523-1.57886-.69213-2.66372.38757-.40306,1.72323-.62585,1.8973-.39021C648.7962,563.26806,654.18232,561.31705,657.32937,565.163Z" style="fill:#2a292a"/></svg>