<svg id="Layer_1" data-name="Layer 1" xmlns="http://www.w3.org/2000/svg" viewBox="0 0 1133.85827 1133.85827"><path d="M409.682,549.86057s3.80411,10.04788,6.03072,13.22875,10.60953,13.56983,12.67709,15.00122,13.419,6.12343,22.80254,6.12343,31.17253-18.131,31.17253-20.35757S490.3171,543.976,490.3171,543.976l5.72556-20.99374L461.139,520.83234,445.08136,510.2681l-20.70592,2.958-11.83062,10.23326Z" style="fill:#3ea986"/><path d="M633.002,499.04839l39.64375,9.40286,19.53143,9.98211s4.48915,16.73229,3.67294,18.36471S691.361,561.69245,687.484,565.3654s-26.9349,17.75255-28.77137,17.75255-24.31033-.42339-28.10426-4.97589-13.29445-19.2984-13.29445-19.2984a126.32827,126.32827,0,0,0-.432-18.78075C615.8616,531.49271,633.002,499.04839,633.002,499.04839Z" style="fill:#3ea986"/><path d="M372.2754,525.64528c8.97709-.60665,16.69209-4.29356,23.71861-9.70285,2.42847-1.8696.22567-2.5941-.85058-3.4595-6.94126-5.581-12.7291-12.24942-18.62165-19.21174a3.08833,3.08833,0,0,1,3.60492.94573c7.62594,9.22129,18.47033,10.469,29.23131,11.90652,10.34784,1.38237,19.29055-4.4903,29.14574-5.74258,7.78209-.98878,15.50645-2.39895,23.38789-.93624,3.35377.62245,3.9717.02146,6.87368-5.57126-5.86735-.86817-11.46282-3.87732-17.5935-2.5966-12.87712,2.68983-25.98022,4.56074-38.09439,10.15057a8.73042,8.73042,0,0,1-2.067.39846l.07319.07743c17.42408-9.81518,35.64273-16.82069,56.01332-12.59086,6.035,1.25306,7.46942-1.27585,8.41847-5.93773.517.38649.95964.57782.946.72741-.49756,5.44616,1.35142,8.66073,6.91749,10.93077,3.98325,1.6244,6.84367,6.01673,10.19891,9.18047.76285.71937,2.01092,1.62678,1.06208,2.6045a2.25575,2.25575,0,0,1-3.69206-.46325c-2.34259-4.3457-6.9893-5.783-10.5228-8.59239-1.04585-.83156-3.432-3.46345-4.45029.23939-.52717,1.91714-3.12029,4.20389,1.03291,5.93641,10.74423,4.482,18.76244,12.65183,26.37726,21.1186,1.94114,2.15824,2.8875,5.26023,4.10171,8.01234.7181,1.6277.59524,3.68771-1.65978,3.46977-2.66485-.25756-1.654,2.2865-2.90471,2.92344-4.29114-6.10377-10.58684-9.688-17.17462-14.55685,2.60854,12.53977,3.61141,23.88573-.248,35.44356-2.66742-2.08489-1.75294-5.61853-4.40871-7.3313,2.44068,11.71348,2.44068,11.71348-.164,16.77922-9.52137,12.15842-21.97166,17.03757-37.21369,15.16521a31.511,31.511,0,0,1-7.77185-2.00431c-1.0052-.39583-2.15495-.75031-1.637-2.19129.41578-1.15654,1.74917-1.95492,2.54621-1.38185,3.35572,2.41265,7.399-.52553,10.41336,1.72277,1.144-.43836,1.01719-1.21106,1.06227-1.89408.07743-1.17275-.55688-2.52076.84742-3.35614.34445,2.64928,4.14409-.78771,4.31276,2.51773.0755,1.47982.35,3.27436,2.85116,2.93462,2.83455-.38529,2.04776-2.30559,2.045-3.99965-.00521-3.18482.56011-6.08784,3.96381-7.46587-.95546,2.60424-3.21835,5.68424-.42761,7.82457,2.98513,2.28965,6.031-.05268,8.62289-1.98363,1.27157-.94731,2.4091-2.07528,3.60653-3.12254,1.88433-1.64771,2.43066-4.04047,1.137-5.79419a4.96266,4.96266,0,0,0-6.2343-1.54645c-1.76674.826-3.47757,1.77215-5.21336,2.66468,1.36383-4.16952,7.78649-6.347,12.5627-4.78275,1.49681.49037,2.34862,4.09393,3.95187,1.71395,1.23849-1.83865,2.44949-4.82332.19728-7.46666-1.72661.81681-2.5679,3.06669-4.78291,2.922l.07063.07966c-.32993-5.121-4.73915-4.15543-7.7441-5.0261-4.19152-1.21474-8.78943-1.607-10.15195-7.98008-3.27548,7.34288-8.03277,9.13808-14.89649,5.92548-1.729-.80931-4.54164.13142-6.63133.89-1.21366.44073-3.00067,1.23608-2.73626,3.4329.24347,2.02287,1.91,1.79532,3.10063,2.23566.96153.35554,2.40771-.6318,2.77981,1.26308.39275,2.00009-1.32609,2.8277-2.287,3.74248-1.86758,1.778-1.33141-1.10282-2.211-1.55541-2.3188-1.193-4.371-2.94068-7.31246-3.07855.15341-2.26055,2.82858-3.194,2.68946-5.4742-6.21172,2.08673-8.61811,6.68066-9.28989,12.76968-.10682.96824,1.14667,4.23418-2.34525,3.31584-7.20176-11.29118-10.42385-23.75668-10.5185-37.55044a116.03558,116.03558,0,0,0-15.45728,11.0024c-1.72226,1.43163-2.18452,2.6049-1.46166,4.952,3.42315,11.11485,7.70052,21.7425,15.36949,30.69885-.53889.66723-.4499,2.76595-.71658,2.185-2.3336-5.084-7.67892-3.16769-11.1144-4.16017-5.11089-1.47653-7.74516-4.71388-10.52813-8.10439a67.64914,67.64914,0,0,1-9.84347-15.79371c-.50206-1.14957-1.00993-3.37352-2.864-2.00589-3.74635,2.76318-8.2421,1.45441-11.93515,2.59568-5.22708,1.61519-10.00867.68118-14.75381.03885-4.543-.61482-9.72552-.72042-13.45815-4.93524,16.29458,3.48689,29.16075-2.79031,39.78252-12.909-8.9587-2.91356-17.99124-6.68027-25.05332-14.18275q.36387-.52441.72769-1.0487c3.96115,1.99627,7.69138,4.722,12.51972,3.9778C363.75425,525.86282,368.01005,526.60707,372.2754,525.64528Zm55.91889,7.38844c-.53287-2.02774-.64611-4.50938-3.122-5.65039-2.10358-.96917-3.81254.19515-5.3801,1.36223a14.33668,14.33668,0,0,0-5.92227,12.98827,5.07575,5.07575,0,0,0,8.346,3.48215C425.98163,542.22447,427.69177,538.01018,428.19429,533.03372Zm8.29122,12.04215c1.31957-.7245,2.86444-.58689,3.61978-2.50666a11.00369,11.00369,0,0,1,7.42909-6.28483c1.67667-.49762,2.14391-1.3567,1.67984-2.28505-.53737-1.07477-1.57871-2.70484-3.01808-2.32507-4.08754,1.0782-5.71488,5.551-9.58049,7.31786C435.22423,539.62827,435.44761,542.86365,436.48551,545.07587Zm6.55918,2.12506a86.85947,86.85947,0,0,1,30.55994.03187C463.44193,542.12242,453.28244,543.56313,443.04469,547.20093Zm-6.17411-24.951c-2.50208.14235-4.507,1.15944-5.28293,3.65649-.65208,2.09846,1.78486,2.78464,2.47257,2.55565,2.16795-.72147,5.079-1.04606,5.30478-4.23391C439.47917,522.61585,438.25721,522.22555,436.87058,522.24991Zm19.111,17.55125c2.74749-.02752,5.71911,1.971,8.816-.35251C461.49808,537.93091,458.72881,537.84808,455.98162,539.80116Zm17.758,8.29085c1.09489,1.13429,2.03911,2.40764,4.34818.90846-.98883-.65116-1.633-1.14891-2.34276-1.52117C475.09455,547.138,474.43953,547.252,473.73965,548.092Z" style="fill:#2a292a"/><path d="M697.0932,579.21567q.18456-1.10967.369-2.21934c7.39476-8.486,10.78985-18.88241,13.9883-29.3756.60378-1.98087-.75461-3.01653-1.96595-4.01717a110.29347,110.29347,0,0,0-8.82794-6.938c-4.15542-2.77186-6.02314-1.81178-6.58737,3.0854a85.45413,85.45413,0,0,1-4.29766,19.23492c-2.217-.42954-1.52875-2.46268-2.09632-3.80516-1.84765-4.37007-4.37872-7.87013-10.03615-8.04276.63995,2.40935,3.62685,2.01562,3.83016,4.22851l-.28647.28785c-3.01814-.20226-6.08573-1.03909-7.08434,3.49611-.74785,3.39656-4.71712,3.57-7.06774,5.43207-2.55456,2.02366-5.59594,3.418-8.32515,5.23718-1.6153,1.07662-2.45547.183-2.80495-1.06279-.39436-1.40621-1.23046-3.85823.97113-3.96252,5.69864-.26981,8.092-4.34031,11.21155-8.57172-2.43211-.31879-6.00429.53173-3.66365-4.61025-4.78888,5.8358-9.36262,8.483-16.19966,5.52293-2.75826-1.19408-5.1652,2.00654-6.99724,4.06615-.89379,1.00472,1.48489,2.445,1.82409,2.43793,2.3066-.04793,2.17606,1.37829,1.98757,2.822-.11732.89859-.63045,1.90673-1.67689,1.714-1.23789-.22794-3.44132-.87751-3.43984-1.33879.03081-9.61515-5.25234-2.6365-8.217-2.71682l.09492.07453q-.1004-1.7127-.19775-3.422c.17807-.046.35319-.09546.52831-.14484q-.23242.112-.46477.22412c-5.888,2.63123-3.71481,8.13994-4.66738,12.60192-.28923,1.35486,1.99733,3.26619-.59517,3.98253-2.32191.64142-2.70087-1.50326-3.5095-2.95845a14.01678,14.01678,0,0,0-1.27695-1.67537c-.87378-1.12494-.92205-2.88564-2.601-3.39037l.05622.02067c-.50972-4.21745-2.67205-7.91885-3.60543-12.06137-2.00453-8.89671-.12824-17.57509.45133-26.33919.78524-.34935,1.06415-1.10691.54191-1.628-.71013-.70844-1.03533.29734-1.47148.68145a41.99724,41.99724,0,0,0-14.26035,11.68029c-7.64442-3.7168-7.34731-2.58-2.42879-10.7156,4.816-7.96626,11.79532-14.361,19.70051-19.384,2.83091-1.79875,4.82814-4.57431,8.05978-5.89045,2.74989-1.11994.643-3.38378.33453-5.02241-.41532-2.20657-2.07694-.86356-2.89723-.38556-3.43,1.99864-7.72489,3.047-8.79571,7.81166-.378,1.68182-2.06514.76282-3.12558,1.047-.78274.20977-2.07622.16855-2.09163-.95192a4.20558,4.20558,0,0,1,1.13361-2.849,58.11372,58.11372,0,0,1,6.20493-5.00582c4.64777-3.26382,11.84263-4.47159,9.62977-13.6867,1.94325,7.84,5.6184,7.20791,10.87668,4.44,2.61709-1.37777,6.04766.7698,9.28489.6954,14.12747-.32472,27.21364,3.86021,39.7044,10.17677q-.50238.49124-1.00471.9822c-3.17151.47642-5.80229-4.20283-9.56047-.69882-1.01861.94981,1.00875-2.752-1.65311-2.99138-2.79743-.25164-5.48531-1.62862-8.28615-1.95769-8.1984-.96311-16.28058-3.05906-24.65587-2.44069a44.74318,44.74318,0,0,0-9.00072,1.87934c2.34022,3.92828,4.57332,5.29209,9.43665,5.19675,10.72167-.21029,21.56047.01712,32.00929,3.98544,13.70995,5.20676,27.43012,4.84188,40.84734-1.81587,2.60538-1.29271,4.58343-3.38353,7.21674-4.49833q.35454.51612.70908,1.03211c-2.05223,5.63473-7.77981,7.85577-11.30176,12.15092-1.65311,2.016-3.94825,3.50348-5.9831,5.25707,17.53995,14.0745,38.64082,14.68615,51.01794,6.52066q.40776.48412.81484.96627c-4.97845,7.277-12.49957,10.36758-20.56631,12.59429-1.6608.45838-3.81765.4115-4.29937,2.63294-.55647,2.56632,2.05279,2.60582,3.3214,3.52627,7.06075,5.12236,15.20914,7.66023,23.53346,9.88865,2.12459.56886,4.13073-1.67207,6.72573.89529-6.80586,1.52868-12.7335,4.29225-19.54047,2.62255-4.96985-1.2191-10.25195-.29286-15.2077-2.16641-1.843-.69685-2.58386,1.27282-3.31387,2.73276a110.03841,110.03841,0,0,1-9.2424,15.00864c-4.42232,6.14775-10.05429,9.49664-17.76745,9.12834-.9275-.04425-1.90175.89555-2.85436,1.37934Q697.39727,579.53895,697.0932,579.21567Zm-21.75409-37.6068c1.80109-.18949,2.34507,2.67008,4.75769,1.75885-1.69549-1.41951.43941-6.13682-4.43289-4.36744.1724.2419.34.48735.519.72424.10586.14024.22979.26653.34564.39913Q675.93385,540.86632,675.33911,541.60887Zm-38.28073-12.33211c.13655-4.33386-3.11441-7.00144-7.24076-5.94154-6.04507,1.55264-11.28215,9.8793-9.87851,15.94146.69856,3.01692,2.51809,4.5672,5.87162,3.71746C630.84743,541.71777,636.89608,534.42835,637.05838,529.27676Zm46.56629,5.66277c1.72108-.54753,4.954,1.40951,4.56681-2.41528a4.65238,4.65238,0,0,0-4.67941-4.334c-2.41663.12866-5.22693,2.13125-5.28354,4.27921C678.18394,534.16156,681.08594,535.63809,683.62467,534.93953Zm-36.60318-14.74686c-3.21629.08559-5.56652,1.28191-6.13009,3.91314-.3502,1.63494,1.5598,2.82507,3.33287,2.42489,2.29293-.51724,5.26127-.72911,5.61844-3.73313A2.45223,2.45223,0,0,0,647.02149,520.19267Zm25.15179,17.47672c-2.67235-.05267-5.42262-.92215-7.3162,2.23224C667.73007,540.15683,670.65353,541.62915,672.17328,537.66939Zm-28.037,5.96143c3.73255-4.40312,3.73255-4.40312,2.96617-7.51723C644.21454,537.85309,644.69038,540.92887,644.13628,543.63082Zm34.92434-16.86533q-.19122-.17521-.3825-.35027a8.13217,8.13217,0,0,0-.48935.79232,2.72617,2.72617,0,0,0,.401.29246C678.7477,527.25573,678.90564,527.0116,679.06062,526.76549Z" style="fill:#2a292a"/><path d="M406.73312,579.91607c-7.669-8.95635-11.94633-19.584-15.36948-30.69885-.72286-2.34707-.2606-3.52034,1.46166-4.952a116.03558,116.03558,0,0,1,15.45728-11.0024c.09465,13.79376,3.31674,26.25926,10.5185,37.55044-2.29988,5.03545-5.00464,9.4811-11.729,8.1593A6.02745,6.02745,0,0,0,406.73312,579.91607Z" style="fill:#d6d5d5"/><path d="M480.92676,569.79672c2.6047-5.06574,2.6047-5.06574.164-16.77922,2.65577,1.71277,1.74129,5.24641,4.40871,7.3313,3.85938-11.55783,2.85651-22.90379.248-35.44356,6.58778,4.86887,12.88348,8.45308,17.17462,14.55685,1.14256,9.57841.91379,18.90663-4.13144,27.61056-.97695,1.68537-1.484,2.89947-3.76805,2.73921-4.40178-.30866.93893-1.47719-.291-2.4798-1.985-1.61822-4.37617-.9901-6.49558-1.62111-1.103-.32841-.67253,1.16352-.00507,2.50179,1.05522,2.11557-2.24658.00066-2.811,1.90238C483.68949,575.94513,482.27568,572.28126,480.92676,569.79672Zm15.11375-4.77841c-.149-.07862-.30784-.23834-.44524-.22162-.518.06294-.61893.31235-.25435.59309a.59461.59461,0,0,0,.5019.00224C495.9437,565.34817,495.977,565.14841,496.04051,565.01831Z" style="fill:#d6d5d5"/><path d="M689.77161,558.98591a85.45413,85.45413,0,0,0,4.29766-19.23492c.56423-4.89718,2.432-5.85726,6.58737-3.0854a110.29347,110.29347,0,0,1,8.82794,6.938c1.21134,1.00064,2.56973,2.0363,1.96595,4.01717-3.19845,10.49319-6.59354,20.8896-13.9883,29.3756-.00828-2.37182-1.91648-2.68667-3.54409-3.09145-3.29058-.81866-2.08808-2.36169-.77377-3.99465l-.06982.057c1.13856,1.18315,2.26376,2.34338,4.00475.87528.38668-.32617.88782-1.07174.43924-1.00393-3.58486.54252-.20544-5.19847-4.0242-4.3353-2.10431.47562-3.644.79284-4.91015,3.30978-1.62255,3.225-3.09568,8.26253-8.85576,6.17185,2.80656-4.49161,7.572-7.82075,8.07269-13.67749C688.85052,560.86814,689.81958,560.36039,689.77161,558.98591Z" style="fill:#d6d5d5"/><path d="M615.91349,527.032c-.57957,8.7641-2.45586,17.44248-.45133,26.33919.93338,4.14252,3.09571,7.84392,3.60543,12.06137-5.21951-2.03274-8.95107,1.6734-13.18736,3.43264l.08437-.09152c-4.891-7.22252-5.63355-15.47215-6.12595-23.85649-.14811-2.52286-.24645-4.86637.88482-7.15142a41.99878,41.99878,0,0,1,14.26041-11.68029Q615.44867,526.55874,615.91349,527.032Z" style="fill:#d6d5d5"/><path d="M687.80116,561.30743c-.50069,5.85674-5.26617,9.18588-8.07273,13.67749l.37777.0819c-1.21213-.30326-1.26128.414-1.12884,1.2906l.17085-.15262c-1.16107-.32512-1.79669.33987-2.31235,1.23108a39.33813,39.33813,0,0,1-33.23689,6.25033c-4.06193-.99116-7.90461-2.85338-11.907-4.13015-3.17108-1.0117-3.207-3.785-3.01837-6.02305.20685-2.45439,2.76437-2.02906,4.41015-2.31191a1.49848,1.49848,0,0,1,.19611,2.13085c-.84513,1.44466-.13322,2.49271,1.0176,3.134,1.88122,1.0483,1.8941-.90715,2.4898-1.81179.68394-1.03882,1.26689-2.14415,1.89371-3.22063q.47375.44323.94754.88634c.43753,2.164-2.8153,5.2061,1.03366,6.44627,3.694,1.19025,7.39564,4.34926,11.61313.50038,1.38827-1.26689,3.69326-3.32716,5.88319.00856.9758,1.48641,3.03415.1193,3.36592-2.5625.38769-3.13332.28768-6.40452,3.98852-7.78953-.14417.8787-.33115,1.75226-.42495,2.63571-.20544,1.9353-.69216,4.0622,1.2349,5.38255,2.10115,1.4394,4.07365.09494,5.9557-.80772a9.85874,9.85874,0,0,0,2.61787-1.799c2.392-2.35036,6.61405-3.92077,4.93324-8.37209-1.81857-4.81607-5.92846-2.06119-9.14019-2.17167,2.202-3.613,5.67952-4.59353,8.99444-2.65928,3.64851,2.12914,5.34049,1.60939,5.9948-2.76278C686.58647,559.63707,687.19379,560.47231,687.80116,561.30743Z" style="fill:#2a292a"/><path d="M670.68947,563.8108c3.21173.11048,7.32162-2.6444,9.14019,2.17167,1.68081,4.45132-2.54122,6.02173-4.93324,8.37209a9.85874,9.85874,0,0,1-2.61787,1.799c-1.88205.90266-3.85455,2.24712-5.9557.80772-1.92706-1.32035-1.44034-3.44725-1.2349-5.38255.0938-.88345.28078-1.757.42495-2.63571l-.27907.051c.92747.10942,1.25389-.5794,1.61608-1.22081q.76783-.86059,1.53569-1.72159.59987-.76222,1.19974-1.5242l-.08993.1143c.61988-.156,1.57952.05215,1.22577-1.14772Z" style="fill:#84c5ab"/><path d="M463.83739,567.8863c1.73579-.89253,3.44662-1.83865,5.21336-2.66468a4.96266,4.96266,0,0,1,6.2343,1.54645c1.29367,1.75372.74734,4.14648-1.137,5.79419-1.19743,1.04726-2.335,2.17523-3.60653,3.12254-2.59189,1.931-5.63776,4.27328-8.62289,1.98363-2.79074-2.14033-.52785-5.22033.42761-7.82457q.19575-.49222.39167-.985.59346-.54654,1.18673-1.09255Z" style="fill:#84c5ab"/><path d="M440.89091,570.458c-1.39574-3.27608-.382-5.09524.11031-6.94719.23242-.87422.87234-1.9486,1.82348-1.5026,5.6911,2.66771,10.79951-1.38225,16.24466-1.25873,1.72452.03911,1.00709-1.23226,1.37062-2.07581a3.0589,3.0589,0,0,1,3.92026-1.74647c1.94446.96693.3762,2.06435-.4576,3.1091-2.10955,2.64335-2.66213,7.46771-8.00444,5.47671-.21153-.07888-1.24641,1.19987-1.38042,1.94018-.34648,1.91318-2.0025,1.28572-2.03741.63074-.23752-4.45776-3.18252-1.33668-3.90622-1.05041C445.91052,568.08751,442.20866,565.24717,440.89091,570.458Z" style="fill:#2a292a"/><path d="M434.13572,574.615c-.98178,2.07567-.43488,5.6575-3.08177,5.94114-2.45288.2627-4.52974-2.29782-6.34261-4.17228a10.63427,10.63427,0,0,1-1.41814-2.76423q.52564-.398,1.05127-.79588c2.04864-.35435,3.96735-1.75661,5.377,1.68854.99138,2.42278,2.117-.67526,3.24743-1.12218Q433.55233,574.00265,434.13572,574.615Z" style="fill:#2a292a"/><path d="M681.4693,551.3665c2.54647.80048,3.08517,2.87879,3.45679,5.54281-3.39489-.51026-3.83633-2.68706-3.7425-5.25562Z" style="fill:#3ea986"/><path d="M721.66272,495.68607c1.60853-.67394,1.21545-3.35679,4.29011-3.55734-.79011,2.21618-.69266,4.31595-3.581,4.58945Q722.01726,496.20206,721.66272,495.68607Z" style="fill:#2a292a"/><path d="M605.88023,568.86521c.81126.03964,1.78732-.35435,2.20856.73083.0597.15393-.31143.6663-.54086.71015-1.18746.22728-1.45279-.604-1.58313-1.5325Z" style="fill:#d6d5d5"/><path d="M619.01137,565.4119c1.679.50473,1.72724,2.26543,2.601,3.39037C619.41618,568.696,618.47968,567.61939,619.01137,565.4119Z" style="fill:#d6d5d5"/><path d="M409.99092,503.05924c-.43534.77691-.95213,1.44808-1.97263,1.03184-.19433-.07914-.2631-.46759-.3898-.71331q1.2166-.12226,2.43318-.24466Z" style="fill:#2a292a"/><path d="M697.70838,579.85576c-.33023.7806-.88965,1.898-1.6905,1.09743-.85716-.85685.45584-1.28415,1.076-1.73686Q697.39686,579.53868,697.70838,579.85576Z" style="fill:#2a292a"/><path d="M475.76633,560.27282a9.04156,9.04156,0,0,1-.91213.45667c-.10234.0391-.26361-.07664-.398-.12168.45827-.087.91653-.17421,1.37777-.25835Z" style="fill:#2a292a"/><path d="M432.969,573.39014q.73812-.93249,1.47627-1.865c1.05087,1.14628.04873,2.08489-.31034,3.08922Q433.55274,574.00285,432.969,573.39014Z" style="fill:#2a292a"/><path d="M630.66377,562.3373q-.118.479-.2359.958c-.75537-.60717.17607-.60243.319-.88423Z" style="fill:#2a292a"/><path d="M676.83586,577.43588c.51566-.89121,1.15128-1.5562,2.31235-1.23108C678.76068,577.33765,677.78127,577.35463,676.83586,577.43588Z" style="fill:#d6d5d5"/><path d="M423.29318,573.61966c-.39418-.74044-.67286-1.47851.04722-2.19485q.50191.69961,1.004,1.399Q423.8189,573.22179,423.29318,573.61966Z" style="fill:#2a292a"/><path d="M638.681,571.45352c.40116-.29339,1.06664-.90781,1.16146-.82932.73005.60388.46441,1.2129-.21444,1.71526Q639.155,571.89682,638.681,571.45352Z" style="fill:#2a292a"/><path d="M693.14437,569.91023l-.57586-.77284c.87428-.15735.323.56149.50656.82919Z" style="fill:#d6d5d5"/><path d="M631.70068,560.11981c.17088.98167.1697,1.8825-1.0373,2.217l.08345.07427c-.03351-.92044.04383-1.78861,1.04913-2.21618Z" style="fill:#2a292a"/><path d="M686.31373,498.04512c.33247.44429,1.39628.69738.71543,1.41477-.47637.5021-1.23888.125-1.71994-.43283Q685.81126,498.53643,686.31373,498.04512Z" style="fill:#2a292a"/><path d="M410.06168,503.13311q.51153-.6137,1.02247-1.22858l-.07374-.07874q-.511.61409-1.02029,1.23213Z" style="fill:#2a292a"/><path d="M758.40852,518.7218c.37379-.43059.75406-.51434,1.145-.02133l-.70573.54081Q758.62705,518.98253,758.40852,518.7218Z" style="fill:#2a292a"/><path d="M344.34244,520.24126l-.67436-.58268c.76856-.27482.78477.11113.59428.67841Z" style="fill:#2a292a"/><path d="M757.03274,519.716c.46129-.32881.92254-.65748,1.37979-.99024.14167.16987.2881.343.43526.51553q-.39422.68283-.78849,1.36552Z" style="fill:#2a292a"/><path d="M345.24208,521.51619l-.89967-1.2748-.08.0956q.91088.22518,1.82169.44943Q345.6623,521.15163,345.24208,521.51619Z" style="fill:#2a292a"/><path d="M758.0593,520.6068q-.5698.50308-1.13965,1.0063-.40712-.48253-.81474-.96627.46434-.46595.92862-.93045Q757.54563,520.16121,758.0593,520.6068Z" style="fill:#2a292a"/><path d="M346.2486,522.64442l-1.00652-1.12823q.42059-.36483.842-.72977.44665.4053.892.81022Q346.61257,522.11968,346.2486,522.64442Z" style="fill:#2a292a"/><path d="M670.72118,563.494c.35375,1.19987-.60589.99168-1.22577,1.14772C669.33268,563.6466,670.03039,563.574,670.72118,563.494Z" style="fill:#2a292a"/><path d="M669.58534,564.5274q-.59988.762-1.19978,1.5242C668.2206,565.09732,668.546,564.53017,669.58534,564.5274Z" style="fill:#2a292a"/><path d="M463.92465,567.76634q-.59331.54615-1.18671,1.09255C462.9509,568.296,462.99541,567.54894,463.92465,567.76634Z" style="fill:#2a292a"/><path d="M666.84988,567.77319c-.36216.64141-.68858,1.33023-1.61595,1.22081C665.15383,567.76489,665.67392,567.33325,666.84988,567.77319Z" style="fill:#2a292a"/><path d="M678.97736,576.35742c-.13244-.8766-.08329-1.59386,1.12884-1.2906Q679.54216,575.71212,678.97736,576.35742Z" style="fill:#d6d5d5"/><path d="M428.19429,533.03372c-.50252,4.97646-2.21266,9.19075-6.07836,12.18226a5.07575,5.07575,0,0,1-8.346-3.48215,14.33668,14.33668,0,0,1,5.92227-12.98827c1.56756-1.16708,3.27652-2.3314,5.3801-1.36223C427.54818,528.52434,427.66142,531.006,428.19429,533.03372Z" style="fill:#84c5ab"/><path d="M436.48551,545.07587c-1.0379-2.21222-1.26128-5.4476.13014-6.08375,3.86561-1.76688,5.493-6.23966,9.58049-7.31786,1.43937-.37977,2.48071,1.2503,3.01808,2.32507.46407.92835-.00317,1.78743-1.67984,2.28505a11.00369,11.00369,0,0,0-7.42909,6.28483C439.35,544.489,437.80508,544.35137,436.48551,545.07587Z" style="fill:#3ea986"/><path d="M443.04469,547.20093c10.23775-3.6378,20.39724-5.07851,30.55994.03187A86.85947,86.85947,0,0,0,443.04469,547.20093Z" style="fill:#3ea986"/><path d="M436.87616,522.2532c1.381-.02765,2.603.36265,2.48884,1.97494-.22576,3.18785-3.13683,3.51244-5.30478,4.23391-.68771.229-3.12465-.45719-2.47257-2.55565C432.36357,523.40935,434.3685,522.39226,436.87616,522.2532Z" style="fill:#84c5ab"/><path d="M455.98162,539.80116c2.74719-1.95308,5.51646-1.87025,8.816-.35251C461.70073,541.77215,458.72911,539.77364,455.98162,539.80116Z" style="fill:#3ea986"/><path d="M473.73965,548.092c.69988-.84,1.3549-.954,2.00542-.61271.70972.37226,1.35393.87,2.34276,1.52117C475.77876,550.49965,474.83454,549.2263,473.73965,548.092Z" style="fill:#3ea986"/><path d="M637.05838,529.27676c-.1623,5.15159-6.211,12.441-11.24765,13.71738-3.35353.84974-5.17306-.70054-5.87162-3.71746-1.40364-6.06216,3.83344-14.38882,9.87851-15.94146C633.944,522.27532,637.19493,524.9429,637.05838,529.27676Z" style="fill:#84c5ab"/><path d="M683.62467,534.93953c-2.53873.69856-5.44073-.778-5.39614-2.47006.05661-2.148,2.86691-4.15055,5.28354-4.27921a4.65238,4.65238,0,0,1,4.67941,4.334C688.57871,536.349,685.34575,534.392,683.62467,534.93953Z" style="fill:#3ea986"/><path d="M647.02149,520.19267a2.45223,2.45223,0,0,1,2.82122,2.6049c-.35717,3.004-3.32551,3.21589-5.61844,3.73313-1.77307.40018-3.68307-.78995-3.33287-2.42489C641.455,521.47458,643.8052,520.27826,647.02149,520.19267Z" style="fill:#84c5ab"/><path d="M676.52856,540.12365c-.11581-.1326-.23974-.25889-.3456-.39913-.179-.23689-.34665-.48234-.519-.72424,4.8723-1.76938,2.7374,2.94793,4.43289,4.36744-2.41262.91123-2.9566-1.94834-4.75635-1.766.62461.85565,1.49337,1.0537,2.15314.26718C678.44747,540.73148,677.11575,540.57083,676.52856,540.12365Z" style="fill:#3ea986"/><path d="M672.17328,537.66939c-1.51975,3.95976-4.44321,2.48744-7.3162,2.23224C666.75066,536.74724,669.50093,537.61672,672.17328,537.66939Z" style="fill:#3ea986"/><path d="M644.13628,543.63082c.5541-2.702.07826-5.77773,2.96617-7.51723C647.86883,539.2277,647.86883,539.2277,644.13628,543.63082Z" style="fill:#3ea986"/><path d="M679.0621,526.76654q-.23469.36759-.4723.73346a2.72527,2.72527,0,0,1-.401-.29246,8.12664,8.12664,0,0,1,.48938-.79232C678.80566,526.53188,678.93314,526.64868,679.0621,526.76654Z" style="fill:#3ea986"/><path d="M614.98388,526.08549c.43619-.38411.76139-1.38989,1.47152-.68145.52224.52106.24333,1.27862-.54191,1.628Q615.44866,526.55875,614.98388,526.08549Z" style="fill:#d6d5d5"/><path d="M631.66139,556.85164q.23236-.112.46477-.22412c-.17512.04938-.35024.09889-.52831.14484Z" style="fill:#888"/><path d="M496.04052,565.01831c-.06349.1301-.09682.32986-.1977.37371a.59461.59461,0,0,1-.5019-.00224c-.36458-.28074-.26368-.53015.25435-.59309C495.73267,564.78,495.89151,564.93969,496.04052,565.01831Z" style="fill:#888"/><path d="M676.5286,540.12365c.58715.44718,1.91887.60783.965,1.74529-.65977.78652-1.52853.58847-2.1531-.26718C675.7356,541.11375,676.1321,540.61876,676.5286,540.12365Z" style="fill:#2a292a"/></svg>