<svg id="Layer_1" data-name="Layer 1" xmlns="http://www.w3.org/2000/svg" viewBox="0 0 1133.85827 1133.85827"><path d="M408.51159,558.61566s8.92555,9.70849,11.11779,12.84026,6.57672,10.02167,8.61237,11.431,11.90073,9.5519,21.13946,9.5519,30.69136-17.8511,30.69136-20.04334,7.82943-19.57357,7.82943-19.57357l5.63719-20.66969L458.61994,507.098l-28.02936-5.324L416.341,510.69955l-5.01083,21.9224Z" style="fill:#675443"/><path d="M626.62112,508.877l44.39949-7.4334,13.86228,26.51915s4.41986,16.474,3.61625,18.08124-4.41986,24.51012-8.237,28.12637-26.51915,17.47853-28.32727,17.47853-18.84751-1.8843-22.58288-6.36652-10.56606-17.54089-10.56606-17.54089-7.03159-10.04514-8.03611-18.483S626.62112,508.877,626.62112,508.877Z" style="fill:#675443"/><path d="M626.88016,478.82905c4.75249,2.14648,9.2379.30832,13.81959-.81921,10.12077-2.49071,20.21224-1.50725,30.25738.60486.65126.13695,1.34432.51416,1.074,2.16215a142.7984,142.7984,0,0,0-20.45381-1.14883c-6.86841.27755-13.61754,1.22953-19.84112,4.52412,5.50057,8.57507,7.12793,8.225,16.65955,4.874,6.9879-2.45673,14.96742-1.34448,22.35323.15282a83.76469,83.76469,0,0,1,21.88273,7.30094c13.26258,6.82465,28.84591,2.032,37.23357-10.8005.65586-1.0034,1.43968-1.92279,2.59745-3.45464a67.242,67.242,0,0,1-10.69916,24.732c-2.03462,2.933-.89636,4.34664,1.1066,5.47642,11.03626,6.22506,21.96557,12.62034,35.66339,9.7889,3.09235-.6392,5.03278-4.11852,9.01075-2.74543a80.85887,80.85887,0,0,1-26.1768,17.1105,8.05526,8.05526,0,0,0-4.61549,3.76765,190.36467,190.36467,0,0,1-16.77186,25.5405c-1.92652,2.47607-2.09926,6.468-5.81974,7.34249-2.1624.50828-2.50419,6.75017-6.26042,2.01233-2.16215,3.47708-5.15085,1.56345-7.8994,1.216l.06111.04712c.3521-3.02649,3.71385-4.88693,3.1856-8.25456a1.64349,1.64349,0,0,0,1.23227-1.59587l.05628-.26787c5.90327-7.43781,7.93237-16.48694,10.57456-25.30027a7.51431,7.51431,0,0,0-2.38134-8.41821c-8.48616-7.59544-17.04594-15.09518-28.37728-18.87619,6.401,12.35924,8.15171,20.84709,7.43326,32.461-.207,3.34684-1.52408,4.049-4.35013,3.513l.05845.20674c.414-1.20592-.58928-.77079-1.07641-.93327-3.64059-1.77523-4.25116,1.93979-5.25285,3.55022-.81824,1.31554,1.58606,2.77809,2.85136,3.78215,1.75168,1.39,2.8222-1.65959,4.60824-1.10326a10.11882,10.11882,0,0,1-.9718,6.45062c-1.037,2.292-3.0139,4.40554-2.36588,7.2844-4.12612,5.06816-7.48049,10.7571-12.558,15.0602-7.20941,6.10994-15.67934,8.53956-24.8835,8.87289a3.4153,3.4153,0,0,1-3.68318-2.3662c.48192-1.288,1.35907-.45639,2.11087-.53645,3.08747-.32879,7.63628,1.61408,6.50187-5.06329-.352-2.072,1.54575-5.2844,3.98493-7.07778,1.5792-1.1611,2.88632-2.55513,1.30712-5.27592,2.76844.98464,4.49858,2.51663,6.7295,1.77877-2.02732,1.52125-4.1445,2.93859-6.05356,4.59656a4.59952,4.59952,0,0,0-1.518,5.21572c.84082,2.48846,3.169,2.20929,4.8953,2.16233,4.57916-.12456,15.95914-10.80328,16.78777-15.42638.28179-1.57229.66191-3.49383-.504-4.55209-1.49643-1.3582-3.26994-.34344-4.75443.69844-.11221-3.361.9795-3.93423,6.17438-3.24211.12687.46556.40846,1.02888.87181.58155.4543-.43857-.09983-.75768-.54885-.92277,1.05862-1.51908,3.967.59551,3.93518-1.15029-.05186-2.84447-2.55922-4.75024-4.64943-6.59592-.83813-1.04944-1.33833-2.5697-3.04579-2.44626a1.34727,1.34727,0,0,0-.85975.977c-.09662,1.79129,1.2575,2.27758,2.63527,2.69035.31416,1.26423,1.1359,3.41571-1.28933,2.51691-3.9717-1.47192-5.82686.78808-7.7364,3.34772-.44825.60083-.18943,1.98939-1.56736,1.235-1.16463-.63765-1.23748-1.44756-.317-2.52555a11.03934,11.03934,0,0,1,3.79633-2.70469c1.02091-.49574,2.59073-.848,2.52144-2.356-.09261-2.01539-2.03463-1.5502-3.23989-1.89569-.85554-.24522-1.704-.219-1.90669-1.311q.25153-.3325.50379-.66432l-1.1556-.04124c-1.18572.21462-1.90045-.9287-2.82027-1.09312-2.55711-.45716-5.82029-4.94757-7.69988,1.20536-.16271.5326-4.13861,4.48678-7.392.80539-1.94173-2.19717-5.3846-.07873-7.99069-1.24909-1.1414-.51258-1.06393.60554-1.03388,1.184.23644,4.54937-.566,4.87416-3.88791,1.53182-2.01376-2.02612-4.928-2.95331-7.35789.93309-1.66962,2.67035-4.77694,4.43821-7.24167,6.60945q-.47168-.54953-.9434-1.099c.70885-3.25756,4.074-4.58671,5.36322-7.42267.64434-.72719,1.76533,1.96,2.19284-.30385.41108-2.17654,2.3278-2.38034,3.91091-3.02539q1.13931-.52011,2.27653-1.04063c.58353-.416,1.90589-.62056,1.269-1.54185-.62723-.90727-1.75032-.43309-2.54133.29644q-1.04381.33439-2.08761.66875c-2.25172.97709-4.65612,1.6799-6.397,3.57475-4.91849,2.73162-7.39794,7.44355-9.84882,12.17868q-.29148-.95818-.5832-1.91664c.36436-1.00342-.40859-1.61342-.81032-2.35184a83.53408,83.53408,0,0,1,1.54458-36.61916c-7.29989,5.535-11.83522,12.16968-17.57519,17.5836-.01336-3.61366,3.58417-5.99548,3.25043-10.10828-1.22945-.50305-1.65661,2.13953-2.50749,1.21692-.82733-.89711-.15537-1.96862.45585-3.19168,6.25356-12.51324,16.58812-21.09865,27.49382-29.14246,3.90416-2.87965,5.11155-10.17128,2.08726-13.56049-1.5134-1.696-2.597-.04009-3.64906.48987-6.75353,3.402-12.32914,8.50873-18.3572,12.96272a5.06647,5.06647,0,0,0-.78056-.62641c5.64085-5.94533,11.36126-11.84418,18.76029-15.60476,2.52982-1.28578,2.43067-3.0403,2.09089-5.18235ZM637.794,526.192l.02629-.01122c-1.7771-1.8747.49813-3.13008.78166-4.67643.47759-2.60445,1.49856-5.26987-.77214-7.41636-2.18858-2.06889-4.90349-1.69424-7.45763-.71684-5.21421,1.99535-8.5024,6.04143-10.85514,10.88864-1.32792,2.73588-2.13135,5.776.11675,8.37976,2.41624,2.79846,5.38786,1.7282,8.207.48748.79909-.35169,1.574-.76552,2.33536-1.19469,1.58545-.89365,2.57931-2.97781,4.6569.28581,1.656,2.60131,2.9407-.98148,3.81988-2.17285C640.29462,527.82066,639.98252,527.17487,637.794,526.192Zm8.59485-10.20126c3.091.10725,7.12233-2.56128,7.20094-5.01752.07249-2.26472-1.19821-3.47856-3.59368-3.54849-3.33612-.0974-8.24307,3.188-7.86611,5.66343C642.45919,515.24969,644.21747,516.1209,646.38887,515.99072Zm24.60142,23.68822c-2.48382-2.18829-4.88349-4.57669-7.58935-6.54184-.98522-.71549-3.09726-.69658-3.83163.52507-.79081,1.31554.70626,2.43424,1.571,3.47769,1.828,2.20592,4.90419,2.37574,6.92113,4.49657C669.64619,543.30282,670.152,541.08455,670.99029,539.67894Zm-22.71689.18076a4.32762,4.32762,0,0,0,3.86023-3.62186c.33619-1.97849-1.598-2.61129-3.106-2.57591-1.94574.04565-2.87481,1.49853-3.06052,3.4239C645.79864,538.833,646.71607,539.60344,648.2734,539.8597Zm6.53978,5.39725c-4.56286-.72948-9.16431-1.348-14.01037,1.45341C646.05917,548.07641,650.32352,545.66145,654.81318,545.257Zm12.16669,3.42571c-3.08293-1.78066-6.16942-3.54778-10.51089-2.81329C659.94306,548.39967,663.26366,549.28578,666.97987,548.68266Zm13.16178,2.074a12.13086,12.13086,0,0,0-2.877-5.49286C677.06781,550.69387,677.06781,550.69387,680.14165,550.7567Zm1.28484-4.12479-.37818-.68281a4.683,4.683,0,0,0-.871.988c-.09724.19866.15271.56776.24584.85989Zm1.46439,17.66632-.30433-.37057c-.11826.10758-.32238.20894-.33069.32444s.17892.24538.28042.36893Z" style="fill:#2a292a"/><path d="M474.268,479.8599c-.62283,1.8894-.34273,3.47859,1.6493,4.31683,3.99711,1.682,6.78051,5.30513,10.9548,6.734,2.53938.86926,3.41554,3.2725,4.36633,5.51675q-.67686.3635-1.3537.727c-4.88035-3.248-9.80739-6.42883-14.617-9.77883-1.80307-1.25588-2.333-.90685-3.3734,1.0143-3.77748,6.97515-3.45426,8.36755,2.986,12.72022a80.49048,80.49048,0,0,1,25.0531,26.79029c2.69178,4.63649,1.0522,8.45965,1.83224,12.57257l.065-.09326-.48246-.11761-.49193.06751-.01006-.009-1.092-1.03863a100.1566,100.1566,0,0,0-14.73715-15.68259,59.83876,59.83876,0,0,1,3.00878,24.20511c-6.18827,2.0066-8.76369-2.80657-11.72492-6.49086-1.63778-2.03769-3.22654-5.90349-5.08406-5.56311-5.2832.96814-11.72285-.56107-15.40446,5.28824,2.17355,2.27264,5.6721.44879,7.89561,2.55667a1.91987,1.91987,0,0,0-.4227.26467c-.05.0519.00972.21.01965.31986l.30187-.66287c1.73293.37682,2.4135-.36666,2.1936-2.06874l-.08714.0721c2.44208-.753,4.60835.99967,7.2258.57214,2.38992-.39037,2.29779,2.603,3.02577,4.15919-1.45534,1.35075-3.39335-.75149-4.37614,1.19128a2.083,2.083,0,0,0,2.23528,1.2178c4.40558-.85532,6.91327,1.16816,8.1882,5.20775a2.04853,2.04853,0,0,0,2.01789,1.41176c4.45168,1.51845,2.97185,4.8688,2.43812,7.92672-.0304.17425-.06518.34775-.09791.52159-1.43249,1.13946-1.25831-1.84166-2.5718-1.00714l-.06671-.06834c-.38756-5.01486-3.66492-8.22328-7.66615-10.12027-3.10949-1.47426-.2457,3.49164-2.71219,3.61.2188,1.04019,1.378,2.56047-1.02117,2.37754-1.76659-.13469-1.9653-1.57462-1.31724-2.68581,1.17989-2.02306-.2107-2.83-1.38439-3.82125a3.54215,3.54215,0,0,0-.91342-.38285c.54134-1.495,3.3144-2.992.51682-4.37961-.66129-.328-2.64724,1.92684-4.78666.84932-7.53876-3.79693-15.17731-2.22258-23.0219-.6654-11.16434,2.21618-18.9494,8.814-25.439,17.55514-.6316-.12211-1.72807-.08923-1.8275-.3887-2.98385-8.98571-5.53091-18.11546-4.57141-27.69511a52.35973,52.35973,0,0,1,7.95537-23.08247c-11.32053,4.24764-19.69061,11.36426-28.10206,18.47574-3.36675,2.84643-4.66131,6.24673-3.30939,10.24882,2.44431,7.23583,4.0802,14.7685,8.19234,21.41809,2.4453,3.95417,5.54453,7.71312,5.87889,12.69253-2.047-.42469-4.41568,3.70821-6.22318-.44236a1.09142,1.09142,0,0,0-.84194-.553c-4.05128.41147-4.06.43241-6.38859-2.33774a188.43062,188.43062,0,0,1-21.30884-30.7413c-1.60644-2.93672-3.6812-4.05533-6.79508-5.31625-5.67855-2.29945-10.86281-6.01116-15.90006-9.62762-2.21085-1.58727-4.63659-2.39037-6.89038-3.66826-1.65374-.93766-3.09248-2.97383-1.75477-4.68585,1.15281-1.47539,3.10607-1.19117,4.22223.97858.88388,1.71823,2.63648,2.06531,4.46833,2.22674,7.67128.676,15.25344,1.375,22.42586-2.73582,4.70633-2.69734,9.73153-4.83939,14.63339-7.18938,1.94555-.93272,2.73435-1.86113.981-3.89053-6.397-7.40426-9.61094-16.33612-11.94292-25.78188,5.49841,10.6509,14.84976,15.39189,25.90451,17.80727a9.93733,9.93733,0,0,0,7.16746-.61746c10.27591-5.59958,20.84227-10.26992,32.66607-11.46993,1.68758-.17128,3.30056-1.08041,4.948-1.64811,3.42419,2.35542,7.65927.65769,11.235,2.25626,9.57595,4.5624,12.35693,4.14015,16.92613-1.69367,1.881-2.40161,1.10907-3.17277-1.16181-3.99668a58.45694,58.45694,0,0,0-22.16242-3.52607c-4.88029.16677-9.77087.03126-14.69578-.28878a45.37626,45.37626,0,0,1,17.47747-2.61107c7.78158.16858,15.59435,1.07263,22.82172,4.26577,2.33993,1.03382,2.97308-.81968,4.35654-1.44943Zm-34.95021,58.45c-5.19858-1.48046-.08692,5.56182-3.53927,4.85195,1.13773-.52094,2.31926,1.98,4.54623.88948a9.144,9.144,0,0,1-1.08264-5.83314c.60185.12673.957.04851.54919-.66361Zm-4.97092-10.30779q-.54718-.44789-1.09433-.8958c.56339-1.28162,1.46556-2.52362,1.6204-3.853.33371-2.86512,1.68437-6.16595-1.19674-8.38352-2.83785-2.18425-5.997-1.217-8.9325.193-4.7328,2.2733-7.49413,6.18427-8.81947,11.14728-.8362,3.13136-1.06643,6.34218,1.65132,8.7338,2.84833,2.50656,5.53778.49093,8.24263-.64657,1.435-.60347,2.50551-2.99124,4.6026.08572,1.18451,1.73794,2.983-1.40713,4.2467-2.58675C435.88268,530.662,437.44855,528.9964,434.34691,528.00215Zm10.30264-17.69147c-2.6656.51483-5.79746.83031-6.43618,4.61986a3.2323,3.2323,0,0,0,3.31586,3.9116,7.03028,7.03028,0,0,0,6.80484-5.5728C448.8516,511.02911,446.84265,510.44007,444.64955,510.31068Zm-.05855,26.51574c-1.9148.47793-3.37548,1.25476-3.40883,3.43193-.02148,1.4029.40583,2.4974,2.05355,2.20688a3.97677,3.97677,0,0,0,3.39254-3.4449C446.89355,537.47547,445.89543,536.89293,444.591,536.82642Zm41.30253,2.05185c-.71816-2.53189.02632-5.32955-2.69365-6.85557-.21238-.11916-1.49534.88462-1.43231,1.1917C482.2439,535.53506,482.75356,537.93572,485.89353,538.87827Z" style="fill:#2a292a"/><path d="M400.20276,576.659c-.33436-4.97941-3.43359-8.73836-5.87889-12.69253-4.11214-6.64959-5.748-14.18226-8.19234-21.41809-1.35192-4.00209-.05736-7.40239,3.30939-10.24882,8.41145-7.11148,16.78153-14.2281,28.10206-18.47574a52.35973,52.35973,0,0,0-7.95537,23.08247c-.9595,9.57965,1.58756,18.7094,4.57141,27.69511.09943.29947,1.1959.26659,1.8275.3887a1.47249,1.47249,0,0,0,1.74871.86874c-1.01112,1.68169-2.14822,3.34907-.60331,5.32171a9.2393,9.2393,0,0,1-5.05226-.549c-5.52095-1.66337-6.105-1.18463-7.78949,5.02517C403.85495,577.26107,402.34164,577.63216,400.20276,576.659Z" style="fill:#d6d5d5"/><path d="M685.28606,569.01181c-.648-2.87886,1.3289-4.99241,2.36588-7.2844a10.119,10.119,0,0,0,.9718-6.45071c2.49229-.66351,2.96166-1.88652.30342-2.73477-1.8243-.58214-1.52818-1.567-1.49221-2.76772,2.82605.536,4.14311-.16614,4.35013-3.513.71845-11.61388-1.03229-20.10173-7.43326-32.461,11.33134,3.781,19.89112,11.28075,28.37728,18.87619a7.51431,7.51431,0,0,1,2.38134,8.41821c-2.64219,8.81333-4.67129,17.86246-10.57456,25.30027-4.66591-2.6185-9.6853-.5282-14.87917-1.59455.96937,2.75262,3.91082,1.62633,4.81239,3.94208C691.35964,568.59214,688.254,567.85764,685.28606,569.01181Z" style="fill:#d6d5d5"/><path d="M598.11684,541.49932c5.74-5.41392,10.2753-12.04859,17.57519-17.5836a83.53408,83.53408,0,0,0-1.54458,36.61916c-2.71857-.13164-2.75111-3.51985-5.04459-4.1754-.93437-.267-1.84164-1.44524-2.8201-.41466-.921.97009.35854,1.93789.34848,2.81979-.02057,1.80646,4.78871,2.17877,1.13341,5.16681-2.7535,2.25088-4.0589,2.54365-5.96291-.86718-2.9353-5.2583-4.81035-10.66881-3.23173-16.89.20605-.812,1.41425-2.71717-.44951-3.68581q.05415-.55084.10823-1.10186Z" style="fill:#d6d5d5"/><path d="M486.3703,563.72883c.03273-.17384.06751-.34734.09791-.52159.53373-3.05792,2.01356-6.40827-2.4381-7.92686,3.90858-1.10935,2.944-4.83357,3.99573-7.47574a59.83876,59.83876,0,0,0-3.00878-24.20511,100.15851,100.15851,0,0,1,14.73722,15.68264l1.09194,1.03858.01006.009c-2.04014,3.04638-.96376,6.4719-1.10491,9.7267C499.455,556.89157,492.77287,563.82308,486.3703,563.72883Z" style="fill:#d6d5d5"/><path d="M673.64881,567.09861c1.48449-1.04188,3.258-2.05664,4.75443-.69844,1.16592,1.05826.7858,2.9798.504,4.55209-.82863,4.6231-12.20861,15.30182-16.78777,15.42638-1.72626.047-4.05448.32613-4.8953-2.16233a4.59952,4.59952,0,0,1,1.518-5.21572c1.90906-1.658,4.02624-3.07531,6.05356-4.59656C669.74372,574.39852,669.8811,568.54017,673.64881,567.09861Z" style="fill:#8e837b"/><path d="M459.5458,592.549c-5.17092,1.02931-10.38129.81176-15.59849.52949-2.20981-.1196-4.48991-.39475-4.53021-3.16885-.042-2.89309,3.008-2.02228,4.05325-1.91042,2.4748.265,3.68287-.15305,4.03812-2.69372.12313-.8806.914-1.02869,1.54215-.38078.28232.29119.28853.84961.424,1.28559.26885.86549-3.25325,1.65339-.24252,2.36976,2.21215.52634,5.50167,1.24377,6.10538-2.1609.63863-3.60171,2.1156-6.24937,5.18178-8.084,1.72669-1.03313,2.17149-.07555,2.22933,1.46136-2.91754,1.415-4.38134,3.746-2.72141,6.68527,1.81362,3.21144,4.66617,1.26514,6.88075.3367,3.00149-1.25833,4.64365-4.62048,7.92007-5.61621-.16373,4.48973-4.74633,5.00862-6.90086,7.70989q-1.10475.72133-2.20915,1.442l.09943-.13941C463.57561,590.58534,461.95323,592.626,459.5458,592.549Z" style="fill:#2a292a"/><path d="M474.828,581.20229c-3.27642.99573-4.91858,4.35788-7.92007,5.61621-2.21458.92844-5.06713,2.87474-6.88075-.3367-1.65993-2.93927-.19613-5.27027,2.72141-6.68527,3.38126-1.78318,7.80238-2.11686,9.21878-6.63926a3.11458,3.11458,0,0,1,.26826-.92263l-.05638.10546c1.0112-.798,1.723-1.72321,1.32051-3.12168l-.039.02748c2.07621.09695,4.21308-2.93068,6.04137-.539,1.83121,2.39547-.23015,4.86013-1.18942,7.16494-.856,2.0566-3.67644,3.00854-3.28386,5.79126l.07063-.30525Z" style="fill:#8e837b"/><path d="M417.13192,571.18057c-1.54491-1.97264-.40781-3.64.60331-5.32171.74234-.73792,1.5225-1.442,2.21772-2.22208.92-1.03235,1.72094-2.65026,3.34543-1.18626,1.81127,1.63236-.53474,1.793-1.09762,2.56453-2.40456,3.29608,3.6082,4.999.20734,8.37358,2.94158-.23671,1.26046-2.85679,3.02762-2.546,1.91369.33663,1.02211,2.03466.86784,3.049-.67157,4.41557,2.09969,6.69127,5.16754,8.84443.83843.58844,1.5885,1.47869,2.65383.207.72183-.86167,1.34319-2.04749,2.847-.52831a5.1293,5.1293,0,0,1,.96458,6.33082c-1.276,2.58994-2.61016.05743-3.754-.4691-7.27519-3.34883-12.01487-9.27431-15.89292-16.03348q-.63043-.56742-1.26091-1.13507Z" style="fill:#2a292a"/><path d="M622.34671,562.51815c-2.97321,5.15772-1.5518,10.092,3.77266,15.09339,2.29678,2.15744,5.234,3.70251,6.55427,7.05552.45717,1.16109,2.83608,4.33966,5.07295.60384,1.1264-1.88119,1.68641-.16858,2.61205.50964,1.6785,1.2299.03778,3.58015,2.17941,4.62988-5.78946,1.2921-9.49037-2.54408-13.18607-5.128-4.8055-3.36-8.32112-8.205-10.91537-13.68923-2.15057-4.54635-1.26472-7.73024,2.96673-10.174Q621.875,561.96862,622.34671,562.51815Z" style="fill:#2a292a"/><path d="M448.36006,555.775c-3.17621.50488-4.36212-3.06231-6.46959-4.843-1.2629-1.06705,1.15178-2.28314,2.32987-2.49878a53.51991,53.51991,0,0,1,9.30586-1.01538c2.51752-.01273,3.33853,1.48281,2.0475,3.88715C454.12708,553.99912,451.90406,555.42558,448.36006,555.775Z" style="fill:#2a292a"/><path d="M475.02879,581.66309c-.39258-2.78272,2.4279-3.73466,3.28386-5.79126.95927-2.30481,3.02063-4.76947,1.18942-7.16494-1.82829-2.39167-3.96516.636-6.04137.539a2.77,2.77,0,0,1,2.192-3.56364,16.96019,16.96019,0,0,0,8.0792-3.02936l.06663.06879C483.92286,570.45234,482.02281,577.24159,475.02879,581.66309Z" style="fill:#2a292a"/><path d="M429.26759,558.96731c2.25124.82471,2.344,2.99857,3.1194,4.85166.64686,1.54591-.56085,2.35537-1.08039,1.994a14.45343,14.45343,0,0,1-4.26731-4.31315C426.57852,560.7105,428.19152,559.59822,429.26759,558.96731Z" style="fill:#2a292a"/><path d="M636.3575,562.30446c-.12328,1.895-1.10326,2.956-2.2379,3.11674-1.55407.22021-2.06737-.88705-1.48015-2.3915.16918-.43334.41509-1.23434.26781-1.33362-1.84792-1.24573-1.38518-2.95961-.95595-4.61475.05622-.21676,1.20888-.4403,1.28347-.31629C634.39381,558.69155,635.45878,560.675,636.3575,562.30446Z" style="fill:#2a292a"/><path d="M465.4584,569.25243c-.67281,3.11185-2.81517,4.31534-5.42812,4.699-.33983.04991-1.43121-1.58038-1.24317-1.931C460.19285,569.39924,463.27345,570.47823,465.4584,569.25243Z" style="fill:#2a292a"/><path d="M437.85243,570.78122c2.40775,1.18028,4.72515,2.31625,7.04255,3.45222C442.3194,573.67343,438.68858,575.74086,437.85243,570.78122Z" style="fill:#2a292a"/><path d="M473.04284,562.6182c-1.42128,1.26037-1.68708,3.69958-3.81979,3.88995-.9149.08166-1.73-1.44158-1.052-2.45472.88095-1.31624,1.07121-3.56566,3.50125-3.27378C472.76623,560.91107,473.06257,561.5772,473.04284,562.6182Z" style="fill:#2a292a"/><path d="M459.5458,592.549c2.40743.077,4.02981-1.96361,6.27157-2.33414-.36107,1.097-1.69828,1.86145-1.11373,3.28093l.0356-.03248C463.12775,592.47606,461.07818,593.9872,459.5458,592.549Z" style="fill:#d6d5d5"/><path d="M614.95777,562.88672q.29166.95838.5832,1.91664c-.59071-.47287-1.906.03864-1.82165-1.24912C613.73559,563.30566,614.525,563.10793,614.95777,562.88672Z" style="fill:#d6d5d5"/><path d="M649.82941,588.06509c-.27638.67929-.78855.48881-1.2082.25434-.23349-.13043-.34525-.4796-.51185-.73018a5.5779,5.5779,0,0,1,1.31958-.30778C649.56047,587.28027,649.69672,587.79095,649.82941,588.06509Z" style="fill:#2a292a"/><path d="M473.49971,569.21842c.40252,1.39847-.30931,2.32367-1.32051,3.12168C472.063,571.0632,471.44393,569.57286,473.49971,569.21842Z" style="fill:#2a292a"/><path d="M604.67189,503.1009a1.41211,1.41211,0,0,1-.39811.23393c-.04548.01031-.14188-.2046-.215-.31645l.68006-.31362Z" style="fill:#2a292a"/><path d="M465.71793,590.35422q1.10451-.72087,2.20915-1.442Q466.82271,589.63289,465.71793,590.35422Z" style="fill:#d6d5d5"/><path d="M626.96107,478.7524c-.6446.11908-.95479-.17332-.92289-.80532.00679-.13469.19185-.26035.29482-.39016q.27375.63587.54733,1.272Z" style="fill:#2a292a"/><path d="M474.37068,479.92247c-.47506-.467-.28838-.87326.14856-1.21052.0782-.06037.29815.06361.45265.10247q-.35287.52213-.7048,1.04488Z" style="fill:#2a292a"/><path d="M495.35816,502.286l-1.584-1.69114.88182-.80955c.75192.72741,1.3106,1.503.64171,2.58453Z" style="fill:#2a292a"/><path d="M606.89045,500.16592c-.25.22611-.6042.69434-.73282.63876-.78935-.34127-.24484-.8254-.0447-1.26455A5.149,5.149,0,0,1,606.89045,500.16592Z" style="fill:#2a292a"/><path d="M495.29772,502.36982l.69779-.00081c-.07525.03244-.161.10543-.22362.08913a3.11994,3.11994,0,0,1-.41064-.17658Z" style="fill:#2a292a"/><path d="M493.77419,500.59484q-.52911-.54232-1.05825-1.08463a6.63238,6.63238,0,0,0,.74517-.6559q.59733.46562,1.19477.93111Q494.21517,500.19,493.77419,500.59484Z" style="fill:#2a292a"/><path d="M492.71594,499.51021c-.21915-.457-1.18323-.82036-.23918-1.39642.12987-.07926.64665.478.98433.74053A6.63133,6.63133,0,0,1,492.71594,499.51021Z" style="fill:#2a292a"/><path d="M491.23847,496.42753l.27386,1.185q-.81369-.229-1.62748-.458Z" style="fill:#2a292a"/><polygon points="615.258 451.191 615.153 451.069 615.248 451.215 615.258 451.191" style="fill:#d6d5d5"/><path d="M501.76568,540.47308l.79363.09272c-.48451.87878-.50738-.03692-.72783-.18687Z" style="fill:#2a292a"/><path d="M598.22873,541.38653q-.05409.551-.10823,1.10186a5.22681,5.22681,0,0,0,.31588-.76431C598.45912,541.63516,598.30307,541.50036,598.22873,541.38653Z" style="fill:#2a292a"/><path d="M700.00062,576.46611l-.27933.65216c-.02807-.11176-.11557-.27534-.07245-.325a1.7989,1.7989,0,0,1,.41285-.28007Z" style="fill:#2a292a"/><path d="M472.23558,572.23464a3.11458,3.11458,0,0,0-.26826.92263C470.92456,572.51928,471.86536,572.46022,472.23558,572.23464Z" style="fill:#2a292a"/><path d="M417.02861,571.10793q.63048.56757,1.26091,1.13507Q417.659,571.67539,417.02861,571.10793Z" style="fill:#d6d5d5"/><path d="M704.4796,566.6628a1.64349,1.64349,0,0,1-1.23227,1.59587C703.05845,567.2619,703.63735,566.86027,704.4796,566.6628Z" style="fill:#d6d5d5"/><path d="M637.794,526.192c2.1885.98289,2.5006,1.62868.85893,3.8533-.87918,1.19137-2.16392,4.77416-3.81988,2.17285-2.07759-3.26362-3.07145-1.17946-4.6569-.28581-.76137.42917-1.53627.843-2.33536,1.19469-2.81914,1.24072-5.79076,2.311-8.207-.48748-2.2481-2.60371-1.44467-5.64388-.11675-8.37976,2.35274-4.84721,5.64093-8.89329,10.85514-10.88864,2.55414-.9774,5.269-1.352,7.45763.71684,2.2707,2.14649,1.24973,4.81191.77214,7.41636-.28353,1.54635-2.55876,2.80173-.7823,4.67692q-.2263-.375-.45132-.751c-.42894.29225-.37314.40277.16763.40094C637.6216,525.83086,637.708,526.0658,637.794,526.192Z" style="fill:#8e837b"/><path d="M646.389,515.99046c-2.17156.13044-3.92984-.74077-4.259-2.90232-.377-2.47546,4.53-5.76083,7.86611-5.66343,2.39547.06993,3.66617,1.28377,3.59368,3.54849C653.5112,513.42944,649.47982,516.098,646.389,515.99046Z" style="fill:#8e837b"/><path d="M670.99029,539.67894c-.8383,1.40561-1.3441,3.62388-2.92886,1.95749-2.01694-2.12083-5.09311-2.29065-6.92113-4.49657-.86473-1.04345-2.3618-2.16215-1.571-3.47769.73437-1.22165,2.84641-1.24056,3.83163-.52507C666.1068,535.10225,668.50647,537.49065,670.99029,539.67894Z" style="fill:#675443"/><path d="M687.435,549.77421c-.036,1.20067-.33209,2.18558,1.49221,2.76772,2.65824.84825,2.18887,2.07126-.30342,2.73477-1.786-.55624-2.85656,2.49336-4.60824,1.10335-1.2653-1.00406-3.6696-2.46661-2.85136-3.78215,1.00169-1.61043,1.61226-5.32545,5.25278-3.55022q.53821.46667,1.07648.93327Z" style="fill:#675443"/><path d="M648.27871,539.86241c-1.56264-.259-2.48007-1.02945-2.31157-2.77658.18571-1.92537,1.11478-3.37825,3.06052-3.4239,1.50794-.03538,3.44216.59742,3.106,2.57591A4.33242,4.33242,0,0,1,648.27871,539.86241Z" style="fill:#8e837b"/><path d="M654.81318,545.257c-4.48966.4045-8.754,2.81946-14.01037,1.45341C645.64887,543.90894,650.25032,544.52747,654.81318,545.257Z" style="fill:#675443"/><path d="M666.97987,548.68266c-3.71621.60312-7.03681-.283-10.51089-2.81329C660.81045,545.13488,663.89694,546.902,666.97987,548.68266Z" style="fill:#675443"/><path d="M680.14165,550.7567c-3.07384-.06283-3.07384-.06283-2.877-5.49286A12.13086,12.13086,0,0,1,680.14165,550.7567Z" style="fill:#675443"/><path d="M632.8707,550.66763c-1.58353.64464-3.50025.84844-3.91133,3.025-.42751,2.26386-1.5485-.42334-2.19284.30385q-.68543-.684-1.37661-1.37161c1.74078-1.895,4.14518-2.59783,6.3969-3.57492Z" style="fill:#675443"/><path d="M678.16163,556.99012c-1.37777-.41277-2.73189-.89906-2.63527-2.69035a1.34727,1.34727,0,0,1,.85975-.977c1.70746-.12344,2.20766,1.39682,3.04579,2.44626Q678.79695,556.37935,678.16163,556.99012Z" style="fill:#675443"/><path d="M681.42649,546.63191l-1.00338,1.16506c-.09313-.29213-.34308-.66123-.24584-.85989a4.683,4.683,0,0,1,.871-.988Z" style="fill:#675443"/><path d="M631.78682,549.04993q1.04381-.33437,2.08761-.66875l1.27533,1.24666q-1.13994.51948-2.27948,1.03938Q632.329,549.859,631.78682,549.04993Z" style="fill:#888"/><path d="M633.87443,548.38118c.791-.72953,1.9141-1.20371,2.54133-.29644.63694.92129-.68542,1.12586-1.269,1.54185Q634.51356,549.00514,633.87443,548.38118Z" style="fill:#675443"/><path d="M682.89088,564.29821l-.3546.32282c-.1015-.12355-.28873-.2533-.28042-.36893s.21243-.21686.33069-.32444Z" style="fill:#675443"/><path d="M687.4934,549.981q-.53826-.46664-1.07648-.93327C686.90412,549.21016,687.90736,548.775,687.4934,549.981Z" style="fill:#d6d5d5"/><path d="M667.77088,552.59129l1.1556.04124q-.25207.332-.50379.66432A7.3433,7.3433,0,0,1,667.77088,552.59129Z" style="fill:#675443"/><path d="M680.14615,563.51528c.449.16509,1.00315.4842.54885.92277-.46335.44733-.74494-.116-.87181-.58155Z" style="fill:#675443"/><path d="M434.34691,528.00215c3.10164.99425,1.53577,2.65988.32061,3.79415-1.26375,1.17962-3.06219,4.32469-4.2467,2.58675-2.09709-3.077-3.1676-.68919-4.6026-.08572-2.70485,1.1375-5.3943,3.15313-8.24263.64657-2.71775-2.39162-2.48752-5.60244-1.65132-8.7338,1.32534-4.963,4.08667-8.874,8.81947-11.14728,2.93551-1.41,6.09465-2.37725,8.9325-.193,2.88111,2.21757,1.53045,5.5184,1.19674,8.38352-.15484,1.32939-1.057,2.57139-1.62009,3.85309q-.08167.62326-.164,1.24635Z" style="fill:#8e837b"/><path d="M488.02584,547.80464c-1.05178,2.64217-.08715,6.36639-3.99573,7.47574a2.04824,2.04824,0,0,1-2.01791-1.41162c-1.27493-4.03959-3.78262-6.06307-8.1882-5.20775a2.083,2.083,0,0,1-2.23528-1.2178c.98279-1.94277,2.9208.15947,4.37614-1.19128-.728-1.55619-.63585-4.54956-3.02577-4.15919-2.61745.42753-4.78372-1.32515-7.225-.57272.25075-.65958.43851-1.34048-.47618-1.59186a.91892.91892,0,0,0-.745.50935c-.19665,1.08327.73124.84362,1.30752,1.011.2199,1.70208-.46067,2.44556-2.1936,2.06874l.101.078c-2.22335-2.10757-5.7219-.28372-7.89545-2.55636,3.68161-5.84931,10.12126-4.3201,15.40446-5.28824,1.85752-.34038,3.44628,3.52542,5.08406,5.56311C479.26215,544.99807,481.83757,549.81124,488.02584,547.80464Z" style="fill:#675443"/><path d="M444.64955,510.31068c2.1931.12939,4.20205.71843,3.68452,2.95866a7.03028,7.03028,0,0,1-6.80484,5.5728,3.2323,3.2323,0,0,1-3.31586-3.9116C438.85209,511.141,441.984,510.82551,444.64955,510.31068Z" style="fill:#8e837b"/><path d="M444.591,536.82642c1.30443.06651,2.30255.649,2.03726,2.19391a3.97677,3.97677,0,0,1-3.39254,3.4449c-1.64772.29052-2.075-.804-2.05355-2.20688C441.21552,538.08118,442.6762,537.30435,444.591,536.82642Z" style="fill:#8e837b"/><path d="M485.89353,538.87827c-3.14-.94255-3.64963-3.34321-4.126-5.66387-.063-.30708,1.21993-1.31086,1.43231-1.1917C485.91985,533.54872,485.17537,536.34638,485.89353,538.87827Z" style="fill:#8e837b"/><path d="M439.24178,538.21791a9.14711,9.14711,0,0,0,1.083,5.83346c-2.227,1.09053-3.4085-1.41042-4.54623-.88948,3.45235.70987-1.65931-6.33241,3.53927-4.85195Z" style="fill:#675443"/><path d="M439.31784,538.30994l.4735-.75532c.40781.71212.05266.79034-.54938.66345Z" style="fill:#675443"/><path d="M500.84622,540.32075l-1.09194-1.03858Z" style="fill:#888"/><path d="M463.60683,543.51724l-.30187.66287c-.00993-.10989-.06968-.268-.01965-.31986a1.91987,1.91987,0,0,1,.4227-.26467Z" style="fill:#888"/><path d="M637.794,526.192c-.086-.12618-.17242-.36112-.258-.36081-.54077.00183-.59657-.10869-.16763-.40094q.22533.37576.45132.751Z" style="fill:#2a292a"/><path d="M434.34691,528.00215l-1.258.35063q.08214-.62316.164-1.24635Q433.79957,527.55422,434.34691,528.00215Z" style="fill:#2a292a"/><path d="M465.80043,541.4485c-.57628-.16737-1.50417.07228-1.30752-1.011a.91892.91892,0,0,1,.745-.50935c.91469.25138.72693.93228.47618,1.59186Z" style="fill:#2a292a"/></svg>