<svg id="Layer_1" data-name="Layer 1" xmlns="http://www.w3.org/2000/svg" viewBox="0 0 1133.85827 1133.85827"><path d="M404.16219,549.74966s9.1787,9.98385,11.43312,13.20445S422.35857,573.26,424.452,574.7093s12.23827,9.82282,21.739,9.82282,35.21991-20.30978,35.21991-22.5642,4.39345-18.17637,4.39345-18.17637l5.79708-21.25595L455.62,513.12152l-29.50323-13.87238-13.9031,1.22536-5.153,22.54419Z" style="fill:#635e5b"/><path d="M692.98126,553.36336c-3.53233,5.56577-6.49986,11.60939-10.70818,16.60333-10.54768,12.51694-24.767,19.3849-41.84309,12.668-7.70035-3.02887-13.1235-8.97569-18.36838-15.077-.40115-.51477-.32182-1.5971-1.46023-1.24112l.206.11972c.4574-3.74909-5.12559-6.762-1.3257-10.9185,2.48943.46131,1.733,2.60477,2.31928,4.162a21.41275,21.41275,0,0,0,6.77027,9.43767c.36792.28664,3.23039-2.6689,4.96625-4.08494.20242-.16506.596-.0948,1.22-.17413-.37221,3.45525-.7358,6.8309-1.124,10.43507,2.10744-.35611,2.78862-1.96374,3.88778-3.03261q.41241.53058.82475,1.06127c-1.253,2.73729-1.43491,5.17847,2.20777,5.99548,3.14469.70542,6.86116,4.09081,9.15438-1.0622,1.581-3.5523,4.58872-4.664,7.7927-5.74523-1.77515,1.90415-4.76283,3.6995-2.77821,6.68864,2.0145,3.03381,5.13271,2.034,8.0846.89581a41.18568,41.18568,0,0,0,14.641-9.55006c2.37376-2.39611,1.97252-4.76489-.04514-7.10567-1.96929-2.28453-4.21368-1.56977-6.29132-.30852a54.39869,54.39869,0,0,0-4.71293,3.56617c-.039-3.83562.652-7.45459,3.83226-9.97323,1.25717-.99567,1.75642-2.66236.49868-2.79742-4.32545-.46423-7.839-5.59124-12.86163-2.14239-1.90053,1.30525-4.472.50516-6.7249,1.41937-1.68144.68236-4.7097-.09532-5.03354-2.03307-1.10139-6.58958-3.95678-2.22439-5.71779-.9502-5.54228,4.01027-8.10166,3.31578-9.67173-3.03821,6.428-2.78849,13.45782-2.02694,20.16492-3.21566,5.96176-1.0566,12.00677.94434,17.41183,4.09387,1.04148.6069,2.56817,1.68309,3.31375.18439.94614-1.902-.94528-2.18093-2.29433-2.68356-13.18653-4.91222-26.31469-5.00448-39.3979.37291a12.02244,12.02244,0,0,0-4.94955,3.073q-.5936.55836-1.18725,1.1166l.11716-.1104c-1.08765.43878-2.75289.26652-2.37559,2.25479l.133-.13466c-4.73539,2.12027-4.86519,2.1464-5.93937-3.21806-1.3554-6.76956.37574-13.41461,1.17833-20.08911.09777-.42957.39929-1.13593.25874-1.23939-.52553-.387-.8505.03333-1.02308.55277l-17.44722,8.745c-2.16366.78488-4.32732,1.56976-6.66479,2.41771-.097-3.6475,3.898-3.22726,5.08813-5.51565,6.05783-11.649,16.2804-18.84159,26.73268-26.17886,7.37713-5.17873,15.80457-6.752,23.765-9.73284,15.2478-5.70977,31.45529-8.95183,47.41458-10.68279,18.28315-1.98307,37.06825-3.04434,55.46347.88235,2.99667.63956,5.92849-1.86455,8.76039.32878.60763.47063,1.94514-.19026,2.00621,1.17845.05922,1.32859-1.01879,1.20686-1.87884,1.37405-9.81773,1.91028-18.75106,6.2368-28.893,10.45186,4.3675,1.24926,7.83081.5885,11.228.64356,2.76823.04493,4.41508.16079,3.02617,4.02-2.36884,6.58212-5.57787,12.80958-7.2464,19.77021-.78943,3.29339-4.32466,6.6681-6.58156,10.03335-1.05984,1.58-2.661.5213-4.03082.47411-4.00232-.138-7.50305-2.79742-11.628-2.33519a1.4729,1.4729,0,0,1-.62253-1.86308c2.31425-6.22507,2.70512-12.88291,4.32961-19.2625.39769-1.56177,1.2457-3.419-1.2604-3.83282a111.84834,111.84834,0,0,0-30.84183-1.14526c3.56038,4.2068,6.495,7.87856,8.08726,12.68492C698.67792,531.88646,695.9758,542.58724,692.98126,553.36336Zm-43.87405-4.52878c-.22305-.44171-.49087-.98967-1.03376-.5477-.15635.12719.15332.82941.24936,1.26805.42217.14879,1.0935.53784,1.22224.40371C650.02857,549.45507,649.56857,549.09883,649.10721,548.83458Zm29.77651,10.52533q.52342.568,1.04686,1.13579c.90982,1.16526,1.81963,2.33065,3.22666,4.1328.37128-3.0178-.74225-4.124-2.3727-4.93515q-.58316-.50057-1.16639-1.00113c-.69345-.69569-1.16685-1.74056-2.36777-1.64563a.89091.89091,0,0,0-.58368.64916C676.73869,559.08779,678.09229,558.86354,678.88372,559.35991Zm2.35842-4.46905c-.824-1.58683-1.95781-2.60077-4.51856-2.44318,1.27557,1.559,2.15358,2.6321,3.03163,3.7051,1.2262,1.0386,1.85844,2.765,3.64271,3.15726.67309.5469,1.53664,1.39165,2.25437.67743,1.00991-1.005-.37284-1.33232-.91856-1.85442Q682.98844,556.51116,681.24214,554.89086Zm.02978-6.50612c.10325-4.03054-1.36931-7.40726-2.45224-10.93117-2.17337-7.07248-9.66548-6.49078-14.05181-10.30574-2.03339,2.48944-5.12752-1.03447-7.385,1.43471-1.635,1.78829-2.14609,2.95808.41662,3.88642,3.0731,1.11326,5.3804,2.73676,5.90484,6.27053.31622,2.13066,2.3852,2.554,3.93089,3.41218C671.97569,544.56205,677.90105,543.36693,681.27192,548.38474ZM645.39271,532.29c-1.49422,2.092-3.2379.90087-4.71227,1.09219-3.958.51424-5.60688,2.90742-4.86648,6.28587,1.04031,4.747,2.03522-.96034,3.83748-.34811C645.21321,541.2092,645.83547,537.40251,645.39271,532.29Zm4.52215-15.24663c.3461-1.76629-1.39918-2.43251-2.5526-2.52837a5.593,5.593,0,0,0-6.13942,3.98668,2.04535,2.04535,0,0,0,2.19256,2.85155C646.19883,521.18315,648.62888,520.14695,649.91486,517.04341Zm35.11833,31.68264c.20611,1.73829.02372,3.97295,2.88539,3.98135,3.70844.01066,2.34532-3.30432,3.093-5.14367.934-2.29719-.99394-2.6825-2.58856-2.87662C685.54192,544.3362,685.57385,546.67525,685.03319,548.72605ZM650.7807,538.23166c1.8668-.27,3.57621-1.01354,3.63869-3.542.05266-2.13173-.87319-3.55231-3.12374-3.36872a3.5523,3.5523,0,0,0-3.5691,3.88228C647.69149,537.20119,648.49575,538.24606,650.7807,538.23166ZM631.85845,541.891l-.89052-.96394q-.7371.70156-1.4742,1.40325c.20352.20772.506.62956.59462.58849A18.87876,18.87876,0,0,0,631.85845,541.891Z" style="fill:#2a292a"/><path d="M443.99821,580.67028c2.67465-1.49,1.99626-6.27107,6.16009-6.2972-.358,5.1694,2.08988,7.55258,6.92666,6.2304a30.019,30.019,0,0,0,14.65785-9.48393c2.3232-2.62689,4.81291-5.329,2.81349-8.98182-2.015-3.68123-5.54664-2.50851-8.74372-1.777,2.17345-3.90309,7.24444-3.99135,11.39936-.26612.57295.51357.0991,2.14613,1.385,1.60483.66458-.27972,1.52164-1.66376,1.324-2.1684-.9039-2.30705-2.388-6.45678-3.2323-6.35492-3.48061.41984-5.55164-5.94509-9.57721-1.673-2.25279,2.39091-3.83068,1.353-3.83785-1.80935-.00688-3.03154-2.47871-3.48111-4.07157-2.79689-3.3618,1.44417-7.37887,1.50937-10.033,4.6305-1.39295,1.638-2.8618,3.39619-5.12854.43651-1.42217-1.85722-3.80556-.24532-4.64864.89567-1.67379,2.26533-4.1886,2.59557-6.28984,3.83043-.7347-1.46684-1.67854-1.6563-3.75873-.10053h3.83918c-.07791,1.93628,1.85061,3.53844.931,5.61484l.078-.09613c-3.84017,1.86668-4.20112-4.357-7.68531-3.318l.09892.09293c1.61279-2.43718-3.88822-2.39985-1.74037-5.02328q.63464-.50637,1.26818-1.01354.36244-.68736.72713-1.37338c.871-.06319,1.72549-.16065,2.19543-1.05873q.62911-.18858,1.25821-.377,1.1098-.617,2.21964-1.23379c2.41418-.84528,5.31367-.80461,6.74741-3.746-3.43976-1.62723-5.02349,1.76189-7.47123,2.61437q-1.128.519-2.256,1.03807-.66916.28417-1.33836.56849-1.0004.76316-2.00068,1.52631-.64082.41217-1.28192.82421-.5168.358-1.03348.71622c-3.41732,2.91528-6.957,5.75017-7.08169,10.82744l-.08292.13519c-4.52466.85088-3.55088-4.1024-5.86844-5.58111-.54705-1.33471-1.18286-2.64076-1.62716-4.00921-3.567-10.987-6.51567-21.92206-2.4123-33.593,1.59911-4.54811,4.574-8.05388,7.42059-12.14749-10.21161-1.5855-19.69237.12359-29.21355,1.1362-2.63518.28024-2.59611,1.463-2.39834,3.64283.56029,6.176,2.51466,12.035,3.98506,17.97458.62,2.50438.0434,3.16127-1.846,3.83589-2.84483-.921-5.358.61516-7.86943,1.35151-4.58237,1.34379-6.79556,1.21273-9.01226-4.37838-3.30164-8.32774-7.00594-16.56241-10.54031-24.84068-1.88442-4.41372-.14355-4.59677,3.15808-4.49558,1.77258.05426,3.58327.52437,5.69858-.80941-7.69539-6.67624-17.55682-8.33147-26.34327-12.19989,8.68081.29905,16.77885-2.535,25.24239-2.71343,15.99153-.33691,31.90633-.20119,47.74728,1.96281,16.74715,2.28772,33.27789,5.86722,49.09487,11.81924,14.95614,5.628,28.51,13.74753,38.63491,26.65217A5.14985,5.14985,0,0,1,501.786,530.392c-.24017-.20438-.4804-.40877-.71986-.60956-1.17335.26252-1.7926-1.60229-3.27317-.82088,1.01681.99007,1.61316,3.00594,3.24968.76609-1.13011,1.213-.01908,1.73189.729,2.36318q.38349.27877.76706.5573l3.61783,2.26145-.102-.10586q.59013.62,1.1803,1.23952c.06432.84448,1.82327,2.56531-.96415,1.94175-1.1405-.255-2.2428-.68169-3.3624-1.0302-5.80059-4.01148-12.985-5.596-18.28547-10.46707.00818.00373.09875.29092.09875.29092l.048-.23679c.38744,3.64337,1.04706,7.28274,1.10125,10.931.09087,6.11947,1.97416,12.56359-2.57023,18.04044-.3422-.98567-1.2447-1.48537-1.861-.75422-.83417.98981.558,1.15713,1.07358,1.62377,2.02808,5.92735-2.74909,9.46832-4.92472,13.89844-.76368,1.555-.98032,1.44818-1.068,3.35872l.06-.233c-2.43028-.64743-2.85753,1.101-3.33078,2.79435l.09833-.11732c-1.97221-.32892-2.56688,1.539-3.79844,2.391-7.83434,4.03415-15.68889,7.57619-24.96237,6.75317-5.09412-.452-9.30258-2.90888-13.651-4.84022-3.87321-1.72029-.288-4.46372.5318-6.70837q.328.27119.66195.535c-.06213,1.29192-.13482,3.067,1.29839,3.18393,2.32428.18945,1.66785-2.87275,3.64373-3.94775-.96324,5.7207,1.01974,8.58,7.00748,7.15781l.0523.35838Zm26.18541-38.22156q.59349.39477,1.187.78955l.19931-.74769q-.70881.00261-1.41763.00507c-5.89413-7.88056-5.89413-7.88056-13.69116-2.61783C461.50454,539.35412,465.83413,540.94962,470.18362,542.44872Zm-60.77471-17.49781c-.11662,3.93094,2.27647,5.26086,6.68975,4.0656,1.87795-.5085,3.81961-3.83522,6.06088.17679.67764,1.21312,2.81161-.84128,3.91217-1.98734.981-1.02167,2.51156-3.1098,1.25309-3.6243-4.43635-1.81388-.68982-3.64937-.283-5.31019.55716-2.27466,1.87532-4.566-.03557-6.65131-1.85243-2.02147-4.32861-1.49044-6.60653-.81862A16.12439,16.12439,0,0,0,409.40891,524.95091Zm26.12147-13.218c-2.08148.14679-4.55585-.06306-4.53048,3.03821a3.11851,3.11851,0,0,0,3.584,3.1318c1.85519-.30412,4.7221-.44424,4.9384-3.08661C439.71354,512.481,437.87417,511.50857,435.53038,511.733Zm-11.43307,31.45959c-6.45942-2.32825-4.68469,3.09953-5.779,5.64764-.33008.76875-.6258,2.40691.64224,2.764a2.07947,2.07947,0,0,0,2.54881-2.03214C420.96332,546.85537,422.95487,545.42866,424.09731,543.19254Zm57.31624,3.27659a4.61768,4.61768,0,0,0,1.73443-3.39552c.1703-1.85388.18494-3.83348-2.439-3.87855-1.51075-.026-3.93314-.14946-3.70415,1.80335C477.24253,543.02562,477.52465,545.8861,481.41355,546.46913Zm-38.49937-10.67652c-.29832-1.40111-.68345-3.06393-2.37138-2.98687-2.42075.11092-3.81545,1.95614-4.05641,4.18573-.15329,1.41831.80119,2.49331,2.67594,2.47184C441.71835,539.434,442.41369,537.82035,442.91418,535.79261Zm22.7731,10.49973c3.12233,1.49,6.23967,2.99074,9.37,4.46358.90612.42624,2.0021,1.34125,2.57745-.30171a1.81159,1.81159,0,0,0-1.09549-2.23613C473.18689,546.78658,470.01977,544.63778,465.68728,546.29234Zm-39.20454-4.31372c2.21882,1.06473,4.45725,3.32405,7.55406.85208C431.035,542.492,428.75888,542.2354,426.48274,541.97862Zm12.84,2.34971c2.41168.77755,4.03938.77729,5.67487-.33944C443.26882,542.60431,441.6645,543.11921,439.3227,544.32833Z" style="fill:#2a292a"/><path d="M384.77432,534.56629c1.88939-.67462,2.466-1.33151,1.846-3.83589-1.4704-5.93962-3.42477-11.79858-3.98506-17.97458-.19777-2.17986-.23684-3.36259,2.39834-3.64283,9.52118-1.01261,19.00194-2.7217,29.21355-1.1362-2.84663,4.09361-5.82148,7.59938-7.42059,12.14749-4.10337,11.671-1.15471,22.606,2.4123,33.593.4443,1.36845,1.08011,2.6745,1.62716,4.00921-1.55628.30158-2.93443-1.21565-4.8.37131-3.52544,2.999-7.26908-1.988-11.05779-.35637.25336-2.47918-.92429-3.45578-3.30963-3.1642q.05293-1.07454.10582-2.1488c2.29779-1.438.91294-2.89288.1723-4.52544-.89753-1.97841-2.5627-1.35005-3.65915-.98607-2.20625.73248-4.28492,1.52443-6.6025.602.88456-1.89121,2.4179-2.58117,4.35244-3.22486,1.32934-.44251,4.28767.28838,3.64545-3.26686-.52289-2.89461-1.91721-3.53391-4.38849-3.25446Z" style="fill:#d6d5d5"/><path d="M692.98126,553.36336c2.99454-10.77612,5.69666-21.4769,1.95569-32.76911-1.59229-4.80636-4.52688-8.47812-8.08726-12.68492a111.84834,111.84834,0,0,1,30.84183,1.14526c2.5061.41384,1.65809,2.27105,1.2604,3.83282-1.62449,6.37959-2.01536,13.03743-4.32961,19.2625a1.4729,1.4729,0,0,0,.62253,1.86308q.13019,1.54071.26074,3.08127c-3.66221.84675-3.87621,3.42752-3.22676,6.44252-2.63487,3.1362,1.93635,2.11014,2.0915,3.635-4.91222-1.5827-5.70052,1.13766-5.2992,5.09914A41.19784,41.19784,0,0,0,692.98126,553.36336Z" style="fill:#d6d5d5"/><path d="M598.6835,536.88388l17.44722-8.745a8.22707,8.22707,0,0,0,.76514.68688c-.80339,6.67424-2.53453,13.31929-1.17913,20.08885,1.07418,5.36446,1.204,5.33833,5.93923,3.21766q-1.08728,1.6923-2.1743,3.38552c-3.79989,4.15654,1.7831,7.16941,1.3257,10.9185-.514-.42077-4.16262-1.0646-5.67976-1.00233q-.2001-.089-.40012-.17746l.48042.0904c-.58777.72088-.00319,2.37118-1.75812,2.17146-6.13-.698-14.73764-10.61506-14.76153-17.04651C598.67142,545.9425,598.684,541.41319,598.6835,536.88388Zm12.97467,27.00454q.18153.06958.363.13932c.03773-.10639.13479-.27571.10176-.30691a1.047,1.047,0,0,0-.35118-.14959Z" style="fill:#d6d5d5"/><path d="M476.52058,573.64006c.08764-1.91054.30428-1.80375,1.068-3.35872,2.17563-4.43012,6.9528-7.97109,4.92472-13.89844l.78739-.86955c4.54439-5.47685,2.6611-11.921,2.57023-18.04044-.05419-3.6483-.71381-7.28767-1.10125-10.931l-.155-.05773c5.30865,4.87462,12.49306,6.45919,18.29361,10.47067-.52654,3.55843-.8325,7.1686-1.64967,10.65865-.64543,2.75675.364,7.13394-5.23663,6.33039-.63062-.09066-2.14646,3.76176-2.68442,5.92736-.50374,2.02787-1.31261,3.14086-3.38324,3.56-5.622,1.13792-6.91253,5.19313-6.60735,10.3124C481.06545,574.22389,478.79839,572.21628,476.52058,573.64006Z" style="fill:#d6d5d5"/><path d="M495.78844,506.68327a191.37248,191.37248,0,0,0-90.76907-29.35079C438.69186,476.724,470.0488,483.26664,495.78844,506.68327Z" style="fill:#2a292a"/><path d="M465.81258,560.36078c3.19708-.73156,6.72876-1.90428,8.74372,1.777,1.99942,3.65283-.49029,6.35493-2.81349,8.98182a30.019,30.019,0,0,1-14.65785,9.48393c-4.83678,1.32218-7.28465-1.061-6.92666-6.2304l-.43119-.03053c1.19163.23865.89077-.65916.96464-1.27165l-.096.09826c1.56689-.68969,2.42458-2.07147,3.32072-3.41565l-.15314.07679q.88569-.609,1.77006-1.21912l.38224.15346.27233-.30945c3.38331-2.60437,7.15853-4.7501,9.7102-8.32813Z" style="fill:#918683"/><path d="M691.68577,477.75152c-30.57708,3.09434-59.09545,12.34108-85.18779,28.838C623.51065,486.83454,668.83109,474.52933,691.68577,477.75152Z" style="fill:#2a292a"/><path d="M385.32446,537.77275c2.47128-.27945,3.8656.35985,4.38849,3.25446.64222,3.55524-2.31611,2.82435-3.64545,3.26686-1.93454.64369-3.46788,1.33365-4.35244,3.22486,2.31758.92247,4.39625.13052,6.6025-.602,1.09645-.364,2.76162-.99234,3.65915.98607.74064,1.63256,2.12549,3.0874-.1723,4.52544a40.61968,40.61968,0,0,0-6.29279,1.42178c-3.62084,1.42137-6.10606-.20106-6.493-3.33952-.32884-2.6677-2.37709-3.41632-3.52551-4.95582-2.97037-3.98188-1.04573-5.45072,2.55528-6.02255A45.47113,45.47113,0,0,0,385.32446,537.77275Z" style="fill:#2a292a"/><path d="M426.50613,558.79021c-.598,2.5677-.17994,5.94775-4.49639,5.54044-.24428-.02293-.81323.74969-.80674,1.14486.04586,2.792,2.36559,4.246,3.7635,6.26054,1.80318,2.59863,2.871-.39531,4.32605-.53583.73028,1.4951-.64208,2.34545-.98436,3.45671-.82087,2.66516-2.07949,2.789-3.96568.636-3.16821-3.6167-7.6523-6.33706-7.60854-11.9851l.08355-.13546c1.22788,1.14153,2.05032.17065,2.30728-.76529,1.14974-4.18839,4.08537-4.28066,7.48025-3.5239Z" style="fill:#2a292a"/><path d="M712.27882,543.53678c-.64945-3.015-.43545-5.59577,3.22676-6.44252,2.60559,1.87242,5.95144,1.37125,8.70476,2.7153,1.38645.67675,4.31066.15772,3.23,3.10246-.803,2.18786-1.87907,4.24747-5.20866,3.00728C719.058,544.73711,715.6076,544.30087,712.27882,543.53678Z" style="fill:#2a292a"/><path d="M465.89812,560.12706c-2.55167,3.578-6.32689,5.72376-9.7102,8.32813-.69795-3.41818-3.02156-2.84808-4.81819-1.4899-2.16053,1.63323-3.86587,1.38644-6.41149-.54264,3.71956-2.0712,6.50327-5.74376,10.98213-1.43417,1.50206,1.44537,2.85291.35144,2.64287-1.43031-.566-4.80076,3.43987-6.84943,5.3273-10.4876C465.68833,555.49282,461.62033,558.90687,465.89812,560.12706Z" style="fill:#2a292a"/><path d="M709.07112,552.27089c-.40132-3.96148.387-6.68184,5.2992-5.09914,1.62582.64383,3.30969,1.17446,4.8591,1.96828,1.18835.60889,3.98113-.81769,3.39515,1.91721-.43291,2.02053-1.983,3.87975-4.74932,3.227C714.94529,553.59281,712.00624,552.94032,709.07112,552.27089Z" style="fill:#2a292a"/><path d="M706.82147,555.65854c3.684-1.61069,6.90214.871,10.36611,1.20526,1.12195.10839,1.4574,1.0034,1.20462,1.99587-.295,1.15833-1.19474,2.18106-2.31708,1.76949-3.25008-1.19233-7.4323-.30785-9.54346-4.1276A5.44854,5.44854,0,0,1,706.82147,555.65854Z" style="fill:#2a292a"/><path d="M434.11347,562.20439c3.2135-2.32772,5.78745,1.34631,8.81907,1.0094.25479-.02826.89973,1.0858.90326,1.672.00711,1.18472-.70761,1.71789-1.99021,1.988-4.16829.87834-7.46653.64595-7.653-4.76663Z" style="fill:#2a292a"/><path d="M391.69859,554.57728c2.38534-.29158,3.563.685,3.30963,3.1642-3.74272.75195-7.44745,4.99874-11.55388.19092C385.75734,555.2,389.46849,556.68488,391.69859,554.57728Z" style="fill:#2a292a"/><path d="M473.24976,576.20136c.47325-1.69336.9005-3.44178,3.33078-2.79435C479.03582,578.60441,474.176,575.0493,473.24976,576.20136Z" style="fill:#d6d5d5"/><path d="M469.54965,578.47508c1.23156-.85208,1.82623-2.72,3.79844-2.391q.04933,1.19933.09842,2.399l.07533-.05413Q471.53574,578.45216,469.54965,578.47508Z" style="fill:#d6d5d5"/><path d="M506.15656,534.9096l-3.6178-2.26145C504.25621,532.58042,505.8496,532.712,506.15656,534.9096Z" style="fill:#d6d5d5"/><path d="M453.91643,569.75351c-.89614,1.34418-1.75383,2.726-3.32072,3.41565C450.6176,570.97156,451.951,570.05416,453.91643,569.75351Z" style="fill:#2a292a"/><path d="M706.82147,555.65854a5.44854,5.44854,0,0,0-.28981.843c-.62366-.37131-1.05435-.79342-.39526-1.50338Z" style="fill:#d6d5d5"/><path d="M431.468,573.67966c.36566-.40478.46942-1.49737,1.202-.97034.58711.42277.17057,1.17592-.54013,1.50524Q431.79611,573.95077,431.468,573.67966Z" style="fill:#2a292a"/><path d="M473.44651,578.48308q.30006.36338.60013.72689-.27075.08139-.54147.16319.00748-.47137.01582-.94341Z" style="fill:#d6d5d5"/><path d="M450.69175,573.0709c-.07387.61249.227,1.5103-.96464,1.27165C449.33654,573.37661,449.71667,572.9973,450.69175,573.0709Z" style="fill:#2a292a"/><path d="M455.53338,568.61118q-.88475.61-1.77006,1.21912Q454.64772,569.22034,455.53338,568.61118Z" style="fill:#2a292a"/><path d="M620.60138,566.31653c1.13841-.356,1.05908.72635,1.46023,1.24112Q621.33144,566.93689,620.60138,566.31653Z" style="fill:#d6d5d5"/><path d="M507.23486,536.04326q-.59015-.61956-1.1803-1.23952Q506.64474,535.4233,507.23486,536.04326Z" style="fill:#d6d5d5"/><path d="M501.06536,529.77886q.36034.30658.72063.61316-.00718.84956-.01428,1.69883c-.74815-.63129-1.85918-1.15019-.72907-2.36318Z" style="fill:#d6d5d5"/><path d="M619.48166,555.51775q1.08708-1.69289,2.1743-3.38552l-.13286.1348a3.12076,3.12076,0,0,0,2.37563-2.25453l-.11726.11013q.59359-.55836,1.18735-1.11633a12.02235,12.02235,0,0,1,4.94958-3.073q.40089.624.8017,1.248c1.57007,6.354,4.12945,7.04848,9.67173,3.03821,1.761-1.27419,4.6164-5.63938,5.71779.9502.32384,1.93775,3.3521,2.71543,5.03354,2.03307,2.25291-.91421,4.82437-.11412,6.7249-1.41937,5.0226-3.44885,8.53618,1.67816,12.86163,2.14239,1.25774.13506.75849,1.80175-.49868,2.79742-3.18029,2.51864-3.87131,6.13761-3.83219,9.97337l.08895-.13226c-1.85572-.40891-2.562.36571-2.24766,2.19146l.05349-.05186a1.74927,1.74927,0,0,0-2.27143,1.12246c-.75673,2.16373-3.03911,1.74709-4.52139,2.68369-3.204,1.08127-6.21172,2.19293-7.7927,5.74523-2.29322,5.153-6.00969,1.76762-9.15438,1.0622-3.64268-.817-3.46075-3.25819-2.20794-5.99575q.16686-.58615.33419-1.17219l-1.15877.11119c-1.09916,1.06887-1.78034,2.6765-3.88778,3.03261.38821-3.60417.7518-6.97982,1.124-10.43507-.62393.07933-1.01753.00907-1.22.17413-1.73586,1.416-4.59833,4.37158-4.96625,4.08494a21.41275,21.41275,0,0,1-6.77027-9.43767C621.2147,558.12252,621.97109,555.97906,619.48166,555.51775Zm23.94612.0248s-.07235-.0708-.06763-.06773l.38944-.09466Zm6.22076,10.04349c-1.31828-1.06926-2.58211-2.15173-2.82691.20865-.192,1.85162,1.37157,1.07114,2.26446,1.48084,2.00771.921,3.85694-1.28258,5.56173.29465,1.03213.95474,2.15065.91488,2.28794-.59956.08982-.9906.02073-3.01754-1.90781-2.22732C653.11721,565.52631,651.05454,563.23219,649.64854,565.586Zm-4.97709-2.0848a1.47374,1.47374,0,0,0-1.10908,1.69909c.04947.416.148,1.21926.87176.64943a3.82773,3.82773,0,0,0,1.059-1.57537C645.54866,564.13587,644.91092,563.71843,644.67145,563.50124Z" style="fill:#635e5b"/><path d="M681.27192,548.38474c-3.37087-5.01781-9.29623-3.82269-13.63672-6.23307-1.54569-.85821-3.61467-1.28152-3.93089-3.41218-.52444-3.53377-2.83174-5.15727-5.90484-6.27053-2.56271-.92834-2.05159-2.09813-.41662-3.88642,2.2575-2.46918,5.35163,1.05473,7.385-1.43471,4.38633,3.815,11.87844,3.23326,14.05181,10.30574C679.90261,540.97748,681.37517,544.3542,681.27192,548.38474Z" style="fill:#635e5b"/><path d="M657.50078,572.51013c1.48228-.9366,3.76466-.52,4.52135-2.68369.83434-.21732,1.82705-.11293,2.27147-1.12246l-.05352.052q1.12381-1.09572,2.24769-2.19159l-.08895.13226a54.36037,54.36037,0,0,1,4.71286-3.56631c2.07764-1.26125,4.322-1.976,6.29132.30852,2.01766,2.34078,2.4189,4.70956.04514,7.10567a41.18568,41.18568,0,0,1-14.641,9.55006c-2.95189,1.13819-6.0701,2.138-8.0846-.89581C652.738,576.20963,655.72563,574.41428,657.50078,572.51013Z" style="fill:#918683"/><path d="M629.9184,545.9333c13.08318-5.37739,26.21134-5.28513,39.39787-.37291,1.349.50263,3.24047.78155,2.29433,2.68356-.74558,1.4987-2.27227.42251-3.31375-.18439-5.40506-3.14953-11.45007-5.15047-17.41183-4.09387-6.7071,1.18872-13.73688.42717-20.16492,3.21566Q630.31927,546.5574,629.9184,545.9333Z" style="fill:#635e5b"/><path d="M645.39271,532.29c.44276,5.11247-.1795,8.91916-5.74127,7.02995-1.80226-.61223-2.79717,5.09514-3.83748.34811-.7404-3.37845.90845-5.77163,4.86648-6.28587C642.15481,533.19091,643.89849,534.382,645.39271,532.29Z" style="fill:#635e5b"/><path d="M649.91486,517.04341c-1.286,3.10354-3.716,4.13974-6.49946,4.30986a2.04535,2.04535,0,0,1-2.19256-2.85155,5.593,5.593,0,0,1,6.13942-3.98668C648.51568,514.6109,650.261,515.27712,649.91486,517.04341Z" style="fill:#918683"/><path d="M685.03319,548.72605c.54066-2.0508.50873-4.38985,3.38979-4.03894,1.59462.19412,3.52253.57943,2.58856,2.87662-.74764,1.83935.61548,5.15433-3.093,5.14367C685.05691,552.699,685.2393,550.46434,685.03319,548.72605Z" style="fill:#918683"/><path d="M650.7807,538.23166c-2.28495.0144-3.08921-1.03047-3.05415-3.02848a3.5523,3.5523,0,0,1,3.5691-3.88228c2.25055-.18359,3.1764,1.237,3.12374,3.36872C654.35691,537.21812,652.6475,537.96167,650.7807,538.23166Z" style="fill:#918683"/><path d="M680.78451,559.69335c1.63048.81115,2.744,1.91735,2.37273,4.93515-1.407-1.80215-2.31684-2.96754-3.22609-4.13307Z" style="fill:#635e5b"/><path d="M631.85845,541.891a18.87876,18.87876,0,0,1-1.7701,1.0278c-.08865.04107-.3911-.38077-.59462-.58849q.7371-.70176,1.4742-1.40325Z" style="fill:#635e5b"/><path d="M683.39775,559.31018c-1.7841-.39238-2.41634-2.1188-3.64254-3.1574q.744-.63177,1.488-1.26365,1.7452,1.62208,3.49049,3.24392Q684.06569,558.72162,683.39775,559.31018Z" style="fill:#635e5b"/><path d="M679.75521,556.15278c-.87805-1.073-1.75606-2.14613-3.03163-3.7051,2.56075-.15759,3.69451.85635,4.51913,2.44225Q680.49952,555.52068,679.75521,556.15278Z" style="fill:#635e5b"/><path d="M678.87982,559.366c-.78753-.5025-2.14113-.27825-2.21312-1.67029a.89091.89091,0,0,1,.58368-.64916c1.20092-.09493,1.67432.94994,2.36777,1.64563Q679.24122,559.02059,678.87982,559.366Z" style="fill:#635e5b"/><path d="M623.89873,550.0125a3.12076,3.12076,0,0,1-2.37563,2.25453C621.14584,550.279,622.81108,550.45128,623.89873,550.0125Z" style="fill:#d6d5d5"/><path d="M684.73373,558.13305c.54572.5221,1.92847.84941.91856,1.85442-.71773.71422-1.58128-.13053-2.25447-.67729Q684.06566,558.72161,684.73373,558.13305Z" style="fill:#635e5b"/><path d="M679.61815,558.69222q.58322.50056,1.16636,1.00113l-.85339.80208q-.52423-.56755-1.04933-1.13246C679.12077,559.13579,679.36686,558.91113,679.61815,558.69222Z" style="fill:#635e5b"/><path d="M649.10724,548.83458c.46133.26425.92133.62049.43781,1.12406-.12874.13413-.80007-.25492-1.22224-.40371Q648.731,549.21215,649.10724,548.83458Z" style="fill:#888"/><path d="M624.96885,549.0063q-.59374.558-1.18735,1.11633Q624.37529,549.56487,624.96885,549.0063Z" style="fill:#d6d5d5"/><path d="M648.32281,549.55493c-.096-.43864-.40571-1.14086-.24936-1.26805.54289-.442.81071.106,1.03379.5477Q648.731,549.21216,648.32281,549.55493Z" style="fill:#635e5b"/><path d="M616.13072,528.13884c.17258-.51944.49755-.93981,1.02308-.55277.14055.10346-.161.80982-.25874,1.23939A8.28055,8.28055,0,0,1,616.13072,528.13884Z" style="fill:#d6d5d5"/><path d="M409.40891,524.95091a16.12439,16.12439,0,0,1,10.99078-14.14937c2.27792-.67182,4.7541-1.20285,6.60653.81862,1.91089,2.08533.59273,4.37665.03557,6.65131-.40681,1.66082-4.15334,3.49631.283,5.31019,1.25847.5145-.2721,2.60263-1.25309,3.6243-1.10056,1.14606-3.23453,3.20046-3.91217,1.98734-2.24127-4.012-4.18293-.68529-6.06088-.17679C411.68538,530.21177,409.29229,528.88185,409.40891,524.95091Z" style="fill:#918683"/><path d="M470.18374,542.44845c-4.34961-1.49883-8.6792-3.09433-13.72258-2.57063,7.797-5.26273,7.797-5.26273,13.69116,2.61783Z" style="fill:#635e5b"/><path d="M435.53038,511.733c2.34379-.22438,4.18316.74809,3.992,3.0834-.2163,2.64237-3.08321,2.78249-4.9384,3.08661a3.11851,3.11851,0,0,1-3.584-3.1318C430.97453,511.66989,433.4489,511.87974,435.53038,511.733Z" style="fill:#918683"/><path d="M424.09731,543.19254c-1.14244,2.23612-3.134,3.66283-2.58795,6.37946a2.07947,2.07947,0,0,1-2.54881,2.03214c-1.268-.35705-.97232-1.99521-.64224-2.764C419.41262,546.29207,417.63789,540.86429,424.09731,543.19254Z" style="fill:#635e5b"/><path d="M426.60505,558.88314c-3.39488-.75676-6.33051-.66449-7.48025,3.5239-.257.93594-1.0794,1.90682-2.30728.76529.12452-5.07714,3.66422-7.912,7.08174-10.82624q.48286.758.96542,1.5139C422.71683,556.48329,428.21784,556.446,426.60505,558.88314Z" style="fill:#635e5b"/><path d="M481.41355,546.46913c-3.8889-.583-4.171-3.44351-4.40872-5.47072-.229-1.95281,2.1934-1.82935,3.70415-1.80335,2.62394.04507,2.6093,2.02467,2.439,3.87855A4.61768,4.61768,0,0,1,481.41355,546.46913Z" style="fill:#918683"/><path d="M442.91418,535.79261c-.50049,2.02774-1.19583,3.64137-3.75185,3.6707-1.87475.02147-2.82923-1.05353-2.67594-2.47184.241-2.22959,1.63566-4.07481,4.05641-4.18573C442.23073,532.72868,442.61586,534.3915,442.91418,535.79261Z" style="fill:#918683"/><path d="M465.68728,546.29234c4.33249-1.65456,7.49961.49424,10.852,1.92574a1.81159,1.81159,0,0,1,1.09549,2.23613c-.57535,1.643-1.67133.72795-2.57745.30171C471.927,549.28308,468.80961,547.78238,465.68728,546.29234Z" style="fill:#635e5b"/><path d="M426.48274,541.97862c2.27614.25678,4.55228.51343,7.55406.85208C430.94,545.30267,428.70156,543.04335,426.48274,541.97862Z" style="fill:#635e5b"/><path d="M431.80943,547.67172c2.44776-.85248,4.03149-4.2416,7.47125-2.61437-1.43374,2.94142-4.33323,2.90075-6.74771,3.74416Q432.17087,548.23456,431.80943,547.67172Z" style="fill:#635e5b"/><path d="M439.3227,544.32833c2.3418-1.20912,3.94612-1.724,5.67487-.33944C443.36208,545.10562,441.73438,545.10588,439.3227,544.32833Z" style="fill:#635e5b"/><path d="M501.04264,529.72767c-1.63652,2.23985-2.23287.224-3.24968-.76609,1.48057-.78141,2.09982,1.0834,3.27315.82088Z" style="fill:#d6d5d5"/><path d="M433.18243,556.58955h-3.83918c2.08019-1.55577,3.024-1.36631,3.75873.10053Z" style="fill:#635e5b"/><path d="M470.15232,542.49565q.70881-.0024,1.41763-.00507-.09968.37378-.19933.74782-.59354-.395-1.18695-.78981Z" style="fill:#635e5b"/><path d="M429.55349,548.70979q1.128-.519,2.25595-1.03807.36159.564.72351,1.12966-1.10937.61976-2.21932,1.23579Q429.93359,549.37341,429.55349,548.70979Z" style="fill:#635e5b"/><path d="M426.21434,550.80432q1.00041-.76294,2.00109-1.525.42028.56856.84,1.13486c-.47.89808-1.32443.99554-2.19543,1.05873Q426.53489,551.141,426.21434,550.80432Z" style="fill:#635e5b"/><path d="M482.51326,556.3829c-.51562-.46664-1.90775-.634-1.07358-1.62377.61627-.73115,1.51877-.23145,1.861.75422Z" style="fill:#d6d5d5"/><polygon points="443.998 580.67 444.132 580.967 444.08 580.609 443.998 580.67" style="fill:#888"/><path d="M426.134,552.84686q-.63462.50657-1.26928,1.013-.48263-.75636-.96544-1.51377.51645-.35978,1.03381-.71636Q425.534,552.2393,426.134,552.84686Z" style="fill:#635e5b"/><path d="M426.86,551.47294q-.36414.68636-.72715,1.37338-.59854-.60716-1.19975-1.21645.64024-.41358,1.28136-.82528Q426.53484,551.14077,426.86,551.47294Z" style="fill:#635e5b"/><path d="M430.31364,550.03717q-.6291.18839-1.25821.377-.41984-.56676-.84-1.13486.66876-.28578,1.33808-.56956Q429.93359,549.37354,430.31364,550.03717Z" style="fill:#635e5b"/><path d="M484.76963,526.54187l-.048.23679s-.09057-.28719-.09875-.29092S484.76963,526.54187,484.76963,526.54187Z" style="fill:#d6d5d5"/><path d="M611.65817,563.88842l.1136-.31718a1.047,1.047,0,0,1,.35118.14959c.033.0312-.064.20052-.10172.30691Q611.8397,563.95795,611.65817,563.88842Z" style="fill:#888"/><path d="M615.2079,565.34686l-.48042-.0904q.2.08861.40012.17746Z" style="fill:#888"/><path d="M649.64854,565.586c1.406-2.35385,3.46867-.05973,5.37941-.84274,1.92854-.79022,1.99763,1.23672,1.90781,2.22732-.13729,1.51444-1.25581,1.5543-2.28794.59956-1.70479-1.57723-3.554.62636-5.56173-.29465-.89289-.4097-2.45647.37078-2.26446-1.48084C647.06643,563.43431,648.33026,564.51678,649.64854,565.586Z" style="fill:#2a292a"/><path d="M644.67145,563.50124c.23947.21719.87721.63463.82169.77315a3.82773,3.82773,0,0,1-1.059,1.57537c-.72376.56983-.82229-.23345-.87176-.64943A1.47374,1.47374,0,0,1,644.67145,563.50124Z" style="fill:#2a292a"/><path d="M666.48777,566.56438q-1.12386,1.09573-2.24769,2.19159C663.92572,566.93009,664.63205,566.15547,666.48777,566.56438Z" style="fill:#2a292a"/><path d="M664.2936,568.704c-.44442,1.00953-1.43713.90514-2.27147,1.12246A1.74933,1.74933,0,0,1,664.2936,568.704Z" style="fill:#2a292a"/><path d="M637.52118,572.26081l1.15877-.11119q-.16726.586-.33419,1.17219Q637.93365,572.79165,637.52118,572.26081Z" style="fill:#2a292a"/><path d="M643.35543,555.47175l.07235.0708Z" style="fill:#2a292a"/><polygon points="643.428 555.543 643.75 555.38 643.358 555.473 643.428 555.543" style="fill:#2a292a"/></svg>