<svg id="Layer_1" data-name="Layer 1" xmlns="http://www.w3.org/2000/svg" viewBox="0 0 1133.85827 1133.85827"><path d="M400.555,573.14314c-2.95752-.66186-5.94659-1.9915-8.86627-1.85305-7.06012.33487-10.10884-5.359-10.65713-9.6995-.98067-7.76323-7.66613-10.702-10.529-16.377-6.23089-12.35141-19.23653-14.24745-29.94319-20.781,1.98513-1.17238,3.757-.73483,5.29809-.54918,10.68085,1.288,20.01793-2.54712,28.90005-7.7155,10.86447-6.322,21.00825-13.8563,32.55707-19.0402,7.59562-3.40948,15.04895-3.83626,23.33711-2.21159a205.31566,205.31566,0,0,1,61.6223,22.56643c9.69761,5.44752,17.59594,12.90506,25.71888,20.332-1.82439,1.61257-3.366,1.20171-5.63124.5455a48.22347,48.22347,0,0,0,9.27425,8.39945c.70632.49778,2.60631.493.90268,2.36305-1.07707,1.18225-1.97169,1.76614-3.00533.72589-3.40262-3.42486-8.00177-4.21373-12.19416-5.90677-5.18585-4.39674-10.37169-8.79335-15.67928-13.29318a4.65167,4.65167,0,0,0-.05011,3.639c2.56762,9.29034,2.34463,18.67824,1.04094,28.13057-.37978,2.7534-1.47124,3.29167-3.75677,1.95915-4.84809-6.03246-11.87343-8.09824-18.81556-10.1961-11.42064-3.45155-22.74257-3.37989-33.72725,1.73958-1.86467.8692-4.646,1.10074-4.40125,4.27724l-.07729.07967-1.29332.1558.2967.837-.08528.10242c-3.78825.30174-4.6449,3.73778-6.53412,6.09018-1.008,1.25508-1.07485,4.2884-3.98233,2.32216-8.5579-20.49514-8.81085-39.84865,8.2768-56.79967a19.1204,19.1204,0,0,0-10.44952,1.069c-8.21862,3.37135-16.14133,7.38536-23.12426,12.938-10.717,8.52212-10.65908,8.61271-5.12353,21.46308Q395.17643,560.81151,400.555,573.14314Zm31.26826-39.927a5.58167,5.58167,0,0,0,.84753.65936c-.73376,1.59653-.69238,2.87108,1.48527,2.86293,3.14422-.012,4.9814-2.21422,5.71055-4.73754.83318-2.8833-2.69809-1.0559-3.57514-2.591a23.04515,23.04515,0,0,0,2.21268-2.88343c1.44518-2.615,3.45871-5.36929.75781-8.24484-2.4221-2.57854-5.54935-2.05158-8.38755-.86578a15.31694,15.31694,0,0,0-6.89093,6.46358c-1.85061,2.99085-3.20368,6.48171-.81846,9.42339C425.6118,536.32058,428.92445,534.56351,431.82326,533.21613ZM487.073,546.02442a13.25077,13.25077,0,0,0-2.34137,1.37986c-1.22361,1.11585.32247,1.49372.77472,1.78573,1.91109,1.23352,1.20206,2.2956.42971,3.95879-.81605,1.7572.37614,3.50059,2.13094,4.29367,1.03407.4674,1.46993-.58324,1.70757-1.49556.74607-2.86411-3.01913-5.50839-.40642-8.45967C488.63219,547.01813,487.89622,546.54915,487.073,546.02442Zm-35.5722-2.32334c.06395-1.0041-.3077-2.057-1.71835-1.792-1.79572.33711-3.437,1.21-3.78162,3.24237-.2723,1.606.885,2.26878,2.2566,2.2885C450.54373,547.47265,451.18392,545.82142,451.5008,543.70108Z" style="fill:#2a292a"/><path d="M684.07146,494.53606c17.44917-4.1071,30.56265,5.91636,44.28954,13.76742,4.79323,2.74131,8.92239,7.05023,13.98923,8.82123,9.05869,3.16611,17.53477,9.57854,28.10647,6.66855,1.24825-.34355,2.67211-.04681,4.89226-.04681-10.19068,6.48579-20.69536,10.25973-30.65618,15.26167,1.05126,1.23089,2.07871.951,3.11284.62162l-.067-.06035c-4.54555,8.19843-9.56555,15.97336-18.22681,20.4975-.445.2715-1.45725-.07349-1.138.93744.0416.13187,1.17057-.08112,1.7959-.1345,1.51311-.29517,3.006-.91088,4.84207-.25152-2.02336,4.24818-3.5126,8.751-8.58962,10.37411-3.85045.04957-7.3489,2.47468-11.712,1.82176,2.57526-5.67721,5.06028-11.08764,7.48694-16.52411,2.44281-5.47289,4.70213-11.03216,7.291-16.43366,1.29448-2.701,1.0178-4.60132-1.30044-6.52116-7.15825-5.92872-14.397-11.72623-22.7718-15.88987-9.56342-4.75462-12.31091-5.323-18.3475-3.92382,14.26207,13.14278,18.01837,35.18054,9.35426,53.46487-1.74613,3.68506-2.32766.49738-3.41966-.16974-3.34769-5.41043-7.59868-9.89606-13.64416-12.17575-14.20253-5.35574-28.23719-4.58725-42.03744,1.58312q-.83971.51394-1.68193,1.02671A16.83241,16.83241,0,0,0,626.4,566.06635c-2.10806,1.82964-2.7638.38865-3.02686-1.44888-.478-3.33848-.97344-6.686-1.19691-10.0474a85.74936,85.74936,0,0,1,2.00181-23.52911c-7.017,5.24215-12.88129,11.72137-20.89442,15.19277-3.646.45663-7.00928,2.48559-11.47,1.94245,3.49216-2.17661,7.24049-2.99953,9.72233-5.67128,1.2289-1.32293,3.61836-2.86464,2.21609-4.912-1.23277-1.79993-3.15171.144-4.75288.54813q-.30218-.34572-.62939-.66791c12.5348-13.19523,27.66541-22.49346,44.24631-29.62533a15.64385,15.64385,0,0,0,2.195-1.40353c1.68341-.26611,3.53641-.19248,4.35827-2.18437l-.15182.081c1.23834-.05666,2.56621.14463,3.36517-1.17475l-.18213.00066c.46865-.197,1.04142-.3074.87834-1.04038,7.06849-2.63035,14.98013-1.88474,21.8105-5.46855A22.69042,22.69042,0,0,0,684.07146,494.53606Zm-4.20333,56.38959,1.21272.312q-.17321-.583-.34648-1.16607c-.67719-2.06473-1.35434-4.12959-2.05689-6.27162C674.86144,547.09886,677.36349,549.01343,679.86813,550.92565Zm-27.33572-6.487c-.18089,1.38827-.68487,2.87831,1.675,2.88962a3.89274,3.89274,0,0,0,3.78969-2.30349c.47761-.939,1.01367-2.071-.24167-2.75525a2.89752,2.89752,0,0,0-3.81922.6211c-.46694.52039-.94845,1.02789-1.42326,1.54131-2.2529-.12556.79305-3.46759-1.9552-3.25236-1.204.09427-2.40245.13148-3.18609,1.42943-1.73156,2.86752-3.5945,5.65551-5.81482,9.11653,1.74993-.5246,2.76625-.75784,3.72815-1.13176,2.43122-.9448,7.20588.35669,5.00268-5.13184C651.20188,545.48457,650.52417,541.99673,652.53241,544.43867ZM642.03064,534.1629q-.35055-.52007-.7011-1.04025a24.11326,24.11326,0,0,0,1.35336-4.57161c.24223-2.48072-.73516-4.0624-3.65425-3.94538-5.74174.23008-11.917,6.81264-11.66367,12.60187.15772,3.60472,2.38221,4.9571,5.778,3.64653,2.45956-.9494,3.6756-3.44616,5.8367-4.98326.72686,1.71078-2.24462,3.716.41174,4.26474,2.58228.53353,3.52945-1.9059,4.44848-4.061C644.89915,533.5911,643.81184,533.6763,642.03064,534.1629Zm27.38978,9.20686c1.9714.13976,4.08566-1.34029,3.71517-2.18332-1.37862-3.136-3.14358-6.44333-6.61457-7.69-2.96122-1.06339-5.76789.34158-8.063,2.24-1.63145,1.34948-.63956,3.965.35468,4.1351,5.68256.97372,8.29624,5.57728,11.84961,9.11521.49916.49712,1.602.88761,1.95011.27243C673.472,546.06518,670.29041,545.99957,669.42042,543.36976Zm21.87837,12.875c-.49046,1.85212.24433,3.54411,1.93052,3.76039,1.96215.25165,2.19939-1.65636,2.37811-3.29772.20625-1.89447-.49866-3.80444.3935-5.7064.91348-1.94771-.50949-2.51845-2.06568-2.713-1.7995-.225-2.99084.89615-2.48125,2.42984A7.97928,7.97928,0,0,1,691.29879,556.24471Z" style="fill:#2a292a"/><path d="M693.00293,566.817c1.092.66685,1.67353,3.85453,3.41966.16947,8.66411-18.28433,4.90781-40.32209-9.35426-53.46487,6.03659-1.39918,8.78408-.8308,18.3475,3.92382,8.37481,4.16364,15.61355,9.96115,22.7718,15.88987,2.31824,1.91984,2.59492,3.82021,1.30044,6.52116-2.58891,5.4015-4.84823,10.96077-7.291,16.43366-2.42666,5.43647-4.91168,10.8469-7.48694,16.52411,4.36312.65292,7.86157-1.77219,11.712-1.82176q.54621,1.12315,1.09266,2.24591c-6.079,1.876-13.66158.60966-17.712,8.23444a11.3557,11.3557,0,0,0,6.83774-.55562c-.2502.46516-.38266,1.14149-.771,1.35908-1.66356.93178-4.2118.50737-3.475,4.14733.32926,1.62651-2.69494,3.08026-4.9436,3.32113-2.30381.24705-4.62914.35893-6.947.39193-3.65713.05207-6.58577,1.26574-8.31264,5.2411.96134-2.90763-2.366-4.76081-.84938-7.31174.1323-.22259-.29705-1.00856-.65508-1.24706a1.04857,1.04857,0,0,0-1.68465.58836c-3.98508,11.73109-13.84476,7.78689-22.029,8.31018a47.055,47.055,0,0,0,21.67573-14.46952c5.293-6.31737,5.54927-7.82173,2.15428-14.5288Zm16.09969,19.85155A9.60367,9.60367,0,0,0,706.509,584.586c-.82271-.29556-1.5764.63346-1.41576,1.67029a2.43007,2.43007,0,0,0,2.07733,2.073C708.18579,588.52905,708.80836,587.99814,709.10262,586.66851Z" style="fill:#d6d5d5"/><path d="M400.555,573.14314q-5.3525-12.343-10.70128-24.68743c-5.53555-12.85037-5.59344-12.941,5.12353-21.46308,6.98293-5.55269,14.90564-9.5667,23.12426-12.938a19.1204,19.1204,0,0,1,10.44952-1.069c-17.08765,16.951-16.8347,36.30453-8.2768,56.79967q-.19148,3.16018-.38291,6.32039c-1.02652-3.26893-1.24162-5.89151-6.30991-3.52031C409.94528,574.28633,404.94607,573.06228,400.555,573.14314Z" style="fill:#d6d5d5"/><path d="M603.28365,546.23373c8.01313-3.4714,13.8774-9.95062,20.89442-15.19277a85.74936,85.74936,0,0,0-2.00181,23.52911c.22347,3.36136.71891,6.70892,1.19691,10.0474.26306,1.83753.9188,3.27852,3.02692,1.44875q.1092.92257.21832,1.845c-2.47725,2.81613-1.2701,5.67945.18059,8.30072,2.02083,3.65152,4.37185,7.11951,6.58154,10.66612-1.08774.46241-1.4875,1.878-3.03535,1.82412-3.21286-.11228-4.80182.957-1.92,4.19283-6.12484.04562-11.27731-.45163-13.87157-6.84039-1.09072-2.68609-4.709-3.11826-7.06609-4.65918-2.54653-1.6649-2.41653-3.23842-1.65769-5.1012,1.4979-3.67743.891-7.23561.3969-10.96405-.65934-4.97551-1.8365-10.00085.00411-15.04052C607.16916,547.72048,606.33038,546.07951,603.28365,546.23373Z" style="fill:#d6d5d5"/><path d="M633.38054,586.87808c-2.20969-3.54661-4.56071-7.0146-6.58154-10.66612-1.45069-2.62127-2.65784-5.48459-.18059-8.30072,2.46065.57062,3.96507-4.10184,5.63844-2.06827,1.672,2.03172-2.0359,2.93379-3.18278,4.48142-.14113.19024.06016.6353.103.96386,8.482-1.83359,8.482-1.83359,8.90467,8.34094a5.36778,5.36778,0,0,1-2.79237-2.14387c-1.01511-1.86712-2.63153-.29846-2.78463.30161-.56791,2.22631,1.44748,3.384,2.69579,4.77816,1.09214,1.21958,2.54148,3.89555,4.02835,2.09352,2.47115-2.9948,3.69545.51789,5.47668.30463q.22621.20845.457.41192c-.98444,4.08488,2.42033,7.28518,7.4195,6.3175,2.14073-.41455,3.51538-.64858,5.60409.56312,3,1.74011,5.46218-.31371,5.09034-3.63312-.39359-3.51322.80791-6.22573,4.01043-7.91483a38.97257,38.97257,0,0,0-1.00425,4.57648c-.40225,3.96037,2.311,6.24795,5.96206,4.72649a28.65786,28.65786,0,0,0,12.9921-10.45839c1.49835-2.2275,1.70876-4.56859-1.86039-5.49813-.87506-.22812-1.5364-1.28007-2.296-1.95324,3.34155-1.0033,6.85611-1.70737,8.70049-5.23938.0927-.1775.67036-.10084,1.02223-.14252,3.39492,6.70707,3.13862,8.21143-2.15435,14.5288a47.055,47.055,0,0,1-21.67573,14.46952c-4.39472.01275-8.80528.27163-13.18014-.01539-7.54088-.495-13.82222-4.15246-19.69836-8.613q-.52741-.08874-1.05477-.17736Z" style="fill:#2a292a"/><path d="M488.894,564.37739c2.28544,1.33239,3.3769.79412,3.75668-1.95928,1.30369-9.45233,1.52668-18.84023-1.04094-28.13057a4.65167,4.65167,0,0,1,.05011-3.639c5.30759,4.49983,10.49343,8.89644,15.67928,13.29318-.40837,7.46176.112,14.66331-3.27076,22.16648-2.79957,6.20916-3.57543,1.80861-5.49144.61492l.04037-.03431c.31312,1.30452.12672,2.71369-.97109,3.33637-3.88593,2.20449-2.602,10.486-9.97541,8.499.76227-4.20689,6.20384-8.02789,1.04514-12.72322Q488.8049,565.08913,488.894,564.37739Z" style="fill:#d6d5d5"/><path d="M488.71606,565.8009c5.1586,4.69533-.283,8.51633-1.04524,12.72322l.10981-.07086q-.73881,1.12137-1.47755,2.24261c-13.28428,14.91036-26.17186,18.73057-42.65952,12.74952-2.11418-.76717-3.94167-1.57063-4.25585-4.09343l.07906-.07678c1.32982-.18643,1.80248-.8028,1.0229-2.04737l.06594-.09769c1.84084.71314,1.11978-1.96651,2.48856-1.87829,1.85135,5.08727,5.81564,7.67159,10.489,7.28124,3.00387-.25113,1.5988-2.66282,2.35768-3.9889,1.62641.38378.43317,3.9956,1.55967,2.77654,2.51983-2.72685,1.95472,3.35347,3.62856.85329-1.04867-6.6671.27871-9.68333,5.4381-12.32629a61.02777,61.02777,0,0,0-2.20848,5.80605c-.83383,3.04345-.53813,4.97433,3.66064,4.90267,5.74538-.09795,14.96885-7.32462,15.53268-13.048.38549-3.91278-2.18271-4.42409-5.18783-4.05346-4.74922.58573-8.31209,3.44209-11.80193,6.39954.01779-4.3853-.0572-8.51843,4.31331-11.63537,1.651-1.17752,3.789-3.86887,2.82291-6.96332-.324-1.03763-1.76559-2.34675.214-3.02189,1.85358-.63214,3.53656.54787,4.863,1.5968.7013.55444,2.8414,1.23194,1.66286,2.65519-2.005,2.421-1.21452,7.10834-6.02076,7.322-2.05909.09151-.47375,1.50634-.47923,2.33281-.64566-.09453-1.31025-.21944-1.61832.581-.02352.06127.21174.30753.351.33264.78264.14042,1.2875-.089,1.175-1.01277.87539-.01171,1.96254.3045,2.58473-.099,1.59777-1.03617,3.3719-.94835,5.07377-1.16134,2.76783-.34657-3.53105-3.06159.89121-3.0061,4.34222.05456-.357-1.88658.46763-2.68465a3.04132,3.04132,0,0,0,.7489-.59809Q486.13916,565.14679,488.71606,565.8009Z" style="fill:#2a292a"/><path d="M439.38771,589.352c-1.41051.23075-2.57521.8174-4.115-.50868a85.76642,85.76642,0,0,1-10.99933-11.2516c-1.91813-2.38513-2.11436-3.97891.16082-6.30869a24.428,24.428,0,0,0,6.35644-9.91013l.08532-.10242c.84862.18946,1.148-.17447.99657-.99279l.07731-.07967q3.56742-1.37382,7.134-2.74736c1.46971,2.58551-1.34258,3.55029-1.62016,5.30657,2.55855,1.99189,5.23105,1.20749,7.63836.18144,1.32631-.56522,2.34053-2.76642,3.66188-.3851,1.528,2.75419-1.264,3.51059-2.704,3.70806-4.45633.6119-2.91857,3.97773-1.807,5.19469,2.01393,2.20488.95158,3.10721-.67768,4.09566-1.80791,1.09692-2.38966.17881-3.42481-1.61783-1.46415-2.54121-3.93679-6.03549-6.19032-6.19944-2.897-.211-2.26241,3.97444-2.74588,6.44412a3.26474,3.26474,0,0,1-.82891,1.31582c-4.56239,5.325,2.223,5.73611,3.76975,8.26653,1.74206,2.85,3.996,1.808,5.62514-.66725q.45051.49068.901.98148c-.21991,1.01093-.82241,2.00622-.12576,3.055l-.06595.09742c-1.36023.17132-1.65786.87551-1.02282,2.04737Zm-2.84233-23.401c-.0613.10689-.19994.24547-.17135.31568.18594.45662.43717.46675.65909.02669.03408-.06771-.06638-.25388-.15373-.31725C436.80459,565.92172,436.65944,565.96472,436.54538,565.95091Z" style="fill:#2a292a"/><path d="M465.04733,489.92921c15.60888,5.01022,28.78587,13.86459,40.96485,25.52942-5.02333.73482-6.4897-3.12-9.06667-5.09463a113.79511,113.79511,0,0,0-42.89294-20.79057,190.26767,190.26767,0,0,0-22.72347-4.23476c8.10713-1.99136,15.21451,1.28927,22.45931.57824C456.94275,488.94076,461.562,487.83767,465.04733,489.92921Z" style="fill:#2a292a"/><path d="M608.26671,518.28119a5.0403,5.0403,0,0,1,2.18263-4.64458c18.004-14.88209,37.8801-25.68088,61.531-28.25192a41.66037,41.66037,0,0,1,11.59419-.11215c-17.41351,2.22434-33.30968,6.40625-48.14048,14.1846-9.83662,5.15918-18.32323,12.26121-27.24991,18.73359Z" style="fill:#2a292a"/><path d="M405.984,582.177c-7.233-2.17543-14.9469.45057-18.06148-8.99189C394.30476,575.08361,401.14423,574.18089,405.984,582.177Z" style="fill:#2a292a"/><path d="M716.64058,580.91715a11.35586,11.35586,0,0,1-6.83778.55562c4.05039-7.62478,11.63294-6.35839,17.712-8.23444-.22638,2.66531-3.12,4.08014-3.18553,6.82079q-2.67686.354-5.35284.70788Q717.80847,580.84194,716.64058,580.91715Z" style="fill:#2a292a"/><path d="M718.9764,580.76713q2.67618-.354,5.35284-.708C722.70862,581.536,721.18918,583.78415,718.9764,580.76713Z" style="fill:#d6d5d5"/><path d="M486.30308,580.69587q.73876-1.12117,1.47755-2.24261C488.08537,579.72819,487.4494,580.38085,486.30308,580.69587Z" style="fill:#d6d5d5"/><path d="M416.325,573.89861c.07474.12017.21092.24547.20156.35854-.00887.10715-.17025.20168-.2645.30187C416.28235,574.33879,416.30261,574.1187,416.325,573.89861Z" style="fill:#d6d5d5"/><path d="M747.80562,539.62974l.826-.28517c-.29547.07691-.591.15383-.8897.22785Z" style="fill:#2a292a"/><path d="M507.15265,517.18256a1.73639,1.73639,0,0,1,.93085,2.27575l.069-.08152c-.65775-.62951-1.6122-1.139-.92995-2.31006Z" style="fill:#2a292a"/><path d="M653.07893,502.1264c.16308.733-.40969.84343-.87834,1.04038C653.0603,503.30023,652.81571,502.49782,653.07893,502.1264Z" style="fill:#d6d5d5"/><path d="M507.22259,517.0666l-.7379.16487.04495-.61308q.31122.28242.62272.56443Z" style="fill:#2a292a"/><path d="M608.18417,518.19073q-.22074.37472-.44148.74942c-.54682-.795.16553-.58573.52379-.659Z" style="fill:#2a292a"/><path d="M508.0835,519.45844l.471-.04694c-.13217-.01354-.26432-.02708-.39922-.03773Z" style="fill:#2a292a"/><path d="M598.99922,538.141q-.60761-.01322-1.21525-.02656.29309-.32047.586-.64121Q598.697,537.7951,598.99922,538.141Z" style="fill:#2a292a"/><path d="M633.03989,586.91174q.52746.08874,1.05481.17736-.41822.30077-.83639.60164Z" style="fill:#d6d5d5"/><path d="M439.78031,583.09389c-1.62916,2.4752-3.88309,3.51729-5.62515.66725-1.54671-2.53042-8.33214-2.94155-3.76975-8.26653a3.26474,3.26474,0,0,0,.82891-1.31582c.48347-2.46968-.15116-6.65514,2.74588-6.44412,2.25353.16395,4.72617,3.65823,6.19032,6.19944,1.03515,1.79664,1.6169,2.71475,3.42481,1.61783,1.62926-.98845,2.69161-1.89078.67768-4.09566-1.11157-1.217-2.64933-4.58279,1.807-5.19469,1.44-.19747,4.232-.95387,2.704-3.70806-1.32135-2.38132-2.33557-.18012-3.66188.3851-2.40731,1.02605-5.07981,1.81045-7.63836-.18144.27758-1.75628,3.08987-2.72106,1.62016-5.30657q-3.5662,1.37342-7.134,2.74736c-.2448-3.1765,2.53656-3.408,4.40123-4.27724,10.98468-5.11947,22.30661-5.19113,33.72725-1.73958,6.94213,2.09786,13.96747,4.16364,18.81556,10.1961q-.089.71195-.178,1.42364-2.57674-.65416-5.15373-1.30847-.49543-.25382-.99082-.508l.24194,1.10612c-.82468.79807,3.87459,2.73921-.46763,2.68465-4.42226-.05549,1.87662,2.65953-.89121,3.0061-1.70187.213-3.476.12517-5.07377,1.16134-.62219.40351-1.70934.0873-2.58473.099l.09251.09926c.0053-.8266-1.58-2.24143.479-2.33294,4.80624-.21365,4.01578-4.901,6.02076-7.322,1.17854-1.42325-.96156-2.10075-1.66286-2.65519-1.32649-1.04893-3.00947-2.22894-4.863-1.5968-1.97955.67514-.53791,1.98426-.214,3.02189.966,3.09445-1.1719,5.7858-2.82291,6.96332-4.37051,3.11694-4.29552,7.25007-4.31331,11.63537l.00471-.0067c-5.15918,2.64283-6.48656,5.65906-5.43789,12.32616-1.67384,2.50018-1.10873-3.58014-3.62856-.85329-1.1265,1.21906.06674-2.39276-1.55967-2.77654-.75888,1.32608.64619,3.73777-2.35768,3.9889-4.67334.39035-8.63763-2.194-10.489-7.28124-1.36878-.08822-.64772,2.59143-2.48856,1.87829-.69672-1.04853-.09422-2.04382.12567-3.05475.61338-.53485,1.25265-1.10218.46223-1.90222A8.0758,8.0758,0,0,0,439.78031,583.09389Zm2.21957-26.34076a13.75894,13.75894,0,0,1,8.465,3.18886c4.17356,3.1105,8.64192,2.02528,11.63583-1.96244,1.69569-2.25865,1.35695-3.598-1.44154-3.97654A30.6482,30.6482,0,0,0,441.99988,556.75313Zm14.22563,22.33937c1.28325-1.15529,1.82942.60177,2.56106.13516,1.27828-.81529,3.35361-.35144,3.86879-2.32045.09954-.3805-.26165-1.26718-.42986-1.27218-1.37948-.04194-3.0967-.43046-4.08377.229-2.95331,1.97334-5.43056.68736-8.08685-.43559-.94432-.39917-2.24835-1.79191-2.90217.373-.589,1.95021,1.44049,2.08616,2.21906,2.29863A48.6,48.6,0,0,0,456.22551,579.0925Z" style="fill:#6abd93"/><path d="M431.82326,533.21613c-2.89881,1.34738-6.21146,3.10445-8.65824.08664-2.38522-2.94168-1.03215-6.43254.81846-9.42339a15.31694,15.31694,0,0,1,6.89093-6.46358c2.8382-1.1858,5.96545-1.71276,8.38755.86578,2.7009,2.87555.68737,5.62988-.75781,8.24484a23.04515,23.04515,0,0,1-2.21268,2.88343c.877,1.53513,4.40832-.29227,3.57514,2.591-.72915,2.52332-2.56633,4.72557-5.71055,4.73754-2.17765.00815-2.219-1.2664-1.48617-2.86306q.03235-.63208.06653-1.264Q432.27984,532.91367,431.82326,533.21613Z" style="fill:#aad6bd"/><path d="M487.073,546.02442c.82322.52473,1.55919.99371,2.29515,1.46282-2.61271,2.95128,1.15249,5.59556.40642,8.45967-.23764.91232-.6735,1.963-1.70757,1.49556-1.7548-.79308-2.947-2.53647-2.13094-4.29367.77235-1.66319,1.48138-2.72527-.42971-3.95879-.45225-.292-1.99833-.66988-.77472-1.78573A13.25077,13.25077,0,0,1,487.073,546.02442Z" style="fill:#aad6bd"/><path d="M451.5008,543.70108c-.31688,2.12034-.95707,3.77157-3.24337,3.73883-1.37162-.01972-2.5289-.6825-2.2566-2.2885.34463-2.03238,1.9859-2.90526,3.78162-3.24237C451.1931,541.64411,451.56475,542.697,451.5008,543.70108Z" style="fill:#aad6bd"/><path d="M431.87258,560.27765c.15147.81832-.148,1.18225-.99657.99279q-.14843-.4185-.29675-.837Z" style="fill:#888"/><path d="M667.287,580.70783c-3.20252,1.6891-4.404,4.40161-4.01043,7.91483.37184,3.31941-2.09038,5.37323-5.09034,3.63312-2.08871-1.2117-3.46336-.97767-5.60409-.56312-4.99917.96768-8.40394-2.23262-7.42426-6.32131.4904-.49055.77727-.99923.16274-1.60285q-.30748.59737-.615,1.19474c-1.78123.21326-3.00553-3.29943-5.47668-.30463-1.48687,1.802-2.93621-.87394-4.02835-2.09352-1.24831-1.39419-3.2637-2.55185-2.69579-4.77816.1531-.60007,1.76952-2.16873,2.78463-.30161a5.36778,5.36778,0,0,0,2.79237,2.14387c-.42263-10.17453-.42263-10.17453-8.90467-8.34094-.04288-.32856-.24417-.77362-.103-.96386,1.14688-1.54763,4.85477-2.4497,3.18278-4.48142-1.67337-2.03357-3.17779,2.63889-5.63844,2.06827q-.10914-.92257-.21832-1.845a16.83232,16.83232,0,0,1,9.23931-8.81545q.43174.622.86346,1.24418-.69216,1.42488-1.38426,2.84964-1.3774.81411-2.75376,1.62914c-.2299.50987-1.01731,1.02724-.15218,1.53869.21159.125.77757-.352,1.18061-.55234,1.1332-.53564,2.38463-.99963,1.62557-2.68517.95625.11294,2.21631-.11912,2.81005.40574,1.572,1.38932,2.86234.85092,3.3444-.62189.647-1.97663.49561-4.06056-2.6039-3.72949q-.62458-.55281-1.24927-1.10573c13.80146-6.16985,27.83612-6.93834,42.03865-1.5826,6.04548,2.27969,10.29647,6.76532,13.64416,12.17588q-1.09987-.0487-2.19972-.09768c-.3518.04168-.92946-.035-1.02216.14252-1.84438,3.532-5.35894,4.23608-8.70046,5.23938q-2.0882.47017-4.17646.94046c-1.50948-5.21072-1.50948-5.21072-9.15074-.24494.16369,1.841,3.37065,2.563,1.86869,5.02376A2.46675,2.46675,0,0,1,667.287,580.70783Zm-20.41583-24.81838c3.55829-.16671,6.31.47779,8.998,3.65942,3.88335,4.5962,9.96455,2.63179,11.86611-3.15375.35081-1.06747.78085-2.33163-.80647-2.39158-6.73493-.25481-13.62638-1.81124-19.96766,1.9815a4.05662,4.05662,0,0,0-3.497,2.45087C646.13074,558.97905,646.47568,557.40526,646.87117,555.88945Zm-2.54866,10.88517a19.15183,19.15183,0,0,0-2.07437,2.009c-.573.725-.56129,1.26968.41019,2.07406,1.78113,1.47452,3.03656,3.58789,4.822,5.05532,1.05224.86459,2.63947,2.08194,4.02779-.13253,1.45492-2.32032-.79679-3.12523-1.7723-3.56765-2.1287-.9657-4.83053-.9686-4.12716-4.46958C645.75112,567.03389,645.17031,566.88848,644.32251,566.77462ZM665.2208,578.1009c-.31981-3.14574-.36823-2.70042-3.19439-3.009-1.76771-.193-3.397.753-5.10759.08612-.761-.29662-.84351-3.05173-2.32523-.74128a3.55706,3.55706,0,0,0-.68831,2.42761c.50132,1.831,2.39839.85132,3.12435.664A12.6658,12.6658,0,0,1,665.2208,578.1009Zm12.85741-20.2945c1.81921,2.33346,2.06443,3.59723-.21291,4.65155-.99815.46188-1.37163,2.55421-.33772,3.85058a4.80913,4.80913,0,0,0,2.14608,1.10126c1.25895-2.08708,2.89918-4.14628,3.37724-6.44083C683.45263,559.04084,681.348,558.27538,678.07821,557.8064Z" style="fill:#6abd93"/><path d="M642.03061,534.1629c1.78123-.4866,2.86854-.5718,1.80928,1.91169-.919,2.15505-1.8662,4.59448-4.44848,4.061-2.65636-.54879.31512-2.554-.41174-4.26474-2.1611,1.5371-3.37714,4.03386-5.8367,4.98326-3.39578,1.31057-5.62027-.04181-5.778-3.64653-.25332-5.78923,5.92193-12.37179,11.66367-12.60187,2.91909-.117,3.89648,1.46466,3.65425,3.94538a24.11534,24.11534,0,0,1-1.35333,4.57161q-.31728.57075-.63464,1.14136Q641.36278,534.21352,642.03061,534.1629Z" style="fill:#aad6bd"/><path d="M669.42042,543.36976c.87,2.62981,4.05158,2.69542,3.192,5.88941-.34806.61518-1.451.22469-1.95011-.27243-3.55337-3.53793-6.16705-8.14149-11.84961-9.11521-.99424-.17013-1.98613-2.78562-.35468-4.1351,2.29511-1.89841,5.10178-3.30338,8.063-2.24,3.471,1.24667,5.236,4.554,6.61457,7.69C673.50608,542.02947,671.39182,543.50952,669.42042,543.36976Z" style="fill:#6abd93"/><path d="M691.30181,556.24379a7.99383,7.99383,0,0,0,.15218-5.526c-.50959-1.53369.68175-2.6548,2.48125-2.42984,1.55619.19459,2.97916.76533,2.06568,2.713-.89216,1.902-.18725,3.81193-.3935,5.7064-.17872,1.64136-.416,3.54937-2.37811,3.29772C691.54312,559.78882,690.80833,558.09683,691.30181,556.24379Z" style="fill:#aad6bd"/><path d="M652.53542,544.43867c-2.01125-2.44194-1.33354,1.0459-2.24771,1.02329,2.2032,5.48853-2.57146,4.187-5.00268,5.13184-.9619.37392-1.97822.60716-3.72815,1.13176,2.22032-3.461,4.08326-6.249,5.81482-9.11653.78364-1.298,1.98213-1.33516,3.18609-1.42943,2.74825-.21523-.2977,3.1268,1.9552,3.25236Z" style="fill:#6abd93"/><path d="M652.513,544.432c.47485-.51342.95636-1.02092,1.4233-1.54131a2.89752,2.89752,0,0,1,3.81922-.6211c1.25534.68421.71928,1.81623.24167,2.75525a3.89274,3.89274,0,0,1-3.78969,2.30349c-2.35991-.01131-1.85593-1.50135-1.67353-2.88962Z" style="fill:#aad6bd"/><path d="M679.86626,550.92762c-2.50277-1.91419-5.00482-3.82876-1.18878-7.12767.70255,2.142,1.3797,4.20689,2.05689,6.27149Q680.30027,550.49958,679.86626,550.92762Z" style="fill:#6abd93"/><path d="M730.16966,560.86983c-.62533.05338-1.7543.26637-1.7959.1345-.31922-1.01093.693-.66594,1.138-.93744Q729.86042,560.45226,730.16966,560.86983Z" style="fill:#888"/><path d="M635.6394,557.25077q.84159-.51315,1.682-1.02671.62282.552,1.248,1.10521-1.0333.583-2.06657,1.16568Q636.07113,557.87293,635.6394,557.25077Z" style="fill:#888"/><path d="M680.73437,550.07144q.17331.58315.34648,1.1662-.60633-.156-1.21367-.31107Q680.29981,550.50018,680.73437,550.07144Z" style="fill:#888"/><path d="M709.10262,586.66851c-.29426,1.32963-.91683,1.86054-1.9321,1.66082a2.43007,2.43007,0,0,1-2.07733-2.073c-.16064-1.03683.593-1.96585,1.41576-1.67029A9.60367,9.60367,0,0,1,709.10262,586.66851Z" style="fill:#888"/><path d="M676.90413,573.0415q2.08824-.47036,4.17646-.94046c.75953.67317,1.42087,1.72512,2.29593,1.95324,3.56915.92954,3.35874,3.27063,1.86039,5.49813a28.65786,28.65786,0,0,1-12.9921,10.45839c-3.6511,1.52146-6.36431-.76612-5.96206-4.72649a38.97257,38.97257,0,0,1,1.00425-4.57648,2.46653,2.46653,0,0,0,2.33491-2.88751C672.74416,577.29047,674.43006,574.56309,676.90413,573.0415Z" style="fill:#aad6bd"/><path d="M498.61732,566.68877l-.04037.03431Z" style="fill:#888"/><path d="M466.51224,579.85454c3.48984-2.95745,7.05271-5.81381,11.80193-6.39954,3.00512-.37063,5.57332.14068,5.18783,4.05346-.56383,5.72335-9.7873,12.95-15.53268,13.048-4.19877.07166-4.49447-1.85922-3.66064-4.90267a61.02777,61.02777,0,0,1,2.20848-5.80605Z" style="fill:#aad6bd"/><path d="M439.46677,589.27518c-.635-1.17186-.33741-1.876,1.02282-2.04737C441.26925,588.47238,440.79659,589.08875,439.46677,589.27518Z" style="fill:#888"/><path d="M473.796,572.04162c.11247.92376-.39239,1.15319-1.175,1.01277-.13922-.02511-.37448-.27137-.351-.33264.30807-.80044.97266-.67553,1.61832-.581Z" style="fill:#888"/><path d="M436.54538,565.95788c.11406.00684.25921-.03616.334.01815.08735.06337.18781.24954.15373.31725-.22192.44006-.47315.42993-.65909-.02669C436.34544,566.19638,436.48408,566.0578,436.54538,565.95788Z" style="fill:#888"/><path d="M441.99988,556.75313a30.6482,30.6482,0,0,1,18.65928-2.75012c2.79849.37853,3.13723,1.71789,1.44154,3.97654-2.99391,3.98772-7.46227,5.07294-11.63583,1.96244A13.75894,13.75894,0,0,0,441.99988,556.75313Z" style="fill:#2a292a"/><path d="M456.22551,579.0925a48.6,48.6,0,0,1-6.85374-.99239c-.77857-.21247-2.80809-.34842-2.21906-2.29863.65382-2.16491,1.95785-.77217,2.90217-.373,2.65629,1.12295,5.13354,2.40893,8.08685.43559.98707-.6595,2.70429-.271,4.08377-.229.16821.005.5294.89168.42986,1.27218-.51518,1.969-2.59051,1.50516-3.86879,2.32045C458.05493,579.69427,457.50876,577.93721,456.22551,579.0925Z" style="fill:#2a292a"/><path d="M439.78032,583.09389a8.07545,8.07545,0,0,1,1.36319-.92074c.79042.8.15115,1.36737-.46223,1.90222Q440.23082,583.58471,439.78032,583.09389Z" style="fill:#2a292a"/><path d="M482.81335,565.09052l-.24194-1.10612q.49539.25422.9908.50816A3.04289,3.04289,0,0,1,482.81335,565.09052Z" style="fill:#2a292a"/><path d="M431.82326,533.21613q.45657-.30234.91316-.6048-.03372.63189-.06653,1.264A5.60992,5.60992,0,0,1,431.82326,533.21613Z" style="fill:#2a292a"/><path d="M646.96158,555.9853c6.34085-3.793,13.2323-2.23657,19.96723-1.98176,1.58732.05995,1.15728,1.32411.80647,2.39158-1.90156,5.78554-7.98276,7.75-11.86611,3.15375-2.688-3.18163-5.43971-3.82613-8.998-3.65942Z" style="fill:#2a292a"/><path d="M676.90413,573.0415c-2.47407,1.52159-4.16,4.249-7.28222,4.77882,1.50213-2.46073-1.70483-3.18281-1.86852-5.02376C675.39465,567.83078,675.39465,567.83078,676.90413,573.0415Z" style="fill:#2a292a"/><path d="M644.32251,566.77462c.8478.11386,1.42861.25927,1.28614.9686-.70337,3.501,1.99846,3.50388,4.12716,4.46958.97551.44242,3.22722,1.24733,1.7723,3.56765-1.38832,2.21447-2.97555.99712-4.02779.13253-1.78543-1.46743-3.04086-3.5808-4.822-5.05532-.97148-.80438-.98323-1.34909-.41019-2.07406A19.15183,19.15183,0,0,1,644.32251,566.77462Z" style="fill:#2a292a"/><path d="M665.22051,578.10642a12.62959,12.62959,0,0,0-8.19088-.57811c-.726.18736-2.623,1.167-3.12435-.664a3.55706,3.55706,0,0,1,.68831-2.42761c1.48172-2.31045,1.56423.44466,2.32523.74128,1.7106.66685,3.33988-.27913,5.10759-.08612C664.85257,575.40048,664.901,574.95516,665.22051,578.10642Z" style="fill:#2a292a"/><path d="M678.07821,557.8064c3.26977.469,5.37442,1.23444,4.97269,3.16256-.47806,2.29455-2.11829,4.35375-3.37724,6.44083a4.80913,4.80913,0,0,1-2.14608-1.10126c-1.03391-1.29637-.66043-3.3887.33772-3.85058C680.14264,561.40363,679.89742,560.13986,678.07821,557.8064Z" style="fill:#2a292a"/><path d="M636.50286,558.495q1.0332-.58278,2.06649-1.16555c3.09955-.3312,3.25092,1.75273,2.60394,3.72936-.48206,1.47281-1.7724,2.01121-3.3444.62189-.59374-.52486-1.8538-.2928-2.80989-.40574l.09946.06955Q635.81071,559.91978,636.50286,558.495Z" style="fill:#2a292a"/><path d="M646.87117,555.88945c-.39549,1.51581-.74043,3.0896-3.40706,2.54646a4.05629,4.05629,0,0,1,3.49724-2.45074Z" style="fill:#2a292a"/><path d="M632.36366,562.97308q1.37749-.81432,2.75487-1.62849l-.09953-.06981c.7589,1.68567-.49253,2.14966-1.62573,2.6853Q632.87841,563.46664,632.36366,562.97308Z" style="fill:#2a292a"/><path d="M644.7056,584.96324q.30754-.59738.615-1.19474c.61453.60362.32766,1.1123-.16274,1.60285C645.00875,585.23948,644.85641,585.10221,644.7056,584.96324Z" style="fill:#2a292a"/><path d="M633.39327,563.96008c-.403.20037-.969.67737-1.18061.55234-.86513-.51145-.07772-1.02882.15218-1.53869Q632.87787,563.46638,633.39327,563.96008Z" style="fill:#2a292a"/><path d="M642.03061,534.1629q-.66785.05068-1.33568.10111.31734-.57075.63468-1.14136Q641.6801,533.64272,642.03061,534.1629Z" style="fill:#2a292a"/></svg>