<svg id="Layer_1" data-name="Layer 1" xmlns="http://www.w3.org/2000/svg" viewBox="0 0 1133.85827 1133.85827"><path d="M636.10022,514.10533l43.40509-7.26692,13.55182,25.92522s4.32087,16.10506,3.53526,17.67628-4.32087,23.96119-8.05253,27.49645-25.92522,17.08707-27.69285,17.08707-18.42539-1.8421-22.0771-6.22393a22.88162,22.88162,0,0,0-7.795-6.11839s-7.937-10.58012-8.919-18.829S636.10022,514.10533,636.10022,514.10533Z" style="fill:#888"/><path d="M472.287,496.33783c2.948,1.48557,5.91621,1.81206,8.62545-.38029,1.66748-1.34932,5.0883-2.13051,4.44167-4.34193-.5718-1.95541-3.02982-3.74763-5.72749-4.31228a107.129,107.129,0,0,0-25.06118-2.27043c-7.7323.21629-15.19957,2.208-23.05117,3.60866.83169-2.3421,2.576-2.13456,3.93777-2.5217,17.71665-5.03744,35.35215-6.12687,52.72234,1.403,3.96261,1.71783,2.81306-2.82873,4.69843-3.5923l.92614.77339c-1.72231,3.4167-1.17331,5.37255,2.56289,7.59253,4.96027,2.94737,8.81965,7.5305,11.88752,14.37188-7.39627-3.9027-10.06681-11.42723-16.66474-14.10438-5.36035,7.42707-4.14642,9.80586,4.34953,16.98958,9.50607,8.03779,14.81663,18.90259,17.03169,31.273.75753,4.23071-3.12841,5.8396-4.18964,8.97131-7.59472-17.70366-16.45078-29.14572-23.05848-29.75365a5.444,5.444,0,0,0,.419,1.47137c8.23647,12.98619,10.59265,27.06972,8.31229,42.187-.4013,2.66036-3.074,4.96317-1.34573,7.95078-.6808,1.18163-1.76817.70837-2.74753.678-.15257-.58949-.29586-1.18227-.48552-1.76-.00819-.025-.59536.02142-.65456.1521a1.42349,1.42349,0,0,0,.74279,1.94108c.59826,9.70124-12.96724,21.55306-22.44832,23.589a55.793,55.793,0,0,1-18.0172.55539c-5.84361-.675-11.24129-4.86975-15.83312-8.89463-2.51762-2.20674,1.39189-4.36671,1.90424-6.69652q.90653-.16749,1.81307-.33486l-.10358-.05995c-.83665,2.68064-1.73385,5.39321,2.76448,5.25747,2.71291,6.75507,8.87494,6.20576,14.84444,7.03974,0-2.03576-.44077-4.03312.08972-5.72465,1.18463-3.77735,1.73706-6.79525-3.64262-7.05647-1.08193-.05259-1.29447-.933-.92371-1.89545.31245-.81116.64842-1.7151,1.76768-1.3606,5.12279,1.62232,10.13869-.24385,15.20458-.41078-1.26214,3.15263-4.81135,3.60207-6.87123,5.8377-1.8609,2.0198-2.99167,4.29117-2.18737,6.98157a5.34288,5.34288,0,0,0,4.83891,3.95086c7.88353.91066,19.33925-7.64355,20.65508-15.4421.43419-2.57341-.92071-4.30081-2.668-5.75025-1.6653-1.38151-3.41118-.9464-5.21469.07072-1.44216.81319-2.45086,2.4923-4.40034,2.34413-1.83377-3.15415,1.72317-4.19345,2.56682-6.29,1.24259-3.08811,2.787-6.45621.413-9.03469-2.07655-2.25528-5.91712-1.12535-8.88892-2.05882-2.31086-.72587-1.669,2.069-2.78969,2.9473-2.72737,2.13766-5.50342,3.614-8.91047,1.66263-2.06167-1.18088-4.33557-1.92131-6.34711-.61661-2.27848,1.47783-4.17288,3.28774-7.0459,3.98394-1.48329.35945-2.87123,2.78431.04273,4.054,2.28528.99583,2.61392,3.09509,4.179,5.78067-3.05116-1.00584-5.06062-1.337-6.31288-3.47735-1.86081-3.18013-5.03789-4.01208-8.43307-4.29991.9776-3.28825,4.18733-4.84137,5.87148-7.58081a14.76557,14.76557,0,0,0,6.16915-3.66151c-3.99741.28631-3.99741.28631-7.04494,2.70953-4.88591,1.852-6.52351,6.14138-8.63976,10.52393,2.44669.37225,2.5793-1.56427,3.72448-2.09343.97656,1.69089,1.53024,3.18039-.56309,4.65936-3.4938,2.46834-.36757,4.6458.55836,6.86788,1.35414,3.24933,2.50648.10114,3.77642-.13283,2.1325-.3929.89333.94817.79928,1.68861a9.19533,9.19533,0,0,0-1.21875,1.60154c-2.02038,4.35327-3.84524,2.843-5.68113-.13346-.43075-.69811-.95815-1.33652-1.441-2.0023q-.7203-1.21466-1.44079-2.42931a.46151.46151,0,0,0-.03233-.6673q.13925-1.02777.27858-2.05528c.90673-.23245.92918-1.05172,1.14995-1.73931.786-.7028,1.40383-1.76466.38018-2.35566-.80247-.46313-1.01548.84386-1.304,1.52156-.56065.39886-.97222.86262-.70322,1.62257q-.9294.15837-1.85881.31686l.18187-.26869-.24858-.20837c-5.55947-16.58191-4.9607-33.00185,1.68112-49.49371-21.298,12.031-37.66306,42.94865-14.08386,63.43276.69645,1.34336,3.02821,1.06224,3.101,3.47861-3.8578.50761-6.08506-3.15808-9.94956-3.76442.96971,1.32866,1.69978,2.32892,2.43957,3.34249-5.0562,2.8255-7.87463-.48505-10.71644-3.69357-5.324-6.01121-11.34229-11.57451-13.732-19.59981-1.04245-3.5008-3.5594-3.62083-6.42577-3.70726a62.13407,62.13407,0,0,1-32.76879-10.22647c3.095-.88315,5.26185.53385,7.55536.7085,9.20625.70077,17.09767-1.36529,24.69365-7.31693,6.33019-4.96,9.37317-11.90417,14.15712-17.73274,1.23606-1.50591,1.50485-3.28641-.56125-4.93054-5.71436-4.547-10.00645-10.521-15.1778-15.62043-1.34347-1.32473-.47745-3.42044-2.07651-4.71151,4.71127.86382,7.93247,4.25637,11.97008,6.108,10.68133,4.89821,20.59639,4.92229,30.59478-1.90243,9.33806-6.374,20.025-9.73666,30.94464-12.46229,3.6122-.90172,7.22723-.16679,10.758-.99773l9.00454.1367q.52666.05219,1.05323.10437C467.34861,496.05627,469.97016,495.5524,472.287,496.33783Zm15.38581,68.24636c-.5277-.68074-.93865-2.09837-2.01093-1.13968-.903.80723.32106,1.57264.81744,2.2762a2.27155,2.27155,0,0,0,1.19706,1.974c.2748.64589.32114,1.96175,1.2616,1.42727.9692-.55071.20735-1.68912-.17291-2.53691Q488.21911,565.58433,487.67276,564.58419Zm-17.72807-9.04761q.6279.04676,1.25583.09341l-.38834-1.12726c-8.85212-2.13982-17.70235-3.22513-26.54474.0479-.79984.17263-2.23552.21636-2.04124,1.00648.358,1.45629,1.61144.52446,2.52139.29709C453.11364,553.11577,461.52764,554.258,469.94469,555.53658ZM438.05315,519.615c-6.53141.206-14.39517,11.69372-12.04471,17.72673.77,1.97645,1.909,3.28888,4.71961,2.3786,5.11208-1.65591,11.95739-8.68519,12.286-13.99247C443.21061,522.55419,442.12247,519.6321,438.05315,519.615Zm12.09757-.97314a3.76893,3.76893,0,0,0-3.42318,3.37684c-.20318,2.06967,1.601,2.944,3.49991,2.77177,2.15748-.19589,4.55183-.29171,4.64958-3.45935C454.949,518.9999,453.70412,518.33038,450.15072,518.64185Zm5.87591,26.14646c-.31309-1.87455-1.52468-2.38038-3.27292-2.32259-2.56456.08492-2.81194,2.09483-2.954,3.8112a2.06216,2.06216,0,0,0,2.67721,2.205C454.30206,548.06008,455.972,547.128,456.02663,544.78831Zm34.61454,17.03705c1.8997-3.8174,1.33585-6.42237,1.45394-8.912.04844-1.02067-.13572-2.161-1.5885-2.13272-1.621.03155-1.33431,1.32067-1.22285,2.23639C489.59079,555.54012,490.04515,558.04509,490.64117,561.82536Z" style="fill:#2a292a"/><path d="M608.93555,502.60957a27.40449,27.40449,0,0,1,9.51993-10.593c3.952-2.491,5.06161-4.52476,2.71444-8.4511-.29248-.48923-.13652-1.24754.15818-2.71751,2.20085,9.1023,6.94183,5.43452,12.05811,3.86645,13.02535-3.992,26.34973-3.78394,39.60235-.83734,3.74259.83208,7.70911.45362,11.28077,2.41124a13.61456,13.61456,0,0,1,3.491,2.97709c-20.82094-5.83485-40.62338-7.08822-60.19658.46439,5.208,6.404,11.37943,7.53493,19.59663,5.86894a70.56053,70.56053,0,0,1,34.016,1.74989c9.93293,2.87792,18.13318,8.63323,26.99446,13.28987,4.0063,2.10534,7.57727,3.12563,12.18663,2.15636,8.79405-1.84913,16.91024-4.86406,23.965-10.75613-1.70881,7.4168-6.52265,12.45266-11.91767,17.06924-.37875.32415-.97274.3874-1.37657.69184-2.04,1.53816-5.00355,2.70218-6.067,4.45441-1.62239,2.6731,2.79714,3.36607,3.968,5.59549,1.1592,2.20712,2.12628,4.535,3.27848,6.7507,5.55171,10.67552,22.1985,21.01656,38.74355,16.03742a22.03665,22.03665,0,0,1,2.26631-.34018,15.49037,15.49037,0,0,1-7.65437,5.145c-5.48713,1.7028-10.95036,3.48292-16.42323,5.2311q-3.02434.31008-6.04909.62054-1.14049-.00684-2.28095-.01344c-2.33942.282-5.5105-1.15856-6.01854,2.917a.54911.54911,0,0,0-.12194.82092c-1.0111.525-.9877,1.41839-.83587,2.35744-3.39986,4.3648-6.77994,8.7452-10.205,13.09011-3.77772,4.79232-6.89559,10.89453-14.88431,7.24532-.75988-.347-2.13225.81775-3.26611,1.08569-1.51648.35818-3.4613,1.52942-3.77817-1.42574a35.71087,35.71087,0,0,0,4.29379-3.35314c5.63431-5.92249,11.03382-12.42129,10.90581-20.91985a44.81357,44.81357,0,0,0-12.04492-30.44314c-1.506-1.6293-3.8071-2.538-5.24825-4.20676-2.79107-3.2321-4.30793-4.67913-8.1655-6.43327,5.48944,15.78419,7.11834,31.736,1.59351,48.17728-2.88211-2.3345-.55205-7.18917-4.95956-8.11377-.264-5.74226-4.71542-7.056-9.00124-8.54482-.68212-1.17162-1.96449-.8625-2.97961-1.21256a18.654,18.654,0,0,0-8.52278-1.81548c-.8595-.7867-2.067-1.06693-2.68778-.21813-.3342.457.86161,1.18125,1.7405,1.27251q4.25481.97206,8.51016,1.94261,1.46471.54392,2.92837,1.09025c1.38553.98011,2.8195,1.9,4.13776,2.96378.74787.60343,1.84087,2.15946.66065,2.32486-1.99358.27947-2.11606,1.98215-3.12191,2.88761-.82816.74551-.95428,2.35376-2.72782,3.78305a18.279,18.279,0,0,1,10.25224,1.31649c.16441-1.93981-1.133-2.69077-1.36554-3.6961-.81573-3.52742,1.26216-.81345,2.08618-.85578,2.359,4.65455,5.88857,9.22493,1.03162,14.39862l.055-.01736q-.56149,1.06788-1.1235,2.13576l.06777-.07846q-.80184,1.09242-1.60353,2.18482c-8.11867,6.56888-16.742,12.0375-27.57135,12.69683a40.52171,40.52171,0,0,1-16.3216-2.26441c-2.66713-2.60028-7.52958-3.25555-7.37472-8.35623l.06951-.071c2.15983.20368,1.61764-2.95212,3.6154-2.96137,1.42414,1.52372-.5025,3.57215,1.10566,5.29815,1.29539,1.39026,1.94554,2.38887,3.40554.46781,2.574-3.38672,3.93875-1.42371,4.2559,1.30116.23389,2.00927,1.02875,2.49128,2.69174,2.97671,1.8429.53764,1.77728-.67149,2.385-1.71206,1.36936-2.34515.96929,1.23943,2.17463.51509-.86573-3.87672,1.76033-7.21161,2.15439-11.03091l-.06613.04309c1.78386.352,2.12909-.736,2.146-2.15262l-.04924.07592c1.33948-.34829,2.7221-.82421,3.28819,1.11573-2.85694,2.57645-6.05111,5.18294-3.45159,9.56055,2.68086,4.51475,6.77776,3.1975,10.52168,1.79913,7.00431-2.61612,13.2217-6.0467,14.42681-14.62232.30646-2.181.43466-4.32273-.96908-5.72021-1.32645-1.32067-3.53377-.92143-5.39745-.44234-3.20676.82434-5.45485,3.24705-8.14263,4.93706.83363-3.98762.257-8.1978,3.00782-13.46946-3.36058,2.45135-5.69285,2.76682-8.12426,2.23018l.07921.07326q-.003-2.06523-.00626-4.13071c2.95858.28454,5.85106.84475,8.6853-1.00115,1.56565-1.01978.76374-1.7407.13-2.32537-2.22532-2.05275-8.034-.13144-9.3147,2.99648-3.14765,2.9672-6.18706,3.22424-9.85985.49379-5.84079-4.34237-13.64147-.66439-14.59514,6.62339a10.98629,10.98629,0,0,0,.00847,1.537l.08532-.08263c-2.85523,1.18569-3.90665-1.41916-5.06322-2.863-1.50143-1.87467.844-2.99281,1.86177-4.1439,4.10073-4.63832,9.90357-5.82109,15.4981-7.40565,1.04825-.29683,2.52564.06312,2.92679-2.02866-14.87017.72548-24.63987,7.82758-28.87794,21.978-3.24429-.864-2.3298-3.78293-3.47069-5.54733-4.64111-17.62819-1.56132-34.11859,7.60611-49.77983-11.12828,6.79886-18.01593,16.69585-22.6731,28.36073q-.19282-.86256-.38569-1.725c-.672.23764-.95509.66021-.64594,1.36427l-.9211.11749c-4.24256-5.42642-2.45769-10.84244-.118-16.36112,2.5691-6.0597,5.58514-11.82769,9.96877-16.77786A62.84482,62.84482,0,0,1,626.51716,503.046c2.4612-1.68177,4.28525-2.6653-.13289-4.49149-5.96585-2.46612-9.51256-1.961-13.94344,3.515-.75084.928-1.77478.90609-2.52075,1.55762Q609.4278,503.11838,608.93555,502.60957Zm41.882,38.81964-.8256.089.27054.55476q.2302-.36217.46047-.7246a1.869,1.869,0,0,0,.43947-.24145c.05468-.05133.00506-.21407.00272-.32636Zm-23.5832-8.02061c.13933,4.53363,3.20423,6.69994,7.084,4.67825a21.86113,21.86113,0,0,0,10.60842-12.64373c.853-2.42049-.21975-4.43781-1.74588-6.03288-1.58984-1.66168-3.86665-1.32936-5.82715-.70077C633.48216,519.95086,627.11083,529.39056,627.23432,533.4086Zm31.261-13.68892a3.81538,3.81538,0,0,0-4.82649-2.81783c-1.828.47713-4.634.45-4.13241,3.93686.40266,2.79977,2.54165,2.747,4.07774,2.36928C655.521,522.7391,658.06975,522.41743,658.49528,519.71968Zm-15.68071,31.81014c1.73275-.50774,2.85519-.89646,4.00639-1.15869,1.39849-.31851,3.39792.07883,2.46863-2.538-.36693-1.03322.47262-2.81232-1.148-2.99509-1.67959-.18935-2.65771,1.319-3.40206,2.70294C644.10111,548.72789,643.56227,549.96871,642.81457,551.52982Zm12.65408-4.222c.78676.04,2.03937-1.3,2.447-3.254.37051-1.77607-1.227-2.51612-2.49519-2.34692-1.5889.212-3.30264.87111-3.60016,2.96226C651.57832,546.36969,652.31154,547.20646,655.46865,547.30785Zm35.87731.38771c-.44165,4.62286-.33385,7.80489,1.81751,11.45461C693.06692,555.2604,694.01873,552.03984,691.346,547.69556Zm-15.4794,10.603c-1.02517,2.67278-5.07748,4.93934.40855,7.00856C675.96349,563.10484,678.75111,561.07275,675.86656,558.29858Zm-2.85323,9.49414c-.29429-.08112-.65844-.30571-.86409-.205-.22456.10976-.30241.52054-.44425.80014.25894.07465.60111.28732.75793.19252C672.71451,568.42821,672.84351,568.07244,673.01333,567.79272Z" style="fill:#2a292a"/><path d="M688.07485,564.079c4.40751.9246,2.07745,5.77927,4.95956,8.11377,5.52483-16.44123,3.89593-32.39309-1.59351-48.17728,3.85757,1.75414,5.37443,3.20117,8.1655,6.43327,1.44115,1.66877,3.74227,2.57746,5.24825,4.20676a44.81357,44.81357,0,0,1,12.04492,30.44314c.128,8.49856-5.2715,14.99736-10.90581,20.91985A35.71087,35.71087,0,0,1,701.7,589.37164a7.54619,7.54619,0,0,1-1.38081-5.60069c.62349-4.19371-2.69313-5.90095-7.10465-3.97507l.06154-.04715c-1.415-.71851-2.848.96439-4.26068-.03245,4.85723-5.17407,1.32768-9.74445-1.03137-14.39913Q688.02939,564.698,688.07485,564.079Z" style="fill:#d6d5d5"/><path d="M410.31456,587.43854c-23.5792-20.48411-7.21415-51.40178,14.08386-63.43276-6.64182,16.49186-7.24059,32.9118-1.68112,49.49371-3.80814.85147-6.61718,4.38445-10.93936,4.00625-.82173-.07186-1.01267.9009-.61365,1.93627C412.22561,582.1959,410.941,584.80366,410.31456,587.43854Zm-2.13721-5.28041-.03215.32472.40416-.13144Z" style="fill:#d6d5d5"/><path d="M605.25905,546.6664q.46055-.05874.92129-.11724l.5352.906q.24809-.27282.49624-.54551c4.65717-11.66488,11.54482-21.56187,22.6731-28.36073-9.16743,15.66124-12.24722,32.15164-7.60611,49.77983-2.71514.73828-6.0136-1.40458-8.30258,1.91725-.51986.75438-2.95877.38923-3.1037-.65476-.63294-4.55974-4.98372-7.82593-3.97679-13.03029C607.53181,553.27331,607.67386,549.64716,605.25905,546.6664Z" style="fill:#d6d5d5"/><path d="M493.10327,571.65334c-1.7283-2.98761.94443-5.29042,1.34573-7.95078,2.28036-15.11726-.07582-29.20079-8.31229-42.187a5.444,5.444,0,0,1-.419-1.47137c6.6077.60793,15.46376,12.05,23.05848,29.75365-1.57211,5.11691-.13536,10.48642-1.33348,15.65884-.46142,1.992-.87169,4.471-3.28644,3.31448C499.38217,566.48434,496.37431,569.15965,493.10327,571.65334Z" style="fill:#d6d5d5"/><path d="M669.308,575.39444c2.68778-1.69,4.93587-4.11272,8.14263-4.93706,1.86368-.47909,4.071-.87833,5.39745.44234,1.40374,1.39748,1.27554,3.5392.96908,5.72021-1.20511,8.57562-7.4225,12.0062-14.42681,14.62232-3.74392,1.39837-7.84082,2.71562-10.52168-1.79913-2.59952-4.37761.59465-6.9841,3.45159-9.56055A26.54364,26.54364,0,0,0,669.308,575.39444Z" style="fill:#bababa"/><path d="M635.14369,586.01685c-5.64781-.04753-9.45412-7.25229-6.55484-12.40735,1.69585,5.15747,2.88828,6.8642,8.67138,5.62908.496,2.59737-2.90545,4.00068-2.04709,6.70818Z" style="fill:#2a292a"/><path d="M657.00145,580.80045c-1.43369-1.19456-2.81374-1.984-4.82289-.92244-1.06565.56287-2.29264-.13486-3.0561-1.23741-.43568-.62915-.5949-1.38264-.01945-1.82371,1.05677-.80977,2.49779-1.87531,3.62444-.747,1.81374,1.81675,4.76283.55171,6.30458,2.697l.04914-.07566a2.93391,2.93391,0,0,0-2.14585,2.15236Z" style="fill:#2a292a"/><path d="M639.31864,568.42187c3.39242-.17085,3.23952,4.2965,6.22858,4.87014.356.06831.16739,2.41663-1.32035,2.66162-1.75378.28911-5.33935-5.51932-4.82307-7.61465Z" style="fill:#2a292a"/><path d="M642.51841,594.37308a40.52171,40.52171,0,0,0,16.3216,2.26441C653.25079,596.95853,647.44043,598.88,642.51841,594.37308Z" style="fill:#d6d5d5"/><path d="M664.19158,564.15516c-.74993,1.23829,1.63155,2.92221-.50431,3.89637-.61.27833-1.18221-.18809-1.51271-.90318-1.0511-2.27417.68-2.46707,2.09627-2.91942Z" style="fill:#2a292a"/><path d="M609.92008,503.62713c-.888.4507-.56071,2.919-2.10771,1.7791-.988-.72782.573-1.88614,1.12346-2.79641Q609.4277,503.11819,609.92008,503.62713Z" style="fill:#2a292a"/><path d="M693.21451,579.79588c1.12833.59316,1.12659,1.57618,1.03431,2.69533-1.69461-.54829-1.04013-1.738-.97318-2.74223Z" style="fill:#d6d5d5"/><path d="M422.784,573.97655q.9294-.15835,1.85882-.31686l.477.951q-.13925,1.02759-.27849,2.05516C423.08783,576.58951,422.88241,575.3241,422.784,573.97655Z" style="fill:#d6d5d5"/><path d="M686.41136,583.94066q.80171-1.0924,1.60353-2.18482C688.30314,583.09033,687.65963,583.73837,686.41136,583.94066Z" style="fill:#d6d5d5"/><path d="M687.94712,581.8343q.56189-1.06788,1.1235-2.13576C689.1375,580.64367,689.57609,581.78487,687.94712,581.8343Z" style="fill:#d6d5d5"/><path d="M492.87277,483.93055c.37362-.37542.28064-1.38975,1.12645-1.00369.16635.07586-.12446,1.15749-.20239,1.77619Q493.33687,484.31769,492.87277,483.93055Z" style="fill:#2a292a"/><path d="M424.87368,577.33311q.72045,1.21465,1.44078,2.42931C424.96085,579.47255,424.59014,578.59764,424.87368,577.33311Z" style="fill:#d6d5d5"/><path d="M370.4917,501.32235c-.16757.19443-.39338.57365-.49208.54291a2.32823,2.32823,0,0,1-.677-.52782c.11348-.12542.25346-.37225.33569-.35419A4.60231,4.60231,0,0,1,370.4917,501.32235Z" style="fill:#2a292a"/><path d="M733.83353,569.37626c-.15183-.939-.17523-1.83247.83584-2.35744Q734.25137,568.19773,733.83353,569.37626Z" style="fill:#d6d5d5"/><path d="M434.65533,580.29664c.094-.74044,1.33322-2.08151-.79928-1.68861-1.26994.234-2.42228,3.38216-3.77642.13283-.92593-2.22208-4.05216-4.39954-.55836-6.86788,2.09333-1.479,1.53965-2.96847.56309-4.65936l-.0802.10127c3.395.28885,6.572,1.1208,8.43286,4.30093,1.25226,2.14033,3.26172,2.47151,6.31288,3.47735-1.56511-2.68558-1.89375-4.78484-4.179-5.78067-2.914-1.26972-1.526-3.69458-.04273-4.054,2.873-.6962,4.76742-2.50611,7.0459-3.98394,2.01154-1.3047,4.28544-.56427,6.34711.61661,3.407,1.95135,6.1831.475,8.91047-1.66263,1.12068-.87834.47883-3.67317,2.78969-2.9473,2.9718.93347,6.81237-.19646,8.88892,2.05882,2.37406,2.57848.82963,5.94658-.413,9.03469-.84365,2.0966-4.40059,3.1359-2.56674,6.29-.54642,2.40877-2.48512,1.92626-4.15242,2.00737-5.06589.16693-10.08179,2.0331-15.20458.41078-1.11926-.3545-1.45523.54944-1.76768,1.3606-.37076.96249-.15822,1.84286.92371,1.89545,5.37968.26122,4.82725,3.27912,3.64262,7.05647-.53049,1.69153-.08972,3.68889-.08972,5.72465-5.9695-.834-12.13153-.28467-14.84444-7.03974-4.49833.13574-3.60113-2.57683-2.76516-5.258q.32109-.56979.64356-1.13842c-.1558-.01521-.38667-.10342-.45486-.03308-.3599.37073-.59358.78632-.08444,1.23195q-.90654.16749-1.81306.33486Q435.10971,580.75724,434.65533,580.29664Z" style="fill:#888"/><path d="M467.37811,576.67214c1.6673-.08111,3.606.4014,4.15242-2.00737,1.9494.14817,2.9581-1.53094,4.40026-2.34413,1.80351-1.01712,3.54939-1.45223,5.21469-.07072,1.74731,1.44944,3.10221,3.17684,2.668,5.75025-1.31583,7.79855-12.77155,16.35276-20.65508,15.4421a5.34288,5.34288,0,0,1-4.83891-3.95086c-.8043-2.6904.32647-4.96177,2.18737-6.98157C462.56676,580.27421,466.116,579.82477,467.37811,576.67214Z" style="fill:#bababa"/><path d="M438.05315,519.615c4.06932.01711,5.15746,2.9392,4.96094,6.11286-.32865,5.30728-7.174,12.33656-12.286,13.99247-2.8106.91028-3.94957-.40215-4.71961-2.3786C423.658,531.30871,431.52174,519.821,438.05315,519.615Z" style="fill:#bababa"/><path d="M450.15072,518.64185c3.5534-.31147,4.79824.35805,4.72631,2.68926-.09775,3.16764-2.4921,3.26346-4.64958,3.45935-1.89891.17224-3.70309-.7021-3.49991-2.77177A3.76893,3.76893,0,0,1,450.15072,518.64185Z" style="fill:#bababa"/><path d="M469.94342,555.54152c-8.41578-1.28354-16.82978-2.42575-25.19582.31268q-.24006-.65172-.48016-1.30357c8.84239-3.273,17.69262-2.18772,26.54476-.0479Z" style="fill:#888"/><path d="M456.02663,544.78831c-.05464,2.33969-1.72457,3.27177-3.54969,3.69357a2.06216,2.06216,0,0,1-2.67721-2.205c.142-1.71637.38942-3.72628,2.954-3.8112C454.502,542.40793,455.71354,542.91376,456.02663,544.78831Z" style="fill:#bababa"/><path d="M490.64117,561.82536c-.596-3.78027-1.05038-6.28524-1.35741-8.80833-.11146-.91572-.39819-2.20484,1.22285-2.23639,1.45278-.02827,1.63694,1.11205,1.5885,2.13272C491.977,555.403,492.54087,558.008,490.64117,561.82536Z" style="fill:#bababa"/><path d="M430.08436,567.21362c-1.14518.52916-1.27779,2.46568-3.72448,2.09343,2.11625-4.38255,3.75385-8.672,8.63976-10.52393q.43878.47662.87757.95312c-1.68593,2.7383-4.89566,4.29142-5.87326,7.57967Z" style="fill:#888"/><path d="M434.99964,558.78312c3.04753-2.42322,3.04753-2.42322,7.04494-2.70953a14.76557,14.76557,0,0,1-6.16915,3.66151Q435.43932,559.26019,434.99964,558.78312Z" style="fill:#888"/><path d="M424.64283,573.65969c-.269-.76.14256-1.22371.70322-1.62257q.46194.41711.92387.8341c-.22081.68759-.24326,1.50686-1.15,1.73931Q424.8813,574.13524,424.64283,573.65969Z" style="fill:#888"/><path d="M489.95845,572.6645a1.42349,1.42349,0,0,1-.74279-1.94108c.0592-.13068.64637-.17706.65456-.1521.18966.5777.33295,1.17048.48552,1.76Q490.15658,572.49593,489.95845,572.6645Z" style="fill:#888"/><path d="M425.34605,572.03712c.28853-.6777.50154-1.98469,1.304-1.52156,1.02365.591.40585,1.65286-.38017,2.35566Q425.808,572.4541,425.34605,572.03712Z" style="fill:#888"/><path d="M488.766,566.58333c.37932.84956,1.14117,1.988.172,2.53868-.94046.53448-.9868-.78138-1.2616-1.42727Z" style="fill:#888"/><path d="M487.67633,567.69474a2.27155,2.27155,0,0,1-1.19706-1.974l1.1939-1.13728q.546,1.00077,1.09231,2.00078Q488.22137,567.1386,487.67633,567.69474Z" style="fill:#888"/><path d="M444.7476,555.8542c-.91.22737-2.16335,1.1592-2.5214-.29709-.19428-.79012,1.2414-.83385,2.04125-1.00648Q444.50754,555.20235,444.7476,555.8542Z" style="fill:#888"/><path d="M486.47927,565.72071c-.49638-.70356-1.72039-1.469-.81744-2.2762,1.07228-.95869,1.48323.45894,2.01114,1.1393Q487.07632,565.15188,486.47927,565.72071Z" style="fill:#888"/><path d="M470.8122,554.50273l.38831,1.12726c-.41861-.03106-.83722-.06224-1.25644-.09088Q470.37751,555.02332,470.8122,554.50273Z" style="fill:#888"/><path d="M627.23432,533.4086c-.12349-4.018,6.24784-13.45774,10.11942-14.69913,1.9605-.62859,4.23731-.96091,5.82715.70077,1.52613,1.59507,2.59892,3.61239,1.74588,6.03288a21.86113,21.86113,0,0,1-10.60842,12.64373C630.43855,540.10854,627.37365,537.94223,627.23432,533.4086Z" style="fill:#bababa"/><path d="M688.07485,564.079q-.04543.619-.09085,1.23816c-.824.04246-2.90188-2.67151-2.08615.85591.2325,1.00533,1.53,1.75629,1.36554,3.6961a18.279,18.279,0,0,0-10.25224-1.31649c1.77354-1.42929,1.89966-3.03754,2.72782-3.78305,1.00585-.90546,1.12833-2.60814,3.12191-2.88761,1.18022-.1654.08722-1.72143-.66065-2.32486-1.31826-1.06376-2.75223-1.98367-4.13687-2.96429q.506-.52986,1.01028-1.05869C683.35943,557.023,687.81086,558.33673,688.07485,564.079Z" style="fill:#888"/><path d="M658.49528,519.71968c-.42553,2.69775-2.97426,3.01942-4.88116,3.48831-1.53609.37776-3.67508.43049-4.07774-2.36928-.50155-3.48686,2.30444-3.45973,4.13241-3.93686A3.81538,3.81538,0,0,1,658.49528,519.71968Z" style="fill:#bababa"/><path d="M663.76516,559.76767c1.28066-3.12792,7.08938-5.04923,9.3147-2.99648.63371.58467,1.43562,1.30559-.13,2.32537-2.83424,1.8459-5.72672,1.28569-8.6853,1.00115A3.71705,3.71705,0,0,0,663.76516,559.76767Z" style="fill:#888"/><path d="M642.81457,551.52982c.7477-1.56111,1.28654-2.80193,1.925-3.98889.74435-1.38391,1.72247-2.89229,3.40206-2.70294,1.62062.18277.78107,1.96187,1.148,2.99509.92929,2.61688-1.07014,2.21954-2.46863,2.538C645.66976,550.63336,644.54732,551.02208,642.81457,551.52982Z" style="fill:#888"/><path d="M655.46865,547.30785c-3.15711-.10139-3.89033-.93816-3.64835-2.63868.29752-2.09115,2.01126-2.75022,3.60016-2.96226,1.26817-.1692,2.8657.57085,2.49519,2.34692C657.508,546.00784,656.25541,547.3479,655.46865,547.30785Z" style="fill:#bababa"/><path d="M691.346,547.69556c2.67277,4.34428,1.721,7.56484,1.81751,11.45461C691.01211,555.50045,690.90431,552.31842,691.346,547.69556Z" style="fill:#bababa"/><path d="M675.86656,558.29858c2.88455,2.77417.09693,4.80626.40855,7.00856C670.78908,563.23792,674.84139,560.97136,675.86656,558.29858Z" style="fill:#888"/><path d="M675.13356,555.50451q-4.25481-.97188-8.50959-1.944.47373-.52719.9475-1.05464a18.65708,18.65708,0,0,1,8.5225,1.81574Z" style="fill:#888"/><path d="M607.21178,546.90962q-.24815.27282-.49624.54551l-.5352-.906c-.30934-.70431-.02628-1.12688.64575-1.36452Q607.01892,546.04719,607.21178,546.90962Z" style="fill:#888"/><path d="M666.624,553.56051c-.87892-.09126-2.07473-.81547-1.74053-1.27251.62074-.8488,1.82828-.56857,2.68781.21813Q667.09785,553.03312,666.624,553.56051Z" style="fill:#888"/><path d="M676.094,554.32161c1.01515.35006,2.29752.04094,2.97964,1.21256q-.50468.52909-1.01025,1.05869-1.46523-.54507-2.92929-1.08974Q675.6135,554.91376,676.094,554.32161Z" style="fill:#888"/><path d="M673.01883,567.79779c-.17532.27465-.30432.63042-.55591.78264-.15682.0948-.499-.11787-.75793-.19252.14184-.2796.21969-.69038.44425-.80014C672.35489,567.487,672.719,567.7116,673.01883,567.79779Z" style="fill:#888"/><path d="M656.93532,580.84354a2.93391,2.93391,0,0,1,2.14585-2.15236C659.06441,580.10754,658.71918,581.19551,656.93532,580.84354Z" style="fill:#888"/><path d="M650.72287,541.3486l-.46041.72435-.27054-.55476.8256-.089Z" style="fill:#888"/><path d="M650.81752,541.42921l.3476-.64867c.00234.11229.052.275-.00272.32636a1.87371,1.87371,0,0,1-.4395.24158Z" style="fill:#888"/><polygon points="408.177 582.158 408.549 582.351 408.145 582.483 408.177 582.158" style="fill:#888"/><path d="M437.37712,580.88283c-.50914-.44563-.27546-.86122.08444-1.23195.06819-.07034.29906.01787.45486.03308q-.32213.56883-.64356,1.13842Z" style="fill:#2a292a"/></svg>