<svg id="Layer_1" data-name="Layer 1" xmlns="http://www.w3.org/2000/svg" viewBox="0 0 1133.85827 1133.85827"><path d="M415.28507,563.77986s8.77946,9.54958,10.93581,12.63009,6.46907,9.85763,8.4714,11.24386,11.70594,9.39555,20.79344,9.39555,30.189-17.5589,30.189-19.71525,7.70127-19.25319,7.70127-19.25319l5.54492-20.33136-34.34768-24.64407-27.57055-5.23687-14.01632,8.77945-4.92882,21.56357Z" style="fill:#efbe52"/><path d="M629.82449,514.85538l43.67274-7.31172,13.63538,26.08507s4.34751,16.20436,3.55705,17.78528-4.34751,24.10893-8.10218,27.666-26.08507,17.19244-27.8636,17.19244-18.539-1.85346-22.21323-6.26231-10.39311-17.25378-10.39311-17.25378-6.9165-9.88071-7.90457-18.18051S629.82449,514.85538,629.82449,514.85538Z" style="fill:#efbe52"/><path d="M429.20694,575.71259l-2.43309-2.59719c-.84743,1.17432-1.6761,2.32269-2.61177,3.6193-1.15845-1.39863-2.09257-2.52644-3.0267-3.65414-.43895-1.64629-.74546-3.34229-1.33824-4.931a68.318,68.318,0,0,1-4.007-32.53309c.81409-6.81155,3.53533-12.52615,9.10183-18.33966-12.49094,2.61032-23.075,5.68722-31.74541,13.51034-2.43214,2.19449-3.56081,4.17282-2.86088,7.59277a117.49917,117.49917,0,0,0,16.13021,39.08525c-7.12218.112-12.96914-2.845-17.86895-7.75719-4.05323-4.06356-8.96217-7.77239-11.56667-12.66688-3.91191-7.35149-9.67626-12.31229-15.94329-17.22295a61.34673,61.34673,0,0,1-15.04416-16.7717l-.09229.0606c4.4193,1.32834,7.59159,5.67524,12.84666,5.31479-7.89912-5.91757-13.3894-13.76013-18.4913-21.87556a17.59631,17.59631,0,0,1-3.44718-8.89978c11.39743,13.09275,23.844,19.17269,40.07571,12.57353-4.59577-4.92446-9.91063-8.88119-12.77193-14.8915a2.50462,2.50462,0,0,0,.76429-.59608c6.2312,2.83559,12.39912,5.52262,19.33207,6.69968a40.72194,40.72194,0,0,0,15.38934-.03491,121.79086,121.79086,0,0,1,55.51174.632c9.56367,2.39177,17.69785,7.53692,25.48742,13.256,5.27584,3.87349,10.63893,7.78037,15.21794,12.41187a40.20608,40.20608,0,0,1,10.28933,17.40193c.61046,2.16-2.64953,2.47616-1.57473,4.49875q-5.944-4.57289-11.88811-9.14606c2.33033,7.57274-1.02769,14.57526-.79809,21.66074.05615,1.73294-.83908,2.85717-2.85552,2.03161-2.09107-5.15286-4.41856-10.226-6.18789-15.48759a8.58141,8.58141,0,0,0-6.40489-6.04423c-2.64088-.66578-3.86025,1.99766-5.61334,3.2753-.781.56915-2.58631,1.75054-1.30234,2.80964,2.39276,1.97371,1.07641,4.50478,1.67414,6.70552l.048-.0528c-3.12675-.80083-6.11991-2.24155-9.46751-1.98423-4.94279.22632-10.07171-1.13989-15.336,1.88833,5.56182.15086,10.43518-1.75453,15.39077-.55579a7.70042,7.70042,0,0,1-3.984,7.78473c-1.99482,1.20206-4.18185-1.80366-6.25582-2.40287-2.61877-.7566-6.35809-1.56512-8.44113.99684a39.2124,39.2124,0,0,0-5.38527,9.77792c-.64434,1.5552-.7089,3.33686-2.23817,4.39586-2.12472,1.47146-1.03864,2.92359-.05457,4.40187-1.54949.58142-3.24269-1.33864-5.02831.56876,2.05409,2.05281,2.89239,5.56856,7.03094,5.33544l-2.01942-5.92107c2.83905,1.77595,5.4942,3.6977,4.08072,7.68433-.79577,2.24439,1.38394,1.92707,2.21864,2.62492,1.11665.93359,1.654,2.00072,1.0218,3.13649-.8422,1.51316-1.98674.57342-3.04535-.04964-4.8447-2.85127-8.17675-7.43422-12.39285-11.01281a3.22723,3.22723,0,0,1,.93935-5.542q.56561.23977,1.13117.47965Zm29.86523-33.5838c-2.78919-2.64679-4.30253-2.07593-4.5076,1.79438-3.12548-.56252-5.064.90386-5.37759,3.87438-.23845,2.25841,1.98082,1.4653,2.9223,1.24238,2.81-.66523,3.96572-2.40258,2.33831-5.22325,1.98626.18163,4.11438,2.415,5.887-.41194.88468-.65525,2.67414-1.20448,1.30581-2.56131C460.47308,539.68585,459.56315,540.9157,459.07217,542.12879Zm-20.28273-8.74089c.65723-1.57385,1.34524-3.13562,1.96444-4.72437.91349-2.34385,1.49741-4.82779-.58952-6.7526a6.92725,6.92725,0,0,0-6.6926-1.51828c-6.55129,1.92522-11.44861,5.72025-13.011,12.8172-.53685,2.43867-.80182,4.91779,1.36429,6.69671,2.1251,1.74515,4.624,1.38745,6.81068.17748,3.13942-1.73728,6.1085-3.78365,9.15187-5.69994,2.64159,1.01-.98746,2.85211.88854,4.21386a9.633,9.633,0,0,0,6.2089-3.28484c.83494-1.00024,1.40515-1.86652.43437-3.1119-1.02525-1.3153-1.9891-.45753-3.12744-.22321C440.92143,532.23951,440.79164,535.16019,438.78944,533.3879Zm.49579,15.584c2.08424-2.06862,2.82342,2.08341,4.99718,2.48113,2.5704.47035.43057-2.18183,1.83032-2.049.27842-3.24766-3.05773-2.3963-4.49781-3.50268C438.779,543.72254,440.608,549.26148,439.28523,548.9719Zm50.473.38261c-1.14633-2.15384.58174-5.071-1.90767-6.54576a1.51189,1.51189,0,0,0-1.95281,1.22112C486.044,546.46054,486.93109,548.60765,489.75825,549.35451Zm-28.30895-2.54662c1.26252,2.37392,2.716,4.57469,6.1712,2.54885C465.9359,547.21186,463.57386,547.345,461.4493,546.80789ZM360.07459,530.13616c.60528-.45491.58339-.72935.10909-.88263a9.83693,9.83693,0,0,0-1.16038-.23442c.02084.27956-.05978.71184.08338.8073A3.08146,3.08146,0,0,0,360.07459,530.13616Z" style="fill:#2a292a"/><path d="M641.63972,505.21214c14.73254-7.53178,30.789-6.846,46.62291-7.5409q5.62788.83034,11.256,1.66064c7.28394,1.8159,14.74559,3.35672,22.13536,1.9001,7.22785-1.42469,14.77242-2.286,21.21928-6.81149-1.83371,6.75531-7.55577,10.1259-11.61576,14.84263,13.905,7.94521,26.81044,1.47,40.34072-11.66157-4.424,13.19627-12.94632,21.9932-22.55432,29.97779q-.89189.71237-1.78569,1.42344l-.4999.99814q.60093-.13887,1.20185-.27778.96921-.60289,1.93845-1.20588c3.76328-1.045,7.40088-2.34309,10.481-5.04366a34.77013,34.77013,0,0,1-12.78181,15.10663c-8.632,5.72825-14.42041,13.83125-20.51583,21.73617-4.21978,5.47254-9.92406,9.359-14.42769,14.48776q-.414-.43546-.828-.8709c.06361-.59061.66479-1.55923-.15486-1.65879-1.02777-.12482-1.55806.88034-1.74022,1.89691l.05081-.0521c-1.18508.30893-1.99117.808-1.0832,2.16723l.04426-.08687c-2.18071-.45042-4.36318-1.09784-6.52981.0578-.06841-1.51025.9614-2.54031,1.65034-3.70487a107.93705,107.93705,0,0,0,13.599-35.27629,5.98822,5.98822,0,0,0-1.75772-6.00093c-7.1015-7.27791-21.482-13.55079-32.28556-13.78133,3.58793,3.62861,6.267,7.51224,7.51056,12.306,3.48245,13.42409.87316,26.2779-3.46775,38.98154-.73192,2.142-1.72606.77918-2.61988.06121-.64468-1.58-1.30294-3.15438-1.93072-4.74089-1.0607-2.68052.41313-3.62022,3.20139-4.025-2.03126-1.63229-3.99151-2.94992-4.6975-5.42047-.38478-1.3466-.96716-3.53809-2.8176-3.01371-1.271.36016-3.73961.418-3.33191,3.287.21859,1.53831-2.09039,2.154-2.25085,1.05719-.69871-4.77551-5.00236-3.08959-7.38952-4.67732-1.6236-1.39509-3.25978-2.75885-6.03226-2.064a8.6133,8.6133,0,0,0,5.14939,3.16608c2.87538,2.33964,6.83505,3.34846,8.60814,7.041l-.727.839c-10.7663-7.80389-22.199-11.02687-35.00181-5.21107-.86585.39332-1.88825.98685-2.94074.28731.0876-.79659.17526-1.59314.29442-2.67564-2.02058.53188-3.58866,2.17051-5.7887,1.85237-2.09687-.30319-2.62245,1.21235-2.79255,2.92228-.33181.165-1.256.07906-.32745.7772l.22852-.86156c3.05793.36641,5.21163-3.0081,8.41455-2.04191-.31984,2.46466-3.81928,1.74851-4.16871,4.18351l-.03423.028c-.63959.00886-1.58944-.29694-.98415.97433l-.06867.09765c-4.85182.76534-5.7759,5.29977-8.10814,8.4828-1.88843,2.71237-2.639,1.49074-3.40859-.85282-3.05061-9.28969-3.70483-18.79767-2.31694-30.08843-3.84747,5.00691-8.5389,6.765-11.37514,10.74013-4.69808-5.93385-.56074-11.22871,2.53387-15.13956,6.74265-8.52106,15.44194-15.27169,23.754-22.29694.83839-.80159,3.04447-.46489,2.20672-2.66174l-.17125.16339a1.13318,1.13318,0,0,0,1.71057-.51275l-.217.05273c1.66644,1.39567,2.15441-.18185,2.88484-1.1475l-.151.12631C639.046,507.75745,640.25055,506.29592,641.63972,505.21214ZM635.93789,544.883c2.87723-1.23572,7.36279.02895,7.61667-5.27544-2.01787,2.53208-6.91625.70742-7.53735,5.35767-1.40962-.08245-2.35362.35908-1.96075,1.98573.07168.29678.66822.46626,1.02249.69447Q635.5084,546.26418,635.93789,544.883Zm8.354,3.63821a11.08425,11.08425,0,0,1,1.533.19894,4.955,4.955,0,0,0,5.4707-1.86669,2.037,2.037,0,0,0-.22553-2.81649c-1.96471-1.39978-3.42314.89335-5.22373.94362-.17115.00475-.34313-.01893-.51472-.02942-5.51012-1.96645-5.69687,2.85577-7.93155,6.42138C640.27419,550.56377,643.02736,551.66568,644.29189,548.52116Zm-20.9982-8.28335c.04261,4.93475,2.63293,6.47906,7.076,3.85436,4.00723-2.36722,7.67388-5.24085,9.96854-9.51471,2.02449-3.7707.43388-6.97535-3.801-7.47589C629.28,526.24377,623.22474,532.24993,623.29369,540.23781Zm36.80071-5.6328c-1.742.34868-4.64666-.31566-3.45852,3.12947.36114,1.04721,2.02446,1.64355,3.09136,2.44639.3243-3.39805,4.23837-.84033,5.19894-3.14446a1.04007,1.04007,0,0,0-.8109-1.53423C662.82036,535.17588,661.50858,534.91662,660.0944,534.605Zm24.45182,14.36549c.65883,2.16643-.81465,4.887,2.03438,5.16436,2.66363.25933,1.12533-2.1561,1.51075-3.38911.74634-2.38808-.76718-3.20351-2.5193-3.36333C683.93937,547.23354,684.37176,548.51969,684.54622,548.9705Zm-54.85814,2.69958.34148-.76426a4.42461,4.42461,0,0,0-.77233-.11563c-.05782.00029-.20043.3265-.156.38063A3.70118,3.70118,0,0,0,629.68808,551.67008Z" style="fill:#2a292a"/><path d="M685.04233,568.84285c.89376.71791,1.8879,2.08077,2.61982-.06127,4.34091-12.70364,6.9502-25.55745,3.46775-38.98154-1.24357-4.79378-3.92263-8.67741-7.51056-12.306,10.80356.23054,25.18406,6.50342,32.28556,13.78133a5.98822,5.98822,0,0,1,1.75772,6.00093,107.93705,107.93705,0,0,1-13.599,35.27629c-.68894,1.16456-1.71875,2.19462-1.65034,3.70487l.1374-.09609a.898.898,0,0,0-.76893.26573c-3.1109-2.11157-5.74291-2.76357-7.69122,1.60845-1.55437,3.48807-4.37627,3.27485-7.243,1.53537-1.253-.76027-2.24818-2.2066-4.01376-1.22989,1.66774-3.04875,4.73073-6.06291.22941-9.26514Q684.05275,568.95934,685.04233,568.84285Z" style="fill:#d6d5d5"/><path d="M406.41587,577.46514a117.49917,117.49917,0,0,1-16.13021-39.08525c-.69993-3.42.42874-5.39828,2.86088-7.59277,8.67041-7.82312,19.25447-10.9,31.74541-13.51034-5.5665,5.81351-8.28774,11.52811-9.10183,18.33966a68.318,68.318,0,0,0,4.007,32.53309c.59278,1.58874.89929,3.28474,1.33824,4.931-1.6942.01922-1.25986-5.12544-4.75693-1.75383-.84413.81387.46067-2.34156-1.49782-3.53188C412.52457,571.11886,412.07133,576.85821,406.41587,577.46514Z" style="fill:#d6d5d5"/><path d="M462.05663,582.96945c-2.39116-2.4188-4.19317-4.60446.64332-6.51,2.169-.85455,3.832-3.06877,6.014-3.80271,3.03653-1.02136-1.8068-3.6603,1.06386-4.02822,1.37386-.17608.997-3.31767,2.89226-1.60787,1.07526.97,1.3745,2.34248-.438,3.35577-.59541.33291-.79622,1.37444-1.50246,2.70357,4.42335-.20165,8.41-.574,11.52374,2.42165.6157.59238,1.12236.42979,1.64518-.29251.92763-1.2816.42309-2.37386.19932-3.79054-.85719-5.42672-4.65732-8.91311-7.67389-12.93972l-.06375.06172c1.63207-1.76333,2.64379-.09035,3.82572.68647q4.29521,2.82318,8.60025,5.63133c2.89167,3.75305-1.32424,6.70542-1.13931,10.15355l.05173.053c-1.64217.576-.41808,2.39321-1.4034,3.25369l-.50573.86571q-.65858,1.14314-1.31713,2.28624c-5.53117,7.61152-11.24572,14.60954-21.67377,15.97323-5.73339.74976-10.92261-.22176-16.2897-1.53476-3.27889-.80217-2.05695-2.68356-1.04933-4.21651.49566-.75409.71959-5.06155,3.22423-.93683.19694.3243,2.516.76547,3.74839,2.2205,1.401,1.654,2.58928.18941,3.059-1.62795a45.97155,45.97155,0,0,1,2.222-7.396c1.09876-2.4432,2.43993-2.56718,4.35827-.9706-.47187.89852-1.014,1.76814-1.39825,2.70291-.85633,2.08332-1.82853,4.34622-.12414,6.31633,1.662,1.9213,3.77863.71972,5.77518.25773,5.70961-1.32116,9.569-5.12812,12.97935-9.53288a4.4466,4.4466,0,0,0,.24963-5.72975c-1.3434-1.908-3.02708-2.2835-5.35235-2.04254C468.67088,575.5263,465.34178,579.14662,462.05663,582.96945Z" style="fill:#2a292a"/><path d="M683.06315,569.07591c4.50132,3.20219,1.43833,6.21635-.22941,9.2651-7.998,10.84333-18.09971,18.1061-31.99569,19.02033-2.663.17522-5.09307-.58709-7.61167-1.1996-2.58033-.62752-2.83335-1.84131-1.89957-4.091,1.17684-2.83546,1.911-2.18645,2.71308.1216,3.21644-2.11291,4.99631,3.40764,8.34445.80867-.64012-3.88931,1.18365-7.53306,4.61354-10.48846a33.91815,33.91815,0,0,0-1.14124,3.94356,5.77544,5.77544,0,0,0,1.63287,5.24c1.59048,1.49629,3.62843.81119,5.25188-.14493,3.84015-2.26166,7.87366-4.30277,10.72092-7.92819,1.381-1.75845,2.98337-3.47494,1.70042-5.96762-1.33616-2.596-3.71161-2.64408-6.2206-2.57216-4.89707.14044-7.9311,3.38762-11.10736,6.44163.333-3.49659-4.59053-4.07431-3.91474-8.08913,3.772,2.26836,6.85217.99014,10.44146-1.47493,1.13532-.77975,5.55712,1.75753,8.73045,1.22064,1.57512-.26652,3.29755,2.6834,4.43952.35982,1.295-2.63484-1.56331-3.72483-3.69442-5.585,3.07055.04782,4.49262-.944,3.06906-3.67293q.59364-.48309,1.18712-.966C680.01146,565.01011,682.64006,566.08747,683.06315,569.07591Z" style="fill:#2a292a"/><path d="M604.44551,548.9059c2.83624-3.97516,7.52767-5.73322,11.37514-10.74013-1.38789,11.29076-.73367,20.79874,2.31694,30.08843.76959,2.34356,1.52016,3.56519,3.40859.85282q.36937,1.20564.73883,2.41081-.468.27444-.93613.54941c-3.10846-.00007-5.7235,1.291-8.2365,2.99666-2.38531,1.61893-4.47054,2.1268-5.19146-1.75-.50935-2.73915-2.43348-3.095-5.35074-1.92879,1.571-1.639,4.0354-1.98022,3.058-4.46579C603.318,561.04435,604.89017,554.90751,604.44551,548.9059Z" style="fill:#d6d5d5"/><path d="M487.64679,575.01193c-.18493-3.44813,4.031-6.4005,1.13937-10.15371l.31513-.29646-.1131-.41784c2.0164.82563,2.91163-.2986,2.85548-2.03154-.2296-7.08548,3.12842-14.088.79809-21.66074q5.94411,4.57307,11.88811,9.14606c.74667,4.7258-.87856,9.27292-1.09623,13.93538-.11243,2.4079-1.20849,4.61377-4.31827,4.15146-.03341,1.78443,2.81417.59982,2.12832,2.41469-.41221,1.09082-1.71281.71733-2.76753.5703-2.18056-.304-4.71559-1.87839-4.55706,2.83639C493.97814,575.2614,490.108,575.66231,487.64679,575.01193Z" style="fill:#d6d5d5"/><path d="M629.69986,562.67821q-.02287-1.027-.04566-2.054l.06885-.09769c.93219.28773,1.50925.21552.98409-.97429l.03423-.028c4.39.70684,7.43817-2.65881,11.20657-3.87027,8.44084-2.71346,15.927-.9302,23.51623,2.73717,3.03629,1.46728,2.539,4.81514,4.61372,6.8456.98208.96116-1.73942,1.2444-2.94652,1.53844l.09345.0782c-.96808-.91114,1.35194-5.24174-2.92365-2.80113-.43226.2468-1.42761-.09357-1.94472-.46483-3.28632-2.35912-3.26621-2.38724-5.67682,2.07216-1.88917-6.338-8.20745-1.73106-11.26489-5.10949-2.03025-2.24337-4.248-.72266-6.38918-.66942-1.12854.02806-2.8778-.1156-2.51093,1.6665.34183,1.66051,2.23443-.87007,2.9765.61653.05865,1.85725-1.799,2.447-2.43845,3.81176-1.235,2.63586-2.72173,1.52725-2.96708-.21-.42856-3.03421-2.83427-2.38673-4.49854-3.1618Z" style="fill:#2a292a"/><path d="M657.83477,581.52478c3.17626-3.054,6.21029-6.30119,11.10736-6.44163,2.509-.07192,4.88444-.02381,6.2206,2.57216,1.283,2.49268-.31946,4.20917-1.70042,5.96762-2.84726,3.62542-6.88077,5.66653-10.72092,7.92819-1.62345.95612-3.6614,1.64122-5.25188.14493a5.77544,5.77544,0,0,1-1.63287-5.24,33.91815,33.91815,0,0,1,1.14124-3.94356Q657.41635,582.01884,657.83477,581.52478Z" style="fill:#f5f0a5"/><path d="M492.60118,512.2483c-18.76154-18.38306-41.77492-24.74116-67.50465-23.62464,8.15389-2.44992,16.17187-1.2662,24.19407-.57692a67.54362,67.54362,0,0,1,33.93547,12.32594,36.21969,36.21969,0,0,1,10.02026,10.96084Z" style="fill:#2a292a"/><path d="M617.44044,507.736a55.14985,55.14985,0,0,1,32.998-18.89641c8.54794-1.58791,17.25379-2.85969,26.08052-2.31471a46.97845,46.97845,0,0,1,11.53927,2.128c-12.27985-.12532-24.58279-.53232-36.56586,2.9893l.13848-.08688c-.97808.22352-2.19711-.139-2.74343,1.13306-3.2743-.48616-6.282,1.01887-8.76841,2.44425-7.3815,4.23155-15.23795,7.744-21.81543,13.3098Q617.872,508.08919,617.44044,507.736Z" style="fill:#2a292a"/><path d="M621.34888,572.06724q.4681-.27483.93613-.54941c.43267,3.086,4.47945,2.14364,5.31135,4.78456-2.56321-.26385-2.60931,1.38209-1.73373,2.85083,1.30567,2.19016,2.55446,4.71739,5.952,4.88426-.10926-1.259-.21032-2.42327-.31137-3.58751a1.79863,1.79863,0,0,1,2.11826,2.538c-2.12679,4.17257,1.18094,5.26087,3.50933,7.03529.83839.63887,2.523,1.00975,1.5503,2.68078-.8971,1.54117-2.094.82815-3.05029.09736C628.62814,587.44987,621.64622,582.06256,621.34888,572.06724Z" style="fill:#2a292a"/><path d="M443.03305,579.53985c.40206-2.0853,1.634-3.5468.096-4.81839-.99709-.82442-1.92187-2.22449-1.33153-3.015.92374-1.23684,2.78971-.01766,4.09436-.01371,2.31769.007-.33395,2.0421.02546,2.863C447.01353,577.05957,445.30365,577.87561,443.03305,579.53985Z" style="fill:#2a292a"/><path d="M631.50324,580.45c.101,1.16424.20211,2.32852.31137,3.58751-3.39752-.16687-4.64631-2.6941-5.952-4.88426-.87558-1.46874-.82948-3.11468,1.73373-2.85083l.95513,1.05253.972.148-.03283-.071c-.16422.85143.09879,1.29767,1.03983,1.101l-.0371-.0345c-.32255,1.09653.30953,1.639,1.1806,2.04283Z" style="fill:#f5f0a5"/><path d="M475.87246,563.15248c.79283,2.1004-.6064,3.10693-1.066,2.70462a26.99124,26.99124,0,0,1-4.29858-5.10947c-.29914-.43588.10173-2.19245,1.09364-1.67068C473.56129,560.10793,476.57156,560.45968,475.87246,563.15248Z" style="fill:#2a292a"/><path d="M461.78916,554.69814c-4.95559-1.19874-9.82895.70665-15.39077.55579,5.26425-3.02822,10.39317-1.662,15.336-1.88833Q461.7617,554.03185,461.78916,554.69814Z" style="fill:#f5f0a5"/><path d="M643.285,576.36057c1.61489-1.7456,2.744-1.302,3.88343-.79033,1.32193.59369,3.86026.66227,2.98111,2.67379-1.03356,2.36477-2.495-.29411-3.79026-.55426A17.17847,17.17847,0,0,1,643.285,576.36057Z" style="fill:#2a292a"/><path d="M667.13137,566.77519c-.09454,1.06238,2.143,1.73473.583,2.96445-.5944.46853-1.15883-.16632-1.59195-.74879-1.14073-1.53417-.50665-2.06958,1.10312-2.13682Z" style="fill:#2a292a"/><path d="M475.26651,557.54486a5.77062,5.77062,0,0,1-4.06463-2.195l-.04735.05216c2.30125-1.911,3.58963-.02656,5.01556,1.3422Z" style="fill:#2a292a"/><path d="M629.58706,562.60367c.95557,2.08182-.63179,2.48691-2.41535,3.34573a3.51145,3.51145,0,0,1,2.52818-3.27119Z" style="fill:#2a292a"/><path d="M618.30358,508.44239l-3.23136,3.0068.06993.11063c-.59984-2.10006,1.12536-2.79549,2.29944-3.8235Q617.87147,508.089,618.30358,508.44239Z" style="fill:#2a292a"/><path d="M676.9061,564.28321q-1.29051-1.24136-2.581-2.48273.54759-.546,1.0951-1.09213a5.58887,5.58887,0,0,1,2.67318,2.60873Q677.49974,563.80013,676.9061,564.28321Z" style="fill:#2a292a"/><path d="M364.11247,495.3285q-.9654-1.08413-1.93081-2.16818a5.87163,5.87163,0,0,0,.67617-.59223,2.46126,2.46126,0,0,1,2.01893,2.16433A2.50462,2.50462,0,0,1,364.11247,495.3285Z" style="fill:#2a292a"/><path d="M712.65428,574.80416c-.66756.93718-1.34936,1.84638-2.72495,1.39522l.07156.08293q-.00945-1.0815-.01893-2.163l-.05078.05213c.71633.59669,1.27841-.03874,1.89508-.23815Q712.24031,574.36867,712.65428,574.80416Z" style="fill:#2a292a"/><path d="M745.46987,492.75182c-.74084-1.04992-.01458-1.455.82139-1.61071.23362-.04352.58505.5481.88246.84839l-1.77214.65842Z" style="fill:#2a292a"/><path d="M615.07222,511.44919c-.21978.66555-.60911,1.11055-1.37648,1.0035-.05072-.00708-.1386-.35226-.08677-.39667.436-.37365.75757-1.17209,1.53328-.49668Z" style="fill:#2a292a"/><path d="M486.2951,578.31857c.98534-.86048-.23875-2.67772,1.40342-3.25369C488.25772,576.5942,488.00309,577.771,486.2951,578.31857Z" style="fill:#d6d5d5"/><path d="M484.47226,581.47052q.65858-1.14309,1.3171-2.28624A2.34615,2.34615,0,0,1,484.47226,581.47052Z" style="fill:#d6d5d5"/><path d="M631.674,580.54121c-.87107-.40384-1.50315-.9463-1.1806-2.04283C632.31961,578.34787,632.01924,579.43152,631.674,580.54121Z" style="fill:#2a292a"/><path d="M701.78171,576.42708a.898.898,0,0,1,.76893-.26573c.66555.555.3885.94518-.22191,1.27739Q702.05521,576.93293,701.78171,576.42708Z" style="fill:#2a292a"/><path d="M674.3251,561.80048q-.75009-.75654-1.50069-1.51092.36264-.41619.72642-.83682.93465.62781,1.86937,1.25561Q674.87267,561.25444,674.3251,561.80048Z" style="fill:#2a292a"/><path d="M745.40155,492.64792l-1.22132,1.31188c-.16225-.17773-.4985-.43948-.45969-.52011.358-.74433.82662-1.3364,1.74929-.688Z" style="fill:#2a292a"/><path d="M345.9928,523.04642l-.48581-.70707.59528-.057c-.065.27345-.13.54683-.19837.82247Z" style="fill:#2a292a"/><path d="M494.11773,512.54553c.5235.18264.95822.441.72834,1.09981a.504.504,0,0,1-.457.114c-.42287-.37161-.629-.81179-.19071-1.32454Z" style="fill:#2a292a"/><path d="M494.19839,512.43477c-.59881.48268-1.10113.17152-1.597-.19065.21482-.30074.42987-.60565.64491-.9106q.43571.606.87139,1.212Z" style="fill:#2a292a"/><path d="M476.42388,558.47886q-.57793-.46775-1.15662-.93476.45069-.39922.90078-.79812c.38841.564,1.3325,1.06595.19209,1.7946Z" style="fill:#2a292a"/><path d="M362.18165,493.16032l.04836-1.28084.62781.68861A5.87,5.87,0,0,1,362.18165,493.16032Z" style="fill:#2a292a"/><polygon points="641.597 561.237 641.491 560.914 641.802 560.966 641.597 561.237" style="fill:#2a292a"/><path d="M629.52348,577.50292l-.972-.148.93359-.65554Z" style="fill:#2a292a"/><path d="M709.92933,576.19938c-.32852,1.2502-.65718.23749-.986.00016l-.04461.087q.551-.00206,1.10219-.0042Z" style="fill:#2a292a"/><path d="M630.53048,578.53288c-.941.19667-1.20405-.24957-1.03983-1.101C630.48565,577.184,630.85353,577.53088,630.53048,578.53288Z" style="fill:#f5f0a5"/><path d="M437.78608,534.386c-3.0418,1.91441-6.01088,3.96078-9.1503,5.69806-2.18668,1.21-4.68558,1.56767-6.81068-.17748-2.16611-1.77892-1.90114-4.258-1.36429-6.69671,1.56234-7.09695,6.45966-10.892,13.011-12.8172a6.92725,6.92725,0,0,1,6.6926,1.51828c2.08693,1.92481,1.503,4.40875.58952,6.7526-.6192,1.58875-1.30721,3.15052-1.96444,4.72437l.13068-.0489c-.79446-.02748-1.0862.4559-1.16734,1.15327Z" style="fill:#f5f0a5"/><path d="M476.36013,558.54058c1.14041-.72865.19632-1.23062-.19211-1.7946-1.42386-1.37055-2.71224-3.255-5.01349-1.344-.59843-2.2001.71792-4.73117-1.67484-6.70488-1.284-1.0591.5213-2.24049,1.30234-2.80964,1.75309-1.27764,2.97246-3.94108,5.61334-3.2753a8.58141,8.58141,0,0,1,6.40489,6.04423c1.76933,5.26157,4.09682,10.33473,6.18789,15.48759l.11314.41777-.31513.29646q-4.3008-2.81451-8.60031-5.63117C479.00392,558.45023,477.9922,556.77725,476.36013,558.54058Z" style="fill:#efbe52"/><path d="M439.28523,548.9719c1.32273.28958-.50621-5.24936,2.32969-3.07056,1.44008,1.10638,4.77623.255,4.49781,3.50268-1.39975-.13282.74008,2.51936-1.83032,2.049C442.10865,551.05531,441.36947,546.90328,439.28523,548.9719Z" style="fill:#efbe52"/><path d="M438.78944,533.3879c2.0022,1.77229,2.132-1.14839,3.40258-1.40989,1.13834-.23432,2.10219-1.09209,3.12744.22321.97078,1.24538.40057,2.11166-.43437,3.1119a9.633,9.633,0,0,1-6.2089,3.28484c-1.876-1.36175,1.753-3.20389-.88933-4.21293l-.03411.1074c.37645.13285.86134.48243,1.1093.358.77806-.39042.3726-.98619.05807-1.51143Z" style="fill:#f5f0a5"/><path d="M435.41342,579.63562l2.01942,5.92107c-4.13855.23312-4.97685-3.28263-7.03094-5.33544,1.78562-1.9074,3.47882.01266,5.02831-.56876l.248-.24313Z" style="fill:#f5f0a5"/><path d="M454.44842,543.81525c1.62658,2.8221.4709,4.55945-2.33914,5.22468-.94148.22292-3.16075,1.016-2.9223-1.24238.31361-2.97052,2.25211-4.4369,5.377-3.87371Z" style="fill:#f5f0a5"/><path d="M489.75825,549.35451c-2.82716-.74686-3.71429-2.894-3.86048-5.32464a1.51189,1.51189,0,0,1,1.95281-1.22112C490.34,544.28355,488.61192,547.20067,489.75825,549.35451Z" style="fill:#f5f0a5"/><path d="M461.4493,546.80789c2.12456.53707,4.4866.404,6.1712,2.54885C464.16529,551.38258,462.71182,549.18181,461.4493,546.80789Z" style="fill:#efbe52"/><path d="M460.34044,543.40768c-1.77847,2.824-3.90659.59063-5.89243.4083l.116.10786c.20565-3.871,1.719-4.44184,4.50818-1.79505Q459.70631,542.76821,460.34044,543.40768Z" style="fill:#efbe52"/><path d="M459.07217,542.12879c.491-1.21309,1.40091-2.44294,2.56828-1.28536,1.36833,1.35683-.42113,1.90606-1.3029,2.56278Q459.70775,542.76894,459.07217,542.12879Z" style="fill:#efbe52"/><path d="M360.07459,530.13616a3.08146,3.08146,0,0,1-.96791-.30975c-.14316-.09546-.06254-.52774-.08338-.8073a9.83693,9.83693,0,0,1,1.16038.23442C360.658,529.40681,360.67987,529.68125,360.07459,530.13616Z" style="fill:#888"/><path d="M429.20694,575.71259l.16,1.24394q-.56557-.23987-1.13117-.47965Z" style="fill:#888"/><path d="M623.29369,540.23781c-.06895-7.98788,5.98629-13.994,13.2435-13.13624,4.2349.50054,5.82551,3.70519,3.801,7.47589-2.29466,4.27386-5.96131,7.14749-9.96854,9.51471C625.92662,546.71687,623.3363,545.17256,623.29369,540.23781Z" style="fill:#f5f0a5"/><path d="M675.4202,560.70835q-.9347-.62779-1.86937-1.25561c-1.77309-3.69257-5.73276-4.70139-8.60814-7.041l.88373-1.109c2.3863,1.59468,6.69-.09124,7.38866,4.68427.16046,1.09685,2.46944.48112,2.25085-1.05719-.4077-2.86907,2.06092-2.92687,3.33191-3.287,1.85044-.52438,2.43282,1.66711,2.8176,3.01371.706,2.47055,2.66624,3.78818,4.6975,5.42047-2.78826.40474-4.26209,1.34444-3.20139,4.025.62778,1.58651,1.286,3.16094,1.93072,4.74089q-.98949.11659-1.97912.23308c-.42309-2.9884-3.05169-4.06576-4.96993-5.75866A5.58754,5.58754,0,0,0,675.4202,560.70835Z" style="fill:#efbe52"/><path d="M645.33163,544.95112c.17159.01049.34357.03417.51472.02942,1.80059-.05027,3.259-2.3434,5.22373-.94362a2.037,2.037,0,0,1,.22553,2.81649,4.955,4.955,0,0,1-5.4707,1.86669,10.58879,10.58879,0,0,0-1.53308-.19556C642.9733,546.84962,645.23022,546.215,645.33163,544.95112Z" style="fill:#f5f0a5"/><path d="M660.0944,534.605c1.41418.31161,2.726.57087,4.02088.89717a1.04007,1.04007,0,0,1,.8109,1.53423c-.96057,2.30413-4.87464-.25359-5.19894,3.14446-1.0669-.80284-2.73022-1.39918-3.09136-2.44639C655.44774,534.28935,658.3524,534.95369,660.0944,534.605Z" style="fill:#efbe52"/><path d="M645.33163,544.95112c-.10141,1.26384-2.35833,1.8985-1.0398,3.57342-1.26447,3.14114-4.01764,2.03923-6.89175,2.848C639.63476,547.80689,639.82151,542.98467,645.33163,544.95112Z" style="fill:#efbe52"/><path d="M636.01871,544.96607c.6196-4.65114,5.518-2.82648,7.53585-5.35856-.25388,5.30439-4.73944,4.03972-7.61667,5.27544Z" style="fill:#efbe52"/><path d="M684.54622,548.9705c-.17446-.45081-.60685-1.737,1.02583-1.58808,1.75212.15982,3.26564.97525,2.5193,3.36333-.38542,1.233,1.15288,3.64844-1.51075,3.38911C683.73157,553.85753,685.20505,551.13693,684.54622,548.9705Z" style="fill:#f5f0a5"/><path d="M626.59439,557.46685c.17017-1.70977.69575-3.22531,2.79262-2.92212,2.2.31814,3.76812-1.32049,5.7887-1.85237-.11916,1.0825-.20682,1.87905-.29442,2.67564l.02879-.02729c-3.20292-.96616-5.35662,2.40835-8.41455,2.04194Z" style="fill:#efbe52"/><path d="M664.94269,552.41171a8.6133,8.6133,0,0,1-5.14939-3.16608c2.77248-.69482,4.40866.66894,6.03226,2.064C665.53185,551.67238,665.23727,552.042,664.94269,552.41171Z" style="fill:#efbe52"/><path d="M635.93789,544.883q-.42951,1.3812-.85894,2.76243c-.35427-.22821-.95081-.39769-1.02249-.69447-.39287-1.62665.55113-2.06818,1.96152-1.98529Z" style="fill:#efbe52"/><path d="M629.68624,551.67072a3.809,3.809,0,0,1-.585-.4999c-.04445-.05413.09816-.38034.156-.38063a4.42461,4.42461,0,0,1,.77233.11563C629.91574,551.16059,629.80193,551.41532,629.68624,551.67072Z" style="fill:#efbe52"/><path d="M711.82626,573.93326c-.61667.19941-1.17875.83484-1.89508.23815.18216-1.0166.71245-2.02176,1.74022-1.89694C712.49105,572.374,711.88987,573.34265,711.82626,573.93326Z" style="fill:#888"/><path d="M710.00089,576.28231q-.55116.00214-1.10219.0042c-.90788-1.35923-.10179-1.8583,1.08329-2.16723Z" style="fill:#888"/><path d="M747.25817,529.00275q.89331-.71136,1.78572-1.42341.42634.46828.85465.93786-.96912.60307-1.93839,1.206Q747.6177,529.35452,747.25817,529.00275Z" style="fill:#888"/><path d="M747.96015,529.72314q-.60095.13893-1.20185.27778.24995-.499.49987-.99817Q747.6177,529.35453,747.96015,529.72314Z" style="fill:#888"/><path d="M626.49553,557.38265l-.22852.86156c-.92859-.69814-.00436-.61225.32745-.7772Z" style="fill:#888"/><path d="M630.70714,559.55224c.52516,1.18981-.0519,1.262-.98409.97429C629.1177,559.2553,630.06755,559.5611,630.70714,559.55224Z" style="fill:#efbe52"/><path d="M462.05663,582.96945c3.28515-3.82283,6.61425-7.44315,12.14413-8.016,2.32527-.241,4.00895.1345,5.35235,2.04254a4.4466,4.4466,0,0,1-.24963,5.72975c-3.41034,4.40476-7.26974,8.21172-12.97935,9.53288-1.99655.462-4.11314,1.66357-5.77518-.25773-1.70439-1.97011-.73219-4.233.12414-6.31633.38424-.93477.92638-1.80439,1.39825-2.70291Z" style="fill:#f5f0a5"/><path d="M438.92012,533.339c.31453.52524.72,1.121-.05807,1.51143-.248.12443-.73285-.22515-1.1093-.358C437.83392,533.7949,438.12566,533.31152,438.92012,533.339Z" style="fill:#2a292a"/></svg>