<svg id="Layer_1" data-name="Layer 1" xmlns="http://www.w3.org/2000/svg" viewBox="0 0 1133.85827 1133.85827"><path d="M694.67436,579.20891c-6.66235,9.37761-15.70815,13.13423-27.16031,12.63307-7.14286-.31253-14.27829-.56074-21.39462-1.25528-7.91762-.77274-13.94921-4.21607-16.95141-11.99636-.53854-1.39557-1.29966-2.70484-1.958-4.05388-.11543-1.30327.277-3.10708-.4301-3.82778-4.16035-4.24014-3.69892-9.7705-4.66324-14.93518-1.99409-10.68-1.00819-21.25133.87116-31.79737a1.20635,1.20635,0,0,0-.06986.134l.33346-.05769q-7.00405,4.20732-14.00812,8.4147c-4.88318.36785-8.96625,4.4128-14.24535,2.98137,1.05653-1.87112,3.26541-1.47328,4.887-2.25872,2.36508-1.14575,2.40811-1.0905.77355-3.63461-.93852-1.46072.49726-1.91431,1.146-2.56385a102.85752,102.85752,0,0,1,31.5405-21.9495c5.21445-2.28927,10.2553-5.0991,16.01745-5.68077a2.84479,2.84479,0,0,0,2.77926-2.18212c.65854-1.75484,2.37173-3.64347,1.32282-5.31271-1.10625-1.76042-3.52292-.76891-5.27433-.54581a63.0117,63.0117,0,0,0-24.00143,7.84175,4.778,4.778,0,0,1-4.33622.79032c6.86356-8.31271,16.47794-9.798,25.76171-11.93023a9.71874,9.71874,0,0,1,3.40028-.09578c4.058.546,7.08531-.11831,6.701-5.99225,1.12512,6.043,4.96447,6.05406,9.26947,6.05413,13.537.00028,26.34808,3.70786,38.96867,8.215-4.385.526-8.5693,1.41238-12.63531-1.96265-1.6962-1.40784-5.11977-.689-7.7484-1.014-6.7107-.82974-13.32264-2.70791-20.15243-2.17368-1.548.1211-4.82508-1.58037-4.1497,2.3342.40646,2.35561.16821,5.2795,4.508,4.96125,12.98148-.952,25.68057,1.16787,38.0455,5.04755,9.35521,2.93526,18.707,5.96937,27.80127,9.60915,3.71765,1.488,7.1307,4.03845,10.67356,6.1137a79.47877,79.47877,0,0,0,28.71671,9.98258c-5.50886,4.73411-11.75795,5.64428-17.55146,7.22981.331,3.1428,5.7893.38319,4.58916,4.595-1.07728,3.78062-2.96457,6.92147-7.3811,7.587-1.84022.27723-3.63978.82542-6.6652,1.53258,3.15412.76995,5.18225,1.26512,7.21944,1.76237-5.83533,9.33945-12.12919,18.17418-20.43987,25.37371q-2.24577-.13173-4.49187-.26341l.22054.18131c-.02984-1.31074-1.23871-1.1295-1.95493-1.60325-1.23122-.81439-3.83657-.69447-2.73791-3.2886.81042-1.91361,2.23753-2.98214,4.53632-2.07957a6.94268,6.94268,0,0,0,2.25845.08811c1.10388,1.40554,2.36783,2.177,4.70248.85338-1.69352-.60741-2.94932-1.05785-4.20509-1.5083-3.80144-.46356-5.23308-1.5369-2.91705-5.72653,2.70933-4.901,4.29542-10.41649,6.506-15.6067,1.36079-3.195.66414-5.48411-1.76635-8.04015-7.54646-7.93607-17.21525-12.13282-27.44862-16.91346,2.66575,7.54324,3.02065,14.55763,2.87646,21.73066C704.11482,557.31473,699.4177,568.24166,694.67436,579.20891Zm-63.31094-14.28627q.67461-1.05384,1.34913-2.10768a5.24312,5.24312,0,0,0,3.61054-3.31546q2.06672-1.29724,4.13341-2.59441c1.35338-.403,2.70675-.80595,4.60417-1.37094-.36281,1.778-1.06517,3.2374-.84614,4.54137.52726,3.13868.5769,7.47857,4.64528,7.67669,4.627.2254,2.66088,1.61776,1.23565,3.36074-2.74839,3.36094-4.15329.98362-5.51154-1.35532-1.20654-2.07776-1.69881-5.40472-4.7965-4.88689-2.31262.38669-3.81882,3.4254-6.73928,3.11775,1.48782,2.61115-.51309,4.84315-.66407,7.24363a2.68573,2.68573,0,0,0,3.00474,2.64359,5.58054,5.58054,0,0,1,4.47537,1.23128c-1.82386.22253-4.21379.0895-2.8758,3.07164,1.15241,2.5686,3.56831,4.5445,6.13672,3.61089,3.08463-1.12126,1.255-3.52376.02092-5.35952.86817.29125,2.39268.42638,2.50432.89755,1.30952,5.52722,5.7202,4.85773,9.737,5.21665,3.21117.28685,6.46924-.75544,9.67029.79827,2.01953.98014,2.12745-.97658,2.72764-2.3958,1.01448-2.39873,1.79952-5.48767,5.63279-4.52064-1.0916,5.67079.54793,7.19465,6.00569,5.43751a29.41266,29.41266,0,0,0,5.06563-2.21617c4.475-2.44972,4.47248-3.6277.13883-6.83873a.98.98,0,0,0-1.49054-.35543l-3.293-.009c1.845-2.47435,4.38819-2.6175,7.07183-2.01378,6.4251,1.44558,7.984.25441,8.48645-6.95259-3.81426,2.173-7.70311,1.01914-11.58943,1.09441-4.06629.07876-6.82237,4.73056-11.12671,5.54334-1.65655.31281-3.39937,1.3233-4.87664.99472-.87-.19351-.8947-3.00878.40531-3.29013,3.92973-.85045,5.80229-4.59982,9.36576-5.95151,5.351-2.02969,7.10477-6.17482,5.08259-11.78317,1.77773.89419,3.17027,1.99669,4.70623,2.26025,1.72768.29641,2.29406,2.73218,4.34625,2.03911.79663,1.42508,2.16971,2.74286,3.4739,1.48947,1.17737-1.1316-.60809-2.1095-1.5126-2.92752-4.30131-2.12945-7.75857-7.07962-13.59354-4.08352l.0926-.052c-1.351,1.31465-3.55223,1.01593-4.14323.16017-3.40121-4.92442-4.38489-1.06169-5.96785,1.35518-2.25737,3.44654-5.64424,5.59217-9.56937,4.41266-3.64441-1.09525-6.60317-3.74986-5.12582-8.701-2.172.59966-1.396,3.88721-3.98644,2.97949-1.29092-2.93352-3.266-1.25249-5.06574-.754-2.27519,1.48772-5.28853,1.39752-7.30636,3.43265-1.371.79367-3.13734.974-3.9857,2.57872-2.0524.33136-2.90466,2.09645-4.09738,3.4487q-.52563,1.1252-1.046,2.251c-.05186.45568-.31807,1.11248-.11543,1.32929C630.37661,565.95622,630.91237,565.43225,631.36342,564.92264Zm46.1785-26.8712c-2.63337-2.285-4.28139,1.3918-6.63394,1.0919-3.29636-.42-2.877.97881-1.67166,3.22812a7.36561,7.36561,0,0,0,5.46851,4.2026c5.60442,1.0889,11.28267,1.85243,16.88127,3.54309-1.17253-3.0946-5.30528-3.89978-6.50308-3.72823-7.33891,1.05157-6.69594-4.22549-7.61194-8.41833,1.18214.03495,2.37075.0858,3.9637-2.1058C679.4016,537.00684,678.47174,537.52914,677.54192,538.05144Zm-50.23706-4.73781c.00637,4.44726,2.49259,7.11429,6.09526,5.78423,6.49852-2.39922,12.10384-6.38006,15.2941-12.70821,1.1265-2.23451,2.111-5.95325-2.07252-6.909C636.19784,517.09917,626.9094,525.18572,627.30486,533.31363Zm31.28568-15.22615c-2.373.31232-5.34218.53862-5.38253,3.627-.03328,2.55038,2.54314,2.857,4.72062,2.73365,2.54327-.144,5.33264-.91464,5.47745-3.6305C663.5414,518.27974,660.71486,518.28769,658.59054,518.08748Zm39.63107,44.429c-.22054-1.38189-.7676-2.35373-1.95082-2.69863-.89376-.26056-1.37527.26753-1.174,1.18642a2.83058,2.83058,0,0,0,2.14284,2.33C697.50657,563.39572,697.93023,562.77205,698.22161,562.51652Zm-13.04606,1.8945c.33882.4037.78532.9357,1.23178,1.46777.164-.4944.50508-1.01482.43765-1.47517a1.51643,1.51643,0,0,0-.92672-.99751C685.494,563.2848,684.809,563.41441,685.17555,564.411Z" style="fill:#2a292a"/><path d="M373.11545,572.36132c-4.22419-.19443-5.31172-3.97449-6.55421-6.72935-.92673-2.05474,2.94306-1.4248,3.79616-3.09878-4.46791-.25839-5.00253-.66977-13.85614-10.75685,1.91009-.50277,3.66462-.96465,5.54453-1.45954-2.88658-2.34145-7.69814-1.01362-9.29527-5.42942-1.07636-2.97614-5.51118-5.49255-.42487-8.96023-5.53067-2.18679-10.5474-4.17037-17.17176-6.78955,16.87665-1.45974,29.29435-9.02859,41.75882-16.87774,4.39377-2.76686,10.12422-3.35654,15.18221-5.11933a170.05877,170.05877,0,0,1,40.74341-9.058,25.21266,25.21266,0,0,1,5.642-.01953c4.9315.67591,8.34685-.44361,8.2749-6.72732-15.08277-1.12246-29.74266,2.04211-44.49547,5.06248,7.69814-2.978,15.14985-6.56318,23.548-7.14247,5.46777-.37713,10.92185-1.10237,16.39262-1.23526,3.66491-.08908,6.31235-.95412,7.03375-6.22965,3.966,9.34378,12.07016,5.05195,17.96677,7.32992,6.67141,2.57718,13.28781,4.72958,17.83689,10.87182-10.43621-4.07983-20.41279-9.66642-32.13044-8.579,1.30824,7.41468,1.371,7.11233,8.652,8.62991,6.43413,1.34116,11.58909,5.834,17.56479,8.29987,9.91622,4.09176,17.23888,11.35192,24.8394,18.468-1.4096,1.85271-2.5752.22993-3.70986.34964q-.70214-.13813-1.40284-.2796l.46616,1.328a29.701,29.701,0,0,0,12.51676,7.07054c-4.09805.10771-8.15566,1.21091-12.03331-.6861-5.36806-3.655-10.63826-7.47669-16.69579-10.09838-.438,1.57276.21267,2.74551.48049,4.01077,2.24531,10.60749,1.72767,21.2334-.30519,31.78837-.25507,1.3242.57785,4.32538-2.73678,3.77859-1.20971-4.477-7.30414-10.46783-11.17416-10.95769-.94993-.12027-2.063-.13806-2.459.85339-.40587,1.01634.30575,1.68654,1.28584,2.15128,3.25537,1.54318,2.76131,2.83488-.06072,4.57534-2.25,1.38775-4.30152,3.29425-3.81417,6.52781.12027.798-.32112,1.58517-1.28776,1.36117-2.43268-.56353-3.87183-3.5299-6.87522-2.85531-.54414.12222-2.76583-2.777-3.47113-3.241-2.03294-1.33725-3.33551-5.15994-5.44-4.39054-4.887,1.78657-10.05013-1.673-14.79649,1.57987-1.61093,1.10411-5.522.41947-5.63353,2.45405-.116,2.1155,1.96635,4.67258,3.69646,6.43691.8939.91156,3.05242.52955,4.57472,1.35161.47074.25428,1.89758-.6734,1.89371.76228-.004,1.47049-.13785,3.08818-1.42268,4.19661-1.04359.90019-1.50754-.496-1.99-.56632-7.85677-1.14575-10.528-9.63307-17.58527-11.60668,2.44446-4.38329,7.23276-4.90433,9.9811-8.06917a40.30916,40.30916,0,0,0,12.65164-5.174,25.28294,25.28294,0,0,0-13.56685,3.74539c-7.9685,2.4447-14.26374,6.72195-16.65881,15.27073-3.01377.02337-2.81048-2.3524-3.33653-4.32385-3.53206-13.2372-5.13095-26.53669-.98206-40.67046-4.59137,2.15429-8.52093,3.8568-12.31377,5.82406a60.49621,60.49621,0,0,0-8.20089,4.97681c-9.92775,7.35922-10.16635,8.22809-5.96684,19.80644a39.70509,39.70509,0,0,0,3.64342,8.24867c2.61261,3.99981,2.1774,6.50479-2.59785,7.80611l.19613-.10185q-.57466.07-1.14961.14015c-1.93654-.0353-3.9377-.204-4.65945,2.26716Zm54.73072-30.81193q1.7505-.93267,3.501-1.86526c-1.68575-.17852-3.71127-.81795-3.425,1.9487q-.76242.20384-1.52486.40775l.59577.76618Zm-16.03969-2.24414c6.63166.1163,17.56615-9.2535,18.37116-15.622.27738-2.1944.106-4.17708-2.4202-5.07469-8.55094-3.0383-21.31078,6.35947-20.84457,15.43648C407.07188,537.14057,408.13457,539.62511,411.80648,539.30525Zm25.76209-15.7444c3.28632.05706,6.282-1.69038,6.10094-3.67626-.24589-2.69689-2.4389-2.49744-4.2529-2.50072-2.47506-.00447-5.25606.14252-5.65219,3.31057C433.44521,523.24727,435.58258,523.54766,437.56857,523.56085Zm22.35232,22.38746c-2.187-3.12522-8.39926-8.74118-10.28111-9.49593C451.09043,545.50421,451.23757,545.64826,459.92089,545.94831Zm-23.65771-3.55669a5.05785,5.05785,0,0,0-1.51888-.987c-1.03023-.24388-1.17306.69-1.1029,1.3602a1.53784,1.53784,0,0,0,.98368.99137C435.39271,543.96221,436.04084,543.64592,436.26318,542.39162Zm-1.056,11.111c-.14324.16276-.36521.30856-.34791.41522a4.7663,4.7663,0,0,0,.30421.87138c.13-.10973.38251-.24053.368-.32536A6.0181,6.0181,0,0,0,435.20721,553.50264Zm-4.47465-8.764.33505-.27095c-.09721-.10583-.18867-.288-.29326-.29593-.10411-.00788-.22141.15934-.33293.24982Z" style="fill:#2a292a"/><path d="M378.63647,570.14655c4.77523-1.30132,5.21044-3.8063,2.59783-7.80611a39.70509,39.70509,0,0,1-3.64342-8.24867c-4.19951-11.57835-3.96091-12.44722,5.96684-19.80644a60.49621,60.49621,0,0,1,8.20089-4.97681c3.79284-1.96726,7.7224-3.66977,12.31377-5.82406-4.14889,14.13377-2.55,27.43326.98206,40.67046.526,1.97145.32276,4.34722,3.33667,4.32378q.356,1.04883.71174,2.09785c-1.22888,2.045-.59494,3.91792.60374,5.679,2.24742,3.30192,4.54749,6.56792,6.82567,9.84884-4.76451-1.99614-9.44036-2.98869-14.43771-.34224-3.50147,1.85424-6.03344-1.27621-8.51944-2.56693a9.47863,9.47863,0,0,0,5.24049-2.03548c-3.02952-2.49325-6.63433.12927-9.34056-1.90873-.758-6.21883-4.70631-1.63708-7.15783-2.12247q-1.2375-.19925-2.47505-.39827a4.27977,4.27977,0,0,0,1.00726-.47012c1.714-1.43372,6.08732-.15277,5.18659-4.00581-.84951-3.63384-4.0383-1.99341-6.4765-1.54911C379.2944,570.75354,378.94616,570.34376,378.63647,570.14655Z" style="fill:#d6d5d5"/><path d="M726.61446,570.21666a6.94268,6.94268,0,0,1-2.25845-.08811c-2.29879-.90257-3.7259.166-4.53632,2.07957-1.09866,2.59413,1.50669,2.47421,2.73791,3.2886.71622.47375,1.92509.29251,1.955,1.60318-1.46808-.25463-3.072-.22184-4.36975-.8372-1.58139-.74966-2.46349-.261-3.33782.90382-1.25239,1.66812.50543,2.23946,1.17284,3.20753-5.26851.05058-10.67262-1.458-15.64754,2.2267-.50867.37678-5.01-2.18714-7.656-3.39184,4.74334-10.96725,9.44046-21.89418,9.6879-34.20335.14419-7.173-.21071-14.18742-2.87646-21.73066,10.23337,4.78064,19.90216,8.97739,27.44862,16.91346,2.43049,2.556,3.12714,4.84517,1.76635,8.04015-2.21055,5.19021-3.79664,10.70572-6.506,15.6067-2.316,4.18963-.88439,5.263,2.91705,5.72653Q726.8644,569.89021,726.61446,570.21666Z" style="fill:#d6d5d5"/><path d="M623.00115,523.96414c-1.89265,10.558-2.87855,21.12939-.88446,31.80936.96432,5.16468.50289,10.695,4.66324,14.93518.70713.7207.31467,2.52451.43014,3.82778-7.51468-3.6118-12.91137-5.67944-18.845-2.28334-1.7197-13.30661-4.83553-26.64413.87823-39.786q7.00405-4.2073,14.00812-8.4147Z" style="fill:#d6d5d5"/><path d="M480.54338,564.07309c3.31451.54679,2.48159-2.45439,2.73666-3.77859,2.03286-10.555,2.5505-21.18088.30519-31.78837-.26782-1.26526-.91846-2.438-.48049-4.01077,6.05753,2.62169,11.32773,6.4434,16.69579,10.09838.57412,5.97007,1.32106,11.88147.99722,17.96134-.21086,3.95858-1.83806,7.63526-1.35816,11.75925.34884,2.998-2.29955,2.95284-4.30361,1.697-2.3562-1.47656-7.7888.35822-8.36016,3.17642-.12891.6358-.33978,1.11143-.69706.9558-4.53221-1.97437-2.62,6.45372-7.13148,4.40477,1.59082-3.019,2.05184-6.10812.57625-9.31761Q480.03355,564.65173,480.54338,564.07309Z" style="fill:#d6d5d5"/><path d="M479.52348,565.23085c1.47564,3.20935,1.01462,6.29843-.5762,9.31747-4.03465,11.50141-12.12151,15.88456-24.25191,16.55126-9.13762.50221-18.0409,1.65648-27.17687-.14908-3.45237-.68233-5.97036-3.064-9.29893-3.63768q-.915-.64323-1.83009-1.28527l.1429.0768c-2.2783-3.28085-4.57837-6.54685-6.82579-9.84877-1.19868-1.76111-1.83262-3.63405-.60372-5.67917,3.27774-.01423,4.56655,2.63229,5.46439,4.90706,1.15853,2.93533,2.51536,4.02422,5.79492,3.72055,1.60451-.14873,4.80845-.9733,5.10517,2.57383-1.75376.12592-3.341-2.16872-5.21141-.36136a1.84429,1.84429,0,0,0-.36535,2.5386c1.46393,1.664,3.49079,3.65066,5.57223,2.791,2.83018-1.16884,1.098-3.34078-.07754-5.04385a2.23426,2.23426,0,0,1,2.97929.84446c1.727,4.46909,5.41634,4.21537,9.19874,4.58615a51.77036,51.77036,0,0,0,11.86516-.66559c2.11455-.27416,3.53562-.28288,4.25246-3.16735a7.98778,7.98778,0,0,1,7.43167-6.25c-1.84795,1.94584-5.00767,3.79206-2.88114,6.85142,1.8524,2.66494,4.8609.83609,7.18447-.01269,3.44393-1.25814,7.4404-3.78495,6.18147-7.35434-.944-2.67637-5.58066-1.6677-8.62749-.4976a14.58349,14.58349,0,0,0-1.93671,1.09378c-1.386-2.72744,1.08635-2.97126,2.49917-3.50388a19.26877,19.26877,0,0,1,5.5249-1.13543c4.042-.25372,7.29476-1.33829,8.30182-5.88914A1.80443,1.80443,0,0,1,479.52348,565.23085Z" style="fill:#2a292a"/><path d="M378.63647,570.14655c.30969.19721.65793.607.923.55871,2.4382-.4443,5.627-2.08473,6.4765,1.54911.90073,3.853-3.47256,2.57209-5.18659,4.00581a4.27977,4.27977,0,0,1-1.00726.47012c-3.25924.11574-5.4138-1.476-6.72668-4.369l-.092.09069a5.72941,5.72941,0,0,0,4.61586-1.16773c.58159-.23551,1.91093.25156,1.19306-1.23958Z" style="fill:#2a292a"/><path d="M717.97787,580.37405c-.66741-.96807-2.42523-1.53941-1.17284-3.20753.87433-1.16487,1.75643-1.65348,3.33782-.90382,1.29778.61536,2.90167.58257,4.36975.8372l-.22061-.18124c.24738,1.37052,1.47018.98844,2.31158,1.29155C724.56777,582.29087,721.29616,581.42584,717.97787,580.37405Z" style="fill:#2a292a"/><path d="M382.31721,577.12857c2.45152.48539,6.39983-4.09636,7.15783,2.12247-1.6842.73682-3.33056,1.58427-5.06275,2.18212-2.04385.7055-3.29665-.945-4.02838-2.24972C379.71644,577.99318,382.1815,578.36536,382.31721,577.12857Z" style="fill:#2a292a"/><path d="M726.6036,578.21021c-.84143-.30311-2.06423.079-2.31161-1.29155q2.246.13174,4.49187.26348Z" style="fill:#d6d5d5"/><polygon points="399.765 497.689 399.289 497.49 399.778 497.297 399.765 497.689" style="fill:#2a292a"/><path d="M487.98544,501.93706c-.27827.167-.55866.47172-.792.439-.26018-.03649-.47753-.37957-.7135-.58927.2489-.16136.52146-.478.74067-.44452C487.49255,501.38386,487.72026,501.71543,487.98544,501.93706Z" style="fill:#2a292a"/><path d="M416.38946,586.02755q.91509.64239,1.83011,1.28527Q417.30447,586.67075,416.38946,586.02755Z" style="fill:#d6d5d5"/><path d="M505.61857,528.7399l.32918,1.05353q-.64993-.12661-1.29984-.25331Q505.13325,529.14009,505.61857,528.7399Z" style="fill:#2a292a"/><path d="M504.64793,529.54012c-.2014-.41563-.66988-1.09078-.56021-1.20407.639-.65994,1.11555-.13324,1.5308.40392Q505.13329,529.14,504.64793,529.54012Z" style="fill:#2a292a"/><path d="M691.71121,558.39386c-2.04714.68407-2.61352-1.7517-4.3412-2.04811-1.536-.26356-2.9285-1.36606-4.70623-2.26025,2.02218,5.60835.26836,9.75348-5.08259,11.78317-3.56347,1.35169-5.436,5.10106-9.36576,5.95151-1.3.28135-1.27533,3.09662-.40531,3.29013,1.47727.32858,3.22009-.68191,4.87664-.99472,4.30434-.81278,7.06042-5.46458,11.12671-5.54334,3.88632-.07527,7.77517,1.07858,11.58943-1.09441-.50248,7.207-2.06135,8.39817-8.48645,6.95259-2.68364-.60372-5.22685-.46057-7.072,2.01392q-1.69947.81893-3.39864,1.63764c-1.0071-1.60576-1.66247-1.117-2.15147.36269l.23328-.24514c-1.13786.37852-2.54029.60761-1.30816,2.32492l.1977-.099c-3.8324-.96647-4.61744,2.12247-5.63192,4.5212-.60019,1.41922-.70811,3.37594-2.72764,2.3958-3.20105-1.55371-6.45912-.51142-9.67029-.79827-4.01676-.35892-8.42744.31057-9.737-5.21665-.11164-.47117-1.63615-.6063-2.50435-.89769q-1.64094-.66144-3.28181-1.32287a5.58054,5.58054,0,0,0-4.47537-1.23128,2.68573,2.68573,0,0,1-3.00474-2.64359c.151-2.40048,2.15189-4.63248.66407-7.24363,2.92046.30765,4.42666-2.73106,6.73928-3.11775,3.09769-.51783,3.59,2.80913,4.7965,4.88689,1.35825,2.33894,2.76315,4.71626,5.51154,1.35532,1.42523-1.743,3.3914-3.13534-1.23565-3.36074-4.06838-.19812-4.118-4.538-4.64528-7.67669-.219-1.304.48333-2.76337.84614-4.54137-1.89742.565-3.25079.96793-4.60424,1.37087l-1.44615-1.20909c2.01936-2.03458,5.0327-1.94438,7.30786-3.4321q.43424.56286.86848,1.12559c-.04174.77142-2.48023,1.81065-.15077,2.15631a3.72805,3.72805,0,0,0,4.42433-2.61694l-.07634.08916c2.59052.90758,1.81453-2.38,3.98651-2.97963-1.47735,4.95114,1.48141,7.60575,5.12582,8.701,3.92513,1.17951,7.312-.96612,9.56937-4.41266,1.583-2.41687,2.56664-6.2796,5.96785-1.35518.591.85576,2.79222,1.15448,4.14-.15842-.31553.40531-.83061.844.17239,1.01962l-.26178-.96939c5.835-2.9961,9.29223,1.95407,13.59354,4.08352Q692.6944,557.67041,691.71121,558.39386Zm-26.61714,12.90367c-1.82431,1.79432-6.44111-.67068-6.24655,3.66336.154,3.43035,3.38224,1.00414,4.719,1.25786C666.0108,576.68259,664.626,573.29821,665.09407,571.29753Z" style="fill:#5790ba"/><path d="M627.30486,533.31363c-.39546-8.12791,8.893-16.21446,19.31684-13.833,4.18347.95573,3.199,4.67447,2.07252,6.909-3.19026,6.32815-8.79558,10.309-15.2941,12.70821C629.79745,540.42792,627.31123,537.76089,627.30486,533.31363Z" style="fill:#b8dbea"/><path d="M677.46534,537.96515c.92174,4.19828.27877,9.47534,7.61768,8.42377,1.1978-.17155,5.33055.63363,6.50308,3.72823-5.5986-1.69066-11.27685-2.45419-16.88127-3.54309a7.36561,7.36561,0,0,1-5.46851-4.2026c-1.20532-2.24931-1.6247-3.64815,1.67166-3.22812,2.35255.2999,4.00057-3.37692,6.63394-1.0919Z" style="fill:#5790ba"/><path d="M676.4458,578.082q1.69928-.81872,3.39864-1.63764,1.64679.00429,3.29333.00879.74536.17769,1.4904.3555c4.33365,3.211,4.33619,4.389-.13883,6.83873a29.41266,29.41266,0,0,1-5.06563,2.21617c-5.45776,1.75714-7.09729.23328-6.00615-5.43779l-.19828.09885c.96835-.47417,2.33562-.72321,1.30833-2.32506l-.23314.24493C675.23484,579.6537,675.72109,578.15712,676.4458,578.082Z" style="fill:#b8dbea"/><path d="M658.59054,518.08748c2.12432.20021,4.95086.19226,4.81554,2.73016-.14481,2.71586-2.93418,3.48651-5.47745,3.6305-2.17748.12333-4.7539-.18327-4.72062-2.73365C653.24836,518.6261,656.21759,518.3998,658.59054,518.08748Z" style="fill:#b8dbea"/><path d="M639.86418,579.107q1.64088.66144,3.28181,1.32287c1.23411,1.8359,3.06374,4.2384-.02089,5.35966-2.56841.93361-4.98431-1.04229-6.13672-3.61089C635.65039,579.19649,638.04032,579.32952,639.86418,579.107Z" style="fill:#b8dbea"/><path d="M630.92312,561.72334c1.19833-1.35169,2.05059-3.11678,4.103-3.44814q.65073.61309,1.30147,1.22625a5.25994,5.25994,0,0,1-3.61506,3.31351Z" style="fill:#5790ba"/><path d="M727.11185,569.56174c1.25577.45045,2.51157.90089,4.20509,1.5083-2.33465,1.32365-3.5986.55216-4.70248-.85338Q726.86444,569.89017,727.11185,569.56174Z" style="fill:#d6d5d5"/><path d="M635.02611,558.2752c.84836-1.60471,2.61467-1.78505,3.98494-2.579q.7219.6041,1.44534,1.20874-2.06657,1.29735-4.131,2.59553Q635.678,558.88874,635.02611,558.2752Z" style="fill:#5790ba"/><path d="M677.54192,538.05144c.92982-.5223,1.85968-1.0446,3.89286-2.18665-1.593,2.1916-2.78156,2.14075-3.96659,2.10308Z" style="fill:#5790ba"/><path d="M698.22161,562.51652c-.29138.25553-.715.8792-.98194.81781a2.83058,2.83058,0,0,1-2.14284-2.33c-.20131-.91889.2802-1.447,1.174-1.18642C697.454,560.16279,698.00107,561.13463,698.22161,562.51652Z" style="fill:#5790ba"/><path d="M646.31814,552.26383c1.79977-.49851,3.77485-2.17954,5.06574.75405l.0763-.08909-4.27356.46063Q646.75239,552.82666,646.31814,552.26383Z" style="fill:#5790ba"/><path d="M693.67756,556.94681c.90451.818,2.69,1.79592,1.5126,2.92752-1.30419,1.25339-2.67727-.06439-3.47644-1.485Q692.69316,557.67263,693.67756,556.94681Z" style="fill:#5790ba"/><path d="M685.17555,564.411c-.3666-.99661.31842-1.12622.74271-1.00491a1.51643,1.51643,0,0,1,.92672.99751c.06743.46035-.27362.98077-.43762,1.47517C685.96087,565.34672,685.51437,564.81472,685.17555,564.411Z" style="fill:#5790ba"/><path d="M632.71252,562.815q-.67451,1.05384-1.3491,2.10768-.743-.47412-1.486-.94826.52562-1.12532,1.04846-2.25076Q631.81643,562.269,632.71252,562.815Z" style="fill:#5790ba"/><path d="M684.62817,576.80864q-.74509-.17778-1.4904-.3555A.97991.97991,0,0,1,684.62817,576.80864Z" style="fill:#888"/><path d="M631.36342,564.92264c-.45105.50961-.98681,1.03358-1.59615.38159-.20264-.21681.06357-.87361.11282-1.32957Q630.61908,564.44838,631.36342,564.92264Z" style="fill:#888"/><path d="M623.25141,524.05238l-.33342.05776a1.20635,1.20635,0,0,1,.06986-.134A1.65108,1.65108,0,0,1,623.25141,524.05238Z" style="fill:#d6d5d5"/><path d="M461.11408,577.04981a7.98819,7.98819,0,0,0-7.43315,6.25009c-.71684,2.88447-2.13791,2.89319-4.25246,3.16735a51.77036,51.77036,0,0,1-11.86516.66559c-3.7824-.37078-7.4717-.11706-9.19874-4.58615a2.23426,2.23426,0,0,0-2.97929-.84446l.08155.07667c-.2962-3.54818-3.50014-2.72361-5.10465-2.57488-3.27956.30367-4.63639-.78522-5.79492-3.72055-.89784-2.27477-2.18665-4.92129-5.46439-4.90706q-.35584-1.04871-.71176-2.09771c2.39493-8.54871,8.69017-12.826,16.65867-15.27066q.45762.71429.91522,1.42864c-2.74835,3.16484-7.53665,3.68588-9.98111,8.06917,7.05724,1.97361,9.7285,10.46093,17.58527,11.60668.4825.07032.94645,1.46651,1.99.56632,1.28483-1.10843,1.41872-2.72612,1.42268-4.19661.00387-1.43568-1.423-.508-1.89371-.76228-1.5223-.82206-3.68082-.44-4.57472-1.35161-1.73011-1.76433-3.81246-4.32141-3.69646-6.43691.11155-2.03458,4.0226-1.34994,5.63353-2.45405,4.74636-3.25288,9.90951.2067,14.79649-1.57987,2.10447-.7694,3.407,3.05329,5.44,4.39054.7053.464,2.927,3.36324,3.47113,3.241,3.00339-.67459,4.44254,2.29178,6.87522,2.85531.96664.224,1.408-.56318,1.28776-1.36117-.48735-3.23356,1.56414-5.14006,3.81417-6.52781,2.822-1.74046,3.31609-3.03216.06072-4.57534-.98009-.46474-1.69171-1.13494-1.28584-2.15128.396-.99145,1.509-.97366,2.459-.85339,3.87.48986,9.96445,6.48072,11.17414,10.95769q-.50967.57878-1.01971,1.15762a1.80464,1.80464,0,0,0-2.16444,1.37129c-1.00706,4.55085-4.25977,5.63542-8.30182,5.88914a19.26877,19.26877,0,0,0-5.5249,1.13543c-1.41282.53262-3.8852.77644-2.49917,3.50388Zm-17.3049-14.887c-1.96236,1.51946-1.597-2.67944-3.26437-1.38078a7.10615,7.10615,0,0,0-1.70739,2.72549c-.07592.16722.78394,1.10411,1.09831,1.048,1.57048-.28009,3.36261-.38536,3.78879-2.47637.91213-.14378,1.7765-.35857,1.80491-1.52637.00256-.10506-.271-.30848-.41917-.31113C443.71914,560.21622,444.04758,561.3857,443.80918,562.16276Zm6.076,4.05709c-2.02513,3.09619-2.17239,6.33756-.71169,8.45041,1.70031,2.45942,3.048-2.56692,5.46306-1.4303.4488.2113,1.31648-.58718,2.02749-.79179,1.06907-.30772,3.15714.70661,2.69913-1.5632-.34028-1.68647-2.61972-3.51846-3.64517-2.51537C452.35532,571.659,451.28185,568.70382,449.88516,566.21985Zm-8.32994,4.38789c-1.89854,1.06455-2.102,2.72744-2.19309,4.32657-.054.94937,1.01856,2.26513,1.55069,1.28095,1.2148-2.24686,4.63466,1.209,4.82426-2.08913C445.90668,571.176,442.01865,573.05439,441.55522,570.60774Zm26.56687-4.36724c-.04057-.1382-.03936-.3343-.13148-.40092a1.6574,1.6574,0,0,0-.52178-.16192l.16793.74945Q467.87945,566.33387,468.12209,566.2405Z" style="fill:#5790ba"/><path d="M411.80648,539.30525c-3.67191.31986-4.7346-2.16468-4.89361-5.26018-.46621-9.077,12.29363-18.47478,20.84457-15.43648,2.52622.89761,2.69758,2.88029,2.4202,5.07469C429.37263,530.05175,418.43814,539.42155,411.80648,539.30525Z" style="fill:#b8dbea"/><path d="M437.56857,523.56085c-1.986-.01319-4.12336-.31358-3.80415-2.86641.39613-3.168,3.17713-3.315,5.65219-3.31057,1.814.00328,4.007-.19617,4.2529,2.50072C443.85056,521.87047,440.85489,523.61791,437.56857,523.56085Z" style="fill:#b8dbea"/><path d="M459.92089,545.94831c-8.68332-.3-8.83046-.4441-10.28111-9.49593C451.52163,537.20713,457.73393,542.82309,459.92089,545.94831Z" style="fill:#5790ba"/><path d="M425.04978,553.208a25.28294,25.28294,0,0,1,13.56685-3.74539,40.30916,40.30916,0,0,1-12.65164,5.174Q425.5074,553.9224,425.04978,553.208Z" style="fill:#5790ba"/><path d="M436.26318,542.39162c-.22234,1.2543-.87047,1.57059-1.6381,1.36452a1.53784,1.53784,0,0,1-.98368-.99137c-.07016-.6702.07267-1.60408,1.1029-1.3602A5.05785,5.05785,0,0,1,436.26318,542.39162Z" style="fill:#5790ba"/><path d="M377.63938,571.28428a5.72939,5.72939,0,0,1-4.61585,1.16773c.72174-2.47114,2.7229-2.30246,4.65938-2.26709A3.97033,3.97033,0,0,0,377.63938,571.28428Z" style="fill:#888"/><path d="M427.92476,541.63464c-.28886-2.76846,1.73666-2.129,3.42241-1.95051q-1.75049.93256-3.501,1.86526Z" style="fill:#5790ba"/><path d="M427.84617,541.54939l-.8531,1.25737-.59577-.76618q.76245-.20384,1.52616-.40685Z" style="fill:#5790ba"/><path d="M435.20721,553.50264a6.0181,6.0181,0,0,1,.32429.96124c.01452.08483-.238.21563-.368.32536a4.7663,4.7663,0,0,1-.30421-.87138C434.842,553.8112,435.064,553.6654,435.20721,553.50264Z" style="fill:#5790ba"/><path d="M377.63938,571.28428a3.97033,3.97033,0,0,1,.04353-1.09936q.575-.07022,1.14967-.14022C379.55031,571.53584,378.221,571.04877,377.63938,571.28428Z" style="fill:#d6d5d5"/><path d="M430.73253,544.73865l-.29111-.31706c.11152-.09048.22882-.2577.33293-.24982.10459.00789.196.1901.29326.29593Q430.90011,544.60321,430.73253,544.73865Z" style="fill:#5790ba"/><path d="M499.31708,528.2093l-.46616-1.328q.70107.14064,1.40284.2796Q499.78613,527.68324,499.31708,528.2093Z" style="fill:#888"/><path d="M461.0332,577.13045a14.58349,14.58349,0,0,1,1.93671-1.09378c3.04683-1.1701,7.6835-2.17877,8.62749.4976,1.25893,3.56939-2.73754,6.0962-6.18147,7.35434-2.32357.84878-5.33207,2.67763-7.18447.01269-2.12653-3.05936,1.03319-4.90558,2.88114-6.85142Z" style="fill:#b8dbea"/><path d="M425.38528,581.70223c1.17554,1.70307,2.90772,3.875.07754,5.04385-2.08144.85967-4.1083-1.127-5.57223-2.791a1.84429,1.84429,0,0,1,.36535-2.5386c1.87045-1.80736,3.45765.48728,5.21141.36136Z" style="fill:#b8dbea"/><path d="M665.09407,571.29753c-.468,2.00068.91673,5.38506-1.52757,4.92122-1.33674-.25372-4.565,2.17249-4.719-1.25786C658.653,570.62685,663.26976,573.09185,665.09407,571.29753Z" style="fill:#2a292a"/><path d="M647.18662,553.38942l4.2736-.46063a3.72811,3.72811,0,0,1-4.42437,2.61694C644.70639,555.20007,647.14488,554.16084,647.18662,553.38942Z" style="fill:#2a292a"/><path d="M676.4458,578.082c-.72471.07513-1.211,1.57171-2.15133.36248C674.78333,576.965,675.4387,576.47623,676.4458,578.082Z" style="fill:#2a292a"/><path d="M674.52761,578.19954c1.02729,1.60185-.34,1.85089-1.30833,2.32506C671.98732,578.80715,673.38975,578.57806,674.52761,578.19954Z" style="fill:#b8dbea"/><path d="M680.084,552.86329l.26178.96939c-1.003-.17566-.48792-.61431-.17239-1.01962Z" style="fill:#2a292a"/><path d="M449.88516,566.21985c1.39669,2.484,2.47016,5.43918,5.83282,2.14975,1.02545-1.00309,3.30489.8289,3.64517,2.51537.458,2.26981-1.63006,1.25548-2.69913,1.5632-.711.20461-1.57869,1.00309-2.02749.79179-2.41511-1.13662-3.76275,3.88972-5.46306,1.4303C447.71277,572.55741,447.86,569.316,449.88516,566.21985Z" style="fill:#2a292a"/><path d="M441.55522,570.60774c.46343,2.44665,4.35146.56827,4.18186,3.51839-.1896,3.29808-3.60946-.15773-4.82426,2.08913-.53213.98418-1.60474-.33158-1.55069-1.28095C439.45319,573.33518,439.65668,571.67229,441.55522,570.60774Z" style="fill:#2a292a"/><path d="M443.72359,562.079c-.42525,2.09115-2.21738,2.19642-3.78786,2.47651-.31437.05609-1.17423-.8808-1.09831-1.048a7.10615,7.10615,0,0,1,1.70739-2.72549c1.66742-1.29866,1.302,2.90024,3.26437,1.38078Z" style="fill:#2a292a"/><path d="M443.80918,562.16276c.2384-.77706-.09-1.94654,1.30108-1.92114.14816.00265.42173.20607.41917.31113-.02841,1.1678-.89278,1.38259-1.80537,1.5263Z" style="fill:#2a292a"/><path d="M468.12209,566.2405q-.24265.09333-.48533.18661l-.16793-.74945a1.6574,1.6574,0,0,1,.52178.16192C468.08273,565.9062,468.08152,566.1023,468.12209,566.2405Z" style="fill:#2a292a"/></svg>