<svg id="Layer_1" data-name="Layer 1" xmlns="http://www.w3.org/2000/svg" xmlns:xlink="http://www.w3.org/1999/xlink" viewBox="0 0 1133.85827 1133.20463"><defs><clipPath id="clip-path"><circle cx="-586.92913" cy="566.92913" r="566.92913" fill="none"/></clipPath><clipPath id="clip-path-2"><circle cx="566.92913" cy="566.92913" r="566.92913" fill="none"/></clipPath></defs><path d="M427.62317,1090.64273l-1.33963,13.7816s1.49708,12.10142-1.12281,10.35483-6.46274-14.60533-6.47505-17.15847a34.21429,34.21429,0,0,1,1.2316-6.978l3.2371-3.60937Z" fill="#fff"/><path d="M437.25552,1090.64273s-11.84528,13.53209-11.84528,16.02723-2.12087,8.234-.24951,8.1092,19.80068-24.13643,19.80068-24.13643Z" fill="#fff"/><g clip-path="url(#clip-path-2)"><path d="M301.02585,1052.79986s-56.59322,149.0748-48.31128,150.45512,639.0892,17.94419,639.0892,17.94419L739.98712,954.797Z"/><path d="M229.044,1086.04174s-8.00692,19.23375-1.19605,19.58177,72.23707-9.97216,86.15753-6.72614,143.4115-4.06223,150.53041-1.27813,105.2582-4.17614,108.73832.348,120.064,3.82813,132.94047,3.82813,122.15211-11.0217,135.72457-8.991,18.44462-3.53745,18.44462-3.53745Z"/><path d="M629.432,720.07063c15.33946,9.32534,31.87908,17.25674,45.53652,28.63046,19.77284,16.46667,38.23564,34.72106,55.82586,53.54993,39.29329,42.06046,69.183,90.4777,91.012,143.58713a706.99943,706.99943,0,0,1,25.54085,75.00455c6.52442,22.89478,10.53768,46.50525,15.6584,69.8H743.56443c.19436-17.24292.73366-34.49067.48432-51.72724-.24075-16.64774,1.29482-33.48426-3.199-50.10419-2.67994,2.67789-3.9633,5.45473-4.08829,8.28272-.46574,10.53657-.682,21.08907-.75153,31.63722-.13586,20.63658-.11017,41.27421-.15138,61.91149H599.0791c-1.44233-6.42693-2.89577-12.24433.53682-19.2294,2.43449-4.954.47174-12.069.47174-18.21941q-1.47907.088-2.95808.17613v17.61659c-4.26871-15.47138-7.92312-30.96827-9.3628-46.66833-5.10655-55.689-9.30148-111.461-14.16639-167.17314-2.11143-24.18014-4.8163-48.31454-7.67884-72.419-.81638-6.87372-4.46367-12.37537-12.69121-14.418-.74982,6.59942-1.958,12.572-2.01865,18.55621-.298,29.45792-.91233,58.93324-.22917,88.37494q1.17694,50.72532,4.44667,101.39627c2.40651,37.37327,5.934,74.67452,8.97343,112.00716H444.96141l14.93982-19.76532,6.78242,2.56637q1.84209-.19506,3.68418-.39036c4.97906,6.31923,10.59554,2.97273,15.35366.22822,2.53478-1.46208,5.83514-6.63763,5.08318-7.86373-2.89021-4.71229-7.27865-8.50559-12.42433-14.063a40.903,40.903,0,0,1,4.34285-6.20305q29.14682-31.53389,58.47717-62.89815c3.58927-3.86208,8.03459-7.60847,2.88877-14.92975-26.60868,29.43387-53.00962,58.16992-78.82147,87.42578-10.02258,11.3598-18.71427,23.89384-28.01214,35.893h-9.63235c1.9919-5.33134,3.6216-10.833,6.03471-15.96638,15.35721-32.66891,29.22174-66.19015,46.83351-97.60568,17.2577-30.78408,38.45149-59.356,57.72973-89.021,2.15922-3.32264,4.179-7.38313,4.38006-11.20066.468-8.88812-.36756-17.83622-.3989-26.761-.086-24.46985-.02963-48.94011-.02963-72.94465-9.19777,10.057-19.21468,21.56521-29.8887,32.42782-4.76873,4.85309-5.00866,9.56056-3.13392,15.3672,5.40538,16.74222,10.47189,33.59619,16.06423,50.27468,3.01887,9.00312,3.4487,16.51882-3.4765,24.714-8.169,9.66725-14.28033,21.063-21.39595,31.63381-6.1391,9.12-12.43561,18.13417-19.58977,28.5444-19.60623-40.55863-38.51855-79.68175-57.82779-119.626,2.24189-1.64274,5.13168-4.126,8.35188-6.059,17.78473-10.67555,35.70927-21.11988,53.41481-31.92376,2.2781-1.39019,3.5631-4.40771,5.30817-6.67138q-1.43872-1.38289-2.87739-2.76572c-15.56331,8.58254-31.12658,17.165-46.44772,25.614-9.79574-13.06709-19.50414-26.01771-29.21257-38.96833q-1.986.773-3.97205,1.54609c.74559,2.9137.72163,6.38813,2.36717,8.646,8.04946,11.0448,16.54385,21.76526,25.19451,33.008-4.25763,2.90317-7.40435,4.99388-10.49406,7.16561-11.424,8.02986-11.37616,8.786-5.21819,20.8545,7.129,13.97155,13.6271,28.26351,20.61247,42.31031,10.53227,21.17919,20.36843,42.78432,32.33015,63.13289,4.66138,7.92969,4.13893,12.61276.52406,20.1846-18.0579,37.82524-35.33588,76.0229-52.88821,114.08958H379.46139c-.60044-5.08395-1.22653-10.16508-1.79716-15.25233-3.34928-29.861-6.5972-59.73406-10.12976-89.57334-.48156-4.06755-2.363-7.96932-3.59629-11.94786l-2.78729.83951c-.28778,1.16713-.9257,2.36948-.81261,3.49635q5.6421,56.2256,11.41723,112.43767H227.27017c1.56651-7.85938,2.29693-16.00247,4.85057-23.52687,8.934-26.32406,17.86872-52.67927,27.95188-78.5754,21.13433-54.27827,47.41246-106.00081,84.27729-151.37061,24.50216-30.155,49.50519-60.26887,82.42646-82.18128,3.19936-2.12963,6.69265-3.8234,9.85594-6.00071,18.03362-12.41229,39.31131-19.42546,55.80828-34.66873l16.84.26717,40.79843,47.8938,49.2242-44.78958,9.31268-6.65191Zm-87.971,45.74558c-12.25174-14.59419-23.6005-28.41812-35.39426-41.8514-1.89461-2.15809-7.18423-4.46156-8.50362-3.478-7.11786,5.30688-14.36711,10.9675-19.59092,17.98079-1.69577,2.27672,2.3267,9.11752,4.18894,13.68513,7.26374,17.81564,14.71,35.55686,22.34458,53.94258Zm139.3762,58.98967c-16.15248,17.079-30.22663,32.28167-44.66117,47.13406-14.94655,15.37931-30.376,30.28984-45.28583,45.70378-3.43593,3.55209-8.20273,7.92963-1.896,14.04992,7.39888-7.79589,14.55095-15.48831,21.872-23.01641,22.74515-23.38843,45.75645-46.52218,68.24762-70.15141,10.16965-10.68419,9.72372-11.223.89528-22.50283,4.23867-11.27767,8.638-21.93064,12.09506-32.881.92649-2.93492-1.02038-6.77684-1.64816-10.20241l-2.99541.43192c-4.6983,13.15985-9.3966,26.31976-14.04246,39.33288-20.03488-7.78431-39.31011-15.42264-58.73909-22.64745-2.65036-.9856-6.06819.09265-9.13074.21534q-.10037,1.9597-.20084,3.91935C629.5406,804.00288,653.73354,813.81417,680.83724,824.80588ZM606.51354,716.754c-14.89252,16.24216-29.30919,31.96521-43.92216,47.90243,9.10317,10.00077,18.07283,19.85486,28.291,31.08049,8.01478-15.83816,15.753-30.332,22.75644-45.17262C622.2934,732.22484,622.02972,732.10044,606.51354,716.754ZM343.88705,857.0136q-1.50856-.31323-3.01714-.62652c-.88422,2.66785-3.07763,5.70006-2.45194,7.94757,6.95209,24.97185,14.30214,49.83364,21.68241,74.68427.60543,2.03845,2.21854,3.77766,3.36347,5.656l3.40525-1.3097A328.59471,328.59471,0,0,0,343.88705,857.0136Zm423.10051,10.48654q-1.693.19258-3.386.38513c-7.85322,23.91306-16.04219,47.75122-16.26295,73.50355,2.53649-.91952,4.20828-2.1428,4.63969-3.70794,5.6914-20.64821,11.32872-41.31389,16.60582-62.07022C769.19741,873.19838,767.574,870.21742,766.98756,867.50014Zm-129.936,191.63876c-9.03927-1.0963-9.03927-1.0963-13.13567,10.53016-1.97961.20553-4.21656.43774-6.45345.67l.04833,2.00176h18.88433l-.02222-1.87442-5.43455-1.08513C632.88264,1066.12361,634.71141,1063.05965,637.05153,1059.1389ZM578.96879,814.15626c3.3203-5.50988,5.346-8.87143,7.53751-12.50818-3.59309-2.56766-6.26015-4.47354-9.84742-7.037C577.42364,801.082,578.01755,806.10758,578.96879,814.15626Z" stroke="#1d1d1b" stroke-miterlimit="10" stroke-width="9"/><path d="M575.75373,1258.03129c-3.03939-37.33264-17.918-242.02245-20.32454-279.39572q-3.26045-50.63477-4.44667-101.39627c-.68316-29.4417-.06885-58.917.22917-88.37494.06061-5.98418,1.26883-11.95679,2.01865-18.55621,8.22754,2.04263,11.87483,7.54428,12.69121,14.418,2.86254,24.10448,5.56741,48.23888,7.67884,72.419,4.86491,55.71219,9.05984,111.48417,14.16639,167.17314,1.43968,15.70006,5.09409,31.19695,9.3628,46.66833v-17.61659q1.47907-.08819,2.95808-.17613c0,6.15039,1.96275,13.26538-.47174,18.21941-3.43259,6.98507,9.372,180.191,10.81429,186.618Z" fill="#fff"/><path d="M419.91728,1090.64273c17.55233-38.06668,34.83031-76.26434,52.88821-114.08958,3.61487-7.57184,4.13732-12.25491-.52406-20.1846-11.96172-20.34857-21.79788-41.9537-32.33015-63.13289-6.98537-14.0468-13.48348-28.33876-20.61247-42.31031-6.158-12.06855-6.20577-12.82464,5.21819-20.8545,3.08971-2.17173,6.23643-4.26244,10.49406-7.16561-8.65066-11.24269-17.14505-21.96315-25.19451-33.008-1.64554-2.25791-1.62158-5.73234-2.36717-8.646q1.986-.773,3.97205-1.54609c9.70843,12.95062,19.41683,25.90124,29.21257,38.96833,15.32114-8.449,30.88441-17.03146,46.44772-25.614q1.43868,1.38288,2.87739,2.76572c-1.74507,2.26367-3.03007,5.28119-5.30817,6.67138-17.70554,10.80388-35.63008,21.24821-53.41481,31.92376-3.2202,1.933-6.11,4.41629-8.35188,6.059,19.30924,39.94422,38.22156,79.06734,57.82779,119.626,7.15416-10.41023,13.45067-19.42435,19.58977-28.5444,7.11562-10.57084,13.22691-21.96656,21.39595-31.63381,6.9252-8.19519,6.49537-15.71089,3.4765-24.714-5.59234-16.67849-10.65885-33.53246-16.06423-50.27468-1.87474-5.80664-1.63481-10.51411,3.13392-15.3672,10.674-10.86261,20.69093-22.37079,29.8887-32.42782,0,24.00454-.05638,48.4748.02963,72.94465.03134,8.92475.86694,17.87285.3989,26.761-.201,3.81753-2.22084,7.878-4.38006,11.20066-19.27824,29.665-40.472,58.23688-57.72973,89.021-17.61177,31.41553-31.4763,64.93677-46.83351,97.60568-2.41311,5.13334-4.04281,10.635-6.03471,15.96638Z" fill="#fff"/><path d="M466.68365,1073.44378l-6.78242-2.56637-14.93982,19.76532h-7.70589c9.29787-11.99918,17.98956-24.53322,28.01214-35.893,25.81185-29.25586,52.21279-57.99191,78.82147-87.42578,5.14582,7.32128.7005,11.06767-2.88877,14.92975q-29.23253,31.45486-58.47717,62.89815a40.903,40.903,0,0,0-4.34285,6.20305c5.14568,5.55744,9.53412,9.35074,12.42433,14.063.752,1.2261-2.5484,6.40165-5.08318,7.86373-4.75812,2.74451-10.3746,6.091-15.35366-.22833,3.95486-.435,8.48878.12439,11.6317-1.70524,1.69-.98377.99307-6.06725,1.37319-9.301-5.33819-.02928-11.19938-1.45914-15.87458.28677C462.31814,1064.26812,463.51389,1069.41627,466.68365,1073.44378Z" fill="#fff"/><path d="M383.36869,1215.30463c-3.82266-37.4775-19.269-199.61584-23.03041-237.09957-.11309-1.12687.52483-2.32922.81261-3.49635l2.78729-.83951c1.23327,3.97854,3.11473,7.88031,3.59629,11.94786,3.53256,29.83928,6.78048,59.71231,10.12976,89.57334.57063,5.08725,12.80991,134.83028,13.41035,139.91423Z" fill="#fff"/><path d="M736.13418,1240.60877c.04121-20.63728-.26011-191.241-.12425-211.87753.0695-10.54815.28579-21.10065.75153-31.63722.125-2.828,1.40835-5.60483,4.08829-8.28272,4.49382,16.61993,2.95825,33.45645,3.199,50.10419.24934,17.23657-.01433,184.45036-.20869,201.69328Z" fill="#fff"/><path d="M541.461,765.81621l-36.95528,40.27914c-7.63455-18.38572-15.08084-36.12694-22.34458-53.94258-1.86224-4.56761-5.88471-11.40841-4.18894-13.68513,5.22381-7.01329,12.47306-12.67391,19.59092-17.98079,1.31939-.9836,6.609,1.31987,8.50362,3.478C517.86054,737.39809,529.2093,751.222,541.461,765.81621Z" fill="#fff"/><path d="M680.83724,824.80588c-27.1037-10.99171-51.29664-20.803-75.48965-30.61429q.10046-1.95962.20084-3.91935c3.06255-.12269,6.48038-1.20094,9.13074-.21534,19.429,7.22481,38.70421,14.86314,58.73909,22.64745,4.64586-13.01312,9.34416-26.173,14.04246-39.33288l2.99541-.43192c.62778,3.42557,2.57465,7.26749,1.64816,10.20241-3.457,10.95039-7.85639,21.60336-12.09506,32.881,8.82844,11.27978,9.27437,11.81864-.89528,22.50283-22.49117,23.62923-45.50247,46.763-68.24762,70.15141-7.3211,7.5281-14.47317,15.22052-21.872,23.01641-6.30677-6.12029-1.54-10.49783,1.896-14.04992,14.90987-15.41394,30.33928-30.32447,45.28583-45.70378C650.61061,857.08755,664.68476,841.8849,680.83724,824.80588Z" fill="#fff"/><path d="M606.51354,716.754c15.51618,15.34645,15.77986,15.47085,7.12526,33.8103-7.00344,14.84057-14.74166,29.33446-22.75644,45.17262-10.21815-11.22563-19.18781-21.07972-28.291-31.08049C577.20435,748.7192,591.621,732.99615,606.51354,716.754Z" fill="#fff"/><path d="M343.88705,857.0136a328.59471,328.59471,0,0,1,22.98205,86.35159l-3.40525,1.3097c-1.14493-1.87831-2.758-3.61752-3.36347-5.656-7.38027-24.85063-14.73032-49.71242-21.68241-74.68427-.62569-2.24751,1.56772-5.27972,2.45194-7.94757Q342.37849,856.7004,343.88705,857.0136Z" fill="#fff"/><path d="M766.98756,867.50014c.58645,2.71728,2.20985,5.69824,1.5966,8.11052-5.2771,20.75633-10.91442,41.422-16.60582,62.07022-.43141,1.56514-2.1032,2.78842-4.63969,3.70794.22076-25.75233,8.40973-49.59049,16.26295-73.50355Q765.29461,867.69267,766.98756,867.50014Z" fill="#fff"/><path d="M466.68365,1073.44378c-3.16976-4.02751-4.36551-9.17566.81449-11.10994,4.6752-1.74591,10.53639-.316,15.87458-.28677-.38012,3.23375.31677,8.31723-1.37319,9.301-3.14292,1.82963-7.67684,1.2702-11.6317,1.70524Q468.52574,1073.24871,466.68365,1073.44378Z"/><path d="M637.05153,1059.1389c-2.34012,3.92075-4.16889,6.98471-6.11323,10.24233l5.43455,1.08513.02222,1.87442H617.51074l-.04833-2.00176c2.23689-.23222,4.47384-.46443,6.45345-.67C628.01226,1058.0426,628.01226,1058.0426,637.05153,1059.1389Z" fill="#fff"/><path d="M578.96879,814.15626c-.95124-8.04868-1.54515-13.07425-2.30991-19.54522,3.58727,2.5635,6.25433,4.46938,9.84742,7.037C584.31474,805.28483,582.28909,808.64638,578.96879,814.15626Z" fill="#fff"/></g></svg>