<svg id="Layer_1" data-name="Layer 1" xmlns="http://www.w3.org/2000/svg" xmlns:xlink="http://www.w3.org/1999/xlink" viewBox="0 0 1133.85827 1133.85827"><defs><clipPath id="clip-path"><circle cx="-2894.64567" cy="566.92913" r="566.92913" fill="none"/></clipPath><clipPath id="clip-path-2"><circle cx="566.92913" cy="566.92913" r="566.92913" fill="none"/></clipPath></defs><g clip-path="url(#clip-path-2)"><polygon points="327.551 849.029 294.844 882.555 258.352 922.722 229.32 970.506 225.443 1015.791 208.093 1144.899 889.56 1164.757 909.765 1044.366 902.103 1001.207 875.688 961.268 830.444 894.17 798.114 862.664 327.551 849.029" fill="#fff"/><path d="M217.39478,1038.92307c8.06076-7.71086-.01244-15.42173,8.04817-23.13228,2.85007,4.06783,23.314,2.79208,27.19766,3.01429,13.3296.76245,639.28857-3.299,652.48816.24084,1.81107,8.0822-4.45319,14.70276-4.07913,22.52439-3.69926-.00019-7.40119.09429-11.09691-.01647-14.04352-.42085-640.61851-.15987-654.58384.67085C228.66009,1042.62383,222.87014,1043.02655,217.39478,1038.92307Z" fill="#c1d8ef"/><path d="M229.3204,970.50641c7.68941.76165,9.80493-7.07718,15.20253-9.84768,30.12893-2.53719,60.32094-1.77406,90.50138-1.78547,2.2341-.00086,551.01744,9.9162,553.2513,9.28425l.17266.47765s-.37369.34406-.36576.34585c-.1927,2.32784,1.16875,2.63684,2.79659,2.60053a4.20882,4.20882,0,0,1,1.1985.1355c4.76124,1.2969,3.61808,4.58971,2.361,8.19868C893,984.0456,891.33212,988.159,890.88938,992.4872a4.93136,4.93136,0,0,1-5.97814,4.32083c-7.70485-1.70175-562.12087-13.498-569.94522-13.481-23.44916.05107-46.91658-1.3352-70.3608.93169C235.131,985.17481,233.69188,975.92751,229.3204,970.50641Z" fill="#c1d8ef"/><path d="M276.24034,1104.25884c-14.04351-.42085-28.13873-1.81014-42.10406-.97942-6.7088.39914-12.49875.80186-17.97411-3.30161,8.06077-7.71087-4.61209-15.42173,3.44852-23.13229,2.85007,4.06783,27.91361,2.79208,31.79731,3.01429,13.3296.76245,641.75378,9.65083,654.95338,13.19068,1.81106,8.08219-4.45319,14.70276-4.07913,22.52438" fill="#c1d8ef"/><path d="M212.33765,1128.07937c21.64439-1.38953,40.44064,1.747,62.14122,1.37035,38.07681-.66088,554.50708,2.4843,592.62824,2.96349,14.32185.18008,28.64246-2.73707,43.07663-1.56314-4.00032,11.592-12.43938,13.821-23.73041,12.53886-32.87343-3.73283-544.251-6.72443-577.06547-6.31376-29.81047.37324-59.64584-.93291-89.46342-1.748C215.382,1135.203,214.742,1131.9641,212.33765,1128.07937Z" fill="#c1d8ef"/><path d="M386.618,925.85236s-16.07516,6.878-16.07167,40.50416-.99158,210.72411-.99158,210.72411l359.105-15.69222s6.65466-210.66707-5.99261-227.5372S396.19248,918.518,396.19248,918.518Z" fill="#3063a6"/><path d="M377.56241,943.16508c5.74726-4.32876,7.87644-10.966,9.05557-17.31272,1.16574-6.27489,4.27236-7.48082,9.5745-7.33441,12.41471.34289,24.83376.85453,36.77-3.8452,8.43492-3.32123,14.0536-8.67844,15.4663-18.03619.76037-5.03645,2.78626-8.759,9.31916-7.80818a554.7578,554.7578,0,0,0,141.66517,2.19707c16.9124-1.87317,34.24328.22689,51.37856.05519,5.37672-.0539,6.59409,3.51944,8.59111,6.95717,9.432,16.23623,32.84641,25.36025,50.63709,18.94327,5.135-1.85208,5.91678.01955,6.657,3.77883,1.94446,9.87482,4.12389,19.67865,8.14105,28.95888-1.81535,4.36978-4.71323,6.72041-9.82242,6.37758-5.87212-.394-11.78421-.1915-17.679-.24811-62.69328-9.21875-125.5673-1.623-188.35379-1.90548-30.94719-.13926-61.9008.718-92.84778,1.31614-6.69893.12945-13.38721,1.02684-20.071,1.66811C385.89909,957.90034,380.01926,953.55942,377.56241,943.16508Z" fill="#3063a6"/><path d="M840.35722,907.0486c7.71159,7.871,15.184,15.93237,20.48074,25.727-7.21934,7.18511-16.39875,7.57-25.44238,6.25084-31.26725-4.56047-62.94323-3.6944-94.255-7.50112a62.799,62.799,0,0,0-8.07727.02313c-3.36736-7.039-3.46649-15.26619-8.84056-21.78561-1.55967-1.8921-2.856-7.3391.83214-10.61765,1.57391,4.15953,3.822,6.19736,9.02951,6.12262,30.02126-.43115,59.972,1.33748,89.90728,3.602C829.34475,909.27465,835.33327,911.29281,840.35722,907.0486Z" fill="#c1d8ef"/><path d="M258.35217,922.72238c7.68941.76165,9.80493-7.07718,15.20253-9.84768,30.12893-2.53719,60.32094-1.77406,90.50138-1.78547,2.2341-.00086,4.46772-1.18114,6.70158-1.8131l.17265.47765s-.37369.34407-.36576.34586c-.21384,2.58314,1.48607,2.68033,3.3401,2.57833,5.51542,1.16887,4.32772,4.5905,3.01594,8.35638-2.07979,5.971-4.63914,11.90741-3.282,18.50873a102.71964,102.71964,0,0,0-29.64084-4c-23.44916.05106-46.91658-1.33521-70.3608.93168C264.16273,937.39078,262.72366,928.14348,258.35217,922.72238Z" fill="#c1d8ef"/><path d="M697.31654,955.84826c5.89476.05661,11.80685-.14592,17.679.24811,5.10919.34283,8.00707-2.0078,9.82242-6.37758q3.65961,1.59411,7.30033,3.1755C720.91513,958.56325,709.5502,962.32241,697.31654,955.84826Z" fill="#626260"/><path d="M439.35992,874.70429c-2.44424-4.14282-1.47565-8.77045-1.87488-13.20178-1.07728-9.92766,5.1899-12.62471,13.23623-12.82718,15.67776-.39452,31.2241-3.258,46.98437-2.24166,4.09064.26378,8.0265.03917,10.59886,3.9641,1.375,6.10357-1.099,13.48411,6.31934,17.97261,4.64741-6.62667,2.17646-14.7294,4.46766-21.74774,30.27744,3.14,60.64618,1.63369,90.98228,1.78614a32.71872,32.71872,0,0,0,2.24308,4.46007c4.84925,6.88581,7.11108,6.55883,11.11733-1.48944.955-2.13195,1.77587-4.51872,4.61324-4.65643,15.26668-.741,30.59876.31317,45.83331-1.66607.94607-.12292,2.10675,1.40427,3.16756,2.1637-1.02435,10.29647-10.29481,14.62431-15.73543,21.72819-14.43418-1.17392-28.75479,1.74323-43.07664,1.56315-38.12116-.4792-75.92057,4.75171-113.99738,5.41259C482.53827,876.30117,461.0043,873.31476,439.35992,874.70429Z" fill="#f9fafa"/><path d="M527.67595,796.13507c-5.75652-.26389-11.131.12859-11.60126-7.21915-.14471-2.26078-2.06209-3.481-4.158-3.79542-2.7816-.41728-3.09237,1.87341-3.6167,3.8093-.863,3.18678-2.44609,5.79095-6.23761,5.12409-17.71636-3.11636-36.099-4.56726-49.9807-18.14517-8.96449-8.7683-10.17184-19.1289-4.52709-31.25518,4.33269-9.30756,11.23083-16.51123,18.37482-23.49239,10.02919-9.80068,22.34674-6.70672,33.92307-4.57878,5.75085,1.05706,3.17238,8.1488,1.7884,10.04349-3.52177,4.82109-1.556,8.10236.92035,11.66916a250.19719,250.19719,0,0,0,32.28926,38.06181c3.50055,3.35755,9.88627,6.24306,7.118,11.68125C539.36954,793.14361,534.09473,797.39473,527.67595,796.13507Z" fill="#3063a6"/><path d="M726.31449,793.00916c7.08055.2354,13.49223,2.16488,18.45813,5.99391,9.52182,7.34213,18.18048,15.65183,24.41062,26.34491,3.27768,5.62554,2.951,10.012-.9111,14.64386-2.35874,2.829-4.58362,5.85151-7.33123,8.25943-9.39938,8.23761-18.87217,16.35569-26.6951,26.21343-3.7257,4.69466-7.39274,5.74611-12.23538.41863-7.88709-8.67659-18.86754-12.57452-29.6361-16.13916-8.029-2.65764-7.68593-6.42852-3.88386-12.47424,9.44552-15.01931,18.584-30.23166,27.84683-45.36581C718.78777,796.90036,720.78812,792.29413,726.31449,793.00916Z" fill="#3063a6"/><path d="M567.89184,787.83573c12.044-12.07441,24.699-24.86076,37.4932-37.50632,2.63867-2.608,5.02764-4.99051,6.28468-8.77884,1.91682-5.77689.83282-7.81528-5.25379-5.977-2.17615.65718-4.671,2.37672-5.50527-1.412-1.22268-5.55221-2.85013-11.23481-.73073-16.81416.96933-2.552,3.65667-2.06336,6.16161-1.7278,5.98784.8021,12.024,1.3339,18.05742,1.68882,18.68069,1.09875,26.07453,9.44743,30.591,28.53649,1.05878,4.47511,2.729,8.99186,2.74311,13.49367.04583,14.68358-6.34334,21.4714-24.37484,24.89679-8.17813,1.55352-17.64036,5.80254-23.15205-6.20687-1.88488-4.107-5.841-2.93941-6.22083,2.18745-.507,6.84351-4.74185,7.84013-10.438,7.68249C584.88912,787.65892,576.21949,787.83573,567.89184,787.83573Z" fill="#3063a6"/><path d="M383.62236,870.38644c-1.78969-20.546-3.67478-40.523-2.3828-60.54357.70192-10.87668,20.75969-25.72658,31.77792-24.76006,4.32815.3796,7.06987,2.53146,7.02851,6.96661-.20711,22.22,4.95464,43.94347,5.99182,66.05786.32718,6.97555-1.31813,8.70082-8.4743,7.211C406.12723,862.93731,395.024,866.30418,383.62236,870.38644Z" fill="#3063a6"/><path d="M610.07378,848.40878c-30.3361-.15245-60.70484,1.35383-90.98228-1.78614q.28583-13.00878.57269-26.021c22.96138,2.06374,45.9792,1.51849,68.98511,1.50351,6.08254-.00395,12.09117-.27642,16.40843-5.53446Q607.56573,832.48973,610.07378,848.40878Z" fill="#c1d8ef"/><path d="M508.3045,850.39777c-2.57236-3.92493-6.50822-3.70032-10.59886-3.9641-15.76027-1.01629-31.30661,1.84714-46.98437,2.24166-8.04633.20247-14.31351,2.89952-13.23623,12.82718-5.75162-11.7563-3.88186-24.94433-7.00153-37.195,23.66031-2.04369,47.28876-4.57132,71.09865-4.22029,2.21829.03275,4.45458-1.16023,6.68249-1.78411Q508.28454,834.35041,508.3045,850.39777Z" fill="#c1d8ef"/><path d="M439.35992,874.70429c21.64438-1.38953,43.17835,1.59688,64.87893,1.22025,38.07681-.66088,75.87622-5.89179,113.99738-5.41259,14.32185.18008,28.64246-2.73707,43.07664-1.56315-4.00033,11.592-12.43938,13.821-23.73042,12.53887-32.87343-3.73283-65.62015,1.65164-98.4346,2.06231-29.81048.37324-59.64585-.93291-89.46342-1.748C445.142,881.6778,441.76424,878.589,439.35992,874.70429Z" fill="#c1d8ef"/><path d="M840.35722,907.0486c-5.024,4.24421-11.01247,2.226-16.3655,1.82118-29.93527-2.26448-59.886-4.03311-89.90728-3.602-5.20752.07474-7.4556-1.96309-9.02951-6.12262,2.27565-6.8038,8.8154-9.04761,13.83342-12.92377.69871,4.947,4.36347,2.8072,7.00035,2.83606,15.31653.16744,30.7803-.99187,45.902.78434,10.83875,1.27316,19.69826.4742,27.39961-7.39713C827.68553,889.408,833.64863,898.54883,840.35722,907.0486Z" fill="#f9fafa"/><path d="M696.95685,910.34251c-17.20628-.28888-24.94532-5.91806-30.33888-21.05622-2.51481-7.05806-.09734-13.88973,4.3169-17.27553,4.82987-3.7047,10.57492-9.86383,18.90516-5.65669,4.70114,2.37426,10.229,3.04858,15.18088,5.00389,10.28026,4.0592,15.27163,11.99461,13.52265,20.78461C716.203,903.90659,708.34257,910.53369,696.95685,910.34251Z" fill="#f9fafa"/><path d="M408.97477,873.20036c5.9178-.30713,11.39118,1.24343,16.85621,2.65122,7.30339,1.88131,11.6774,6.51011,11.59351,14.2544-.08253,7.61983-3.11772,13.53635-10.85991,16.33681-7.08317,2.562-14.267,3.73918-21.71258,2.29155a46.50983,46.50983,0,0,0-13.92413-.48646c-11.08978,1.16332-16.53331-7.32949-11.97519-17.71686C384.815,877.17161,396.55806,874.66081,408.97477,873.20036Z" fill="#f9fafa"/><path d="M677.0483,847.22061c-1.06081-.75943-2.22149-2.28662-3.16756-2.1637-15.23455,1.97924-30.56663.925-45.83331,1.66607-2.83737.13771-3.65828,2.52448-4.61324,4.65643q-2.408-16.67488-4.81359-33.34426,37.20534.03386,74.41032.06574C689.3165,828.69246,683.11221,837.918,677.0483,847.22061Z" fill="#c1d8ef"/><path d="M819.19028,882.4447c-7.70135,7.87133-16.56086,8.67029-27.39961,7.39713-15.12167-1.77621-30.58544-.6169-45.902-.78434-2.63688-.02886-6.30164,2.111-7.00035-2.83606,7.14488-9.01072,16.03825-16.19891,24.69808-23.62942q17.26308.03692,34.52747.0716C806.41052,867.90352,812.81283,875.16085,819.19028,882.4447Z" fill="#c1d8ef"/><path d="M605.05773,816.57074c-4.31726,5.258-10.32589,5.53051-16.40843,5.53446-23.00591.015-46.02373.56023-68.98511-1.50351a.72786.72786,0,0,1-.13854-1.14623,2.13788,2.13788,0,0,0-.08636-3.08034c-1.246-12.294-1.23132-12.49434,10.63587-11.62569a33.24973,33.24973,0,0,0,15.276-2.665q.95073-.80363,1.9022-1.60761.70341-.812,1.408-1.62512c2.29854,4.08282,6.29979,3.145,9.84771,3.18148,11.37209.117,22.74659.16028,34.11843.053,4.11932-.0388,8.03841-.02948,10.68652,3.8159Q604.18591,811.23645,605.05773,816.57074Z" fill="#f9fafa"/><path d="M293.97111,892.798q12.09114-11.56629,24.18217-23.13228c2.85007,4.06783,7.18,2.79208,11.06366,3.01429,13.3296.76245,26.80878-1.64875,40.00838,1.89111,1.81106,8.08219-4.45319,14.70275-4.07913,22.52438-3.69927-.00018-7.40119.0943-11.09691-.01647-14.04352-.42085-28.13873-1.81013-42.10406-.97941C305.23642,896.49872,299.44646,896.90144,293.97111,892.798Z" fill="#c1d8ef"/><path d="M693.03085,818.10089q-37.205-.03239-74.41031-.06574-1.39544-5.9654-2.79-11.92764c1.45794-1.62277,3.37353-2.00946,5.44155-2.09777,15.69065-.66982,31.37551-1.5489,47.0727-1.95538,6.45419-.16719,12.54924-1.6398,18.73991-3.069,5.32127-1.22857,8.23506-4.116,8.08171-9.725,13.56,4.37576,13.57859,4.38748,6.42519,15.68019C698.79132,809.36109,695.88746,813.716,693.03085,818.10089Z" fill="#f9fafa"/><path d="M293.97111,892.798c5.47535,4.10348,11.26531,3.70076,17.97411,3.30162,13.96533-.83072,28.06054.55856,42.10406.97941,3.69572.11077,7.39764.01629,11.09691.01647q2.80571,6.091,5.61119,12.18086c-2.23358.63177-4.4672,1.812-6.7013,1.81291-30.18044.01141-60.37245-.75172-90.50138,1.78547C279.35443,905.158,287.007,899.32793,293.97111,892.798Z" fill="#f9fafa"/><path d="M695.16636,789.26036c.15335,5.609-2.76044,8.49638-8.08171,9.725-6.19067,1.42925-12.28572,2.90186-18.73991,3.069-15.69719.40648-31.38205,1.28556-47.0727,1.95538-2.068.08831-3.98361.475-5.44155,2.09777-3.34708-12.73991-3.33918-12.64216,8.89256-13.63021,15.14634-1.22345,30.57329-1.76247,41.79209-14.43423,1.72942-1.95341,3.76759-.91238,5.51385-.15437C679.9178,781.31261,688.39652,783.55933,695.16636,789.26036Z" fill="#c1d8ef"/><path d="M508.26471,818.30311c-2.228.62388-4.46426,1.81686-6.68255,1.78411-23.80989-.351-47.43834,2.1766-71.09865,4.22029q.16276-2.14933.32391-4.2991c3.12612-3.86117-1.65074-12.19523,8.858-12.29576,15.90853-.15214,31.80781-2.21816,47.78422-1.71978,6.36777.19852,12.6546-.1038,18.64787-2.57543l.51292.02263.14385.49356c.38252,3.356-1.02682,6.94163,1.29349,10.04769Q508.15621,816.14221,508.26471,818.30311Z" fill="#f9fafa"/><path d="M506.0975,803.41744c-5.99327,2.47163-12.2801,2.77395-18.64787,2.57543-15.97641-.49838-31.87569,1.56764-47.78422,1.71978-10.50873.10053-5.73187,8.43459-8.858,12.29576-4.98276-9.7445-.0165-20.88619-4.41732-30.829-1.51408-3.42089,2.169-3.15779,4.29737-3.582q9.16359-.00129,18.32434-.00388C465.94216,798.25191,486.47968,799.3625,506.0975,803.41744Z" fill="#c1d8ef"/><path d="M369.22532,874.57108c-13.1996-3.53986-26.67878-1.12866-40.00838-1.89111-3.88371-.22221-8.21359,1.05354-11.06363-3.01429,8.19252-7.93159,16.37058-15.88038,26.39373-21.58265-.183,7.76841,4.06362,10.71621,11.33224,10.539,4.68624-.11427,9.37686-.04829,14.06554-.06315A52.7617,52.7617,0,0,1,369.22532,874.57108Z" fill="#f9fafa"/><path d="M369.94479,858.55884c-4.68865.01486-9.37927-.05112-14.06551.06315-7.26862.17725-11.51526-2.77055-11.33224-10.539a72.872,72.872,0,0,1,16.29613-14.4412c5.18047-3.52031,9.44549-3.15854,9.17342,4.94573C369.79326,845.23791,369.9542,851.90128,369.94479,858.55884Z" fill="#c1d8ef"/><path d="M603.31406,805.90215c-2.64817-3.84538-6.56726-3.8547-10.68658-3.8159-11.37184.10724-22.74634.064-34.11843-.053-3.54792-.03651-7.54917.90134-9.84771-3.18148,9.372-4.78292,19.60357-.36565,29.29627-2.74151,4.76739-1.16856,10.03233-.147,14.9429-.92847C601.85636,793.7565,605.04817,797.27335,603.31406,805.90215Z" fill="#c1d8ef"/><path d="M798.1139,862.66361q-17.264-.03523-34.52747-.0716a14.69349,14.69349,0,0,1,1.63344-2.39028C781.62922,844.05541,782.70256,844.14089,798.1139,862.66361Z" fill="#f9fafa"/><path d="M449.01184,785.59346q-9.16146.00222-18.32434.00388C436.79366,779.88971,442.90158,775.95115,449.01184,785.59346Z" fill="#d6e4f5"/><path d="M508.04776,813.98132c-2.32031-3.10606-.911-6.69174-1.29349-10.04769C510.62475,806.83962,508.123,810.56665,508.04776,813.98132Z" fill="#c1d8ef"/><path d="M373.90465,912.678c-1.854.102-3.55394.00481-3.3401-2.57833Q372.22669,911.387,373.90465,912.678Z" fill="#f9fafa"/><path d="M547.25336,800.47685q-.95128.8039-1.9022,1.60761Q546.30262,801.28047,547.25336,800.47685Z" fill="#c1d8ef"/><path d="M514.53175,713.00206q.0285,1.13164.05706,2.26379C513.38124,714.54164,513.13721,713.79257,514.53175,713.00206Z" fill="#626260"/><path d="M519.43929,816.37512a2.13788,2.13788,0,0,1,.08636,3.08034Q519.48133,817.91372,519.43929,816.37512Z" fill="#c1d8ef"/><path d="M439.35992,874.70429c21.64438-1.38953,43.17835,1.59688,64.87893,1.22025,38.07681-.66088,75.87622-5.89179,113.99738-5.41259,14.32185.18008,28.64246-2.73707,43.07664-1.56315-4.00033,11.592-12.43938,13.821-23.73042,12.53887-32.87343-3.73283-65.62015,1.65164-98.4346,2.06231-29.81048.37324-59.64585-.93291-89.46342-1.748C445.142,881.6778,441.76424,878.589,439.35992,874.70429Z" fill="#c1d8ef"/><path d="M261.14913,914.43266s-42.50836,58.16821-42.02266,80.51042S202.61266,1210.594,202.61266,1210.594l17.48521-69.94084s4.37131-131.62477,7.28551-147.16718,40.03934-75.00454,40.03934-75.00454Z" fill="#202632" stroke="#202632" stroke-miterlimit="10" stroke-width="6"/><path d="M866.77227,939.62217s34.27737,80.09162,34.27737,101.94814,3.88561,136.96747,3.39991,139.396,9.2283-38.856,9.2283-38.856-3.49833-108.62036-5.3427-115.111c-2.92088-10.279-12.97634-57.84952-18.11009-68.387-3.90792-8.02138-14.43183-18.99008-14.43183-18.99008Z" fill="#202632" stroke="#202632" stroke-miterlimit="10" stroke-width="6"/><path d="M373.37954,933.52779s-9.80289,42.6-9.80289,72.94268V1144.071s11.902,3.92289,11.902,0,.33061-144.4321,0-148.39942,4.10293-63.58143,6.28159-62.14374S373.37954,933.52779,373.37954,933.52779Z" fill="#202632" stroke="#202632" stroke-miterlimit="10" stroke-width="6"/><path d="M734.82,943.93093s5.0383,76.97788,4.10164,87.5934.1161,110.21417.1161,110.21417-6.03912,6.28419-9.94649,4.07876-2.034-47.16532-2.034-47.16532,1.28781-76.80647-.44887-82.42646-1.7904-66.50669-1.7904-66.50669Z" fill="#202632" stroke="#202632" stroke-miterlimit="10" stroke-width="6"/><path d="M258.35217,922.72238c-3.22463-4.14967.81946-6.00273,2.797-8.28972,29.2623-33.842,61.75908-64.36249,98.55381-89.70264,11.14845-7.6778,11.73505-18.35534,16.13069-28.26531,2.68083-2.81231,6.5841-4.52383,7.80933-8.65149l-.27108.198c5.38157,2.264,3.79014-3.96114,6.31049-5.18046q2.05281-.54209,4.10541-1.08432c9.17441,1.89032,18.28581-5.28906,27.98723-.30657.82669.42449,14.66593-3.695,12.74331-12.32739-3.639-16.33861,1.29919-29.40094,11.05555-41.89787,7.19075-9.21067,17.56963-13.8238,26.76326-20.17542,13.989.8726,27.97116,3.66647,41.97582.14876q.10937,2.907.21886,5.81414c-1.3946.79051-1.15057,1.53958.05712,2.26441-.99061,6.73638,4.73543,16.12535-7.69852,18.18384,13.68642,16.21754,29.04151,30.06268,44.00908,44.31838,4.67356,4.45137,7.50377,3.46332,11.50089-.52033,10.68133-10.64516,21.331-21.37192,32.68892-31.26819,5.81531-5.067,7.90369-7.79505-1.12163-10.61056-3.79676-1.18442-4.3264-4.91866-4.74894-8.23447-.845-6.63067-1.41915-13.29589-2.10509-19.94679q14.22471-.021,28.44919-.04255c4.77745,4.21411,10.80736,1.46681,16.22473,2.88946,20.889,5.48567,35.74348,22.67467,37.10976,44.396a81.58047,81.58047,0,0,1,.12214,11.0855c-.30719,4.16213,1.4176,6.13027,5.40164,6.88631,8.34634,1.58392,15.78874,5.50405,23.27215,9.32026,6.85675,3.49662,13.44844,9.086,21.257,1.02554,2.22409-2.29586,6.4656-1.14932,9.71207-.10428,25.762,8.29218,41.242,27.60258,52.96536,50.47615,1.86754,3.64359,3.32918,6.83882,6.64264,9.41992,31.95165,24.88994,59.43682,54.13331,83.55271,86.58246a103.78079,103.78079,0,0,1,8.1983,13.72655c.86458,1.64375,1.26715,4.31125-.94047,5.34117-1.14094.53236-3.17725-.27838-4.57215-.964-6.32027-3.10692-8.328-10.36338-13.67075-14.4512-5.29678-9.79464-12.76915-17.856-20.48074-25.727-6.70859-8.49977-12.67169-17.64057-21.16694-24.6039-6.37745-7.28385-12.77976-14.54118-21.07638-19.78109-15.41134-18.52272-16.48468-18.6082-32.894-2.46188A14.688,14.688,0,0,0,763.587,862.591c-8.66044,7.43156-17.55381,14.61975-24.70061,23.63263-5.0161,3.874-11.55585,6.11781-13.83261,12.92272-3.687,3.27744-2.3907,8.72444-.831,10.61654,5.37407,6.51942,5.4732,14.7466,8.84056,21.78771-.997,4.35146,1.31576,8.23323,1.75663,12.38037.35766,3.36439,2.42907,7.25122-2.70172,8.96336q-3.64525-1.58541-7.291-3.16859c-4.02648-9.28714-6.20591-19.091-8.15037-28.96579-.74023-3.75928-1.522-5.63091-6.657-3.77883-17.79068,6.417-41.20508-2.707-50.63709-18.94327-1.997-3.43773-3.21439-7.01107-8.59111-6.95717-17.13528.1717-34.46616-1.92836-51.37856-.05519a554.7578,554.7578,0,0,1-141.66517-2.19707c-6.5329-.95086-8.55879,2.77173-9.31916,7.80818-1.4127,9.35775-7.03138,14.715-15.4663,18.03619-11.93624,4.69973-24.35529,4.18809-36.77,3.8452-5.30214-.14641-8.40876,1.05952-9.5745,7.33441-1.17913,6.34674-3.30831,12.984-9.05557,17.31272q-1.96134-1.81038-3.92378-3.622c-1.35718-6.60132,1.20217-12.53776,3.282-18.50873,1.31178-3.76588,2.49948-7.18751-3.01594-8.35638q-1.674-1.29012-3.348-2.58012l.37369-.34407-.17293-.47746q-2.8057-6.08991-5.61094-12.18037c-.37431-7.82212,5.88994-14.44268,4.07888-22.52487a52.76073,52.76073,0,0,0,.71947-16.01224c.00941-6.65756-.15153-13.32093.0718-19.97128.27207-8.10427-3.993-8.466-9.17342-4.94573a72.92106,72.92106,0,0,0-16.30057,14.44466c-10.01871,5.69881-18.19677,13.6476-26.38911,21.57894q-12.09123,11.56622-24.18238,23.13253c-6.96409,6.53-14.61668,12.36-20.41484,20.07508C268.1571,915.6452,266.04158,923.484,258.35217,922.72238ZM449.01184,785.59346c-6.11026-9.64231-12.21818-5.70375-18.32578.00314-2.1269.425-5.81.16189-4.29593,3.58278,4.40082,9.94284-.56544,21.08453,4.41859,30.827q-.16252,2.1512-.325,4.30231c3.11949,12.24944,1.24973,25.43747,6.99984,37.192.40074,4.43312-.56785,9.06075,1.87639,13.20357,2.40432,3.88473,5.78205,6.97351,10.32451,7.09772,29.81757.81506,59.65294,2.12121,89.46342,1.748,32.81445-.41067,65.56117-5.79514,98.4346-2.06231,11.291,1.28216,19.73009-.94685,23.73331-12.54078,5.43773-7.102,14.70819-11.42981,15.73254-21.72628,6.06391-9.30262,12.2682-18.52815,15.98255-29.11972,2.85661-4.38489,5.76047-8.7398,8.5607-13.16034,7.1534-11.29271,7.13483-11.30443-6.42519-15.68019-6.76984-5.701-15.24856-7.94775-23.13737-11.37166-1.74626-.758-3.78443-1.799-5.51385.15437-11.2188,12.67176-26.64575,13.21078-41.79209,14.43423-12.23174.988-12.23964.8903-8.893,13.629l2.7903,11.92782,4.81279,33.343c-4.0052,8.05056-6.267,8.37754-11.11628,1.49173a32.7259,32.7259,0,0,1-2.24314-4.46007q-2.508-15.919-5.016-31.838-.8718-5.3343-1.74367-10.66859c1.73411-8.6288-1.4577-12.14565-10.41355-10.7204-4.91057.78144-10.17551-.24009-14.9429.92847-9.6927,2.37586-19.92428-2.04141-29.2975,2.74262l-1.40675,1.624-1.90183,1.60742a33.24977,33.24977,0,0,1-15.27637,2.66516c-11.86719-.86865-11.88187-.66834-10.63587,11.62569q.04255,1.53942.08518,3.07879a.732.732,0,0,0,.13892,1.14914q-.286,13.01025-.572,26.02057c-2.29114,7.01736.17981,15.12009-4.4676,21.74676-7.41833-4.4885-4.9443-11.869-6.3194-17.97261q-.01989-16.0473-.03973-32.09466-.10843-2.1609-.21695-4.32179c.0752-3.41467,2.577-7.1417-1.29423-10.0483l-.14311-.493-.51292-.02263C486.47968,799.3625,465.94216,798.25191,449.01184,785.59346Zm78.66411,10.54161c6.41878,1.25966,11.69359-2.99146,14.29254-8.097,2.76828-5.43819-3.61744-8.3237-7.118-11.68125A250.19719,250.19719,0,0,1,502.56124,738.295c-2.47631-3.5668-4.44212-6.84807-.92035-11.66916,1.384-1.89469,3.96245-8.98643-1.7884-10.04349-11.57633-2.12794-23.89388-5.2219-33.92307,4.57878-7.144,6.98116-14.04213,14.18483-18.37482,23.49239-5.64475,12.12628-4.4374,22.48688,4.52709,31.25518,13.88172,13.57791,32.26434,15.02881,49.9807,18.14517,3.79152.66686,5.37456-1.93731,6.23761-5.12409.52433-1.93589.8351-4.22658,3.6167-3.8093,2.0959.31446,4.01328,1.53464,4.158,3.79542C516.545,796.26366,521.91943,795.87118,527.67595,796.13507Zm198.63854-3.12591c-5.52637-.715-7.52672,3.8912-9.97719,7.895-9.26286,15.13415-18.40131,30.3465-27.84683,45.36581-3.80207,6.04572-4.1451,9.8166,3.88386,12.47424,10.76856,3.56464,21.749,7.46257,29.6361,16.13916,4.84264,5.32748,8.50968,4.276,12.23538-.41863,7.82293-9.85774,17.29572-17.97582,26.6951-26.21343,2.74761-2.40792,4.97249-5.43047,7.33123-8.25943,3.86209-4.63183,4.18878-9.01832.9111-14.64386-6.23014-10.69308-14.8888-19.00278-24.41062-26.34491C739.80672,795.174,733.395,793.24456,726.31449,793.00916Zm-158.42265-5.17343c8.32765,0,16.99728-.17681,25.65544.06272,5.6962.15764,9.93105-.839,10.438-7.68249.3798-5.12686,4.336-6.2945,6.22083-2.18745,5.51169,12.00941,14.97392,7.76039,23.15205,6.20687,18.0315-3.42539,24.42067-10.21321,24.37484-24.89679-.01406-4.50181-1.68433-9.01856-2.74311-13.49367-4.51645-19.08906-11.91029-27.43774-30.591-28.53649-6.03343-.35492-12.06958-.88672-18.05742-1.68882-2.50494-.33556-5.19228-.82419-6.16161,1.7278-2.1194,5.57935-.49195,11.262.73073,16.81416.8343,3.7887,3.32912,2.06916,5.50527,1.412,6.08661-1.83826,7.17061.20013,5.25379,5.977-1.257,3.78833-3.646,6.17085-6.28468,8.77884C592.59084,762.975,579.93581,775.76132,567.89184,787.83573ZM383.62236,870.38644c11.40167-4.08226,22.50487-7.44913,33.94115-5.06821,7.15617,1.48987,8.80148-.2354,8.4743-7.211-1.03718-22.11439-6.19893-43.83783-5.99182-66.05786.04136-4.43515-2.70036-6.587-7.02851-6.96661-11.01823-.96652-31.076,13.88338-31.77792,24.76006C379.94758,829.86349,381.83267,849.84044,383.62236,870.38644Zm313.33449,39.95607c11.38572.19118,19.2461-6.43592,21.58671-18.19994,1.749-8.79-3.24239-16.72541-13.52265-20.78461-4.95189-1.95531-10.47974-2.62963-15.18088-5.00389-8.33024-4.20714-14.07529,1.952-18.90516,5.65669-4.41424,3.3858-6.83171,10.21747-4.3169,17.27553C672.01153,904.42445,679.75057,910.05363,696.95685,910.34251ZM408.97477,873.20036c-12.41671,1.46045-24.15975,3.97125-30.02209,17.33066-4.55812,10.38737.88541,18.88018,11.97519,17.71686a46.50983,46.50983,0,0,1,13.92413.48646c7.4456,1.44763,14.62941.27044,21.71258-2.29155,7.74219-2.80046,10.77738-8.717,10.85991-16.33681.08389-7.74429-4.29012-12.37309-11.59351-14.2544C420.366,874.44379,414.89257,872.89323,408.97477,873.20036Z" fill="#202632" stroke="#202632" stroke-miterlimit="10" stroke-width="6"/></g></svg>