<svg id="Layer_1" data-name="Layer 1" xmlns="http://www.w3.org/2000/svg" xmlns:xlink="http://www.w3.org/1999/xlink" viewBox="0 0 1133.85827 1133.85827"><defs><clipPath id="clip-path"><circle cx="566.92913" cy="566.92913" r="566.92913" fill="none"/></clipPath></defs><g clip-path="url(#clip-path)"><polygon points="806.666 1068.383 880.273 1188.339 190.789 1188.339 241.588 1032.065 806.666 1068.383" fill="#f1c849"/><path d="M453.21961,714.8661c3.60468-8.68279,12.17029-8.98433,19.3386-10.35449,11.212-2.143,19.58532-11.99437,31.72847-11.0059,4.94736,4.157,10.12259,8.33654,10.43943,15.42643.39221,8.77577,4.779,14.94529,11.60122,19.81893,6.40412,5.65948,12.89463,11.225,19.18478,17.00855,4.95821,4.5589,9.26851,5.15233,14.78191.28487,9.1182-8.05,18.88453-15.36543,28.37783-22.99031,9.822,4.11115,10.32613,9.23324,1.90793,15.68514a116.409,116.409,0,0,0-9.028,8.27109c-22.46821,21.33884-30.70277,22.611-51.28447,4.0681-10.92361-9.8416-25.13774-17.17565-28.9343-33.93122-1.64508-7.25993-7.57723-3.27847-9.96995.32589-4.4306,6.67442-10.16676,8.00341-17.69823,8.4734-13.13989.81986-17.8997,9.63115-12.35139,21.63291,5.42814,11.74176,14.98393,19.32035,26.69789,24.37638,19.11656,8.25119,39.20872,11.90713,59.8875,13.02815,5.2755.28594,10.42812,2.23165,9.90678,8.53561-.48818,5.90252-5.85082,6.26212-10.49378,5.86964-7.76161-.65593-15.68605-.95219-23.1738-2.85161-7.8443-1.98967-10.68095.05761-12.7058,7.92288-9.6513,37.48929-15.54508,75.63686-21.02049,113.87046-.40639,2.83751-2.3043,6.37235,1.869,9.59985a101.13216,101.13216,0,0,0,7.934-7.0028c31.06816-33.5248,58.04086-70.201,83.05414-108.37249,9.33869-14.25119,9.312-14.29282-7.07721-18.06322-3.822-.87928-7.35568-2.18339-7.48556-6.78866-.15793-5.59706,4.21856-6.43788,8.37839-6.97392,1.99259-.25675,4.09387.461,6.12438.34881,24.35813-1.34618,47.26289-6.66077,64.78-25.31637,4.674-4.97784,8.39408-11.17752,1.86678-17.26794-5.81215-5.42325-11.01625-2.42294-16.0004,2.40914-6.228,6.03794-10.29,2.91209-12.45478-4.0466-6.31871-20.31191-13.294-23.28161-32.534-13.61389-3.88115.43417-4.54414-4.31693-7.82071-4.85765-4.49936-5.78639,1.09606-11.69275-.20813-17.51707,21.31,8.0721,42.95251,8.3348,64.87,2.85922,4.32425-1.0803,7.24879.31255,7.62449,5.21552q-1.33935.87271-2.67894,1.74883-2.45166.30267-4.90341.60549c-3.48742-.34655-7.12606-1.51486-9.93376,1.83012l-.0208.01078c-2.82248.252-7.52627-1.0472-7.70078,2.21257-.21575,4.02942,3.387,7.40237,7.96258,7.68046,5.65535.34376,11.34884.062,17.02582.05044q1.87014,1.0969,3.74033,2.19379c-.17669,1.16793.24839,1.57533,1.37868,1.09139q1.88109,1.95006,3.76219,3.9c-.31209,1.14651.05518,1.62027,1.2558,1.26889,1.90514,4.08778,4.994,8.30985,3.81646,12.754-2.66816,10.07053,3.00626,15.82163,9.13727,22.22354C727.45479,820.0598,770.56312,880.127,813.94313,939.96873c-.107,2.45175.329,4.53552,3.31359,4.89218q.92936,1.05155,1.85863,2.10331c5.6249,13.34221,16.10375,23.37352,24.23278,34.98869,6.34713,9.06916,14.55192,16.83761,21.93126,25.184.26882,4.81512,1.26417,9.16463,6.79393,10.60875l.5077-.36314-.41717.46358c1.36405,4.818,3.60713,9.03048,8.06872,11.71417q1.47211,2.32217,2.94407,4.64418a5.80558,5.80558,0,0,0,3.55112,5.8155l.42742-.26746q1.19067,2.46243,2.37982,4.9268,1.02027,1.57194,2.04053,3.1438a1.77906,1.77906,0,0,0,1.55876,1.33532l.14693.74951-.11722.705c-.563,1.81609-.1611,3.16627,1.81347,3.75675a3.62835,3.62835,0,0,0,1.08046,2.11515,2.00593,2.00593,0,0,0,1.2601,2.87664l-.01583.01124c-.20459,3.57737,1.71653,6.10625,4.13563,8.38955q.86954,1.727,1.73915,3.45409c.55331,4.45144,3.09468,8.72389,1.20522,13.39521l.07515-.086a2.24292,2.24292,0,0,0-1.0059.96117c-6.701,2.52956-9.91386-1.63709-12.56438-6.66047-4.9852-9.44814-9.3745-19.251-14.90456-28.36426-23.66371-38.99638-53.10119-73.91328-79.17782-111.21656-8.03616-11.49587-17.24851-22.16925-26.476-33.92459-1.84091,2.78458-2.72734,4.10188-3.58994,5.43464-2.48468,3.83895-3.29429,10.61569-9.93662,8.32214-6.89193-2.37958-4.94924-8.47295-3.62832-13.70588a27.51264,27.51264,0,0,1,2.41616-6.98448c3.581-6.23225,2.235-11.42861-1.96039-16.92651-25.4392-33.33773-50.99659-66.5674-79.72043-97.20673-2.92642-3.12163-5.22906-5.57134-10.24509-2.1104-23.339,16.103-25.822,20.04891-22.40806,47.7331,5.9801,48.49474,10.2261,97.39214,22.76274,144.72756,9.9318,37.50022,3.59168,34.8473-27.7603,39.22674-16.42841,2.29483-22.95232-5.635-19.21862-22.03194,1.54134-6.7689,5.65926-12.96994,4.75362-20.26818q-7.593-61.18716-15.29286-122.361c-.25185-2.00724-.36907-4.421-2.7308-5.02693-2.2853-.58634-3.66239,1.31986-4.88947,2.94413-5.917,7.83232-11.90554,15.61336-17.681,23.54936a683.4679,683.4679,0,0,1-80.3504,91.71728c-5.65467,5.4105-12.23338,8.9596-8.51559,18.75625,1.51368,3.98855-1.87046,9.30209-6.38648,8.72193-19.84374-2.54916-27.00685,14.46776-38.88793,24.14973-3.33835,2.72048-5.89928,5.83872-2.29792,10.42778,22.73439,28.96975,14.55491,52.67863-3.39827,82.44086-13.64948,19.0949-36.63348,17.91038-56.79948,24.2525q-10.71481-.20021-21.42933-.399a21.206,21.206,0,0,0-12.53468-3.29446,7.81859,7.81859,0,0,0-6.39583-2.16876c-1.50807-2.1401-3.697-2.64093-6.1309-2.55346-13.65529-9.59593-24.14689-16.57053-28.325-33.52163-3.54886-13.28317.92847-21.18866,6.28489-33.72933,6.5198-15.26462,12.55628-30.326,12.43785-47.1966,2.233-36.15789.46655-72.338.603-108.50761,5.16593-6.19289,9.16851-4.69311,11.17222,2.312,1.21844,4.2597,1.31162,8.93826,1.32552,13.43043.10147,32.79037.05466,65.58119.05466,99.22038,12.21623-2.3262,10.082-8.28187,7.17412-14.71-3.20173-7.07761-2.55513-13.91317,3.19245-19.28416,4.994-4.66688,11.438-5.49074,17.08209-1.61756,6.22837,4.27425,8.67533-.20774,12.0404-3.68007,5.99928-6.19041,12.598-11.66719,21.49209-5.72946,8.436,5.632,7.1734,13.85548,4.58364,22.19571-.98929,3.1858-5.62113,6.70572-1.33759,9.77683,4.06417,2.91367,8.03525-.92648,11.03943-3.276,20.27255-15.85549,33.01069-39.0644,37.21662-61.94788,7.85433-42.73346,12.88227-86.1598,21.54542-128.84033,3.07761-15.1626,4.0644-26.91545-11.99856-34.4647-3.1511-1.481-5.91365-4.6901-7.81668-7.74877-4.66908-7.50439-8.58106-5.92552-14.54419-.95823-27.5357,22.93678-52.76348,48.24961-77.65852,73.92995-13.22692,13.64412-30.02946,25.55276-23.59421,48.84431a5.22135,5.22135,0,0,1-3.934,6.73422c-3.40069.73006-6.42063.08061-8.36-3.48108-1.24717-2.29038.0704-6.01969-3.61007-6.936-4.04895,1.25034-5.5658,4.96171-7.9437,7.68709-38.70516,44.36165-73.48851,91.69926-106.64111,140.29813-4.91219,7.20082-8.59926,16.21825-18.69864,18.38022q-2.2526-1.69556-4.50516-3.39127-.32587-1.13965-.65187-2.2793-.09069-1.1789-.18145-2.35779,1.70544-3.5644,3.41072-7.12881a13.273,13.273,0,0,0,5.45435-7.45688q.87252-1.45025,1.7451-2.90017a49.316,49.316,0,0,0,12.4708-17.11774q1.05351-1.65282,2.10694-3.30547a76.46036,76.46036,0,0,0,16.11057-23.539c2.95631-2.90816,5.47307-6.08574,6.308-10.29454,4.86055-5.4973,10.09511-10.7104,14.52124-16.53774A1412.45324,1412.45324,0,0,1,342.3134,841.72558q1.04632-1.10538,2.09265-2.21068,1.32128-1.39584,2.64254-2.79167,1.11366-1.23238,2.2274-2.46471c23.63066-26.87059,48.6263-52.605,76.858-74.41412C441.8791,747.6812,446.57724,731.2482,453.21961,714.8661ZM539.295,895.93546c-12.15935,13.32344-25.85712,25.34246-34.96091,41.26242a26.84923,26.84923,0,0,0-14.9657,17.0449c6.61716-3.94527,13.2472-7.82177,16.17114-15.70792,15.03226-10.90178,27.23194-24.298,35.90817-40.79725a1.2971,1.2971,0,0,1,.71787-1.49163c19.303-15.66788,60.37741-74.7701,57.44058-86.01428-1.42058,2.59132-2.11425,4.07179-2.99472,5.43132-16.26544,25.11534-32.72936,50.08681-51.80408,73.22191-1.66189,2.01561-4.23673,4.21265-2.50979,7.55129Q540.7963,896.18592,539.295,895.93546Zm-54.28477-34.17493c2.05477-21.18644,8.33-41.49239,12.94363-62.14542.6562-2.93765,3.5772-7.143-1.15011-8.23807-4.52273-1.04773-4.31663,4.24258-4.88358,6.97558-3.49383,16.84169-6.59379,33.765-9.82472,50.66124-6.74176,33.07246-12.41068,66.299-14.35981,100.05962-4.16948,6.0672-8.41412,12.08493-12.46593,18.22972-1.33322,2.022-2.83179,4.78926-.44864,6.675,5.33448,4.221,11.849,3.37785,17.76023,2.12427,6.53936-1.38682,2.60877-6.66341,2.31647-10.212-.4356-5.28843-1.56072-10.52-2.39249-15.77578Q478.75777,905.93764,485.01024,861.76053Zm-94.59781,156.14985c-38.70045.19288-67.41587,17.82445-67.1887,55.73585.16757,27.97163,22.11075,46.44709,55.67072,45.66825,41.67568-.96728,59.10548-20.485,61.68933-55.65515C442.74025,1034.307,423.63935,1013.99949,390.41243,1017.91038ZM633.54074,892.32371c-.48516-33.5426-10.08023-64.10434-10.48955-95.72791-.04455-3.4467-1.00116-7.19162-5.59052-6.08281-5.23223,1.26414-3.563,6.05212-3.12936,9.33376,5.14041,38.90152,11.27987,77.68859,15.53845,116.68256,2.73277,25.02244,11.58743,50.112,2.16469,75.58913-.8369,2.26286-1.44689,5.59992,1.39812,6.50913,5.68723,1.81746,11.543.51561,16.79892-1.869,5.31062-2.4096,3.22306-7.42325,1.63829-10.75473-9.53725-20.05011-7.899-42.287-12.43269-63.30929C637.15948,912.13366,630.79011,901.92,633.54074,892.32371ZM426.78729,1009.03809c9.9076-2.05776,15.09381-9.526,21.81861-15.06646,1.518-1.25064,2.73458-3.24846.77976-5.22871-1.84688-1.871-3.828-1.131-5.263.47444C438.27367,995.76118,432.55439,1002.42105,426.78729,1009.03809ZM632.76988,786.37794c11.60476-3.35275,11.60476-3.35275,18.39522-14.02243C644.57418,775.10955,639.57843,778.90454,632.76988,786.37794Z" fill="#564543"/><path d="M190.85458,1049.86708c10.09938-2.162,13.78645-11.1794,18.69864-18.38022,33.1526-48.59887,67.93595-95.93648,106.64111-140.29813,2.3779-2.72538,3.89475-6.43675,7.9437-7.68709,3.68047.91631,2.3629,4.64562,3.61007,6.936,1.9394,3.56169,4.95934,4.21114,8.36,3.48108a5.22135,5.22135,0,0,0,3.934-6.73422c-6.43525-23.29155,10.36729-35.20019,23.59421-48.84431,24.895-25.68034,50.12282-50.99317,77.65852-73.92995,5.96313-4.96729,9.87511-6.54616,14.54419.95823,1.903,3.05867,4.66558,6.26777,7.81668,7.74877,16.063,7.54925,15.07617,19.3021,11.99856,34.4647-8.66315,42.68053-13.69109,86.10687-21.54542,128.84033-4.20593,22.88348-16.94407,46.09239-37.21662,61.94788-3.00418,2.3495-6.97526,6.18965-11.03943,3.276-4.28354-3.07111.3483-6.591,1.33759-9.77683,2.58976-8.34023,3.85238-16.56375-4.58364-22.19571-8.89412-5.93773-15.49281-.461-21.49209,5.72946-3.36507,3.47233-5.812,7.95432-12.0404,3.68007-5.64408-3.87318-12.088-3.04932-17.08209,1.61756-5.74758,5.371-6.39418,12.20655-3.19245,19.28416,2.90791,6.42808,5.04211,12.38375-7.17412,14.71,0-33.63919.04681-66.43-.05466-99.22038-.0139-4.49217-.10708-9.17073-1.32552-13.43043-2.00371-7.00506-6.00629-8.50484-11.16544-2.32522-1.90495,1.31821-2.16517,3.30675-2.13426,5.40289q.76012,51.559,1.52449,103.118c.11843,16.87057-5.918,31.932-12.43785,47.1966-5.35642,12.54067-9.83375,20.44616-6.28489,33.72933-13.02938-2.5402-26.34929-6.62224-39.34007-4.52633-22.25327,3.59042-42.8431-2.67607-63.7907-7.36956-4.533-1.01554-8.52109-4.46457-12.7626-6.79228C192.23376,1061.3495,190.42125,1059.62174,190.85458,1049.86708Z" fill="#f1c849"/><path d="M338.07245,1122.6872c2.43387-.08747,4.62283.41336,6.1309,2.55346C341.64279,1125.63427,339.32994,1125.42872,338.07245,1122.6872Z" fill="#f5f4f4"/><path d="M185.5161,1041.83872l.18149,2.35779a10.7846,10.7846,0,0,1-.90682-1.64395C184.74249,1042.42136,185.25939,1042.08212,185.5161,1041.83872Z" fill="#f5f4f4"/><path d="M441.36267,1106.85034c17.95318-29.76223,26.13266-53.47111,3.39827-82.44086-3.60136-4.58906-1.04043-7.7073,2.29792-10.42778,11.88108-9.682,19.04419-26.69889,38.88793-24.14973,4.516.58016,7.90016-4.73338,6.38648-8.72193-3.71779-9.79665,2.86092-13.34575,8.51559-18.75625a683.4679,683.4679,0,0,0,80.3504-91.71728c5.7755-7.936,11.764-15.717,17.681-23.54936,1.22708-1.62427,2.60417-3.53047,4.88947-2.94413,2.36173.60594,2.479,3.01969,2.7308,5.02693q7.6767,61.17675,15.29286,122.361c.90564,7.29824-3.21228,13.49928-4.75362,20.26818-3.7337,16.397,2.79021,24.32677,19.21862,22.03194,31.352-4.37944,37.6921-1.72652,27.7603-39.22674C651.48209,927.269,647.23609,878.37156,641.256,829.87682c-3.41392-27.68419-.9309-31.63014,22.40806-47.7331,5.016-3.46094,7.31867-1.01123,10.24509,2.1104,28.72384,30.63933,54.28123,63.869,79.72043,97.20673,4.19534,5.4979,5.54137,10.69426,1.96039,16.92651a27.51264,27.51264,0,0,0-2.41616,6.98448c-1.32092,5.23293-3.26361,11.3263,3.62832,13.70588,6.64233,2.29355,7.45194-4.48319,9.93662-8.32214.8626-1.33276,1.749-2.65006,3.58994-5.43464,9.2275,11.75534,18.43985,22.42872,26.476,33.92459,26.07663,37.30328,55.51411,72.22018,79.17782,111.21656,5.53006,9.11328,9.91936,18.91612,14.90456,28.36426,2.65052,5.02338,5.8634,9.19,12.56438,6.66047,1.54218,19.83219-16.90218,29.08492-36.23991,32.05643-36.18317,5.56-72.5762,8.70308-109.0134,6.84709-36.518-1.8599-73.19584.67042-109.46554-2.81451-34.88071-3.35146-69.78727-7.408-104.5353-12.74931-26.28747-4.0408-53.311-2.16808-79.90081.04532C456.22558,1109.54368,448.97031,1107.785,441.36267,1106.85034Zm287.09968-47.75514c.68184,6.00913-6.39091,7.70522,1.9127,8.20145,6.79649.4062,12.90306.07989,13.506-5.58653q6.72042-63.14988,13.61853-126.28076c.53966-5.0071,1.23959-10.743-5.56436-11.62293-6.52361-.84369-8.14433,4.5037-8.75244,9.63235C738.19725,975.48516,733.31624,1017.544,728.46235,1059.0952Z" fill="#f1c849"/><path d="M904.3822,1084.61161a3.40042,3.40042,0,0,0,1.78234-.19937c-.006.00377-.834.56561-.834.56561l-.87263-.4516Z" fill="#f1c849"/><path d="M588.866,723.24268c19.24048-9.66749,26.21578-6.69779,32.53449,13.61412,2.16477,6.95869,6.22683,10.08454,12.45478,4.0466,4.98415-4.83208,10.18825-7.83239,16.0004-2.40914,6.5273,6.09042,2.80724,12.2901-1.86678,17.26794-17.51716,18.6556-40.42192,23.97019-64.78,25.31637-2.03051.1122-4.13179-.60556-6.12438-.34881-4.15983.536-8.53632,1.37686-8.37839,6.97392.12988,4.60527,3.66359,5.90938,7.48556,6.78866,16.38922,3.7704,16.4159,3.812,7.07721,18.06322-25.01328,38.17147-51.986,74.84769-83.05414,108.37249a101.13216,101.13216,0,0,1-7.934,7.0028c-4.17333-3.2275-2.27542-6.76234-1.869-9.59985,5.47541-38.2336,11.36919-76.38117,21.02049-113.87046,2.02485-7.86527,4.8615-9.91255,12.7058-7.92288,7.48775,1.89942,15.41219,2.19568,23.1738,2.85161,4.643.39248,10.0056.03288,10.49378-5.86964.52134-6.304-4.63128-8.24967-9.90678-8.53561-20.67878-1.121-40.77094-4.777-59.8875-13.02815-11.714-5.056-21.26975-12.63462-26.69789-24.37638-5.54831-12.00176-.7885-20.813,12.35139-21.63291,7.53147-.47,13.26763-1.799,17.69823-8.4734,2.39272-3.60436,8.32487-7.58582,9.96995-.32589,3.79656,16.75557,18.01069,24.08962,28.9343,33.93122,20.5817,18.54294,28.81626,17.27074,51.28447-4.0681a116.409,116.409,0,0,1,9.028-8.27109c8.4182-6.4519,7.91411-11.574-1.90748-15.68492Z" fill="#f1c849"/><path d="M390.41243,1017.91038c33.22692-3.91089,52.32782,16.39661,50.17135,45.74895-2.58385,35.17011-20.01365,54.68787-61.68933,55.65515-33.56.77884-55.50315-17.69662-55.67072-45.66825C322.99656,1035.73483,351.712,1018.10326,390.41243,1017.91038Zm16.00251,37.74574c.119-7.56954-2.83013-10.3226-7.23518-10.56171-4.59951-.24966-7.65133,2.83367-7.73561,7.43766-.09181,5.01087,3.37473,6.85909,8.03322,6.85275C403.73882,1059.379,406.424,1057.68545,406.41494,1055.65612Zm-37.557,2.9111c-1.12139-3.832-3.47943-6.86587-7.55295-6.72886-3.799.12773-7.28738,2.19454-7.23774,6.7462.05379,4.93245-1.70371,1.86107,2.8503,1.67219C360.97587,1060.08837,368.24642,1062.70265,368.85792,1058.56722Z" fill="#f1c849"/><path d="M633.54074,892.32371c-2.75063,9.59631,3.61874,19.80995,5.89635,30.37089,4.53365,21.02229,2.89544,43.25918,12.43269,63.30929,1.58477,3.33148,3.67233,8.34513-1.63829,10.75473-5.2559,2.38456-11.11169,3.68641-16.79892,1.869-2.845-.90921-2.235-4.24627-1.39812-6.50913,9.42274-25.47713.56808-50.56669-2.16469-75.58913-4.25858-38.994-10.398-77.781-15.53845-116.68256-.43367-3.28164-2.10287-8.06962,3.12936-9.33376,4.58936-1.10881,5.546,2.63611,5.59052,6.08281C623.46051,828.21937,633.05558,858.78111,633.54074,892.32371Z" fill="#f1c849"/><path d="M542.30873,896.45205c-1.7381-3.35447.83674-5.55151,2.49863-7.56712,19.07472-23.1351,35.53864-48.10657,51.80408-73.22191.88047-1.35953,1.57414-2.84,2.99472-5.43132,2.93683,11.24418-38.13753,70.3464-57.44669,86.00568C542.15344,896.22878,542.30873,896.45205,542.30873,896.45205Z" fill="#d0c2c0"/><path d="M467.73565,949.07348c1.94913-33.76066,7.618-66.98716,14.361-100.06067,1.70764,4.08039-2.027,9.40554,2.91361,12.74772q-6.25248,44.177-12.50393,88.35948Q470.122,949.60211,467.73565,949.07348Z" fill="#636360"/><path d="M467.73565,949.07348q2.38585.52595,4.77066,1.04653c.83075,5.25043,1.95587,10.482,2.39147,15.77043.2923,3.54857,4.22289,8.82516-2.31647,10.212-5.91119,1.25358-12.42575,2.09675-17.76023-2.12427-2.38315-1.88569-.88458-4.65293.44864-6.675C459.32153,961.15841,463.56617,955.14068,467.73565,949.07348Z" fill="#f1c849"/><path d="M485.01024,861.76053c-4.94065-3.34218-1.206-8.66733-2.91361-12.74772,3.22976-16.89515,6.32972-33.8185,9.82355-50.66019.56695-2.733.36085-8.02331,4.88358-6.97558,4.72731,1.09509,1.80631,5.30042,1.15011,8.23807C493.34023,820.26814,487.065,840.57409,485.01024,861.76053Z" fill="#f1c849"/><path d="M541.44771,897.73761c-8.67623,16.4992-20.87591,29.89547-35.90817,40.79725a7.03294,7.03294,0,0,1-1.20582-1.343c9.10417-15.91392,22.80194-27.93294,34.96151-41.25653Q540.37171,896.83632,541.44771,897.73761Z" fill="#636360"/><path d="M328.47022,1008.23964q-.76284-51.559-1.52449-103.118c-.03091-2.09614.22931-4.08468,2.13426-5.40289C328.93677,935.90161,330.70324,972.08175,328.47022,1008.23964Z" fill="#636360"/><path d="M426.78729,1009.03809c5.7671-6.617,11.48638-13.27691,17.33538-19.82073,1.435-1.60542,3.41611-2.34543,5.263-.47444,1.95482,1.98025.73826,3.97807-.77976,5.22871C441.8811,999.51206,436.69489,1006.98033,426.78729,1009.03809Z" fill="#d0c2c0"/><path d="M632.76988,786.37794c6.80855-7.4734,11.8043-11.26839,18.39522-14.02243C644.37464,783.02519,644.37464,783.02519,632.76988,786.37794Z" fill="#d0c2c0"/><path d="M505.53954,938.53486c-2.92394,7.88615-9.554,11.76265-16.17114,15.70792a26.862,26.862,0,0,1,14.96547-17.04792A7.10144,7.10144,0,0,0,505.53954,938.53486Z" fill="#636360"/><path d="M813.94313,939.96873c2.18466.89911,3.02209,2.711,3.31344,4.89256C814.2721,944.50425,813.83616,942.42048,813.94313,939.96873Z" fill="#636360"/><path d="M347.04859,836.72331q1.114-1.23273,2.22767-2.46509Q348.16214,835.49106,347.04859,836.72331Z" fill="#636360"/><path d="M656.82316,725.27541a1.07455,1.07455,0,0,1,1.37883,1.092C657.07155,726.85074,656.64647,726.44334,656.82316,725.27541Z" fill="#d0c2c0"/><path d="M342.3134,841.72558q1.04694-1.10628,2.09326-2.21158Q343.35936,840.62073,342.3134,841.72558Z" fill="#636360"/><path d="M541.44771,897.73761q-1.07613-.90123-2.15248-1.8023c1.00063.1671,2.00149.334,3.00792.50883.00558.00791-.14971-.21536-.14368-.20676A1.316,1.316,0,0,0,541.44771,897.73761Z" fill="#d0c2c0"/><path d="M661.964,730.26683a1.09845,1.09845,0,0,1,1.25587,1.26942C662.01921,731.8871,661.65194,731.41334,661.964,730.26683Z" fill="#d0c2c0"/><path d="M889.535,1044.67932c1.73471.3602,2.49268,1.357,2.04272,3.14169Q890.55418,1046.25224,889.535,1044.67932Z" fill="#d0c2c0"/><path d="M728.46235,1059.0952c4.85389-41.55121,9.7349-83.61,14.72048-125.65642.60811-5.12865,2.22883-10.476,8.75244-9.63235,6.804.88,6.104,6.61583,5.56436,11.62293q-6.80456,63.14094-13.61853,126.28076c-.603,5.66642-6.70956,5.99273-13.506,5.58653C722.07144,1066.80042,729.14419,1065.10433,728.46235,1059.0952Z" fill="#564543"/><path d="M406.41494,1055.65612c.00908,2.02933-2.67612,3.7229-6.93757,3.7287-4.65849.00634-8.125-1.84188-8.03322-6.85275.08428-4.604,3.1361-7.68732,7.73561-7.43766C403.58481,1045.33352,406.534,1048.08658,406.41494,1055.65612Z" fill="#564543"/><path d="M368.85792,1058.56722c-.6115,4.13543-7.882,1.52115-11.94039,1.68953-4.554.18888-2.79651,3.26026-2.8503-1.67219-.04964-4.55166,3.43873-6.61847,7.23774-6.7462C365.37849,1051.70135,367.73653,1054.73521,368.85792,1058.56722Z" fill="#564543"/></g></svg>