<svg id="Layer_1" data-name="Layer 1" xmlns="http://www.w3.org/2000/svg" xmlns:xlink="http://www.w3.org/1999/xlink" viewBox="0 0 1133.85827 1133.85827"><defs><clipPath id="clip-path"><circle cx="566.92913" cy="566.92913" r="566.92913" fill="none"/></clipPath></defs><g clip-path="url(#clip-path)"><path d="M223.86445,948.77538s-26.76978,26.6156-26.76978,39.18238-12.56678,97.74157-12.56678,97.74157l2.79262,71.21171,511.74693,20.94462,238.76869-8.37785,33.51139-25.13354s14.66124-46.77633-12.56677-67.02279S880.58749,1002.619,875.00226,993.543s-46.3497-78.07582-46.3497-78.07582Z" fill="#142132"/><path d="M502.37589,937.94381s14.3,219.41925,4.74945,243.35247,104.7135-10.03652,104.7135-10.03652-5.90874-208.167-13.378-230.698S502.37589,937.94381,502.37589,937.94381Z" fill="#bdbdbd"/><polygon points="426.009 938.227 687.66 942.005 663.502 816.781 628.916 777.872 418.383 786.837 426.009 938.227" fill="#fff"/><path d="M760.88277,822.35672c-.12663.29608-2.50629,2.72189-2.50361,3.04528-1.52452,1.72928-2.1821,1.88425.54539,3.72981,4.78933,3.24069,5.5956,10.35674,10.567,13.25311l-.00386-.00533c1.35457,3.35817,4.714,4.944,6.78128,7.67223-1.54152,5.3835,11.43033,21.694,21.149,25.51476,1.46557,3.0442,1.12044,6.40923,7.74693,8.83043.41025,7.2018,4.9135,6.2553,7.38968,9.59144,5.205,7.2986,10.2452,14.72034,16.45527,21.247,1.42542,1.49806,2.66913,3.09055,5.05548,2.6159v31.12475q-100.81079-.03114-201.62161-.06221c-1.296-.00041-2.59483-.05537-3.88731.01214-1.62209.08467-2.40687-.54481-2.2552-2.23364.73224-8.15611-1.00529-16.22945-.83057-24.36778,2.01479,3.14564,4.15,3.14964,6.66829.46522,8.704-9.27809,19.85695-15.0365,30.822-20.97558,4.50207-2.43848,7.79282-5.6118,8.6516-10.59866a41.9928,41.9928,0,0,0,.15767-9.97263c-.75287-10.68635,5.41023-17.893,12.74008-23.96073,10.879-9.00562,23.90115-14.24307,36.84115-19.6805,9.46338-3.97649,19.30975-7.60346,27.11162-14.77966,3.11056-2.86113,3.79726-5.85737,1.58421-9.83918-7.5177-13.52614-19.40165-21.88867-32.82043-28.55185l.73927-6.559q.04746-.64379.09489-1.28756c.0058-.58154,2.32888-3.27979,2.33465-3.8626q2.37372,1.02325,4.74747,2.04911c.84013,1.07367,2.06648,1.19366,3.28665,1.3282,1.9398,2.739,4.99074,3.83635,7.80852,5.27853a6.9397,6.9397,0,0,0,4.32022,3.40878c4.842,5.56322,11.3949,9.38006,15.75487,15.43594,2.60073,2.36738,3.19609,5.81391,4.71241,8.76426A21.23007,21.23007,0,0,1,760.88277,822.35672Z" fill="#142132"/><path d="M468.21714,823.5002c-.06419,2.60571,1.07432,5.3784-1.0681,7.69539-2.27306.46177-4.33911-.46722-6.472-.95718-13.97262-3.20978-27.96458-6.312-42.29411-7.5117l-21.05576-6.05683c-10.18224-5.79-14.45446-15.76467-18.38593-25.98056-.98639-8.2438,3.40273-14.562,8.18212-20.259,9.29717-11.0821,21.68951-16.16845,36.06229-16.80441a20.88763,20.88763,0,0,0,15.18271-6.76068c5.26316-5.5818,10.41383-11.62174,17.83717-14.7185,3.80187-.60221,7.30589.86827,10.74025,1.96043,5.2277,1.66244,10.49578,1.45629,15.80555,1.44425.02274,2.25383-1.263,3.85419-2.68816,5.38488-5.11071,1.11346-9.66664,3.30664-10.09335,9.09846-.36278,4.92394,1.468,9.30455,6.67716,11.30745-.35532,2.24026,1.704,3.00021,2.69677,4.41739,2.075,2.962,4.54124,5.71682,5.12472,9.48638,2.96493,2.94111,4.22728,7.44077,8.44742,9.23286,3.30706,5.49358,8.7647,8.17555,14.20949,10.87429a34.593,34.593,0,0,0,12.60625,8.11482c3.55539,2.85342,6.73357,6.22984,11.07614,7.99178a10.84205,10.84205,0,0,0,4.662,7.80867c-.76541,4.2915,3.13566,6.42846,4.52625,9.73263,1.04243,2.477,2.5,2.291,4.0136.224,2.505-3.42089,5.0792-6.79107,7.62417-10.18268,1.5372-2.04442,3.11076-4.06279,4.60028-6.14134,1.22543-1.71014-.44947-1.60813-1.32619-1.98156,5.4159-1.85476,8.53066-5.9014,10.505-11.03433,3.69949-1.95178,5.35767-5.64711,7.57082-8.8684,2.1204-2.27028,4.32982-4.46508,6.33657-6.83178,2.083-2.45662,5.40863-4.03534,5.70155-7.80476,3.85373-2.47274,6.87435-5.5792,7.81005-10.27177,3.27186-1.31555,4.06725-4.56421,5.62887-7.21477q1.52723-2.68118,3.05447-5.36236c3.0662-4.143,3.394-9.11953,4.09832-13.93908.53622-3.669-3.89985-2.68683-4.97321-4.894a29.47025,29.47025,0,0,1-1.23058-3.594q.68127-1.06456,1.3622-2.13021c4.85044-2.81411,10.382-3.69642,15.589-5.49938l-.05088.02911a164.08722,164.08722,0,0,1,20.98617.81538,1.24849,1.24849,0,0,0,.96022.21382c7.02886,2.98494,14.4671,4.90727,20.89789,9.42935a33.56686,33.56686,0,0,0,13.33928,5.869c9.12738,1.64118,17.4335,5.66882,25.782,9.52573,11.01187,5.08727,17.636,13.54092,19.80279,25.48284q-.00874.87231-.01787,1.74477-.04761.64391-.09445,1.28739-.36963,3.27948-.73923,6.559a21.49848,21.49848,0,0,1-7.46477,10.00707,76.20516,76.20516,0,0,1-15.75256,9.07048c-14.17928,6.08767-28.47674,11.90982-42.2233,18.961-3.674,1.70342-8.24917,1.83722-10.49492,6.0284-.6013-.36433-1.388-1.18355-1.77623-1.02523a143.44831,143.44831,0,0,1-19.99461,5.97244c-.28346-2.97558-1.47467-5.85452-.95011-8.91671,6.53768-1.16451,12.7646-3.40315,19.08787-5.3539,8.494-2.62041,16.17653-7.01646,24.22255-10.58852,13.1456-5.83612,26.77024-10.69163,39.15459-18.1553,10.45422-6.30044,11.73208-17.61039,3.21834-26.42614a44.923,44.923,0,0,0-18.65309-11.38629c-11.543-3.77763-23.48457-7.20707-33.73612-13.35081-10.79838-6.47152-21.74307-7.36478-33.45171-7.13712-3.8057.074-5.53792.95914-5.23743,5.54181.36749,5.6049-.01961,11.35-2.62481,16.72-4.04124,8.33-9.28553,15.86008-14.78576,23.2266-7.28651,9.75881-16.43811,17.93012-23.5346,27.89976-6.93292,9.73975-14.47538,19.045-21.732,28.555-.94652,1.2404-3.3051,2.14985-2.2646,3.95223,1.02119,1.769,2.996.41963,4.53364.03189,18.25667-4.60322,36.80914-7.573,55.44765-10.07043q.11883,4.35223.23774,8.70454c-12.79635,1.4084-25.40644,3.84907-38.05987,6.19375-9.17724,1.70058-18.39483,3.71026-27.89229,4.03111-4.73252.15988-7.67131-3.56846-11.934-3.50682-12.96629.18746-25.73137-1.82708-38.53853-3.39752l-6.4415-1.279-9.10074-2.86492c-.10707-2.76668-.93674-5.59409.69085-8.21409,2.89263.5631,5.453,2.0239,8.44949,2.52729,12.91981,2.17051,25.85015,4.05421,38.96912,4.40141,2.7238.072,6.21753,2.48342,7.93764.41787,2.33612-2.80522-2.01014-4.77518-2.996-7.32845A35.94653,35.94653,0,0,0,513.2963,809.365c-13.985-7.95979-27.56052-16.18517-35.77025-30.85588-2.76582-4.94249-6.43809-9.25275-10.15952-13.61216-6.23815-7.30769-7.80357-16.07781-2.25578-25.4326-11.58469.03433-16.50855,8.94069-23.01856,14.90413-3.68838,3.37876-6.841,6.18283-12.02906,6.84216-13.20575,1.67822-26.4399,2.13829-36.24677,14.3177-7.35712,9.137-7.78736,22.15893,1.88506,29.33954,8.49649,6.30756,18.09029,8.99809,28.59227,10.1261A301.85726,301.85726,0,0,1,468.21714,823.5002Z" fill="#a4a5a6" stroke="#a4a5a6" stroke-miterlimit="10" stroke-width="9"/><path d="M484.46843,775.246c-.58348-3.76956-3.04972-6.5244-5.12472-9.48638-.99278-1.41718-3.05209-2.17713-2.69689-4.41739,1.18807-1.21584,2.45674-2.584,1.95528-4.35117-1.58226-5.5758-.22126-10.81441,1.461-16.05474,1.42519-1.53069,2.7109-3.131,2.68816-5.38488a19.74086,19.74086,0,0,0,11.19026-1.96905c4.2665-1.93729,8.6496-1.07309,12.99427-1.08554,3.73032-.01069,1.5442,4.05163,3.44981,5.371,1.63057,2.65487,4.35529,2.54181,6.95269,2.75077,5.46806.07508,10.24768,2.87646,15.5112,3.89558,8.70738,1.68592,17.5215.127,26.1925,1.39188,9.26219,1.35123,17.81534-1.08389,26.23856-4.46543,6.54141-.87864,6.0758-5.58631,5.61945-10.2889,1.14671-.26189,2.38035-.3679,2.95889-1.64819q1.128-.04214,2.25372-.08892,1.64848.84455,3.297,1.68911a29.46732,29.46732,0,0,0,1.23069,3.59451c1.07336,2.20715,5.50943,1.225,4.97321,4.894-.70434,4.81955-1.03212,9.79606-4.09791,13.93905-2.60185-2.80258-5.70966-2.804-9.02514-1.62154-1.90554.67959-3.76555,1.5272-5.7143,2.0393-18.05908,4.7457-36.56187,5.19257-55.05658,5.35313-12.74578.11069-25.5193-.07758-38.0911-2.61284-2.922-.58928-5.89963-2.24623-7.10281,2.20939-1.207,4.46963,1.68866,5.34251,5.11831,5.911,13.35241,2.21322,26.85085,2.45622,40.30686,2.44855,12.91617-.00736,25.83183-.99368,38.74769-1.54979,1.94441,1.45168,4.20667.863,6.34284.91736,2.07492.05282,3.616.52045,3.6207,2.9807q-.5457.19683-1.09143.39361c-1.26423-1.1769-1.88592-.56747-2.23357.80382-29.48247,10.88947-59.52067,9.81234-89.77944,4.21259C486.56639,774.8331,485.32348,773.05066,484.46843,775.246Z" fill="#142132"/><path d="M397.32713,816.66988l21.05581,6.05686c.07173,2.0182-.03746,4.02222,1.30589,5.8152,5.17635,6.90889,10.04363,13.99479,15.83241,20.50025,7.92056,8.901,17.123,16.84173,22.64192,27.74848.90587,1.7902,2.18046,3.51991,4.67025,3.26912q-.05378,1.1215-.10756,2.243a4.45,4.45,0,0,0-.674,4.089c-.35722,12.06764-2.28288,23.96616-3.86892,35.90119-1.36811,2.16539-1.06078,4.51363-.74848,6.86241a139.0445,139.0445,0,0,1-1.75459,15.9335c-.642,3.43358-1.956,3.911-4.96414,3.884-15.34449-.13773-30.69084-.067-46.03655-.06513q-87.08232.01079-174.16465.01771c-2.2162,0-4.4324-.09784-6.65006-.15008.61241-2.10657.78994-4.48785,1.91375-6.27323,5.66271-8.99625,11.71113-17.75,17.35263-26.7591,4.82194-7.70031,6.43815,2.99439,7.91892-5.93524,3.8627-5.20773,6.23029-11.16524,8.60294-17.12017a1.87321,1.87321,0,0,0,.20515-.83936c2.8755-1.22182,5.31757-2.91432,6.4957-5.981,1.12352-.51926,16.48278-35.6171,17.50527-34.60344-2.11679,6.09551-11.86678,29.62837-5.49179,31.34757,7.27768,1.96274,14.80482,3.30237,22.39492,1.32688a33.432,33.432,0,0,1,12.06036-.951,77.34285,77.34285,0,0,0,14.90288.55427c18.24933-1.67364,35.37646-7.63193,51.43219-16.04806,15.05319-7.89062,21.86026-19.492,13.75759-36.42852,2.08528-4.6921-.16811-7.99189-3.50966-10.9425l.00741.01546c.09864-4.19756,2.20077-4.84,5.64968-3.23658C395.79433,817.24172,396.80539,818.90111,397.32713,816.66988Z" fill="#142132"/><path d="M651.78622,822.46954c13.74656-7.05116,28.044-12.87331,42.2233-18.961a76.20516,76.20516,0,0,0,15.75256-9.07048,21.49874,21.49874,0,0,0,7.4648-10.00707c13.41871,6.66318,25.30266,15.02571,32.82036,28.55185,2.21305,3.98181,1.52635,6.97805-1.58421,9.83918-7.80187,7.1762-17.64824,10.80317-27.11162,14.77966-12.94,5.43743-25.96219,10.67488-36.84115,19.6805-7.32985,6.06769-13.493,13.27438-12.74008,23.96073a41.9928,41.9928,0,0,1-.15767,9.97263c-.85878,4.98686-4.14953,8.16018-8.6516,10.59866-10.9651,5.93908-22.11809,11.69749-30.822,20.97558-2.51828,2.68442-4.6535,2.68042-6.66829-.46522q-.22872-5.54107-.4575-11.0822c1.95442-2.10725,1.40995-4.73623,1.025-7.06676-.24764-1.49948-1.20284.12639-1.84531.32634q-.10719-2.20475-.21441-4.40962c2.15587-2.58353.53205-5.7901,1.39534-8.56529,4.51838-14.5248,10.74978-28.38355,16.70166-42.341C645.80256,840.44556,650.48916,832.0835,651.78622,822.46954Z" fill="#252f3b"/><path d="M717.96608,777.872q.04705-.64359.09448-1.28739Q718.01376,777.22817,717.96608,777.872Z" fill="#334c68"/><path d="M492.0279,840.01226c12.80716,1.57044,25.57224,3.585,38.53853,3.39752,4.2627-.06164,7.20149,3.6667,11.934,3.50682,9.49746-.32085,18.71505-2.33053,27.89229-4.03111,12.65343-2.34468,25.26352-4.78535,38.05987-6.19375.43132,21.77865,2.81038,43.47474,2.56182,65.3003-.05348,4.69268.72784,9.26981-1.31445,13.70311-1.05132,3.48216-1.94411,7.02613-2.8832,10.522-2.02761,7.54746-5.05386,14.84748-5.99953,22.67914q-48.52459-.03491-97.04916-.07c.46934-6.66783-1.478-13.08808-2.01231-19.65054C499.32855,899.365,497.68621,869.47,492.0279,840.01226Z" fill="#bdbdbd"/><path d="M608.21486,827.9872c-18.63851,2.49739-37.191,5.46721-55.44765,10.07043-1.53765.38774-3.51245,1.73714-4.53364-.03189-1.0405-1.80238,1.31808-2.71183,2.2646-3.95223,7.25663-9.51,14.79909-18.81522,21.732-28.555,7.09649-9.96964,16.24809-18.14095,23.5346-27.89976,5.50023-7.36652,10.74452-14.8966,14.78576-23.2266,2.6052-5.37,2.9923-11.11511,2.62481-16.72-.30049-4.58267,1.43173-5.46783,5.23743-5.54181,11.70864-.22766,22.65333.6656,33.45171,7.13712,10.25155,6.14374,22.19315,9.57318,33.73612,13.35081a44.923,44.923,0,0,1,18.65309,11.38629c8.51374,8.81575,7.23588,20.1257-3.21834,26.42614-12.38435,7.46367-26.009,12.31918-39.15459,18.1553-8.046,3.57206-15.72858,7.96811-24.22255,10.58852-6.32327,1.95075-12.55019,4.18939-19.08787,5.3539-1.95686-3.39046-1.42614-6.5881.41894-9.9017,3.10381-5.5742.75979-9.16854-5.694-9.024-3.48695.07809-6.816,1.11129-8.59,4.06669-1.68256,2.80318-.21173,5.27832,2.043,7.7686C609.352,820.31378,606.45443,824.60009,608.21486,827.9872Z" fill="#bdbdbd"/><path d="M468.21714,823.5002a301.85726,301.85726,0,0,0-43.92345-8.50624c-10.502-1.128-20.09578-3.81854-28.59227-10.1261-9.67242-7.18061-9.24218-20.2025-1.88506-29.33954,9.80687-12.17941,23.041-12.63948,36.24677-14.3177,5.188-.65933,8.34068-3.4634,12.02906-6.84216,6.51-5.96344,11.43387-14.8698,23.01856-14.90413-5.54779,9.35479-3.98237,18.12491,2.25578,25.4326,3.72143,4.35941,7.3937,8.66967,10.15952,13.61216,8.20973,14.67071,21.78524,22.89609,35.77025,30.85588a35.94653,35.94653,0,0,1,16.24046,18.30735c.98586,2.55327,5.33212,4.52323,2.996,7.32845-1.72011,2.06555-5.21384-.34582-7.93764-.41787-13.119-.3472-26.04931-2.2309-38.96912-4.40141-2.99648-.50339-5.55686-1.96419-8.44949-2.52729.15572-4.74746.04889-9.32113,3.60705-13.43847,2.61911-3.03064.79928-7.3465-3.1579-8.10723-3.58811-.68972-7.33172-3.90786-11.12039.10778-2.97359,3.15188-3.22183,6.79456.22386,9.6466C469.46782,818.1298,468.221,820.86636,468.21714,823.5002Z" fill="#bdbdbd"/><path d="M492.0279,840.01226c5.65831,29.45769,7.30065,59.35269,9.72787,89.16347.53436,6.56246,2.48165,12.98271,2.01231,19.65054-10.50373.028-21.01192-.10937-31.5087.17511-3.59986.09756-4.31044-1.0924-4.04524-4.3816,1.37531-17.05813,2.575-34.1305,3.83583-51.19791,2.98491,4.054,3.78441,9.16783,6.908,13.27934,3.87464,5.10009,7.83641,10.26356,10.16272,16.41012.4345,1.148,1.09866,2.81631,3.67175,2.62729.72227-14.5457-1.9296-28.88107-2.83172-43.27272-.80354-12.81877-3.35256-25.5132-5.7789-38.16784-.32285-1.68372-2.05585-4.5081,1.40455-5.56485Z" fill="#142132"/><path d="M462.83341,880.05979c-2.48979.25079-3.76438-1.47892-4.67025-3.26912-5.519-10.90675-14.72136-18.84748-22.64192-27.74848-5.78878-6.50546-10.65606-13.59136-15.83241-20.50025-1.34335-1.793-1.23416-3.797-1.30589-5.8152,14.32948,1.19967,28.32144,4.30189,42.29406,7.51167,2.13293.49,4.199,1.41895,6.472.95718q.34956.48127.69874.96227-.21346,2.84838-.42688,5.69674Q465.12715,858.95719,462.83341,880.05979Z" fill="#252f3b"/><path d="M485.5864,838.73321c-3.4604,1.05675-1.7274,3.88113-1.40455,5.56485,2.42634,12.65464,4.97536,25.34907,5.7789,38.16784.90212,14.39165,3.554,28.727,2.83172,43.27272-2.57309.189-3.23725-1.47933-3.67175-2.62729-2.32631-6.14656-6.28808-11.31-10.16272-16.41012-3.12362-4.11151-3.92312-9.22538-6.908-13.27934.26615-19.278,3.14116-38.35483,4.43569-57.55358Z" fill="#252f3b"/><path d="M651.78622,822.46954c-1.29706,9.614-5.98366,17.976-9.71088,26.71652-5.95188,13.95744-12.18328,27.81619-16.70166,42.341-.86329,2.77519.76053,5.98176-1.39537,8.56529-1.11847-9.59358-2.34017-19.18356-1.0095-28.86272,5.69636-14.42014,13.39175-27.98291,18.32249-42.73168C643.53705,824.30676,648.1122,824.173,651.78622,822.46954Z" fill="#142132"/><path d="M641.2913,828.49794c-4.93074,14.74877-12.62613,28.31154-18.32249,42.73168-2.26084-6.766-.89063-13.87934-1.97857-20.8096-.87245-5.55772-.47-11.35046-1.46934-16.97548a143.37538,143.37538,0,0,0,19.99417-5.97183C639.90326,827.31439,640.69,828.13361,641.2913,828.49794Z" fill="#bdbdbd"/><path d="M600.81724,948.89628c.94567-7.83166,3.97192-15.13168,5.99953-22.67914.93909-3.49586,1.83188-7.03983,2.8832-10.522,2.36946-.26589,2.13532,1.47756,2.1304,2.88979-.03212,9.25176-.15584,18.50346-.13763,27.755.0038,1.92427-.63287,2.66149-2.54582,2.59452C606.3733,948.83726,603.59409,948.9011,600.81724,948.89628Z" fill="#142132"/><path d="M624.19275,904.502c.64247-.2,1.59767-1.82582,1.84531-.32634.385,2.33053.92943,4.95951-1.025,7.06676A15.18815,15.18815,0,0,1,624.19275,904.502Z" fill="#142132"/><path d="M457.43444,929.15537c-.3123-2.34878-.61963-4.697.74848-6.86241A12.53647,12.53647,0,0,1,457.43444,929.15537Z" fill="#3a4850"/><path d="M467.4209,837.8546q.21342-2.84834.42688-5.69674C469.12375,834.1631,468.57958,836.03187,467.4209,837.8546Z" fill="#a4a5a6"/><path d="M462.05184,886.39177a4.45,4.45,0,0,1,.674-4.089A5.43748,5.43748,0,0,1,462.05184,886.39177Z" fill="#252f3b"/><path d="M570.69854,765.70841c-12.91586.55614-25.83152,1.54246-38.74769,1.54982-13.456.00767-26.95445-.23533-40.30686-2.44855-3.42965-.56849-6.32526-1.44137-5.11831-5.911,1.20318-4.45562,4.18085-2.79867,7.10281-2.20939,12.5718,2.53526,25.34532,2.72353,38.0911,2.61284,18.49471-.16056,36.9975-.60743,55.05658-5.35313,1.94875-.5121,3.80876-1.35971,5.7143-2.0393,3.31548-1.18246,6.42329-1.181,9.02514,1.62154q-1.52783,2.68122-3.05481,5.36242Q584.57977,762.30108,570.69854,765.70841Z" fill="#e1e1e2"/><path d="M484.46843,775.246c.85505-2.19532,2.098-.41288,3.08921-.22946,30.25877,5.59975,60.297,6.67688,89.77937-4.21256l2.23364-.80385,1.09136-.39358c4.09405-1.03564,7.12884-5.75844,12.16985-3.49813-.9357,4.69257-3.95632,7.799-7.80995,10.27173-15.71325,6.2903-31.93855,10.09239-48.9391,10.41713-14.453.276-28.811-.9358-43.167-2.31842C488.69571,782.68675,487.43336,778.18709,484.46843,775.246Z" fill="#e1e1e2"/><path d="M492.91585,784.47884c14.356,1.38262,28.714,2.59446,43.167,2.31842,17.00055-.32474,33.22585-4.12683,48.9391-10.41713-.293,3.76946-3.61866,5.34818-5.70165,7.8048-2.00675,2.3667-4.21617,4.5615-6.3365,6.83182-5.86737.62734-11.72472,1.37809-17.60419,1.8573-13.77807,1.123-27.48739,4.0694-41.4217,1.47827-2.24561-.4176-4.80391-.98008-6.83253,1.00081C501.68055,792.65439,496.22291,789.97242,492.91585,784.47884Z" fill="#252f3b"/><path d="M507.12534,795.35313c2.02862-1.98089,4.58692-1.41841,6.83253-1.00081,13.93431,2.59113,27.64363-.35528,41.4217-1.47827,5.87947-.47921,11.73682-1.23,17.60419-1.8573-2.21322,3.22125-3.8714,6.91658-7.571,8.86839-15.19877,1.55627-30.31252,4.19533-45.68118,3.58281A34.593,34.593,0,0,1,507.12534,795.35313Z" fill="#e1e1e2"/><path d="M519.73159,803.468c15.36866.61252,30.48241-2.02654,45.68118-3.58281-1.97426,5.1329-5.089,9.17954-10.505,11.03433q-6.51162.25345-13.023.50688l-3.50882.22349q-1.02654.09225-2.05308.18454-.63707.03526-1.27413.0705-2.12054-.22253-4.2411-.44511C526.46516,809.69779,523.287,806.32137,519.73159,803.468Z" fill="#252f3b"/><path d="M536.32286,811.83438q1.02654-.0923,2.05311-.18454a2.759,2.759,0,0,0,3.50879-.22349q6.51145-.25339,13.023-.50688c.87682.3734,2.55172.27139,1.32629,1.98153-1.48952,2.07855-3.06308,4.09692-4.60035,6.14134q-8.082.113-16.16395.22606a10.84205,10.84205,0,0,1-4.662-7.80867q2.12038.22263,4.241.44515Q535.6858,811.86966,536.32286,811.83438Z" fill="#e1e1e2"/><path d="M480.06313,740.9363c-1.68229,5.24033-3.04329,10.47894-1.461,16.05474.50146,1.76713-.76721,3.13533-1.95528,4.35117-5.20907-2.0029-7.03982-6.38351-6.677-11.30745C470.39649,744.24294,474.95242,742.04976,480.06313,740.9363Z" fill="#bdbdbd"/><path d="M535.46974,819.2684q8.082-.11307,16.164-.22606c-2.54493,3.39161-5.11911,6.76179-7.62413,10.18268-1.51363,2.067-2.97117,2.253-4.0136-.224C538.6054,825.69686,534.70433,823.5599,535.46974,819.2684Z" fill="#252f3b"/><path d="M397.32713,816.66988c-.52174,2.23123-1.5328.57184-2.26474.23156-3.44891-1.60339-5.551-.961-5.64958,3.23662-1.284-.87794-1.66177-2.29722-2.32392-3.60266-3.8505-7.59142-4.089-16.90448-10.95608-23.0524.15034-1.7193,1.311-2.42314,2.80662-2.79287C382.87267,800.90521,387.14489,810.87985,397.32713,816.66988Z" fill="#a4a5a6" stroke="#a4a5a6" stroke-miterlimit="10" stroke-width="9"/><path d="M592.83186,766.1084c-5.041-2.26031-8.0758,2.46249-12.16985,3.49813-.00458-2.46028-1.54571-2.92791-3.62063-2.98073-2.13617-.05438-4.39843.53432-6.34284-.91739q13.88118-3.40736,27.76226-6.81475C596.89911,761.54419,596.10372,764.79285,592.83186,766.1084Z" fill="#252f3b"/><path d="M579.57065,770.00011l-2.23364.80385C577.68473,769.43264,578.30642,768.82321,579.57065,770.00011Z" fill="#252f3b"/><path d="M316.57557,825.51286q.99687,3.33867,1.99368,6.67733c-2.35973.391-4.71033.85582-7.08221,1.14786-1.65317.20354-2.91861.753-2.9805,2.59242-.38371,11.40572-2.45707,22.69814-2.26525,34.14237.04285,2.5572.95914,4.0711,3.77222,4.47129a98.21315,98.21315,0,0,0,15.41007,1.13976c2.967-.04624,3.92539-.9237,3.15975-3.97381-1.02755-4.09353-1.60225-8.36182-2.62533-12.3952-1.967-7.7549-1.221-15.76534-3.1508-23.44707q4.49419.50525,8.98838,1.01041c-.93132,10.10961,1.94179,19.7845,3.65131,29.55234,1.182,6.75342,2.47523,7.07637,9.19071,5.16262,1.23395-.35162,2.54687-.41682,3.81326-.66558,3.19809-.62819,4.70423-1.87358,3.53842-5.69188-3.23046-10.58058-5.77187-21.37565-9.15252-31.90377-.93919-2.92487.69133-6.94159-3.16606-8.82064-.69058-3.77006-.23718-7.53314.06926-11.29659q5.955-4.17531,11.90994-8.35164c3.59444.84476,7.78734.75707,8.72063-2.93528,1.356-5.3647,7.31017,8.34179,6.5152,3.96721.00361-.24584,20.74911,18.83241,8.03373-.116,3.758-.52472-8.44841-10.77427-7.48894-10.56755,3.94782.85056,4.7884-3.04559,8.70219-1.72859,6.86714,6.148,7.10568,15.46108,10.95618,23.0525.66215,1.30544,1.03989,2.72472,2.32392,3.60266l-.00739-.01561a41.81937,41.81937,0,0,0,3.50954,10.94261c8.10267,16.93647,1.2956,28.5379-13.75759,36.42852-16.05573,8.41613-33.18286,14.37442-51.43219,16.04806a77.34285,77.34285,0,0,1-14.90288-.55427,33.432,33.432,0,0,0-12.06036.951c-7.5901,1.97549-15.11724.63586-22.39492-1.32688-6.375-1.7192-2.00547-12.22489.11132-18.32039,35.663,9.84444,31.82978,10.04173,36.651,2.21,2.58458-1.34686-15.58617-10.12163-15.25918-12.55966,1.09817-8.18793,4.77027-3.207,11.37745-5.3825,2.90389,3.67369-3.40789-15.23456.23944-15.22082C315.61866,833.76654,312.444,825.08438,316.57557,825.51286Zm-18.13129,16.27053,1.10658-.00448c0-1.10668.01184-2.21349-.00233-3.32-.03518-2.74694,1.92252-5.91578-3.42247-6.67465-4.53343-.64359-6.582.69231-7.84834,4.61873-.77611,2.40662-1.04871,5.52173-2.71581,7.003-8.56234,7.608-6.13236,17.82638-7.05884,27.23945a4.22655,4.22655,0,0,0,3.21372,4.6347c3.70384,1.08426,7.3777,1.89292,11.3952.93785,3.68239-.87543,5.38335-2.64829,5.35525-6.41127C298.39744,860.46607,298.44428,851.12458,298.44428,841.78339Zm56.9253-29.65778c-1.85695.17451-7.23844,6.62957-6.8913,7.92364,3.335,12.43244,5.20136,25.23374,9.3213,37.4658,3.19732,9.49282,2.67748,11.60451,11.67743,5.6662a15.03908,15.03908,0,0,1,4.70316-1.54083c2.74259-.671,3.0924-2.26977,1.89746-4.51573-4.83923-9.09541-8.78439-18.58532-12.89431-28.02047-2.06347-4.73708-3.174-9.83748-5.76158-14.328C356.82936,813.74827,356.76682,812.15509,355.36958,812.12561Zm33.09375,32.7274c-.39434-1.69725-.71916-3.32716-1.15347-4.92733-3.18144-11.72117-9.98284-22.1306-12.3904-34.14664a5.6511,5.6511,0,0,0-1.82068-2.71356c-1.9514-1.77982-3.63887-5.33708-6.69274-3.65845-3.03742,1.66946-3.58977,5.32714-3.17205,8.80452a6.08713,6.08713,0,0,0,.53356,1.57258c5.50426,13.0394,10.94881,26.105,16.60714,39.07719.72021,1.65114,1.4915,4.32752,4.062,3.899,2.27391-.37909,2.75973-2.76193,3.33514-4.71693C388.08157,846.99116,388.24249,845.8951,388.46333,844.853Z" fill="#142132"/><path d="M392.915,831.06506a41.81937,41.81937,0,0,1-3.50954-10.94261C392.74685,823.07317,395.00024,826.373,392.915,831.06506Z" fill="#252f3b"/><path d="M794.22052,866.42846a.94.94,0,0,1,.8115-.59882,1.79586,1.79586,0,0,1,.0196.9197A2.46215,2.46215,0,0,1,794.22052,866.42846Z" fill="#1b4376"/><path d="M541.88476,811.42635a2.759,2.759,0,0,1-3.50879.22349Z" fill="#a4a5a6"/><path d="M536.32286,811.83438l-1.27413.07053Z" fill="#a4a5a6"/><path d="M322.8072,835.86781c1.92982,7.68173,1.18376,15.69217,3.1508,23.44707,1.02308,4.03338,1.59778,8.30167,2.62533,12.3952.76564,3.05011-.1927,3.92757-3.15975,3.97381a98.21315,98.21315,0,0,1-15.41007-1.13976c-2.81308-.40019-3.72937-1.91409-3.77222-4.47129-.19182-11.44423,1.88154-22.73665,2.26525-34.14237.06189-1.83939,1.32733-2.38888,2.9805-2.59242,2.37188-.292,4.72248-.75686,7.08221-1.14786C319.84294,833.5763,320.95245,835.15166,322.8072,835.86781Z" fill="#142132"/><path d="M339.6707,824.51131c3.85739,1.87905,2.22687,5.89577,3.16606,8.82064,3.38065,10.52812,5.92206,21.32319,9.15252,31.90377,1.16581,3.8183-.34033,5.06369-3.53842,5.69188-1.26639.24876-2.57931.314-3.81326.66558-6.71548,1.91375-8.00875,1.5908-9.19071-5.16262-1.70952-9.76784-4.58263-19.44273-3.65131-29.55234C337.53365,834.73929,338.96941,829.85929,339.6707,824.51131Z" fill="#142132"/><path d="M316.87834,823.77009q.07011-.80154.14024-1.60315Z" fill="#a4a5a6"/><path d="M355.36958,812.12561c1.39724.02948,1.45978,1.62266,2.05216,2.6506,2.5876,4.49053,3.69811,9.59093,5.76158,14.328,4.10992,9.43515,8.05508,18.92506,12.89431,28.02047,1.19494,2.246.84513,3.84473-1.89746,4.51573a15.03908,15.03908,0,0,0-4.70316,1.54083c-9,5.93831-8.48011,3.82662-11.67743-5.6662-4.11994-12.23206-5.98628-25.03336-9.3213-37.4658C348.13114,818.75518,353.51263,812.30012,355.36958,812.12561Z" fill="#142132"/><path d="M388.46333,844.853c-.22084,1.04209-.38176,2.13815-.69147,3.19035-.57541,1.955-1.06123,4.33784-3.33514,4.71693-2.57053.42855-3.34182-2.24783-4.062-3.899-5.65833-12.97224-11.10288-26.03779-16.60714-39.07719a6.08713,6.08713,0,0,1-.53356-1.57258c-.41772-3.47738.13463-7.13506,3.17205-8.80452,3.05387-1.67863,4.74134,1.87863,6.69274,3.65845a5.6511,5.6511,0,0,1,1.82068,2.71356c2.40756,12.016,9.209,22.42547,12.3904,34.14664C387.74417,841.52585,388.069,843.15576,388.46333,844.853Z" fill="#142132"/><path d="M275.14848,881.29678s13.71383-51.40344,30.0415-56.939,42.50382-13.228,46.24327-14.24305,14.07724-15.35765,16.96411-15.20488,7.73545-1.42685,7.73545-1.42685l11.947,22.86233-12.34019,64.95145-37.02055,24.65461Z" fill="#142132"/><polygon points="280.094 873.872 283.524 863.71 280.094 861.672 278.478 864.291 275.616 873.2 280.094 873.872" fill="#142132"/><path d="M225.421,942.73389s-8.28528,16.50089,1.05352,18.14891,118.10839-9.88814,146.1248-6.5921,106.5039,1.93665,118.65773-1.648,164.25307,2.74671,166.45043-1.09868,185.128,17.02958,181.832,2.7467-1.99749-37.54515-10.88689-38.82353S614.3095,937.81046,614.3095,937.81046l-157.11163,3.296Z" fill="#142132"/><path d="M456.59082,938.62482l-3.57925,17.10084s14.91353.3977,14.91353-.79538.59654-16.70315.59654-16.70315Z" fill="#fff"/><path d="M611.49262,936.63635s-2.18732,15.90776-.39769,15.90776h16.30545l-1.98847-21.07778Z" fill="#fff"/><path d="M502.37589,937.94381l1.035,11.1142s23.75807,2.43252,29.38124,1.41012,69.33288,2.8737,68.5004.7668,3.06718-21.98147,3.06718-21.98147Z" fill="#bdbdbd"/><polygon points="468.477 818.508 466.778 845.623 475.617 846.388 477.742 818.678 468.477 818.508" fill="#fff"/><path d="M608.55438,841.6279l-.85-19.20957,5.60987-4.8449,3.73992,2.54995s2.125,7.56483,2.21,9.26479,1.275,11.04976.935,12.06974-7.05484,1.53-7.05484,1.53Z" fill="#fff"/><path d="M503.47984,955.7893s-2.27438-33.49543-2.78638-40.12126,103.08641,16.63527,103.08641,16.63527-5.57319,37.18124-4.32952,42.40466S503.47984,955.7893,503.47984,955.7893Z" fill="#bdbdbd"/></g></svg>