<svg id="Layer_1" data-name="Layer 1" xmlns="http://www.w3.org/2000/svg" xmlns:xlink="http://www.w3.org/1999/xlink" viewBox="0 0 1133.85827 1133.85827"><defs><clipPath id="clip-path"><circle cx="566.92913" cy="566.92913" r="566.92913" fill="none"/></clipPath></defs><g clip-path="url(#clip-path)"><polygon points="356.484 1029.429 284.3 1171.974 852.904 1186.937 743.202 1026.279 356.484 1029.429" fill="#191c1e"/><path d="M445.46182,1092.427l30.952,47.211,34.38773,4.52392s-41.433-51.29964-46.38787-60.15192S445.46182,1092.427,445.46182,1092.427Z" fill="#0c0b0c"/><path d="M228.86307,1097.40425q-6.70026-.008-13.40577-.01854c-.832-14.03346,7.4002-25.58388,10.723-38.51263,14.21081-55.293,40.56884-105.84429,63.05786-157.904,4.02768-9.32361,6.11584-19.72127,11.36008-28.23116,9.4649-15.35869,20.27492-29.93984,31.17371-44.35422,20.57976-27.21813,49.03387-45.501,76.08354-65.24939,6.71971-4.90592,14.63146-8.39273,22.36467-11.65773,19.73046-8.33054,36.42382-21.32543,53.50351-33.76341Q495.956,716.618,508.192,715.51643c.87456,8.44207-3.43928,16.69565-.92479,25.19887,12.21391,5.35505,25.212,3.73507,37.96837,4.26473,4.35763.12339,8.79056,1.24911,12.97174-.97419l14.75886-1.11224c3.12446.17429,6.36314.84056,8.77946-2.03611,3.6188-1.21429,7.15762-2.86735,10.87437-3.54484,6.28978-1.14641,5.49089-4.88323,4.02012-9.1575,13.16329,1.437,26.12563-2.04493,39.24954-1.60338q1.67724.82533,3.35214,1.654l-.21879-.1313c10.31217,5.1728,17.20754,15.08449,28.3247,19.41782,23.31044,9.08618,39.51166,28.18351,58.19581,43.55983A288.267,288.267,0,0,1,800.41942,884.911a906.8166,906.8166,0,0,1,56.11427,140.42272c7.47838,24.25327,16.35429,48.076,24.5992,72.09288q-9.40888-.02277-18.81972-.04448c-.08316-9.85425-9.34944-18.72685-2.5273-29.56041,1.89888-3.01537-.25681-9.70188-3.00213-10.35869-6.55735-1.56844-4.99421-5.83479-5.04221-9.6985a21.61415,21.61415,0,0,0-2.522-10.16625c-4.37118-8.18713-4.22874-17.71822-7.2016-26.05357-4.19-11.74778-2.10153-27.43591-17.75372-33.35681-2.89678-1.09577-2.26-3.87694-1.38618-6.40972,3.70008-10.72431-.1861-21.37185-9.97046-27.57091-1.83259-1.16112-4.35665-3.40543-1.881-4.64618,8.09467-4.05686,1.886-7.98586.49927-11.95805-3.05051-8.73838-11.15569-13.86747-16.02134-25.04663-1.42549,10.04241-3.31491,16.8752-3.17415,23.666.32537,15.69274-5.887,30.16678-7.53591,45.46011-.33543,3.11114-1.29765,7.90067-6.35251,6.62459-4.78645-1.20833-3.52351-5.76989-2.94874-8.95209a86.93074,86.93074,0,0,0,1.8468-13.57771,230.04723,230.04723,0,0,1,11.14758-65.07705c2.42287-7.57116-.77521-12.11872-7.25375-13.52253-7.21639-1.56364-13.99162-.88732-5.20081-10.52682,3.94086-4.32134-.83671-8.89315-4.73073-11.15036-5.3528-3.10271-4.25572,2.17026-4.80831,4.76626-.67033,3.14861-2.73624,4.0437-5.46981,3.45374-3.787-.81722-7.74868-3.80672-6.45675-7.06212,3.835-9.66362-.08439-17.43248-5.12855-24.46347-8.98976-12.53077-16.84222-26.50581-33.92353-34.17093,2.63056,6.14019,4.40017,10.23842,6.1426,14.34813,1.34278,3.16715,3.90939,6.39875.32335,9.59716-.88963.79349-2.80882,1.38715-3.77908.96927-3.909-1.68359-2.3281-5.43818-2.51822-8.39-.30325-4.70849-2.00111-9.2246-6.86955-9.13039-5.99873.11606-3.35707,5.79582-3.75664,9.17221-2.98591,25.23284,4.90333,50.08307,2.34405,75.45525-1.62061,16.06621.48449,32.43417-2.33056,48.56113-.74726,4.28114-.777,8.81632-5.66856,10.39746-9.67085,3.126-8.20631,9.44946-4.45343,15.85192,3.21721,5.48862,3.9369,11.02587.20043,15.80756-14.51879,18.5807-21.47766,41.8068-37.20282,59.706-2.86649,3.26279-6.72211,7.42891-6.03162,12.97517-4.56311,4.13889-10.44956-1.1239-15.19631,2.14252-1.15156.79245-1.43976,1.50036-.34106,2.15094.80115.47436,1.9823.3076,2.99414.42664l-.42111,3.3865c-4.13092,6.60118-2.68363,10.884,5.457,12.63438-4.48125.24418-9.04119,5.88991-12.79764-.94093-2.357-4.28633-3.31879-9.44149-8.04109-12.33561,2.80947,5.12352,1.3701,12.33872,8.11219,15.4319-.59962,7.71873-8.65674,12.80516-7.47313,21.15335q-18.0428.0033-36.08564.00674c1.24406-3.20314,1.62988-8.2364,3.88137-9.29132,9.57641-4.48681,5.70534-10.1162,2.45933-16.03865,1.59232-1.02471,3.91861-1.238,4.15829-3.75829q.02032-1.27349.04073-2.54684.38541-1.28808.77093-2.576c6.33331.94988,8.97555-8.32069,15.89894-5.73688,1.30368,6.88063-1.09454,14.16806,2.50311,20.92615,2.59178-7.992,1.97666-16.14459,1.67127-24.2731,2.42637-10.06251,12.42155-14.224,17.40694-22.68535,11.48871-19.49855,24.855-37.88181,36.04542-57.62026,3.04215-5.36582,4.59393-12.30423.45549-15.76581-9.30643-7.78448-13.343-19.89867-23.65566-26.62784A7.74076,7.74076,0,0,1,646.8,922.0459c1.50443-3.69792,4.52231-4.438,8.74988-3.41458,5.81048,1.40667,11.71334,2.01569,17.05219,5.20022,5.51009,3.28678,12.46942,3.55068,17.2776.66661,4.82906-2.89652,2.4575-9.67478,1.59329-14.7675-2.7444-16.17332-2.21964-32.55263-.73518-48.59931,1.47394-15.93387-1.14268-31.90282.37849-47.21029,1.60711-16.17234-11.70712-28.33931-7.449-44.03172.41936-1.54555-2.12176-4.60157-4.0115-5.927A94.35926,94.35926,0,0,0,664.388,754.797c-8.14352-3.65046-17.46227.19373-16.18837,6.93711,1.43035,7.57142-.04346,13.72509-2.72716,20.23186-3.94112,9.55528-3.50937,19.95372-5.68938,29.82793-5.18992,23.507-10.24867,47.06926-16.45692,70.31656-4.36067,16.32893-6.63188,33.26067-11.42559,49.1817-7.72527,25.65734-15.26034,51.42243-22.23368,77.25548-4.38648,16.24983-13.67151,30.60567-16.17384,47.32849-1.65849,4.86663,4.53574,2.3994,5.21742,5.40608-3.25588,2.34935-8.29284,3.18162-7.29559,8.794-10.57942,6.0472-9.292,18.69572-15.21707,27.332q-21.23439-.00272-42.46876-.00571c.34145-4.06-1.98282-7.28263-3.34591-10.82046a9.7505,9.7505,0,0,1,2.57511-10.52442c2.36572-2.30448,3.68561,1.64988,5.49964,2.92032,5.34352,3.74207,5.544-.39292,5.89838-4.09869q2.10234-.01478,4.20461-.0293c.77748,1.86241-3.66168,6.53673,2.52133,5.36355,4.25747-.80789,4.39427-5.27122,4.90749-8.54932.73046-4.66524-3.38132-3.186-5.80478-3.73092,2.52627-11.6124-6.58946-4.39344-10.101-6.23938-.80369-4.46567-2.69712-4.17585-5.61012-1.51631a32.10213,32.10213,0,0,1-15.3937,7.85061q-1.47421-1.41062-2.94844-2.82137-.67209-1.76307-1.34419-3.52629a2.30992,2.30992,0,0,1-.325-1.86086c2.01-10.98969,10.90155-20.16041,6.89582-33.00578-1.82834-5.86306-4.51184-12.08429-4.43906-18.38741.29981-25.959-7.49881-50.69113-11.53648-75.94433-7.76639-48.57422-17.98707-96.75254-26.2418-145.25622-1.4828-8.713-2.67773-14.06348-12.65477-12.83285-.4995.06172-1.18037-1.34533-2.464-2.90178,12.95215-1.98521,12.20451-9.67659,8.39938-19.8785-2.69252,3.5866-7.13154,3.40148-8.75329,7.60657-3.538,9.1739-10.68888,12.80328-19.85572,10.58394-5.75759-1.394-6.19365-.36978-5.97959,5.1274,1.34823,34.62434-1.55078,69.03219-5.91252,103.36229-1.86152,14.65143-3.16617,29.38223-4.34919,44.10693-.47064,5.85814-1.38223,12.37315,8.773,6.97381,6.59753-3.50788,15.12-2.17286,21.90619-6.87979,4.10445-2.84692,4.83338,2.25825,6.61635,4.51786,1.32722,1.682,3.2418,3.242.00088,4.85736-10.7352,5.35058-16.02582,16.55035-25.37805,23.534-5.79547,4.3277-12.95127,9.74513-14.56958,15.95605-1.71268,6.57323,5.49583,12.91656,9.99061,18.69027a6.12876,6.12876,0,0,1,.486.94281c14.73068,28.033,29.64628,55.97149,44.06216,84.16537,3.54434,6.93173,9.92782,13.23024,7.47112,22.29139q-13.79589-.03073-27.59188-.06121a20.76487,20.76487,0,0,0-1.95142-9.1182q-10.13614-21.26494-19.51226-42.89011c-7.44923-17.16048-15.5704-34.13656-21.3936-51.85154-3.085-9.385-12.86221-18.34-5.89283-29.64489,5.035-8.16716,4.83614-17.00818,3.70231-25.64132-.71245-5.42476.11611-10.43157.60491-15.59127,1.01872-10.75407-.339-21.71854,2.72511-32.28342,2.47651-8.53874.74015-17.42735,2.76286-26.143,2.791-12.02659,1.926-24.788,2.86114-36.94639,1.07551-13.98308,5.51713-29.76056-2.18394-43.91657,1.3147-.21708,2.817-.24094,3.07555-1.95662.05008-.33236-.79311-1.17565-1.12552-1.12579-1.71534.25728-1.74424,1.75731-1.96238,3.0721-7.56008.77028-14.233,4.26558-14.4875,12.00811-.28245,8.59425-4.08285,10.01433-10.99171,9.2202-.23312-1.30909-.26338-2.81541-1.98473-3.05557-.33737-.04707-1.17563.79595-1.12675,1.13357.24886,1.71983,1.75861,1.7374,3.06731,1.9666-.69685,1.12916-1.68729,3.32958-2.04759,3.23089-9.18325-2.51488-13.98238,1.73248-16.49424,10.0926-.806,2.68242-4.00375,2.63327-5.69749,4.04526-3.80014,3.1678-11.43449,5.89049-7.07359,12.43584,5.7165,8.58,1.0866,8.54964-5.32253,8.40025-5.57337-.12987-11.69077,1.69358-8.55626,8.00863,7.76775,15.64962,7.30905,32.79894,11.24582,49.08262,4.75775,19.67977,1.3591,39.76555,4.11376,59.4981.42494,3.04377.40382,7.17688-3.72988,7.62822-4.46725.48765-4.27294-3.61369-4.71439-6.73079q-4.209-29.7203-8.46606-59.43366c-1.96751-13.88414-3.88825-27.77495-6.19264-44.25761-10.43828,22.8973-21.32309,42.17442-28.012,63.27273-3.05167,9.62569-6.89773,19.03106-10.14965,28.53161-6.926,20.23453-21.36457,37.60852-24.12662,59.76939a6.62116,6.62116,0,0,1-3.07286,4.04824c-5.685,3.36524-6.24366,9.0688-7.03016,14.62271-1.54257,10.89231-4.44337,21.64172-9.34943,31.20873C234.40457,1070.64395,231.90878,1084.01775,228.86307,1097.40425ZM567.55861,753.84977c-3.06478-.33229-6.15726-.98638-9.04185.7769-12.13289,1.51034-24.27065,1.91409-36.418.16-3.8959-1.63269-7.736-3.53472-12.18011-2.52364-5.41919.216-9.44667-3.94145-16.13807-5.24172,5.778,8.29236,1.4755,20.63024,15.58291,22.95287,27.07964,4.45841,53.94123,6.23284,80.73387-1.32471,14.94989-4.21695,18.47041-9.57738,16.59274-25.25573-8.19878,3.0662-15.74,8.05395-24.84115,8.14038q-3.14489.44681-6.28978.89367A12.21111,12.21111,0,0,1,567.55861,753.84977Zm-34.028,290.52042q1.52652.33846,3.05291.67679c10.58669-91.90388,48.75965-176.89677,66.32012-267.97156-34.568,8.77177-67.30621,10.85639-99.86523-.23426-7.61071-2.59256-6.45042,1.78992-5.954,6.29521,2.58529,23.4649,5.77643,46.8859,7.54059,70.41324,2.603,34.71362,7.27236,69.13579,13.01143,103.4172C522.52524,986.16976,528.2023,1015.24083,533.53064,1044.37019ZM763.97021,848.08011q-.354.81609-.70808,1.63217c.54565.23582,1.20819.77437,1.60381.62167a1.63841,1.63841,0,0,0,.65664-1.51209C765.36774,848.43108,764.51962,848.31476,763.97021,848.08011Z" fill="#0c0b0c" stroke="#1d1d1b" stroke-miterlimit="10" stroke-width="14"/><path d="M639.24184,728.20573q-1.67548-.82776-3.35214-1.654Q637.56451,727.3804,639.24184,728.20573Z" fill="#ffe584"/><path d="M548.15548,722.84471a1.85459,1.85459,0,0,1-2.80317-.14952Q546.75477,722.77076,548.15548,722.84471Z" fill="#abacaf"/><path d="M651.91532,1053.34484c-.69049-5.54626,3.16513-9.71238,6.03162-12.97517,15.72516-17.89924,22.684-41.12534,37.20282-59.706,3.73647-4.78169,3.01678-10.31894-.20043-15.80756-3.75288-6.40246-5.21742-12.72594,4.45343-15.85192,4.8916-1.58114,4.9213-6.11632,5.66856-10.39746,2.81505-16.127.70995-32.49492,2.33056-48.56113,2.55928-25.37218-5.33-50.22241-2.34405-75.45525.39957-3.37639-2.24209-9.05615,3.75664-9.17221,4.86844-.09421,6.5663,4.4219,6.86955,9.13039.19012,2.95183-1.39073,6.70642,2.51822,8.39.97026.41788,2.88945-.17578,3.77908-.96927,3.586-3.19841,1.01943-6.43-.32335-9.59716-1.74243-4.10971-3.512-8.20794-6.1426-14.34813,17.08131,7.66512,24.93377,21.64016,33.92353,34.17093,5.04416,7.031,8.96355,14.79985,5.12855,24.46347-1.29193,3.2554,2.66975,6.2449,6.45675,7.06212,2.73357.59,4.79948-.30513,5.46981-3.45374.55259-2.596-.54449-7.869,4.80831-4.76626,3.894,2.25721,8.67159,6.829,4.73073,11.15036-8.79081,9.6395-2.01558,8.96318,5.20081,10.52682,6.47854,1.40381,9.67662,5.95137,7.25375,13.52253A230.04723,230.04723,0,0,0,777.34,955.77722a86.93074,86.93074,0,0,1-1.8468,13.57771c-.57477,3.1822-1.83771,7.74376,2.94874,8.95209,5.05486,1.27608,6.01708-3.51345,6.35251-6.62459,1.64888-15.29333,7.86128-29.76737,7.53591-45.46011-.14076-6.79076,1.74866-13.62355,3.17415-23.666,4.86565,11.17916,12.97083,16.30825,16.02134,25.04663,1.3867,3.97219,7.5954,7.90119-.49927,11.95805-2.47567,1.24075.04839,3.48506,1.881,4.64618,9.78436,6.19906,13.67054,16.8466,9.97046,27.57091-.87381,2.53278-1.5106,5.31395,1.38618,6.40972,15.65219,5.9209,13.56377,21.609,17.75372,33.35681,2.97286,8.33535,2.83042,17.86644,7.2016,26.05357a21.61415,21.61415,0,0,1,2.522,10.16625c.048,3.86371-1.51514,8.13006,5.04221,9.6985,2.74532.65681,4.901,7.34332,3.00213,10.35869-6.82214,10.83356,2.44414,19.70616,2.5273,29.56041q-43.59491.01555-87.18967.031c.5031-6.748-1.84479-13.96772,5.015-19.44953,2.72754-2.17973,1.51261-6.70155,1.20592-10.16638-1.26624-14.30046-2.67909-28.58809-4.08927-42.87546-.28677-2.90488,1.05608-7.17954-3.824-7.16864-3.83065.00855-6.28725,2.29281-6.7738,6.61894-2.739,24.3539-5.64586,48.689-8.49548,73.03044q-66.97667-.0039-133.9534-.00791c-1.18367-8.34819,6.87345-13.43462,7.47242-21.151,8.3651-.76678,16.24376,5.52176,24.84575,1.17863-2.51835,1.1029-5.1017,1.48933-6.22063-1.52733-.78151-2.10724.48169-3.46288,2.629-3.39467,9.87472.313,5.80608-6.07314,5.26438-10.77819q1.21167-1.83759,2.42345-3.67529C659.64506,1052.91782,654.34118,1055.794,651.91532,1053.34484Z" fill="#191c1e"/><path d="M228.86307,1097.40425c3.04571-13.3865,5.5415-26.7603,11.9857-39.32673,4.90606-9.567,7.80686-20.31642,9.34943-31.20873.7865-5.55391,1.34513-11.25747,7.03016-14.62271a6.62116,6.62116,0,0,0,3.07286-4.04824c2.762-22.16087,17.20057-39.53486,24.12662-59.76939,3.25192-9.50055,7.098-18.90592,10.14965-28.53161,6.68887-21.09831,17.57368-40.37543,28.012-63.27273,2.30439,16.48266,4.22513,30.37347,6.19264,44.25761q4.21154,29.71991,8.46606,59.43366c.44145,3.1171.24714,7.21844,4.71439,6.73079,4.1337-.45134,4.15482-4.58445,3.72988-7.62822-2.75466-19.73255.644-39.81833-4.11376-59.4981-3.93677-16.28368-3.47807-33.433-11.24582-49.08262-3.13451-6.315,2.98289-8.1385,8.55626-8.00863,6.40913.14939,11.039.17973,5.32253-8.40025-4.3609-6.54535,3.27345-9.268,7.07359-12.43584,1.69374-1.412,4.89153-1.36284,5.69749-4.04526,2.51186-8.36012,7.311-12.60748,16.49424-10.0926.3603.09869,1.35074-2.10173,2.04759-3.23089l.04443-.04486c6.9086.79439,10.709-.62569,10.99145-9.21994.25447-7.74253,6.92742-11.23783,14.4875-12.00811l.01242.01038c7.701,14.15594,3.25938,29.93342,2.18387,43.9165-.93514,12.1584-.07012,24.9198-2.86114,36.94639-2.02271,8.71569-.28635,17.6043-2.76286,26.143-3.06416,10.56488-1.70639,21.52935-2.72511,32.28342-.4888,5.1597-1.31736,10.16651-.60491,15.59127,1.13383,8.63314,1.33264,17.47416-3.70231,25.64132-6.96938,11.30487,2.80785,20.25988,5.89283,29.64489,5.8232,17.715,13.94437,34.69106,21.3936,51.85154q9.381,21.61038,19.51226,42.89011a20.76487,20.76487,0,0,1,1.95142,9.1182q-41.46843.01965-82.937.03942c.006-14.34053.20831-28.68457-.04268-43.02069-.20865-11.916-2.24628-23.71044-2.58222-35.675-.15655-5.57634-.93423-15.26078-8.26371-14.89872-6.128.30266-5.49524,9.60079-5.86043,15.12125-.666,10.06873.5632,20.26053-.06782,30.33405-1.00623,16.06316-2.88809,32.0716-4.39962,48.10311Q282.02374,1097.3977,228.86307,1097.40425Z" fill="#191c1e"/><path d="M524.35627,1074.87931c-.35442,3.70577-.55486,7.84076-5.89838,4.09869-1.814-1.27044-3.13392-5.2248-5.49964-2.92032a9.7505,9.7505,0,0,0-2.57511,10.52442c1.36309,3.53783,3.68736,6.76042,3.34591,10.82046q-23.39963.02336-46.79921.04656c2.45673-9.06115-3.92675-15.35966-7.47109-22.29139-14.41588-28.19388-29.33148-56.13242-44.06216-84.16537a6.12876,6.12876,0,0,0-.486-.94281c-4.49478-5.77371-11.70329-12.117-9.99061-18.69027,1.61831-6.21092,8.77411-11.62835,14.56958-15.95605,9.35223-6.98366,14.64285-18.18343,25.37805-23.534,3.24092-1.61538,1.32634-3.17539-.00088-4.85736-1.783-2.25961-2.5119-7.36478-6.61635-4.51786-6.78623,4.70693-15.30866,3.37191-21.90619,6.87979-10.15527,5.39934-9.24368-1.11567-8.773-6.97381,1.183-14.7247,2.48767-29.4555,4.34919-44.10693,4.36174-34.3301,7.26075-68.73795,5.91252-103.36229-.21406-5.49718.222-6.52143,5.97959-5.1274,9.16684,2.21934,16.31775-1.41,19.85572-10.58394,1.62175-4.20509,6.06077-4.02,8.75329-7.60657,3.80513,10.20191,4.55277,17.89329-8.39938,19.8785,1.28366,1.55645,1.96453,2.9635,2.464,2.90178,9.977-1.23063,11.172,4.11988,12.65477,12.83285,8.25473,48.50368,18.47541,96.682,26.2418,145.25622,4.03767,25.2532,11.83629,49.9853,11.53648,75.94433-.07278,6.30312,2.61072,12.52435,4.43906,18.38741,4.00573,12.84537-4.88579,22.01609-6.89575,33.00591-3.31951-.52285-8.02968.16767-9.72453-1.77294-8.57578-9.81923-11.87025.559-15.87513,4.23031-5.4557,5.00149-5.88262,11.09331,1.16,16.15627-2.93015-5.25281-2.27812-9.69449,2.76737-12.67964,5.16991-3.05881,10.98-3.54678,16.16-.363,5.10182,3.13571,4.74386,7.26824.44605,11.30131-2.9562,2.77417-6.57438,2.09454-10.03157,2.36452,1.63909-3.019-1.11015-4.04409-2.407-5.88135-.56942-.80684,4.679-1.40245.94017-3.591-.86771-.50794-2.85245-.0603-3.75664.659a3.20419,3.20419,0,0,0-.3375,4.65876c1.60086,1.65311,3.84,2.68858,5.8051,3.9891,12.67449,3.76348,17.171,1.25488,19.47133-10.863a32.10213,32.10213,0,0,0,15.3937-7.85061c2.913-2.65954,4.80643-2.94936,5.61018,1.51631q-.16063,1.12332-.32141,2.24664l.16-.1123C515.77135,1069.7685,516.49181,1073.7558,524.35627,1074.87931Z" fill="#191c1e"/><path d="M335.18448,1097.39128c1.51153-16.03151,3.39339-32.04,4.39962-48.10311.631-10.07352-.59819-20.26532.06782-30.33405.36519-5.52046-.26757-14.81859,5.86043-15.12125,7.32948-.36206,8.10716,9.32238,8.26371,14.89872.33594,11.96461,2.37357,23.75907,2.58222,35.675.251,14.33612.04871,28.68016.04268,43.02069Q345.79272,1097.40944,335.18448,1097.39128Z" fill="#0c0b0c"/><path d="M758.1618,1097.40244c2.84962-24.34145,5.75652-48.67654,8.49548-73.03044.48655-4.32613,2.94315-6.61039,6.7738-6.61894,4.88012-.0109,3.53727,4.26376,3.824,7.16864,1.41018,14.28737,2.823,28.575,4.08927,42.87546.30669,3.46483,1.52162,7.98665-1.20592,10.16638-6.85976,5.48181-4.51187,12.70155-5.015,19.44953Q766.64255,1097.40762,758.1618,1097.40244Z" fill="#0c0b0c"/><path d="M556.19781,1097.40827c5.9251-8.63632,4.63765-21.28484,15.21707-27.332,14.47053,1.67049,15.00366,2.29255,9.06714,10.77948,4.79839,1.54471,6.45357-1.04376,6.65394-5.11586.28359-5.76529,3.803-4.617,7.32757-3.66868,3.24588,5.92258,7.11695,11.552-2.45946,16.03878-2.25149,1.05492-2.63731,6.08818-3.88137,9.29132Z" fill="#191c1e"/><path d="M615.33229,1057.45326c-6.92339-2.58381-9.56563,6.68676-15.89894,5.73688q.10314-1.476.20621-2.95182c1.17673-.70389,2.56045-1.27745,2.2068-3.05362a.99737.99737,0,0,0-.66007-.64826c-1.994-.21137-2.05009,1.382-2.41256,2.67873-2.873-.55592-3.91647,7.37172-5.34488,3.12922-4.18125-12.41847-12.91751-5.81469-19.9358-6.46826,2.50233-16.72282,11.78736-31.07866,16.17384-47.32849,6.97334-25.833,14.50841-51.59814,22.23368-77.25548,4.79371-15.921,7.06492-32.85277,11.42559-49.1817,6.20825-23.2473,11.267-46.80952,16.45692-70.31656,2.18-9.87421,1.74826-20.27265,5.68938-29.82793,2.6837-6.50677,4.15751-12.66044,2.72716-20.23186-1.2739-6.74338,8.04485-10.58757,16.18837-6.93711a94.35926,94.35926,0,0,1,15.26779,9.16534c1.88974,1.32542,4.43086,4.38144,4.0115,5.927-4.25812,15.69241,9.05611,27.85938,7.449,44.03172-1.52117,15.30747,1.09545,31.27642-.37849,47.21029-1.48446,16.04668-2.00922,32.426.73518,48.59931.86421,5.09272,3.23577,11.871-1.59329,14.7675-4.80818,2.88407-11.76751,2.62017-17.2776-.66661-5.33885-3.18453-11.24171-3.79355-17.05219-5.20022-4.22757-1.02347-7.24545-.28334-8.74988,3.41458a7.74076,7.74076,0,0,0,2.95885,9.36115c10.31263,6.72917,14.34923,18.84336,23.65566,26.62784,4.13844,3.46158,2.58666,10.4-.45549,15.76581-11.19046,19.73845-24.55671,38.12171-36.04542,57.62026-4.98539,8.46139-14.98057,12.62284-17.40694,22.68535C616.76972,1053.54532,615.66836,1055.02247,615.33229,1057.45326Z" fill="#191c1e"/><path d="M533.53064,1044.37019c-5.32834-29.12936-11.0054-58.20043-15.89421-87.40338-5.73907-34.28141-10.4084-68.70358-13.01143-103.4172-1.76416-23.52734-4.9553-46.94834-7.54059-70.41324-.49639-4.50529-1.65668-8.88777,5.954-6.29521,32.559,11.09065,65.29719,9.006,99.86523.23426C585.3432,868.15021,547.17024,953.1431,536.58355,1045.047Q535.05712,1044.70852,533.53064,1044.37019Z" fill="#f4f2f0"/><path d="M522.09881,754.78669c12.1473,1.75407,24.28506,1.35032,36.41763-.16,3.08722.59489,6.14545.8475,9.04217-.777a12.21112,12.21112,0,0,0,8.00016-1.42164c2.25973.84964,4.40822.91409,6.29023-.894,9.10113-.08643,16.64237-5.07418,24.84115-8.14038,1.87767,15.67835-1.64285,21.03878-16.59274,25.25573-26.79264,7.55755-53.65423,5.78312-80.73387,1.32471-14.10741-2.32263-9.80492-14.66051-15.58291-22.95287,6.6914,1.30027,10.71888,5.4577,16.13949,5.24062C513.00326,757.81055,517.91672,754.53706,522.09881,754.78669Z" fill="#f4f2f0"/><path d="M651.91532,1053.34484c2.42586,2.4492,7.72974-.427,8.70746,4.70156q-7.40968-.00019-14.81931-.00013c3.75982,5.067,8.34032,2.73085,12.39586,3.67568.5417,4.705,4.61034,11.09123-5.26438,10.77819-2.14732-.06821-3.41052,1.28743-2.629,3.39467,1.11893,3.01666,3.70228,2.63023,6.22063,1.52733-8.602,4.34313-16.48065-1.94541-24.84575-1.17863-6.74144-3.09551-5.30207-10.31071-8.11154-15.43423,4.7223,2.89412,5.68406,8.04928,8.04109,12.33561,3.75645,6.83084,8.31639,1.18511,12.79764.94093-8.14066-1.75037-9.58795-6.0332-5.45716-12.63438q1.74924-.37813,3.49867-.75653c-.38141-1.63-.81621-3.19769-3.0775-2.63-1.01177-.119-2.19292.04772-2.99407-.42664-1.0987-.65058-.8105-1.35849.34106-2.15094C641.46576,1052.22094,647.35221,1057.48373,651.91532,1053.34484Z" fill="#191c1e"/><path d="M499.08007,1068.02824c-2.30037,12.11788-6.79684,14.62648-19.47133,10.863l-.25038.16936c3.46345-.27387,7.08163.40576,10.03783-2.36841,4.29781-4.03307,4.65577-8.1656-.44605-11.30131-5.18-3.18381-10.99009-2.69584-16.16.363-5.04549,2.98515-5.69752,7.42683-2.76737,12.67964-7.04258-5.063-6.61566-11.15478-1.16-16.15627,4.00488-3.67127,7.29935-14.04954,15.87513-4.23031,1.69485,1.94061,6.405,1.25009,9.72453,1.77294a14.82828,14.82828,0,0,0,1.66916,5.387Q497.60585,1066.6175,499.08007,1068.02824Z" fill="#191c1e"/><path d="M599.63956,1060.23832q-.10314,1.47578-.20621,2.95182-.3855,1.28808-.77093,2.576c-3.40254-.06134-7.60046,2.88556-9.09886-3.39493-1.08488-4.54711-5.11182-3.81872-6.97658-1.14816-1.73263,2.48149-4.62026,3.54211-6.94168,7.36913,8.4225-3.16294,15.66841-.96972,22.97632-.2792-.23961,2.52027-2.5659,2.73358-4.15822,3.75829-3.52442-.94846-7.04385-2.09674-7.32744,3.66855-.20037,4.0721-1.85555,6.66057-6.65394,5.11586,5.93652-8.48693,5.40339-9.109-9.06714-10.77948-.99725-5.6124,4.03971-6.44467,7.29559-8.794-.68168-3.00668-6.87591-.53945-5.21742-5.40608,7.01829.65357,15.75455-5.95021,19.9358,6.46826,1.42841,4.2425,2.47184-3.68514,5.34482-3.12922A1.02641,1.02641,0,0,0,599.63956,1060.23832Z" fill="#191c1e"/><path d="M615.33229,1057.45326c.33607-2.43079,1.43743-3.90794,4.17438-3.347.30539,8.12851.92051,16.28114-1.67127,24.2731C614.23775,1071.62132,616.636,1064.33389,615.33229,1057.45326Z" fill="#0c0b0c"/><path d="M524.35627,1074.87931c-7.86446-1.12351-8.58492-5.11081-4.42865-11.05479,4.04621,1.43215-2.23728,7.28834,3.19594,7.76775,2.33252.20567,3.1351-2.30513,3.35954-4.43506.76742-7.28691-5.60253.21306-6.72056-3.21663q.16074-1.12332.32141-2.24664c3.51151,1.84594,12.62724-5.373,10.10117,6.23951-4.07961,1.4752,3.9022,5.78085-1.62424,6.91656Q526.45854,1074.86459,524.35627,1074.87931Z" fill="#191c1e"/><path d="M598.62169,1068.313c-7.308-.69052-14.55389-2.88374-22.97639.2792,2.32142-3.827,5.209-4.88764,6.94168-7.36913,1.86476-2.67056,5.8917-3.399,6.97658,1.14816,1.4984,6.28049,5.69632,3.33359,9.09886,3.39493Q598.64208,1067.03966,598.62169,1068.313Z" fill="#191c1e"/><path d="M528.56088,1074.85c5.52644-1.13571-2.45537-5.44136,1.62424-6.91656,2.42326.54477,6.535-.93445,5.80458,3.73079-.51322,3.2781-.65,7.74143-4.90749,8.54932C524.8992,1081.38674,529.33836,1076.71242,528.56088,1074.85Z" fill="#191c1e"/><path d="M522.09881,754.78669c-4.18209-.24963-9.09555,3.02386-12.17869-2.52474C514.36285,751.252,518.20291,753.154,522.09881,754.78669Z" fill="#191c1e"/><path d="M545.23561,744.98c4.22478-1.64546,8.60491-1.2246,12.97194-.97419C554.02617,746.22914,549.59324,745.10342,545.23561,744.98Z" fill="#191c1e"/><path d="M401.04792,783.35085c.21814-1.31479.247-2.81482,1.96238-3.0721.33241-.04986,1.1756.79343,1.12552,1.12579-.25852,1.71568-1.76085,1.73954-3.07555,1.95662Z" fill="#191c1e"/><path d="M375.52454,804.62376c-1.3087-.2292-2.81845-.24677-3.06731-1.9666-.04888-.33762.78938-1.18064,1.12675-1.13357,1.72135.24016,1.75161,1.74648,1.98473,3.05557Z" fill="#191c1e"/><path d="M567.55861,753.84977c-2.89672,1.62446-5.955,1.37185-9.04217.777C561.40135,752.86339,564.49383,753.51748,567.55861,753.84977Z" fill="#191c1e"/><path d="M572.96621,742.8936c2.76607-1.36893,5.54473-2.68391,8.7792-2.03605C579.32935,743.73416,576.09067,743.06789,572.96621,742.8936Z" fill="#191c1e"/><path d="M763.9728,848.07914c.54682.23562,1.39494.35194,1.54978.74272a1.63841,1.63841,0,0,1-.65664,1.51209c-.39562.1527-1.05816-.38585-1.60374-.62167Q763.61617,848.89621,763.9728,848.07914Z" fill="#191c1e"/><path d="M581.849,751.53414c-1.882,1.80808-4.0305,1.74363-6.29023.894Q578.70434,751.98076,581.849,751.53414Z" fill="#191c1e"/><path d="M639.37209,1058.06494c2.26122-.56772,2.696.99994,3.07743,2.63q-1.74944.37833-3.49867.75653Q639.1616,1059.75819,639.37209,1058.06494Z" fill="#191c1e"/><path d="M496.13163,1065.20687a2.31961,2.31961,0,0,1-1.34422-3.52616Q495.45956,1063.4436,496.13163,1065.20687Z" fill="#191c1e"/><path d="M658.19933,1061.722c-4.05554-.94483-8.636,1.3913-12.39586-3.67568q7.4096,0,14.81931.00013Q659.411,1059.88436,658.19933,1061.722Z" fill="#191c1e"/><path d="M479.60874,1078.89124c-1.96511-1.30052-4.20424-2.336-5.8051-3.9891a3.20419,3.20419,0,0,1,.3375-4.65876c.90419-.71932,2.88893-1.167,3.75664-.659,3.7388,2.18855-1.50959,2.78416-.94017,3.591,1.29686,1.83726,4.0461,2.86235,2.407,5.88135C479.35836,1079.0606,479.60874,1078.89124,479.60874,1078.89124Z" fill="#191c1e"/><path d="M599.63963,1060.23832a1.02641,1.02641,0,0,1-.866-1.02315c.36253-1.29676.41858-2.8901,2.41262-2.67873a.99737.99737,0,0,1,.66007.64826C602.2,1058.96087,600.81629,1059.53443,599.63963,1060.23832Z" fill="#0c0b0c"/><path d="M519.76254,1063.94058c1.118,3.42969,7.488-4.07028,6.72056,3.21663-.22444,2.12993-1.027,4.64073-3.35954,4.43506-5.43322-.47941.85027-6.3356-3.19594-7.76775C519.9225,1063.82828,519.76254,1063.94058,519.76254,1063.94058Z" fill="#191c1e"/><path d="M236.32439,1083.09533l-17.06824,12.62033s106.69686,14.521,127.58042,11.30818,76.32487-15.38309,93.18258-11.306,124.48835,12.10923,161.43618,7.28994,45.78319,6.42571,61.84746,4.01607,88.35352-10.44178,101.20494-10.44178,104.41779-3.21285,104.41779-3.21285l-167.06847-2.40964L372.53941,1081.321Z" fill="#191c1e"/><path d="M336.15322,1075.8528l-4.766,26.68984s12.39171,4.28944,18.58757.47661,1.42981-29.54947,1.42981-29.54947Z" fill="#0c0b0c"/><path d="M435.30443,1080.29065s8.10227,14.29812,15.72794,14.29812,21.92379,1.90642,21.92379,1.90642l-18.58756-27.16644Z" fill="#0c0b0c"/><path d="M757.75167,1090.93751s-2.76762,5.5749-.94076,5.88883,19.05676.41239,18.17065-.27681-2.9537-8.76263-2.9537-8.76263Z" fill="#0c0b0c"/><path d="M590.823,1084.51406s-3.64289-.78765-6.59658,4.03672,16.24532,9.058,19.98667,7.38424,20.3805-9.15646,19.78976-11.224S590.823,1084.51406,590.823,1084.51406Z" fill="#0c0b0c"/><path d="M500.50047,1086.71108s-.85849,5.71022,2.87872,5.71022,31.24305.14949,37.82053,3.13925,9.86623-7.6239,8.37135-10.61367S500.50047,1086.71108,500.50047,1086.71108Z" fill="#0c0b0c"/></g></svg>