<svg id="Layer_1" data-name="Layer 1" xmlns="http://www.w3.org/2000/svg" xmlns:xlink="http://www.w3.org/1999/xlink" viewBox="0 0 1135.84503 1133.63826"><defs><clipPath id="clip-path"><circle cx="-1737.62081" cy="570.95884" r="566.92913" fill="none"/></clipPath><clipPath id="clip-path-2"><circle cx="566.92913" cy="566.92913" r="566.92913" fill="none"/></clipPath><clipPath id="clip-path-3"><circle cx="568.91589" cy="568.59917" r="566.92913" fill="none"/></clipPath></defs><g clip-path="url(#clip-path-2)"><g clip-path="url(#clip-path-3)"><path d="M305.44505,888.45827s-36.30018,58.87576-50.86991,117.17059c-16.40953,65.656-28.33724,137.45969-4.87224,145.9746,57.244,20.77251,594.613,23.8239,594.613,23.8239s7.80222-24.66788,6.09031-92.37106c-.33542-13.26536,14.279,1.19094,13.9371-11.88753-1.84347-70.51278-71.2404-178.84177-76.27945-187.42972C771.39368,855.32847,305.44505,888.45827,305.44505,888.45827Z" fill="#464247"/><path d="M296.15518,903.0905c8.20539-2.68159,5.28552-18.01715,10.6509-23.98909,28.68041-31.92311,64.42471-55.412,97.13272-82.51384a20.07264,20.07264,0,0,0,3.08042-2.94785c4.79177-6.12546,8.31932-5.11533,15.25512-1.06246,16.48086,9.63045,33.3002,19.3516,52.76975,22.52723A267.37616,267.37616,0,0,1,503.4759,821.664c-10.03505,3.241-21.07168,4.70311-28.05138,13.47178-8.63186,10.84429-.41112,20.8044,3.45646,30.12664,3.80792,9.17854,11.13154,16.40234,21.96045,18.20669,10.49618,1.749,17.71076-6.09414,28.00374-10.324-5.73737,11.36685-5.54682,23.71857-15.716,31.1467-16.21115,1.42581-32.45541.49489-48.5443-.91332a302.64038,302.64038,0,0,0-48.5644-.69055c-37.52694,2.74947-75.09818-.12366-112.62679,1.49139C296.14651,904.49116,297.82609,912.31661,296.15518,903.0905Z" fill="#464247"/><path d="M794.516,904.01724c-24.32129-1.52372-34.92615-3.19561-59.19368-5.60591-12.89178-1.28047-26.04849.10533-39.08553.28758q-.775.07112-1.55028.1424c-2.81023.64946-5.62585,1.17839-8.50033.37671-2.76788-3.05735-5.44982-1.783-8.11845.1612a23.92111,23.92111,0,0,1-14.85335.07865l-.44379-.04533a4.18423,4.18423,0,0,1-4.27083-.10151c-1.01649-2.1125-2.12872-1.90733-3.30547-.13609q-12.817-.118-25.63405-.236c-1.25808-.49557-2.6598-1.63364-3.75261-1.38962-14.44184,3.22556-18.57054-6.54959-22.045-17.22788l.288-.29c6.98766,2.37385,13.56827,8.5178,21.5099,3.4043,9.43461-6.07471,19.7779-11.27114,24.15466-22.85047,2.95764-7.82469-.46516-16.91106-8.69377-23.4429-9.11624-7.23644-20.07851-9.84115-31.96977-12.91464,8.66675-6.66437,18.537-7.68976,27.414-10.0999,20.1389-5.46771,34.77132-17.00727,54.48371-23.34073,2.95958-.95087,7.60793-9.40417,11.0677-7.37847,35.84289,20.98561,51.20532,52.19522,77.29032,85.12183" fill="#464247"/><path d="M678.06771,899.37922c2.66863-1.94418,5.35057-3.21855,8.11845-.1612A15.75485,15.75485,0,0,1,678.06771,899.37922Z" fill="#464247"/><path d="M655.19427,899.17494c1.17675-1.77124,2.289-1.97641,3.30547.13609Q656.84667,899.243,655.19427,899.17494Z" fill="#464247"/><path d="M694.68649,898.84131q.77514-.0712,1.55028-.1424l-.75187.32491Z" fill="#1c1b21"/><path d="M662.77057,899.41254l.44379.04533Z" fill="#1c1b21"/><path d="M576.49742,811.60411c2.6702-12.66216,11.669-21.84279,18.40047-32.115,8.85318-13.50969,19.41862-25.88845,28.98319-38.94712,3.12109-4.26132,6.83494-5.10786,11.75217-4.74044,22.02865,1.64575,39.44219,12.76535,55.6315,26.53759-3.26019,4.92447-8.19148,7.70281-13.33739,10.07092C644.93816,787.59154,610.06355,797.90669,576.49742,811.60411Z" fill="#464247"/><path d="M429.10522,768.28611c1.02866-4.7428,5.28079-6.64249,8.61254-9.01723C450.89,749.88052,464.92609,741.851,479.058,733.999c4.90885-2.72748,9.26547-4.52222,7.682,4.23961-.35425,1.96048-.1252,3.96352,1.6992,4.191,10.0162,1.24889,13.4801,10.20565,18.5671,16.50193,10.692,13.2338,20.0352,27.55326,30.03922,41.34937a11.06691,11.06691,0,0,1,1.82509,8.08772c-15.78088-2.36727-30.879-7.48631-45.88363-12.49892C470.9629,788.512,448.81514,781.13266,429.10522,768.28611Z" fill="#464247"/><path d="M520.13872,827.1325c10.621-.18987,20.06492,5.79674,30.73431,5.92113,2.91252.03394,2.50524,2.95129.67232,4.29208-13.87572,10.15045-23.26635,25.45221-39.00221,33.50844-10.58263,5.418-16.20879,3.95319-21.96084-6.65925-12.31359-22.71825-9.85667-28.34016,15.29254-34.63529C510.54782,828.38989,515.20294,826.9502,520.13872,827.1325Z" fill="#593e74"/><path d="M572.8682,833.90773q2.57136-.46473,5.14236-.92355c2.95326,1.12752,5.33047.70747,6.6704-2.48686,6.23115-3.001,12.19412-2.77626,18.73121-.10172,9.42772,3.85709,19.64444,5.57512,28.7693,10.46852,9.79978,5.25538,11.17836,11.32251,4.00975,19.60956-15.795,18.25927-20.662,18.99055-38.91785,3.48352-8.554-7.26595-18.23284-13.45825-24.79683-22.92311Q572.674,837.47057,572.8682,833.90773Z" fill="#593e74"/><path d="M564.37805,859.4873c0-1.99474-.07345-3.99287.02053-5.98317.095-2.01228.287-4.33548,2.23873-5.24577,2.26172-1.05484,3.36434,1.40361,4.92909,2.48921,15.519,10.76674,22.23638,27.16109,28.58094,43.9334,2.97639,7.86825,1.93634,13.32859-5.85553,17.80982-21.03509,12.09766-19.36007,15.06979-21.66065-10.71422-.99628-11.16565-7.08561-21.46607-7.395-32.98875a82.58819,82.58819,0,0,0-1.25922-9.25744Z" fill="#593e74"/><path d="M576.49742,811.60411c33.56613-13.69742,68.44074-24.01257,101.42994-39.194,5.14591-2.36811,10.0772-5.14645,13.33739-10.07092,7.9935,6.57231,8.33464,8.16.29695,13.50681-18.88515,12.56253-40.19975,20.13568-61.50071,27.09316-17.66029,5.76839-34.5132,13.26253-51.658,20.16581a48.0257,48.0257,0,0,1-8.89215,2.87072c-2.40578.45378-4.46164-1.48456-2.74881-3.48263C569.91891,818.81057,571.32,813.4638,576.49742,811.60411Z" fill="#faf9fa"/><path d="M429.10522,768.28611c19.70992,12.84655,41.85768,20.22586,63.88176,27.58355,15.00467,5.01261,30.10275,10.13165,45.88363,12.49892,7.99277,2.29975,11.24079,9.33634,15.42334,15.43915q-1.70339.37425-3.40671.75-1.02781-.34661-2.05549-.69311a112.94978,112.94978,0,0,0-28.84963-8.41055l-.73934-.3941-.83487.07112c-.315-.91593-.83513-1.30465-1.74955-.68057q-1.73871-.41868-3.47759-.83724a3.12485,3.12485,0,0,0-3.53176-1.07985q-1.64209-.3962-3.28421-.79228-.85968-.40943-1.71952-.8189-1.71389-.44287-3.42781-.88586c-.34982-.75389-.83983-1.0893-1.62487-.544-3.23767-1.70972-6.58337-3.03511-10.33869-2.90232-2.88587-1.14032-5.79345-2.22868-8.65391-3.42936-20.93733-8.78825-42.87783-15.50348-61.26251-29.57625C420.814,768.5399,423.37493,765.4933,429.10522,768.28611Z" fill="#faf9fa"/><path d="M555.14841,846.049c-1.58361,24.58207,1.05864,48.54216-5.51439,71.88323-2.68137,9.52172-4.29172,10.1882-18.35778,6.77727-7.36622-1.78628-5.915-6.91633-5.08982-12.13532,2.76975-17.518,9.655-33.86118,14.76178-50.68619C542.86929,855.55866,547.76036,849.76406,555.14841,846.049Z" fill="#593e74"/><path d="M579.93385,779.07985c-4.20616,11.51886-12.57042,20.64685-18.09019,31.41762-1.91978,3.746-3.85284,1.02951-5.07968-.5776-8.92119-11.68623-17.70282-23.47888-26.52847-35.238C547.35846,769.85975,564.0894,769.464,579.93385,779.07985Z" fill="#464247"/><path d="M596.09605,760.7152c-2.128,4.166-5.29933,5.85163-9.80281,4.00321-7.09386-2.91166-14.71577-4.5089-21.72292-7.177-13.94942-5.31136-26.1727-1.51964-38.68128,3.44524-2.06453.81943-3.69378,2.58644-6.29466,1.54507-1.67392-.67029-3.266-1.36878-3.74268-3.14127-.591-2.19735,1.44915-3.23474,2.80976-3.65667,18.40606-5.70667,36.81838-11.3514,56.25095-4.22233,5.853,2.14727,12.19209,2.93412,17.71075,6.06474C593.97051,758.34046,596.17571,758.28715,596.09605,760.7152Z" fill="#593e74"/><path d="M579.93385,779.07985c-15.84445-9.61582-32.57539-9.2201-49.69834-4.39794-2.80454-1.21217-5.40845-3.5619-5.08141-6.22494.37285-3.03636,4.33821-2.89934,6.8692-3.85647,18.107-6.84777,35.17094-1.77865,52.11629,4.61465,1.30426.49206,3.52669,1.2306,2.86968,2.37C585.299,774.55116,584.56677,778.78079,579.93385,779.07985Z" fill="#faf9fa"/><path d="M419.33749,773.58447c18.38468,14.07277,40.32518,20.788,61.26251,29.57625,2.86046,1.20068,5.768,2.289,8.65391,3.42936-6.17163,4.17167-12.62721.75385-17.84079-1.10063-14.6504-5.21131-28.79649-11.909-42.92069-18.49378C423.16742,784.513,417.39709,781.43824,419.33749,773.58447Z" fill="#464247"/><path d="M519.98212,815.4541a112.94978,112.94978,0,0,1,28.84963,8.41055c-8.47041,1.14867-16.17583-2.26587-24.12441-4.141C522.55918,819.21694,520.3137,818.244,519.98212,815.4541Z" fill="#464247"/><path d="M572.8682,833.90773q-.195,3.563-.39166,7.12636c-2.72838-.88141-5.74087-2.263-5.29432-5.35418C567.57769,832.94282,570.83992,834.26867,572.8682,833.90773Z" fill="#464247"/><path d="M584.681,830.49732c-1.33993,3.19433-3.71714,3.61438-6.6704,2.48686C579.47753,830.11795,582.23548,830.72745,584.681,830.49732Z" fill="#464247"/><path d="M409.16535,782.73653c1.43011-2.9689-3.53646-5.60834-.44643-8.66282C410.68269,776.86777,411.82844,779.70408,409.16535,782.73653Z" fill="#464247"/><path d="M509.649,812.53346a3.12485,3.12485,0,0,1,3.53176,1.07985C511.28637,815.59781,510.24387,814.79734,509.649,812.53346Z" fill="#464247"/><path d="M409.29961,770.705q.65421-1.58969,1.30828-3.17923C410.80876,768.84763,410.64093,770.01761,409.29961,770.705Z" fill="#464247"/><path d="M550.88724,824.55776q1.70331-.37536,3.40671-.75C553.66232,826.34764,552.37949,825.92837,550.88724,824.55776Z" fill="#464247"/><path d="M415.01508,764.196s.40231.1129.39408.10235c-.1246.78172-.241,1.57395-.35739,2.36622Q415.03344,765.43028,415.01508,764.196Z" fill="#464247"/><path d="M504.64528,810.92228q.85976.40943,1.71952.8189Q505.505,811.33176,504.64528,810.92228Z" fill="#464247"/><path d="M499.5926,809.49235c.785-.54523,1.27505-.20982,1.62487.544Q500.405,809.7644,499.5926,809.49235Z" fill="#464247"/><path d="M516.65836,814.4506c.91442-.62413,1.43458-.23541,1.74955.68052Q517.53311,814.79094,516.65836,814.4506Z" fill="#464247"/><path d="M424.14534,755.25632q.94916-.65076,1.89824-1.30152Q425.09443,754.60571,424.14534,755.25632Z" fill="#464247"/><path d="M309.72731,859.47012l.54962.91776q-.44563-.28918-.8929-.5764Z" fill="#636260"/><path d="M603.76262,880.32141l-.61335-.52136c.29926.07859.59846.15718.89954.23358Z" fill="#464247"/><path d="M426.40426,753.73548a.80451.80451,0,0,1,1.15967-.70288A.83729.83729,0,0,1,426.40426,753.73548Z" fill="#464247"/><path d="M258.42909,961.28691c-9.21881,18.43763-29.5002,82.96933-29.5002,82.96933l13.82822,4.6094s27.1955-82.04744,31.344-93.11,46.3098-83.51973,46.3098-83.51973l12.22967-10.97312,16.59387-28.11739L327.5702,847.89549S308.188,875.54267,299.44147,890.2974,258.42909,961.28691,258.42909,961.28691Z" fill="#1c1b21" stroke="#1c1b21" stroke-miterlimit="10" stroke-width="5"/><path d="M698.1946,783.73073s70.05191,73.278,80.65187,88.48663,57.60848,105.07787,59.452,111.99088,18.89558,87.104,18.89558,87.104l19.35645-3.22608s-17.97384-71.43452-21.19992-75.58233-47.46939-99.08658-65.9041-123.51258-66.09016-77.23263-74.19972-82.03448a141.661,141.661,0,0,1-14.74777-10.13909Z" fill="#1c1b21" stroke="#1c1b21" stroke-miterlimit="10" stroke-width="5"/><path d="M694.45917,792.02154c-19.7124,6.33346-37.85466,16.63853-57.99356,22.10624-8.877,2.41014-18.74725,3.43553-27.414,10.0999,11.89126,3.07349,22.85353,5.6782,31.96977,12.91464,8.22861,6.53184,11.65141,15.61821,8.69377,23.4429-4.37676,11.57933-14.72005,16.77576-24.15466,22.85047-7.94163,5.1135-14.52224-1.03045-21.51168-3.40206-.30108-.0764-.60028-.155-.89954-.23358l.61335.52136c3.47445,10.67829,7.60315,20.45344,22.045,17.22788,1.09281-.244,2.49453.894,3.75261,1.38962-3.12109.23076-6.24291.45248-9.3631.69462-4.03207.313-9.56285-1.22016-6.269,6.62986,1.07938,2.57239-1.89931,5.20656-4.06382,7.0438-8.04783,6.83058-16.49577,13.14305-26.30345,17.24511-8.49558,3.55333-15.356.29493-17.5097-8.55885-1.35612-5.57528-1.66566-11.405-3.79272-17.20579-1.23885,5.33732-2.41482,10.69019-3.72941,16.00876-2.89951,11.73051-4.86484,13.1995-17.20742,12.62728a54.61753,54.61753,0,0,1-9.2905-1.19024c-14.8966-3.31349-17.277-6.68182-15.17449-21.72973.47043-3.36692.89667-6.15367-3.72742-6.212,10.16913-7.42813,9.97858-19.77985,15.716-31.1467-10.293,4.22989-17.50756,12.073-28.00374,10.324-10.82891-1.80435-18.15253-9.02815-21.96045-18.20669-3.86758-9.32224-12.08832-19.28235-3.45646-30.12664,6.9797-8.76867,18.01633-10.23076,28.05138-13.47178a267.37616,267.37616,0,0,0-28.43181-6.55946c-19.46955-3.17563-36.28889-12.89678-52.76975-22.52723-6.9358-4.05287-10.46335-5.063-15.25512,1.06246a20.07264,20.07264,0,0,1-3.08042,2.94785c-32.708,27.10183-54.8475,43.72521-83.52792,75.64832-5.36538,5.97194-14.07023,32.37514-22.27563,35.05673-2.85047-3.39429-1.18544-10.90074,1.30622-16.99522a32.83609,32.83609,0,0,1,4.53657-8.20181,143.14016,143.14016,0,0,0,15.33732-21.54528c.40474.11076.31952-3.19106.73035-3.28657.29878.19087,9.76878-3.12413,0,0-.18321-.30595,4.93045-5.90206,4.74726-6.208,5.43337-5.79627,4.69486-5.26783,10.59006-10.59005,6.46069-5.83288,5.52095-7.42678,10.07272-14.89737,3.39122.36669,5.77235-1.44873,8.37325-3.34743,18.30185-13.36076,35.52969-28.23332,55.33635-39.4844,2.66309-3.03245,1.51734-5.86876-.44638-8.66292q.2903-1.68432.58062-3.36864c1.34134-.68736,1.50917-1.85734,1.30819-3.179.79434-2.00252,1.77881-3.75355,4.4073-3.32994q.01836,1.2343.03669,2.46857l.34919-2.37677c1.3878-4.38431,1.3878-4.38431,8.74441-9.03144q.94908-.65067,1.89816-1.30147l.36073-.21942a.83729.83729,0,0,0,1.15967-.70288,203.4391,203.4391,0,0,1,45.0053-25.22113c6.47258-2.639,13.71662-4.843,18.26975,2.58831,3.18126,5.1922,15.12325,14.77084,16.40843,19.03207.97288,3.22592,3.7559,3.05182,6.889,1.28977,25.655-14.428,52.17522-12.63829,77.8031-1.216,9.38013,4.18076,13.61053,2.22127,18.38553-4.76211a28.25405,28.25405,0,0,1,2.89042-3.12952c.241-.11922.6967-.2623.68652-.35358-.051-.45807,5.16219-7.04337,9.64919-10.118,4.6605-3.19355,10.83111-3.40232,16.5934-2.55683,20.95522,3.07453,38.76741,13.645,54.85429,26.19247,7.633,5.95361,14.4736,15.49769,12.13829,27.377m-176.90169-7.473c8.8257,11.75908,17.60733,23.55173,26.52852,35.238,1.22684,1.60711,3.1599,4.32363,5.07968.5776,5.51977-10.77077,13.884-19.89876,18.09019-31.41762,4.63292-.29906,5.3651-4.52869,7.07542-7.49466.657-1.13944-1.56542-1.878-2.86968-2.37-16.94535-6.3933-34.00928-11.46242-52.11629-4.61465-2.531.95713-6.49635.82011-6.8692,3.85647C524.82706,771.12,527.431,773.46974,530.23546,774.68191ZM509.649,812.53346c.59486,2.26388,1.63736,3.06435,3.53187,1.07985q1.73871.41859,3.47748.83729.87472.34026,1.74955.68052l.83487-.07112.73934.3941c.33158,2.78994,2.57706,3.76284,4.72522,4.26958,7.94858,1.8751,15.654,5.28964,24.1243,4.14091q1.02783.34662,2.0556.69317c1.49225,1.37061,2.77508,1.78988,3.40681-.74935-4.18265-6.10349-7.43067-13.14008-15.42339-15.43978a11.06725,11.06725,0,0,0-1.82514-8.08777c-10.004-13.79611-19.34722-28.11557-30.03922-41.34937-5.087-6.29628-8.5509-15.253-18.5671-16.50193-1.8244-.22746-2.05345-2.2305-1.6992-4.191,1.58345-8.76183-2.77317-6.96709-7.682-4.23961-14.13189,7.852-28.168,15.88155-41.34022,25.26991-3.33175,2.37474-7.58388,4.27443-8.61254,9.01723-5.73029-2.79281-8.29121.25379-9.76773,5.29836-1.9404,7.85377,3.82993,10.92857,9.15494,13.4112,14.1242,6.58478,28.27029,13.28247,42.92069,18.49378,5.21358,1.85448,11.66916,5.2723,17.84089,1.10063,3.75522-.13279,7.10092,1.1926,10.33859,2.90227l1.62487.54407q1.71388.44295,3.42781.88586.85976.4095,1.71952.8189Q508.00691,812.1373,509.649,812.53346Zm68.36192,20.44476q-2.57136.46473-5.14273.92951c-2.02828.36094-5.29051-.96491-5.686,1.77218-.44655,3.09119,2.56594,4.47277,5.2927,5.35455,6.56561,9.46449,16.24442,15.65679,24.79845,22.92274,18.25588,15.507,23.12287,14.77575,38.91785-3.48352,7.16861-8.287,5.79-14.35418-4.00975-19.60956-9.12486-4.8934-19.34158-6.61143-28.7693-10.46852-6.53709-2.67454-12.50006-2.89929-18.73121.10172C582.23548,830.72745,579.47753,830.11795,578.01093,832.97822Zm113.25392-70.63914c-16.18941-13.77214-33.603-24.89174-55.6316-26.53749-4.91723-.36742-8.63108.47912-11.75217,4.74044-9.56457,13.05867-20.13,25.43743-28.98319,38.94712-6.73151,10.27217-15.73027,19.4528-18.40047,32.115-5.17746,1.85969-6.57851,7.20646-9.73543,10.88894-1.71283,1.99807.343,3.93641,2.74881,3.48263A48.0257,48.0257,0,0,0,578.403,823.105c17.14484-6.90328,33.99775-14.39742,51.658-20.16581,21.301-6.95748,42.61556-14.53063,61.50071-27.09316C699.59939,770.49923,699.25825,768.91149,691.26485,762.33908ZM520.13872,827.1325c-4.93578-.1823-9.5909,1.25739-14.26388,2.42711-25.14921,6.29513-27.60613,11.917-15.29254,34.63529,5.752,10.61244,11.37821,12.0772,21.96084,6.65925,15.73586-8.05623,25.12649-23.358,39.00221-33.50844,1.83292-1.34079,2.2402-4.25814-.67232-4.29208C540.20364,832.92924,530.75974,826.94263,520.13872,827.1325Zm44.23933,32.3548-.40111.04308a82.58819,82.58819,0,0,1,1.25922,9.25744c.30939,11.52268,6.39872,21.8231,7.395,32.98875,2.30058,25.784.62556,22.81188,21.66065,10.71422,7.79187-4.48123,8.83192-9.94157,5.85553-17.80982-6.34456-16.77231-13.06191-33.16666-28.58094-43.9334-1.56475-1.0856-2.66737-3.544-4.92909-2.48921-1.95176.91029-2.14377,3.23349-2.23873,5.24577C564.3046,855.49443,564.37805,857.49256,564.37805,859.4873Zm-9.22964-13.4383c-7.38805,3.71506-12.27912,9.50966-14.20021,15.839-5.10674,16.825-11.992,33.16823-14.76178,50.68619-.82516,5.219-2.2764,10.349,5.08982,12.13532,14.06606,3.41093,15.67641,2.74445,18.35778-6.77727C556.20705,894.59116,553.5648,870.63107,555.14841,846.049Zm40.94764-85.3338c.07966-2.428-2.12554-2.37474-3.47289-3.139-5.51866-3.13062-11.85778-3.91747-17.71075-6.06474-19.43257-7.12907-37.84489-1.48434-56.25095,4.22233-1.36061.42193-3.40075,1.45932-2.80976,3.65667.47664,1.77249,2.06876,2.471,3.74268,3.14127,2.60088,1.04137,4.23013-.72564,6.29466-1.54507,12.50858-4.96488,24.73186-8.7566,38.68128-3.44524,7.00715,2.66811,14.62906,4.26535,21.72292,7.177C590.79672,766.56683,593.96806,764.88123,596.09605,760.7152Z" fill="#1c1b21" stroke="#1c1b21" stroke-miterlimit="10" stroke-width="5"/></g><path d="M398.35,1227.02445c-3.5369-37.4775-17.82852-199.61584-21.30874-237.09957-.10463-1.12686.4856-2.32921.75187-3.49635l2.57892-.83951c1.14107,3.97855,2.88188,7.88031,3.32744,11.94786,3.26848,29.83928,6.2736,59.71231,9.37249,89.57335.528,5.08724,11.85229,134.83027,12.40784,139.91422Z" fill="#1c1b21"/><path d="M724.7439,1252.32859c.03813-20.63728-.24067-191.241-.115-211.87752.0643-10.54816.26442-21.10066.69535-31.63723a12.84872,12.84872,0,0,1,3.78266-8.28272c4.15788,16.61994,2.7371,33.45645,2.95986,50.10419.23069,17.23658-.01326,184.45036-.1931,201.69328Z" fill="#1c1b21"/><path d="M361.81992,868.73342a349.87688,349.87688,0,0,1,21.264,86.35159l-3.15068,1.3097c-1.05934-1.8783-2.55186-3.61752-3.112-5.656-6.82854-24.85062-13.62913-49.71242-20.0615-74.68427-.57892-2.2475,1.45052-5.27972,2.26864-7.94756Q360.42413,868.42022,361.81992,868.73342Z" fill="#1c1b21"/><path d="M753.29078,879.22c.54261,2.71729,2.04465,5.69824,1.47724,8.11053-4.8826,20.75633-10.09849,41.422-15.36442,62.07022-.39916,1.56514-1.946,2.78842-4.29284,3.70793.20426-25.75233,7.781-49.59049,15.04718-73.50355Q751.72439,879.41249,753.29078,879.22Z" fill="#1c1b21"/></g></svg>