<svg id="Layer_1" data-name="Layer 1" xmlns="http://www.w3.org/2000/svg" xmlns:xlink="http://www.w3.org/1999/xlink" viewBox="0 0 1133.85827 1133.85827"><defs><clipPath id="clip-path"><circle cx="566.92913" cy="566.92913" r="566.92913" fill="none"/></clipPath></defs><g clip-path="url(#clip-path)"><path d="M244.694,1074.26641s-44.71642,75.38453-41.538,79.62247,673.30324,15.36255,673.30324,15.36255l-41.86081-76.4876Z" fill="#b7625d"/><path d="M408.51978,1072.30847v88.46707l305.83814,8.47589s-40.26046-72.045-42.90918-86.3481S408.51978,1072.30847,408.51978,1072.30847Z" fill="#668c97"/><path d="M640.17977,1110.2917c-17.93671-5.99031-36.73509-3.82558-55.029-4.68717-39.27756-1.84965-78.6174-2.55446-117.78864-6.25526-19.76772-1.86769-39.13693,4.1389-58.84233,2.1314,3.29411-3.32868,6.06875-6.14375,6.19177-11.94605.96122-45.33993,5.86818-90.42818,9.6589-135.58417,3.90866-46.56046,12.01575-93.06557,4.03712-139.84031-2.15018-12.60532,3.97444-16.86138,13.33954-21.393,7.04389,33.07048,4.05609,65.48533,4.72073,97.73065.32942,15.98342,3.88673,19.49631,19.36129,20.26416,55.894,2.77306,111.80738,1.86973,167.7142.77953,19.80822-.38618,20.28414-1.00335,17.49805-21.43456-3.68276-27.00686,2.83795-52.95669,5.44438-80.97583,11.68951,11.84524,12.15363,11.8914,11.52113,18.25516a483.27515,483.27515,0,0,0,.42658,102.2162c3.696,32.9977,1.75052,66.59179,4.38657,99.75663,1.77691,22.35656-.83584,45.4999,8.57059,66.93747q1.11784,7.01656,2.2455,14.04516Z" fill="#668c97"/><path d="M681.39567,1096.25255c-9.41147-21.44358-6.79872-44.58692-8.57563-66.94348-2.636-33.16484-.69054-66.75893-4.38657-99.75663a483.27515,483.27515,0,0,1-.42658-102.2162c.6325-6.36376.16838-6.40992-11.52113-18.25516-2.60643,28.01914-9.12714,53.969-5.44438,80.97583,2.78609,20.43121,2.31017,21.04838-17.49805,21.43456-55.90682,1.0902-111.82024,1.99353-167.7142-.77953-15.47456-.76785-19.03187-4.28074-19.36129-20.26416-.66464-32.24532,2.32316-64.66017-4.72073-97.73065-9.3651,4.53163-15.48972,8.78769-13.33954,21.393,7.97863,46.77474-.12846,93.27985-4.03712,139.84031-3.79072,45.156-8.69768,90.24424-9.6589,135.58417-.123,5.8023-2.89766,8.61737-6.19177,11.94605-6.40581,4.72051-11.53934,2.98335-15.8-3.11193a20.5772,20.5772,0,0,1-4.69845-12.97213c-.57949-12.98354-2.15995-25.92242-3.33866-38.88225q-.05152-5.80815-.10459-11.60983c.50417-22.28635,1.71334-44.574-.125-66.85771a23.26665,23.26665,0,0,0-.23624-14.03552c.00186-16.69478,3.20614-33.5734-2.86318-49.92258a34.67506,34.67506,0,0,0-.007-16.79974c1.83092-5.3911,4.6907-9.8051,11.21853-9.00806,6.76848.82657,7.21854,6.75578,8.7212,11.7851,2.46992,8.26673-.66018,17.5997,5.61413,25.42569,6.53565-30.347,4.933-60.80417,4.01108-92.70186-18.24916,12.48319-19.00155,14.14412-16.49373,33.511.52618,4.06355.24238,8.01064-4.00512,9.84357-3.26188,1.40758-8.29267,4.53039-10.16289.48753-4.61671-9.98-8.47077-2.751-11.33767.27122-3.89173,4.10273-6.57376,9.35339-9.77463,14.11176a20.82116,20.82116,0,0,0-7.91391,12.03695c-15.18744,15.44116-26.862,33.387-37.24111,52.25648l-5.31773,8.39771c-13.02221,22.46736-27.28667,44.26989-36.72668,68.65447q-3.13886,4.69244-6.27764,9.38487L237.329,1089.20282c-9.2719-2.62874-18.20743-4.7443-11.8372-18.28691,45.24315-96.18352,96.68889-188.32313,172.64663-264.34984,26.45288-26.47689,52.656-53.29087,86.05286-71.73837,7.11408-3.92963,35.49586-7.49277,57.65916-5.3406,4.74216.46065,43.19738-2.81087,49.30128-3.48993,21.2687-2.36615,29.967,10.14871,30.78118,13.835.76026,3.442,5.69229,3.31231,7.88314,5.96882,45.60354,55.29837,93.06523,109.14062,131.77942,169.80135,37.56873,58.86581,70.77006,119.99284,96.49324,185.02336,1.20435,3.04481,1.53324,6.4361,2.26989,9.666H840.079c-3.50563-15.38739-10.35767-29.42159-17.51587-43.33331a29.33948,29.33948,0,0,0-8.87181-17.95042c-7.87487-21.48957-19.117-41.21792-31.54-60.32964-2.53531-5.33874-3.1069-11.79527-8.74857-15.36316-7.85321-20.28061-20.5469-37.83167-33.02354-55.22134-7.21037-10.04953-9.96962-26.311-28.02578-25.59035-2.9458.11752-3.49643-5.42868-3.26267-8.76682,1.19966-17.13269-11.52647-25.39076-22.29923-38.449-2.97,16.99146-4.13469,30.746-2.22994,44.69127-.94671,3.929-1.4031,7.83979.30061,11.69481,3.35188,19.20846,3.97784,38.72263,5.92008,58.18012,5.97763-18.95059,7.09507-38.73395,13.7831-57.2285q2.55462-2.11719,5.10934-4.2344c8.94519,3.39775,11.87093,8.67609,9.658,18.92822-4.024,18.64293-6.01415,37.725-8.85306,56.62388a18.92669,18.92669,0,0,0-.55178,11.975c-5.065,20.76876-6.02123,41.95279-6.38557,63.1967-5.074,10.49868-.08444,21.5757-1.87,32.2982C699.71494,1093.16786,694.0456,1099.35422,681.39567,1096.25255ZM461.05,774.29944c-8.55556,5.04178.79942,9.34826.57649,14.048q2.64846,24.81069,5.29629,49.62748-.00378,4.2596-.00756,8.51921c-.24274,11.97585-.22881,23.96434-.82153,35.92286-.37367,7.53814,2.70555,10.10409,10.055,10.10533q72.72336.01221,145.4452.62946c7.87346.07959,9.93333-2.906,9.648-10.13752-.39688-10.057.01963-20.14593.08788-30.22119q.88683-5.9782,1.77364-11.95631,3.05739-23.35473,6.12683-46.7078c.57738-4.34432,1.2322-8.64867-3.50315-11.31871q-4.14878-4.36863-8.29753-8.73719c-6.61553-12.59868-13.90061-21.11506-28.70253-8.60888-4.36557,3.68851-11.5278,5.19256-17.54986,5.59847-26.636,1.79606-53.47629-.7607-77.70759-11.09878-14.57417-6.21776-23.207-2.9425-33.07429,5.57972C467.16734,768.33141,464.15881,771.37357,461.05,774.29944Zm48.39678-35.90253c.85128,4.85307,4.645,5.77012,8.4893,6.58758,18.8588,4.00979,37.80712,7.20025,57.144,8.0148,6.85332.28864,12.03325-2.89474,17.47224-5.87084,3.00844-1.64608,3.70566-4.38969,1.6202-7.27418-1.82112-2.51872-3.14779-6.71413-7.61715-3.25085-7.23654,5.60749-15.72195,3.3216-23.75371,3.63916-15.05062.595-29.75016-2.13608-44.34512-5.371C514.38223,733.9684,510.82037,733.10336,509.44675,738.39691Z" fill="#1d1616"/><path d="M822.56323,1066.95981c7.15811,13.9103,14.01015,27.9445,17.51578,43.33189H683.63613q-1.12514-7.02558-2.2455-14.04516c12.655,3.10768,18.32431-3.07868,20.28167-14.83363,1.78557-10.7225-3.204-21.79952,1.87036-32.29838q.59426.54346,1.1689,1.10735c-2.71939,9.90088-1.11417,15.1847,10.80971,10.89866,9.66734-3.47486,19.8961-2.75042,29.99392-3.28261C771.7699,1056.454,797.01609,1062.81835,822.56323,1066.95981Z" fill="#b7625d"/><path d="M237.329,1089.20282q14.16576-28.72872,28.33217-57.45983c2.63082,4.23926,7.85169,5.42983,11.29665,4.90861,9.1725-1.38777,17.9459,1.71735,26.99011.7889,27.535-2.827,53.66859,7.36367,80.734,9.077,1.17942,12.95674,2.75988,25.89562,3.33937,38.87916a20.5772,20.5772,0,0,0,4.69845,12.97213c-39.62435,2.979-79.21047,3.17047-118.52-3.16057-7.64076-1.23063-15.14375-1.71639-22.77449-2.19312C246.6054,1092.71393,240.58723,1095.64962,237.329,1089.20282Z" fill="#b7625d"/><path d="M633.66609,679.47007s.28336-.64927.27669-.63405S633.66609,679.47007,633.66609,679.47007Z" fill="#1d1616"/><path d="M635.72707,782.81024c4.73535,2.67,4.08053,6.97439,3.50315,11.31871q-3.10312,23.34864-6.12705,46.70842c-35.25047-1.69728-70.57206,2.594-105.83933-5.42647-19.46244-4.42612-40.29774-.756-60.34047,2.558q-2.64846-24.81067-5.29766-49.624c32.67577.76547,65.33147-.78157,98.04681,2.68657C585.228,793.74056,611.1777,792.89126,635.72707,782.81024Z" fill="#b7625d"/><path d="M631.3298,852.79306c-.0683,10.07526-.48481,20.16423-.08793,30.22119.28535,7.23155-1.77452,10.21711-9.648,10.13752q-72.71884-.73593-145.4452-.62946c-7.34948-.00124-10.4287-2.56719-10.055-10.10533.59272-11.95852.57879-23.947.82148-35.92543,4.64567.65847,9.00364,1.62176,14.03685,1.09126,15.76725-1.66173,31.79621-2.69772,47.511-.125C562.59565,853.0458,596.63363,858.7602,631.3298,852.79306Z" fill="#b7625d"/><path d="M271.93817,1022.36059c9.44-24.38458,23.70447-46.18711,36.73-68.66013,2.05793,2.311,4.72736,2.8637,7.69924,2.97954,23.17253.90334,46.13609,3.11362,68.08521,11.3685,1.8388,22.282.62963,44.56968.12647,66.86036-17.38055-3.55957-34.86534-6.40939-52.39664-9.17361C312.03764,1022.55894,291.81948,1026.31369,271.93817,1022.36059Z" fill="#b7625d"/><path d="M782.15126,988.67939c12.42306,19.11066,23.6652,38.839,31.54361,60.333-3.33252.11231-6.78263.83171-9.987.23382-33.08048-6.172-66.07909-7.82776-98.99627.97567q-.57477-.5639-1.1689-1.10735c.364-21.24373,1.32026-42.42776,6.38407-63.2,7.945-1.46364,15.82808-4.09468,24.02963-2.18277C749.82149,987.43038,765.93107,988.5456,782.15126,988.67939Z" fill="#b7625d"/><path d="M710.47966,973.943c2.83891-18.89886,4.82907-37.981,8.85306-56.62388,2.213-10.25213-.71278-15.53047-9.65991-18.92671-6.02087-9.81713-16.30754-6.90453-25.11012-8.41911-1.90582-13.93966-.74116-27.69424,2.22887-44.6857,10.77276,13.05826,23.49889,21.31633,22.29923,38.449-.23376,3.33814.31687,8.88434,3.26267,8.76682,18.05616-.72064,20.81541,15.54082,28.02578,25.59035,12.47664,17.38967,25.17033,34.94073,33.028,55.22585C752.46236,976.38837,731.42636,970.62347,710.47966,973.943Z" fill="#b7625d"/><path d="M313.98262,945.30841c10.37906-18.8695,22.05363-36.81532,37.24125-52.25736,11.312.216,21.06027,4.70132,30.1295,11.0405,6.06963,16.34635,2.86535,33.225,2.86464,49.92275C361.48158,945.67134,337.93715,943.83531,313.98262,945.30841Z" fill="#b7625d"/><path d="M635.72707,782.81024c-24.54937,10.081-50.49905,10.93032-76.05455,8.2212-32.71534-3.46814-65.371-1.9211-98.04681-2.68657.22368-4.69717-9.1313-9.00365-.5795-14.04464,3.57459,3.09858,7.86864,3.18374,12.2351,2.8607,51.3276-3.79675,102.96951,8.10915,154.14823-3.08788Q631.5783,778.4417,635.72707,782.81024Z" fill="#e9aba8"/><path d="M627.42954,774.07305c-51.17872,11.197-102.82063-.70887-154.14823,3.08788-4.36646.323-8.66051.23788-12.23514-2.8607,3.11264-2.92666,6.12117-5.96882,9.3491-8.75665,9.86733-8.52222,18.50012-11.79748,33.07429-5.57972,24.2313,10.33808,51.07156,12.89484,77.70759,11.09878,6.02206-.40591,13.18429-1.91,17.54986-5.59847C613.52893,752.958,620.814,761.47437,627.42954,774.07305Z" fill="#b7625d"/><path d="M631.3298,852.79306c-34.69617,5.96714-68.73415.25274-102.86678-5.3353-15.71482-2.57267-31.74378-1.53668-47.511.125-5.03321.5305-9.39118-.43279-14.0368-1.09126q.00384-4.25576.00787-8.51965c20.043-3.317,40.87834-6.98712,60.34078-2.561,35.26727,8.02045,70.58886,3.72919,105.83933,5.42647Q632.21668,846.81465,631.3298,852.79306Z" fill="#e9aba8"/><path d="M359.1376,881.015c3.20087-4.75837,5.8829-10.009,9.77463-14.11176,2.8669-3.02226,6.721-10.25124,11.33767-.27122,1.87022,4.04286,6.901.92005,10.16289-.48753,4.2475-1.83293,4.5313-5.78,4.00512-9.84357-2.50782-19.36693-1.75543-21.02786,16.49373-33.511.92187,31.89769,2.52457,62.35482-4.01108,92.70186-6.27431-7.826-3.14421-17.159-5.61413-25.42569-1.50266-5.02932-1.95272-10.95853-8.7212-11.7851-6.52783-.797-9.38761,3.617-11.21778,9.01186C374.11736,884.5918,365.83743,885.59815,359.1376,881.015Z" fill="#b7625d"/><path d="M704.71156,1050.22188c32.91718-8.80343,65.91579-7.14763,98.99627-.97567,3.20441.59789,6.65452-.12151,9.987-.23382a29.3309,29.3309,0,0,1,8.86827,17.946c-25.54705-4.14-50.79324-10.50442-77.048-9.12046-10.09782.53219-20.32658-.19225-29.99392,3.28261C703.59739,1065.40658,701.99217,1060.12276,704.71156,1050.22188Z" fill="#e9aba8"/><path d="M271.93817,1022.36059c19.88131,3.9531,40.09947.19835,60.24432,3.37466,17.5313,2.76422,35.01609,5.614,52.3966,9.17361q.05126,5.79687.10362,11.6055c-27.06615-1.71019-53.19978-11.90086-80.73474-9.07386-9.04421.92845-17.81761-2.17667-26.99011-.7889-3.445.52122-8.66583-.66935-11.29665-4.90861Q268.799,1027.05426,271.93817,1022.36059Z" fill="#e9aba8"/><path d="M509.44675,738.39691c1.37362-5.29355,4.93548-4.42851,9.00973-3.52535,14.595,3.23494,29.2945,5.966,44.34512,5.371,8.03176-.31756,16.51717,1.96833,23.75371-3.63916,4.46936-3.46328,5.796.73213,7.61715,3.25085,2.08546,2.88449,1.38824,5.6281-1.6202,7.27418-5.439,2.9761-10.61892,6.15948-17.47224,5.87084-19.33685-.81455-38.28517-4.005-57.144-8.0148C514.09175,744.167,510.298,743.25,509.44675,738.39691Z" fill="#b7625d"/><path d="M313.98258,945.30841c23.95457-1.4731,47.499.36293,70.23543,8.70589a23.26532,23.26532,0,0,1,.23509,14.03252c-21.94956-8.2532-44.91312-10.46348-68.08565-11.36682-2.97188-.11584-5.64131-.66854-7.69924-2.97954Q311.322,949.51009,313.98258,945.30841Z" fill="#e9aba8"/><path d="M710.47966,973.943c20.9467-3.31957,41.9827,2.44533,62.92754-.62336,5.63725,3.56338,6.20884,10.01991,8.74415,15.35865-16.22028-.13273-32.32986-1.24795-48.195-4.94654-8.20155-1.91191-16.08465.71913-24.02963,2.18277A18.92529,18.92529,0,0,1,710.47966,973.943Z" fill="#e9aba8"/><path d="M704.56541,902.62534c-6.688,18.49455-7.80547,38.27791-13.7831,57.2285-1.94224-19.45749-2.5682-38.97166-5.92309-58.18533Q694.70931,902.14165,704.56541,902.62534Z" fill="#b7625d"/><path d="M359.1376,881.015c6.69983,4.58317,14.97976,3.57682,22.20985,6.2778a34.66875,34.66875,0,0,1,.00623,16.79594c-9.06954-6.33635-18.81778-10.82172-30.12981-11.03767A20.82072,20.82072,0,0,1,359.1376,881.015Z" fill="#e9aba8"/><path d="M704.56541,902.62534q-9.8546-.48111-19.70619-.95683c-1.7007-3.84981-1.24431-7.76064-.2976-11.6896,8.80365,1.509,19.09032-1.40359,25.11119,8.41354Q707.121,900.50739,704.56541,902.62534Z" fill="#e9aba8"/></g></svg>