<svg id="Layer_1" data-name="Layer 1" xmlns="http://www.w3.org/2000/svg" xmlns:xlink="http://www.w3.org/1999/xlink" viewBox="0 0 1133.85827 1133.85827"><defs><clipPath id="clip-path"><circle cx="-4048.50394" cy="566.92913" r="566.92913" fill="none"/></clipPath><clipPath id="clip-path-2"><circle cx="563.73821" cy="560.42907" r="566.92913" fill="none"/></clipPath><clipPath id="clip-path-3"><circle cx="566.92913" cy="566.92913" r="566.92913" fill="none"/></clipPath></defs><g clip-path="url(#clip-path-2)"><g clip-path="url(#clip-path-3)"><path d="M622.73106,905.22246q-3.20832,1.222-6.417,2.44114c-24.15567-2.21408-48.02892,3.25292-72.579,1.118-16.07224-1.39777-33.51262,1.25485-50.41047,1.77072-21.11477.64455-41.38317-5.78539-62.31429-5.32972-8.69631.18932-112.67266,3.92991-117.86933,9.99269,9.7-11.31673,16.36884-33.74809,25.05846-49.71276,3.74806-.48057,21.37357,11.31907,25.12163,10.83842l2.69619.80726c16.25331,1.17554,32.53012,1.9321,48.79347.58814,15.37746-1.27072,30.26111,3.46375,46.14535,1.35145,12.91205-1.71713,27.75837-7.39347,40.7443,2.23824a2.41889,2.41889,0,0,0,2.22986-.33113c10.70847-9.30688,23.8186-3.25,35.36269-4.16063,32.86155-2.59244,66.02361-1.27205,99.0637-1.74752,21.11822-.30393,42.23933-1.69295,63.34064-1.373A306.95437,306.95437,0,0,0,737.841,872.1615c7.55655-.7791,34.18932-4.80379,40.70027-1.40476-5.537,12.5662,14.47742,26.31394,13.36276,26.81394-9.10663,6.18361-27.63453-8.72849-34.67962.57706-4.72611,6.24262-39.03162,3.32877-45.71191,2.60564-5.16988-.55953-10.50258-2.5851-15.43437-1.82587-15.74927,2.42424-31.19891,5.03372-47.45933,4.084C640.44526,902.5341,630.92237,900.18466,622.73106,905.22246Z" fill="#84a2a9"/><path d="M468.19572,734.44983c49.401-30.92566,16.74412-4.17094,53.14251,5.06938,19.6729,4.99428,38.14539.19526,56.75326-5.87931,13.18227-4.3034,23.92033-18.02814,38.75189-16.71443,3.01358.267,6.0554,4.97783,8.27695,8.1968,2.686,3.892,5.85846,6.38227,10.5309,6.94373q-2.4278,2.38708-4.85565,4.77434c-1.64173,5.23491-7.85973,8.20948-7.20428,14.57908-4.83607,4.5971-8.84809,10.18805-15.15988,13.0277-19.99188,8.99413-40.37072,15.36366-62.55693,8.76915q.25758-2.12223.514-4.24432,6.01737-.69106,12.03709-1.38228c6.30193-1.4023,12.81377-2.20689,18.86242-4.33039,12.87175-4.5189,26.29818-7.79777,37.48652-16.36936,10.2963-7.88828.9593-13.51688-2.60584-18.68107-4.94129-7.15744-8.55826.26983-10.94493,3.26723-6.56307,8.24261-14.74971,13.123-24.54093,16.83118-12.39366,4.69392-25.3348,5.35492-38.05685,7.67338-1.23349-2.74507-3.89235-2.39051-6.15764-2.73432-16.61877-2.52179-30.9549-8.67886-38.72906-24.92124-5.06114,4.742-6.098,12.48486-13.81273,13.40747q-3.34656.70163-6.69338,1.40326-1.35313.65082-2.70628,1.30148" fill="#5a493a" stroke="#5a493a" stroke-miterlimit="10" stroke-width="6"/><path d="M336.36741,870.69377q1.118-1.181,2.23615-2.362c2.51932,7.9782,1.93178,2.09635,9.20854,2.1492,10.50965.07628,21.03692.42476,31.52751-.02379,57.09907-2.44129,114.33127,4.57064,171.44614-4.20541,21.32568-3.27686,43.75953-2.29681,65.35332-.04692,21.53455,2.24366,41.94216-5.52794,64.12533-1.56857,25.07,4.4745,51.56277,1.28206,77.42468.789,5.78721-.11038,13.85617.64536,14.10886-9.169,4.90525,1.88547,3.02463,7.63385,6.137,11.26721-6.73079,5.7011-11.45587,5.67606-19.44261,8.17487-6.5039-3.39807-13.09485-4.31586-20.6514-3.53676a306.95437,306.95437,0,0,1-36.14375,1.55226c-21.10131-.31994-42.22242,1.06908-63.34064,1.373-33.04009.47547-66.20215-.84492-99.0637,1.74752-11.54409.91067-24.65422-5.14625-35.36269,4.16063a2.41889,2.41889,0,0,1-2.22986.33113c-12.98593-9.63171-27.83225-3.95537-40.7443-2.23824-15.88424,2.1123-30.76789-2.62217-46.14535-1.35145-16.26335,1.344-32.54016.5874-48.79143-.584q-1.34714-.40162-2.69823-.81141-5.62209.721-11.22987,1.44121c-.81879.06524-1.65189.13106-2.49226.19659-4.50775-4.074-9.8581-2.25922-14.96117-2.15767C330.80936,872.42243,335.55644,875.98412,336.36741,870.69377Z" fill="#e9e7df"/><path d="M334.50745,879.9772q.06283-2.08187.12794-4.15989c5.1054-.09777,10.45575-1.9126,14.9635,2.16145q-1.597,1.41816-3.20909,2.83869Q340.44812,880.40038,334.50745,879.9772Z" fill="#b7bdcd"/><path d="M363.321,876.341q1.35008.40774,2.69823.81141Q364.66811,876.74253,363.321,876.341Z" fill="#b7bdcd"/><path d="M770.62718,854.99318a1.59466,1.59466,0,0,1,1.16972,1.26249c-.25165,9.81488-8.32061,9.05914-14.10782,9.16952-25.86191.4931-52.35472,3.68554-77.42468-.789-22.18317-3.95937-42.59078,3.81223-64.12533,1.56857-21.59379-2.24989-44.02764-3.22994-65.35332.04692-57.11487,8.77605-114.34707,1.76412-171.44614,4.20541-10.49059.44855-21.01786.10007-31.52751.02379-7.27676-.05285-5.07254,2.39356-7.59186-5.58463.73189-.94188,3.71519-5.52586,4.44585-6.4667,16.28745,2.63165,21.80482,4.24853,38.36972,2.688l9.36729-.1063a139.02512,139.02512,0,0,0,56.1955-.34285q6.02731.00934,12.05462.01883c6.3783-.39918,12.752-1.03106,19.13572-1.15633,24.27159-.47636,48.56606-1.53017,72.81256-.88607,14.65821.3894,28.85442-3.75047,43.41038-2.63839,6.40477.4894,13.02308,2.98895,19.11318,1.97828,29.75581-4.9381,59.69891-1.07673,89.34142-.69615C726.69785,857.57405,748.58963,856.01927,770.62718,854.99318Z" fill="#f9eec9"/><path d="M383.03581,861.11763c-16.5649,1.56049-22.08227-.05639-38.36972-2.688,6.54624-8.06582,8.61158-15.17559,15.15633-23.2397,8.96524,6.05922,11.6631-1.98467,20.52687-2.189,36.09455-.83158,71.97516-6.3762,108.215-6.22579,11.06731.046,22.23252-.94477,32.891-4.63676,36.34646-1.348,72.62048.36842,108.93113,1.83587,13.46744.54433,27.04031,1.09422,40.63038.88317,18.93478-.294,38.20647-4.5716,57.01676,1.54959-3.46393,3.963-8.33581,5.00029-13.06185,5.10882-15.67823.36034-31.38472.71979-47.04968.18354-36.71993-1.25708-73.42266.94181-110.24788-1.95011-17.593-1.38161-36.237,2.79118-54.33515,1.644-19.07087-1.20889-37.47147,3.708-56.56262,3.47294-25.74958-.317-51.57449,4.08339-77.32554,6.8461a71.48609,71.48609,0,0,1-10.716-.13669c-3.03292-.11765-5.83251.87064-6.33537,4.25322-.429,2.88628,1.83066,4.28338,4.29459,4.94847,7.15627,1.93172,13.41416,7.23431,21.63942,5.28628C382.01089,855.19273,384.95922,856.19243,383.03581,861.11763Z" fill="#dbcb92"/><path d="M546.38973,768.9718q-.2577,2.12223-.516,4.24417c.5612,2.57984-3.47321,6.14166,1.80366,7.75655,2.51606.77013,4.17136,3.02068,3.17847,5.42216-1.08363,2.62112-4.11078,1.34129-6.29688,1.4659-6.12265.34892-12.28815-3.09629-18.38833.20245q-22.8486.08316-45.70008.16856c-14.83371-.09377-29.92649-1.91682-44.42106.25353-12.08343,1.80918-23.37908,7.87577-28.73721-2.8059,1.74172-1.45819,9.37066-9.05,11.11464-10.50839,6.88442,2.75285,11.47345-2.503,18.40669-2.04685,4.30275.2831,4.35454-3.5805,4.49908-6.76789l9.52234-.36005q2.41821-.84217,4.83648-1.68428,16.46115-.57242,32.9223-1.145c9.06586,3.6865,18.6253,4.95084,28.27765,5.75907.47075,4.38858,3.81442,3.67546,6.88656,4.489C532.21317,775.64874,538.33967,767.61569,546.38973,768.9718Z" fill="#dfc77f"/><path d="M526.16919,788.06414c6.10159-3.29985,12.26709.14536,18.38974-.20356,2.1861-.12461,5.21325,1.15522,6.29688-1.4659.99289-2.40148-.66241-4.652-3.17847-5.42216-5.27687-1.61489-1.24246-5.17671-1.80366-7.75655,22.187,6.59481,42.56586.22528,62.55774-8.76885,6.31179-2.83965,10.32381-8.4306,15.15832-13.02733,11.30439,2.41682,22.47,7.65758,34.19216,1.69844,5.7233,3.29673,12.17693,5.41689,16.82883,10.44179-13.66355.042-27.34527.51638-40.986-.02921-8.96717-.35863-8.29964,6.61793-9.068,11.3369-.93594,5.74833,3.12272,8.39006,9.04947,8.26619,9.64145-.20148,19.37847-.87161,28.91419.15315,12.7735,1.37279,17.96414-3.85,17.24292-16.14134,7.7385,5.52594,16.19369,10.14617,22.3477,17.67566-31.28721,3.50889-62.70521,3.08547-94.10935,3.279-3.95664.02439-9.29452-2.39385-11.17493,4.00318q-35.32518.07695-70.65236.1444Zm89.96247-9.92015c-3.45185-1.36783-7.09581-4.51371-9.84312.978-.758,1.5152-.84423,3.38035,1.09275,3.64017,3.79707.50919,8.125,1.35337,8.916-4.45158q.24468-.58021.48936-1.16057Q616.45912,777.647,616.13166,778.144Z" fill="#dbcb92"/><path d="M366.28912,821.65023c6.2557-6.49391,12.13346-10.27983,18.38968-16.773,16.62311.53907,30.3595-6.36692,46.80852-7.50918,10.73876-1.43654,21.733-1.02134,32.19812-4.441l9.03094-.0258c3.98988,5.013,11.12124-1.24025,14.99446,4.1865-.67665,5.678-5.39843,6.7613-8.89514,5.17916-8.93517-4.04306-17.3184.39474-25.92693.29956-12.756-.14107-25.51479-.06931-38.272-.00615-2.72782.01356-6.08183-.51891-6.8221,3.24314a5.59054,5.59054,0,0,0,1.539,4.28353c5.27835,5.1931,25.35964,7.04625,33.29344,3.52075,2.52207-1.12068,5.4893-2.38813,8.06119-2.06478,18.6753,2.34751,37.30157,5.08479,55.94336,7.69888a81.741,81.741,0,0,1-32.17807,1.11356c-6.90288-1.1805-14.29661-.3444-21.52372.03721C423.17126,821.96394,396.16412,826.53444,366.28912,821.65023Z" fill="#859f9a"/><path d="M366.28912,821.65023c29.875,4.88421,56.88214.31371,86.64077-1.2576,7.22711-.38161,14.62084-1.21771,21.52372-.03721a81.78583,81.78583,0,0,0,32.18059-1.11193q4.74991.31023,9.49464.61727,2.66356,1.1394,5.32714,2.27872c-10.65917,3.69088-21.82438,4.68161-32.89169,4.63565-36.23984-.15041-72.12045,5.39421-108.215,6.22579-8.86377.2043-11.56163,7.03568-20.52687.97646A28.6521,28.6521,0,0,1,366.28912,821.65023Z" fill="#e9e9cf"/><path d="M538.626,755.98064c12.722-2.31846,25.66319-2.97946,38.05685-7.67338,9.79122-3.70815,17.97786-8.58857,24.54093-16.83118,2.38667-2.9974,6.00364-10.42467,10.94493-3.26723,3.56514,5.16419,12.90214,10.79279,2.60584,18.68107-11.18834,8.57159-24.61477,11.85046-37.48652,16.36936-6.04865,2.1235-12.56049,2.92809-18.86271,4.32979-2.75548-11.68923-12.20637-8.28546-19.90654-8.82778Z" fill="#e9e9cf"/><path d="M538.626,755.98064q-.05361,1.39036-.10788,2.78124c-5.99942,9.99257-15.95932,2.36367-23.54612,5.29117-13.25508-4.97108-26.80111-9.48553-35.04558-22.32035,7.71489-.92276,8.75174-8.66567,13.81288-13.40762,7.77416,16.24238,22.11029,22.39945,38.72906,24.92124C534.73367,753.59013,537.39253,753.23557,538.626,755.98064Z" fill="#e9e7df"/><path d="M488.61378,763.16677q-16.46115.57253-32.91882,1.13936a4.23675,4.23675,0,0,0-4.84,1.68991q-4.76115.18-9.52282.35753c-3.56432-3.11683-9.55065,6.30733-12.04758-2.32913q9.46479-5.40756,18.92863-10.81452c5.12442.06924,10.38394-.57405,15.34624.36034,9.23472,1.73885,8.38383-3.25959,6.96746-9.133q1.35313-.6507,2.706-1.30111C475.06991,752.33832,482.64462,757.13631,488.61378,763.16677Z" fill="#e9e9cf"/><path d="M488.61378,763.16669c-5.96916-6.03038-13.54387-10.82837-15.38083-20.03058q3.34711-.70208,6.69364-1.40356c8.24432,12.835,21.79035,17.34942,35.04943,22.31887-.07963,1.90608,4.13681,2.12906,1.91541,4.87442C507.23908,768.11761,497.67964,766.85327,488.61378,763.16669Z" fill="#5c534d"/><path d="M472.71638,792.90127q-4.51547.0129-9.035.02506c-10.72008-5.899-21.468-.53544-32.20194-.0917-4.40255-.088-8.86036.23-13.19447-.36042-6.297-.85782-11.58468,5.67561-16.02485-2.34914,1.93157-5.28768,5.6682-2.45693,10.10422-5.05211,5.35628,10.68034,11.60167,5.22134,23.6851,3.41216,14.49457-2.17035,29.58735-.3473,44.41839-.25612Q476.58939,790.56239,472.71638,792.90127Z" fill="#dbcb92"/><path d="M516.89143,768.92584c2.2214-2.74536-1.995-2.96834-1.91541-4.87442,7.5828-2.92587,17.5427,4.703,23.54212-5.28954,7.70083.54173,17.15172-2.862,19.9072,8.82719q-6.0187.69207-12.0368,1.38288c-8.04887-1.35626-14.17537,6.67679-22.61055,4.44291C520.70585,772.6013,517.36218,773.31442,516.89143,768.92584Z" fill="#f9eec9"/><path d="M657.7819,753.11823c-11.72212,5.95914-22.88777.71838-34.19216-1.69844-.65389-6.37,5.56411-9.34454,7.20547-14.57915q12.04327,6.27242,24.08745,12.54394Z" fill="#859f9a"/><path d="M402.26014,790.12507c4.44017,8.02475,9.72781,1.49132,16.02485,2.34914,4.33411.59037,8.79192.27243,13.19543.36034q.00439,2.26657.0069,4.5335c-16.449,1.14226-29.37708,9.05867-46.00018,8.5196C390.79759,800.32732,393.97459,792.15294,402.26014,790.12507Z" fill="#e9e7df"/><path d="M654.88266,749.38458q-12.04395-6.27176-24.08738-12.54387,2.42835-2.38776,4.856-4.77471c11.30275,1.31719,17.61374,7.61553,26.89358,14.40885C658.67359,748.606,655.77285,741.17236,654.88266,749.38458Z" fill="#5c534d"/><path d="M430.95612,765.47078c2.49693,8.63646,6.81174-2.234,10.37606.88279-.14406,3.18991-.19585,7.05351-4.4986,6.77041-6.93324-.45619-11.52224,4.7997-18.40669,2.04685C421.91711,770.84037,425.60781,767.09005,430.95612,765.47078Z" fill="#dbcb92"/><path d="M470.52693,744.43729c1.41637,5.87338,2.26726,10.87182-6.96746,9.133-4.9623-.93439-10.22182-.2911-15.34624-.36034Q459.3711,748.823,470.52693,744.43729Z" fill="#859f9a"/><path d="M383.03581,861.11763c1.92341-4.9252-1.02492-5.9249-4.70228-5.054-8.22526,1.948-14.48315-3.35456-21.63942-5.28628-2.46393-.66509-4.72363-2.06219-4.29459-4.94847.50286-3.38258,3.30245-4.37087,6.33537-4.25322a71.48609,71.48609,0,0,0,10.716.13669c25.75105-2.76271,51.576-7.16307,77.32554-6.8461,19.09115.23506,37.49175-4.68183,56.56262-3.47294,18.09812,1.14715,36.74211-3.02564,54.33515-1.644,36.82522,2.89192,73.528.693,110.24788,1.95011,15.665.53625,31.37145.1768,47.04968-.18354,4.726-.10853,9.59792-1.14581,13.06163-5.10511q2.3596.05215,4.71967.09674c-1.16365,3.22372-1.0852,5.86026,3.375,5.11741,3.94729-.6573,7.8082-1.83261,11.70729-2.77931l-.28524-.00326q1.84633,1.28938,3.69015,2.57546,2.93227,3.41985,5.86395,6.84409c.88367,10.17753-3.04545,13.32526-13.809,13.17078-49.76955-.71423-99.55513-.32736-149.33491-.32839-40.80395-.00089-81.60857.131-122.4111-.10467-7.19576-.04152-12.0709,1.02824-10.896,9.68775q-6.0273-.00945-12.05492-.01712c-1.32-2.61453,1.934-9.874-3.76114-7.47286-13.41157,5.65463-26.90755,1.33691-40.25572,2.62705-4.874.47109-9.69461-.32142-12.17834,5.187Z" fill="#dfc77f"/><path d="M460.65322,860.68731c-1.17494-8.65951,3.7002-9.72927,10.896-9.68775,40.80253.23565,81.60715.10378,122.4111.10467,49.77978.001,99.56536-.38584,149.33491.32839,10.76357.15448,14.69269-2.99325,13.809-13.17078,6.87812,3.66,8.6826,11.42089,13.52194,16.73171-22.03652,1.02572-43.9283,2.5805-66.15967,2.2951-29.64251-.38058-59.58561-4.24195-89.34142.69615-6.0901,1.01067-12.70841-1.48888-19.11318-1.97828-14.556-1.11208-28.75217,3.02779-43.41038,2.63839-24.2465-.6441-48.541.40971-72.81256.88607C473.40526,859.65625,467.03152,860.28813,460.65322,860.68731Z" fill="#dbcb92"/><path d="M732.753,826.50745q-2.36-.04648-4.71967-.09674c-18.81007-6.1249-38.08176-1.84729-57.01654-1.5533-13.59007.21105-27.16294-.33884-40.63038-.88317-36.31065-1.46745-72.58467-3.18383-108.93113-1.83587q-2.66258-1.13763-5.324-2.28006c12.47062-2.535,24.84448-6.08064,37.43937-7.25321a67.274,67.274,0,0,1,26.88556,3.06663c11.08521,3.49066,24.45462,4.20333,36.39332-1.59792,6.08431-2.95655,12.65873-3.43824,18.35444.42847,3.37919,2.29414,6.64419,2.55463,10.24811,2.56078,19.40946.03343,38.82026.17924,58.22786-.005,13.13423-.12461,15.74593-4.59058,9.89214-16.03734,1.96886-.7705,4.20019-1.17391,5.00282-3.57546,7.90377,7.48494,15.668,15.09931,22.1593,23.89463C737.53467,822.23207,733.1764,821.3317,732.753,826.50745Z" fill="#859f9a"/><path d="M679.76325,767.14571c.72122,12.29131-4.46942,17.51413-17.24292,16.14134-9.53572-1.02476-19.27274-.35463-28.91419-.15315-5.92675.12387-9.98541-2.51786-9.04947-8.26619.76837-4.719.10084-11.69553,9.068-11.3369,13.64078.54559,27.3225.07124,40.986.02921A6.70245,6.70245,0,0,1,679.76325,767.14571Z" fill="#dfc77f"/><path d="M718.575,797.44522c-.80263,2.40155-3.034,2.805-5.004,3.57235q-2.54367-.45078-5.08483-.89526c-19.87413-5.72912-40.27462-4.804-60.603-4.79161q-2.60618.15244-5.21243.30466c-8.83534-2.03268-17.65014-4.72349-26.67054-.83276q-2.11414-.16467-4.2283-.32928c-4.53208-3.62231-10.11064-.66078-14.94612-2.37442,1.8813-6.39236,7.21918-3.97412,11.17582-3.99851,31.40414-.19355,62.82214.22987,94.10935-3.279Q710.343,791.13226,718.575,797.44522Z" fill="#e9e9cf"/><path d="M732.753,826.50745c.42337-5.17575,4.78164-4.27538,7.98125-5.1676,2.5704,2.30971,5.85031,3.95063,7.09862,7.50866-3.89664.94374-7.75755,2.11905-11.70484,2.77635C731.66783,832.36771,731.58938,829.73117,732.753,826.50745Z" fill="#dbcb92"/><path d="M751.24026,831.41775q-1.84445-1.28685-3.69015-2.57546Q749.394,830.12835,751.24026,831.41775Z" fill="#dbcb92"/><path d="M307.65251,860.83186c.31241-1.75759.2359-3.84462,2.92063-3.67612a1.10437,1.10437,0,0,1,.7561.75678c.1573,2.678-1.91688,2.6149-3.68429,2.91341Z" fill="#fefdfe"/><path d="M392.4031,861.01133c2.48373-5.50837,7.30434-4.71586,12.17834-5.187,13.34817-1.29014,26.84415,3.02758,40.25572-2.62705,5.69515-2.40118,2.44113,4.85833,3.76114,7.47286A139.054,139.054,0,0,1,392.4031,861.01133Z" fill="#dbcb92"/><path d="M472.71638,792.90127q3.87435-2.33751,7.75147-4.67227,22.85472-.081,45.70275-.166.00043,2.09353.00437,4.18939-17.01764,1.39225-34.03682,2.77568l-4.4242,2.05307C483.83762,791.661,476.70626,797.91431,472.71638,792.90127Z" fill="#e9e9cf"/><path d="M450.855,765.996a4.23675,4.23675,0,0,1,4.84-1.68991Q453.27152,765.15665,450.855,765.996Z" fill="#dbcb92"/><path d="M492.13815,795.0281q17.01874-1.38568,34.03682-2.77568,35.32563-.0765,70.6517-.14885c4.83459,1.709,10.41315-1.25256,14.9433,2.37457-2.34574,3.8676-6.21733,2.9908-9.76149,3.16419-36.00346,1.7616-72.163-3.2997-108.10541,2.452C491.64359,800.45589,492.62932,796.81705,492.13815,795.0281Z" fill="#859f9a"/><path d="M616.29938,778.312c-.79314,5.80347-5.121,4.95929-8.91809,4.4501-1.937-.25982-1.85074-2.125-1.09275-3.64017,2.74731-5.49169,6.39127-2.34581,9.84312-.978Z" fill="#dfc77f"/><path d="M616.13166,778.144q.32742-.497.655-.994-.24468.58032-.48832,1.16131Z" fill="#dfc77f"/><path d="M492.13815,795.0281c.49117,1.789-.49456,5.42779,1.76492,5.06627,35.94241-5.75174,72.10195-.69044,108.10541-2.452,3.54416-.17339,7.41575.70341,9.76149-3.16412q2.117.15735,4.23134.32706c8.74377,5.00414,17.67764,3.84944,26.66943.83009q2.60617-.15222,5.21147-.30511c1.77845.76983,3.59094,2.27561,5.33233,2.19755,19.27807-.86493,36.54739,7.11845,55.2716,12.29265v-9.69814q2.54178.44611,5.08483.89526c5.855,11.44987,3.24328,15.91584-9.89095,16.04045-19.4076.18428-38.8184.03847-58.22786.005-3.60392-.00615-6.86892-.26664-10.24811-2.56078-5.69571-3.86671-12.27013-3.385-18.35444-.42847-11.9387,5.80125-25.30811,5.08858-36.39332,1.59792a67.274,67.274,0,0,0-26.88556-3.06663c-12.59489,1.17257-24.96875,4.71823-37.43937,7.25321q-4.74981-.30423-9.49716-.61482c-18.64431-2.61572-37.27058-5.353-55.94588-7.70051-2.57189-.32335-5.53912.9441-8.06119,2.06478-7.9338,3.5255-28.01509,1.67235-33.29344-3.52075a5.59054,5.59054,0,0,1-1.539-4.28353c.74027-3.76205,4.09428-3.22958,6.8221-3.24314,12.75719-.06316,25.516-.13492,38.272.00615,8.60853.09518,16.99176-4.34262,25.92693-.29956,3.49671,1.58214,8.21849.49882,8.89514-5.17923Q489.92759,796.05138,492.13815,795.0281Z" fill="#84a2a9"/><path d="M431.48732,797.36805q-.003-2.26679-.0069-4.53357c10.733-.44359,21.4809-5.80711,32.201.09185C453.22035,796.34671,442.22608,795.93151,431.48732,797.36805Z" fill="#e9e9cf"/><path d="M708.48614,800.12231v9.69814c-18.72421-5.1742-35.99353-13.15758-55.2716-12.29265-1.74139.07806-3.55388-1.42772-5.33233-2.19755C668.21152,795.31832,688.612,794.39319,708.48614,800.12231Z" fill="#859f9a"/><path d="M642.67074,795.63536c-8.99179,3.01935-17.92566,4.174-26.66943-.83016C625.0206,790.91187,633.8354,793.60268,642.67074,795.63536Z" fill="#859f9a"/><path d="M577.455,982.73728q-3.20832,1.222-6.417,2.44114c-24.15567-2.21408-48.02892,3.25292-72.579,1.118-16.07224-1.39777-33.51262,1.25486-50.41047,1.77072-21.11477.64455-41.38317-5.78539-62.31429-5.32972-8.69631.18933-25.51046-1.58784-33.38731-2.89844-19.37987-3.22456-58.50432,12.59856-74.28231-.191-.48165-.39041,13.95707-24.83347,14.572-24.91232,3.15834-.405,22.10074-.45576,25.25908-.86079a.70861.70861,0,0,1,.29341.024l2.4765.74149a.71828.71828,0,0,0,.15419.0283c16.22717,1.17229,32.4777,1.92424,48.71482.58245,15.37746-1.27071,30.26111,3.46375,46.14535,1.35145,12.91205-1.71713,27.75837-7.39347,40.7443,2.23824a2.41887,2.41887,0,0,0,2.22985-.33113c10.70848-9.30688,23.81861-3.25,35.3627-4.16063,32.86155-2.59244,66.02361-1.27205,99.06369-1.74752,21.11822-.30392,42.23933-1.69295,63.34065-1.373,12.13.18384,115.17787-12.01533,127.13177-13.24772,7.1852-.74081,13.49737.05259,19.69786,3.0545.08389,1.26643,6.73178,1.00323,6.81566,2.26967-9.142,6.43862,22.91193,32.18611,15.76258,41.62938-4.72612,6.24261-53.552-10.88282-60.23226-11.606-5.16987-.55952-109.86294,2.35464-114.79473,3.11387-15.74927,2.42424-31.19891,5.03372-47.45933,4.084C595.16915,980.04892,585.64626,977.69948,577.455,982.73728Z" fill="#84a2a9"/><path d="M292.63657,949.31932c2.14057-.606,3.67158-4.32534,5.81215-4.93137,3.10333,4.95721-1.945,3.564,4.08726,3.60779,10.50966.07628,21.03692.42476,31.52752-.02379,57.09907-2.44129,114.33127,4.57064,171.44613-4.20541,21.32568-3.27686,43.75954-2.29681,65.35333-.04692,21.53455,2.24366,41.94216-5.52794,64.12533-1.56857,25.07,4.4745,142.55079-10.4134,168.4127-10.9065,5.78721-.11038-1.7124,4.74817-1.45971-5.06619,4.90524,1.88546,4.60854,9.04746,7.721,12.68081-6.73079,5.7011,2.52879.15964-5.45795,2.65845-6.5039-3.39806-13.09485-4.31585-20.6514-3.53676-11.9539,1.23239-115.00178,13.43156-127.13177,13.24772-21.10132-.31994-42.22243,1.06909-63.34065,1.373-33.04008.47547-66.20214-.84492-99.06369,1.74752-11.54409.91067-24.65422-5.14625-35.3627,4.16063a2.41887,2.41887,0,0,1-2.22985.33113c-12.98593-9.63171-27.83225-3.95537-40.7443-2.23824-15.88424,2.1123-30.76789-2.62216-46.14535-1.35145-16.23695,1.34178-32.48731.58985-48.71227-.57828a.72372.72372,0,0,1-.15506-.02834q-1.23717-.36912-2.47769-.7451a.70787.70787,0,0,0-.2944-.02448q-5.54721.71137-11.08011,1.422c-.7241.05769-1.45939.11585-2.201.17385a.70905.70905,0,0,1-.51262-.172c-4.374-3.746-9.51536-2.12916-14.44609-1.97055a.73441.73441,0,0,1-.51438-.19063C286.02556,950.30314,292.69826,953.39894,292.63657,949.31932Z" fill="#e9e7df"/><path d="M289.25191,956.81075q.04265-1.411.08651-2.81994a.70444.70444,0,0,1,.67948-.68015c4.65267-.20988,9.46877-1.5661,13.63435,1.62406a.71691.71691,0,0,1,.05288,1.10665q-1.18053,1.04581-2.36807,2.09347a.71119.71119,0,0,1-.52012.1766q-5.45359-.383-10.90634-.77121A.70988.70988,0,0,1,289.25191,956.81075Z" fill="#b7bdcd"/><path d="M318.04491,953.85578q1.35007.40775,2.69823.81142Q319.392,954.25734,318.04491,953.85578Z" fill="#b7bdcd"/><path d="M800.77052,924.91535a1.59468,1.59468,0,0,1,1.16972,1.26249c-.25165,9.81488,7.248,4.95633,1.46075,5.06671-25.86191.4931-143.34274,15.381-168.4127,10.9065-22.18317-3.95937-42.59078,3.81223-64.12533,1.56857-21.59379-2.24989-44.02765-3.22994-65.35333.04692-57.11486,8.77605-114.34706,1.76412-171.44613,4.20541-10.4906.44855-21.01786.10007-31.52752.02379-6.87694-.04995-2.48157.98811-5.25162-5.91767l3.0825-3.86915c15.8124,2.52765,21.21892,1.93341,37.29789.43244l12.39493.44769a139.484,139.484,0,0,0,53.26281-.90575q6.0273.00934,12.05462.01883c6.3783-.39918,12.752-1.03106,19.13572-1.15633,24.27159-.47636,48.56606-1.53017,72.81256-.88607,14.65821.3894,28.85442-3.75047,43.41038-2.63839,6.40477.4894,13.02308,2.989,19.11318,1.97828,29.75581-4.9381,59.69891-1.07673,89.34142-.69615C681.42174,935.08887,778.733,925.94144,800.77052,924.91535Z" fill="#f9eec9"/><path d="M337.3057,938.67429c-15.99819,1.44193-21.32759,2.03285-37.06372-.48535,0,0-.78246-.72486-.43862-1.14853,6.28818-7.74787,5.02988-9.22876,11.31673-16.97509,8.96524,6.05922,15.08932-9.34528,23.95309-9.54958,36.09455-.83158,71.97516-6.3762,108.215-6.22579,11.0673.046,22.23252-.94477,32.891-4.63676,36.34646-1.348,72.62048.36842,108.93113,1.83587,13.46744.54433,27.0403,1.09422,40.63037.88318,18.93478-.294,129.19451-16.26707,148.0048-10.14587-3.46393,3.963-8.33582,5.00029-13.06186,5.10881-15.67823.36034-122.37274,12.41525-138.0377,11.879-36.71993-1.25707-73.42266.94181-110.24788-1.95011-17.59305-1.38161-36.237,2.79118-54.33515,1.644-19.07087-1.20889-37.47147,3.708-56.56263,3.47294-25.74957-.317-51.57448,4.08339-77.32554,6.8461a71.486,71.486,0,0,1-10.716-.13669c-3.03293-.11764-5.83252.87064-6.33537,4.25322-.429,2.88628,1.83065,4.28339,4.29459,4.94847,7.15627,1.93172,13.41416,7.23431,21.63942,5.28628,3.56719-.84478,6.44838.07061,4.86214,4.62189A.72333.72333,0,0,1,337.3057,938.67429Z" fill="#dbcb92"/><path d="M323.04307,895.209c29.875,4.8842,54.85208,4.26981,84.6107,2.6985,7.22712-.38161,14.62085-1.21771,21.52373-.03721a82.06784,82.06784,0,0,0,32.77829-1.24723l8.89694.75257q2.66357,1.1394,5.32714,2.27872c-10.65917,3.69088-21.82439,4.68161-32.89169,4.63565-36.23984-.15041-72.12045,5.39421-108.215,6.22579-8.86377.2043-14.98785,15.6088-23.95309,9.54958C315.74158,911.763,319.722,899.15045,323.04307,895.209Z" fill="#e9e9cf"/><path d="M338.76025,938.6211a.7099.7099,0,0,1-.6811-.91683c1.20993-4.12132-1.5881-4.939-5.02173-4.12585-8.22526,1.948-14.48315-3.35456-21.63942-5.28628-2.46394-.66508-4.72363-2.06219-4.29459-4.94847.50285-3.38258,3.30244-4.37086,6.33537-4.25322a71.486,71.486,0,0,0,10.716.13669c25.75106-2.76271,51.576-7.16307,77.32554-6.8461,19.09116.23507,37.49176-4.68183,56.56263-3.47294,18.09812,1.14715,36.7421-3.02564,54.33515-1.644,36.82522,2.89192,73.528.693,110.24788,1.95011,15.665.53625,122.35947-11.51866,138.0377-11.879,4.726-.10852,9.59793-1.14581,13.06164-5.10511q2.3596.05216,4.71966.09674c-1.16364,3.22372-1.08519,5.86026,3.375,5.11742a82.96239,82.96239,0,0,0,8.42216-1.42695s2.99258-1.35744,3-1.35557c.89753.447-5.71631-3.33519-4.81879-2.8882,3.89283,9.36738,6.16536,16.2817,8.48754,18.99593.88367,10.17753,2.83976,6.637-7.9238,6.48254-49.76956-.71423-190.54316,11.36811-240.32295,11.36707-40.80394-.00089-81.60856.131-122.41109-.10467-7.19576-.04151-12.07091,1.02824-10.896,9.68775q-6.02732-.00945-12.05492-.01712c-1.32-2.61453,1.934-9.874-3.76115-7.47286-13.41156,5.65463-26.90754,1.33692-40.25571,2.62705-4.874.47109-9.69461-.32142-12.17834,5.187Z" fill="#dfc77f"/><path d="M415.37711,938.20213c-1.175-8.65951,3.7002-9.72926,10.896-9.68775,40.80253.23565,81.60715.10378,122.41109.10467,49.77979.001,190.55339-12.0813,240.323-11.36707,10.76356.15449,6.78663-1.76129,5.903-11.93882-10.01952-5.33166-5.02981,4.0186,7.88129,18.1876-22.03651,1.02572-121.36962,11.58811-143.601,11.30271-29.64251-.38058-59.58561-4.24195-89.34142.69615-6.0901,1.01067-12.70841-1.48888-19.11318-1.97828-14.556-1.11208-28.75217,3.02779-43.41038,2.63839-24.2465-.6441-48.541.40971-72.81256.88607C428.12915,937.17107,421.75541,937.803,415.37711,938.20213Z" fill="#dbcb92"/><path d="M778.46494,892.32681c.42337-5.17575,4.78165-4.27538,7.98125-5.1676,2.57041,2.30971,5.85031,3.95063,7.09863,7.50867-3.89665.94373-7.75756,2.119-11.70485,2.77635C777.37975,898.18707,777.3013,895.55053,778.46494,892.32681Z" fill="#dbcb92"/><path d="M796.95218,897.23711q-1.84445-1.28683-3.69015-2.57546Q795.10592,895.94771,796.95218,897.23711Z" fill="#dbcb92"/><path d="M347.127,938.52615c2.48373-5.50837,7.30434-4.71586,12.17834-5.187,13.34817-1.29013,26.84415,3.02758,40.25571-2.62705,5.69516-2.40118,2.44114,4.85833,3.76115,7.47286A139.054,139.054,0,0,1,347.127,938.52615Z" fill="#dbcb92"/><path d="M565.22011,1058.49507q-3.2083,1.222-6.417,2.44113c-24.15567-2.21408-48.02891,3.25293-72.579,1.118-16.07224-1.39778-33.51261,1.25485-50.41047,1.77071-21.11477.64455-41.38317-5.78539-62.31428-5.32972-8.69632.18933-103.94883,3.23463-111.82569,1.924-19.89737-3.31067,25.649-49.49084,9.63584-63.15769,3.74806-.48058,12.82769,25.52534,16.57575,25.04469l2.6962.80726c16.2533,1.17554,50.455,9.23942,66.71831,7.89547,15.37746-1.27072,30.26111,3.46374,46.14536,1.35144,12.912-1.71712,27.75836-7.39347,40.74429,2.23825a2.41889,2.41889,0,0,0,2.22986-.33114c10.70847-9.30688,23.8186-3.25,35.3627-4.16063,32.86154-2.59243,66.0236-1.27205,99.06369-1.74751,21.11822-.30393,42.23933-1.693,63.34064-1.373,12.13.18384,145.12434-12.72688,157.07824-13.95927,7.1852-.74081,20.99107-17.95911,27.19157-14.9572.99526,15.0262,5.601,32.77879,4.64794,18.38968-9.142,6.43862,16.82976,29.67582,9.68041,39.11908-4.72611,6.24261-54.30551,2.475-60.98581,1.75191-5.16987-.55953-124.74117,15.9721-129.673,16.73133-15.74926,2.42424-44.7574-16.828-61.01783-17.77779C582.93431,1055.80671,573.41142,1053.45727,565.22011,1058.49507Z" fill="#84a2a9"/><path d="M272.00062,1015.87472c1.41614-.13724-6.06418-1.34725-4.64805-1.48448,2.83615,6.58936-1.72763,2.00693,5.02373,2.056,10.50966.07628,21.03692.42476,31.52752-.02379,57.09907-2.44129,132.25612,11.878,189.371,3.10192,21.32568-3.27687,43.75954-2.29681,65.35333-.04693,21.53454,2.24366,41.94215-5.52793,64.12533-1.56856,25.06995,4.47449,172.49725-11.125,198.35916-11.61806,5.78721-.11038,7.09077,1.59348,7.34346-8.22089,4.90524,1.88547-.28323,10.31047,2.82918,13.94382-6.73079,5.70111-1.38261,2.05133-9.36935,4.55014-6.5039-3.39806-13.09485-4.31585-20.6514-3.53676-11.9539,1.23239-144.94824,14.14311-157.07824,13.95927-21.10131-.31994-42.22242,1.06909-63.34064,1.373-33.04009.47546-66.20215-.84492-99.06369,1.74751-11.5441.91068-24.65423-5.14625-35.3627,4.16063a2.41889,2.41889,0,0,1-2.22986.33114c-12.98593-9.63172-27.83225-3.95537-40.74429-2.23825-15.88425,2.1123-30.7679-2.62216-46.14536-1.35144-16.26335,1.34395-50.465-6.71993-66.71628-7.89132q-1.34712-.40162-2.69823-.81141-5.62209.721-11.22986,1.44121c-.81879.06524-1.65189.13106-2.49226.19659-4.50776-4.074-2.80267-.51308-7.90574-.41152C262.31832,1020.0356,270.98669,1021.39122,272.00062,1015.87472Z" fill="#e9e7df"/><path d="M262.61984,1026.3617c.04189-1.38791.76415-.43462.80834-1.81876,5.1054-.09777,6.22716-4.673,10.73492-.5989q-1.597,1.41816-3.2091,2.83869C266.99289,1026.50468,266.58044,1026.6428,262.61984,1026.3617Z" fill="#b7bdcd"/><path d="M287.88522,1022.30624q1.35009.40775,2.69823.81141Q289.23233,1022.70781,287.88522,1022.30624Z" fill="#b7bdcd"/><path d="M829.4665,995.44279c.63639.19214-2.3667,5.21078-2.22293,5.86045-.25165,9.81489-.34374,4.87716-6.13095,4.98754-25.86191.4931-173.28921,16.09255-198.35916,11.61806-22.18318-3.95937-42.59079,3.81222-64.12533,1.56856-21.59379-2.24988-44.02765-3.22994-65.35333.04693-57.11486,8.776-132.27191-5.54321-189.371-3.10192-10.4906.44855-21.01786.10007-31.52752.02379-7.31331-.05312-3.26567,3.12375-5.75892-4.95755,1.03787-1.161,2.03085-4.31777,3.06872-5.47874,16.23322,2.61976,39.32765,9.93551,55.83717,8.38048l12.20911.43972a139.46875,139.46875,0,0,0,53.35527-.889q6.02731.00934,12.05463.01883c6.3783-.39919,12.752-1.03106,19.13571-1.15634,24.2716-.47635,48.56606-1.53017,72.81256-.88606,14.65821.3894,28.85442-3.75048,43.41039-2.6384,6.40477.4894,13.02308,2.98895,19.11317,1.97828,29.75581-4.93809,59.69891-1.07672,89.34143-.69614C669.18691,1010.84665,807.429,996.46888,829.4665,995.44279Z" fill="#f9eec9"/><path d="M325.52486,1014.39024c-16.5649,1.56048-42.62-.26994-58.90748-2.90159,6.54624-8.06582,4.90239-23.77651,11.44715-31.84062,8.96524,6.05923,17.9852-.47753,26.849-.68183,36.09455-.83158,89.9.93113,126.13984,1.08153,11.06731.046,22.23252-.94477,32.891-4.63676,36.34647-1.348,72.62049.36842,108.93114,1.83588,13.46743.54433,27.0403,1.09421,40.63037.88317,18.93478-.294,129.1945-16.26706,148.00479-10.14587-3.46393,3.963-8.33581,5.00029-13.06185,5.10882-15.67823.36034-122.37274,12.41525-138.0377,11.879-36.71994-1.25708-73.42267.9418-110.24789-1.95011-17.593-1.38162-36.237,2.79117-54.33514,1.644-19.07088-1.20889-37.47148,3.708-56.56263,3.47294-25.74958-.317-69.49933-3.22394-95.25039-.46123a71.48593,71.48593,0,0,1-10.716-.13669c-3.03293-.11765-5.83252.87064-6.33537,4.25322-.42905,2.88628,1.83065,4.28338,4.29458,4.94847,7.15628,1.93172,13.41416,7.23431,21.63943,5.28628C306.5751,1001.158,327.44827,1009.465,325.52486,1014.39024Z" fill="#dbcb92"/><path d="M306.03158,975.19763c12.03362,1.96735,41.42693,1,89.38736-1.53239,7.22712-.38162,14.62084-1.21772,21.52372-.03722A82.06783,82.06783,0,0,0,449.721,972.3808l8.897.75256q2.66357,1.1394,5.32713,2.27872c-10.65917,3.69088-21.82438,4.68161-32.89169,4.63565-36.23984-.1504-90.04529-1.91311-126.13984-1.08153-8.86377.2043-17.88373,6.74106-26.849.68183C279.6022,974.18333,302.71053,979.13914,306.03158,975.19763Z" fill="#e9e9cf"/><path d="M325.52486,1014.39024c1.92341-4.9252-18.94976-13.23223-22.62712-12.36136-8.22527,1.948-14.48315-3.35456-21.63943-5.28628-2.46393-.66509-4.72363-2.06219-4.29458-4.94847.50285-3.38258,3.30244-4.37087,6.33537-4.25322a71.48593,71.48593,0,0,0,10.716.13669c25.75106-2.76271,69.50081.14425,95.25039.46123,19.09115.23506,37.49175-4.68183,56.56263-3.47294,18.09812,1.14714,36.7421-3.02565,54.33514-1.644,36.82522,2.89191,73.528.693,110.24789,1.95011,15.665.53625,122.35947-11.51866,138.0377-11.879,4.726-.10853,9.59792-1.14581,13.06163-5.10511q2.35961.05214,4.71967.09674c-1.16365,3.22371,28.86126,5.1487,33.32149,4.40585,3.94729-.6573,7.8082-1.83261,11.70729-2.77931,0,0-.29255-.00507-.2851-.0032l2.58616,1.288q3.48423,4.06385,6.9678,8.13153c.88367,10.17752-3.04545,13.32526-13.809,13.17077-49.76955-.71423-220.48961,12.07966-270.2694,12.07862-40.804-.00089-81.60856.131-122.4111-.10467-7.19575-.04151-12.0709,1.02824-10.89595,9.68776q-6.02732-.00945-12.05493-.01713c-1.32-2.61452,1.934-9.874-3.76114-7.47285-13.41157,5.65462-26.90755,1.33691-40.25572,2.62705-4.874.47109-9.6946-.32142-12.17833,5.187Z" fill="#dfc77f"/><path d="M403.14228,1013.95992c-1.175-8.65952,3.7002-9.72927,10.89595-9.68776,40.80254.23566,81.60715.10378,122.4111.10467,49.77979.001,220.49985-12.79285,270.2694-12.07862,10.76357.15449,14.69269-2.99325,13.809-13.17077,6.87812,3.66,4.09941,11.00454,8.93875,16.31535-22.03652,1.02572-160.27959,15.40386-182.511,15.11847-29.64252-.38058-59.58562-4.24195-89.34143.69614-6.09009,1.01067-12.7084-1.48888-19.11317-1.97828-14.556-1.11208-28.75218,3.0278-43.41039,2.6384-24.2465-.64411-48.541.40971-72.81256.88606C415.89432,1012.92886,409.52058,1013.56073,403.14228,1013.95992Z" fill="#dbcb92"/><path d="M766.23011,968.0846c-1.28184,15.67059,86.34408-27.01921,7.98125-5.1676,2.5704,2.30971,35.79677,3.23907,37.04508,6.79711-3.89664.94373-7.75755,2.119-11.70484,2.77634C795.09137,973.2333,765.06646,971.30831,766.23011,968.0846Z" fill="#dbcb92"/><path d="M814.6638,972.28334q-1.84445-1.28683-3.69015-2.57546Q812.81754,970.99394,814.6638,972.28334Z" fill="#dbcb92"/><path d="M265.65111,1024.54294c.31241-1.75759-.42711,2.62245,2.25763,2.79094.27779.01749,1.40286-5.9873,1.4191-5.71028.1573,2.67805-1.91689,2.61489-3.6843,2.91341Z" fill="#fefdfe"/><path d="M334.89216,1014.28394c2.48373-5.50837,7.30434-4.71586,12.17833-5.187,13.34817-1.29014,26.84415,3.02757,40.25572-2.62705,5.69516-2.40119,2.44113,4.85833,3.76114,7.47285A139.054,139.054,0,0,1,334.89216,1014.28394Z" fill="#dbcb92"/><path d="M556.16805,1136.69819q-3.20832,1.222-6.417,2.44114c-24.15567-2.21408-48.02892,3.25292-72.579,1.118-16.07224-1.39778-33.51262,1.25485-50.41047,1.77072-21.11477.64455-41.38317-5.78539-62.31429-5.32972-8.69631.18932-115.48846,21.564-123.36531,20.25344-19.89738-3.31067,19.69748-53.89669,3.68429-67.56353,3.74806-.48058,30.31887,11.60176,34.06693,11.12111l2.69619.80727c16.25331,1.17553,50.455,9.23942,66.71832,7.89546,15.37746-1.27072,30.26111,3.46375,46.14535,1.35144,12.91205-1.71712,27.75837-7.39346,40.7443,2.23825a2.4189,2.4189,0,0,0,2.22985-.33113c10.70848-9.30688,23.81861-3.25,35.3627-4.16063,32.86155-2.59244,66.02361-1.27206,99.06369-1.74752,21.11822-.30393,42.23934-1.693,63.34065-1.373,12.13.18384,145.12434-12.72688,157.07823-13.95928,7.1852-.7408,13.64762-9.73822,19.84811-6.73631.08388,1.26643,38.32652,1.57377,38.4104,2.8402-9.142,6.43862,19.81867,55.32943,12.66932,64.77269-4.72612,6.24262-120.6162,5.626-127.29649,4.90288-5.16988-.55952-101.3969-27.36566-106.32869-26.60643-15.74927,2.42424-31.19891,5.03372-47.45933,4.084C573.88225,1134.00983,564.35936,1131.66039,556.16805,1136.69819Z" fill="#84a2a9"/><path d="M262.94856,1094.07784c1.41614-.13724-6.06419-1.34725-4.64805-1.48448,2.83614,6.58936-1.72764,2.00693,5.02373,2.056,10.50965.07628,21.03692.42475,31.52752-.0238,57.09907-2.44129,132.25611,11.878,189.371,3.10192,21.32568-3.27687,43.75954-2.29681,65.35333-.04692,21.53455,2.24366,41.94216-5.52794,64.12533-1.56857,25.07,4.47449,172.49725-11.12495,198.35916-11.61806,5.78721-.11038,21.73645-10.74779,21.98914-20.56215,4.90524,1.88547,13.30885,19.769,16.42126,23.40235-6.73079,5.70111-29.62037,4.93407-37.60711,7.43288-6.5039-3.39807-13.09485-4.31586-20.6514-3.53677-11.95389,1.2324-144.94824,14.14312-157.07823,13.95928-21.10131-.31994-42.22243,1.06908-63.34065,1.373-33.04008.47546-66.20214-.84492-99.06369,1.74752-11.54409.91067-24.65422-5.14625-35.3627,4.16063a2.4189,2.4189,0,0,1-2.22985.33113c-12.98593-9.63171-27.83225-3.95537-40.7443-2.23825-15.88424,2.11231-30.76789-2.62216-46.14535-1.35144-16.26336,1.344-50.465-6.71993-66.71628-7.89131q-1.34713-.40164-2.69823-.81142-5.62209.721-11.22987,1.44122c-.81879.06523-1.65189.13106-2.49226.19659-4.50775-4.074-6.62048-2.74949-11.72355-2.64794C249.44844,1096.00232,261.93463,1099.59434,262.94856,1094.07784Z" fill="#e9e7df"/><path d="M250.01959,1104.14561q.06284-2.08188.12794-4.15989c5.1054-.09778,10.45575-1.9126,14.9635,2.16145q-1.597,1.41816-3.20909,2.83869Q255.96026,1104.56877,250.01959,1104.14561Z" fill="#b7bdcd"/><path d="M278.83316,1100.50936q1.35007.40774,2.69823.81142Q280.18025,1100.91092,278.83316,1100.50936Z" fill="#b7bdcd"/><path d="M824.99866,1074.06189a1.59468,1.59468,0,0,1,1.16972,1.26249c-.25165,9.81489-8.32062,9.05914-14.10783,9.16952-25.86191.49311-173.2892,16.09255-198.35916,11.61806-22.18317-3.95937-42.59078,3.81223-64.12533,1.56857-21.59379-2.24989-44.02765-3.23-65.35333.04692-57.11486,8.776-132.2719-5.54321-189.371-3.10192-10.4906.44855-21.01787.10008-31.52752.0238-7.31331-.05312-3.26568,3.12374-5.75893-4.95756,1.03788-1.161,2.03085-4.31777,3.06872-5.47874,16.23323,2.61976,39.32766,9.93551,55.83717,8.38048l12.20912.43972a139.46875,139.46875,0,0,0,53.35527-.889q6.02731.00934,12.05462.01883c6.3783-.39918,12.752-1.03106,19.13572-1.15634,24.27159-.47635,48.56606-1.53016,72.81256-.88606,14.65821.3894,28.85442-3.75048,43.41038-2.63839,6.40477.4894,13.02308,2.98895,19.11318,1.97827,29.75581-4.93809,59.69891-1.07672,89.34142-.69614C660.13484,1089.04978,802.96111,1075.088,824.99866,1074.06189Z" fill="#f9eec9"/><path d="M316.4728,1092.59336c-16.5649,1.56049-50.05135-1.33982-66.3388-3.97147,6.54624-8.06582-.733-23.22722,5.81178-31.29133,8.96524,6.05922,31.05188.04306,39.91565-.16124,36.09456-.83158,89.9.93113,126.13985,1.08154,11.0673.046,22.23252-.94478,32.891-4.63676,36.34646-1.348,72.62048.36842,108.93113,1.83587,13.46744.54433,27.0403,1.09422,40.63037.88317,18.93479-.294,129.19451-16.26706,148.0048-10.14587-3.46393,3.963-8.33582,5.00029-13.06186,5.10882-15.67823.36034-122.37274,12.41525-138.0377,11.879-36.71993-1.25708-73.42266.94181-110.24788-1.95011-17.59305-1.38161-36.237,2.79118-54.33515,1.644-19.07087-1.20889-37.47147,3.708-56.56263,3.47294-25.74957-.317-69.49933-3.22394-95.25038-.46123a71.48476,71.48476,0,0,1-10.716-.13669c-3.03292-.11764-5.83251.87064-6.33537,4.25322-.429,2.88628,1.83066,4.28339,4.29459,4.94847,7.15627,1.93173,13.41416,7.23431,21.63942,5.28628C297.523,1079.36113,318.39621,1087.66816,316.4728,1092.59336Z" fill="#dbcb92"/><path d="M296.97952,1053.40075c12.03362,1.96735,41.42693,1,89.38735-1.53239,7.22712-.38162,14.62085-1.21771,21.52373-.03721a82.06784,82.06784,0,0,0,32.77829-1.24723l8.89694.75257q2.66357,1.13939,5.32714,2.27872c-10.65917,3.69087-21.82439,4.68161-32.89169,4.63565-36.23984-.15041-90.04529-1.91312-126.13985-1.08154-8.86377.2043-17.88373,6.74106-26.849.68184C270.55013,1052.38645,293.65846,1057.34226,296.97952,1053.40075Z" fill="#e9e9cf"/><path d="M316.4728,1092.59336c1.92341-4.9252-18.94976-13.23223-22.62713-12.36136-8.22526,1.948-14.48315-3.35455-21.63942-5.28628-2.46393-.66508-4.72363-2.06219-4.29459-4.94847.50286-3.38258,3.30245-4.37086,6.33537-4.25322a71.48476,71.48476,0,0,0,10.716.13669c25.751-2.76271,69.50081.14425,95.25038.46123,19.09116.23506,37.49176-4.68183,56.56263-3.47294,18.09812,1.14715,36.7421-3.02564,54.33515-1.644,36.82522,2.89192,73.52795.693,110.24788,1.95011,15.665.53625,122.35947-11.51866,138.0377-11.879,4.726-.10853,9.59793-1.14581,13.06164-5.10511q2.3596.05216,4.71966.09674c-1.16364,3.22372,28.86127,5.1487,33.32149,4.40586,3.94729-.6573,7.8082-1.83262,11.70729-2.77932,0,0-.29255-.00507-.2851-.0032l2.58617,1.288c2.32281,2.70923,35.95436,3.66538,38.27654,6.37962.88367,10.17752-34.3542,15.07717-45.11776,14.92268-49.76956-.71423-220.48962,12.07966-270.26941,12.07863-40.80394-.00089-81.60856.131-122.41109-.10467-7.19576-.04152-12.07091,1.02824-10.896,9.68775q-6.02731-.00945-12.05492-.01712c-1.32-2.61453,1.934-9.874-3.76115-7.47286-13.41156,5.65462-26.90754,1.33691-40.25571,2.627-4.874.47109-9.69461-.32142-12.17834,5.187Z" fill="#dfc77f"/><path d="M394.09021,1092.163c-1.175-8.65951,3.7002-9.72927,10.896-9.68775,40.80253.23565,81.60715.10378,122.41109.10467,49.77979.001,220.49985-12.79286,270.26941-12.07863,10.76356.15449,44.03513-17.52064,43.15146-27.69816,6.87812,3.66-.4353,25.94791,4.404,31.25872-22.03651,1.02572-185.08732,14.98789-207.31869,14.70249-29.64251-.38058-59.58561-4.242-89.34142.69614-6.0901,1.01068-12.70841-1.48887-19.11318-1.97827-14.556-1.11209-28.75217,3.02779-43.41038,2.63839-24.2465-.6441-48.541.40971-72.81256.88606C406.84225,1091.132,400.46851,1091.76386,394.09021,1092.163Z" fill="#dbcb92"/><path d="M757.178,1046.28772c-1.28184,15.67059,86.34409-27.01921,7.98125-5.1676,2.57041,2.30971,35.79677,3.23907,37.04509,6.79711-3.89665.94373-7.75756,2.11905-11.70485,2.77635C786.03931,1051.43642,756.0144,1049.51144,757.178,1046.28772Z" fill="#dbcb92"/><path d="M805.61174,1050.48646q-1.84445-1.28683-3.69015-2.57546Q803.76548,1049.19707,805.61174,1050.48646Z" fill="#dbcb92"/><path d="M241.0895,1092.30759c.31241-1.75759.23589-3.84462,2.92063-3.67612a1.10439,1.10439,0,0,1,.7561.75678c.1573,2.678-1.91688,2.61489-3.68429,2.91341Z" fill="#fefdfe"/><path d="M325.84009,1092.48706c2.48373-5.50837,7.30434-4.71586,12.17834-5.187,13.34817-1.29014,26.84415,3.02757,40.25571-2.627,5.69516-2.40118,2.44114,4.85833,3.76115,7.47286A139.05418,139.05418,0,0,1,325.84009,1092.48706Z" fill="#dbcb92"/><path d="M474.45567,731.34149S374.09006,802.7408,356.32826,832.73305s-75.11054,119.81789-85.78214,165.6598-47.60536,112.59584-47.60536,112.59584l42.3759-73.67628S324.2701,889.97451,367.01021,840.659,484.54552,735.45257,484.54552,735.45257l-4.52059-7.39733Z" fill="#5a493a" stroke="#5a493a" stroke-miterlimit="10" stroke-width="6"/><path d="M672.75212,747.97371s82.70681,65.3282,96.3288,95.32045,57.60424,119.81789,65.78857,165.6598,36.50979,112.59584,36.50979,112.59584L845.28338,1088.58s-51.61622-188.04442-84.39473-237.35993S626.45414,732.45185,626.45414,732.45185l-4.81713-8.56379Z" fill="#5a493a" stroke="#5a493a" stroke-miterlimit="10" stroke-width="6"/></g><path d="M416.39709,1205.17513c-3.18272-37.4775-16.0432-199.61584-19.1749-237.09957a13.26289,13.26289,0,0,1,.67657-3.49636l2.32067-.8395c1.02681,3.97854,2.5933,7.8803,2.99424,11.94785,2.94117,29.83929,5.64536,59.71231,8.43394,89.57335.4751,5.08724,10.66541,134.83027,11.16532,139.91423Z" fill="#5a493a"/><path d="M710.10625,1230.47927c.03431-20.63728-.21657-191.241-.10345-211.87753.05786-10.54815.23794-21.10066.62572-31.63723a13.54291,13.54291,0,0,1,3.40386-8.28272c3.74152,16.61994,2.463,33.45645,2.66347,50.1042.20759,17.23657-.01193,184.45035-.17376,201.69328Z" fill="#5a493a"/><path d="M383.52505,846.88409a382.21278,382.21278,0,0,1,19.13464,86.3516l-2.83518,1.3097c-.95326-1.87831-2.29632-3.61752-2.8004-5.656-6.14474-24.85063-12.26432-49.71243-18.05257-74.68428-.52094-2.2475,1.30528-5.27972,2.04147-7.94756Q382.269,846.5709,383.52505,846.88409Z" fill="#5a493a"/><path d="M735.79448,857.37064c.48827,2.71728,1.8399,5.69823,1.32931,8.11052-4.39366,20.75633-9.08724,41.422-13.82585,62.07022-.35918,1.56514-1.7511,2.78842-3.863,3.70794.18381-25.75233,7.00187-49.5905,13.54038-73.50356Q734.38494,857.56318,735.79448,857.37064Z" fill="#5a493a"/></g></svg>